G04 #@! TF.GenerationSoftware,KiCad,Pcbnew,(5.0.1)-rc2*
G04 #@! TF.CreationDate,2019-03-09T00:38:12-07:00*
G04 #@! TF.ProjectId,weatherStation,7765617468657253746174696F6E2E6B,rev?*
G04 #@! TF.SameCoordinates,Original*
G04 #@! TF.FileFunction,Paste,Bot*
G04 #@! TF.FilePolarity,Positive*
%FSLAX46Y46*%
G04 Gerber Fmt 4.6, Leading zero omitted, Abs format (unit mm)*
G04 Created by KiCad (PCBNEW (5.0.1)-rc2) date 3/9/2019 12:38:12 AM*
%MOMM*%
%LPD*%
G01*
G04 APERTURE LIST*
%ADD10C,0.100000*%
%ADD11C,0.975000*%
%ADD12C,0.875000*%
%ADD13R,1.450000X0.450000*%
%ADD14C,0.600000*%
%ADD15R,0.700000X0.300000*%
%ADD16R,0.800000X1.200000*%
%ADD17C,0.200000*%
%ADD18R,0.200000X0.800000*%
G04 APERTURE END LIST*
D10*
G04 #@! TO.C,C1*
G36*
X111630542Y-68809474D02*
X111654203Y-68812984D01*
X111677407Y-68818796D01*
X111699929Y-68826854D01*
X111721553Y-68837082D01*
X111742070Y-68849379D01*
X111761283Y-68863629D01*
X111779007Y-68879693D01*
X111795071Y-68897417D01*
X111809321Y-68916630D01*
X111821618Y-68937147D01*
X111831846Y-68958771D01*
X111839904Y-68981293D01*
X111845716Y-69004497D01*
X111849226Y-69028158D01*
X111850400Y-69052050D01*
X111850400Y-69539550D01*
X111849226Y-69563442D01*
X111845716Y-69587103D01*
X111839904Y-69610307D01*
X111831846Y-69632829D01*
X111821618Y-69654453D01*
X111809321Y-69674970D01*
X111795071Y-69694183D01*
X111779007Y-69711907D01*
X111761283Y-69727971D01*
X111742070Y-69742221D01*
X111721553Y-69754518D01*
X111699929Y-69764746D01*
X111677407Y-69772804D01*
X111654203Y-69778616D01*
X111630542Y-69782126D01*
X111606650Y-69783300D01*
X110694150Y-69783300D01*
X110670258Y-69782126D01*
X110646597Y-69778616D01*
X110623393Y-69772804D01*
X110600871Y-69764746D01*
X110579247Y-69754518D01*
X110558730Y-69742221D01*
X110539517Y-69727971D01*
X110521793Y-69711907D01*
X110505729Y-69694183D01*
X110491479Y-69674970D01*
X110479182Y-69654453D01*
X110468954Y-69632829D01*
X110460896Y-69610307D01*
X110455084Y-69587103D01*
X110451574Y-69563442D01*
X110450400Y-69539550D01*
X110450400Y-69052050D01*
X110451574Y-69028158D01*
X110455084Y-69004497D01*
X110460896Y-68981293D01*
X110468954Y-68958771D01*
X110479182Y-68937147D01*
X110491479Y-68916630D01*
X110505729Y-68897417D01*
X110521793Y-68879693D01*
X110539517Y-68863629D01*
X110558730Y-68849379D01*
X110579247Y-68837082D01*
X110600871Y-68826854D01*
X110623393Y-68818796D01*
X110646597Y-68812984D01*
X110670258Y-68809474D01*
X110694150Y-68808300D01*
X111606650Y-68808300D01*
X111630542Y-68809474D01*
X111630542Y-68809474D01*
G37*
D11*
X111150400Y-69295800D03*
D10*
G36*
X111630542Y-70684474D02*
X111654203Y-70687984D01*
X111677407Y-70693796D01*
X111699929Y-70701854D01*
X111721553Y-70712082D01*
X111742070Y-70724379D01*
X111761283Y-70738629D01*
X111779007Y-70754693D01*
X111795071Y-70772417D01*
X111809321Y-70791630D01*
X111821618Y-70812147D01*
X111831846Y-70833771D01*
X111839904Y-70856293D01*
X111845716Y-70879497D01*
X111849226Y-70903158D01*
X111850400Y-70927050D01*
X111850400Y-71414550D01*
X111849226Y-71438442D01*
X111845716Y-71462103D01*
X111839904Y-71485307D01*
X111831846Y-71507829D01*
X111821618Y-71529453D01*
X111809321Y-71549970D01*
X111795071Y-71569183D01*
X111779007Y-71586907D01*
X111761283Y-71602971D01*
X111742070Y-71617221D01*
X111721553Y-71629518D01*
X111699929Y-71639746D01*
X111677407Y-71647804D01*
X111654203Y-71653616D01*
X111630542Y-71657126D01*
X111606650Y-71658300D01*
X110694150Y-71658300D01*
X110670258Y-71657126D01*
X110646597Y-71653616D01*
X110623393Y-71647804D01*
X110600871Y-71639746D01*
X110579247Y-71629518D01*
X110558730Y-71617221D01*
X110539517Y-71602971D01*
X110521793Y-71586907D01*
X110505729Y-71569183D01*
X110491479Y-71549970D01*
X110479182Y-71529453D01*
X110468954Y-71507829D01*
X110460896Y-71485307D01*
X110455084Y-71462103D01*
X110451574Y-71438442D01*
X110450400Y-71414550D01*
X110450400Y-70927050D01*
X110451574Y-70903158D01*
X110455084Y-70879497D01*
X110460896Y-70856293D01*
X110468954Y-70833771D01*
X110479182Y-70812147D01*
X110491479Y-70791630D01*
X110505729Y-70772417D01*
X110521793Y-70754693D01*
X110539517Y-70738629D01*
X110558730Y-70724379D01*
X110579247Y-70712082D01*
X110600871Y-70701854D01*
X110623393Y-70693796D01*
X110646597Y-70687984D01*
X110670258Y-70684474D01*
X110694150Y-70683300D01*
X111606650Y-70683300D01*
X111630542Y-70684474D01*
X111630542Y-70684474D01*
G37*
D11*
X111150400Y-71170800D03*
G04 #@! TD*
D10*
G04 #@! TO.C,C9*
G36*
X102431042Y-71792774D02*
X102454703Y-71796284D01*
X102477907Y-71802096D01*
X102500429Y-71810154D01*
X102522053Y-71820382D01*
X102542570Y-71832679D01*
X102561783Y-71846929D01*
X102579507Y-71862993D01*
X102595571Y-71880717D01*
X102609821Y-71899930D01*
X102622118Y-71920447D01*
X102632346Y-71942071D01*
X102640404Y-71964593D01*
X102646216Y-71987797D01*
X102649726Y-72011458D01*
X102650900Y-72035350D01*
X102650900Y-72947850D01*
X102649726Y-72971742D01*
X102646216Y-72995403D01*
X102640404Y-73018607D01*
X102632346Y-73041129D01*
X102622118Y-73062753D01*
X102609821Y-73083270D01*
X102595571Y-73102483D01*
X102579507Y-73120207D01*
X102561783Y-73136271D01*
X102542570Y-73150521D01*
X102522053Y-73162818D01*
X102500429Y-73173046D01*
X102477907Y-73181104D01*
X102454703Y-73186916D01*
X102431042Y-73190426D01*
X102407150Y-73191600D01*
X101919650Y-73191600D01*
X101895758Y-73190426D01*
X101872097Y-73186916D01*
X101848893Y-73181104D01*
X101826371Y-73173046D01*
X101804747Y-73162818D01*
X101784230Y-73150521D01*
X101765017Y-73136271D01*
X101747293Y-73120207D01*
X101731229Y-73102483D01*
X101716979Y-73083270D01*
X101704682Y-73062753D01*
X101694454Y-73041129D01*
X101686396Y-73018607D01*
X101680584Y-72995403D01*
X101677074Y-72971742D01*
X101675900Y-72947850D01*
X101675900Y-72035350D01*
X101677074Y-72011458D01*
X101680584Y-71987797D01*
X101686396Y-71964593D01*
X101694454Y-71942071D01*
X101704682Y-71920447D01*
X101716979Y-71899930D01*
X101731229Y-71880717D01*
X101747293Y-71862993D01*
X101765017Y-71846929D01*
X101784230Y-71832679D01*
X101804747Y-71820382D01*
X101826371Y-71810154D01*
X101848893Y-71802096D01*
X101872097Y-71796284D01*
X101895758Y-71792774D01*
X101919650Y-71791600D01*
X102407150Y-71791600D01*
X102431042Y-71792774D01*
X102431042Y-71792774D01*
G37*
D11*
X102163400Y-72491600D03*
D10*
G36*
X104306042Y-71792774D02*
X104329703Y-71796284D01*
X104352907Y-71802096D01*
X104375429Y-71810154D01*
X104397053Y-71820382D01*
X104417570Y-71832679D01*
X104436783Y-71846929D01*
X104454507Y-71862993D01*
X104470571Y-71880717D01*
X104484821Y-71899930D01*
X104497118Y-71920447D01*
X104507346Y-71942071D01*
X104515404Y-71964593D01*
X104521216Y-71987797D01*
X104524726Y-72011458D01*
X104525900Y-72035350D01*
X104525900Y-72947850D01*
X104524726Y-72971742D01*
X104521216Y-72995403D01*
X104515404Y-73018607D01*
X104507346Y-73041129D01*
X104497118Y-73062753D01*
X104484821Y-73083270D01*
X104470571Y-73102483D01*
X104454507Y-73120207D01*
X104436783Y-73136271D01*
X104417570Y-73150521D01*
X104397053Y-73162818D01*
X104375429Y-73173046D01*
X104352907Y-73181104D01*
X104329703Y-73186916D01*
X104306042Y-73190426D01*
X104282150Y-73191600D01*
X103794650Y-73191600D01*
X103770758Y-73190426D01*
X103747097Y-73186916D01*
X103723893Y-73181104D01*
X103701371Y-73173046D01*
X103679747Y-73162818D01*
X103659230Y-73150521D01*
X103640017Y-73136271D01*
X103622293Y-73120207D01*
X103606229Y-73102483D01*
X103591979Y-73083270D01*
X103579682Y-73062753D01*
X103569454Y-73041129D01*
X103561396Y-73018607D01*
X103555584Y-72995403D01*
X103552074Y-72971742D01*
X103550900Y-72947850D01*
X103550900Y-72035350D01*
X103552074Y-72011458D01*
X103555584Y-71987797D01*
X103561396Y-71964593D01*
X103569454Y-71942071D01*
X103579682Y-71920447D01*
X103591979Y-71899930D01*
X103606229Y-71880717D01*
X103622293Y-71862993D01*
X103640017Y-71846929D01*
X103659230Y-71832679D01*
X103679747Y-71820382D01*
X103701371Y-71810154D01*
X103723893Y-71802096D01*
X103747097Y-71796284D01*
X103770758Y-71792774D01*
X103794650Y-71791600D01*
X104282150Y-71791600D01*
X104306042Y-71792774D01*
X104306042Y-71792774D01*
G37*
D11*
X104038400Y-72491600D03*
G04 #@! TD*
D10*
G04 #@! TO.C,C16*
G36*
X109293742Y-76706574D02*
X109317403Y-76710084D01*
X109340607Y-76715896D01*
X109363129Y-76723954D01*
X109384753Y-76734182D01*
X109405270Y-76746479D01*
X109424483Y-76760729D01*
X109442207Y-76776793D01*
X109458271Y-76794517D01*
X109472521Y-76813730D01*
X109484818Y-76834247D01*
X109495046Y-76855871D01*
X109503104Y-76878393D01*
X109508916Y-76901597D01*
X109512426Y-76925258D01*
X109513600Y-76949150D01*
X109513600Y-77436650D01*
X109512426Y-77460542D01*
X109508916Y-77484203D01*
X109503104Y-77507407D01*
X109495046Y-77529929D01*
X109484818Y-77551553D01*
X109472521Y-77572070D01*
X109458271Y-77591283D01*
X109442207Y-77609007D01*
X109424483Y-77625071D01*
X109405270Y-77639321D01*
X109384753Y-77651618D01*
X109363129Y-77661846D01*
X109340607Y-77669904D01*
X109317403Y-77675716D01*
X109293742Y-77679226D01*
X109269850Y-77680400D01*
X108357350Y-77680400D01*
X108333458Y-77679226D01*
X108309797Y-77675716D01*
X108286593Y-77669904D01*
X108264071Y-77661846D01*
X108242447Y-77651618D01*
X108221930Y-77639321D01*
X108202717Y-77625071D01*
X108184993Y-77609007D01*
X108168929Y-77591283D01*
X108154679Y-77572070D01*
X108142382Y-77551553D01*
X108132154Y-77529929D01*
X108124096Y-77507407D01*
X108118284Y-77484203D01*
X108114774Y-77460542D01*
X108113600Y-77436650D01*
X108113600Y-76949150D01*
X108114774Y-76925258D01*
X108118284Y-76901597D01*
X108124096Y-76878393D01*
X108132154Y-76855871D01*
X108142382Y-76834247D01*
X108154679Y-76813730D01*
X108168929Y-76794517D01*
X108184993Y-76776793D01*
X108202717Y-76760729D01*
X108221930Y-76746479D01*
X108242447Y-76734182D01*
X108264071Y-76723954D01*
X108286593Y-76715896D01*
X108309797Y-76710084D01*
X108333458Y-76706574D01*
X108357350Y-76705400D01*
X109269850Y-76705400D01*
X109293742Y-76706574D01*
X109293742Y-76706574D01*
G37*
D11*
X108813600Y-77192900D03*
D10*
G36*
X109293742Y-78581574D02*
X109317403Y-78585084D01*
X109340607Y-78590896D01*
X109363129Y-78598954D01*
X109384753Y-78609182D01*
X109405270Y-78621479D01*
X109424483Y-78635729D01*
X109442207Y-78651793D01*
X109458271Y-78669517D01*
X109472521Y-78688730D01*
X109484818Y-78709247D01*
X109495046Y-78730871D01*
X109503104Y-78753393D01*
X109508916Y-78776597D01*
X109512426Y-78800258D01*
X109513600Y-78824150D01*
X109513600Y-79311650D01*
X109512426Y-79335542D01*
X109508916Y-79359203D01*
X109503104Y-79382407D01*
X109495046Y-79404929D01*
X109484818Y-79426553D01*
X109472521Y-79447070D01*
X109458271Y-79466283D01*
X109442207Y-79484007D01*
X109424483Y-79500071D01*
X109405270Y-79514321D01*
X109384753Y-79526618D01*
X109363129Y-79536846D01*
X109340607Y-79544904D01*
X109317403Y-79550716D01*
X109293742Y-79554226D01*
X109269850Y-79555400D01*
X108357350Y-79555400D01*
X108333458Y-79554226D01*
X108309797Y-79550716D01*
X108286593Y-79544904D01*
X108264071Y-79536846D01*
X108242447Y-79526618D01*
X108221930Y-79514321D01*
X108202717Y-79500071D01*
X108184993Y-79484007D01*
X108168929Y-79466283D01*
X108154679Y-79447070D01*
X108142382Y-79426553D01*
X108132154Y-79404929D01*
X108124096Y-79382407D01*
X108118284Y-79359203D01*
X108114774Y-79335542D01*
X108113600Y-79311650D01*
X108113600Y-78824150D01*
X108114774Y-78800258D01*
X108118284Y-78776597D01*
X108124096Y-78753393D01*
X108132154Y-78730871D01*
X108142382Y-78709247D01*
X108154679Y-78688730D01*
X108168929Y-78669517D01*
X108184993Y-78651793D01*
X108202717Y-78635729D01*
X108221930Y-78621479D01*
X108242447Y-78609182D01*
X108264071Y-78598954D01*
X108286593Y-78590896D01*
X108309797Y-78585084D01*
X108333458Y-78581574D01*
X108357350Y-78580400D01*
X109269850Y-78580400D01*
X109293742Y-78581574D01*
X109293742Y-78581574D01*
G37*
D11*
X108813600Y-79067900D03*
G04 #@! TD*
D10*
G04 #@! TO.C,C18*
G36*
X108023742Y-70629074D02*
X108047403Y-70632584D01*
X108070607Y-70638396D01*
X108093129Y-70646454D01*
X108114753Y-70656682D01*
X108135270Y-70668979D01*
X108154483Y-70683229D01*
X108172207Y-70699293D01*
X108188271Y-70717017D01*
X108202521Y-70736230D01*
X108214818Y-70756747D01*
X108225046Y-70778371D01*
X108233104Y-70800893D01*
X108238916Y-70824097D01*
X108242426Y-70847758D01*
X108243600Y-70871650D01*
X108243600Y-71359150D01*
X108242426Y-71383042D01*
X108238916Y-71406703D01*
X108233104Y-71429907D01*
X108225046Y-71452429D01*
X108214818Y-71474053D01*
X108202521Y-71494570D01*
X108188271Y-71513783D01*
X108172207Y-71531507D01*
X108154483Y-71547571D01*
X108135270Y-71561821D01*
X108114753Y-71574118D01*
X108093129Y-71584346D01*
X108070607Y-71592404D01*
X108047403Y-71598216D01*
X108023742Y-71601726D01*
X107999850Y-71602900D01*
X107087350Y-71602900D01*
X107063458Y-71601726D01*
X107039797Y-71598216D01*
X107016593Y-71592404D01*
X106994071Y-71584346D01*
X106972447Y-71574118D01*
X106951930Y-71561821D01*
X106932717Y-71547571D01*
X106914993Y-71531507D01*
X106898929Y-71513783D01*
X106884679Y-71494570D01*
X106872382Y-71474053D01*
X106862154Y-71452429D01*
X106854096Y-71429907D01*
X106848284Y-71406703D01*
X106844774Y-71383042D01*
X106843600Y-71359150D01*
X106843600Y-70871650D01*
X106844774Y-70847758D01*
X106848284Y-70824097D01*
X106854096Y-70800893D01*
X106862154Y-70778371D01*
X106872382Y-70756747D01*
X106884679Y-70736230D01*
X106898929Y-70717017D01*
X106914993Y-70699293D01*
X106932717Y-70683229D01*
X106951930Y-70668979D01*
X106972447Y-70656682D01*
X106994071Y-70646454D01*
X107016593Y-70638396D01*
X107039797Y-70632584D01*
X107063458Y-70629074D01*
X107087350Y-70627900D01*
X107999850Y-70627900D01*
X108023742Y-70629074D01*
X108023742Y-70629074D01*
G37*
D11*
X107543600Y-71115400D03*
D10*
G36*
X108023742Y-68754074D02*
X108047403Y-68757584D01*
X108070607Y-68763396D01*
X108093129Y-68771454D01*
X108114753Y-68781682D01*
X108135270Y-68793979D01*
X108154483Y-68808229D01*
X108172207Y-68824293D01*
X108188271Y-68842017D01*
X108202521Y-68861230D01*
X108214818Y-68881747D01*
X108225046Y-68903371D01*
X108233104Y-68925893D01*
X108238916Y-68949097D01*
X108242426Y-68972758D01*
X108243600Y-68996650D01*
X108243600Y-69484150D01*
X108242426Y-69508042D01*
X108238916Y-69531703D01*
X108233104Y-69554907D01*
X108225046Y-69577429D01*
X108214818Y-69599053D01*
X108202521Y-69619570D01*
X108188271Y-69638783D01*
X108172207Y-69656507D01*
X108154483Y-69672571D01*
X108135270Y-69686821D01*
X108114753Y-69699118D01*
X108093129Y-69709346D01*
X108070607Y-69717404D01*
X108047403Y-69723216D01*
X108023742Y-69726726D01*
X107999850Y-69727900D01*
X107087350Y-69727900D01*
X107063458Y-69726726D01*
X107039797Y-69723216D01*
X107016593Y-69717404D01*
X106994071Y-69709346D01*
X106972447Y-69699118D01*
X106951930Y-69686821D01*
X106932717Y-69672571D01*
X106914993Y-69656507D01*
X106898929Y-69638783D01*
X106884679Y-69619570D01*
X106872382Y-69599053D01*
X106862154Y-69577429D01*
X106854096Y-69554907D01*
X106848284Y-69531703D01*
X106844774Y-69508042D01*
X106843600Y-69484150D01*
X106843600Y-68996650D01*
X106844774Y-68972758D01*
X106848284Y-68949097D01*
X106854096Y-68925893D01*
X106862154Y-68903371D01*
X106872382Y-68881747D01*
X106884679Y-68861230D01*
X106898929Y-68842017D01*
X106914993Y-68824293D01*
X106932717Y-68808229D01*
X106951930Y-68793979D01*
X106972447Y-68781682D01*
X106994071Y-68771454D01*
X107016593Y-68763396D01*
X107039797Y-68757584D01*
X107063458Y-68754074D01*
X107087350Y-68752900D01*
X107999850Y-68752900D01*
X108023742Y-68754074D01*
X108023742Y-68754074D01*
G37*
D11*
X107543600Y-69240400D03*
G04 #@! TD*
D10*
G04 #@! TO.C,R7*
G36*
X99122291Y-80450453D02*
X99143526Y-80453603D01*
X99164350Y-80458819D01*
X99184562Y-80466051D01*
X99203968Y-80475230D01*
X99222381Y-80486266D01*
X99239624Y-80499054D01*
X99255530Y-80513470D01*
X99269946Y-80529376D01*
X99282734Y-80546619D01*
X99293770Y-80565032D01*
X99302949Y-80584438D01*
X99310181Y-80604650D01*
X99315397Y-80625474D01*
X99318547Y-80646709D01*
X99319600Y-80668150D01*
X99319600Y-81180650D01*
X99318547Y-81202091D01*
X99315397Y-81223326D01*
X99310181Y-81244150D01*
X99302949Y-81264362D01*
X99293770Y-81283768D01*
X99282734Y-81302181D01*
X99269946Y-81319424D01*
X99255530Y-81335330D01*
X99239624Y-81349746D01*
X99222381Y-81362534D01*
X99203968Y-81373570D01*
X99184562Y-81382749D01*
X99164350Y-81389981D01*
X99143526Y-81395197D01*
X99122291Y-81398347D01*
X99100850Y-81399400D01*
X98663350Y-81399400D01*
X98641909Y-81398347D01*
X98620674Y-81395197D01*
X98599850Y-81389981D01*
X98579638Y-81382749D01*
X98560232Y-81373570D01*
X98541819Y-81362534D01*
X98524576Y-81349746D01*
X98508670Y-81335330D01*
X98494254Y-81319424D01*
X98481466Y-81302181D01*
X98470430Y-81283768D01*
X98461251Y-81264362D01*
X98454019Y-81244150D01*
X98448803Y-81223326D01*
X98445653Y-81202091D01*
X98444600Y-81180650D01*
X98444600Y-80668150D01*
X98445653Y-80646709D01*
X98448803Y-80625474D01*
X98454019Y-80604650D01*
X98461251Y-80584438D01*
X98470430Y-80565032D01*
X98481466Y-80546619D01*
X98494254Y-80529376D01*
X98508670Y-80513470D01*
X98524576Y-80499054D01*
X98541819Y-80486266D01*
X98560232Y-80475230D01*
X98579638Y-80466051D01*
X98599850Y-80458819D01*
X98620674Y-80453603D01*
X98641909Y-80450453D01*
X98663350Y-80449400D01*
X99100850Y-80449400D01*
X99122291Y-80450453D01*
X99122291Y-80450453D01*
G37*
D12*
X98882100Y-80924400D03*
D10*
G36*
X100697291Y-80450453D02*
X100718526Y-80453603D01*
X100739350Y-80458819D01*
X100759562Y-80466051D01*
X100778968Y-80475230D01*
X100797381Y-80486266D01*
X100814624Y-80499054D01*
X100830530Y-80513470D01*
X100844946Y-80529376D01*
X100857734Y-80546619D01*
X100868770Y-80565032D01*
X100877949Y-80584438D01*
X100885181Y-80604650D01*
X100890397Y-80625474D01*
X100893547Y-80646709D01*
X100894600Y-80668150D01*
X100894600Y-81180650D01*
X100893547Y-81202091D01*
X100890397Y-81223326D01*
X100885181Y-81244150D01*
X100877949Y-81264362D01*
X100868770Y-81283768D01*
X100857734Y-81302181D01*
X100844946Y-81319424D01*
X100830530Y-81335330D01*
X100814624Y-81349746D01*
X100797381Y-81362534D01*
X100778968Y-81373570D01*
X100759562Y-81382749D01*
X100739350Y-81389981D01*
X100718526Y-81395197D01*
X100697291Y-81398347D01*
X100675850Y-81399400D01*
X100238350Y-81399400D01*
X100216909Y-81398347D01*
X100195674Y-81395197D01*
X100174850Y-81389981D01*
X100154638Y-81382749D01*
X100135232Y-81373570D01*
X100116819Y-81362534D01*
X100099576Y-81349746D01*
X100083670Y-81335330D01*
X100069254Y-81319424D01*
X100056466Y-81302181D01*
X100045430Y-81283768D01*
X100036251Y-81264362D01*
X100029019Y-81244150D01*
X100023803Y-81223326D01*
X100020653Y-81202091D01*
X100019600Y-81180650D01*
X100019600Y-80668150D01*
X100020653Y-80646709D01*
X100023803Y-80625474D01*
X100029019Y-80604650D01*
X100036251Y-80584438D01*
X100045430Y-80565032D01*
X100056466Y-80546619D01*
X100069254Y-80529376D01*
X100083670Y-80513470D01*
X100099576Y-80499054D01*
X100116819Y-80486266D01*
X100135232Y-80475230D01*
X100154638Y-80466051D01*
X100174850Y-80458819D01*
X100195674Y-80453603D01*
X100216909Y-80450453D01*
X100238350Y-80449400D01*
X100675850Y-80449400D01*
X100697291Y-80450453D01*
X100697291Y-80450453D01*
G37*
D12*
X100457100Y-80924400D03*
G04 #@! TD*
D10*
G04 #@! TO.C,R13*
G36*
X100417691Y-62518053D02*
X100438926Y-62521203D01*
X100459750Y-62526419D01*
X100479962Y-62533651D01*
X100499368Y-62542830D01*
X100517781Y-62553866D01*
X100535024Y-62566654D01*
X100550930Y-62581070D01*
X100565346Y-62596976D01*
X100578134Y-62614219D01*
X100589170Y-62632632D01*
X100598349Y-62652038D01*
X100605581Y-62672250D01*
X100610797Y-62693074D01*
X100613947Y-62714309D01*
X100615000Y-62735750D01*
X100615000Y-63248250D01*
X100613947Y-63269691D01*
X100610797Y-63290926D01*
X100605581Y-63311750D01*
X100598349Y-63331962D01*
X100589170Y-63351368D01*
X100578134Y-63369781D01*
X100565346Y-63387024D01*
X100550930Y-63402930D01*
X100535024Y-63417346D01*
X100517781Y-63430134D01*
X100499368Y-63441170D01*
X100479962Y-63450349D01*
X100459750Y-63457581D01*
X100438926Y-63462797D01*
X100417691Y-63465947D01*
X100396250Y-63467000D01*
X99958750Y-63467000D01*
X99937309Y-63465947D01*
X99916074Y-63462797D01*
X99895250Y-63457581D01*
X99875038Y-63450349D01*
X99855632Y-63441170D01*
X99837219Y-63430134D01*
X99819976Y-63417346D01*
X99804070Y-63402930D01*
X99789654Y-63387024D01*
X99776866Y-63369781D01*
X99765830Y-63351368D01*
X99756651Y-63331962D01*
X99749419Y-63311750D01*
X99744203Y-63290926D01*
X99741053Y-63269691D01*
X99740000Y-63248250D01*
X99740000Y-62735750D01*
X99741053Y-62714309D01*
X99744203Y-62693074D01*
X99749419Y-62672250D01*
X99756651Y-62652038D01*
X99765830Y-62632632D01*
X99776866Y-62614219D01*
X99789654Y-62596976D01*
X99804070Y-62581070D01*
X99819976Y-62566654D01*
X99837219Y-62553866D01*
X99855632Y-62542830D01*
X99875038Y-62533651D01*
X99895250Y-62526419D01*
X99916074Y-62521203D01*
X99937309Y-62518053D01*
X99958750Y-62517000D01*
X100396250Y-62517000D01*
X100417691Y-62518053D01*
X100417691Y-62518053D01*
G37*
D12*
X100177500Y-62992000D03*
D10*
G36*
X101992691Y-62518053D02*
X102013926Y-62521203D01*
X102034750Y-62526419D01*
X102054962Y-62533651D01*
X102074368Y-62542830D01*
X102092781Y-62553866D01*
X102110024Y-62566654D01*
X102125930Y-62581070D01*
X102140346Y-62596976D01*
X102153134Y-62614219D01*
X102164170Y-62632632D01*
X102173349Y-62652038D01*
X102180581Y-62672250D01*
X102185797Y-62693074D01*
X102188947Y-62714309D01*
X102190000Y-62735750D01*
X102190000Y-63248250D01*
X102188947Y-63269691D01*
X102185797Y-63290926D01*
X102180581Y-63311750D01*
X102173349Y-63331962D01*
X102164170Y-63351368D01*
X102153134Y-63369781D01*
X102140346Y-63387024D01*
X102125930Y-63402930D01*
X102110024Y-63417346D01*
X102092781Y-63430134D01*
X102074368Y-63441170D01*
X102054962Y-63450349D01*
X102034750Y-63457581D01*
X102013926Y-63462797D01*
X101992691Y-63465947D01*
X101971250Y-63467000D01*
X101533750Y-63467000D01*
X101512309Y-63465947D01*
X101491074Y-63462797D01*
X101470250Y-63457581D01*
X101450038Y-63450349D01*
X101430632Y-63441170D01*
X101412219Y-63430134D01*
X101394976Y-63417346D01*
X101379070Y-63402930D01*
X101364654Y-63387024D01*
X101351866Y-63369781D01*
X101340830Y-63351368D01*
X101331651Y-63331962D01*
X101324419Y-63311750D01*
X101319203Y-63290926D01*
X101316053Y-63269691D01*
X101315000Y-63248250D01*
X101315000Y-62735750D01*
X101316053Y-62714309D01*
X101319203Y-62693074D01*
X101324419Y-62672250D01*
X101331651Y-62652038D01*
X101340830Y-62632632D01*
X101351866Y-62614219D01*
X101364654Y-62596976D01*
X101379070Y-62581070D01*
X101394976Y-62566654D01*
X101412219Y-62553866D01*
X101430632Y-62542830D01*
X101450038Y-62533651D01*
X101470250Y-62526419D01*
X101491074Y-62521203D01*
X101512309Y-62518053D01*
X101533750Y-62517000D01*
X101971250Y-62517000D01*
X101992691Y-62518053D01*
X101992691Y-62518053D01*
G37*
D12*
X101752500Y-62992000D03*
G04 #@! TD*
D10*
G04 #@! TO.C,R14*
G36*
X103160791Y-90559653D02*
X103182026Y-90562803D01*
X103202850Y-90568019D01*
X103223062Y-90575251D01*
X103242468Y-90584430D01*
X103260881Y-90595466D01*
X103278124Y-90608254D01*
X103294030Y-90622670D01*
X103308446Y-90638576D01*
X103321234Y-90655819D01*
X103332270Y-90674232D01*
X103341449Y-90693638D01*
X103348681Y-90713850D01*
X103353897Y-90734674D01*
X103357047Y-90755909D01*
X103358100Y-90777350D01*
X103358100Y-91289850D01*
X103357047Y-91311291D01*
X103353897Y-91332526D01*
X103348681Y-91353350D01*
X103341449Y-91373562D01*
X103332270Y-91392968D01*
X103321234Y-91411381D01*
X103308446Y-91428624D01*
X103294030Y-91444530D01*
X103278124Y-91458946D01*
X103260881Y-91471734D01*
X103242468Y-91482770D01*
X103223062Y-91491949D01*
X103202850Y-91499181D01*
X103182026Y-91504397D01*
X103160791Y-91507547D01*
X103139350Y-91508600D01*
X102701850Y-91508600D01*
X102680409Y-91507547D01*
X102659174Y-91504397D01*
X102638350Y-91499181D01*
X102618138Y-91491949D01*
X102598732Y-91482770D01*
X102580319Y-91471734D01*
X102563076Y-91458946D01*
X102547170Y-91444530D01*
X102532754Y-91428624D01*
X102519966Y-91411381D01*
X102508930Y-91392968D01*
X102499751Y-91373562D01*
X102492519Y-91353350D01*
X102487303Y-91332526D01*
X102484153Y-91311291D01*
X102483100Y-91289850D01*
X102483100Y-90777350D01*
X102484153Y-90755909D01*
X102487303Y-90734674D01*
X102492519Y-90713850D01*
X102499751Y-90693638D01*
X102508930Y-90674232D01*
X102519966Y-90655819D01*
X102532754Y-90638576D01*
X102547170Y-90622670D01*
X102563076Y-90608254D01*
X102580319Y-90595466D01*
X102598732Y-90584430D01*
X102618138Y-90575251D01*
X102638350Y-90568019D01*
X102659174Y-90562803D01*
X102680409Y-90559653D01*
X102701850Y-90558600D01*
X103139350Y-90558600D01*
X103160791Y-90559653D01*
X103160791Y-90559653D01*
G37*
D12*
X102920600Y-91033600D03*
D10*
G36*
X104735791Y-90559653D02*
X104757026Y-90562803D01*
X104777850Y-90568019D01*
X104798062Y-90575251D01*
X104817468Y-90584430D01*
X104835881Y-90595466D01*
X104853124Y-90608254D01*
X104869030Y-90622670D01*
X104883446Y-90638576D01*
X104896234Y-90655819D01*
X104907270Y-90674232D01*
X104916449Y-90693638D01*
X104923681Y-90713850D01*
X104928897Y-90734674D01*
X104932047Y-90755909D01*
X104933100Y-90777350D01*
X104933100Y-91289850D01*
X104932047Y-91311291D01*
X104928897Y-91332526D01*
X104923681Y-91353350D01*
X104916449Y-91373562D01*
X104907270Y-91392968D01*
X104896234Y-91411381D01*
X104883446Y-91428624D01*
X104869030Y-91444530D01*
X104853124Y-91458946D01*
X104835881Y-91471734D01*
X104817468Y-91482770D01*
X104798062Y-91491949D01*
X104777850Y-91499181D01*
X104757026Y-91504397D01*
X104735791Y-91507547D01*
X104714350Y-91508600D01*
X104276850Y-91508600D01*
X104255409Y-91507547D01*
X104234174Y-91504397D01*
X104213350Y-91499181D01*
X104193138Y-91491949D01*
X104173732Y-91482770D01*
X104155319Y-91471734D01*
X104138076Y-91458946D01*
X104122170Y-91444530D01*
X104107754Y-91428624D01*
X104094966Y-91411381D01*
X104083930Y-91392968D01*
X104074751Y-91373562D01*
X104067519Y-91353350D01*
X104062303Y-91332526D01*
X104059153Y-91311291D01*
X104058100Y-91289850D01*
X104058100Y-90777350D01*
X104059153Y-90755909D01*
X104062303Y-90734674D01*
X104067519Y-90713850D01*
X104074751Y-90693638D01*
X104083930Y-90674232D01*
X104094966Y-90655819D01*
X104107754Y-90638576D01*
X104122170Y-90622670D01*
X104138076Y-90608254D01*
X104155319Y-90595466D01*
X104173732Y-90584430D01*
X104193138Y-90575251D01*
X104213350Y-90568019D01*
X104234174Y-90562803D01*
X104255409Y-90559653D01*
X104276850Y-90558600D01*
X104714350Y-90558600D01*
X104735791Y-90559653D01*
X104735791Y-90559653D01*
G37*
D12*
X104495600Y-91033600D03*
G04 #@! TD*
D10*
G04 #@! TO.C,R15*
G36*
X102906991Y-93353653D02*
X102928226Y-93356803D01*
X102949050Y-93362019D01*
X102969262Y-93369251D01*
X102988668Y-93378430D01*
X103007081Y-93389466D01*
X103024324Y-93402254D01*
X103040230Y-93416670D01*
X103054646Y-93432576D01*
X103067434Y-93449819D01*
X103078470Y-93468232D01*
X103087649Y-93487638D01*
X103094881Y-93507850D01*
X103100097Y-93528674D01*
X103103247Y-93549909D01*
X103104300Y-93571350D01*
X103104300Y-94083850D01*
X103103247Y-94105291D01*
X103100097Y-94126526D01*
X103094881Y-94147350D01*
X103087649Y-94167562D01*
X103078470Y-94186968D01*
X103067434Y-94205381D01*
X103054646Y-94222624D01*
X103040230Y-94238530D01*
X103024324Y-94252946D01*
X103007081Y-94265734D01*
X102988668Y-94276770D01*
X102969262Y-94285949D01*
X102949050Y-94293181D01*
X102928226Y-94298397D01*
X102906991Y-94301547D01*
X102885550Y-94302600D01*
X102448050Y-94302600D01*
X102426609Y-94301547D01*
X102405374Y-94298397D01*
X102384550Y-94293181D01*
X102364338Y-94285949D01*
X102344932Y-94276770D01*
X102326519Y-94265734D01*
X102309276Y-94252946D01*
X102293370Y-94238530D01*
X102278954Y-94222624D01*
X102266166Y-94205381D01*
X102255130Y-94186968D01*
X102245951Y-94167562D01*
X102238719Y-94147350D01*
X102233503Y-94126526D01*
X102230353Y-94105291D01*
X102229300Y-94083850D01*
X102229300Y-93571350D01*
X102230353Y-93549909D01*
X102233503Y-93528674D01*
X102238719Y-93507850D01*
X102245951Y-93487638D01*
X102255130Y-93468232D01*
X102266166Y-93449819D01*
X102278954Y-93432576D01*
X102293370Y-93416670D01*
X102309276Y-93402254D01*
X102326519Y-93389466D01*
X102344932Y-93378430D01*
X102364338Y-93369251D01*
X102384550Y-93362019D01*
X102405374Y-93356803D01*
X102426609Y-93353653D01*
X102448050Y-93352600D01*
X102885550Y-93352600D01*
X102906991Y-93353653D01*
X102906991Y-93353653D01*
G37*
D12*
X102666800Y-93827600D03*
D10*
G36*
X101331991Y-93353653D02*
X101353226Y-93356803D01*
X101374050Y-93362019D01*
X101394262Y-93369251D01*
X101413668Y-93378430D01*
X101432081Y-93389466D01*
X101449324Y-93402254D01*
X101465230Y-93416670D01*
X101479646Y-93432576D01*
X101492434Y-93449819D01*
X101503470Y-93468232D01*
X101512649Y-93487638D01*
X101519881Y-93507850D01*
X101525097Y-93528674D01*
X101528247Y-93549909D01*
X101529300Y-93571350D01*
X101529300Y-94083850D01*
X101528247Y-94105291D01*
X101525097Y-94126526D01*
X101519881Y-94147350D01*
X101512649Y-94167562D01*
X101503470Y-94186968D01*
X101492434Y-94205381D01*
X101479646Y-94222624D01*
X101465230Y-94238530D01*
X101449324Y-94252946D01*
X101432081Y-94265734D01*
X101413668Y-94276770D01*
X101394262Y-94285949D01*
X101374050Y-94293181D01*
X101353226Y-94298397D01*
X101331991Y-94301547D01*
X101310550Y-94302600D01*
X100873050Y-94302600D01*
X100851609Y-94301547D01*
X100830374Y-94298397D01*
X100809550Y-94293181D01*
X100789338Y-94285949D01*
X100769932Y-94276770D01*
X100751519Y-94265734D01*
X100734276Y-94252946D01*
X100718370Y-94238530D01*
X100703954Y-94222624D01*
X100691166Y-94205381D01*
X100680130Y-94186968D01*
X100670951Y-94167562D01*
X100663719Y-94147350D01*
X100658503Y-94126526D01*
X100655353Y-94105291D01*
X100654300Y-94083850D01*
X100654300Y-93571350D01*
X100655353Y-93549909D01*
X100658503Y-93528674D01*
X100663719Y-93507850D01*
X100670951Y-93487638D01*
X100680130Y-93468232D01*
X100691166Y-93449819D01*
X100703954Y-93432576D01*
X100718370Y-93416670D01*
X100734276Y-93402254D01*
X100751519Y-93389466D01*
X100769932Y-93378430D01*
X100789338Y-93369251D01*
X100809550Y-93362019D01*
X100830374Y-93356803D01*
X100851609Y-93353653D01*
X100873050Y-93352600D01*
X101310550Y-93352600D01*
X101331991Y-93353653D01*
X101331991Y-93353653D01*
G37*
D12*
X101091800Y-93827600D03*
G04 #@! TD*
D10*
G04 #@! TO.C,R25*
G36*
X98321691Y-95410553D02*
X98342926Y-95413703D01*
X98363750Y-95418919D01*
X98383962Y-95426151D01*
X98403368Y-95435330D01*
X98421781Y-95446366D01*
X98439024Y-95459154D01*
X98454930Y-95473570D01*
X98469346Y-95489476D01*
X98482134Y-95506719D01*
X98493170Y-95525132D01*
X98502349Y-95544538D01*
X98509581Y-95564750D01*
X98514797Y-95585574D01*
X98517947Y-95606809D01*
X98519000Y-95628250D01*
X98519000Y-96065750D01*
X98517947Y-96087191D01*
X98514797Y-96108426D01*
X98509581Y-96129250D01*
X98502349Y-96149462D01*
X98493170Y-96168868D01*
X98482134Y-96187281D01*
X98469346Y-96204524D01*
X98454930Y-96220430D01*
X98439024Y-96234846D01*
X98421781Y-96247634D01*
X98403368Y-96258670D01*
X98383962Y-96267849D01*
X98363750Y-96275081D01*
X98342926Y-96280297D01*
X98321691Y-96283447D01*
X98300250Y-96284500D01*
X97787750Y-96284500D01*
X97766309Y-96283447D01*
X97745074Y-96280297D01*
X97724250Y-96275081D01*
X97704038Y-96267849D01*
X97684632Y-96258670D01*
X97666219Y-96247634D01*
X97648976Y-96234846D01*
X97633070Y-96220430D01*
X97618654Y-96204524D01*
X97605866Y-96187281D01*
X97594830Y-96168868D01*
X97585651Y-96149462D01*
X97578419Y-96129250D01*
X97573203Y-96108426D01*
X97570053Y-96087191D01*
X97569000Y-96065750D01*
X97569000Y-95628250D01*
X97570053Y-95606809D01*
X97573203Y-95585574D01*
X97578419Y-95564750D01*
X97585651Y-95544538D01*
X97594830Y-95525132D01*
X97605866Y-95506719D01*
X97618654Y-95489476D01*
X97633070Y-95473570D01*
X97648976Y-95459154D01*
X97666219Y-95446366D01*
X97684632Y-95435330D01*
X97704038Y-95426151D01*
X97724250Y-95418919D01*
X97745074Y-95413703D01*
X97766309Y-95410553D01*
X97787750Y-95409500D01*
X98300250Y-95409500D01*
X98321691Y-95410553D01*
X98321691Y-95410553D01*
G37*
D12*
X98044000Y-95847000D03*
D10*
G36*
X98321691Y-93835553D02*
X98342926Y-93838703D01*
X98363750Y-93843919D01*
X98383962Y-93851151D01*
X98403368Y-93860330D01*
X98421781Y-93871366D01*
X98439024Y-93884154D01*
X98454930Y-93898570D01*
X98469346Y-93914476D01*
X98482134Y-93931719D01*
X98493170Y-93950132D01*
X98502349Y-93969538D01*
X98509581Y-93989750D01*
X98514797Y-94010574D01*
X98517947Y-94031809D01*
X98519000Y-94053250D01*
X98519000Y-94490750D01*
X98517947Y-94512191D01*
X98514797Y-94533426D01*
X98509581Y-94554250D01*
X98502349Y-94574462D01*
X98493170Y-94593868D01*
X98482134Y-94612281D01*
X98469346Y-94629524D01*
X98454930Y-94645430D01*
X98439024Y-94659846D01*
X98421781Y-94672634D01*
X98403368Y-94683670D01*
X98383962Y-94692849D01*
X98363750Y-94700081D01*
X98342926Y-94705297D01*
X98321691Y-94708447D01*
X98300250Y-94709500D01*
X97787750Y-94709500D01*
X97766309Y-94708447D01*
X97745074Y-94705297D01*
X97724250Y-94700081D01*
X97704038Y-94692849D01*
X97684632Y-94683670D01*
X97666219Y-94672634D01*
X97648976Y-94659846D01*
X97633070Y-94645430D01*
X97618654Y-94629524D01*
X97605866Y-94612281D01*
X97594830Y-94593868D01*
X97585651Y-94574462D01*
X97578419Y-94554250D01*
X97573203Y-94533426D01*
X97570053Y-94512191D01*
X97569000Y-94490750D01*
X97569000Y-94053250D01*
X97570053Y-94031809D01*
X97573203Y-94010574D01*
X97578419Y-93989750D01*
X97585651Y-93969538D01*
X97594830Y-93950132D01*
X97605866Y-93931719D01*
X97618654Y-93914476D01*
X97633070Y-93898570D01*
X97648976Y-93884154D01*
X97666219Y-93871366D01*
X97684632Y-93860330D01*
X97704038Y-93851151D01*
X97724250Y-93843919D01*
X97745074Y-93838703D01*
X97766309Y-93835553D01*
X97787750Y-93834500D01*
X98300250Y-93834500D01*
X98321691Y-93835553D01*
X98321691Y-93835553D01*
G37*
D12*
X98044000Y-94272000D03*
G04 #@! TD*
D13*
G04 #@! TO.C,U4*
X107032000Y-66761000D03*
X107032000Y-66111000D03*
X107032000Y-65461000D03*
X107032000Y-64811000D03*
X112932000Y-64811000D03*
X112932000Y-65461000D03*
X112932000Y-66111000D03*
X112932000Y-66761000D03*
G04 #@! TD*
D10*
G04 #@! TO.C,U6*
G36*
X109080303Y-84562122D02*
X109094864Y-84564282D01*
X109109143Y-84567859D01*
X109123003Y-84572818D01*
X109136310Y-84579112D01*
X109148936Y-84586680D01*
X109160759Y-84595448D01*
X109171666Y-84605334D01*
X109181552Y-84616241D01*
X109190320Y-84628064D01*
X109197888Y-84640690D01*
X109204182Y-84653997D01*
X109209141Y-84667857D01*
X109212718Y-84682136D01*
X109214878Y-84696697D01*
X109215600Y-84711400D01*
X109215600Y-85011400D01*
X109214878Y-85026103D01*
X109212718Y-85040664D01*
X109209141Y-85054943D01*
X109204182Y-85068803D01*
X109197888Y-85082110D01*
X109190320Y-85094736D01*
X109181552Y-85106559D01*
X109171666Y-85117466D01*
X109160759Y-85127352D01*
X109148936Y-85136120D01*
X109136310Y-85143688D01*
X109123003Y-85149982D01*
X109109143Y-85154941D01*
X109094864Y-85158518D01*
X109080303Y-85160678D01*
X109065600Y-85161400D01*
X107815600Y-85161400D01*
X107800897Y-85160678D01*
X107786336Y-85158518D01*
X107772057Y-85154941D01*
X107758197Y-85149982D01*
X107744890Y-85143688D01*
X107732264Y-85136120D01*
X107720441Y-85127352D01*
X107709534Y-85117466D01*
X107699648Y-85106559D01*
X107690880Y-85094736D01*
X107683312Y-85082110D01*
X107677018Y-85068803D01*
X107672059Y-85054943D01*
X107668482Y-85040664D01*
X107666322Y-85026103D01*
X107665600Y-85011400D01*
X107665600Y-84711400D01*
X107666322Y-84696697D01*
X107668482Y-84682136D01*
X107672059Y-84667857D01*
X107677018Y-84653997D01*
X107683312Y-84640690D01*
X107690880Y-84628064D01*
X107699648Y-84616241D01*
X107709534Y-84605334D01*
X107720441Y-84595448D01*
X107732264Y-84586680D01*
X107744890Y-84579112D01*
X107758197Y-84572818D01*
X107772057Y-84567859D01*
X107786336Y-84564282D01*
X107800897Y-84562122D01*
X107815600Y-84561400D01*
X109065600Y-84561400D01*
X109080303Y-84562122D01*
X109080303Y-84562122D01*
G37*
D14*
X108440600Y-84861400D03*
D10*
G36*
X109080303Y-85832122D02*
X109094864Y-85834282D01*
X109109143Y-85837859D01*
X109123003Y-85842818D01*
X109136310Y-85849112D01*
X109148936Y-85856680D01*
X109160759Y-85865448D01*
X109171666Y-85875334D01*
X109181552Y-85886241D01*
X109190320Y-85898064D01*
X109197888Y-85910690D01*
X109204182Y-85923997D01*
X109209141Y-85937857D01*
X109212718Y-85952136D01*
X109214878Y-85966697D01*
X109215600Y-85981400D01*
X109215600Y-86281400D01*
X109214878Y-86296103D01*
X109212718Y-86310664D01*
X109209141Y-86324943D01*
X109204182Y-86338803D01*
X109197888Y-86352110D01*
X109190320Y-86364736D01*
X109181552Y-86376559D01*
X109171666Y-86387466D01*
X109160759Y-86397352D01*
X109148936Y-86406120D01*
X109136310Y-86413688D01*
X109123003Y-86419982D01*
X109109143Y-86424941D01*
X109094864Y-86428518D01*
X109080303Y-86430678D01*
X109065600Y-86431400D01*
X107815600Y-86431400D01*
X107800897Y-86430678D01*
X107786336Y-86428518D01*
X107772057Y-86424941D01*
X107758197Y-86419982D01*
X107744890Y-86413688D01*
X107732264Y-86406120D01*
X107720441Y-86397352D01*
X107709534Y-86387466D01*
X107699648Y-86376559D01*
X107690880Y-86364736D01*
X107683312Y-86352110D01*
X107677018Y-86338803D01*
X107672059Y-86324943D01*
X107668482Y-86310664D01*
X107666322Y-86296103D01*
X107665600Y-86281400D01*
X107665600Y-85981400D01*
X107666322Y-85966697D01*
X107668482Y-85952136D01*
X107672059Y-85937857D01*
X107677018Y-85923997D01*
X107683312Y-85910690D01*
X107690880Y-85898064D01*
X107699648Y-85886241D01*
X107709534Y-85875334D01*
X107720441Y-85865448D01*
X107732264Y-85856680D01*
X107744890Y-85849112D01*
X107758197Y-85842818D01*
X107772057Y-85837859D01*
X107786336Y-85834282D01*
X107800897Y-85832122D01*
X107815600Y-85831400D01*
X109065600Y-85831400D01*
X109080303Y-85832122D01*
X109080303Y-85832122D01*
G37*
D14*
X108440600Y-86131400D03*
D10*
G36*
X109080303Y-87102122D02*
X109094864Y-87104282D01*
X109109143Y-87107859D01*
X109123003Y-87112818D01*
X109136310Y-87119112D01*
X109148936Y-87126680D01*
X109160759Y-87135448D01*
X109171666Y-87145334D01*
X109181552Y-87156241D01*
X109190320Y-87168064D01*
X109197888Y-87180690D01*
X109204182Y-87193997D01*
X109209141Y-87207857D01*
X109212718Y-87222136D01*
X109214878Y-87236697D01*
X109215600Y-87251400D01*
X109215600Y-87551400D01*
X109214878Y-87566103D01*
X109212718Y-87580664D01*
X109209141Y-87594943D01*
X109204182Y-87608803D01*
X109197888Y-87622110D01*
X109190320Y-87634736D01*
X109181552Y-87646559D01*
X109171666Y-87657466D01*
X109160759Y-87667352D01*
X109148936Y-87676120D01*
X109136310Y-87683688D01*
X109123003Y-87689982D01*
X109109143Y-87694941D01*
X109094864Y-87698518D01*
X109080303Y-87700678D01*
X109065600Y-87701400D01*
X107815600Y-87701400D01*
X107800897Y-87700678D01*
X107786336Y-87698518D01*
X107772057Y-87694941D01*
X107758197Y-87689982D01*
X107744890Y-87683688D01*
X107732264Y-87676120D01*
X107720441Y-87667352D01*
X107709534Y-87657466D01*
X107699648Y-87646559D01*
X107690880Y-87634736D01*
X107683312Y-87622110D01*
X107677018Y-87608803D01*
X107672059Y-87594943D01*
X107668482Y-87580664D01*
X107666322Y-87566103D01*
X107665600Y-87551400D01*
X107665600Y-87251400D01*
X107666322Y-87236697D01*
X107668482Y-87222136D01*
X107672059Y-87207857D01*
X107677018Y-87193997D01*
X107683312Y-87180690D01*
X107690880Y-87168064D01*
X107699648Y-87156241D01*
X107709534Y-87145334D01*
X107720441Y-87135448D01*
X107732264Y-87126680D01*
X107744890Y-87119112D01*
X107758197Y-87112818D01*
X107772057Y-87107859D01*
X107786336Y-87104282D01*
X107800897Y-87102122D01*
X107815600Y-87101400D01*
X109065600Y-87101400D01*
X109080303Y-87102122D01*
X109080303Y-87102122D01*
G37*
D14*
X108440600Y-87401400D03*
D10*
G36*
X109080303Y-88372122D02*
X109094864Y-88374282D01*
X109109143Y-88377859D01*
X109123003Y-88382818D01*
X109136310Y-88389112D01*
X109148936Y-88396680D01*
X109160759Y-88405448D01*
X109171666Y-88415334D01*
X109181552Y-88426241D01*
X109190320Y-88438064D01*
X109197888Y-88450690D01*
X109204182Y-88463997D01*
X109209141Y-88477857D01*
X109212718Y-88492136D01*
X109214878Y-88506697D01*
X109215600Y-88521400D01*
X109215600Y-88821400D01*
X109214878Y-88836103D01*
X109212718Y-88850664D01*
X109209141Y-88864943D01*
X109204182Y-88878803D01*
X109197888Y-88892110D01*
X109190320Y-88904736D01*
X109181552Y-88916559D01*
X109171666Y-88927466D01*
X109160759Y-88937352D01*
X109148936Y-88946120D01*
X109136310Y-88953688D01*
X109123003Y-88959982D01*
X109109143Y-88964941D01*
X109094864Y-88968518D01*
X109080303Y-88970678D01*
X109065600Y-88971400D01*
X107815600Y-88971400D01*
X107800897Y-88970678D01*
X107786336Y-88968518D01*
X107772057Y-88964941D01*
X107758197Y-88959982D01*
X107744890Y-88953688D01*
X107732264Y-88946120D01*
X107720441Y-88937352D01*
X107709534Y-88927466D01*
X107699648Y-88916559D01*
X107690880Y-88904736D01*
X107683312Y-88892110D01*
X107677018Y-88878803D01*
X107672059Y-88864943D01*
X107668482Y-88850664D01*
X107666322Y-88836103D01*
X107665600Y-88821400D01*
X107665600Y-88521400D01*
X107666322Y-88506697D01*
X107668482Y-88492136D01*
X107672059Y-88477857D01*
X107677018Y-88463997D01*
X107683312Y-88450690D01*
X107690880Y-88438064D01*
X107699648Y-88426241D01*
X107709534Y-88415334D01*
X107720441Y-88405448D01*
X107732264Y-88396680D01*
X107744890Y-88389112D01*
X107758197Y-88382818D01*
X107772057Y-88377859D01*
X107786336Y-88374282D01*
X107800897Y-88372122D01*
X107815600Y-88371400D01*
X109065600Y-88371400D01*
X109080303Y-88372122D01*
X109080303Y-88372122D01*
G37*
D14*
X108440600Y-88671400D03*
D10*
G36*
X103730303Y-88372122D02*
X103744864Y-88374282D01*
X103759143Y-88377859D01*
X103773003Y-88382818D01*
X103786310Y-88389112D01*
X103798936Y-88396680D01*
X103810759Y-88405448D01*
X103821666Y-88415334D01*
X103831552Y-88426241D01*
X103840320Y-88438064D01*
X103847888Y-88450690D01*
X103854182Y-88463997D01*
X103859141Y-88477857D01*
X103862718Y-88492136D01*
X103864878Y-88506697D01*
X103865600Y-88521400D01*
X103865600Y-88821400D01*
X103864878Y-88836103D01*
X103862718Y-88850664D01*
X103859141Y-88864943D01*
X103854182Y-88878803D01*
X103847888Y-88892110D01*
X103840320Y-88904736D01*
X103831552Y-88916559D01*
X103821666Y-88927466D01*
X103810759Y-88937352D01*
X103798936Y-88946120D01*
X103786310Y-88953688D01*
X103773003Y-88959982D01*
X103759143Y-88964941D01*
X103744864Y-88968518D01*
X103730303Y-88970678D01*
X103715600Y-88971400D01*
X102465600Y-88971400D01*
X102450897Y-88970678D01*
X102436336Y-88968518D01*
X102422057Y-88964941D01*
X102408197Y-88959982D01*
X102394890Y-88953688D01*
X102382264Y-88946120D01*
X102370441Y-88937352D01*
X102359534Y-88927466D01*
X102349648Y-88916559D01*
X102340880Y-88904736D01*
X102333312Y-88892110D01*
X102327018Y-88878803D01*
X102322059Y-88864943D01*
X102318482Y-88850664D01*
X102316322Y-88836103D01*
X102315600Y-88821400D01*
X102315600Y-88521400D01*
X102316322Y-88506697D01*
X102318482Y-88492136D01*
X102322059Y-88477857D01*
X102327018Y-88463997D01*
X102333312Y-88450690D01*
X102340880Y-88438064D01*
X102349648Y-88426241D01*
X102359534Y-88415334D01*
X102370441Y-88405448D01*
X102382264Y-88396680D01*
X102394890Y-88389112D01*
X102408197Y-88382818D01*
X102422057Y-88377859D01*
X102436336Y-88374282D01*
X102450897Y-88372122D01*
X102465600Y-88371400D01*
X103715600Y-88371400D01*
X103730303Y-88372122D01*
X103730303Y-88372122D01*
G37*
D14*
X103090600Y-88671400D03*
D10*
G36*
X103730303Y-87102122D02*
X103744864Y-87104282D01*
X103759143Y-87107859D01*
X103773003Y-87112818D01*
X103786310Y-87119112D01*
X103798936Y-87126680D01*
X103810759Y-87135448D01*
X103821666Y-87145334D01*
X103831552Y-87156241D01*
X103840320Y-87168064D01*
X103847888Y-87180690D01*
X103854182Y-87193997D01*
X103859141Y-87207857D01*
X103862718Y-87222136D01*
X103864878Y-87236697D01*
X103865600Y-87251400D01*
X103865600Y-87551400D01*
X103864878Y-87566103D01*
X103862718Y-87580664D01*
X103859141Y-87594943D01*
X103854182Y-87608803D01*
X103847888Y-87622110D01*
X103840320Y-87634736D01*
X103831552Y-87646559D01*
X103821666Y-87657466D01*
X103810759Y-87667352D01*
X103798936Y-87676120D01*
X103786310Y-87683688D01*
X103773003Y-87689982D01*
X103759143Y-87694941D01*
X103744864Y-87698518D01*
X103730303Y-87700678D01*
X103715600Y-87701400D01*
X102465600Y-87701400D01*
X102450897Y-87700678D01*
X102436336Y-87698518D01*
X102422057Y-87694941D01*
X102408197Y-87689982D01*
X102394890Y-87683688D01*
X102382264Y-87676120D01*
X102370441Y-87667352D01*
X102359534Y-87657466D01*
X102349648Y-87646559D01*
X102340880Y-87634736D01*
X102333312Y-87622110D01*
X102327018Y-87608803D01*
X102322059Y-87594943D01*
X102318482Y-87580664D01*
X102316322Y-87566103D01*
X102315600Y-87551400D01*
X102315600Y-87251400D01*
X102316322Y-87236697D01*
X102318482Y-87222136D01*
X102322059Y-87207857D01*
X102327018Y-87193997D01*
X102333312Y-87180690D01*
X102340880Y-87168064D01*
X102349648Y-87156241D01*
X102359534Y-87145334D01*
X102370441Y-87135448D01*
X102382264Y-87126680D01*
X102394890Y-87119112D01*
X102408197Y-87112818D01*
X102422057Y-87107859D01*
X102436336Y-87104282D01*
X102450897Y-87102122D01*
X102465600Y-87101400D01*
X103715600Y-87101400D01*
X103730303Y-87102122D01*
X103730303Y-87102122D01*
G37*
D14*
X103090600Y-87401400D03*
D10*
G36*
X103730303Y-85832122D02*
X103744864Y-85834282D01*
X103759143Y-85837859D01*
X103773003Y-85842818D01*
X103786310Y-85849112D01*
X103798936Y-85856680D01*
X103810759Y-85865448D01*
X103821666Y-85875334D01*
X103831552Y-85886241D01*
X103840320Y-85898064D01*
X103847888Y-85910690D01*
X103854182Y-85923997D01*
X103859141Y-85937857D01*
X103862718Y-85952136D01*
X103864878Y-85966697D01*
X103865600Y-85981400D01*
X103865600Y-86281400D01*
X103864878Y-86296103D01*
X103862718Y-86310664D01*
X103859141Y-86324943D01*
X103854182Y-86338803D01*
X103847888Y-86352110D01*
X103840320Y-86364736D01*
X103831552Y-86376559D01*
X103821666Y-86387466D01*
X103810759Y-86397352D01*
X103798936Y-86406120D01*
X103786310Y-86413688D01*
X103773003Y-86419982D01*
X103759143Y-86424941D01*
X103744864Y-86428518D01*
X103730303Y-86430678D01*
X103715600Y-86431400D01*
X102465600Y-86431400D01*
X102450897Y-86430678D01*
X102436336Y-86428518D01*
X102422057Y-86424941D01*
X102408197Y-86419982D01*
X102394890Y-86413688D01*
X102382264Y-86406120D01*
X102370441Y-86397352D01*
X102359534Y-86387466D01*
X102349648Y-86376559D01*
X102340880Y-86364736D01*
X102333312Y-86352110D01*
X102327018Y-86338803D01*
X102322059Y-86324943D01*
X102318482Y-86310664D01*
X102316322Y-86296103D01*
X102315600Y-86281400D01*
X102315600Y-85981400D01*
X102316322Y-85966697D01*
X102318482Y-85952136D01*
X102322059Y-85937857D01*
X102327018Y-85923997D01*
X102333312Y-85910690D01*
X102340880Y-85898064D01*
X102349648Y-85886241D01*
X102359534Y-85875334D01*
X102370441Y-85865448D01*
X102382264Y-85856680D01*
X102394890Y-85849112D01*
X102408197Y-85842818D01*
X102422057Y-85837859D01*
X102436336Y-85834282D01*
X102450897Y-85832122D01*
X102465600Y-85831400D01*
X103715600Y-85831400D01*
X103730303Y-85832122D01*
X103730303Y-85832122D01*
G37*
D14*
X103090600Y-86131400D03*
D10*
G36*
X103730303Y-84562122D02*
X103744864Y-84564282D01*
X103759143Y-84567859D01*
X103773003Y-84572818D01*
X103786310Y-84579112D01*
X103798936Y-84586680D01*
X103810759Y-84595448D01*
X103821666Y-84605334D01*
X103831552Y-84616241D01*
X103840320Y-84628064D01*
X103847888Y-84640690D01*
X103854182Y-84653997D01*
X103859141Y-84667857D01*
X103862718Y-84682136D01*
X103864878Y-84696697D01*
X103865600Y-84711400D01*
X103865600Y-85011400D01*
X103864878Y-85026103D01*
X103862718Y-85040664D01*
X103859141Y-85054943D01*
X103854182Y-85068803D01*
X103847888Y-85082110D01*
X103840320Y-85094736D01*
X103831552Y-85106559D01*
X103821666Y-85117466D01*
X103810759Y-85127352D01*
X103798936Y-85136120D01*
X103786310Y-85143688D01*
X103773003Y-85149982D01*
X103759143Y-85154941D01*
X103744864Y-85158518D01*
X103730303Y-85160678D01*
X103715600Y-85161400D01*
X102465600Y-85161400D01*
X102450897Y-85160678D01*
X102436336Y-85158518D01*
X102422057Y-85154941D01*
X102408197Y-85149982D01*
X102394890Y-85143688D01*
X102382264Y-85136120D01*
X102370441Y-85127352D01*
X102359534Y-85117466D01*
X102349648Y-85106559D01*
X102340880Y-85094736D01*
X102333312Y-85082110D01*
X102327018Y-85068803D01*
X102322059Y-85054943D01*
X102318482Y-85040664D01*
X102316322Y-85026103D01*
X102315600Y-85011400D01*
X102315600Y-84711400D01*
X102316322Y-84696697D01*
X102318482Y-84682136D01*
X102322059Y-84667857D01*
X102327018Y-84653997D01*
X102333312Y-84640690D01*
X102340880Y-84628064D01*
X102349648Y-84616241D01*
X102359534Y-84605334D01*
X102370441Y-84595448D01*
X102382264Y-84586680D01*
X102394890Y-84579112D01*
X102408197Y-84572818D01*
X102422057Y-84567859D01*
X102436336Y-84564282D01*
X102450897Y-84562122D01*
X102465600Y-84561400D01*
X103715600Y-84561400D01*
X103730303Y-84562122D01*
X103730303Y-84562122D01*
G37*
D14*
X103090600Y-84861400D03*
G04 #@! TD*
D15*
G04 #@! TO.C,U11*
X102209600Y-78412400D03*
X102209600Y-78912400D03*
X102209600Y-79412400D03*
X102209600Y-79912400D03*
X104209600Y-79912400D03*
X104209600Y-79412400D03*
X104209600Y-78912400D03*
X104209600Y-78412400D03*
D16*
X103209600Y-79162400D03*
G04 #@! TD*
D17*
G04 #@! TO.C,W3*
X99568000Y-86656800D03*
D10*
G36*
X99668000Y-86256800D02*
X99668000Y-87056800D01*
X99468000Y-87056800D01*
X99468000Y-86256800D01*
X99668000Y-86256800D01*
X99668000Y-86256800D01*
G37*
D18*
X99568000Y-86156800D03*
G04 #@! TD*
D10*
G04 #@! TO.C,R10*
G36*
X107719691Y-100528453D02*
X107740926Y-100531603D01*
X107761750Y-100536819D01*
X107781962Y-100544051D01*
X107801368Y-100553230D01*
X107819781Y-100564266D01*
X107837024Y-100577054D01*
X107852930Y-100591470D01*
X107867346Y-100607376D01*
X107880134Y-100624619D01*
X107891170Y-100643032D01*
X107900349Y-100662438D01*
X107907581Y-100682650D01*
X107912797Y-100703474D01*
X107915947Y-100724709D01*
X107917000Y-100746150D01*
X107917000Y-101183650D01*
X107915947Y-101205091D01*
X107912797Y-101226326D01*
X107907581Y-101247150D01*
X107900349Y-101267362D01*
X107891170Y-101286768D01*
X107880134Y-101305181D01*
X107867346Y-101322424D01*
X107852930Y-101338330D01*
X107837024Y-101352746D01*
X107819781Y-101365534D01*
X107801368Y-101376570D01*
X107781962Y-101385749D01*
X107761750Y-101392981D01*
X107740926Y-101398197D01*
X107719691Y-101401347D01*
X107698250Y-101402400D01*
X107185750Y-101402400D01*
X107164309Y-101401347D01*
X107143074Y-101398197D01*
X107122250Y-101392981D01*
X107102038Y-101385749D01*
X107082632Y-101376570D01*
X107064219Y-101365534D01*
X107046976Y-101352746D01*
X107031070Y-101338330D01*
X107016654Y-101322424D01*
X107003866Y-101305181D01*
X106992830Y-101286768D01*
X106983651Y-101267362D01*
X106976419Y-101247150D01*
X106971203Y-101226326D01*
X106968053Y-101205091D01*
X106967000Y-101183650D01*
X106967000Y-100746150D01*
X106968053Y-100724709D01*
X106971203Y-100703474D01*
X106976419Y-100682650D01*
X106983651Y-100662438D01*
X106992830Y-100643032D01*
X107003866Y-100624619D01*
X107016654Y-100607376D01*
X107031070Y-100591470D01*
X107046976Y-100577054D01*
X107064219Y-100564266D01*
X107082632Y-100553230D01*
X107102038Y-100544051D01*
X107122250Y-100536819D01*
X107143074Y-100531603D01*
X107164309Y-100528453D01*
X107185750Y-100527400D01*
X107698250Y-100527400D01*
X107719691Y-100528453D01*
X107719691Y-100528453D01*
G37*
D12*
X107442000Y-100964900D03*
D10*
G36*
X107719691Y-102103453D02*
X107740926Y-102106603D01*
X107761750Y-102111819D01*
X107781962Y-102119051D01*
X107801368Y-102128230D01*
X107819781Y-102139266D01*
X107837024Y-102152054D01*
X107852930Y-102166470D01*
X107867346Y-102182376D01*
X107880134Y-102199619D01*
X107891170Y-102218032D01*
X107900349Y-102237438D01*
X107907581Y-102257650D01*
X107912797Y-102278474D01*
X107915947Y-102299709D01*
X107917000Y-102321150D01*
X107917000Y-102758650D01*
X107915947Y-102780091D01*
X107912797Y-102801326D01*
X107907581Y-102822150D01*
X107900349Y-102842362D01*
X107891170Y-102861768D01*
X107880134Y-102880181D01*
X107867346Y-102897424D01*
X107852930Y-102913330D01*
X107837024Y-102927746D01*
X107819781Y-102940534D01*
X107801368Y-102951570D01*
X107781962Y-102960749D01*
X107761750Y-102967981D01*
X107740926Y-102973197D01*
X107719691Y-102976347D01*
X107698250Y-102977400D01*
X107185750Y-102977400D01*
X107164309Y-102976347D01*
X107143074Y-102973197D01*
X107122250Y-102967981D01*
X107102038Y-102960749D01*
X107082632Y-102951570D01*
X107064219Y-102940534D01*
X107046976Y-102927746D01*
X107031070Y-102913330D01*
X107016654Y-102897424D01*
X107003866Y-102880181D01*
X106992830Y-102861768D01*
X106983651Y-102842362D01*
X106976419Y-102822150D01*
X106971203Y-102801326D01*
X106968053Y-102780091D01*
X106967000Y-102758650D01*
X106967000Y-102321150D01*
X106968053Y-102299709D01*
X106971203Y-102278474D01*
X106976419Y-102257650D01*
X106983651Y-102237438D01*
X106992830Y-102218032D01*
X107003866Y-102199619D01*
X107016654Y-102182376D01*
X107031070Y-102166470D01*
X107046976Y-102152054D01*
X107064219Y-102139266D01*
X107082632Y-102128230D01*
X107102038Y-102119051D01*
X107122250Y-102111819D01*
X107143074Y-102106603D01*
X107164309Y-102103453D01*
X107185750Y-102102400D01*
X107698250Y-102102400D01*
X107719691Y-102103453D01*
X107719691Y-102103453D01*
G37*
D12*
X107442000Y-102539900D03*
G04 #@! TD*
M02*
