M48
;DRILL file {KiCad (5.0.1)-rc2} date 3/9/2019 12:38:15 AM
;FORMAT={-:-/ absolute / inch / decimal}
FMAT,2
INCH,TZ
T1C0.0118
T2C0.0157
T3C0.0295
T4C0.0299
T5C0.0315
T6C0.0374
T7C0.0394
%
G90
G05
M72
T1
X3.818Y-3.814
X3.886Y-3.414
X3.912Y-3.516
X3.954Y-2.968
X3.9697Y-2.8357
X3.97Y-3.116
X3.972Y-3.756
X3.974Y-3.08
X3.9998Y-3.296
X4.0434Y-2.9358
X4.066Y-2.92
X4.07Y-3.29
X4.096Y-3.67
X4.13Y-2.8971
X4.152Y-3.0859
X4.172Y-3.898
X4.18Y-2.78
X4.19Y-2.87
X4.214Y-3.084
X4.256Y-2.24
X4.264Y-2.138
X4.272Y-3.3
X4.298Y-3.73
X4.33Y-3.3
X4.344Y-2.562
T2
X3.84Y-4.2
X3.95Y-3.63
X3.96Y-3.54
X4.07Y-4.03
X4.09Y-3.76
X4.21Y-3.55
X4.2318Y-3.7274
X4.44Y-4.19
X4.46Y-3.86
T3
X4.35Y-3.9675
X4.35Y-4.0463
X4.35Y-4.125
T4
X3.85Y-2.625
X3.9Y-2.725
X3.95Y-2.625
X4.Y-2.725
X4.05Y-2.625
X4.1Y-2.725
T5
X3.75Y-2.9
X3.75Y-3.
X3.75Y-3.1
X3.75Y-3.2
X3.75Y-3.3
X3.75Y-3.4
X3.75Y-3.5
X3.75Y-3.6
X3.75Y-3.7
X3.75Y-3.8
X3.75Y-3.9
X3.75Y-4.
X3.75Y-4.1
X3.75Y-4.2
X4.55Y-2.9
X4.55Y-3.
X4.55Y-3.1
X4.55Y-3.2
X4.55Y-3.3
X4.55Y-3.4
X4.55Y-3.5
X4.55Y-3.6
X4.55Y-3.7
X4.55Y-3.8
X4.55Y-3.9
X4.55Y-4.
X4.55Y-4.1
X4.55Y-4.2
T6
X4.4Y-3.3797
X4.4Y-3.4781
X4.4Y-3.5766
X4.4Y-3.675
T7
X3.925Y-4.15
X4.025Y-4.15
X4.125Y-4.15
X3.875Y-2.925
X3.875Y-3.025
X4.4Y-3.025
X4.4Y-3.1234
T0
M30
