G04 #@! TF.GenerationSoftware,KiCad,Pcbnew,(5.0.1)-rc2*
G04 #@! TF.CreationDate,2019-03-09T00:38:12-07:00*
G04 #@! TF.ProjectId,weatherStation,7765617468657253746174696F6E2E6B,rev?*
G04 #@! TF.SameCoordinates,Original*
G04 #@! TF.FileFunction,Soldermask,Bot*
G04 #@! TF.FilePolarity,Negative*
%FSLAX46Y46*%
G04 Gerber Fmt 4.6, Leading zero omitted, Abs format (unit mm)*
G04 Created by KiCad (PCBNEW (5.0.1)-rc2) date 3/9/2019 12:38:12 AM*
%MOMM*%
%LPD*%
G01*
G04 APERTURE LIST*
%ADD10C,0.100000*%
G04 APERTURE END LIST*
D10*
G36*
X115807142Y-105898242D02*
X115955102Y-105959530D01*
X116022130Y-106004317D01*
X116088257Y-106048501D01*
X116201499Y-106161743D01*
X116202191Y-106162779D01*
X116290470Y-106294898D01*
X116351758Y-106442858D01*
X116383000Y-106599925D01*
X116383000Y-106760075D01*
X116351758Y-106917142D01*
X116290470Y-107065102D01*
X116201498Y-107198258D01*
X116088258Y-107311498D01*
X115955102Y-107400470D01*
X115807142Y-107461758D01*
X115650075Y-107493000D01*
X115489925Y-107493000D01*
X115332858Y-107461758D01*
X115184898Y-107400470D01*
X115051742Y-107311498D01*
X114938502Y-107198258D01*
X114849530Y-107065102D01*
X114788242Y-106917142D01*
X114757000Y-106760075D01*
X114757000Y-106599925D01*
X114788242Y-106442858D01*
X114849530Y-106294898D01*
X114937809Y-106162779D01*
X114938501Y-106161743D01*
X115051743Y-106048501D01*
X115117870Y-106004317D01*
X115184898Y-105959530D01*
X115332858Y-105898242D01*
X115489925Y-105867000D01*
X115650075Y-105867000D01*
X115807142Y-105898242D01*
X115807142Y-105898242D01*
G37*
G36*
X95487142Y-105898242D02*
X95635102Y-105959530D01*
X95702130Y-106004317D01*
X95768257Y-106048501D01*
X95881499Y-106161743D01*
X95882191Y-106162779D01*
X95970470Y-106294898D01*
X96031758Y-106442858D01*
X96063000Y-106599925D01*
X96063000Y-106760075D01*
X96031758Y-106917142D01*
X95970470Y-107065102D01*
X95881498Y-107198258D01*
X95768258Y-107311498D01*
X95635102Y-107400470D01*
X95487142Y-107461758D01*
X95330075Y-107493000D01*
X95169925Y-107493000D01*
X95012858Y-107461758D01*
X94864898Y-107400470D01*
X94731742Y-107311498D01*
X94618502Y-107198258D01*
X94529530Y-107065102D01*
X94468242Y-106917142D01*
X94437000Y-106760075D01*
X94437000Y-106599925D01*
X94468242Y-106442858D01*
X94529530Y-106294898D01*
X94617809Y-106162779D01*
X94618501Y-106161743D01*
X94731743Y-106048501D01*
X94797870Y-106004317D01*
X94864898Y-105959530D01*
X95012858Y-105898242D01*
X95169925Y-105867000D01*
X95330075Y-105867000D01*
X95487142Y-105898242D01*
X95487142Y-105898242D01*
G37*
G36*
X104885443Y-104515519D02*
X104951627Y-104522037D01*
X105064853Y-104556384D01*
X105121467Y-104573557D01*
X105260087Y-104647652D01*
X105277991Y-104657222D01*
X105279253Y-104658258D01*
X105415186Y-104769814D01*
X105489584Y-104860470D01*
X105527778Y-104907009D01*
X105527779Y-104907011D01*
X105611443Y-105063533D01*
X105611443Y-105063534D01*
X105662963Y-105233373D01*
X105680359Y-105410000D01*
X105662963Y-105586627D01*
X105628616Y-105699853D01*
X105611443Y-105756467D01*
X105552361Y-105867000D01*
X105527778Y-105912991D01*
X105498448Y-105948729D01*
X105415186Y-106050186D01*
X105313729Y-106133448D01*
X105277991Y-106162778D01*
X105277989Y-106162779D01*
X105121467Y-106246443D01*
X105064853Y-106263616D01*
X104951627Y-106297963D01*
X104885442Y-106304482D01*
X104819260Y-106311000D01*
X104730740Y-106311000D01*
X104664558Y-106304482D01*
X104598373Y-106297963D01*
X104485147Y-106263616D01*
X104428533Y-106246443D01*
X104272011Y-106162779D01*
X104272009Y-106162778D01*
X104236271Y-106133448D01*
X104134814Y-106050186D01*
X104051552Y-105948729D01*
X104022222Y-105912991D01*
X103997639Y-105867000D01*
X103938557Y-105756467D01*
X103921384Y-105699853D01*
X103887037Y-105586627D01*
X103869641Y-105410000D01*
X103887037Y-105233373D01*
X103938557Y-105063534D01*
X103938557Y-105063533D01*
X104022221Y-104907011D01*
X104022222Y-104907009D01*
X104060416Y-104860470D01*
X104134814Y-104769814D01*
X104270747Y-104658258D01*
X104272009Y-104657222D01*
X104289913Y-104647652D01*
X104428533Y-104573557D01*
X104485147Y-104556384D01*
X104598373Y-104522037D01*
X104664557Y-104515519D01*
X104730740Y-104509000D01*
X104819260Y-104509000D01*
X104885443Y-104515519D01*
X104885443Y-104515519D01*
G37*
G36*
X102345443Y-104515519D02*
X102411627Y-104522037D01*
X102524853Y-104556384D01*
X102581467Y-104573557D01*
X102720087Y-104647652D01*
X102737991Y-104657222D01*
X102739253Y-104658258D01*
X102875186Y-104769814D01*
X102949584Y-104860470D01*
X102987778Y-104907009D01*
X102987779Y-104907011D01*
X103071443Y-105063533D01*
X103071443Y-105063534D01*
X103122963Y-105233373D01*
X103140359Y-105410000D01*
X103122963Y-105586627D01*
X103088616Y-105699853D01*
X103071443Y-105756467D01*
X103012361Y-105867000D01*
X102987778Y-105912991D01*
X102958448Y-105948729D01*
X102875186Y-106050186D01*
X102773729Y-106133448D01*
X102737991Y-106162778D01*
X102737989Y-106162779D01*
X102581467Y-106246443D01*
X102524853Y-106263616D01*
X102411627Y-106297963D01*
X102345442Y-106304482D01*
X102279260Y-106311000D01*
X102190740Y-106311000D01*
X102124558Y-106304482D01*
X102058373Y-106297963D01*
X101945147Y-106263616D01*
X101888533Y-106246443D01*
X101732011Y-106162779D01*
X101732009Y-106162778D01*
X101696271Y-106133448D01*
X101594814Y-106050186D01*
X101511552Y-105948729D01*
X101482222Y-105912991D01*
X101457639Y-105867000D01*
X101398557Y-105756467D01*
X101381384Y-105699853D01*
X101347037Y-105586627D01*
X101329641Y-105410000D01*
X101347037Y-105233373D01*
X101398557Y-105063534D01*
X101398557Y-105063533D01*
X101482221Y-104907011D01*
X101482222Y-104907009D01*
X101520416Y-104860470D01*
X101594814Y-104769814D01*
X101730747Y-104658258D01*
X101732009Y-104657222D01*
X101749913Y-104647652D01*
X101888533Y-104573557D01*
X101945147Y-104556384D01*
X102058373Y-104522037D01*
X102124557Y-104515519D01*
X102190740Y-104509000D01*
X102279260Y-104509000D01*
X102345443Y-104515519D01*
X102345443Y-104515519D01*
G37*
G36*
X100596000Y-106311000D02*
X98794000Y-106311000D01*
X98794000Y-104509000D01*
X100596000Y-104509000D01*
X100596000Y-106311000D01*
X100596000Y-106311000D01*
G37*
G36*
X111256242Y-104128404D02*
X111293339Y-104139657D01*
X111327520Y-104157927D01*
X111357482Y-104182518D01*
X111382073Y-104212480D01*
X111400343Y-104246661D01*
X111411596Y-104283758D01*
X111416000Y-104328473D01*
X111416000Y-105221527D01*
X111411596Y-105266242D01*
X111400343Y-105303339D01*
X111382073Y-105337520D01*
X111357482Y-105367482D01*
X111327520Y-105392073D01*
X111293339Y-105410343D01*
X111256242Y-105421596D01*
X111211527Y-105426000D01*
X109768473Y-105426000D01*
X109723758Y-105421596D01*
X109686661Y-105410343D01*
X109652480Y-105392073D01*
X109622518Y-105367482D01*
X109597927Y-105337520D01*
X109579657Y-105303339D01*
X109568404Y-105266242D01*
X109564000Y-105221527D01*
X109564000Y-104328473D01*
X109568404Y-104283758D01*
X109579657Y-104246661D01*
X109597927Y-104212480D01*
X109622518Y-104182518D01*
X109652480Y-104157927D01*
X109686661Y-104139657D01*
X109723758Y-104128404D01*
X109768473Y-104124000D01*
X111211527Y-104124000D01*
X111256242Y-104128404D01*
X111256242Y-104128404D01*
G37*
G36*
X95487142Y-103358242D02*
X95538112Y-103379355D01*
X95627981Y-103416580D01*
X95635102Y-103419530D01*
X95768258Y-103508502D01*
X95881498Y-103621742D01*
X95970470Y-103754898D01*
X96031758Y-103902858D01*
X96063000Y-104059925D01*
X96063000Y-104220075D01*
X96031758Y-104377142D01*
X95984354Y-104491583D01*
X95970471Y-104525100D01*
X95882191Y-104657222D01*
X95881498Y-104658258D01*
X95768258Y-104771498D01*
X95635102Y-104860470D01*
X95487142Y-104921758D01*
X95330075Y-104953000D01*
X95169925Y-104953000D01*
X95012858Y-104921758D01*
X94864898Y-104860470D01*
X94731742Y-104771498D01*
X94618502Y-104658258D01*
X94617810Y-104657222D01*
X94529529Y-104525100D01*
X94515646Y-104491583D01*
X94468242Y-104377142D01*
X94437000Y-104220075D01*
X94437000Y-104059925D01*
X94468242Y-103902858D01*
X94529530Y-103754898D01*
X94618502Y-103621742D01*
X94731742Y-103508502D01*
X94864898Y-103419530D01*
X94872020Y-103416580D01*
X94961888Y-103379355D01*
X95012858Y-103358242D01*
X95169925Y-103327000D01*
X95330075Y-103327000D01*
X95487142Y-103358242D01*
X95487142Y-103358242D01*
G37*
G36*
X115807142Y-103358242D02*
X115858112Y-103379355D01*
X115947981Y-103416580D01*
X115955102Y-103419530D01*
X116088258Y-103508502D01*
X116201498Y-103621742D01*
X116290470Y-103754898D01*
X116351758Y-103902858D01*
X116383000Y-104059925D01*
X116383000Y-104220075D01*
X116351758Y-104377142D01*
X116304354Y-104491583D01*
X116290471Y-104525100D01*
X116202191Y-104657222D01*
X116201498Y-104658258D01*
X116088258Y-104771498D01*
X115955102Y-104860470D01*
X115807142Y-104921758D01*
X115650075Y-104953000D01*
X115489925Y-104953000D01*
X115332858Y-104921758D01*
X115184898Y-104860470D01*
X115051742Y-104771498D01*
X114938502Y-104658258D01*
X114937810Y-104657222D01*
X114849529Y-104525100D01*
X114835646Y-104491583D01*
X114788242Y-104377142D01*
X114757000Y-104220075D01*
X114757000Y-104059925D01*
X114788242Y-103902858D01*
X114849530Y-103754898D01*
X114938502Y-103621742D01*
X115051742Y-103508502D01*
X115184898Y-103419530D01*
X115192020Y-103416580D01*
X115281888Y-103379355D01*
X115332858Y-103358242D01*
X115489925Y-103327000D01*
X115650075Y-103327000D01*
X115807142Y-103358242D01*
X115807142Y-103358242D01*
G37*
G36*
X110828855Y-102127140D02*
X110892618Y-102133420D01*
X110974427Y-102158237D01*
X111015333Y-102170645D01*
X111074330Y-102202180D01*
X111128426Y-102231095D01*
X111227553Y-102312447D01*
X111308905Y-102411574D01*
X111308906Y-102411576D01*
X111369355Y-102524667D01*
X111369355Y-102524668D01*
X111406580Y-102647382D01*
X111419149Y-102775000D01*
X111406580Y-102902618D01*
X111384702Y-102974739D01*
X111369355Y-103025333D01*
X111315819Y-103125491D01*
X111308905Y-103138426D01*
X111227553Y-103237553D01*
X111128426Y-103318905D01*
X111128424Y-103318906D01*
X111015333Y-103379355D01*
X110974427Y-103391763D01*
X110892618Y-103416580D01*
X110828855Y-103422860D01*
X110796974Y-103426000D01*
X110183026Y-103426000D01*
X110151145Y-103422860D01*
X110087382Y-103416580D01*
X110005573Y-103391763D01*
X109964667Y-103379355D01*
X109851576Y-103318906D01*
X109851574Y-103318905D01*
X109752447Y-103237553D01*
X109671095Y-103138426D01*
X109664181Y-103125491D01*
X109610645Y-103025333D01*
X109595298Y-102974739D01*
X109573420Y-102902618D01*
X109560851Y-102775000D01*
X109573420Y-102647382D01*
X109610645Y-102524668D01*
X109610645Y-102524667D01*
X109671094Y-102411576D01*
X109671095Y-102411574D01*
X109752447Y-102312447D01*
X109851574Y-102231095D01*
X109905670Y-102202180D01*
X109964667Y-102170645D01*
X110005573Y-102158237D01*
X110087382Y-102133420D01*
X110151145Y-102127140D01*
X110183026Y-102124000D01*
X110796974Y-102124000D01*
X110828855Y-102127140D01*
X110828855Y-102127140D01*
G37*
G36*
X107821591Y-102055485D02*
X107855569Y-102065793D01*
X107886887Y-102082533D01*
X107914339Y-102105061D01*
X107936867Y-102132513D01*
X107953607Y-102163831D01*
X107963915Y-102197809D01*
X107968000Y-102239290D01*
X107968000Y-102840510D01*
X107963915Y-102881991D01*
X107953607Y-102915969D01*
X107936867Y-102947287D01*
X107914339Y-102974739D01*
X107886887Y-102997267D01*
X107855569Y-103014007D01*
X107821591Y-103024315D01*
X107780110Y-103028400D01*
X107103890Y-103028400D01*
X107062409Y-103024315D01*
X107028431Y-103014007D01*
X106997113Y-102997267D01*
X106969661Y-102974739D01*
X106947133Y-102947287D01*
X106930393Y-102915969D01*
X106920085Y-102881991D01*
X106916000Y-102840510D01*
X106916000Y-102239290D01*
X106920085Y-102197809D01*
X106930393Y-102163831D01*
X106947133Y-102132513D01*
X106969661Y-102105061D01*
X106997113Y-102082533D01*
X107028431Y-102065793D01*
X107062409Y-102055485D01*
X107103890Y-102051400D01*
X107780110Y-102051400D01*
X107821591Y-102055485D01*
X107821591Y-102055485D01*
G37*
G36*
X115807142Y-100818242D02*
X115955102Y-100879530D01*
X116088258Y-100968502D01*
X116201498Y-101081742D01*
X116290470Y-101214898D01*
X116351758Y-101362858D01*
X116383000Y-101519925D01*
X116383000Y-101680075D01*
X116351758Y-101837142D01*
X116304354Y-101951583D01*
X116290471Y-101985100D01*
X116201499Y-102118257D01*
X116088257Y-102231499D01*
X116063563Y-102247999D01*
X115955102Y-102320470D01*
X115807142Y-102381758D01*
X115650075Y-102413000D01*
X115489925Y-102413000D01*
X115332858Y-102381758D01*
X115184898Y-102320470D01*
X115076437Y-102247999D01*
X115051743Y-102231499D01*
X114938501Y-102118257D01*
X114849529Y-101985100D01*
X114835646Y-101951583D01*
X114788242Y-101837142D01*
X114757000Y-101680075D01*
X114757000Y-101519925D01*
X114788242Y-101362858D01*
X114849530Y-101214898D01*
X114938502Y-101081742D01*
X115051742Y-100968502D01*
X115184898Y-100879530D01*
X115332858Y-100818242D01*
X115489925Y-100787000D01*
X115650075Y-100787000D01*
X115807142Y-100818242D01*
X115807142Y-100818242D01*
G37*
G36*
X95487142Y-100818242D02*
X95635102Y-100879530D01*
X95768258Y-100968502D01*
X95881498Y-101081742D01*
X95970470Y-101214898D01*
X96031758Y-101362858D01*
X96063000Y-101519925D01*
X96063000Y-101680075D01*
X96031758Y-101837142D01*
X95984354Y-101951583D01*
X95970471Y-101985100D01*
X95881499Y-102118257D01*
X95768257Y-102231499D01*
X95743563Y-102247999D01*
X95635102Y-102320470D01*
X95487142Y-102381758D01*
X95330075Y-102413000D01*
X95169925Y-102413000D01*
X95012858Y-102381758D01*
X94864898Y-102320470D01*
X94756437Y-102247999D01*
X94731743Y-102231499D01*
X94618501Y-102118257D01*
X94529529Y-101985100D01*
X94515646Y-101951583D01*
X94468242Y-101837142D01*
X94437000Y-101680075D01*
X94437000Y-101519925D01*
X94468242Y-101362858D01*
X94529530Y-101214898D01*
X94618502Y-101081742D01*
X94731742Y-100968502D01*
X94864898Y-100879530D01*
X95012858Y-100818242D01*
X95169925Y-100787000D01*
X95330075Y-100787000D01*
X95487142Y-100818242D01*
X95487142Y-100818242D01*
G37*
G36*
X107821591Y-100480485D02*
X107855569Y-100490793D01*
X107886887Y-100507533D01*
X107914339Y-100530061D01*
X107936867Y-100557513D01*
X107953607Y-100588831D01*
X107963915Y-100622809D01*
X107968000Y-100664290D01*
X107968000Y-101265510D01*
X107963915Y-101306991D01*
X107953607Y-101340969D01*
X107936867Y-101372287D01*
X107914339Y-101399739D01*
X107886887Y-101422267D01*
X107855569Y-101439007D01*
X107821591Y-101449315D01*
X107780110Y-101453400D01*
X107103890Y-101453400D01*
X107062409Y-101449315D01*
X107028431Y-101439007D01*
X106997113Y-101422267D01*
X106969661Y-101399739D01*
X106947133Y-101372287D01*
X106930393Y-101340969D01*
X106920085Y-101306991D01*
X106916000Y-101265510D01*
X106916000Y-100664290D01*
X106920085Y-100622809D01*
X106930393Y-100588831D01*
X106947133Y-100557513D01*
X106969661Y-100530061D01*
X106997113Y-100507533D01*
X107028431Y-100490793D01*
X107062409Y-100480485D01*
X107103890Y-100476400D01*
X107780110Y-100476400D01*
X107821591Y-100480485D01*
X107821591Y-100480485D01*
G37*
G36*
X110828855Y-100127140D02*
X110892618Y-100133420D01*
X110974427Y-100158237D01*
X111015333Y-100170645D01*
X111115491Y-100224181D01*
X111128426Y-100231095D01*
X111227553Y-100312447D01*
X111308905Y-100411574D01*
X111308906Y-100411576D01*
X111369355Y-100524667D01*
X111381763Y-100565573D01*
X111406580Y-100647382D01*
X111419149Y-100775000D01*
X111406580Y-100902618D01*
X111386594Y-100968502D01*
X111369355Y-101025333D01*
X111339203Y-101081742D01*
X111308905Y-101138426D01*
X111227553Y-101237553D01*
X111128426Y-101318905D01*
X111128424Y-101318906D01*
X111015333Y-101379355D01*
X110974427Y-101391763D01*
X110892618Y-101416580D01*
X110828855Y-101422860D01*
X110796974Y-101426000D01*
X110183026Y-101426000D01*
X110151145Y-101422860D01*
X110087382Y-101416580D01*
X110005573Y-101391763D01*
X109964667Y-101379355D01*
X109851576Y-101318906D01*
X109851574Y-101318905D01*
X109752447Y-101237553D01*
X109671095Y-101138426D01*
X109640797Y-101081742D01*
X109610645Y-101025333D01*
X109593406Y-100968502D01*
X109573420Y-100902618D01*
X109560851Y-100775000D01*
X109573420Y-100647382D01*
X109598237Y-100565573D01*
X109610645Y-100524667D01*
X109671094Y-100411576D01*
X109671095Y-100411574D01*
X109752447Y-100312447D01*
X109851574Y-100231095D01*
X109864509Y-100224181D01*
X109964667Y-100170645D01*
X110005573Y-100158237D01*
X110087382Y-100133420D01*
X110151145Y-100127140D01*
X110183026Y-100124000D01*
X110796974Y-100124000D01*
X110828855Y-100127140D01*
X110828855Y-100127140D01*
G37*
G36*
X115807142Y-98278242D02*
X115955102Y-98339530D01*
X116088258Y-98428502D01*
X116201498Y-98541742D01*
X116290470Y-98674898D01*
X116351758Y-98822858D01*
X116383000Y-98979925D01*
X116383000Y-99140075D01*
X116351758Y-99297142D01*
X116290470Y-99445102D01*
X116201498Y-99578258D01*
X116088258Y-99691498D01*
X115955102Y-99780470D01*
X115807142Y-99841758D01*
X115650075Y-99873000D01*
X115489925Y-99873000D01*
X115332858Y-99841758D01*
X115184898Y-99780470D01*
X115051742Y-99691498D01*
X114938502Y-99578258D01*
X114849530Y-99445102D01*
X114788242Y-99297142D01*
X114757000Y-99140075D01*
X114757000Y-98979925D01*
X114788242Y-98822858D01*
X114849530Y-98674898D01*
X114938502Y-98541742D01*
X115051742Y-98428502D01*
X115184898Y-98339530D01*
X115332858Y-98278242D01*
X115489925Y-98247000D01*
X115650075Y-98247000D01*
X115807142Y-98278242D01*
X115807142Y-98278242D01*
G37*
G36*
X95487142Y-98278242D02*
X95635102Y-98339530D01*
X95768258Y-98428502D01*
X95881498Y-98541742D01*
X95970470Y-98674898D01*
X96031758Y-98822858D01*
X96063000Y-98979925D01*
X96063000Y-99140075D01*
X96031758Y-99297142D01*
X95970470Y-99445102D01*
X95881498Y-99578258D01*
X95768258Y-99691498D01*
X95635102Y-99780470D01*
X95487142Y-99841758D01*
X95330075Y-99873000D01*
X95169925Y-99873000D01*
X95012858Y-99841758D01*
X94864898Y-99780470D01*
X94731742Y-99691498D01*
X94618502Y-99578258D01*
X94529530Y-99445102D01*
X94468242Y-99297142D01*
X94437000Y-99140075D01*
X94437000Y-98979925D01*
X94468242Y-98822858D01*
X94529530Y-98674898D01*
X94618502Y-98541742D01*
X94731742Y-98428502D01*
X94864898Y-98339530D01*
X95012858Y-98278242D01*
X95169925Y-98247000D01*
X95330075Y-98247000D01*
X95487142Y-98278242D01*
X95487142Y-98278242D01*
G37*
G36*
X115807142Y-95738242D02*
X115955102Y-95799530D01*
X116088258Y-95888502D01*
X116201498Y-96001742D01*
X116290470Y-96134898D01*
X116351758Y-96282858D01*
X116383000Y-96439925D01*
X116383000Y-96600075D01*
X116351758Y-96757142D01*
X116290470Y-96905102D01*
X116201498Y-97038258D01*
X116088258Y-97151498D01*
X115955102Y-97240470D01*
X115807142Y-97301758D01*
X115650075Y-97333000D01*
X115489925Y-97333000D01*
X115332858Y-97301758D01*
X115184898Y-97240470D01*
X115051742Y-97151498D01*
X114938502Y-97038258D01*
X114849530Y-96905102D01*
X114788242Y-96757142D01*
X114757000Y-96600075D01*
X114757000Y-96439925D01*
X114788242Y-96282858D01*
X114849530Y-96134898D01*
X114938502Y-96001742D01*
X115051742Y-95888502D01*
X115184898Y-95799530D01*
X115332858Y-95738242D01*
X115489925Y-95707000D01*
X115650075Y-95707000D01*
X115807142Y-95738242D01*
X115807142Y-95738242D01*
G37*
G36*
X95487142Y-95738242D02*
X95635102Y-95799530D01*
X95768258Y-95888502D01*
X95881498Y-96001742D01*
X95970470Y-96134898D01*
X96031758Y-96282858D01*
X96063000Y-96439925D01*
X96063000Y-96600075D01*
X96031758Y-96757142D01*
X95970470Y-96905102D01*
X95881498Y-97038258D01*
X95768258Y-97151498D01*
X95635102Y-97240470D01*
X95487142Y-97301758D01*
X95330075Y-97333000D01*
X95169925Y-97333000D01*
X95012858Y-97301758D01*
X94864898Y-97240470D01*
X94731742Y-97151498D01*
X94618502Y-97038258D01*
X94529530Y-96905102D01*
X94468242Y-96757142D01*
X94437000Y-96600075D01*
X94437000Y-96439925D01*
X94468242Y-96282858D01*
X94529530Y-96134898D01*
X94618502Y-96001742D01*
X94731742Y-95888502D01*
X94864898Y-95799530D01*
X95012858Y-95738242D01*
X95169925Y-95707000D01*
X95330075Y-95707000D01*
X95487142Y-95738242D01*
X95487142Y-95738242D01*
G37*
G36*
X98423591Y-95362585D02*
X98457569Y-95372893D01*
X98488887Y-95389633D01*
X98516339Y-95412161D01*
X98538867Y-95439613D01*
X98555607Y-95470931D01*
X98565915Y-95504909D01*
X98570000Y-95546390D01*
X98570000Y-96147610D01*
X98565915Y-96189091D01*
X98555607Y-96223069D01*
X98538867Y-96254387D01*
X98516339Y-96281839D01*
X98488887Y-96304367D01*
X98457569Y-96321107D01*
X98423591Y-96331415D01*
X98382110Y-96335500D01*
X97705890Y-96335500D01*
X97664409Y-96331415D01*
X97630431Y-96321107D01*
X97599113Y-96304367D01*
X97571661Y-96281839D01*
X97549133Y-96254387D01*
X97532393Y-96223069D01*
X97522085Y-96189091D01*
X97518000Y-96147610D01*
X97518000Y-95546390D01*
X97522085Y-95504909D01*
X97532393Y-95470931D01*
X97549133Y-95439613D01*
X97571661Y-95412161D01*
X97599113Y-95389633D01*
X97630431Y-95372893D01*
X97664409Y-95362585D01*
X97705890Y-95358500D01*
X98382110Y-95358500D01*
X98423591Y-95362585D01*
X98423591Y-95362585D01*
G37*
G36*
X95487142Y-93198242D02*
X95635102Y-93259530D01*
X95698064Y-93301600D01*
X95759671Y-93342764D01*
X95768258Y-93348502D01*
X95881498Y-93461742D01*
X95970470Y-93594898D01*
X96031758Y-93742858D01*
X96063000Y-93899925D01*
X96063000Y-94060075D01*
X96031758Y-94217142D01*
X96019804Y-94246000D01*
X95970471Y-94365100D01*
X95881499Y-94498257D01*
X95768257Y-94611499D01*
X95713526Y-94648069D01*
X95635102Y-94700470D01*
X95487142Y-94761758D01*
X95330075Y-94793000D01*
X95169925Y-94793000D01*
X95012858Y-94761758D01*
X94864898Y-94700470D01*
X94786474Y-94648069D01*
X94731743Y-94611499D01*
X94618501Y-94498257D01*
X94529529Y-94365100D01*
X94480196Y-94246000D01*
X94468242Y-94217142D01*
X94437000Y-94060075D01*
X94437000Y-93899925D01*
X94468242Y-93742858D01*
X94529530Y-93594898D01*
X94618502Y-93461742D01*
X94731742Y-93348502D01*
X94740330Y-93342764D01*
X94801936Y-93301600D01*
X94864898Y-93259530D01*
X95012858Y-93198242D01*
X95169925Y-93167000D01*
X95330075Y-93167000D01*
X95487142Y-93198242D01*
X95487142Y-93198242D01*
G37*
G36*
X115807142Y-93198242D02*
X115955102Y-93259530D01*
X116018064Y-93301600D01*
X116079671Y-93342764D01*
X116088258Y-93348502D01*
X116201498Y-93461742D01*
X116290470Y-93594898D01*
X116351758Y-93742858D01*
X116383000Y-93899925D01*
X116383000Y-94060075D01*
X116351758Y-94217142D01*
X116339804Y-94246000D01*
X116290471Y-94365100D01*
X116201499Y-94498257D01*
X116088257Y-94611499D01*
X116033526Y-94648069D01*
X115955102Y-94700470D01*
X115807142Y-94761758D01*
X115650075Y-94793000D01*
X115489925Y-94793000D01*
X115332858Y-94761758D01*
X115184898Y-94700470D01*
X115106474Y-94648069D01*
X115051743Y-94611499D01*
X114938501Y-94498257D01*
X114849529Y-94365100D01*
X114800196Y-94246000D01*
X114788242Y-94217142D01*
X114757000Y-94060075D01*
X114757000Y-93899925D01*
X114788242Y-93742858D01*
X114849530Y-93594898D01*
X114938502Y-93461742D01*
X115051742Y-93348502D01*
X115060330Y-93342764D01*
X115121936Y-93301600D01*
X115184898Y-93259530D01*
X115332858Y-93198242D01*
X115489925Y-93167000D01*
X115650075Y-93167000D01*
X115807142Y-93198242D01*
X115807142Y-93198242D01*
G37*
G36*
X98423591Y-93787585D02*
X98457569Y-93797893D01*
X98488887Y-93814633D01*
X98516339Y-93837161D01*
X98538867Y-93864613D01*
X98555607Y-93895931D01*
X98565915Y-93929909D01*
X98570000Y-93971390D01*
X98570000Y-94572610D01*
X98565915Y-94614091D01*
X98555607Y-94648069D01*
X98538867Y-94679387D01*
X98516339Y-94706839D01*
X98488887Y-94729367D01*
X98457569Y-94746107D01*
X98423591Y-94756415D01*
X98382110Y-94760500D01*
X97705890Y-94760500D01*
X97664409Y-94756415D01*
X97630431Y-94746107D01*
X97599113Y-94729367D01*
X97571661Y-94706839D01*
X97549133Y-94679387D01*
X97532393Y-94648069D01*
X97522085Y-94614091D01*
X97518000Y-94572610D01*
X97518000Y-93971390D01*
X97522085Y-93929909D01*
X97532393Y-93895931D01*
X97549133Y-93864613D01*
X97571661Y-93837161D01*
X97599113Y-93814633D01*
X97630431Y-93797893D01*
X97664409Y-93787585D01*
X97705890Y-93783500D01*
X98382110Y-93783500D01*
X98423591Y-93787585D01*
X98423591Y-93787585D01*
G37*
G36*
X101433891Y-93305685D02*
X101467869Y-93315993D01*
X101499187Y-93332733D01*
X101526639Y-93355261D01*
X101549167Y-93382713D01*
X101565907Y-93414031D01*
X101576215Y-93448009D01*
X101580300Y-93489490D01*
X101580300Y-94165710D01*
X101576215Y-94207191D01*
X101565907Y-94241169D01*
X101549167Y-94272487D01*
X101526639Y-94299939D01*
X101499187Y-94322467D01*
X101467869Y-94339207D01*
X101433891Y-94349515D01*
X101392410Y-94353600D01*
X100791190Y-94353600D01*
X100749709Y-94349515D01*
X100715731Y-94339207D01*
X100684413Y-94322467D01*
X100656961Y-94299939D01*
X100634433Y-94272487D01*
X100617693Y-94241169D01*
X100607385Y-94207191D01*
X100603300Y-94165710D01*
X100603300Y-93489490D01*
X100607385Y-93448009D01*
X100617693Y-93414031D01*
X100634433Y-93382713D01*
X100656961Y-93355261D01*
X100684413Y-93332733D01*
X100715731Y-93315993D01*
X100749709Y-93305685D01*
X100791190Y-93301600D01*
X101392410Y-93301600D01*
X101433891Y-93305685D01*
X101433891Y-93305685D01*
G37*
G36*
X103008891Y-93305685D02*
X103042869Y-93315993D01*
X103074187Y-93332733D01*
X103101639Y-93355261D01*
X103124167Y-93382713D01*
X103140907Y-93414031D01*
X103151215Y-93448009D01*
X103155300Y-93489490D01*
X103155300Y-94165710D01*
X103151215Y-94207191D01*
X103140907Y-94241169D01*
X103124167Y-94272487D01*
X103101639Y-94299939D01*
X103074187Y-94322467D01*
X103042869Y-94339207D01*
X103008891Y-94349515D01*
X102967410Y-94353600D01*
X102366190Y-94353600D01*
X102324709Y-94349515D01*
X102290731Y-94339207D01*
X102259413Y-94322467D01*
X102231961Y-94299939D01*
X102209433Y-94272487D01*
X102192693Y-94241169D01*
X102182385Y-94207191D01*
X102178300Y-94165710D01*
X102178300Y-93489490D01*
X102182385Y-93448009D01*
X102192693Y-93414031D01*
X102209433Y-93382713D01*
X102231961Y-93355261D01*
X102259413Y-93332733D01*
X102290731Y-93315993D01*
X102324709Y-93305685D01*
X102366190Y-93301600D01*
X102967410Y-93301600D01*
X103008891Y-93305685D01*
X103008891Y-93305685D01*
G37*
G36*
X111995443Y-92450519D02*
X112061627Y-92457037D01*
X112174853Y-92491384D01*
X112231467Y-92508557D01*
X112370087Y-92582652D01*
X112387991Y-92592222D01*
X112423729Y-92621552D01*
X112525186Y-92704814D01*
X112608448Y-92806271D01*
X112637778Y-92842009D01*
X112637779Y-92842011D01*
X112721443Y-92998533D01*
X112721443Y-92998534D01*
X112772963Y-93168373D01*
X112790359Y-93345000D01*
X112772963Y-93521627D01*
X112750736Y-93594900D01*
X112721443Y-93691467D01*
X112670066Y-93787585D01*
X112637778Y-93847991D01*
X112608448Y-93883729D01*
X112525186Y-93985186D01*
X112433933Y-94060074D01*
X112387991Y-94097778D01*
X112387989Y-94097779D01*
X112231467Y-94181443D01*
X112174853Y-94198616D01*
X112061627Y-94232963D01*
X111995443Y-94239481D01*
X111929260Y-94246000D01*
X111590740Y-94246000D01*
X111524557Y-94239481D01*
X111458373Y-94232963D01*
X111345147Y-94198616D01*
X111288533Y-94181443D01*
X111132011Y-94097779D01*
X111132009Y-94097778D01*
X111086067Y-94060074D01*
X110994814Y-93985186D01*
X110911552Y-93883729D01*
X110882222Y-93847991D01*
X110849934Y-93787585D01*
X110798557Y-93691467D01*
X110769264Y-93594900D01*
X110747037Y-93521627D01*
X110729641Y-93345000D01*
X110747037Y-93168373D01*
X110798557Y-92998534D01*
X110798557Y-92998533D01*
X110882221Y-92842011D01*
X110882222Y-92842009D01*
X110911552Y-92806271D01*
X110994814Y-92704814D01*
X111096271Y-92621552D01*
X111132009Y-92592222D01*
X111149913Y-92582652D01*
X111288533Y-92508557D01*
X111345147Y-92491384D01*
X111458373Y-92457037D01*
X111524557Y-92450519D01*
X111590740Y-92444000D01*
X111929260Y-92444000D01*
X111995443Y-92450519D01*
X111995443Y-92450519D01*
G37*
G36*
X95487142Y-90658242D02*
X95635102Y-90719530D01*
X95768258Y-90808502D01*
X95881498Y-90921742D01*
X95970470Y-91054898D01*
X96031758Y-91202858D01*
X96063000Y-91359925D01*
X96063000Y-91520075D01*
X96031758Y-91677142D01*
X95970470Y-91825102D01*
X95881498Y-91958258D01*
X95768258Y-92071498D01*
X95635102Y-92160470D01*
X95487142Y-92221758D01*
X95330075Y-92253000D01*
X95169925Y-92253000D01*
X95012858Y-92221758D01*
X94864898Y-92160470D01*
X94731742Y-92071498D01*
X94618502Y-91958258D01*
X94529530Y-91825102D01*
X94468242Y-91677142D01*
X94437000Y-91520075D01*
X94437000Y-91359925D01*
X94468242Y-91202858D01*
X94529530Y-91054898D01*
X94618502Y-90921742D01*
X94731742Y-90808502D01*
X94864898Y-90719530D01*
X95012858Y-90658242D01*
X95169925Y-90627000D01*
X95330075Y-90627000D01*
X95487142Y-90658242D01*
X95487142Y-90658242D01*
G37*
G36*
X115807142Y-90658242D02*
X115955102Y-90719530D01*
X116088258Y-90808502D01*
X116201498Y-90921742D01*
X116290470Y-91054898D01*
X116351758Y-91202858D01*
X116383000Y-91359925D01*
X116383000Y-91520075D01*
X116351758Y-91677142D01*
X116290470Y-91825102D01*
X116201498Y-91958258D01*
X116088258Y-92071498D01*
X115955102Y-92160470D01*
X115807142Y-92221758D01*
X115650075Y-92253000D01*
X115489925Y-92253000D01*
X115332858Y-92221758D01*
X115184898Y-92160470D01*
X115051742Y-92071498D01*
X114938502Y-91958258D01*
X114849530Y-91825102D01*
X114788242Y-91677142D01*
X114757000Y-91520075D01*
X114757000Y-91359925D01*
X114788242Y-91202858D01*
X114849530Y-91054898D01*
X114938502Y-90921742D01*
X115051742Y-90808502D01*
X115184898Y-90719530D01*
X115332858Y-90658242D01*
X115489925Y-90627000D01*
X115650075Y-90627000D01*
X115807142Y-90658242D01*
X115807142Y-90658242D01*
G37*
G36*
X111995443Y-89950519D02*
X112061627Y-89957037D01*
X112174853Y-89991384D01*
X112231467Y-90008557D01*
X112370087Y-90082652D01*
X112387991Y-90092222D01*
X112423729Y-90121552D01*
X112525186Y-90204814D01*
X112608448Y-90306271D01*
X112637778Y-90342009D01*
X112637779Y-90342011D01*
X112721443Y-90498533D01*
X112725617Y-90512293D01*
X112772963Y-90668373D01*
X112790359Y-90845000D01*
X112772963Y-91021627D01*
X112738616Y-91134853D01*
X112721443Y-91191467D01*
X112715354Y-91202858D01*
X112637778Y-91347991D01*
X112618312Y-91371710D01*
X112525186Y-91485186D01*
X112434511Y-91559600D01*
X112387991Y-91597778D01*
X112387989Y-91597779D01*
X112231467Y-91681443D01*
X112174853Y-91698616D01*
X112061627Y-91732963D01*
X111995443Y-91739481D01*
X111929260Y-91746000D01*
X111590740Y-91746000D01*
X111524557Y-91739481D01*
X111458373Y-91732963D01*
X111345147Y-91698616D01*
X111288533Y-91681443D01*
X111132011Y-91597779D01*
X111132009Y-91597778D01*
X111085489Y-91559600D01*
X110994814Y-91485186D01*
X110901688Y-91371710D01*
X110882222Y-91347991D01*
X110804646Y-91202858D01*
X110798557Y-91191467D01*
X110781384Y-91134853D01*
X110747037Y-91021627D01*
X110729641Y-90845000D01*
X110747037Y-90668373D01*
X110794383Y-90512293D01*
X110798557Y-90498533D01*
X110882221Y-90342011D01*
X110882222Y-90342009D01*
X110911552Y-90306271D01*
X110994814Y-90204814D01*
X111096271Y-90121552D01*
X111132009Y-90092222D01*
X111149913Y-90082652D01*
X111288533Y-90008557D01*
X111345147Y-89991384D01*
X111458373Y-89957037D01*
X111524557Y-89950519D01*
X111590740Y-89944000D01*
X111929260Y-89944000D01*
X111995443Y-89950519D01*
X111995443Y-89950519D01*
G37*
G36*
X103262691Y-90511685D02*
X103296669Y-90521993D01*
X103327987Y-90538733D01*
X103355439Y-90561261D01*
X103377967Y-90588713D01*
X103394707Y-90620031D01*
X103405015Y-90654009D01*
X103409100Y-90695490D01*
X103409100Y-91371710D01*
X103405015Y-91413191D01*
X103394707Y-91447169D01*
X103377967Y-91478487D01*
X103355439Y-91505939D01*
X103327987Y-91528467D01*
X103296669Y-91545207D01*
X103262691Y-91555515D01*
X103221210Y-91559600D01*
X102619990Y-91559600D01*
X102578509Y-91555515D01*
X102544531Y-91545207D01*
X102513213Y-91528467D01*
X102485761Y-91505939D01*
X102463233Y-91478487D01*
X102446493Y-91447169D01*
X102436185Y-91413191D01*
X102432100Y-91371710D01*
X102432100Y-90695490D01*
X102436185Y-90654009D01*
X102446493Y-90620031D01*
X102463233Y-90588713D01*
X102485761Y-90561261D01*
X102513213Y-90538733D01*
X102544531Y-90521993D01*
X102578509Y-90511685D01*
X102619990Y-90507600D01*
X103221210Y-90507600D01*
X103262691Y-90511685D01*
X103262691Y-90511685D01*
G37*
G36*
X104837691Y-90511685D02*
X104871669Y-90521993D01*
X104902987Y-90538733D01*
X104930439Y-90561261D01*
X104952967Y-90588713D01*
X104969707Y-90620031D01*
X104980015Y-90654009D01*
X104984100Y-90695490D01*
X104984100Y-91371710D01*
X104980015Y-91413191D01*
X104969707Y-91447169D01*
X104952967Y-91478487D01*
X104930439Y-91505939D01*
X104902987Y-91528467D01*
X104871669Y-91545207D01*
X104837691Y-91555515D01*
X104796210Y-91559600D01*
X104194990Y-91559600D01*
X104153509Y-91555515D01*
X104119531Y-91545207D01*
X104088213Y-91528467D01*
X104060761Y-91505939D01*
X104038233Y-91478487D01*
X104021493Y-91447169D01*
X104011185Y-91413191D01*
X104007100Y-91371710D01*
X104007100Y-90695490D01*
X104011185Y-90654009D01*
X104021493Y-90620031D01*
X104038233Y-90588713D01*
X104060761Y-90561261D01*
X104088213Y-90538733D01*
X104119531Y-90521993D01*
X104153509Y-90511685D01*
X104194990Y-90507600D01*
X104796210Y-90507600D01*
X104837691Y-90511685D01*
X104837691Y-90511685D01*
G37*
G36*
X95487142Y-88118242D02*
X95635102Y-88179530D01*
X95702130Y-88224317D01*
X95768257Y-88268501D01*
X95881499Y-88381743D01*
X95970471Y-88514900D01*
X95973257Y-88521627D01*
X96031758Y-88662858D01*
X96063000Y-88819925D01*
X96063000Y-88980075D01*
X96031758Y-89137142D01*
X95970470Y-89285102D01*
X95881498Y-89418258D01*
X95768258Y-89531498D01*
X95635102Y-89620470D01*
X95487142Y-89681758D01*
X95330075Y-89713000D01*
X95169925Y-89713000D01*
X95012858Y-89681758D01*
X94864898Y-89620470D01*
X94731742Y-89531498D01*
X94618502Y-89418258D01*
X94529530Y-89285102D01*
X94468242Y-89137142D01*
X94437000Y-88980075D01*
X94437000Y-88819925D01*
X94468242Y-88662858D01*
X94526743Y-88521627D01*
X94529529Y-88514900D01*
X94618501Y-88381743D01*
X94731743Y-88268501D01*
X94797870Y-88224317D01*
X94864898Y-88179530D01*
X95012858Y-88118242D01*
X95169925Y-88087000D01*
X95330075Y-88087000D01*
X95487142Y-88118242D01*
X95487142Y-88118242D01*
G37*
G36*
X115807142Y-88118242D02*
X115955102Y-88179530D01*
X116022130Y-88224317D01*
X116088257Y-88268501D01*
X116201499Y-88381743D01*
X116290471Y-88514900D01*
X116293257Y-88521627D01*
X116351758Y-88662858D01*
X116383000Y-88819925D01*
X116383000Y-88980075D01*
X116351758Y-89137142D01*
X116290470Y-89285102D01*
X116201498Y-89418258D01*
X116088258Y-89531498D01*
X115955102Y-89620470D01*
X115807142Y-89681758D01*
X115650075Y-89713000D01*
X115489925Y-89713000D01*
X115332858Y-89681758D01*
X115184898Y-89620470D01*
X115051742Y-89531498D01*
X114938502Y-89418258D01*
X114849530Y-89285102D01*
X114788242Y-89137142D01*
X114757000Y-88980075D01*
X114757000Y-88819925D01*
X114788242Y-88662858D01*
X114846743Y-88521627D01*
X114849529Y-88514900D01*
X114938501Y-88381743D01*
X115051743Y-88268501D01*
X115117870Y-88224317D01*
X115184898Y-88179530D01*
X115332858Y-88118242D01*
X115489925Y-88087000D01*
X115650075Y-88087000D01*
X115807142Y-88118242D01*
X115807142Y-88118242D01*
G37*
G36*
X111995443Y-87450519D02*
X112061627Y-87457037D01*
X112174853Y-87491384D01*
X112231467Y-87508557D01*
X112359326Y-87576900D01*
X112387991Y-87592222D01*
X112411040Y-87611138D01*
X112525186Y-87704814D01*
X112608448Y-87806271D01*
X112637778Y-87842009D01*
X112637779Y-87842011D01*
X112721443Y-87998533D01*
X112721443Y-87998534D01*
X112772963Y-88168373D01*
X112790359Y-88345000D01*
X112772963Y-88521627D01*
X112738616Y-88634853D01*
X112721443Y-88691467D01*
X112652780Y-88819925D01*
X112637778Y-88847991D01*
X112610575Y-88881138D01*
X112525186Y-88985186D01*
X112423729Y-89068448D01*
X112387991Y-89097778D01*
X112387989Y-89097779D01*
X112231467Y-89181443D01*
X112174853Y-89198616D01*
X112061627Y-89232963D01*
X111995442Y-89239482D01*
X111929260Y-89246000D01*
X111590740Y-89246000D01*
X111524558Y-89239482D01*
X111458373Y-89232963D01*
X111345147Y-89198616D01*
X111288533Y-89181443D01*
X111132011Y-89097779D01*
X111132009Y-89097778D01*
X111096271Y-89068448D01*
X110994814Y-88985186D01*
X110909425Y-88881138D01*
X110882222Y-88847991D01*
X110867220Y-88819925D01*
X110798557Y-88691467D01*
X110781384Y-88634853D01*
X110747037Y-88521627D01*
X110729641Y-88345000D01*
X110747037Y-88168373D01*
X110798557Y-87998534D01*
X110798557Y-87998533D01*
X110882221Y-87842011D01*
X110882222Y-87842009D01*
X110911552Y-87806271D01*
X110994814Y-87704814D01*
X111108960Y-87611138D01*
X111132009Y-87592222D01*
X111160674Y-87576900D01*
X111288533Y-87508557D01*
X111345147Y-87491384D01*
X111458373Y-87457037D01*
X111524557Y-87450519D01*
X111590740Y-87444000D01*
X111929260Y-87444000D01*
X111995443Y-87450519D01*
X111995443Y-87450519D01*
G37*
G36*
X103825528Y-88323164D02*
X103846611Y-88329560D01*
X103866042Y-88339946D01*
X103883075Y-88353925D01*
X103897054Y-88370958D01*
X103907440Y-88390389D01*
X103913836Y-88411472D01*
X103916600Y-88439540D01*
X103916600Y-88903260D01*
X103913836Y-88931328D01*
X103907440Y-88952411D01*
X103897054Y-88971842D01*
X103883075Y-88988875D01*
X103866042Y-89002854D01*
X103846611Y-89013240D01*
X103825528Y-89019636D01*
X103797460Y-89022400D01*
X102383740Y-89022400D01*
X102355672Y-89019636D01*
X102334589Y-89013240D01*
X102315158Y-89002854D01*
X102298125Y-88988875D01*
X102284146Y-88971842D01*
X102273760Y-88952411D01*
X102267364Y-88931328D01*
X102264600Y-88903260D01*
X102264600Y-88439540D01*
X102267364Y-88411472D01*
X102273760Y-88390389D01*
X102284146Y-88370958D01*
X102298125Y-88353925D01*
X102315158Y-88339946D01*
X102334589Y-88329560D01*
X102355672Y-88323164D01*
X102383740Y-88320400D01*
X103797460Y-88320400D01*
X103825528Y-88323164D01*
X103825528Y-88323164D01*
G37*
G36*
X109175528Y-88323164D02*
X109196611Y-88329560D01*
X109216042Y-88339946D01*
X109233075Y-88353925D01*
X109247054Y-88370958D01*
X109257440Y-88390389D01*
X109263836Y-88411472D01*
X109266600Y-88439540D01*
X109266600Y-88903260D01*
X109263836Y-88931328D01*
X109257440Y-88952411D01*
X109247054Y-88971842D01*
X109233075Y-88988875D01*
X109216042Y-89002854D01*
X109196611Y-89013240D01*
X109175528Y-89019636D01*
X109147460Y-89022400D01*
X107733740Y-89022400D01*
X107705672Y-89019636D01*
X107684589Y-89013240D01*
X107665158Y-89002854D01*
X107648125Y-88988875D01*
X107634146Y-88971842D01*
X107623760Y-88952411D01*
X107617364Y-88931328D01*
X107614600Y-88903260D01*
X107614600Y-88439540D01*
X107617364Y-88411472D01*
X107623760Y-88390389D01*
X107634146Y-88370958D01*
X107648125Y-88353925D01*
X107665158Y-88339946D01*
X107684589Y-88329560D01*
X107705672Y-88323164D01*
X107733740Y-88320400D01*
X109147460Y-88320400D01*
X109175528Y-88323164D01*
X109175528Y-88323164D01*
G37*
G36*
X103825528Y-87053164D02*
X103846611Y-87059560D01*
X103866042Y-87069946D01*
X103883075Y-87083925D01*
X103897054Y-87100958D01*
X103907440Y-87120389D01*
X103913836Y-87141472D01*
X103916600Y-87169540D01*
X103916600Y-87633260D01*
X103913836Y-87661328D01*
X103907440Y-87682411D01*
X103897054Y-87701842D01*
X103883075Y-87718875D01*
X103866042Y-87732854D01*
X103846611Y-87743240D01*
X103825528Y-87749636D01*
X103797460Y-87752400D01*
X102383740Y-87752400D01*
X102355672Y-87749636D01*
X102334589Y-87743240D01*
X102315158Y-87732854D01*
X102298125Y-87718875D01*
X102284146Y-87701842D01*
X102273760Y-87682411D01*
X102267364Y-87661328D01*
X102264600Y-87633260D01*
X102264600Y-87169540D01*
X102267364Y-87141472D01*
X102273760Y-87120389D01*
X102284146Y-87100958D01*
X102298125Y-87083925D01*
X102315158Y-87069946D01*
X102334589Y-87059560D01*
X102355672Y-87053164D01*
X102383740Y-87050400D01*
X103797460Y-87050400D01*
X103825528Y-87053164D01*
X103825528Y-87053164D01*
G37*
G36*
X109175528Y-87053164D02*
X109196611Y-87059560D01*
X109216042Y-87069946D01*
X109233075Y-87083925D01*
X109247054Y-87100958D01*
X109257440Y-87120389D01*
X109263836Y-87141472D01*
X109266600Y-87169540D01*
X109266600Y-87633260D01*
X109263836Y-87661328D01*
X109257440Y-87682411D01*
X109247054Y-87701842D01*
X109233075Y-87718875D01*
X109216042Y-87732854D01*
X109196611Y-87743240D01*
X109175528Y-87749636D01*
X109147460Y-87752400D01*
X107733740Y-87752400D01*
X107705672Y-87749636D01*
X107684589Y-87743240D01*
X107665158Y-87732854D01*
X107648125Y-87718875D01*
X107634146Y-87701842D01*
X107623760Y-87682411D01*
X107617364Y-87661328D01*
X107614600Y-87633260D01*
X107614600Y-87169540D01*
X107617364Y-87141472D01*
X107623760Y-87120389D01*
X107634146Y-87100958D01*
X107648125Y-87083925D01*
X107665158Y-87069946D01*
X107684589Y-87059560D01*
X107705672Y-87053164D01*
X107733740Y-87050400D01*
X109147460Y-87050400D01*
X109175528Y-87053164D01*
X109175528Y-87053164D01*
G37*
G36*
X95487142Y-85578242D02*
X95635102Y-85639530D01*
X95768258Y-85728502D01*
X95881498Y-85841742D01*
X95970470Y-85974898D01*
X96031758Y-86122858D01*
X96063000Y-86279925D01*
X96063000Y-86440075D01*
X96031758Y-86597142D01*
X95984354Y-86711583D01*
X95971751Y-86742011D01*
X95970470Y-86745102D01*
X95881498Y-86878258D01*
X95768258Y-86991498D01*
X95635102Y-87080470D01*
X95487142Y-87141758D01*
X95330075Y-87173000D01*
X95169925Y-87173000D01*
X95012858Y-87141758D01*
X94864898Y-87080470D01*
X94731742Y-86991498D01*
X94618502Y-86878258D01*
X94529530Y-86745102D01*
X94528250Y-86742011D01*
X94515646Y-86711583D01*
X94468242Y-86597142D01*
X94437000Y-86440075D01*
X94437000Y-86279925D01*
X94468242Y-86122858D01*
X94529530Y-85974898D01*
X94618502Y-85841742D01*
X94731742Y-85728502D01*
X94864898Y-85639530D01*
X95012858Y-85578242D01*
X95169925Y-85547000D01*
X95330075Y-85547000D01*
X95487142Y-85578242D01*
X95487142Y-85578242D01*
G37*
G36*
X115807142Y-85578242D02*
X115955102Y-85639530D01*
X116088258Y-85728502D01*
X116201498Y-85841742D01*
X116290470Y-85974898D01*
X116351758Y-86122858D01*
X116383000Y-86279925D01*
X116383000Y-86440075D01*
X116351758Y-86597142D01*
X116304354Y-86711583D01*
X116291751Y-86742011D01*
X116290470Y-86745102D01*
X116201498Y-86878258D01*
X116088258Y-86991498D01*
X115955102Y-87080470D01*
X115807142Y-87141758D01*
X115650075Y-87173000D01*
X115489925Y-87173000D01*
X115332858Y-87141758D01*
X115184898Y-87080470D01*
X115051742Y-86991498D01*
X114938502Y-86878258D01*
X114849530Y-86745102D01*
X114848250Y-86742011D01*
X114835646Y-86711583D01*
X114788242Y-86597142D01*
X114757000Y-86440075D01*
X114757000Y-86279925D01*
X114788242Y-86122858D01*
X114849530Y-85974898D01*
X114938502Y-85841742D01*
X115051742Y-85728502D01*
X115184898Y-85639530D01*
X115332858Y-85578242D01*
X115489925Y-85547000D01*
X115650075Y-85547000D01*
X115807142Y-85578242D01*
X115807142Y-85578242D01*
G37*
G36*
X112643600Y-84947989D02*
X112676649Y-84958014D01*
X112707106Y-84974294D01*
X112733799Y-84996201D01*
X112755706Y-85022894D01*
X112771986Y-85053351D01*
X112782011Y-85086400D01*
X112786000Y-85126904D01*
X112786000Y-86563096D01*
X112782011Y-86603600D01*
X112771986Y-86636649D01*
X112755706Y-86667106D01*
X112733799Y-86693799D01*
X112707106Y-86715706D01*
X112676649Y-86731986D01*
X112643600Y-86742011D01*
X112603096Y-86746000D01*
X110916904Y-86746000D01*
X110876400Y-86742011D01*
X110843351Y-86731986D01*
X110812894Y-86715706D01*
X110786201Y-86693799D01*
X110764294Y-86667106D01*
X110748014Y-86636649D01*
X110737989Y-86603600D01*
X110734000Y-86563096D01*
X110734000Y-85126904D01*
X110737989Y-85086400D01*
X110748014Y-85053351D01*
X110764294Y-85022894D01*
X110786201Y-84996201D01*
X110812894Y-84974294D01*
X110843351Y-84958014D01*
X110876400Y-84947989D01*
X110916904Y-84944000D01*
X112603096Y-84944000D01*
X112643600Y-84947989D01*
X112643600Y-84947989D01*
G37*
G36*
X103825528Y-85783164D02*
X103846611Y-85789560D01*
X103866042Y-85799946D01*
X103883075Y-85813925D01*
X103897054Y-85830958D01*
X103907440Y-85850389D01*
X103913836Y-85871472D01*
X103916600Y-85899540D01*
X103916600Y-86363260D01*
X103913836Y-86391328D01*
X103907440Y-86412411D01*
X103897054Y-86431842D01*
X103883075Y-86448875D01*
X103866042Y-86462854D01*
X103846611Y-86473240D01*
X103825528Y-86479636D01*
X103797460Y-86482400D01*
X102383740Y-86482400D01*
X102355672Y-86479636D01*
X102334589Y-86473240D01*
X102315158Y-86462854D01*
X102298125Y-86448875D01*
X102284146Y-86431842D01*
X102273760Y-86412411D01*
X102267364Y-86391328D01*
X102264600Y-86363260D01*
X102264600Y-85899540D01*
X102267364Y-85871472D01*
X102273760Y-85850389D01*
X102284146Y-85830958D01*
X102298125Y-85813925D01*
X102315158Y-85799946D01*
X102334589Y-85789560D01*
X102355672Y-85783164D01*
X102383740Y-85780400D01*
X103797460Y-85780400D01*
X103825528Y-85783164D01*
X103825528Y-85783164D01*
G37*
G36*
X109175528Y-85783164D02*
X109196611Y-85789560D01*
X109216042Y-85799946D01*
X109233075Y-85813925D01*
X109247054Y-85830958D01*
X109257440Y-85850389D01*
X109263836Y-85871472D01*
X109266600Y-85899540D01*
X109266600Y-86363260D01*
X109263836Y-86391328D01*
X109257440Y-86412411D01*
X109247054Y-86431842D01*
X109233075Y-86448875D01*
X109216042Y-86462854D01*
X109196611Y-86473240D01*
X109175528Y-86479636D01*
X109147460Y-86482400D01*
X107733740Y-86482400D01*
X107705672Y-86479636D01*
X107684589Y-86473240D01*
X107665158Y-86462854D01*
X107648125Y-86448875D01*
X107634146Y-86431842D01*
X107623760Y-86412411D01*
X107617364Y-86391328D01*
X107614600Y-86363260D01*
X107614600Y-85899540D01*
X107617364Y-85871472D01*
X107623760Y-85850389D01*
X107634146Y-85830958D01*
X107648125Y-85813925D01*
X107665158Y-85799946D01*
X107684589Y-85789560D01*
X107705672Y-85783164D01*
X107733740Y-85780400D01*
X109147460Y-85780400D01*
X109175528Y-85783164D01*
X109175528Y-85783164D01*
G37*
G36*
X103825528Y-84513164D02*
X103846611Y-84519560D01*
X103866042Y-84529946D01*
X103883075Y-84543925D01*
X103897054Y-84560958D01*
X103907440Y-84580389D01*
X103913836Y-84601472D01*
X103916600Y-84629540D01*
X103916600Y-85093260D01*
X103913836Y-85121328D01*
X103907440Y-85142411D01*
X103897054Y-85161842D01*
X103883075Y-85178875D01*
X103866042Y-85192854D01*
X103846611Y-85203240D01*
X103825528Y-85209636D01*
X103797460Y-85212400D01*
X102383740Y-85212400D01*
X102355672Y-85209636D01*
X102334589Y-85203240D01*
X102315158Y-85192854D01*
X102298125Y-85178875D01*
X102284146Y-85161842D01*
X102273760Y-85142411D01*
X102267364Y-85121328D01*
X102264600Y-85093260D01*
X102264600Y-84629540D01*
X102267364Y-84601472D01*
X102273760Y-84580389D01*
X102284146Y-84560958D01*
X102298125Y-84543925D01*
X102315158Y-84529946D01*
X102334589Y-84519560D01*
X102355672Y-84513164D01*
X102383740Y-84510400D01*
X103797460Y-84510400D01*
X103825528Y-84513164D01*
X103825528Y-84513164D01*
G37*
G36*
X109175528Y-84513164D02*
X109196611Y-84519560D01*
X109216042Y-84529946D01*
X109233075Y-84543925D01*
X109247054Y-84560958D01*
X109257440Y-84580389D01*
X109263836Y-84601472D01*
X109266600Y-84629540D01*
X109266600Y-85093260D01*
X109263836Y-85121328D01*
X109257440Y-85142411D01*
X109247054Y-85161842D01*
X109233075Y-85178875D01*
X109216042Y-85192854D01*
X109196611Y-85203240D01*
X109175528Y-85209636D01*
X109147460Y-85212400D01*
X107733740Y-85212400D01*
X107705672Y-85209636D01*
X107684589Y-85203240D01*
X107665158Y-85192854D01*
X107648125Y-85178875D01*
X107634146Y-85161842D01*
X107623760Y-85142411D01*
X107617364Y-85121328D01*
X107614600Y-85093260D01*
X107614600Y-84629540D01*
X107617364Y-84601472D01*
X107623760Y-84580389D01*
X107634146Y-84560958D01*
X107648125Y-84543925D01*
X107665158Y-84529946D01*
X107684589Y-84519560D01*
X107705672Y-84513164D01*
X107733740Y-84510400D01*
X109147460Y-84510400D01*
X109175528Y-84513164D01*
X109175528Y-84513164D01*
G37*
G36*
X115807142Y-83038242D02*
X115955102Y-83099530D01*
X116088258Y-83188502D01*
X116201498Y-83301742D01*
X116290470Y-83434898D01*
X116351758Y-83582858D01*
X116383000Y-83739925D01*
X116383000Y-83900075D01*
X116351758Y-84057142D01*
X116290470Y-84205102D01*
X116201498Y-84338258D01*
X116088258Y-84451498D01*
X115955102Y-84540470D01*
X115807142Y-84601758D01*
X115650075Y-84633000D01*
X115489925Y-84633000D01*
X115332858Y-84601758D01*
X115184898Y-84540470D01*
X115051742Y-84451498D01*
X114938502Y-84338258D01*
X114849530Y-84205102D01*
X114788242Y-84057142D01*
X114757000Y-83900075D01*
X114757000Y-83739925D01*
X114788242Y-83582858D01*
X114849530Y-83434898D01*
X114938502Y-83301742D01*
X115051742Y-83188502D01*
X115184898Y-83099530D01*
X115332858Y-83038242D01*
X115489925Y-83007000D01*
X115650075Y-83007000D01*
X115807142Y-83038242D01*
X115807142Y-83038242D01*
G37*
G36*
X95487142Y-83038242D02*
X95635102Y-83099530D01*
X95768258Y-83188502D01*
X95881498Y-83301742D01*
X95970470Y-83434898D01*
X96031758Y-83582858D01*
X96063000Y-83739925D01*
X96063000Y-83900075D01*
X96031758Y-84057142D01*
X95970470Y-84205102D01*
X95881498Y-84338258D01*
X95768258Y-84451498D01*
X95635102Y-84540470D01*
X95487142Y-84601758D01*
X95330075Y-84633000D01*
X95169925Y-84633000D01*
X95012858Y-84601758D01*
X94864898Y-84540470D01*
X94731742Y-84451498D01*
X94618502Y-84338258D01*
X94529530Y-84205102D01*
X94468242Y-84057142D01*
X94437000Y-83900075D01*
X94437000Y-83739925D01*
X94468242Y-83582858D01*
X94529530Y-83434898D01*
X94618502Y-83301742D01*
X94731742Y-83188502D01*
X94864898Y-83099530D01*
X95012858Y-83038242D01*
X95169925Y-83007000D01*
X95330075Y-83007000D01*
X95487142Y-83038242D01*
X95487142Y-83038242D01*
G37*
G36*
X95487142Y-80498242D02*
X95635102Y-80559530D01*
X95768258Y-80648502D01*
X95881498Y-80761742D01*
X95970470Y-80894898D01*
X96031758Y-81042858D01*
X96063000Y-81199925D01*
X96063000Y-81360075D01*
X96031758Y-81517142D01*
X95970470Y-81665102D01*
X95881498Y-81798258D01*
X95768258Y-81911498D01*
X95635102Y-82000470D01*
X95487142Y-82061758D01*
X95330075Y-82093000D01*
X95169925Y-82093000D01*
X95012858Y-82061758D01*
X94864898Y-82000470D01*
X94731742Y-81911498D01*
X94618502Y-81798258D01*
X94529530Y-81665102D01*
X94468242Y-81517142D01*
X94437000Y-81360075D01*
X94437000Y-81199925D01*
X94468242Y-81042858D01*
X94529530Y-80894898D01*
X94618502Y-80761742D01*
X94731742Y-80648502D01*
X94864898Y-80559530D01*
X95012858Y-80498242D01*
X95169925Y-80467000D01*
X95330075Y-80467000D01*
X95487142Y-80498242D01*
X95487142Y-80498242D01*
G37*
G36*
X115807142Y-80498242D02*
X115955102Y-80559530D01*
X116088258Y-80648502D01*
X116201498Y-80761742D01*
X116290470Y-80894898D01*
X116351758Y-81042858D01*
X116383000Y-81199925D01*
X116383000Y-81360075D01*
X116351758Y-81517142D01*
X116290470Y-81665102D01*
X116201498Y-81798258D01*
X116088258Y-81911498D01*
X115955102Y-82000470D01*
X115807142Y-82061758D01*
X115650075Y-82093000D01*
X115489925Y-82093000D01*
X115332858Y-82061758D01*
X115184898Y-82000470D01*
X115051742Y-81911498D01*
X114938502Y-81798258D01*
X114849530Y-81665102D01*
X114788242Y-81517142D01*
X114757000Y-81360075D01*
X114757000Y-81199925D01*
X114788242Y-81042858D01*
X114849530Y-80894898D01*
X114938502Y-80761742D01*
X115051742Y-80648502D01*
X115184898Y-80559530D01*
X115332858Y-80498242D01*
X115489925Y-80467000D01*
X115650075Y-80467000D01*
X115807142Y-80498242D01*
X115807142Y-80498242D01*
G37*
G36*
X100799191Y-80402485D02*
X100833169Y-80412793D01*
X100864487Y-80429533D01*
X100891939Y-80452061D01*
X100914467Y-80479513D01*
X100931207Y-80510831D01*
X100941515Y-80544809D01*
X100945600Y-80586290D01*
X100945600Y-81262510D01*
X100941515Y-81303991D01*
X100931207Y-81337969D01*
X100914467Y-81369287D01*
X100891939Y-81396739D01*
X100864487Y-81419267D01*
X100833169Y-81436007D01*
X100799191Y-81446315D01*
X100757710Y-81450400D01*
X100156490Y-81450400D01*
X100115009Y-81446315D01*
X100081031Y-81436007D01*
X100049713Y-81419267D01*
X100022261Y-81396739D01*
X99999733Y-81369287D01*
X99982993Y-81337969D01*
X99972685Y-81303991D01*
X99968600Y-81262510D01*
X99968600Y-80586290D01*
X99972685Y-80544809D01*
X99982993Y-80510831D01*
X99999733Y-80479513D01*
X100022261Y-80452061D01*
X100049713Y-80429533D01*
X100081031Y-80412793D01*
X100115009Y-80402485D01*
X100156490Y-80398400D01*
X100757710Y-80398400D01*
X100799191Y-80402485D01*
X100799191Y-80402485D01*
G37*
G36*
X99224191Y-80402485D02*
X99258169Y-80412793D01*
X99289487Y-80429533D01*
X99316939Y-80452061D01*
X99339467Y-80479513D01*
X99356207Y-80510831D01*
X99366515Y-80544809D01*
X99370600Y-80586290D01*
X99370600Y-81262510D01*
X99366515Y-81303991D01*
X99356207Y-81337969D01*
X99339467Y-81369287D01*
X99316939Y-81396739D01*
X99289487Y-81419267D01*
X99258169Y-81436007D01*
X99224191Y-81446315D01*
X99182710Y-81450400D01*
X98581490Y-81450400D01*
X98540009Y-81446315D01*
X98506031Y-81436007D01*
X98474713Y-81419267D01*
X98447261Y-81396739D01*
X98424733Y-81369287D01*
X98407993Y-81337969D01*
X98397685Y-81303991D01*
X98393600Y-81262510D01*
X98393600Y-80586290D01*
X98397685Y-80544809D01*
X98407993Y-80510831D01*
X98424733Y-80479513D01*
X98447261Y-80452061D01*
X98474713Y-80429533D01*
X98506031Y-80412793D01*
X98540009Y-80402485D01*
X98581490Y-80398400D01*
X99182710Y-80398400D01*
X99224191Y-80402485D01*
X99224191Y-80402485D01*
G37*
G36*
X112020443Y-78440519D02*
X112086627Y-78447037D01*
X112178110Y-78474788D01*
X112256467Y-78498557D01*
X112352512Y-78549895D01*
X112412991Y-78582222D01*
X112422935Y-78590383D01*
X112550186Y-78694814D01*
X112633448Y-78796271D01*
X112662778Y-78832009D01*
X112662779Y-78832011D01*
X112746443Y-78988533D01*
X112746443Y-78988534D01*
X112797963Y-79158373D01*
X112815359Y-79335000D01*
X112797963Y-79511627D01*
X112763616Y-79624853D01*
X112746443Y-79681467D01*
X112730443Y-79711400D01*
X112662778Y-79837991D01*
X112637367Y-79868954D01*
X112550186Y-79975186D01*
X112448729Y-80058448D01*
X112412991Y-80087778D01*
X112412989Y-80087779D01*
X112256467Y-80171443D01*
X112199853Y-80188616D01*
X112086627Y-80222963D01*
X112020442Y-80229482D01*
X111954260Y-80236000D01*
X111565740Y-80236000D01*
X111499558Y-80229482D01*
X111433373Y-80222963D01*
X111320147Y-80188616D01*
X111263533Y-80171443D01*
X111107011Y-80087779D01*
X111107009Y-80087778D01*
X111071271Y-80058448D01*
X110969814Y-79975186D01*
X110882633Y-79868954D01*
X110857222Y-79837991D01*
X110789557Y-79711400D01*
X110773557Y-79681467D01*
X110756384Y-79624853D01*
X110722037Y-79511627D01*
X110704641Y-79335000D01*
X110722037Y-79158373D01*
X110773557Y-78988534D01*
X110773557Y-78988533D01*
X110857221Y-78832011D01*
X110857222Y-78832009D01*
X110886552Y-78796271D01*
X110969814Y-78694814D01*
X111097065Y-78590383D01*
X111107009Y-78582222D01*
X111167488Y-78549895D01*
X111263533Y-78498557D01*
X111341890Y-78474788D01*
X111433373Y-78447037D01*
X111499557Y-78440519D01*
X111565740Y-78434000D01*
X111954260Y-78434000D01*
X112020443Y-78440519D01*
X112020443Y-78440519D01*
G37*
G36*
X102610600Y-78386400D02*
X102613002Y-78410786D01*
X102620115Y-78434235D01*
X102631666Y-78455846D01*
X102647212Y-78474788D01*
X102666154Y-78490334D01*
X102687765Y-78501885D01*
X102711214Y-78508998D01*
X102735600Y-78511400D01*
X103683600Y-78511400D01*
X103707986Y-78508998D01*
X103731435Y-78501885D01*
X103753046Y-78490334D01*
X103771988Y-78474788D01*
X103787534Y-78455846D01*
X103799085Y-78434235D01*
X103806198Y-78410786D01*
X103808600Y-78386400D01*
X103808600Y-78211400D01*
X104610600Y-78211400D01*
X104610600Y-80113400D01*
X103808600Y-80113400D01*
X103808600Y-79938400D01*
X103806198Y-79914014D01*
X103799085Y-79890565D01*
X103787534Y-79868954D01*
X103771988Y-79850012D01*
X103753046Y-79834466D01*
X103731435Y-79822915D01*
X103707986Y-79815802D01*
X103683600Y-79813400D01*
X102735600Y-79813400D01*
X102711214Y-79815802D01*
X102687765Y-79822915D01*
X102666154Y-79834466D01*
X102647212Y-79850012D01*
X102631666Y-79868954D01*
X102620115Y-79890565D01*
X102613002Y-79914014D01*
X102610600Y-79938400D01*
X102610600Y-80113400D01*
X101808600Y-80113400D01*
X101808600Y-78211400D01*
X102610600Y-78211400D01*
X102610600Y-78386400D01*
X102610600Y-78386400D01*
G37*
G36*
X109398066Y-78533965D02*
X109436737Y-78545696D01*
X109472379Y-78564748D01*
X109503617Y-78590383D01*
X109529252Y-78621621D01*
X109548304Y-78657263D01*
X109560035Y-78695934D01*
X109564600Y-78742288D01*
X109564600Y-79393512D01*
X109560035Y-79439866D01*
X109548304Y-79478537D01*
X109529252Y-79514179D01*
X109503617Y-79545417D01*
X109472379Y-79571052D01*
X109436737Y-79590104D01*
X109398066Y-79601835D01*
X109351712Y-79606400D01*
X108275488Y-79606400D01*
X108229134Y-79601835D01*
X108190463Y-79590104D01*
X108154821Y-79571052D01*
X108123583Y-79545417D01*
X108097948Y-79514179D01*
X108078896Y-79478537D01*
X108067165Y-79439866D01*
X108062600Y-79393512D01*
X108062600Y-78742288D01*
X108067165Y-78695934D01*
X108078896Y-78657263D01*
X108097948Y-78621621D01*
X108123583Y-78590383D01*
X108154821Y-78564748D01*
X108190463Y-78545696D01*
X108229134Y-78533965D01*
X108275488Y-78529400D01*
X109351712Y-78529400D01*
X109398066Y-78533965D01*
X109398066Y-78533965D01*
G37*
G36*
X95487142Y-77958242D02*
X95635102Y-78019530D01*
X95768258Y-78108502D01*
X95881498Y-78221742D01*
X95970470Y-78354898D01*
X96031758Y-78502858D01*
X96063000Y-78659925D01*
X96063000Y-78820075D01*
X96031758Y-78977142D01*
X95970470Y-79125102D01*
X95881498Y-79258258D01*
X95768258Y-79371498D01*
X95635102Y-79460470D01*
X95487142Y-79521758D01*
X95330075Y-79553000D01*
X95169925Y-79553000D01*
X95012858Y-79521758D01*
X94864898Y-79460470D01*
X94731742Y-79371498D01*
X94618502Y-79258258D01*
X94529530Y-79125102D01*
X94468242Y-78977142D01*
X94437000Y-78820075D01*
X94437000Y-78659925D01*
X94468242Y-78502858D01*
X94529530Y-78354898D01*
X94618502Y-78221742D01*
X94731742Y-78108502D01*
X94864898Y-78019530D01*
X95012858Y-77958242D01*
X95169925Y-77927000D01*
X95330075Y-77927000D01*
X95487142Y-77958242D01*
X95487142Y-77958242D01*
G37*
G36*
X115807142Y-77958242D02*
X115955102Y-78019530D01*
X116088258Y-78108502D01*
X116201498Y-78221742D01*
X116290470Y-78354898D01*
X116351758Y-78502858D01*
X116383000Y-78659925D01*
X116383000Y-78820075D01*
X116351758Y-78977142D01*
X116290470Y-79125102D01*
X116201498Y-79258258D01*
X116088258Y-79371498D01*
X115955102Y-79460470D01*
X115807142Y-79521758D01*
X115650075Y-79553000D01*
X115489925Y-79553000D01*
X115332858Y-79521758D01*
X115184898Y-79460470D01*
X115051742Y-79371498D01*
X114938502Y-79258258D01*
X114849530Y-79125102D01*
X114788242Y-78977142D01*
X114757000Y-78820075D01*
X114757000Y-78659925D01*
X114788242Y-78502858D01*
X114849530Y-78354898D01*
X114938502Y-78221742D01*
X115051742Y-78108502D01*
X115184898Y-78019530D01*
X115332858Y-77958242D01*
X115489925Y-77927000D01*
X115650075Y-77927000D01*
X115807142Y-77958242D01*
X115807142Y-77958242D01*
G37*
G36*
X99326000Y-77736000D02*
X97524000Y-77736000D01*
X97524000Y-75934000D01*
X99326000Y-75934000D01*
X99326000Y-77736000D01*
X99326000Y-77736000D01*
G37*
G36*
X112668600Y-75937989D02*
X112701649Y-75948014D01*
X112732106Y-75964294D01*
X112758799Y-75986201D01*
X112780706Y-76012894D01*
X112796986Y-76043351D01*
X112807011Y-76076400D01*
X112811000Y-76116904D01*
X112811000Y-77553096D01*
X112807011Y-77593600D01*
X112796986Y-77626649D01*
X112780706Y-77657106D01*
X112758799Y-77683799D01*
X112732106Y-77705706D01*
X112701649Y-77721986D01*
X112668600Y-77732011D01*
X112628096Y-77736000D01*
X110891904Y-77736000D01*
X110851400Y-77732011D01*
X110818351Y-77721986D01*
X110787894Y-77705706D01*
X110761201Y-77683799D01*
X110739294Y-77657106D01*
X110723014Y-77626649D01*
X110712989Y-77593600D01*
X110709000Y-77553096D01*
X110709000Y-76116904D01*
X110712989Y-76076400D01*
X110723014Y-76043351D01*
X110739294Y-76012894D01*
X110761201Y-75986201D01*
X110787894Y-75964294D01*
X110818351Y-75948014D01*
X110851400Y-75937989D01*
X110891904Y-75934000D01*
X112628096Y-75934000D01*
X112668600Y-75937989D01*
X112668600Y-75937989D01*
G37*
G36*
X109398066Y-76658965D02*
X109436737Y-76670696D01*
X109472379Y-76689748D01*
X109503617Y-76715383D01*
X109529252Y-76746621D01*
X109548304Y-76782263D01*
X109560035Y-76820934D01*
X109564600Y-76867288D01*
X109564600Y-77518512D01*
X109560035Y-77564866D01*
X109548304Y-77603537D01*
X109529252Y-77639179D01*
X109503617Y-77670417D01*
X109472379Y-77696052D01*
X109436737Y-77715104D01*
X109398066Y-77726835D01*
X109351712Y-77731400D01*
X108275488Y-77731400D01*
X108229134Y-77726835D01*
X108190463Y-77715104D01*
X108154821Y-77696052D01*
X108123583Y-77670417D01*
X108097948Y-77639179D01*
X108078896Y-77603537D01*
X108067165Y-77564866D01*
X108062600Y-77518512D01*
X108062600Y-76867288D01*
X108067165Y-76820934D01*
X108078896Y-76782263D01*
X108097948Y-76746621D01*
X108123583Y-76715383D01*
X108154821Y-76689748D01*
X108190463Y-76670696D01*
X108229134Y-76658965D01*
X108275488Y-76654400D01*
X109351712Y-76654400D01*
X109398066Y-76658965D01*
X109398066Y-76658965D01*
G37*
G36*
X95487142Y-75418242D02*
X95635102Y-75479530D01*
X95768258Y-75568502D01*
X95881498Y-75681742D01*
X95970470Y-75814898D01*
X96031758Y-75962858D01*
X96063000Y-76119925D01*
X96063000Y-76280075D01*
X96031758Y-76437142D01*
X95984354Y-76551583D01*
X95970471Y-76585100D01*
X95881499Y-76718257D01*
X95768257Y-76831499D01*
X95702130Y-76875683D01*
X95635102Y-76920470D01*
X95487142Y-76981758D01*
X95330075Y-77013000D01*
X95169925Y-77013000D01*
X95012858Y-76981758D01*
X94864898Y-76920470D01*
X94797870Y-76875683D01*
X94731743Y-76831499D01*
X94618501Y-76718257D01*
X94529529Y-76585100D01*
X94515646Y-76551583D01*
X94468242Y-76437142D01*
X94437000Y-76280075D01*
X94437000Y-76119925D01*
X94468242Y-75962858D01*
X94529530Y-75814898D01*
X94618502Y-75681742D01*
X94731742Y-75568502D01*
X94864898Y-75479530D01*
X95012858Y-75418242D01*
X95169925Y-75387000D01*
X95330075Y-75387000D01*
X95487142Y-75418242D01*
X95487142Y-75418242D01*
G37*
G36*
X115807142Y-75418242D02*
X115955102Y-75479530D01*
X116088258Y-75568502D01*
X116201498Y-75681742D01*
X116290470Y-75814898D01*
X116351758Y-75962858D01*
X116383000Y-76119925D01*
X116383000Y-76280075D01*
X116351758Y-76437142D01*
X116304354Y-76551583D01*
X116290471Y-76585100D01*
X116201499Y-76718257D01*
X116088257Y-76831499D01*
X116022130Y-76875683D01*
X115955102Y-76920470D01*
X115807142Y-76981758D01*
X115650075Y-77013000D01*
X115489925Y-77013000D01*
X115332858Y-76981758D01*
X115184898Y-76920470D01*
X115117870Y-76875683D01*
X115051743Y-76831499D01*
X114938501Y-76718257D01*
X114849529Y-76585100D01*
X114835646Y-76551583D01*
X114788242Y-76437142D01*
X114757000Y-76280075D01*
X114757000Y-76119925D01*
X114788242Y-75962858D01*
X114849530Y-75814898D01*
X114938502Y-75681742D01*
X115051742Y-75568502D01*
X115184898Y-75479530D01*
X115332858Y-75418242D01*
X115489925Y-75387000D01*
X115650075Y-75387000D01*
X115807142Y-75418242D01*
X115807142Y-75418242D01*
G37*
G36*
X98535443Y-73400519D02*
X98601627Y-73407037D01*
X98714853Y-73441384D01*
X98771467Y-73458557D01*
X98910087Y-73532652D01*
X98927991Y-73542222D01*
X98963729Y-73571552D01*
X99065186Y-73654814D01*
X99135156Y-73740074D01*
X99177778Y-73792009D01*
X99177779Y-73792011D01*
X99261443Y-73948533D01*
X99261443Y-73948534D01*
X99312963Y-74118373D01*
X99330359Y-74295000D01*
X99312963Y-74471627D01*
X99278616Y-74584853D01*
X99261443Y-74641467D01*
X99187348Y-74780087D01*
X99177778Y-74797991D01*
X99148448Y-74833729D01*
X99065186Y-74935186D01*
X98963729Y-75018448D01*
X98927991Y-75047778D01*
X98927989Y-75047779D01*
X98771467Y-75131443D01*
X98714853Y-75148616D01*
X98601627Y-75182963D01*
X98535442Y-75189482D01*
X98469260Y-75196000D01*
X98380740Y-75196000D01*
X98314558Y-75189482D01*
X98248373Y-75182963D01*
X98135147Y-75148616D01*
X98078533Y-75131443D01*
X97922011Y-75047779D01*
X97922009Y-75047778D01*
X97886271Y-75018448D01*
X97784814Y-74935186D01*
X97701552Y-74833729D01*
X97672222Y-74797991D01*
X97662652Y-74780087D01*
X97588557Y-74641467D01*
X97571384Y-74584853D01*
X97537037Y-74471627D01*
X97519641Y-74295000D01*
X97537037Y-74118373D01*
X97588557Y-73948534D01*
X97588557Y-73948533D01*
X97672221Y-73792011D01*
X97672222Y-73792009D01*
X97714844Y-73740074D01*
X97784814Y-73654814D01*
X97886271Y-73571552D01*
X97922009Y-73542222D01*
X97939913Y-73532652D01*
X98078533Y-73458557D01*
X98135147Y-73441384D01*
X98248373Y-73407037D01*
X98314557Y-73400519D01*
X98380740Y-73394000D01*
X98469260Y-73394000D01*
X98535443Y-73400519D01*
X98535443Y-73400519D01*
G37*
G36*
X115807142Y-72878242D02*
X115955102Y-72939530D01*
X116088258Y-73028502D01*
X116201498Y-73141742D01*
X116290470Y-73274898D01*
X116351758Y-73422858D01*
X116383000Y-73579925D01*
X116383000Y-73740075D01*
X116351758Y-73897142D01*
X116290470Y-74045102D01*
X116201498Y-74178258D01*
X116088258Y-74291498D01*
X115955102Y-74380470D01*
X115807142Y-74441758D01*
X115650075Y-74473000D01*
X115489925Y-74473000D01*
X115332858Y-74441758D01*
X115184898Y-74380470D01*
X115051742Y-74291498D01*
X114938502Y-74178258D01*
X114849530Y-74045102D01*
X114788242Y-73897142D01*
X114757000Y-73740075D01*
X114757000Y-73579925D01*
X114788242Y-73422858D01*
X114849530Y-73274898D01*
X114938502Y-73141742D01*
X115051742Y-73028502D01*
X115184898Y-72939530D01*
X115332858Y-72878242D01*
X115489925Y-72847000D01*
X115650075Y-72847000D01*
X115807142Y-72878242D01*
X115807142Y-72878242D01*
G37*
G36*
X95487142Y-72878242D02*
X95635102Y-72939530D01*
X95768258Y-73028502D01*
X95881498Y-73141742D01*
X95970470Y-73274898D01*
X96031758Y-73422858D01*
X96063000Y-73579925D01*
X96063000Y-73740075D01*
X96031758Y-73897142D01*
X95970470Y-74045102D01*
X95881498Y-74178258D01*
X95768258Y-74291498D01*
X95635102Y-74380470D01*
X95487142Y-74441758D01*
X95330075Y-74473000D01*
X95169925Y-74473000D01*
X95012858Y-74441758D01*
X94864898Y-74380470D01*
X94731742Y-74291498D01*
X94618502Y-74178258D01*
X94529530Y-74045102D01*
X94468242Y-73897142D01*
X94437000Y-73740075D01*
X94437000Y-73579925D01*
X94468242Y-73422858D01*
X94529530Y-73274898D01*
X94618502Y-73141742D01*
X94731742Y-73028502D01*
X94864898Y-72939530D01*
X95012858Y-72878242D01*
X95169925Y-72847000D01*
X95330075Y-72847000D01*
X95487142Y-72878242D01*
X95487142Y-72878242D01*
G37*
G36*
X102535366Y-71745165D02*
X102574037Y-71756896D01*
X102609679Y-71775948D01*
X102640917Y-71801583D01*
X102666552Y-71832821D01*
X102685604Y-71868463D01*
X102697335Y-71907134D01*
X102701900Y-71953488D01*
X102701900Y-73029712D01*
X102697335Y-73076066D01*
X102685604Y-73114737D01*
X102666552Y-73150379D01*
X102640917Y-73181617D01*
X102609679Y-73207252D01*
X102574037Y-73226304D01*
X102535366Y-73238035D01*
X102489012Y-73242600D01*
X101837788Y-73242600D01*
X101791434Y-73238035D01*
X101752763Y-73226304D01*
X101717121Y-73207252D01*
X101685883Y-73181617D01*
X101660248Y-73150379D01*
X101641196Y-73114737D01*
X101629465Y-73076066D01*
X101624900Y-73029712D01*
X101624900Y-71953488D01*
X101629465Y-71907134D01*
X101641196Y-71868463D01*
X101660248Y-71832821D01*
X101685883Y-71801583D01*
X101717121Y-71775948D01*
X101752763Y-71756896D01*
X101791434Y-71745165D01*
X101837788Y-71740600D01*
X102489012Y-71740600D01*
X102535366Y-71745165D01*
X102535366Y-71745165D01*
G37*
G36*
X104410366Y-71745165D02*
X104449037Y-71756896D01*
X104484679Y-71775948D01*
X104515917Y-71801583D01*
X104541552Y-71832821D01*
X104560604Y-71868463D01*
X104572335Y-71907134D01*
X104576900Y-71953488D01*
X104576900Y-73029712D01*
X104572335Y-73076066D01*
X104560604Y-73114737D01*
X104541552Y-73150379D01*
X104515917Y-73181617D01*
X104484679Y-73207252D01*
X104449037Y-73226304D01*
X104410366Y-73238035D01*
X104364012Y-73242600D01*
X103712788Y-73242600D01*
X103666434Y-73238035D01*
X103627763Y-73226304D01*
X103592121Y-73207252D01*
X103560883Y-73181617D01*
X103535248Y-73150379D01*
X103516196Y-73114737D01*
X103504465Y-73076066D01*
X103499900Y-73029712D01*
X103499900Y-71953488D01*
X103504465Y-71907134D01*
X103516196Y-71868463D01*
X103535248Y-71832821D01*
X103560883Y-71801583D01*
X103592121Y-71775948D01*
X103627763Y-71756896D01*
X103666434Y-71745165D01*
X103712788Y-71740600D01*
X104364012Y-71740600D01*
X104410366Y-71745165D01*
X104410366Y-71745165D01*
G37*
G36*
X111734866Y-70636865D02*
X111773537Y-70648596D01*
X111809179Y-70667648D01*
X111840417Y-70693283D01*
X111866052Y-70724521D01*
X111885104Y-70760163D01*
X111896835Y-70798834D01*
X111901400Y-70845188D01*
X111901400Y-71496412D01*
X111896835Y-71542766D01*
X111885104Y-71581437D01*
X111866052Y-71617079D01*
X111840417Y-71648317D01*
X111809179Y-71673952D01*
X111773537Y-71693004D01*
X111734866Y-71704735D01*
X111688512Y-71709300D01*
X110612288Y-71709300D01*
X110565934Y-71704735D01*
X110527263Y-71693004D01*
X110491621Y-71673952D01*
X110460383Y-71648317D01*
X110434748Y-71617079D01*
X110415696Y-71581437D01*
X110403965Y-71542766D01*
X110399400Y-71496412D01*
X110399400Y-70845188D01*
X110403965Y-70798834D01*
X110415696Y-70760163D01*
X110434748Y-70724521D01*
X110460383Y-70693283D01*
X110491621Y-70667648D01*
X110527263Y-70648596D01*
X110565934Y-70636865D01*
X110612288Y-70632300D01*
X111688512Y-70632300D01*
X111734866Y-70636865D01*
X111734866Y-70636865D01*
G37*
G36*
X108128066Y-70581465D02*
X108166737Y-70593196D01*
X108202379Y-70612248D01*
X108233617Y-70637883D01*
X108259252Y-70669121D01*
X108278304Y-70704763D01*
X108290035Y-70743434D01*
X108294600Y-70789788D01*
X108294600Y-71441012D01*
X108290035Y-71487366D01*
X108278304Y-71526037D01*
X108259252Y-71561679D01*
X108233617Y-71592917D01*
X108202379Y-71618552D01*
X108166737Y-71637604D01*
X108128066Y-71649335D01*
X108081712Y-71653900D01*
X107005488Y-71653900D01*
X106959134Y-71649335D01*
X106920463Y-71637604D01*
X106884821Y-71618552D01*
X106853583Y-71592917D01*
X106827948Y-71561679D01*
X106808896Y-71526037D01*
X106797165Y-71487366D01*
X106792600Y-71441012D01*
X106792600Y-70789788D01*
X106797165Y-70743434D01*
X106808896Y-70704763D01*
X106827948Y-70669121D01*
X106853583Y-70637883D01*
X106884821Y-70612248D01*
X106920463Y-70593196D01*
X106959134Y-70581465D01*
X107005488Y-70576900D01*
X108081712Y-70576900D01*
X108128066Y-70581465D01*
X108128066Y-70581465D01*
G37*
G36*
X104951000Y-70026000D02*
X103329000Y-70026000D01*
X103329000Y-68404000D01*
X104951000Y-68404000D01*
X104951000Y-70026000D01*
X104951000Y-70026000D01*
G37*
G36*
X101836560Y-68435166D02*
X101984153Y-68496301D01*
X102115213Y-68583873D01*
X102116985Y-68585057D01*
X102229943Y-68698015D01*
X102229945Y-68698018D01*
X102317975Y-68829763D01*
X102318700Y-68830849D01*
X102379834Y-68978440D01*
X102411000Y-69135122D01*
X102411000Y-69294878D01*
X102379834Y-69451560D01*
X102332427Y-69566012D01*
X102318699Y-69599153D01*
X102303826Y-69621412D01*
X102229943Y-69731985D01*
X102116985Y-69844943D01*
X102116982Y-69844945D01*
X101984153Y-69933699D01*
X101984152Y-69933700D01*
X101984151Y-69933700D01*
X101836560Y-69994834D01*
X101679878Y-70026000D01*
X101520122Y-70026000D01*
X101363440Y-69994834D01*
X101215849Y-69933700D01*
X101215848Y-69933700D01*
X101215847Y-69933699D01*
X101083018Y-69844945D01*
X101083015Y-69844943D01*
X100970057Y-69731985D01*
X100896174Y-69621412D01*
X100881301Y-69599153D01*
X100867574Y-69566012D01*
X100820166Y-69451560D01*
X100789000Y-69294878D01*
X100789000Y-69135122D01*
X100820166Y-68978440D01*
X100881300Y-68830849D01*
X100882026Y-68829763D01*
X100970055Y-68698018D01*
X100970057Y-68698015D01*
X101083015Y-68585057D01*
X101084787Y-68583873D01*
X101215847Y-68496301D01*
X101363440Y-68435166D01*
X101520122Y-68404000D01*
X101679878Y-68404000D01*
X101836560Y-68435166D01*
X101836560Y-68435166D01*
G37*
G36*
X99296560Y-68435166D02*
X99444153Y-68496301D01*
X99575213Y-68583873D01*
X99576985Y-68585057D01*
X99689943Y-68698015D01*
X99689945Y-68698018D01*
X99777975Y-68829763D01*
X99778700Y-68830849D01*
X99839834Y-68978440D01*
X99871000Y-69135122D01*
X99871000Y-69294878D01*
X99839834Y-69451560D01*
X99792427Y-69566012D01*
X99778699Y-69599153D01*
X99763826Y-69621412D01*
X99689943Y-69731985D01*
X99576985Y-69844943D01*
X99576982Y-69844945D01*
X99444153Y-69933699D01*
X99444152Y-69933700D01*
X99444151Y-69933700D01*
X99296560Y-69994834D01*
X99139878Y-70026000D01*
X98980122Y-70026000D01*
X98823440Y-69994834D01*
X98675849Y-69933700D01*
X98675848Y-69933700D01*
X98675847Y-69933699D01*
X98543018Y-69844945D01*
X98543015Y-69844943D01*
X98430057Y-69731985D01*
X98356174Y-69621412D01*
X98341301Y-69599153D01*
X98327574Y-69566012D01*
X98280166Y-69451560D01*
X98249000Y-69294878D01*
X98249000Y-69135122D01*
X98280166Y-68978440D01*
X98341300Y-68830849D01*
X98342026Y-68829763D01*
X98430055Y-68698018D01*
X98430057Y-68698015D01*
X98543015Y-68585057D01*
X98544787Y-68583873D01*
X98675847Y-68496301D01*
X98823440Y-68435166D01*
X98980122Y-68404000D01*
X99139878Y-68404000D01*
X99296560Y-68435166D01*
X99296560Y-68435166D01*
G37*
G36*
X111734866Y-68761865D02*
X111773537Y-68773596D01*
X111809179Y-68792648D01*
X111840417Y-68818283D01*
X111866052Y-68849521D01*
X111885104Y-68885163D01*
X111896835Y-68923834D01*
X111901400Y-68970188D01*
X111901400Y-69621412D01*
X111896835Y-69667766D01*
X111885104Y-69706437D01*
X111866052Y-69742079D01*
X111840417Y-69773317D01*
X111809179Y-69798952D01*
X111773537Y-69818004D01*
X111734866Y-69829735D01*
X111688512Y-69834300D01*
X110612288Y-69834300D01*
X110565934Y-69829735D01*
X110527263Y-69818004D01*
X110491621Y-69798952D01*
X110460383Y-69773317D01*
X110434748Y-69742079D01*
X110415696Y-69706437D01*
X110403965Y-69667766D01*
X110399400Y-69621412D01*
X110399400Y-68970188D01*
X110403965Y-68923834D01*
X110415696Y-68885163D01*
X110434748Y-68849521D01*
X110460383Y-68818283D01*
X110491621Y-68792648D01*
X110527263Y-68773596D01*
X110565934Y-68761865D01*
X110612288Y-68757300D01*
X111688512Y-68757300D01*
X111734866Y-68761865D01*
X111734866Y-68761865D01*
G37*
G36*
X108128066Y-68706465D02*
X108166737Y-68718196D01*
X108202379Y-68737248D01*
X108233617Y-68762883D01*
X108259252Y-68794121D01*
X108278304Y-68829763D01*
X108290035Y-68868434D01*
X108294600Y-68914788D01*
X108294600Y-69566012D01*
X108290035Y-69612366D01*
X108278304Y-69651037D01*
X108259252Y-69686679D01*
X108233617Y-69717917D01*
X108202379Y-69743552D01*
X108166737Y-69762604D01*
X108128066Y-69774335D01*
X108081712Y-69778900D01*
X107005488Y-69778900D01*
X106959134Y-69774335D01*
X106920463Y-69762604D01*
X106884821Y-69743552D01*
X106853583Y-69717917D01*
X106827948Y-69686679D01*
X106808896Y-69651037D01*
X106797165Y-69612366D01*
X106792600Y-69566012D01*
X106792600Y-68914788D01*
X106797165Y-68868434D01*
X106808896Y-68829763D01*
X106827948Y-68794121D01*
X106853583Y-68762883D01*
X106884821Y-68737248D01*
X106920463Y-68718196D01*
X106959134Y-68706465D01*
X107005488Y-68701900D01*
X108081712Y-68701900D01*
X108128066Y-68706465D01*
X108128066Y-68706465D01*
G37*
G36*
X98026560Y-65895166D02*
X98174153Y-65956301D01*
X98305213Y-66043873D01*
X98306985Y-66045057D01*
X98419943Y-66158015D01*
X98508700Y-66290849D01*
X98569834Y-66438440D01*
X98601000Y-66595122D01*
X98601000Y-66754878D01*
X98569834Y-66911560D01*
X98508700Y-67059151D01*
X98419943Y-67191985D01*
X98306985Y-67304943D01*
X98306982Y-67304945D01*
X98174153Y-67393699D01*
X98174152Y-67393700D01*
X98174151Y-67393700D01*
X98026560Y-67454834D01*
X97869878Y-67486000D01*
X97710122Y-67486000D01*
X97553440Y-67454834D01*
X97405849Y-67393700D01*
X97405848Y-67393700D01*
X97405847Y-67393699D01*
X97273018Y-67304945D01*
X97273015Y-67304943D01*
X97160057Y-67191985D01*
X97071300Y-67059151D01*
X97010166Y-66911560D01*
X96979000Y-66754878D01*
X96979000Y-66595122D01*
X97010166Y-66438440D01*
X97071300Y-66290849D01*
X97160057Y-66158015D01*
X97273015Y-66045057D01*
X97274787Y-66043873D01*
X97405847Y-65956301D01*
X97553440Y-65895166D01*
X97710122Y-65864000D01*
X97869878Y-65864000D01*
X98026560Y-65895166D01*
X98026560Y-65895166D01*
G37*
G36*
X103106560Y-65895166D02*
X103254153Y-65956301D01*
X103385213Y-66043873D01*
X103386985Y-66045057D01*
X103499943Y-66158015D01*
X103588700Y-66290849D01*
X103649834Y-66438440D01*
X103681000Y-66595122D01*
X103681000Y-66754878D01*
X103649834Y-66911560D01*
X103588700Y-67059151D01*
X103499943Y-67191985D01*
X103386985Y-67304943D01*
X103386982Y-67304945D01*
X103254153Y-67393699D01*
X103254152Y-67393700D01*
X103254151Y-67393700D01*
X103106560Y-67454834D01*
X102949878Y-67486000D01*
X102790122Y-67486000D01*
X102633440Y-67454834D01*
X102485849Y-67393700D01*
X102485848Y-67393700D01*
X102485847Y-67393699D01*
X102353018Y-67304945D01*
X102353015Y-67304943D01*
X102240057Y-67191985D01*
X102151300Y-67059151D01*
X102090166Y-66911560D01*
X102059000Y-66754878D01*
X102059000Y-66595122D01*
X102090166Y-66438440D01*
X102151300Y-66290849D01*
X102240057Y-66158015D01*
X102353015Y-66045057D01*
X102354787Y-66043873D01*
X102485847Y-65956301D01*
X102633440Y-65895166D01*
X102790122Y-65864000D01*
X102949878Y-65864000D01*
X103106560Y-65895166D01*
X103106560Y-65895166D01*
G37*
G36*
X100566560Y-65895166D02*
X100714153Y-65956301D01*
X100845213Y-66043873D01*
X100846985Y-66045057D01*
X100959943Y-66158015D01*
X101048700Y-66290849D01*
X101109834Y-66438440D01*
X101141000Y-66595122D01*
X101141000Y-66754878D01*
X101109834Y-66911560D01*
X101048700Y-67059151D01*
X100959943Y-67191985D01*
X100846985Y-67304943D01*
X100846982Y-67304945D01*
X100714153Y-67393699D01*
X100714152Y-67393700D01*
X100714151Y-67393700D01*
X100566560Y-67454834D01*
X100409878Y-67486000D01*
X100250122Y-67486000D01*
X100093440Y-67454834D01*
X99945849Y-67393700D01*
X99945848Y-67393700D01*
X99945847Y-67393699D01*
X99813018Y-67304945D01*
X99813015Y-67304943D01*
X99700057Y-67191985D01*
X99611300Y-67059151D01*
X99550166Y-66911560D01*
X99519000Y-66754878D01*
X99519000Y-66595122D01*
X99550166Y-66438440D01*
X99611300Y-66290849D01*
X99700057Y-66158015D01*
X99813015Y-66045057D01*
X99814787Y-66043873D01*
X99945847Y-65956301D01*
X100093440Y-65895166D01*
X100250122Y-65864000D01*
X100409878Y-65864000D01*
X100566560Y-65895166D01*
X100566560Y-65895166D01*
G37*
G36*
X113708000Y-67037000D02*
X112156000Y-67037000D01*
X112156000Y-64535000D01*
X113708000Y-64535000D01*
X113708000Y-67037000D01*
X113708000Y-67037000D01*
G37*
G36*
X107808000Y-67037000D02*
X106256000Y-67037000D01*
X106256000Y-64535000D01*
X107808000Y-64535000D01*
X107808000Y-67037000D01*
X107808000Y-67037000D01*
G37*
G36*
X102094591Y-62470085D02*
X102128569Y-62480393D01*
X102159887Y-62497133D01*
X102187339Y-62519661D01*
X102209867Y-62547113D01*
X102226607Y-62578431D01*
X102236915Y-62612409D01*
X102241000Y-62653890D01*
X102241000Y-63330110D01*
X102236915Y-63371591D01*
X102226607Y-63405569D01*
X102209867Y-63436887D01*
X102187339Y-63464339D01*
X102159887Y-63486867D01*
X102128569Y-63503607D01*
X102094591Y-63513915D01*
X102053110Y-63518000D01*
X101451890Y-63518000D01*
X101410409Y-63513915D01*
X101376431Y-63503607D01*
X101345113Y-63486867D01*
X101317661Y-63464339D01*
X101295133Y-63436887D01*
X101278393Y-63405569D01*
X101268085Y-63371591D01*
X101264000Y-63330110D01*
X101264000Y-62653890D01*
X101268085Y-62612409D01*
X101278393Y-62578431D01*
X101295133Y-62547113D01*
X101317661Y-62519661D01*
X101345113Y-62497133D01*
X101376431Y-62480393D01*
X101410409Y-62470085D01*
X101451890Y-62466000D01*
X102053110Y-62466000D01*
X102094591Y-62470085D01*
X102094591Y-62470085D01*
G37*
G36*
X100519591Y-62470085D02*
X100553569Y-62480393D01*
X100584887Y-62497133D01*
X100612339Y-62519661D01*
X100634867Y-62547113D01*
X100651607Y-62578431D01*
X100661915Y-62612409D01*
X100666000Y-62653890D01*
X100666000Y-63330110D01*
X100661915Y-63371591D01*
X100651607Y-63405569D01*
X100634867Y-63436887D01*
X100612339Y-63464339D01*
X100584887Y-63486867D01*
X100553569Y-63503607D01*
X100519591Y-63513915D01*
X100478110Y-63518000D01*
X99876890Y-63518000D01*
X99835409Y-63513915D01*
X99801431Y-63503607D01*
X99770113Y-63486867D01*
X99742661Y-63464339D01*
X99720133Y-63436887D01*
X99703393Y-63405569D01*
X99693085Y-63371591D01*
X99689000Y-63330110D01*
X99689000Y-62653890D01*
X99693085Y-62612409D01*
X99703393Y-62578431D01*
X99720133Y-62547113D01*
X99742661Y-62519661D01*
X99770113Y-62497133D01*
X99801431Y-62480393D01*
X99835409Y-62470085D01*
X99876890Y-62466000D01*
X100478110Y-62466000D01*
X100519591Y-62470085D01*
X100519591Y-62470085D01*
G37*
G36*
X96378871Y-58713408D02*
X96683883Y-58839748D01*
X96956538Y-59021930D01*
X96958390Y-59023168D01*
X97191832Y-59256610D01*
X97191834Y-59256613D01*
X97375252Y-59531117D01*
X97501592Y-59836129D01*
X97566000Y-60159928D01*
X97566000Y-60490072D01*
X97501592Y-60813871D01*
X97375252Y-61118883D01*
X97193070Y-61391538D01*
X97191832Y-61393390D01*
X96958390Y-61626832D01*
X96958387Y-61626834D01*
X96683883Y-61810252D01*
X96378871Y-61936592D01*
X96055072Y-62001000D01*
X95724928Y-62001000D01*
X95401129Y-61936592D01*
X95096117Y-61810252D01*
X94821613Y-61626834D01*
X94821610Y-61626832D01*
X94588168Y-61393390D01*
X94586930Y-61391538D01*
X94404748Y-61118883D01*
X94278408Y-60813871D01*
X94214000Y-60490072D01*
X94214000Y-60159928D01*
X94278408Y-59836129D01*
X94404748Y-59531117D01*
X94588166Y-59256613D01*
X94588168Y-59256610D01*
X94821610Y-59023168D01*
X94823462Y-59021930D01*
X95096117Y-58839748D01*
X95401129Y-58713408D01*
X95724928Y-58649000D01*
X96055072Y-58649000D01*
X96378871Y-58713408D01*
X96378871Y-58713408D01*
G37*
G36*
X106538871Y-58713408D02*
X106843883Y-58839748D01*
X107116538Y-59021930D01*
X107118390Y-59023168D01*
X107351832Y-59256610D01*
X107351834Y-59256613D01*
X107535252Y-59531117D01*
X107661592Y-59836129D01*
X107726000Y-60159928D01*
X107726000Y-60490072D01*
X107661592Y-60813871D01*
X107535252Y-61118883D01*
X107353070Y-61391538D01*
X107351832Y-61393390D01*
X107118390Y-61626832D01*
X107118387Y-61626834D01*
X106843883Y-61810252D01*
X106538871Y-61936592D01*
X106215072Y-62001000D01*
X105884928Y-62001000D01*
X105561129Y-61936592D01*
X105256117Y-61810252D01*
X104981613Y-61626834D01*
X104981610Y-61626832D01*
X104748168Y-61393390D01*
X104746930Y-61391538D01*
X104564748Y-61118883D01*
X104438408Y-60813871D01*
X104374000Y-60490072D01*
X104374000Y-60159928D01*
X104438408Y-59836129D01*
X104564748Y-59531117D01*
X104748166Y-59256613D01*
X104748168Y-59256610D01*
X104981610Y-59023168D01*
X104983462Y-59021930D01*
X105256117Y-58839748D01*
X105561129Y-58713408D01*
X105884928Y-58649000D01*
X106215072Y-58649000D01*
X106538871Y-58713408D01*
X106538871Y-58713408D01*
G37*
G36*
X107149900Y-57581800D02*
X105498900Y-57581800D01*
X105498900Y-56108600D01*
X107149900Y-56108600D01*
X107149900Y-57581800D01*
X107149900Y-57581800D01*
G37*
G36*
X107302300Y-54991000D02*
X105651300Y-54991000D01*
X105651300Y-53517800D01*
X107302300Y-53517800D01*
X107302300Y-54991000D01*
X107302300Y-54991000D01*
G37*
M02*
