G04 #@! TF.GenerationSoftware,KiCad,Pcbnew,(5.0.1)-rc2*
G04 #@! TF.CreationDate,2019-05-10T17:03:12-07:00*
G04 #@! TF.ProjectId,weatherStation,7765617468657253746174696F6E2E6B,rev?*
G04 #@! TF.SameCoordinates,Original*
G04 #@! TF.FileFunction,Soldermask,Bot*
G04 #@! TF.FilePolarity,Negative*
%FSLAX46Y46*%
G04 Gerber Fmt 4.6, Leading zero omitted, Abs format (unit mm)*
G04 Created by KiCad (PCBNEW (5.0.1)-rc2) date 5/10/2019 5:03:12 PM*
%MOMM*%
%LPD*%
G01*
G04 APERTURE LIST*
%ADD10C,0.100000*%
G04 APERTURE END LIST*
D10*
G36*
X115807142Y-105898242D02*
X115913658Y-105942363D01*
X115945132Y-105955400D01*
X115955102Y-105959530D01*
X116088258Y-106048502D01*
X116201498Y-106161742D01*
X116290470Y-106294898D01*
X116351758Y-106442858D01*
X116383000Y-106599925D01*
X116383000Y-106760075D01*
X116351758Y-106917142D01*
X116290470Y-107065102D01*
X116201498Y-107198258D01*
X116088258Y-107311498D01*
X115955102Y-107400470D01*
X115807142Y-107461758D01*
X115650075Y-107493000D01*
X115489925Y-107493000D01*
X115332858Y-107461758D01*
X115184898Y-107400470D01*
X115051742Y-107311498D01*
X114938502Y-107198258D01*
X114849530Y-107065102D01*
X114788242Y-106917142D01*
X114757000Y-106760075D01*
X114757000Y-106599925D01*
X114788242Y-106442858D01*
X114849530Y-106294898D01*
X114938502Y-106161742D01*
X115051742Y-106048502D01*
X115184898Y-105959530D01*
X115194869Y-105955400D01*
X115226342Y-105942363D01*
X115332858Y-105898242D01*
X115489925Y-105867000D01*
X115650075Y-105867000D01*
X115807142Y-105898242D01*
X115807142Y-105898242D01*
G37*
G36*
X95487142Y-105898242D02*
X95593658Y-105942363D01*
X95625132Y-105955400D01*
X95635102Y-105959530D01*
X95768258Y-106048502D01*
X95881498Y-106161742D01*
X95970470Y-106294898D01*
X96031758Y-106442858D01*
X96063000Y-106599925D01*
X96063000Y-106760075D01*
X96031758Y-106917142D01*
X95970470Y-107065102D01*
X95881498Y-107198258D01*
X95768258Y-107311498D01*
X95635102Y-107400470D01*
X95487142Y-107461758D01*
X95330075Y-107493000D01*
X95169925Y-107493000D01*
X95012858Y-107461758D01*
X94864898Y-107400470D01*
X94731742Y-107311498D01*
X94618502Y-107198258D01*
X94529530Y-107065102D01*
X94468242Y-106917142D01*
X94437000Y-106760075D01*
X94437000Y-106599925D01*
X94468242Y-106442858D01*
X94529530Y-106294898D01*
X94618502Y-106161742D01*
X94731742Y-106048502D01*
X94864898Y-105959530D01*
X94874869Y-105955400D01*
X94906342Y-105942363D01*
X95012858Y-105898242D01*
X95169925Y-105867000D01*
X95330075Y-105867000D01*
X95487142Y-105898242D01*
X95487142Y-105898242D01*
G37*
G36*
X112378443Y-104159919D02*
X112444627Y-104166437D01*
X112557853Y-104200784D01*
X112614467Y-104217957D01*
X112753087Y-104292052D01*
X112770991Y-104301622D01*
X112806729Y-104330952D01*
X112908186Y-104414214D01*
X112991448Y-104515671D01*
X113020778Y-104551409D01*
X113020779Y-104551411D01*
X113104443Y-104707933D01*
X113104443Y-104707934D01*
X113155963Y-104877773D01*
X113173359Y-105054400D01*
X113155963Y-105231027D01*
X113121616Y-105344253D01*
X113104443Y-105400867D01*
X113030348Y-105539487D01*
X113020778Y-105557391D01*
X112991448Y-105593129D01*
X112908186Y-105694586D01*
X112806729Y-105777848D01*
X112770991Y-105807178D01*
X112770989Y-105807179D01*
X112614467Y-105890843D01*
X112557853Y-105908016D01*
X112444627Y-105942363D01*
X112378443Y-105948881D01*
X112312260Y-105955400D01*
X112223740Y-105955400D01*
X112157557Y-105948881D01*
X112091373Y-105942363D01*
X111978147Y-105908016D01*
X111921533Y-105890843D01*
X111765011Y-105807179D01*
X111765009Y-105807178D01*
X111729271Y-105777848D01*
X111627814Y-105694586D01*
X111544552Y-105593129D01*
X111515222Y-105557391D01*
X111505652Y-105539487D01*
X111431557Y-105400867D01*
X111414384Y-105344253D01*
X111380037Y-105231027D01*
X111362641Y-105054400D01*
X111380037Y-104877773D01*
X111431557Y-104707934D01*
X111431557Y-104707933D01*
X111515221Y-104551411D01*
X111515222Y-104551409D01*
X111544552Y-104515671D01*
X111627814Y-104414214D01*
X111729271Y-104330952D01*
X111765009Y-104301622D01*
X111782913Y-104292052D01*
X111921533Y-104217957D01*
X111978147Y-104200784D01*
X112091373Y-104166437D01*
X112157557Y-104159919D01*
X112223740Y-104153400D01*
X112312260Y-104153400D01*
X112378443Y-104159919D01*
X112378443Y-104159919D01*
G37*
G36*
X109838443Y-104159919D02*
X109904627Y-104166437D01*
X110017853Y-104200784D01*
X110074467Y-104217957D01*
X110213087Y-104292052D01*
X110230991Y-104301622D01*
X110266729Y-104330952D01*
X110368186Y-104414214D01*
X110451448Y-104515671D01*
X110480778Y-104551409D01*
X110480779Y-104551411D01*
X110564443Y-104707933D01*
X110564443Y-104707934D01*
X110615963Y-104877773D01*
X110633359Y-105054400D01*
X110615963Y-105231027D01*
X110581616Y-105344253D01*
X110564443Y-105400867D01*
X110490348Y-105539487D01*
X110480778Y-105557391D01*
X110451448Y-105593129D01*
X110368186Y-105694586D01*
X110266729Y-105777848D01*
X110230991Y-105807178D01*
X110230989Y-105807179D01*
X110074467Y-105890843D01*
X110017853Y-105908016D01*
X109904627Y-105942363D01*
X109838443Y-105948881D01*
X109772260Y-105955400D01*
X109683740Y-105955400D01*
X109617557Y-105948881D01*
X109551373Y-105942363D01*
X109438147Y-105908016D01*
X109381533Y-105890843D01*
X109225011Y-105807179D01*
X109225009Y-105807178D01*
X109189271Y-105777848D01*
X109087814Y-105694586D01*
X109004552Y-105593129D01*
X108975222Y-105557391D01*
X108965652Y-105539487D01*
X108891557Y-105400867D01*
X108874384Y-105344253D01*
X108840037Y-105231027D01*
X108822641Y-105054400D01*
X108840037Y-104877773D01*
X108891557Y-104707934D01*
X108891557Y-104707933D01*
X108975221Y-104551411D01*
X108975222Y-104551409D01*
X109004552Y-104515671D01*
X109087814Y-104414214D01*
X109189271Y-104330952D01*
X109225009Y-104301622D01*
X109242913Y-104292052D01*
X109381533Y-104217957D01*
X109438147Y-104200784D01*
X109551373Y-104166437D01*
X109617557Y-104159919D01*
X109683740Y-104153400D01*
X109772260Y-104153400D01*
X109838443Y-104159919D01*
X109838443Y-104159919D01*
G37*
G36*
X108089000Y-105955400D02*
X106287000Y-105955400D01*
X106287000Y-104153400D01*
X108089000Y-104153400D01*
X108089000Y-105955400D01*
X108089000Y-105955400D01*
G37*
G36*
X115807142Y-103358242D02*
X115955102Y-103419530D01*
X116088258Y-103508502D01*
X116201498Y-103621742D01*
X116290470Y-103754898D01*
X116351758Y-103902858D01*
X116383000Y-104059925D01*
X116383000Y-104220075D01*
X116351758Y-104377142D01*
X116290470Y-104525102D01*
X116201498Y-104658258D01*
X116088258Y-104771498D01*
X115955102Y-104860470D01*
X115807142Y-104921758D01*
X115650075Y-104953000D01*
X115489925Y-104953000D01*
X115332858Y-104921758D01*
X115184898Y-104860470D01*
X115051742Y-104771498D01*
X114938502Y-104658258D01*
X114849530Y-104525102D01*
X114788242Y-104377142D01*
X114757000Y-104220075D01*
X114757000Y-104059925D01*
X114788242Y-103902858D01*
X114849530Y-103754898D01*
X114938502Y-103621742D01*
X115051742Y-103508502D01*
X115184898Y-103419530D01*
X115332858Y-103358242D01*
X115489925Y-103327000D01*
X115650075Y-103327000D01*
X115807142Y-103358242D01*
X115807142Y-103358242D01*
G37*
G36*
X95487142Y-103358242D02*
X95635102Y-103419530D01*
X95768258Y-103508502D01*
X95881498Y-103621742D01*
X95970470Y-103754898D01*
X96031758Y-103902858D01*
X96063000Y-104059925D01*
X96063000Y-104220075D01*
X96031758Y-104377142D01*
X95970470Y-104525102D01*
X95881498Y-104658258D01*
X95768258Y-104771498D01*
X95635102Y-104860470D01*
X95487142Y-104921758D01*
X95330075Y-104953000D01*
X95169925Y-104953000D01*
X95012858Y-104921758D01*
X94864898Y-104860470D01*
X94731742Y-104771498D01*
X94618502Y-104658258D01*
X94529530Y-104525102D01*
X94468242Y-104377142D01*
X94437000Y-104220075D01*
X94437000Y-104059925D01*
X94468242Y-103902858D01*
X94529530Y-103754898D01*
X94618502Y-103621742D01*
X94731742Y-103508502D01*
X94864898Y-103419530D01*
X95012858Y-103358242D01*
X95169925Y-103327000D01*
X95330075Y-103327000D01*
X95487142Y-103358242D01*
X95487142Y-103358242D01*
G37*
G36*
X95487142Y-100818242D02*
X95635102Y-100879530D01*
X95768258Y-100968502D01*
X95881498Y-101081742D01*
X95970470Y-101214898D01*
X96031758Y-101362858D01*
X96063000Y-101519925D01*
X96063000Y-101680075D01*
X96031758Y-101837142D01*
X95970470Y-101985102D01*
X95881498Y-102118258D01*
X95768258Y-102231498D01*
X95635102Y-102320470D01*
X95487142Y-102381758D01*
X95330075Y-102413000D01*
X95169925Y-102413000D01*
X95012858Y-102381758D01*
X94864898Y-102320470D01*
X94731742Y-102231498D01*
X94618502Y-102118258D01*
X94529530Y-101985102D01*
X94468242Y-101837142D01*
X94437000Y-101680075D01*
X94437000Y-101519925D01*
X94468242Y-101362858D01*
X94529530Y-101214898D01*
X94618502Y-101081742D01*
X94731742Y-100968502D01*
X94864898Y-100879530D01*
X95012858Y-100818242D01*
X95169925Y-100787000D01*
X95330075Y-100787000D01*
X95487142Y-100818242D01*
X95487142Y-100818242D01*
G37*
G36*
X115807142Y-100818242D02*
X115955102Y-100879530D01*
X116088258Y-100968502D01*
X116201498Y-101081742D01*
X116290470Y-101214898D01*
X116351758Y-101362858D01*
X116383000Y-101519925D01*
X116383000Y-101680075D01*
X116351758Y-101837142D01*
X116290470Y-101985102D01*
X116201498Y-102118258D01*
X116088258Y-102231498D01*
X115955102Y-102320470D01*
X115807142Y-102381758D01*
X115650075Y-102413000D01*
X115489925Y-102413000D01*
X115332858Y-102381758D01*
X115184898Y-102320470D01*
X115051742Y-102231498D01*
X114938502Y-102118258D01*
X114849530Y-101985102D01*
X114788242Y-101837142D01*
X114757000Y-101680075D01*
X114757000Y-101519925D01*
X114788242Y-101362858D01*
X114849530Y-101214898D01*
X114938502Y-101081742D01*
X115051742Y-100968502D01*
X115184898Y-100879530D01*
X115332858Y-100818242D01*
X115489925Y-100787000D01*
X115650075Y-100787000D01*
X115807142Y-100818242D01*
X115807142Y-100818242D01*
G37*
G36*
X95487142Y-98278242D02*
X95635102Y-98339530D01*
X95768258Y-98428502D01*
X95881498Y-98541742D01*
X95970470Y-98674898D01*
X96031758Y-98822858D01*
X96063000Y-98979925D01*
X96063000Y-99140075D01*
X96031758Y-99297142D01*
X95970470Y-99445102D01*
X95881498Y-99578258D01*
X95768258Y-99691498D01*
X95635102Y-99780470D01*
X95487142Y-99841758D01*
X95330075Y-99873000D01*
X95169925Y-99873000D01*
X95012858Y-99841758D01*
X94864898Y-99780470D01*
X94731742Y-99691498D01*
X94618502Y-99578258D01*
X94529530Y-99445102D01*
X94468242Y-99297142D01*
X94437000Y-99140075D01*
X94437000Y-98979925D01*
X94468242Y-98822858D01*
X94529530Y-98674898D01*
X94618502Y-98541742D01*
X94731742Y-98428502D01*
X94864898Y-98339530D01*
X95012858Y-98278242D01*
X95169925Y-98247000D01*
X95330075Y-98247000D01*
X95487142Y-98278242D01*
X95487142Y-98278242D01*
G37*
G36*
X115807142Y-98278242D02*
X115955102Y-98339530D01*
X116088258Y-98428502D01*
X116201498Y-98541742D01*
X116290470Y-98674898D01*
X116351758Y-98822858D01*
X116383000Y-98979925D01*
X116383000Y-99140075D01*
X116351758Y-99297142D01*
X116290470Y-99445102D01*
X116201498Y-99578258D01*
X116088258Y-99691498D01*
X115955102Y-99780470D01*
X115807142Y-99841758D01*
X115650075Y-99873000D01*
X115489925Y-99873000D01*
X115332858Y-99841758D01*
X115184898Y-99780470D01*
X115051742Y-99691498D01*
X114938502Y-99578258D01*
X114849530Y-99445102D01*
X114788242Y-99297142D01*
X114757000Y-99140075D01*
X114757000Y-98979925D01*
X114788242Y-98822858D01*
X114849530Y-98674898D01*
X114938502Y-98541742D01*
X115051742Y-98428502D01*
X115184898Y-98339530D01*
X115332858Y-98278242D01*
X115489925Y-98247000D01*
X115650075Y-98247000D01*
X115807142Y-98278242D01*
X115807142Y-98278242D01*
G37*
G36*
X95487142Y-95738242D02*
X95635102Y-95799530D01*
X95702130Y-95844317D01*
X95768257Y-95888501D01*
X95881499Y-96001743D01*
X95912998Y-96048885D01*
X95970470Y-96134898D01*
X96031758Y-96282858D01*
X96063000Y-96439925D01*
X96063000Y-96600075D01*
X96031758Y-96757142D01*
X95970470Y-96905102D01*
X95943129Y-96946020D01*
X95890183Y-97025261D01*
X95881498Y-97038258D01*
X95768258Y-97151498D01*
X95635102Y-97240470D01*
X95487142Y-97301758D01*
X95330075Y-97333000D01*
X95169925Y-97333000D01*
X95012858Y-97301758D01*
X94864898Y-97240470D01*
X94731742Y-97151498D01*
X94618502Y-97038258D01*
X94609818Y-97025261D01*
X94556871Y-96946020D01*
X94529530Y-96905102D01*
X94468242Y-96757142D01*
X94437000Y-96600075D01*
X94437000Y-96439925D01*
X94468242Y-96282858D01*
X94529530Y-96134898D01*
X94587002Y-96048885D01*
X94618501Y-96001743D01*
X94731743Y-95888501D01*
X94797870Y-95844317D01*
X94864898Y-95799530D01*
X95012858Y-95738242D01*
X95169925Y-95707000D01*
X95330075Y-95707000D01*
X95487142Y-95738242D01*
X95487142Y-95738242D01*
G37*
G36*
X115807142Y-95738242D02*
X115955102Y-95799530D01*
X116022130Y-95844317D01*
X116088257Y-95888501D01*
X116201499Y-96001743D01*
X116232998Y-96048885D01*
X116290470Y-96134898D01*
X116351758Y-96282858D01*
X116383000Y-96439925D01*
X116383000Y-96600075D01*
X116351758Y-96757142D01*
X116290470Y-96905102D01*
X116263129Y-96946020D01*
X116210183Y-97025261D01*
X116201498Y-97038258D01*
X116088258Y-97151498D01*
X115955102Y-97240470D01*
X115807142Y-97301758D01*
X115650075Y-97333000D01*
X115489925Y-97333000D01*
X115332858Y-97301758D01*
X115184898Y-97240470D01*
X115051742Y-97151498D01*
X114938502Y-97038258D01*
X114929818Y-97025261D01*
X114876871Y-96946020D01*
X114849530Y-96905102D01*
X114788242Y-96757142D01*
X114757000Y-96600075D01*
X114757000Y-96439925D01*
X114788242Y-96282858D01*
X114849530Y-96134898D01*
X114907002Y-96048885D01*
X114938501Y-96001743D01*
X115051743Y-95888501D01*
X115117870Y-95844317D01*
X115184898Y-95799530D01*
X115332858Y-95738242D01*
X115489925Y-95707000D01*
X115650075Y-95707000D01*
X115807142Y-95738242D01*
X115807142Y-95738242D01*
G37*
G36*
X98208191Y-96048885D02*
X98242169Y-96059193D01*
X98273487Y-96075933D01*
X98300939Y-96098461D01*
X98323467Y-96125913D01*
X98340207Y-96157231D01*
X98350515Y-96191209D01*
X98354600Y-96232690D01*
X98354600Y-96908910D01*
X98350515Y-96950391D01*
X98340207Y-96984369D01*
X98323467Y-97015687D01*
X98300939Y-97043139D01*
X98273487Y-97065667D01*
X98242169Y-97082407D01*
X98208191Y-97092715D01*
X98166710Y-97096800D01*
X97565490Y-97096800D01*
X97524009Y-97092715D01*
X97490031Y-97082407D01*
X97458713Y-97065667D01*
X97431261Y-97043139D01*
X97408733Y-97015687D01*
X97391993Y-96984369D01*
X97381685Y-96950391D01*
X97377600Y-96908910D01*
X97377600Y-96232690D01*
X97381685Y-96191209D01*
X97391993Y-96157231D01*
X97408733Y-96125913D01*
X97431261Y-96098461D01*
X97458713Y-96075933D01*
X97490031Y-96059193D01*
X97524009Y-96048885D01*
X97565490Y-96044800D01*
X98166710Y-96044800D01*
X98208191Y-96048885D01*
X98208191Y-96048885D01*
G37*
G36*
X99783191Y-96048885D02*
X99817169Y-96059193D01*
X99848487Y-96075933D01*
X99875939Y-96098461D01*
X99898467Y-96125913D01*
X99915207Y-96157231D01*
X99925515Y-96191209D01*
X99929600Y-96232690D01*
X99929600Y-96908910D01*
X99925515Y-96950391D01*
X99915207Y-96984369D01*
X99898467Y-97015687D01*
X99875939Y-97043139D01*
X99848487Y-97065667D01*
X99817169Y-97082407D01*
X99783191Y-97092715D01*
X99741710Y-97096800D01*
X99140490Y-97096800D01*
X99099009Y-97092715D01*
X99065031Y-97082407D01*
X99033713Y-97065667D01*
X99006261Y-97043139D01*
X98983733Y-97015687D01*
X98966993Y-96984369D01*
X98956685Y-96950391D01*
X98952600Y-96908910D01*
X98952600Y-96232690D01*
X98956685Y-96191209D01*
X98966993Y-96157231D01*
X98983733Y-96125913D01*
X99006261Y-96098461D01*
X99033713Y-96075933D01*
X99065031Y-96059193D01*
X99099009Y-96048885D01*
X99140490Y-96044800D01*
X99741710Y-96044800D01*
X99783191Y-96048885D01*
X99783191Y-96048885D01*
G37*
G36*
X109104891Y-94575685D02*
X109138869Y-94585993D01*
X109170187Y-94602733D01*
X109197639Y-94625261D01*
X109220167Y-94652713D01*
X109236907Y-94684031D01*
X109247215Y-94718009D01*
X109251300Y-94759490D01*
X109251300Y-95435710D01*
X109247215Y-95477191D01*
X109236907Y-95511169D01*
X109220167Y-95542487D01*
X109197639Y-95569939D01*
X109170187Y-95592467D01*
X109138869Y-95609207D01*
X109104891Y-95619515D01*
X109063410Y-95623600D01*
X108462190Y-95623600D01*
X108420709Y-95619515D01*
X108386731Y-95609207D01*
X108355413Y-95592467D01*
X108327961Y-95569939D01*
X108305433Y-95542487D01*
X108288693Y-95511169D01*
X108278385Y-95477191D01*
X108274300Y-95435710D01*
X108274300Y-94759490D01*
X108278385Y-94718009D01*
X108288693Y-94684031D01*
X108305433Y-94652713D01*
X108327961Y-94625261D01*
X108355413Y-94602733D01*
X108386731Y-94585993D01*
X108420709Y-94575685D01*
X108462190Y-94571600D01*
X109063410Y-94571600D01*
X109104891Y-94575685D01*
X109104891Y-94575685D01*
G37*
G36*
X107529891Y-94575685D02*
X107563869Y-94585993D01*
X107595187Y-94602733D01*
X107622639Y-94625261D01*
X107645167Y-94652713D01*
X107661907Y-94684031D01*
X107672215Y-94718009D01*
X107676300Y-94759490D01*
X107676300Y-95435710D01*
X107672215Y-95477191D01*
X107661907Y-95511169D01*
X107645167Y-95542487D01*
X107622639Y-95569939D01*
X107595187Y-95592467D01*
X107563869Y-95609207D01*
X107529891Y-95619515D01*
X107488410Y-95623600D01*
X106887190Y-95623600D01*
X106845709Y-95619515D01*
X106811731Y-95609207D01*
X106780413Y-95592467D01*
X106752961Y-95569939D01*
X106730433Y-95542487D01*
X106713693Y-95511169D01*
X106703385Y-95477191D01*
X106699300Y-95435710D01*
X106699300Y-94759490D01*
X106703385Y-94718009D01*
X106713693Y-94684031D01*
X106730433Y-94652713D01*
X106752961Y-94625261D01*
X106780413Y-94602733D01*
X106811731Y-94585993D01*
X106845709Y-94575685D01*
X106887190Y-94571600D01*
X107488410Y-94571600D01*
X107529891Y-94575685D01*
X107529891Y-94575685D01*
G37*
G36*
X95487142Y-93198242D02*
X95635102Y-93259530D01*
X95768258Y-93348502D01*
X95881498Y-93461742D01*
X95970470Y-93594898D01*
X96031758Y-93742858D01*
X96063000Y-93899925D01*
X96063000Y-94060075D01*
X96031758Y-94217142D01*
X96019804Y-94246000D01*
X95970471Y-94365100D01*
X95881499Y-94498257D01*
X95768257Y-94611499D01*
X95720904Y-94643139D01*
X95635102Y-94700470D01*
X95487142Y-94761758D01*
X95330075Y-94793000D01*
X95169925Y-94793000D01*
X95012858Y-94761758D01*
X94864898Y-94700470D01*
X94779096Y-94643139D01*
X94731743Y-94611499D01*
X94618501Y-94498257D01*
X94529529Y-94365100D01*
X94480196Y-94246000D01*
X94468242Y-94217142D01*
X94437000Y-94060075D01*
X94437000Y-93899925D01*
X94468242Y-93742858D01*
X94529530Y-93594898D01*
X94618502Y-93461742D01*
X94731742Y-93348502D01*
X94864898Y-93259530D01*
X95012858Y-93198242D01*
X95169925Y-93167000D01*
X95330075Y-93167000D01*
X95487142Y-93198242D01*
X95487142Y-93198242D01*
G37*
G36*
X115807142Y-93198242D02*
X115955102Y-93259530D01*
X116088258Y-93348502D01*
X116201498Y-93461742D01*
X116290470Y-93594898D01*
X116351758Y-93742858D01*
X116383000Y-93899925D01*
X116383000Y-94060075D01*
X116351758Y-94217142D01*
X116339804Y-94246000D01*
X116290471Y-94365100D01*
X116201499Y-94498257D01*
X116088257Y-94611499D01*
X116040904Y-94643139D01*
X115955102Y-94700470D01*
X115807142Y-94761758D01*
X115650075Y-94793000D01*
X115489925Y-94793000D01*
X115332858Y-94761758D01*
X115184898Y-94700470D01*
X115099096Y-94643139D01*
X115051743Y-94611499D01*
X114938501Y-94498257D01*
X114849529Y-94365100D01*
X114800196Y-94246000D01*
X114788242Y-94217142D01*
X114757000Y-94060075D01*
X114757000Y-93899925D01*
X114788242Y-93742858D01*
X114849530Y-93594898D01*
X114938502Y-93461742D01*
X115051742Y-93348502D01*
X115184898Y-93259530D01*
X115332858Y-93198242D01*
X115489925Y-93167000D01*
X115650075Y-93167000D01*
X115807142Y-93198242D01*
X115807142Y-93198242D01*
G37*
G36*
X111995443Y-92450519D02*
X112061627Y-92457037D01*
X112174853Y-92491384D01*
X112231467Y-92508557D01*
X112370087Y-92582652D01*
X112387991Y-92592222D01*
X112423729Y-92621552D01*
X112525186Y-92704814D01*
X112591321Y-92785401D01*
X112637778Y-92842009D01*
X112637779Y-92842011D01*
X112721443Y-92998533D01*
X112721443Y-92998534D01*
X112772963Y-93168373D01*
X112790359Y-93345000D01*
X112772963Y-93521627D01*
X112750736Y-93594900D01*
X112721443Y-93691467D01*
X112647348Y-93830087D01*
X112637778Y-93847991D01*
X112608448Y-93883729D01*
X112525186Y-93985186D01*
X112433933Y-94060074D01*
X112387991Y-94097778D01*
X112387989Y-94097779D01*
X112231467Y-94181443D01*
X112174853Y-94198616D01*
X112061627Y-94232963D01*
X111995443Y-94239481D01*
X111929260Y-94246000D01*
X111590740Y-94246000D01*
X111524557Y-94239481D01*
X111458373Y-94232963D01*
X111345147Y-94198616D01*
X111288533Y-94181443D01*
X111132011Y-94097779D01*
X111132009Y-94097778D01*
X111086067Y-94060074D01*
X110994814Y-93985186D01*
X110911552Y-93883729D01*
X110882222Y-93847991D01*
X110872652Y-93830087D01*
X110798557Y-93691467D01*
X110769264Y-93594900D01*
X110747037Y-93521627D01*
X110729641Y-93345000D01*
X110747037Y-93168373D01*
X110798557Y-92998534D01*
X110798557Y-92998533D01*
X110882221Y-92842011D01*
X110882222Y-92842009D01*
X110928679Y-92785401D01*
X110994814Y-92704814D01*
X111096271Y-92621552D01*
X111132009Y-92592222D01*
X111149913Y-92582652D01*
X111288533Y-92508557D01*
X111345147Y-92491384D01*
X111458373Y-92457037D01*
X111524557Y-92450519D01*
X111590740Y-92444000D01*
X111929260Y-92444000D01*
X111995443Y-92450519D01*
X111995443Y-92450519D01*
G37*
G36*
X109206491Y-91934085D02*
X109240469Y-91944393D01*
X109271787Y-91961133D01*
X109299239Y-91983661D01*
X109321767Y-92011113D01*
X109338507Y-92042431D01*
X109348815Y-92076409D01*
X109352900Y-92117890D01*
X109352900Y-92794110D01*
X109348815Y-92835591D01*
X109338507Y-92869569D01*
X109321767Y-92900887D01*
X109299239Y-92928339D01*
X109271787Y-92950867D01*
X109240469Y-92967607D01*
X109206491Y-92977915D01*
X109165010Y-92982000D01*
X108563790Y-92982000D01*
X108522309Y-92977915D01*
X108488331Y-92967607D01*
X108457013Y-92950867D01*
X108429561Y-92928339D01*
X108407033Y-92900887D01*
X108390293Y-92869569D01*
X108379985Y-92835591D01*
X108375900Y-92794110D01*
X108375900Y-92117890D01*
X108379985Y-92076409D01*
X108390293Y-92042431D01*
X108407033Y-92011113D01*
X108429561Y-91983661D01*
X108457013Y-91961133D01*
X108488331Y-91944393D01*
X108522309Y-91934085D01*
X108563790Y-91930000D01*
X109165010Y-91930000D01*
X109206491Y-91934085D01*
X109206491Y-91934085D01*
G37*
G36*
X107631491Y-91934085D02*
X107665469Y-91944393D01*
X107696787Y-91961133D01*
X107724239Y-91983661D01*
X107746767Y-92011113D01*
X107763507Y-92042431D01*
X107773815Y-92076409D01*
X107777900Y-92117890D01*
X107777900Y-92794110D01*
X107773815Y-92835591D01*
X107763507Y-92869569D01*
X107746767Y-92900887D01*
X107724239Y-92928339D01*
X107696787Y-92950867D01*
X107665469Y-92967607D01*
X107631491Y-92977915D01*
X107590010Y-92982000D01*
X106988790Y-92982000D01*
X106947309Y-92977915D01*
X106913331Y-92967607D01*
X106882013Y-92950867D01*
X106854561Y-92928339D01*
X106832033Y-92900887D01*
X106815293Y-92869569D01*
X106804985Y-92835591D01*
X106800900Y-92794110D01*
X106800900Y-92117890D01*
X106804985Y-92076409D01*
X106815293Y-92042431D01*
X106832033Y-92011113D01*
X106854561Y-91983661D01*
X106882013Y-91961133D01*
X106913331Y-91944393D01*
X106947309Y-91934085D01*
X106988790Y-91930000D01*
X107590010Y-91930000D01*
X107631491Y-91934085D01*
X107631491Y-91934085D01*
G37*
G36*
X95487142Y-90658242D02*
X95635102Y-90719530D01*
X95768258Y-90808502D01*
X95881498Y-90921742D01*
X95970470Y-91054898D01*
X96031758Y-91202858D01*
X96063000Y-91359925D01*
X96063000Y-91520075D01*
X96031758Y-91677142D01*
X95984354Y-91791583D01*
X95970471Y-91825100D01*
X95881499Y-91958257D01*
X95768257Y-92071499D01*
X95754367Y-92080780D01*
X95635102Y-92160470D01*
X95487142Y-92221758D01*
X95330075Y-92253000D01*
X95169925Y-92253000D01*
X95012858Y-92221758D01*
X94864898Y-92160470D01*
X94745633Y-92080780D01*
X94731743Y-92071499D01*
X94618501Y-91958257D01*
X94529529Y-91825100D01*
X94515646Y-91791583D01*
X94468242Y-91677142D01*
X94437000Y-91520075D01*
X94437000Y-91359925D01*
X94468242Y-91202858D01*
X94529530Y-91054898D01*
X94618502Y-90921742D01*
X94731742Y-90808502D01*
X94864898Y-90719530D01*
X95012858Y-90658242D01*
X95169925Y-90627000D01*
X95330075Y-90627000D01*
X95487142Y-90658242D01*
X95487142Y-90658242D01*
G37*
G36*
X115807142Y-90658242D02*
X115955102Y-90719530D01*
X116088258Y-90808502D01*
X116201498Y-90921742D01*
X116290470Y-91054898D01*
X116351758Y-91202858D01*
X116383000Y-91359925D01*
X116383000Y-91520075D01*
X116351758Y-91677142D01*
X116304354Y-91791583D01*
X116290471Y-91825100D01*
X116201499Y-91958257D01*
X116088257Y-92071499D01*
X116074367Y-92080780D01*
X115955102Y-92160470D01*
X115807142Y-92221758D01*
X115650075Y-92253000D01*
X115489925Y-92253000D01*
X115332858Y-92221758D01*
X115184898Y-92160470D01*
X115065633Y-92080780D01*
X115051743Y-92071499D01*
X114938501Y-91958257D01*
X114849529Y-91825100D01*
X114835646Y-91791583D01*
X114788242Y-91677142D01*
X114757000Y-91520075D01*
X114757000Y-91359925D01*
X114788242Y-91202858D01*
X114849530Y-91054898D01*
X114938502Y-90921742D01*
X115051742Y-90808502D01*
X115184898Y-90719530D01*
X115332858Y-90658242D01*
X115489925Y-90627000D01*
X115650075Y-90627000D01*
X115807142Y-90658242D01*
X115807142Y-90658242D01*
G37*
G36*
X111995443Y-89950519D02*
X112061627Y-89957037D01*
X112174853Y-89991384D01*
X112231467Y-90008557D01*
X112370087Y-90082652D01*
X112387991Y-90092222D01*
X112423729Y-90121552D01*
X112525186Y-90204814D01*
X112608448Y-90306271D01*
X112637778Y-90342009D01*
X112637779Y-90342011D01*
X112721443Y-90498533D01*
X112721443Y-90498534D01*
X112772963Y-90668373D01*
X112790359Y-90845000D01*
X112772963Y-91021627D01*
X112738616Y-91134853D01*
X112721443Y-91191467D01*
X112715354Y-91202858D01*
X112637778Y-91347991D01*
X112627984Y-91359925D01*
X112525186Y-91485186D01*
X112423729Y-91568448D01*
X112387991Y-91597778D01*
X112387989Y-91597779D01*
X112231467Y-91681443D01*
X112174853Y-91698616D01*
X112061627Y-91732963D01*
X111995443Y-91739481D01*
X111929260Y-91746000D01*
X111590740Y-91746000D01*
X111524557Y-91739481D01*
X111458373Y-91732963D01*
X111345147Y-91698616D01*
X111288533Y-91681443D01*
X111132011Y-91597779D01*
X111132009Y-91597778D01*
X111096271Y-91568448D01*
X110994814Y-91485186D01*
X110892016Y-91359925D01*
X110882222Y-91347991D01*
X110804646Y-91202858D01*
X110798557Y-91191467D01*
X110781384Y-91134853D01*
X110747037Y-91021627D01*
X110729641Y-90845000D01*
X110747037Y-90668373D01*
X110798557Y-90498534D01*
X110798557Y-90498533D01*
X110882221Y-90342011D01*
X110882222Y-90342009D01*
X110911552Y-90306271D01*
X110994814Y-90204814D01*
X111096271Y-90121552D01*
X111132009Y-90092222D01*
X111149913Y-90082652D01*
X111288533Y-90008557D01*
X111345147Y-89991384D01*
X111458373Y-89957037D01*
X111524557Y-89950519D01*
X111590740Y-89944000D01*
X111929260Y-89944000D01*
X111995443Y-89950519D01*
X111995443Y-89950519D01*
G37*
G36*
X115807142Y-88118242D02*
X115955102Y-88179530D01*
X116088258Y-88268502D01*
X116201498Y-88381742D01*
X116267286Y-88480200D01*
X116290471Y-88514900D01*
X116293257Y-88521627D01*
X116351758Y-88662858D01*
X116383000Y-88819925D01*
X116383000Y-88980075D01*
X116351758Y-89137142D01*
X116290470Y-89285102D01*
X116201498Y-89418258D01*
X116088258Y-89531498D01*
X115955102Y-89620470D01*
X115807142Y-89681758D01*
X115650075Y-89713000D01*
X115489925Y-89713000D01*
X115332858Y-89681758D01*
X115184898Y-89620470D01*
X115051742Y-89531498D01*
X114938502Y-89418258D01*
X114849530Y-89285102D01*
X114788242Y-89137142D01*
X114757000Y-88980075D01*
X114757000Y-88819925D01*
X114788242Y-88662858D01*
X114846743Y-88521627D01*
X114849529Y-88514900D01*
X114872715Y-88480200D01*
X114938502Y-88381742D01*
X115051742Y-88268502D01*
X115184898Y-88179530D01*
X115332858Y-88118242D01*
X115489925Y-88087000D01*
X115650075Y-88087000D01*
X115807142Y-88118242D01*
X115807142Y-88118242D01*
G37*
G36*
X95487142Y-88118242D02*
X95635102Y-88179530D01*
X95768258Y-88268502D01*
X95881498Y-88381742D01*
X95947286Y-88480200D01*
X95970471Y-88514900D01*
X95973257Y-88521627D01*
X96031758Y-88662858D01*
X96063000Y-88819925D01*
X96063000Y-88980075D01*
X96031758Y-89137142D01*
X95970470Y-89285102D01*
X95881498Y-89418258D01*
X95768258Y-89531498D01*
X95635102Y-89620470D01*
X95487142Y-89681758D01*
X95330075Y-89713000D01*
X95169925Y-89713000D01*
X95012858Y-89681758D01*
X94864898Y-89620470D01*
X94731742Y-89531498D01*
X94618502Y-89418258D01*
X94529530Y-89285102D01*
X94468242Y-89137142D01*
X94437000Y-88980075D01*
X94437000Y-88819925D01*
X94468242Y-88662858D01*
X94526743Y-88521627D01*
X94529529Y-88514900D01*
X94552715Y-88480200D01*
X94618502Y-88381742D01*
X94731742Y-88268502D01*
X94864898Y-88179530D01*
X95012858Y-88118242D01*
X95169925Y-88087000D01*
X95330075Y-88087000D01*
X95487142Y-88118242D01*
X95487142Y-88118242D01*
G37*
G36*
X111995443Y-87450519D02*
X112061627Y-87457037D01*
X112174853Y-87491384D01*
X112231467Y-87508557D01*
X112370087Y-87582652D01*
X112387991Y-87592222D01*
X112423729Y-87621552D01*
X112525186Y-87704814D01*
X112608448Y-87806271D01*
X112637778Y-87842009D01*
X112637779Y-87842011D01*
X112721443Y-87998533D01*
X112721443Y-87998534D01*
X112772963Y-88168373D01*
X112790359Y-88345000D01*
X112772963Y-88521627D01*
X112738616Y-88634853D01*
X112721443Y-88691467D01*
X112652780Y-88819925D01*
X112637778Y-88847991D01*
X112608448Y-88883729D01*
X112525186Y-88985186D01*
X112423729Y-89068448D01*
X112387991Y-89097778D01*
X112387989Y-89097779D01*
X112231467Y-89181443D01*
X112174853Y-89198616D01*
X112061627Y-89232963D01*
X111995442Y-89239482D01*
X111929260Y-89246000D01*
X111590740Y-89246000D01*
X111524558Y-89239482D01*
X111458373Y-89232963D01*
X111345147Y-89198616D01*
X111288533Y-89181443D01*
X111132011Y-89097779D01*
X111132009Y-89097778D01*
X111096271Y-89068448D01*
X110994814Y-88985186D01*
X110911552Y-88883729D01*
X110882222Y-88847991D01*
X110867220Y-88819925D01*
X110798557Y-88691467D01*
X110781384Y-88634853D01*
X110747037Y-88521627D01*
X110729641Y-88345000D01*
X110747037Y-88168373D01*
X110798557Y-87998534D01*
X110798557Y-87998533D01*
X110882221Y-87842011D01*
X110882222Y-87842009D01*
X110911552Y-87806271D01*
X110994814Y-87704814D01*
X111096271Y-87621552D01*
X111132009Y-87592222D01*
X111149913Y-87582652D01*
X111288533Y-87508557D01*
X111345147Y-87491384D01*
X111458373Y-87457037D01*
X111524557Y-87450519D01*
X111590740Y-87444000D01*
X111929260Y-87444000D01*
X111995443Y-87450519D01*
X111995443Y-87450519D01*
G37*
G36*
X99808600Y-88480200D02*
X98006600Y-88480200D01*
X98006600Y-86678200D01*
X99808600Y-86678200D01*
X99808600Y-88480200D01*
X99808600Y-88480200D01*
G37*
G36*
X115807142Y-85578242D02*
X115955102Y-85639530D01*
X116088258Y-85728502D01*
X116201498Y-85841742D01*
X116290470Y-85974898D01*
X116351758Y-86122858D01*
X116383000Y-86279925D01*
X116383000Y-86440075D01*
X116351758Y-86597142D01*
X116304354Y-86711583D01*
X116291751Y-86742011D01*
X116290470Y-86745102D01*
X116201498Y-86878258D01*
X116088258Y-86991498D01*
X115955102Y-87080470D01*
X115807142Y-87141758D01*
X115650075Y-87173000D01*
X115489925Y-87173000D01*
X115332858Y-87141758D01*
X115184898Y-87080470D01*
X115051742Y-86991498D01*
X114938502Y-86878258D01*
X114849530Y-86745102D01*
X114848250Y-86742011D01*
X114835646Y-86711583D01*
X114788242Y-86597142D01*
X114757000Y-86440075D01*
X114757000Y-86279925D01*
X114788242Y-86122858D01*
X114849530Y-85974898D01*
X114938502Y-85841742D01*
X115051742Y-85728502D01*
X115184898Y-85639530D01*
X115332858Y-85578242D01*
X115489925Y-85547000D01*
X115650075Y-85547000D01*
X115807142Y-85578242D01*
X115807142Y-85578242D01*
G37*
G36*
X95487142Y-85578242D02*
X95635102Y-85639530D01*
X95768258Y-85728502D01*
X95881498Y-85841742D01*
X95970470Y-85974898D01*
X96031758Y-86122858D01*
X96063000Y-86279925D01*
X96063000Y-86440075D01*
X96031758Y-86597142D01*
X95984354Y-86711583D01*
X95971751Y-86742011D01*
X95970470Y-86745102D01*
X95881498Y-86878258D01*
X95768258Y-86991498D01*
X95635102Y-87080470D01*
X95487142Y-87141758D01*
X95330075Y-87173000D01*
X95169925Y-87173000D01*
X95012858Y-87141758D01*
X94864898Y-87080470D01*
X94731742Y-86991498D01*
X94618502Y-86878258D01*
X94529530Y-86745102D01*
X94528250Y-86742011D01*
X94515646Y-86711583D01*
X94468242Y-86597142D01*
X94437000Y-86440075D01*
X94437000Y-86279925D01*
X94468242Y-86122858D01*
X94529530Y-85974898D01*
X94618502Y-85841742D01*
X94731742Y-85728502D01*
X94864898Y-85639530D01*
X95012858Y-85578242D01*
X95169925Y-85547000D01*
X95330075Y-85547000D01*
X95487142Y-85578242D01*
X95487142Y-85578242D01*
G37*
G36*
X112643600Y-84947989D02*
X112676649Y-84958014D01*
X112707106Y-84974294D01*
X112733799Y-84996201D01*
X112755706Y-85022894D01*
X112771986Y-85053351D01*
X112782011Y-85086400D01*
X112786000Y-85126904D01*
X112786000Y-86563096D01*
X112782011Y-86603600D01*
X112771986Y-86636649D01*
X112755706Y-86667106D01*
X112733799Y-86693799D01*
X112707106Y-86715706D01*
X112676649Y-86731986D01*
X112643600Y-86742011D01*
X112603096Y-86746000D01*
X110916904Y-86746000D01*
X110876400Y-86742011D01*
X110843351Y-86731986D01*
X110812894Y-86715706D01*
X110786201Y-86693799D01*
X110764294Y-86667106D01*
X110748014Y-86636649D01*
X110737989Y-86603600D01*
X110734000Y-86563096D01*
X110734000Y-85126904D01*
X110737989Y-85086400D01*
X110748014Y-85053351D01*
X110764294Y-85022894D01*
X110786201Y-84996201D01*
X110812894Y-84974294D01*
X110843351Y-84958014D01*
X110876400Y-84947989D01*
X110916904Y-84944000D01*
X112603096Y-84944000D01*
X112643600Y-84947989D01*
X112643600Y-84947989D01*
G37*
G36*
X99018042Y-84144718D02*
X99084227Y-84151237D01*
X99197453Y-84185584D01*
X99254067Y-84202757D01*
X99392687Y-84276852D01*
X99410591Y-84286422D01*
X99446329Y-84315752D01*
X99547786Y-84399014D01*
X99611458Y-84476600D01*
X99660378Y-84536209D01*
X99660379Y-84536211D01*
X99744043Y-84692733D01*
X99744043Y-84692734D01*
X99795563Y-84862573D01*
X99812959Y-85039200D01*
X99795563Y-85215827D01*
X99761216Y-85329053D01*
X99744043Y-85385667D01*
X99669948Y-85524287D01*
X99660378Y-85542191D01*
X99656431Y-85547000D01*
X99547786Y-85679386D01*
X99446329Y-85762648D01*
X99410591Y-85791978D01*
X99410589Y-85791979D01*
X99254067Y-85875643D01*
X99197453Y-85892816D01*
X99084227Y-85927163D01*
X99018043Y-85933681D01*
X98951860Y-85940200D01*
X98863340Y-85940200D01*
X98797157Y-85933681D01*
X98730973Y-85927163D01*
X98617747Y-85892816D01*
X98561133Y-85875643D01*
X98404611Y-85791979D01*
X98404609Y-85791978D01*
X98368871Y-85762648D01*
X98267414Y-85679386D01*
X98158769Y-85547000D01*
X98154822Y-85542191D01*
X98145252Y-85524287D01*
X98071157Y-85385667D01*
X98053984Y-85329053D01*
X98019637Y-85215827D01*
X98002241Y-85039200D01*
X98019637Y-84862573D01*
X98071157Y-84692734D01*
X98071157Y-84692733D01*
X98154821Y-84536211D01*
X98154822Y-84536209D01*
X98203742Y-84476600D01*
X98267414Y-84399014D01*
X98368871Y-84315752D01*
X98404609Y-84286422D01*
X98422513Y-84276852D01*
X98561133Y-84202757D01*
X98617747Y-84185584D01*
X98730973Y-84151237D01*
X98797158Y-84144718D01*
X98863340Y-84138200D01*
X98951860Y-84138200D01*
X99018042Y-84144718D01*
X99018042Y-84144718D01*
G37*
G36*
X105494855Y-84479740D02*
X105558618Y-84486020D01*
X105640427Y-84510837D01*
X105681333Y-84523245D01*
X105705590Y-84536211D01*
X105794426Y-84583695D01*
X105893553Y-84665047D01*
X105974905Y-84764174D01*
X105974906Y-84764176D01*
X106035355Y-84877267D01*
X106035355Y-84877268D01*
X106072580Y-84999982D01*
X106085149Y-85127600D01*
X106072580Y-85255218D01*
X106047763Y-85337027D01*
X106035355Y-85377933D01*
X106031221Y-85385667D01*
X105974905Y-85491026D01*
X105893553Y-85590153D01*
X105794426Y-85671505D01*
X105794424Y-85671506D01*
X105681333Y-85731955D01*
X105640427Y-85744363D01*
X105558618Y-85769180D01*
X105494855Y-85775460D01*
X105462974Y-85778600D01*
X104849026Y-85778600D01*
X104817145Y-85775460D01*
X104753382Y-85769180D01*
X104671573Y-85744363D01*
X104630667Y-85731955D01*
X104517576Y-85671506D01*
X104517574Y-85671505D01*
X104418447Y-85590153D01*
X104337095Y-85491026D01*
X104280779Y-85385667D01*
X104276645Y-85377933D01*
X104264237Y-85337027D01*
X104239420Y-85255218D01*
X104226851Y-85127600D01*
X104239420Y-84999982D01*
X104276645Y-84877268D01*
X104276645Y-84877267D01*
X104337094Y-84764176D01*
X104337095Y-84764174D01*
X104418447Y-84665047D01*
X104517574Y-84583695D01*
X104606410Y-84536211D01*
X104630667Y-84523245D01*
X104671573Y-84510837D01*
X104753382Y-84486020D01*
X104817145Y-84479740D01*
X104849026Y-84476600D01*
X105462974Y-84476600D01*
X105494855Y-84479740D01*
X105494855Y-84479740D01*
G37*
G36*
X115807142Y-83038242D02*
X115955102Y-83099530D01*
X116088258Y-83188502D01*
X116201498Y-83301742D01*
X116290470Y-83434898D01*
X116351758Y-83582858D01*
X116383000Y-83739925D01*
X116383000Y-83900075D01*
X116351758Y-84057142D01*
X116318182Y-84138200D01*
X116291442Y-84202757D01*
X116290470Y-84205102D01*
X116201498Y-84338258D01*
X116088258Y-84451498D01*
X115955102Y-84540470D01*
X115807142Y-84601758D01*
X115650075Y-84633000D01*
X115489925Y-84633000D01*
X115332858Y-84601758D01*
X115184898Y-84540470D01*
X115051742Y-84451498D01*
X114938502Y-84338258D01*
X114849530Y-84205102D01*
X114848559Y-84202757D01*
X114821818Y-84138200D01*
X114788242Y-84057142D01*
X114757000Y-83900075D01*
X114757000Y-83739925D01*
X114788242Y-83582858D01*
X114849530Y-83434898D01*
X114938502Y-83301742D01*
X115051742Y-83188502D01*
X115184898Y-83099530D01*
X115332858Y-83038242D01*
X115489925Y-83007000D01*
X115650075Y-83007000D01*
X115807142Y-83038242D01*
X115807142Y-83038242D01*
G37*
G36*
X95487142Y-83038242D02*
X95635102Y-83099530D01*
X95768258Y-83188502D01*
X95881498Y-83301742D01*
X95970470Y-83434898D01*
X96031758Y-83582858D01*
X96063000Y-83739925D01*
X96063000Y-83900075D01*
X96031758Y-84057142D01*
X95998182Y-84138200D01*
X95971442Y-84202757D01*
X95970470Y-84205102D01*
X95881498Y-84338258D01*
X95768258Y-84451498D01*
X95635102Y-84540470D01*
X95487142Y-84601758D01*
X95330075Y-84633000D01*
X95169925Y-84633000D01*
X95012858Y-84601758D01*
X94864898Y-84540470D01*
X94731742Y-84451498D01*
X94618502Y-84338258D01*
X94529530Y-84205102D01*
X94528559Y-84202757D01*
X94501818Y-84138200D01*
X94468242Y-84057142D01*
X94437000Y-83900075D01*
X94437000Y-83739925D01*
X94468242Y-83582858D01*
X94529530Y-83434898D01*
X94618502Y-83301742D01*
X94731742Y-83188502D01*
X94864898Y-83099530D01*
X95012858Y-83038242D01*
X95169925Y-83007000D01*
X95330075Y-83007000D01*
X95487142Y-83038242D01*
X95487142Y-83038242D01*
G37*
G36*
X105494855Y-82479740D02*
X105558618Y-82486020D01*
X105640427Y-82510837D01*
X105681333Y-82523245D01*
X105781491Y-82576781D01*
X105794426Y-82583695D01*
X105893553Y-82665047D01*
X105974905Y-82764174D01*
X105974906Y-82764176D01*
X106035355Y-82877267D01*
X106035355Y-82877268D01*
X106072580Y-82999982D01*
X106085149Y-83127600D01*
X106072580Y-83255218D01*
X106048183Y-83335643D01*
X106035355Y-83377933D01*
X106030421Y-83387163D01*
X105974905Y-83491026D01*
X105893553Y-83590153D01*
X105794426Y-83671505D01*
X105794424Y-83671506D01*
X105681333Y-83731955D01*
X105640427Y-83744363D01*
X105558618Y-83769180D01*
X105494855Y-83775460D01*
X105462974Y-83778600D01*
X104849026Y-83778600D01*
X104817145Y-83775460D01*
X104753382Y-83769180D01*
X104671573Y-83744363D01*
X104630667Y-83731955D01*
X104517576Y-83671506D01*
X104517574Y-83671505D01*
X104418447Y-83590153D01*
X104337095Y-83491026D01*
X104281579Y-83387163D01*
X104276645Y-83377933D01*
X104263817Y-83335643D01*
X104239420Y-83255218D01*
X104226851Y-83127600D01*
X104239420Y-82999982D01*
X104276645Y-82877268D01*
X104276645Y-82877267D01*
X104337094Y-82764176D01*
X104337095Y-82764174D01*
X104418447Y-82665047D01*
X104517574Y-82583695D01*
X104530509Y-82576781D01*
X104630667Y-82523245D01*
X104671573Y-82510837D01*
X104753382Y-82486020D01*
X104817145Y-82479740D01*
X104849026Y-82476600D01*
X105462974Y-82476600D01*
X105494855Y-82479740D01*
X105494855Y-82479740D01*
G37*
G36*
X99018043Y-81604719D02*
X99084227Y-81611237D01*
X99197453Y-81645584D01*
X99254067Y-81662757D01*
X99322158Y-81699153D01*
X99410591Y-81746422D01*
X99443449Y-81773388D01*
X99547786Y-81859014D01*
X99631048Y-81960471D01*
X99660378Y-81996209D01*
X99660379Y-81996211D01*
X99744043Y-82152733D01*
X99744043Y-82152734D01*
X99795563Y-82322573D01*
X99812959Y-82499200D01*
X99795563Y-82675827D01*
X99768763Y-82764174D01*
X99744043Y-82845667D01*
X99669948Y-82984287D01*
X99660378Y-83002191D01*
X99656431Y-83007000D01*
X99547786Y-83139386D01*
X99446329Y-83222648D01*
X99410591Y-83251978D01*
X99410589Y-83251979D01*
X99254067Y-83335643D01*
X99197453Y-83352816D01*
X99084227Y-83387163D01*
X99018043Y-83393681D01*
X98951860Y-83400200D01*
X98863340Y-83400200D01*
X98797157Y-83393681D01*
X98730973Y-83387163D01*
X98617747Y-83352816D01*
X98561133Y-83335643D01*
X98404611Y-83251979D01*
X98404609Y-83251978D01*
X98368871Y-83222648D01*
X98267414Y-83139386D01*
X98158769Y-83007000D01*
X98154822Y-83002191D01*
X98145252Y-82984287D01*
X98071157Y-82845667D01*
X98046437Y-82764174D01*
X98019637Y-82675827D01*
X98002241Y-82499200D01*
X98019637Y-82322573D01*
X98071157Y-82152734D01*
X98071157Y-82152733D01*
X98154821Y-81996211D01*
X98154822Y-81996209D01*
X98184152Y-81960471D01*
X98267414Y-81859014D01*
X98371751Y-81773388D01*
X98404609Y-81746422D01*
X98493042Y-81699153D01*
X98561133Y-81662757D01*
X98617747Y-81645584D01*
X98730973Y-81611237D01*
X98797157Y-81604719D01*
X98863340Y-81598200D01*
X98951860Y-81598200D01*
X99018043Y-81604719D01*
X99018043Y-81604719D01*
G37*
G36*
X95487142Y-80498242D02*
X95576167Y-80535118D01*
X95626694Y-80556047D01*
X95635102Y-80559530D01*
X95643408Y-80565080D01*
X95750084Y-80636358D01*
X95768258Y-80648502D01*
X95881498Y-80761742D01*
X95970470Y-80894898D01*
X96031758Y-81042858D01*
X96063000Y-81199925D01*
X96063000Y-81360075D01*
X96031758Y-81517142D01*
X95998182Y-81598200D01*
X95971442Y-81662757D01*
X95970470Y-81665102D01*
X95881498Y-81798258D01*
X95768258Y-81911498D01*
X95635102Y-82000470D01*
X95487142Y-82061758D01*
X95330075Y-82093000D01*
X95169925Y-82093000D01*
X95012858Y-82061758D01*
X94864898Y-82000470D01*
X94731742Y-81911498D01*
X94618502Y-81798258D01*
X94529530Y-81665102D01*
X94528559Y-81662757D01*
X94501818Y-81598200D01*
X94468242Y-81517142D01*
X94437000Y-81360075D01*
X94437000Y-81199925D01*
X94468242Y-81042858D01*
X94529530Y-80894898D01*
X94618502Y-80761742D01*
X94731742Y-80648502D01*
X94749917Y-80636358D01*
X94856592Y-80565080D01*
X94864898Y-80559530D01*
X94873307Y-80556047D01*
X94923833Y-80535118D01*
X95012858Y-80498242D01*
X95169925Y-80467000D01*
X95330075Y-80467000D01*
X95487142Y-80498242D01*
X95487142Y-80498242D01*
G37*
G36*
X115807142Y-80498242D02*
X115896167Y-80535118D01*
X115946694Y-80556047D01*
X115955102Y-80559530D01*
X115963408Y-80565080D01*
X116070084Y-80636358D01*
X116088258Y-80648502D01*
X116201498Y-80761742D01*
X116290470Y-80894898D01*
X116351758Y-81042858D01*
X116383000Y-81199925D01*
X116383000Y-81360075D01*
X116351758Y-81517142D01*
X116318182Y-81598200D01*
X116291442Y-81662757D01*
X116290470Y-81665102D01*
X116201498Y-81798258D01*
X116088258Y-81911498D01*
X115955102Y-82000470D01*
X115807142Y-82061758D01*
X115650075Y-82093000D01*
X115489925Y-82093000D01*
X115332858Y-82061758D01*
X115184898Y-82000470D01*
X115051742Y-81911498D01*
X114938502Y-81798258D01*
X114849530Y-81665102D01*
X114848559Y-81662757D01*
X114821818Y-81598200D01*
X114788242Y-81517142D01*
X114757000Y-81360075D01*
X114757000Y-81199925D01*
X114788242Y-81042858D01*
X114849530Y-80894898D01*
X114938502Y-80761742D01*
X115051742Y-80648502D01*
X115069917Y-80636358D01*
X115176592Y-80565080D01*
X115184898Y-80559530D01*
X115193307Y-80556047D01*
X115243833Y-80535118D01*
X115332858Y-80498242D01*
X115489925Y-80467000D01*
X115650075Y-80467000D01*
X115807142Y-80498242D01*
X115807142Y-80498242D01*
G37*
G36*
X105922242Y-80481004D02*
X105959339Y-80492257D01*
X105993520Y-80510527D01*
X106023482Y-80535118D01*
X106048073Y-80565080D01*
X106066343Y-80599261D01*
X106077596Y-80636358D01*
X106082000Y-80681073D01*
X106082000Y-81574127D01*
X106077596Y-81618842D01*
X106066343Y-81655939D01*
X106048073Y-81690120D01*
X106023482Y-81720082D01*
X105993520Y-81744673D01*
X105959339Y-81762943D01*
X105922242Y-81774196D01*
X105877527Y-81778600D01*
X104434473Y-81778600D01*
X104389758Y-81774196D01*
X104352661Y-81762943D01*
X104318480Y-81744673D01*
X104288518Y-81720082D01*
X104263927Y-81690120D01*
X104245657Y-81655939D01*
X104234404Y-81618842D01*
X104230000Y-81574127D01*
X104230000Y-80681073D01*
X104234404Y-80636358D01*
X104245657Y-80599261D01*
X104263927Y-80565080D01*
X104288518Y-80535118D01*
X104318480Y-80510527D01*
X104352661Y-80492257D01*
X104389758Y-80481004D01*
X104434473Y-80476600D01*
X105877527Y-80476600D01*
X105922242Y-80481004D01*
X105922242Y-80481004D01*
G37*
G36*
X112020443Y-78440519D02*
X112086627Y-78447037D01*
X112199853Y-78481384D01*
X112256467Y-78498557D01*
X112264513Y-78502858D01*
X112412991Y-78582222D01*
X112448729Y-78611552D01*
X112550186Y-78694814D01*
X112633448Y-78796271D01*
X112662778Y-78832009D01*
X112662779Y-78832011D01*
X112746443Y-78988533D01*
X112746443Y-78988534D01*
X112797963Y-79158373D01*
X112815359Y-79335000D01*
X112797963Y-79511627D01*
X112763616Y-79624853D01*
X112746443Y-79681467D01*
X112672348Y-79820087D01*
X112662778Y-79837991D01*
X112633448Y-79873729D01*
X112550186Y-79975186D01*
X112448729Y-80058448D01*
X112412991Y-80087778D01*
X112412989Y-80087779D01*
X112256467Y-80171443D01*
X112199853Y-80188616D01*
X112086627Y-80222963D01*
X112020442Y-80229482D01*
X111954260Y-80236000D01*
X111565740Y-80236000D01*
X111499558Y-80229482D01*
X111433373Y-80222963D01*
X111320147Y-80188616D01*
X111263533Y-80171443D01*
X111107011Y-80087779D01*
X111107009Y-80087778D01*
X111071271Y-80058448D01*
X110969814Y-79975186D01*
X110886552Y-79873729D01*
X110857222Y-79837991D01*
X110847652Y-79820087D01*
X110773557Y-79681467D01*
X110756384Y-79624853D01*
X110722037Y-79511627D01*
X110704641Y-79335000D01*
X110722037Y-79158373D01*
X110773557Y-78988534D01*
X110773557Y-78988533D01*
X110857221Y-78832011D01*
X110857222Y-78832009D01*
X110886552Y-78796271D01*
X110969814Y-78694814D01*
X111071271Y-78611552D01*
X111107009Y-78582222D01*
X111255487Y-78502858D01*
X111263533Y-78498557D01*
X111320147Y-78481384D01*
X111433373Y-78447037D01*
X111499557Y-78440519D01*
X111565740Y-78434000D01*
X111954260Y-78434000D01*
X112020443Y-78440519D01*
X112020443Y-78440519D01*
G37*
G36*
X95487142Y-77958242D02*
X95635102Y-78019530D01*
X95768258Y-78108502D01*
X95881498Y-78221742D01*
X95970470Y-78354898D01*
X96031758Y-78502858D01*
X96063000Y-78659925D01*
X96063000Y-78820075D01*
X96031758Y-78977142D01*
X95970470Y-79125102D01*
X95881498Y-79258258D01*
X95768258Y-79371498D01*
X95635102Y-79460470D01*
X95487142Y-79521758D01*
X95330075Y-79553000D01*
X95169925Y-79553000D01*
X95012858Y-79521758D01*
X94864898Y-79460470D01*
X94731742Y-79371498D01*
X94618502Y-79258258D01*
X94529530Y-79125102D01*
X94468242Y-78977142D01*
X94437000Y-78820075D01*
X94437000Y-78659925D01*
X94468242Y-78502858D01*
X94529530Y-78354898D01*
X94618502Y-78221742D01*
X94731742Y-78108502D01*
X94864898Y-78019530D01*
X95012858Y-77958242D01*
X95169925Y-77927000D01*
X95330075Y-77927000D01*
X95487142Y-77958242D01*
X95487142Y-77958242D01*
G37*
G36*
X115807142Y-77958242D02*
X115955102Y-78019530D01*
X116088258Y-78108502D01*
X116201498Y-78221742D01*
X116290470Y-78354898D01*
X116351758Y-78502858D01*
X116383000Y-78659925D01*
X116383000Y-78820075D01*
X116351758Y-78977142D01*
X116290470Y-79125102D01*
X116201498Y-79258258D01*
X116088258Y-79371498D01*
X115955102Y-79460470D01*
X115807142Y-79521758D01*
X115650075Y-79553000D01*
X115489925Y-79553000D01*
X115332858Y-79521758D01*
X115184898Y-79460470D01*
X115051742Y-79371498D01*
X114938502Y-79258258D01*
X114849530Y-79125102D01*
X114788242Y-78977142D01*
X114757000Y-78820075D01*
X114757000Y-78659925D01*
X114788242Y-78502858D01*
X114849530Y-78354898D01*
X114938502Y-78221742D01*
X115051742Y-78108502D01*
X115184898Y-78019530D01*
X115332858Y-77958242D01*
X115489925Y-77927000D01*
X115650075Y-77927000D01*
X115807142Y-77958242D01*
X115807142Y-77958242D01*
G37*
G36*
X98662443Y-76067519D02*
X98728627Y-76074037D01*
X98841853Y-76108384D01*
X98898467Y-76125557D01*
X99000602Y-76180150D01*
X99054991Y-76209222D01*
X99090729Y-76238552D01*
X99192186Y-76321814D01*
X99275448Y-76423271D01*
X99304778Y-76459009D01*
X99304779Y-76459011D01*
X99388443Y-76615533D01*
X99388443Y-76615534D01*
X99439963Y-76785373D01*
X99457359Y-76962000D01*
X99439963Y-77138627D01*
X99405616Y-77251853D01*
X99388443Y-77308467D01*
X99314348Y-77447087D01*
X99304778Y-77464991D01*
X99275448Y-77500729D01*
X99192186Y-77602186D01*
X99092739Y-77683799D01*
X99054991Y-77714778D01*
X99041506Y-77721986D01*
X98898467Y-77798443D01*
X98841853Y-77815616D01*
X98728627Y-77849963D01*
X98662443Y-77856481D01*
X98596260Y-77863000D01*
X98507740Y-77863000D01*
X98441557Y-77856481D01*
X98375373Y-77849963D01*
X98262147Y-77815616D01*
X98205533Y-77798443D01*
X98062494Y-77721986D01*
X98049009Y-77714778D01*
X98011261Y-77683799D01*
X97911814Y-77602186D01*
X97828552Y-77500729D01*
X97799222Y-77464991D01*
X97789652Y-77447087D01*
X97715557Y-77308467D01*
X97698384Y-77251853D01*
X97664037Y-77138627D01*
X97646641Y-76962000D01*
X97664037Y-76785373D01*
X97715557Y-76615534D01*
X97715557Y-76615533D01*
X97799221Y-76459011D01*
X97799222Y-76459009D01*
X97828552Y-76423271D01*
X97911814Y-76321814D01*
X98013271Y-76238552D01*
X98049009Y-76209222D01*
X98103398Y-76180150D01*
X98205533Y-76125557D01*
X98262147Y-76108384D01*
X98375373Y-76074037D01*
X98441557Y-76067519D01*
X98507740Y-76061000D01*
X98596260Y-76061000D01*
X98662443Y-76067519D01*
X98662443Y-76067519D01*
G37*
G36*
X112668600Y-75937989D02*
X112701649Y-75948014D01*
X112732106Y-75964294D01*
X112758799Y-75986201D01*
X112780706Y-76012894D01*
X112796986Y-76043351D01*
X112807011Y-76076400D01*
X112811000Y-76116904D01*
X112811000Y-77553096D01*
X112807011Y-77593600D01*
X112796986Y-77626649D01*
X112780706Y-77657106D01*
X112758799Y-77683799D01*
X112732106Y-77705706D01*
X112701649Y-77721986D01*
X112668600Y-77732011D01*
X112628096Y-77736000D01*
X110891904Y-77736000D01*
X110851400Y-77732011D01*
X110818351Y-77721986D01*
X110787894Y-77705706D01*
X110761201Y-77683799D01*
X110739294Y-77657106D01*
X110723014Y-77626649D01*
X110712989Y-77593600D01*
X110709000Y-77553096D01*
X110709000Y-76116904D01*
X110712989Y-76076400D01*
X110723014Y-76043351D01*
X110739294Y-76012894D01*
X110761201Y-75986201D01*
X110787894Y-75964294D01*
X110818351Y-75948014D01*
X110851400Y-75937989D01*
X110891904Y-75934000D01*
X112628096Y-75934000D01*
X112668600Y-75937989D01*
X112668600Y-75937989D01*
G37*
G36*
X115807142Y-75418242D02*
X115955102Y-75479530D01*
X116088258Y-75568502D01*
X116201498Y-75681742D01*
X116290470Y-75814898D01*
X116351758Y-75962858D01*
X116383000Y-76119925D01*
X116383000Y-76280075D01*
X116351758Y-76437142D01*
X116290470Y-76585102D01*
X116270136Y-76615534D01*
X116201499Y-76718257D01*
X116088257Y-76831499D01*
X116033274Y-76868237D01*
X115955102Y-76920470D01*
X115807142Y-76981758D01*
X115650075Y-77013000D01*
X115489925Y-77013000D01*
X115332858Y-76981758D01*
X115184898Y-76920470D01*
X115106726Y-76868237D01*
X115051743Y-76831499D01*
X114938501Y-76718257D01*
X114869864Y-76615534D01*
X114849530Y-76585102D01*
X114788242Y-76437142D01*
X114757000Y-76280075D01*
X114757000Y-76119925D01*
X114788242Y-75962858D01*
X114849530Y-75814898D01*
X114938502Y-75681742D01*
X115051742Y-75568502D01*
X115184898Y-75479530D01*
X115332858Y-75418242D01*
X115489925Y-75387000D01*
X115650075Y-75387000D01*
X115807142Y-75418242D01*
X115807142Y-75418242D01*
G37*
G36*
X95487142Y-75418242D02*
X95635102Y-75479530D01*
X95768258Y-75568502D01*
X95881498Y-75681742D01*
X95970470Y-75814898D01*
X96031758Y-75962858D01*
X96063000Y-76119925D01*
X96063000Y-76280075D01*
X96031758Y-76437142D01*
X95970470Y-76585102D01*
X95950136Y-76615534D01*
X95881499Y-76718257D01*
X95768257Y-76831499D01*
X95713274Y-76868237D01*
X95635102Y-76920470D01*
X95487142Y-76981758D01*
X95330075Y-77013000D01*
X95169925Y-77013000D01*
X95012858Y-76981758D01*
X94864898Y-76920470D01*
X94786726Y-76868237D01*
X94731743Y-76831499D01*
X94618501Y-76718257D01*
X94549864Y-76615534D01*
X94529530Y-76585102D01*
X94468242Y-76437142D01*
X94437000Y-76280075D01*
X94437000Y-76119925D01*
X94468242Y-75962858D01*
X94529530Y-75814898D01*
X94618502Y-75681742D01*
X94731742Y-75568502D01*
X94864898Y-75479530D01*
X95012858Y-75418242D01*
X95169925Y-75387000D01*
X95330075Y-75387000D01*
X95487142Y-75418242D01*
X95487142Y-75418242D01*
G37*
G36*
X101676466Y-75915465D02*
X101715137Y-75927196D01*
X101750779Y-75946248D01*
X101782017Y-75971883D01*
X101807652Y-76003121D01*
X101826704Y-76038763D01*
X101838435Y-76077434D01*
X101843000Y-76123788D01*
X101843000Y-76775012D01*
X101838435Y-76821366D01*
X101826704Y-76860037D01*
X101807652Y-76895679D01*
X101782017Y-76926917D01*
X101750779Y-76952552D01*
X101715137Y-76971604D01*
X101676466Y-76983335D01*
X101630112Y-76987900D01*
X100553888Y-76987900D01*
X100507534Y-76983335D01*
X100468863Y-76971604D01*
X100433221Y-76952552D01*
X100401983Y-76926917D01*
X100376348Y-76895679D01*
X100357296Y-76860037D01*
X100345565Y-76821366D01*
X100341000Y-76775012D01*
X100341000Y-76123788D01*
X100345565Y-76077434D01*
X100357296Y-76038763D01*
X100376348Y-76003121D01*
X100401983Y-75971883D01*
X100433221Y-75946248D01*
X100468863Y-75927196D01*
X100507534Y-75915465D01*
X100553888Y-75910900D01*
X101630112Y-75910900D01*
X101676466Y-75915465D01*
X101676466Y-75915465D01*
G37*
G36*
X99453000Y-75323000D02*
X97651000Y-75323000D01*
X97651000Y-73521000D01*
X99453000Y-73521000D01*
X99453000Y-75323000D01*
X99453000Y-75323000D01*
G37*
G36*
X101676466Y-74040465D02*
X101715137Y-74052196D01*
X101750779Y-74071248D01*
X101782017Y-74096883D01*
X101807652Y-74128121D01*
X101826704Y-74163763D01*
X101838435Y-74202434D01*
X101843000Y-74248788D01*
X101843000Y-74900012D01*
X101838435Y-74946366D01*
X101826704Y-74985037D01*
X101807652Y-75020679D01*
X101782017Y-75051917D01*
X101750779Y-75077552D01*
X101715137Y-75096604D01*
X101676466Y-75108335D01*
X101630112Y-75112900D01*
X100553888Y-75112900D01*
X100507534Y-75108335D01*
X100468863Y-75096604D01*
X100433221Y-75077552D01*
X100401983Y-75051917D01*
X100376348Y-75020679D01*
X100357296Y-74985037D01*
X100345565Y-74946366D01*
X100341000Y-74900012D01*
X100341000Y-74248788D01*
X100345565Y-74202434D01*
X100357296Y-74163763D01*
X100376348Y-74128121D01*
X100401983Y-74096883D01*
X100433221Y-74071248D01*
X100468863Y-74052196D01*
X100507534Y-74040465D01*
X100553888Y-74035900D01*
X101630112Y-74035900D01*
X101676466Y-74040465D01*
X101676466Y-74040465D01*
G37*
G36*
X115807142Y-72878242D02*
X115955102Y-72939530D01*
X115988630Y-72961933D01*
X116049103Y-73002339D01*
X116088258Y-73028502D01*
X116201498Y-73141742D01*
X116290470Y-73274898D01*
X116351758Y-73422858D01*
X116383000Y-73579925D01*
X116383000Y-73740075D01*
X116351758Y-73897142D01*
X116318221Y-73978107D01*
X116292139Y-74041074D01*
X116290470Y-74045102D01*
X116255871Y-74096883D01*
X116201499Y-74178257D01*
X116088257Y-74291499D01*
X116022130Y-74335683D01*
X115955102Y-74380470D01*
X115807142Y-74441758D01*
X115650075Y-74473000D01*
X115489925Y-74473000D01*
X115332858Y-74441758D01*
X115184898Y-74380470D01*
X115117870Y-74335683D01*
X115051743Y-74291499D01*
X114938501Y-74178257D01*
X114884129Y-74096883D01*
X114849530Y-74045102D01*
X114847862Y-74041074D01*
X114821779Y-73978107D01*
X114788242Y-73897142D01*
X114757000Y-73740075D01*
X114757000Y-73579925D01*
X114788242Y-73422858D01*
X114849530Y-73274898D01*
X114938502Y-73141742D01*
X115051742Y-73028502D01*
X115090898Y-73002339D01*
X115151370Y-72961933D01*
X115184898Y-72939530D01*
X115332858Y-72878242D01*
X115489925Y-72847000D01*
X115650075Y-72847000D01*
X115807142Y-72878242D01*
X115807142Y-72878242D01*
G37*
G36*
X95487142Y-72878242D02*
X95635102Y-72939530D01*
X95668630Y-72961933D01*
X95729103Y-73002339D01*
X95768258Y-73028502D01*
X95881498Y-73141742D01*
X95970470Y-73274898D01*
X96031758Y-73422858D01*
X96063000Y-73579925D01*
X96063000Y-73740075D01*
X96031758Y-73897142D01*
X95998221Y-73978107D01*
X95972139Y-74041074D01*
X95970470Y-74045102D01*
X95935871Y-74096883D01*
X95881499Y-74178257D01*
X95768257Y-74291499D01*
X95702130Y-74335683D01*
X95635102Y-74380470D01*
X95487142Y-74441758D01*
X95330075Y-74473000D01*
X95169925Y-74473000D01*
X95012858Y-74441758D01*
X94864898Y-74380470D01*
X94797870Y-74335683D01*
X94731743Y-74291499D01*
X94618501Y-74178257D01*
X94564129Y-74096883D01*
X94529530Y-74045102D01*
X94527862Y-74041074D01*
X94501779Y-73978107D01*
X94468242Y-73897142D01*
X94437000Y-73740075D01*
X94437000Y-73579925D01*
X94468242Y-73422858D01*
X94529530Y-73274898D01*
X94618502Y-73141742D01*
X94731742Y-73028502D01*
X94770898Y-73002339D01*
X94831370Y-72961933D01*
X94864898Y-72939530D01*
X95012858Y-72878242D01*
X95169925Y-72847000D01*
X95330075Y-72847000D01*
X95487142Y-72878242D01*
X95487142Y-72878242D01*
G37*
G36*
X105345691Y-72934885D02*
X105379669Y-72945193D01*
X105410987Y-72961933D01*
X105438439Y-72984461D01*
X105460967Y-73011913D01*
X105477707Y-73043231D01*
X105488015Y-73077209D01*
X105492100Y-73118690D01*
X105492100Y-73794910D01*
X105488015Y-73836391D01*
X105477707Y-73870369D01*
X105460967Y-73901687D01*
X105438439Y-73929139D01*
X105410987Y-73951667D01*
X105379669Y-73968407D01*
X105345691Y-73978715D01*
X105304210Y-73982800D01*
X104702990Y-73982800D01*
X104661509Y-73978715D01*
X104627531Y-73968407D01*
X104596213Y-73951667D01*
X104568761Y-73929139D01*
X104546233Y-73901687D01*
X104529493Y-73870369D01*
X104519185Y-73836391D01*
X104515100Y-73794910D01*
X104515100Y-73118690D01*
X104519185Y-73077209D01*
X104529493Y-73043231D01*
X104546233Y-73011913D01*
X104568761Y-72984461D01*
X104596213Y-72961933D01*
X104627531Y-72945193D01*
X104661509Y-72934885D01*
X104702990Y-72930800D01*
X105304210Y-72930800D01*
X105345691Y-72934885D01*
X105345691Y-72934885D01*
G37*
G36*
X103770691Y-72934885D02*
X103804669Y-72945193D01*
X103835987Y-72961933D01*
X103863439Y-72984461D01*
X103885967Y-73011913D01*
X103902707Y-73043231D01*
X103913015Y-73077209D01*
X103917100Y-73118690D01*
X103917100Y-73794910D01*
X103913015Y-73836391D01*
X103902707Y-73870369D01*
X103885967Y-73901687D01*
X103863439Y-73929139D01*
X103835987Y-73951667D01*
X103804669Y-73968407D01*
X103770691Y-73978715D01*
X103729210Y-73982800D01*
X103127990Y-73982800D01*
X103086509Y-73978715D01*
X103052531Y-73968407D01*
X103021213Y-73951667D01*
X102993761Y-73929139D01*
X102971233Y-73901687D01*
X102954493Y-73870369D01*
X102944185Y-73836391D01*
X102940100Y-73794910D01*
X102940100Y-73118690D01*
X102944185Y-73077209D01*
X102954493Y-73043231D01*
X102971233Y-73011913D01*
X102993761Y-72984461D01*
X103021213Y-72961933D01*
X103052531Y-72945193D01*
X103086509Y-72934885D01*
X103127990Y-72930800D01*
X103729210Y-72930800D01*
X103770691Y-72934885D01*
X103770691Y-72934885D01*
G37*
G36*
X111734866Y-70636865D02*
X111773537Y-70648596D01*
X111809179Y-70667648D01*
X111840417Y-70693283D01*
X111866052Y-70724521D01*
X111885104Y-70760163D01*
X111896835Y-70798834D01*
X111901400Y-70845188D01*
X111901400Y-71496412D01*
X111896835Y-71542766D01*
X111885104Y-71581437D01*
X111866052Y-71617079D01*
X111840417Y-71648317D01*
X111809179Y-71673952D01*
X111773537Y-71693004D01*
X111734866Y-71704735D01*
X111688512Y-71709300D01*
X110612288Y-71709300D01*
X110565934Y-71704735D01*
X110527263Y-71693004D01*
X110491621Y-71673952D01*
X110460383Y-71648317D01*
X110434748Y-71617079D01*
X110415696Y-71581437D01*
X110403965Y-71542766D01*
X110399400Y-71496412D01*
X110399400Y-70845188D01*
X110403965Y-70798834D01*
X110415696Y-70760163D01*
X110434748Y-70724521D01*
X110460383Y-70693283D01*
X110491621Y-70667648D01*
X110527263Y-70648596D01*
X110565934Y-70636865D01*
X110612288Y-70632300D01*
X111688512Y-70632300D01*
X111734866Y-70636865D01*
X111734866Y-70636865D01*
G37*
G36*
X108128066Y-70581465D02*
X108166737Y-70593196D01*
X108202379Y-70612248D01*
X108233617Y-70637883D01*
X108259252Y-70669121D01*
X108278304Y-70704763D01*
X108290035Y-70743434D01*
X108294600Y-70789788D01*
X108294600Y-71441012D01*
X108290035Y-71487366D01*
X108278304Y-71526037D01*
X108259252Y-71561679D01*
X108233617Y-71592917D01*
X108202379Y-71618552D01*
X108166737Y-71637604D01*
X108128066Y-71649335D01*
X108081712Y-71653900D01*
X107005488Y-71653900D01*
X106959134Y-71649335D01*
X106920463Y-71637604D01*
X106884821Y-71618552D01*
X106853583Y-71592917D01*
X106827948Y-71561679D01*
X106808896Y-71526037D01*
X106797165Y-71487366D01*
X106792600Y-71441012D01*
X106792600Y-70789788D01*
X106797165Y-70743434D01*
X106808896Y-70704763D01*
X106827948Y-70669121D01*
X106853583Y-70637883D01*
X106884821Y-70612248D01*
X106920463Y-70593196D01*
X106959134Y-70581465D01*
X107005488Y-70576900D01*
X108081712Y-70576900D01*
X108128066Y-70581465D01*
X108128066Y-70581465D01*
G37*
G36*
X111734866Y-68761865D02*
X111773537Y-68773596D01*
X111809179Y-68792648D01*
X111840417Y-68818283D01*
X111866052Y-68849521D01*
X111885104Y-68885163D01*
X111896835Y-68923834D01*
X111901400Y-68970188D01*
X111901400Y-69621412D01*
X111896835Y-69667766D01*
X111885104Y-69706437D01*
X111866052Y-69742079D01*
X111840417Y-69773317D01*
X111809179Y-69798952D01*
X111773537Y-69818004D01*
X111734866Y-69829735D01*
X111688512Y-69834300D01*
X110612288Y-69834300D01*
X110565934Y-69829735D01*
X110527263Y-69818004D01*
X110491621Y-69798952D01*
X110460383Y-69773317D01*
X110434748Y-69742079D01*
X110415696Y-69706437D01*
X110403965Y-69667766D01*
X110399400Y-69621412D01*
X110399400Y-68970188D01*
X110403965Y-68923834D01*
X110415696Y-68885163D01*
X110434748Y-68849521D01*
X110460383Y-68818283D01*
X110491621Y-68792648D01*
X110527263Y-68773596D01*
X110565934Y-68761865D01*
X110612288Y-68757300D01*
X111688512Y-68757300D01*
X111734866Y-68761865D01*
X111734866Y-68761865D01*
G37*
G36*
X108128066Y-68706465D02*
X108166737Y-68718196D01*
X108202379Y-68737248D01*
X108233617Y-68762883D01*
X108259252Y-68794121D01*
X108278304Y-68829763D01*
X108290035Y-68868434D01*
X108294600Y-68914788D01*
X108294600Y-69566012D01*
X108290035Y-69612366D01*
X108278304Y-69651037D01*
X108259252Y-69686679D01*
X108233617Y-69717917D01*
X108202379Y-69743552D01*
X108166737Y-69762604D01*
X108128066Y-69774335D01*
X108081712Y-69778900D01*
X107005488Y-69778900D01*
X106959134Y-69774335D01*
X106920463Y-69762604D01*
X106884821Y-69743552D01*
X106853583Y-69717917D01*
X106827948Y-69686679D01*
X106808896Y-69651037D01*
X106797165Y-69612366D01*
X106792600Y-69566012D01*
X106792600Y-68914788D01*
X106797165Y-68868434D01*
X106808896Y-68829763D01*
X106827948Y-68794121D01*
X106853583Y-68762883D01*
X106884821Y-68737248D01*
X106920463Y-68718196D01*
X106959134Y-68706465D01*
X107005488Y-68701900D01*
X108081712Y-68701900D01*
X108128066Y-68706465D01*
X108128066Y-68706465D01*
G37*
G36*
X113708000Y-67037000D02*
X112156000Y-67037000D01*
X112156000Y-64535000D01*
X113708000Y-64535000D01*
X113708000Y-67037000D01*
X113708000Y-67037000D01*
G37*
G36*
X107808000Y-67037000D02*
X106256000Y-67037000D01*
X106256000Y-64535000D01*
X107808000Y-64535000D01*
X107808000Y-67037000D01*
X107808000Y-67037000D01*
G37*
G36*
X99196626Y-63732037D02*
X99309852Y-63766384D01*
X99366466Y-63783557D01*
X99522989Y-63867221D01*
X99660186Y-63979814D01*
X99743448Y-64081271D01*
X99772778Y-64117009D01*
X99772779Y-64117011D01*
X99856443Y-64273533D01*
X99873616Y-64330147D01*
X99907963Y-64443373D01*
X99921000Y-64575742D01*
X99921000Y-64964257D01*
X99907963Y-65096626D01*
X99856443Y-65266466D01*
X99772778Y-65422991D01*
X99772777Y-65422992D01*
X99660186Y-65560186D01*
X99565251Y-65638096D01*
X99522991Y-65672778D01*
X99522989Y-65672779D01*
X99366467Y-65756443D01*
X99325734Y-65768799D01*
X99196627Y-65807963D01*
X99020000Y-65825359D01*
X98843374Y-65807963D01*
X98714267Y-65768799D01*
X98673534Y-65756443D01*
X98517012Y-65672779D01*
X98517010Y-65672778D01*
X98379816Y-65560186D01*
X98379812Y-65560183D01*
X98267222Y-65422992D01*
X98183557Y-65266467D01*
X98158845Y-65185000D01*
X98132037Y-65096627D01*
X98119000Y-64964258D01*
X98119000Y-64575743D01*
X98132037Y-64443374D01*
X98183557Y-64273535D01*
X98183557Y-64273534D01*
X98267221Y-64117011D01*
X98379814Y-63979814D01*
X98481271Y-63896552D01*
X98517009Y-63867222D01*
X98534913Y-63857652D01*
X98673533Y-63783557D01*
X98730147Y-63766384D01*
X98843373Y-63732037D01*
X99020000Y-63714641D01*
X99196626Y-63732037D01*
X99196626Y-63732037D01*
G37*
G36*
X97278600Y-63722989D02*
X97311649Y-63733014D01*
X97342106Y-63749294D01*
X97368799Y-63771201D01*
X97390706Y-63797894D01*
X97406986Y-63828351D01*
X97417011Y-63861400D01*
X97421000Y-63901904D01*
X97421000Y-65638096D01*
X97417011Y-65678600D01*
X97406986Y-65711649D01*
X97390706Y-65742106D01*
X97368799Y-65768799D01*
X97342106Y-65790706D01*
X97311649Y-65806986D01*
X97278600Y-65817011D01*
X97238096Y-65821000D01*
X95801904Y-65821000D01*
X95761400Y-65817011D01*
X95728351Y-65806986D01*
X95697894Y-65790706D01*
X95671201Y-65768799D01*
X95649294Y-65742106D01*
X95633014Y-65711649D01*
X95622989Y-65678600D01*
X95619000Y-65638096D01*
X95619000Y-63901904D01*
X95622989Y-63861400D01*
X95633014Y-63828351D01*
X95649294Y-63797894D01*
X95671201Y-63771201D01*
X95697894Y-63749294D01*
X95728351Y-63733014D01*
X95761400Y-63722989D01*
X95801904Y-63719000D01*
X97238096Y-63719000D01*
X97278600Y-63722989D01*
X97278600Y-63722989D01*
G37*
G36*
X106057091Y-59803085D02*
X106091069Y-59813393D01*
X106122387Y-59830133D01*
X106149839Y-59852661D01*
X106172367Y-59880113D01*
X106189107Y-59911431D01*
X106199415Y-59945409D01*
X106203500Y-59986890D01*
X106203500Y-60663110D01*
X106199415Y-60704591D01*
X106189107Y-60738569D01*
X106172367Y-60769887D01*
X106149839Y-60797339D01*
X106122387Y-60819867D01*
X106091069Y-60836607D01*
X106057091Y-60846915D01*
X106015610Y-60851000D01*
X105414390Y-60851000D01*
X105372909Y-60846915D01*
X105338931Y-60836607D01*
X105307613Y-60819867D01*
X105280161Y-60797339D01*
X105257633Y-60769887D01*
X105240893Y-60738569D01*
X105230585Y-60704591D01*
X105226500Y-60663110D01*
X105226500Y-59986890D01*
X105230585Y-59945409D01*
X105240893Y-59911431D01*
X105257633Y-59880113D01*
X105280161Y-59852661D01*
X105307613Y-59830133D01*
X105338931Y-59813393D01*
X105372909Y-59803085D01*
X105414390Y-59799000D01*
X106015610Y-59799000D01*
X106057091Y-59803085D01*
X106057091Y-59803085D01*
G37*
G36*
X104482091Y-59803085D02*
X104516069Y-59813393D01*
X104547387Y-59830133D01*
X104574839Y-59852661D01*
X104597367Y-59880113D01*
X104614107Y-59911431D01*
X104624415Y-59945409D01*
X104628500Y-59986890D01*
X104628500Y-60663110D01*
X104624415Y-60704591D01*
X104614107Y-60738569D01*
X104597367Y-60769887D01*
X104574839Y-60797339D01*
X104547387Y-60819867D01*
X104516069Y-60836607D01*
X104482091Y-60846915D01*
X104440610Y-60851000D01*
X103839390Y-60851000D01*
X103797909Y-60846915D01*
X103763931Y-60836607D01*
X103732613Y-60819867D01*
X103705161Y-60797339D01*
X103682633Y-60769887D01*
X103665893Y-60738569D01*
X103655585Y-60704591D01*
X103651500Y-60663110D01*
X103651500Y-59986890D01*
X103655585Y-59945409D01*
X103665893Y-59911431D01*
X103682633Y-59880113D01*
X103705161Y-59852661D01*
X103732613Y-59830133D01*
X103763931Y-59813393D01*
X103797909Y-59803085D01*
X103839390Y-59799000D01*
X104440610Y-59799000D01*
X104482091Y-59803085D01*
X104482091Y-59803085D01*
G37*
G36*
X96736627Y-58652037D02*
X96849853Y-58686384D01*
X96906467Y-58703557D01*
X97045087Y-58777652D01*
X97062991Y-58787222D01*
X97098729Y-58816552D01*
X97200186Y-58899814D01*
X97283448Y-59001271D01*
X97312778Y-59037009D01*
X97396443Y-59193534D01*
X97447963Y-59363374D01*
X97461000Y-59495743D01*
X97461000Y-59884258D01*
X97447963Y-60016627D01*
X97439887Y-60043250D01*
X97396443Y-60186467D01*
X97322348Y-60325087D01*
X97312778Y-60342991D01*
X97283448Y-60378729D01*
X97200186Y-60480186D01*
X97062989Y-60592779D01*
X96906466Y-60676443D01*
X96865733Y-60688799D01*
X96736626Y-60727963D01*
X96560000Y-60745359D01*
X96383373Y-60727963D01*
X96254266Y-60688799D01*
X96213533Y-60676443D01*
X96057011Y-60592779D01*
X96057009Y-60592778D01*
X96014749Y-60558096D01*
X95919814Y-60480186D01*
X95807221Y-60342989D01*
X95723557Y-60186466D01*
X95706384Y-60129852D01*
X95672037Y-60016626D01*
X95659000Y-59884257D01*
X95659000Y-59495742D01*
X95672037Y-59363373D01*
X95723557Y-59193534D01*
X95723557Y-59193533D01*
X95807222Y-59037008D01*
X95919812Y-58899817D01*
X96014750Y-58821904D01*
X96057010Y-58787222D01*
X96074914Y-58777652D01*
X96213534Y-58703557D01*
X96270148Y-58686384D01*
X96383374Y-58652037D01*
X96560000Y-58634641D01*
X96736627Y-58652037D01*
X96736627Y-58652037D01*
G37*
G36*
X99818600Y-58642989D02*
X99851649Y-58653014D01*
X99882106Y-58669294D01*
X99908799Y-58691201D01*
X99930706Y-58717894D01*
X99946986Y-58748351D01*
X99957011Y-58781400D01*
X99961000Y-58821904D01*
X99961000Y-60558096D01*
X99957011Y-60598600D01*
X99946986Y-60631649D01*
X99930706Y-60662106D01*
X99908799Y-60688799D01*
X99882106Y-60710706D01*
X99851649Y-60726986D01*
X99818600Y-60737011D01*
X99778096Y-60741000D01*
X98341904Y-60741000D01*
X98301400Y-60737011D01*
X98268351Y-60726986D01*
X98237894Y-60710706D01*
X98211201Y-60688799D01*
X98189294Y-60662106D01*
X98173014Y-60631649D01*
X98162989Y-60598600D01*
X98159000Y-60558096D01*
X98159000Y-58821904D01*
X98162989Y-58781400D01*
X98173014Y-58748351D01*
X98189294Y-58717894D01*
X98211201Y-58691201D01*
X98237894Y-58669294D01*
X98268351Y-58653014D01*
X98301400Y-58642989D01*
X98341904Y-58639000D01*
X99778096Y-58639000D01*
X99818600Y-58642989D01*
X99818600Y-58642989D01*
G37*
M02*
