G04 #@! TF.GenerationSoftware,KiCad,Pcbnew,(5.0.1)-rc2*
G04 #@! TF.CreationDate,2019-05-10T17:03:12-07:00*
G04 #@! TF.ProjectId,weatherStation,7765617468657253746174696F6E2E6B,rev?*
G04 #@! TF.SameCoordinates,Original*
G04 #@! TF.FileFunction,Legend,Bot*
G04 #@! TF.FilePolarity,Positive*
%FSLAX46Y46*%
G04 Gerber Fmt 4.6, Leading zero omitted, Abs format (unit mm)*
G04 Created by KiCad (PCBNEW (5.0.1)-rc2) date 5/10/2019 5:03:12 PM*
%MOMM*%
%LPD*%
G01*
G04 APERTURE LIST*
%ADD10C,0.150000*%
%ADD11C,0.120000*%
G04 APERTURE END LIST*
D10*
X107166514Y-54474191D02*
X107059371Y-54509905D01*
X106880800Y-54509905D01*
X106809371Y-54474191D01*
X106773657Y-54438477D01*
X106737942Y-54367048D01*
X106737942Y-54295620D01*
X106773657Y-54224191D01*
X106809371Y-54188477D01*
X106880800Y-54152762D01*
X107023657Y-54117048D01*
X107095085Y-54081334D01*
X107130800Y-54045620D01*
X107166514Y-53974191D01*
X107166514Y-53902762D01*
X107130800Y-53831334D01*
X107095085Y-53795620D01*
X107023657Y-53759905D01*
X106845085Y-53759905D01*
X106737942Y-53795620D01*
X106095085Y-54474191D02*
X106166514Y-54509905D01*
X106309371Y-54509905D01*
X106380800Y-54474191D01*
X106416514Y-54438477D01*
X106452228Y-54367048D01*
X106452228Y-54152762D01*
X106416514Y-54081334D01*
X106380800Y-54045620D01*
X106309371Y-54009905D01*
X106166514Y-54009905D01*
X106095085Y-54045620D01*
X105666514Y-54509905D02*
X105737942Y-54474191D01*
X105773657Y-54438477D01*
X105809371Y-54367048D01*
X105809371Y-54152762D01*
X105773657Y-54081334D01*
X105737942Y-54045620D01*
X105666514Y-54009905D01*
X105559371Y-54009905D01*
X105487942Y-54045620D01*
X105452228Y-54081334D01*
X105416514Y-54152762D01*
X105416514Y-54367048D01*
X105452228Y-54438477D01*
X105487942Y-54474191D01*
X105559371Y-54509905D01*
X105666514Y-54509905D01*
X105202228Y-54009905D02*
X104916514Y-54009905D01*
X105095085Y-53759905D02*
X105095085Y-54402762D01*
X105059371Y-54474191D01*
X104987942Y-54509905D01*
X104916514Y-54509905D01*
X104773657Y-54009905D02*
X104487942Y-54009905D01*
X104666514Y-53759905D02*
X104666514Y-54402762D01*
X104630800Y-54474191D01*
X104559371Y-54509905D01*
X104487942Y-54509905D01*
X104202228Y-53759905D02*
X104273657Y-53902762D01*
X103916514Y-54474191D02*
X103845085Y-54509905D01*
X103702228Y-54509905D01*
X103630800Y-54474191D01*
X103595085Y-54402762D01*
X103595085Y-54367048D01*
X103630800Y-54295620D01*
X103702228Y-54259905D01*
X103809371Y-54259905D01*
X103880800Y-54224191D01*
X103916514Y-54152762D01*
X103916514Y-54117048D01*
X103880800Y-54045620D01*
X103809371Y-54009905D01*
X103702228Y-54009905D01*
X103630800Y-54045620D01*
X102273657Y-54438477D02*
X102309371Y-54474191D01*
X102416514Y-54509905D01*
X102487942Y-54509905D01*
X102595085Y-54474191D01*
X102666514Y-54402762D01*
X102702228Y-54331334D01*
X102737942Y-54188477D01*
X102737942Y-54081334D01*
X102702228Y-53938477D01*
X102666514Y-53867048D01*
X102595085Y-53795620D01*
X102487942Y-53759905D01*
X102416514Y-53759905D01*
X102309371Y-53795620D01*
X102273657Y-53831334D01*
X101952228Y-54509905D02*
X101952228Y-54009905D01*
X101952228Y-54152762D02*
X101916514Y-54081334D01*
X101880800Y-54045620D01*
X101809371Y-54009905D01*
X101737942Y-54009905D01*
X101202228Y-54474191D02*
X101273657Y-54509905D01*
X101416514Y-54509905D01*
X101487942Y-54474191D01*
X101523657Y-54402762D01*
X101523657Y-54117048D01*
X101487942Y-54045620D01*
X101416514Y-54009905D01*
X101273657Y-54009905D01*
X101202228Y-54045620D01*
X101166514Y-54117048D01*
X101166514Y-54188477D01*
X101523657Y-54259905D01*
X100523657Y-54509905D02*
X100523657Y-54117048D01*
X100559371Y-54045620D01*
X100630800Y-54009905D01*
X100773657Y-54009905D01*
X100845085Y-54045620D01*
X100523657Y-54474191D02*
X100595085Y-54509905D01*
X100773657Y-54509905D01*
X100845085Y-54474191D01*
X100880800Y-54402762D01*
X100880800Y-54331334D01*
X100845085Y-54259905D01*
X100773657Y-54224191D01*
X100595085Y-54224191D01*
X100523657Y-54188477D01*
X100273657Y-54009905D02*
X99987942Y-54009905D01*
X100166514Y-53759905D02*
X100166514Y-54402762D01*
X100130800Y-54474191D01*
X100059371Y-54509905D01*
X99987942Y-54509905D01*
X99737942Y-54509905D02*
X99737942Y-54009905D01*
X99737942Y-53759905D02*
X99773657Y-53795620D01*
X99737942Y-53831334D01*
X99702228Y-53795620D01*
X99737942Y-53759905D01*
X99737942Y-53831334D01*
X99452228Y-54009905D02*
X99273657Y-54509905D01*
X99095085Y-54009905D01*
X98523657Y-54474191D02*
X98595085Y-54509905D01*
X98737942Y-54509905D01*
X98809371Y-54474191D01*
X98845085Y-54402762D01*
X98845085Y-54117048D01*
X98809371Y-54045620D01*
X98737942Y-54009905D01*
X98595085Y-54009905D01*
X98523657Y-54045620D01*
X98487942Y-54117048D01*
X98487942Y-54188477D01*
X98845085Y-54259905D01*
X97595085Y-54509905D02*
X97595085Y-53759905D01*
X97416514Y-53759905D01*
X97309371Y-53795620D01*
X97237942Y-53867048D01*
X97202228Y-53938477D01*
X97166514Y-54081334D01*
X97166514Y-54188477D01*
X97202228Y-54331334D01*
X97237942Y-54402762D01*
X97309371Y-54474191D01*
X97416514Y-54509905D01*
X97595085Y-54509905D01*
X96559371Y-54474191D02*
X96630800Y-54509905D01*
X96773657Y-54509905D01*
X96845085Y-54474191D01*
X96880800Y-54402762D01*
X96880800Y-54117048D01*
X96845085Y-54045620D01*
X96773657Y-54009905D01*
X96630800Y-54009905D01*
X96559371Y-54045620D01*
X96523657Y-54117048D01*
X96523657Y-54188477D01*
X96880800Y-54259905D01*
X96237942Y-54474191D02*
X96166514Y-54509905D01*
X96023657Y-54509905D01*
X95952228Y-54474191D01*
X95916514Y-54402762D01*
X95916514Y-54367048D01*
X95952228Y-54295620D01*
X96023657Y-54259905D01*
X96130800Y-54259905D01*
X96202228Y-54224191D01*
X96237942Y-54152762D01*
X96237942Y-54117048D01*
X96202228Y-54045620D01*
X96130800Y-54009905D01*
X96023657Y-54009905D01*
X95952228Y-54045620D01*
X95595085Y-54509905D02*
X95595085Y-54009905D01*
X95595085Y-53759905D02*
X95630800Y-53795620D01*
X95595085Y-53831334D01*
X95559371Y-53795620D01*
X95595085Y-53759905D01*
X95595085Y-53831334D01*
X94916514Y-54009905D02*
X94916514Y-54617048D01*
X94952228Y-54688477D01*
X94987942Y-54724191D01*
X95059371Y-54759905D01*
X95166514Y-54759905D01*
X95237942Y-54724191D01*
X94916514Y-54474191D02*
X94987942Y-54509905D01*
X95130800Y-54509905D01*
X95202228Y-54474191D01*
X95237942Y-54438477D01*
X95273657Y-54367048D01*
X95273657Y-54152762D01*
X95237942Y-54081334D01*
X95202228Y-54045620D01*
X95130800Y-54009905D01*
X94987942Y-54009905D01*
X94916514Y-54045620D01*
X94559371Y-54009905D02*
X94559371Y-54509905D01*
X94559371Y-54081334D02*
X94523657Y-54045620D01*
X94452228Y-54009905D01*
X94345085Y-54009905D01*
X94273657Y-54045620D01*
X94237942Y-54117048D01*
X94237942Y-54509905D01*
X93916514Y-54474191D02*
X93845085Y-54509905D01*
X93702228Y-54509905D01*
X93630800Y-54474191D01*
X93595085Y-54402762D01*
X93595085Y-54367048D01*
X93630800Y-54295620D01*
X93702228Y-54259905D01*
X93809371Y-54259905D01*
X93880800Y-54224191D01*
X93916514Y-54152762D01*
X93916514Y-54117048D01*
X93880800Y-54045620D01*
X93809371Y-54009905D01*
X93702228Y-54009905D01*
X93630800Y-54045620D01*
X105702228Y-55034905D02*
X105523657Y-55784905D01*
X105380800Y-55249191D01*
X105237942Y-55784905D01*
X105059371Y-55034905D01*
X104487942Y-55749191D02*
X104559371Y-55784905D01*
X104702228Y-55784905D01*
X104773657Y-55749191D01*
X104809371Y-55677762D01*
X104809371Y-55392048D01*
X104773657Y-55320620D01*
X104702228Y-55284905D01*
X104559371Y-55284905D01*
X104487942Y-55320620D01*
X104452228Y-55392048D01*
X104452228Y-55463477D01*
X104809371Y-55534905D01*
X103809371Y-55784905D02*
X103809371Y-55392048D01*
X103845085Y-55320620D01*
X103916514Y-55284905D01*
X104059371Y-55284905D01*
X104130800Y-55320620D01*
X103809371Y-55749191D02*
X103880800Y-55784905D01*
X104059371Y-55784905D01*
X104130800Y-55749191D01*
X104166514Y-55677762D01*
X104166514Y-55606334D01*
X104130800Y-55534905D01*
X104059371Y-55499191D01*
X103880800Y-55499191D01*
X103809371Y-55463477D01*
X103559371Y-55284905D02*
X103273657Y-55284905D01*
X103452228Y-55034905D02*
X103452228Y-55677762D01*
X103416514Y-55749191D01*
X103345085Y-55784905D01*
X103273657Y-55784905D01*
X103023657Y-55784905D02*
X103023657Y-55034905D01*
X102702228Y-55784905D02*
X102702228Y-55392048D01*
X102737942Y-55320620D01*
X102809371Y-55284905D01*
X102916514Y-55284905D01*
X102987942Y-55320620D01*
X103023657Y-55356334D01*
X102059371Y-55749191D02*
X102130800Y-55784905D01*
X102273657Y-55784905D01*
X102345085Y-55749191D01*
X102380800Y-55677762D01*
X102380800Y-55392048D01*
X102345085Y-55320620D01*
X102273657Y-55284905D01*
X102130800Y-55284905D01*
X102059371Y-55320620D01*
X102023657Y-55392048D01*
X102023657Y-55463477D01*
X102380800Y-55534905D01*
X101702228Y-55784905D02*
X101702228Y-55284905D01*
X101702228Y-55427762D02*
X101666514Y-55356334D01*
X101630800Y-55320620D01*
X101559371Y-55284905D01*
X101487942Y-55284905D01*
X100702228Y-55749191D02*
X100595085Y-55784905D01*
X100416514Y-55784905D01*
X100345085Y-55749191D01*
X100309371Y-55713477D01*
X100273657Y-55642048D01*
X100273657Y-55570620D01*
X100309371Y-55499191D01*
X100345085Y-55463477D01*
X100416514Y-55427762D01*
X100559371Y-55392048D01*
X100630800Y-55356334D01*
X100666514Y-55320620D01*
X100702228Y-55249191D01*
X100702228Y-55177762D01*
X100666514Y-55106334D01*
X100630800Y-55070620D01*
X100559371Y-55034905D01*
X100380800Y-55034905D01*
X100273657Y-55070620D01*
X100059371Y-55284905D02*
X99773657Y-55284905D01*
X99952228Y-55034905D02*
X99952228Y-55677762D01*
X99916514Y-55749191D01*
X99845085Y-55784905D01*
X99773657Y-55784905D01*
X99202228Y-55784905D02*
X99202228Y-55392048D01*
X99237942Y-55320620D01*
X99309371Y-55284905D01*
X99452228Y-55284905D01*
X99523657Y-55320620D01*
X99202228Y-55749191D02*
X99273657Y-55784905D01*
X99452228Y-55784905D01*
X99523657Y-55749191D01*
X99559371Y-55677762D01*
X99559371Y-55606334D01*
X99523657Y-55534905D01*
X99452228Y-55499191D01*
X99273657Y-55499191D01*
X99202228Y-55463477D01*
X98952228Y-55284905D02*
X98666514Y-55284905D01*
X98845085Y-55034905D02*
X98845085Y-55677762D01*
X98809371Y-55749191D01*
X98737942Y-55784905D01*
X98666514Y-55784905D01*
X98416514Y-55784905D02*
X98416514Y-55284905D01*
X98416514Y-55034905D02*
X98452228Y-55070620D01*
X98416514Y-55106334D01*
X98380800Y-55070620D01*
X98416514Y-55034905D01*
X98416514Y-55106334D01*
X97952228Y-55784905D02*
X98023657Y-55749191D01*
X98059371Y-55713477D01*
X98095085Y-55642048D01*
X98095085Y-55427762D01*
X98059371Y-55356334D01*
X98023657Y-55320620D01*
X97952228Y-55284905D01*
X97845085Y-55284905D01*
X97773657Y-55320620D01*
X97737942Y-55356334D01*
X97702228Y-55427762D01*
X97702228Y-55642048D01*
X97737942Y-55713477D01*
X97773657Y-55749191D01*
X97845085Y-55784905D01*
X97952228Y-55784905D01*
X97380800Y-55284905D02*
X97380800Y-55784905D01*
X97380800Y-55356334D02*
X97345085Y-55320620D01*
X97273657Y-55284905D01*
X97166514Y-55284905D01*
X97095085Y-55320620D01*
X97059371Y-55392048D01*
X97059371Y-55784905D01*
X96237942Y-55034905D02*
X95987942Y-55784905D01*
X95737942Y-55034905D01*
X95559371Y-55034905D02*
X95095085Y-55034905D01*
X95345085Y-55320620D01*
X95237942Y-55320620D01*
X95166514Y-55356334D01*
X95130800Y-55392048D01*
X95095085Y-55463477D01*
X95095085Y-55642048D01*
X95130800Y-55713477D01*
X95166514Y-55749191D01*
X95237942Y-55784905D01*
X95452228Y-55784905D01*
X95523657Y-55749191D01*
X95559371Y-55713477D01*
D11*
G04 #@! TO.C,C1*
X110440400Y-70491878D02*
X110440400Y-69974722D01*
X111860400Y-70491878D02*
X111860400Y-69974722D01*
G04 #@! TO.C,C18*
X108253600Y-70436478D02*
X108253600Y-69919322D01*
X106833600Y-70436478D02*
X106833600Y-69919322D01*
G04 #@! TO.C,R13*
X105090279Y-60835000D02*
X104764721Y-60835000D01*
X105090279Y-59815000D02*
X104764721Y-59815000D01*
G04 #@! TO.C,R14*
X107914121Y-92966000D02*
X108239679Y-92966000D01*
X107914121Y-91946000D02*
X108239679Y-91946000D01*
G04 #@! TO.C,R15*
X107812521Y-94587600D02*
X108138079Y-94587600D01*
X107812521Y-95607600D02*
X108138079Y-95607600D01*
G04 #@! TO.C,R25*
X98816379Y-96060800D02*
X98490821Y-96060800D01*
X98816379Y-97080800D02*
X98490821Y-97080800D01*
D10*
G04 #@! TO.C,U4*
X107657000Y-67411000D02*
X107657000Y-67311000D01*
X112307000Y-67411000D02*
X112307000Y-67211000D01*
X112307000Y-64161000D02*
X112307000Y-64361000D01*
X107657000Y-64161000D02*
X107657000Y-64361000D01*
X107657000Y-67411000D02*
X112307000Y-67411000D01*
X107657000Y-64161000D02*
X112307000Y-64161000D01*
X107657000Y-67311000D02*
X106307000Y-67311000D01*
D11*
G04 #@! TO.C,R12*
X104053321Y-73966800D02*
X104378879Y-73966800D01*
X104053321Y-72946800D02*
X104378879Y-72946800D01*
G04 #@! TO.C,C2*
X101802000Y-75770478D02*
X101802000Y-75253322D01*
X100382000Y-75770478D02*
X100382000Y-75253322D01*
G04 #@! TO.C,C1*
D10*
X113310942Y-70127833D02*
X113358561Y-70080214D01*
X113406180Y-69937357D01*
X113406180Y-69842119D01*
X113358561Y-69699261D01*
X113263323Y-69604023D01*
X113168085Y-69556404D01*
X112977609Y-69508785D01*
X112834752Y-69508785D01*
X112644276Y-69556404D01*
X112549038Y-69604023D01*
X112453800Y-69699261D01*
X112406180Y-69842119D01*
X112406180Y-69937357D01*
X112453800Y-70080214D01*
X112501419Y-70127833D01*
X113406180Y-71080214D02*
X113406180Y-70508785D01*
X113406180Y-70794500D02*
X112406180Y-70794500D01*
X112549038Y-70699261D01*
X112644276Y-70604023D01*
X112691895Y-70508785D01*
G04 #@! TO.C,C18*
X109550742Y-69535042D02*
X109598361Y-69487423D01*
X109645980Y-69344566D01*
X109645980Y-69249328D01*
X109598361Y-69106471D01*
X109503123Y-69011233D01*
X109407885Y-68963614D01*
X109217409Y-68915995D01*
X109074552Y-68915995D01*
X108884076Y-68963614D01*
X108788838Y-69011233D01*
X108693600Y-69106471D01*
X108645980Y-69249328D01*
X108645980Y-69344566D01*
X108693600Y-69487423D01*
X108741219Y-69535042D01*
X109645980Y-70487423D02*
X109645980Y-69915995D01*
X109645980Y-70201709D02*
X108645980Y-70201709D01*
X108788838Y-70106471D01*
X108884076Y-70011233D01*
X108931695Y-69915995D01*
X109074552Y-71058852D02*
X109026933Y-70963614D01*
X108979314Y-70915995D01*
X108884076Y-70868376D01*
X108836457Y-70868376D01*
X108741219Y-70915995D01*
X108693600Y-70963614D01*
X108645980Y-71058852D01*
X108645980Y-71249328D01*
X108693600Y-71344566D01*
X108741219Y-71392185D01*
X108836457Y-71439804D01*
X108884076Y-71439804D01*
X108979314Y-71392185D01*
X109026933Y-71344566D01*
X109074552Y-71249328D01*
X109074552Y-71058852D01*
X109122171Y-70963614D01*
X109169790Y-70915995D01*
X109265028Y-70868376D01*
X109455504Y-70868376D01*
X109550742Y-70915995D01*
X109598361Y-70963614D01*
X109645980Y-71058852D01*
X109645980Y-71249328D01*
X109598361Y-71344566D01*
X109550742Y-71392185D01*
X109455504Y-71439804D01*
X109265028Y-71439804D01*
X109169790Y-71392185D01*
X109122171Y-71344566D01*
X109074552Y-71249328D01*
G04 #@! TO.C,R13*
X105570357Y-59347380D02*
X105903690Y-58871190D01*
X106141785Y-59347380D02*
X106141785Y-58347380D01*
X105760833Y-58347380D01*
X105665595Y-58395000D01*
X105617976Y-58442619D01*
X105570357Y-58537857D01*
X105570357Y-58680714D01*
X105617976Y-58775952D01*
X105665595Y-58823571D01*
X105760833Y-58871190D01*
X106141785Y-58871190D01*
X104617976Y-59347380D02*
X105189404Y-59347380D01*
X104903690Y-59347380D02*
X104903690Y-58347380D01*
X104998928Y-58490238D01*
X105094166Y-58585476D01*
X105189404Y-58633095D01*
X104284642Y-58347380D02*
X103665595Y-58347380D01*
X103998928Y-58728333D01*
X103856071Y-58728333D01*
X103760833Y-58775952D01*
X103713214Y-58823571D01*
X103665595Y-58918809D01*
X103665595Y-59156904D01*
X103713214Y-59252142D01*
X103760833Y-59299761D01*
X103856071Y-59347380D01*
X104141785Y-59347380D01*
X104237023Y-59299761D01*
X104284642Y-59252142D01*
G04 #@! TO.C,R14*
X108719757Y-94338380D02*
X109053090Y-93862190D01*
X109291185Y-94338380D02*
X109291185Y-93338380D01*
X108910233Y-93338380D01*
X108814995Y-93386000D01*
X108767376Y-93433619D01*
X108719757Y-93528857D01*
X108719757Y-93671714D01*
X108767376Y-93766952D01*
X108814995Y-93814571D01*
X108910233Y-93862190D01*
X109291185Y-93862190D01*
X107767376Y-94338380D02*
X108338804Y-94338380D01*
X108053090Y-94338380D02*
X108053090Y-93338380D01*
X108148328Y-93481238D01*
X108243566Y-93576476D01*
X108338804Y-93624095D01*
X106910233Y-93671714D02*
X106910233Y-94338380D01*
X107148328Y-93290761D02*
X107386423Y-94005047D01*
X106767376Y-94005047D01*
G04 #@! TO.C,R15*
X108618157Y-96979980D02*
X108951490Y-96503790D01*
X109189585Y-96979980D02*
X109189585Y-95979980D01*
X108808633Y-95979980D01*
X108713395Y-96027600D01*
X108665776Y-96075219D01*
X108618157Y-96170457D01*
X108618157Y-96313314D01*
X108665776Y-96408552D01*
X108713395Y-96456171D01*
X108808633Y-96503790D01*
X109189585Y-96503790D01*
X107665776Y-96979980D02*
X108237204Y-96979980D01*
X107951490Y-96979980D02*
X107951490Y-95979980D01*
X108046728Y-96122838D01*
X108141966Y-96218076D01*
X108237204Y-96265695D01*
X106761014Y-95979980D02*
X107237204Y-95979980D01*
X107284823Y-96456171D01*
X107237204Y-96408552D01*
X107141966Y-96360933D01*
X106903871Y-96360933D01*
X106808633Y-96408552D01*
X106761014Y-96456171D01*
X106713395Y-96551409D01*
X106713395Y-96789504D01*
X106761014Y-96884742D01*
X106808633Y-96932361D01*
X106903871Y-96979980D01*
X107141966Y-96979980D01*
X107237204Y-96932361D01*
X107284823Y-96884742D01*
G04 #@! TO.C,R25*
X99296457Y-95593180D02*
X99629790Y-95116990D01*
X99867885Y-95593180D02*
X99867885Y-94593180D01*
X99486933Y-94593180D01*
X99391695Y-94640800D01*
X99344076Y-94688419D01*
X99296457Y-94783657D01*
X99296457Y-94926514D01*
X99344076Y-95021752D01*
X99391695Y-95069371D01*
X99486933Y-95116990D01*
X99867885Y-95116990D01*
X98915504Y-94688419D02*
X98867885Y-94640800D01*
X98772647Y-94593180D01*
X98534552Y-94593180D01*
X98439314Y-94640800D01*
X98391695Y-94688419D01*
X98344076Y-94783657D01*
X98344076Y-94878895D01*
X98391695Y-95021752D01*
X98963123Y-95593180D01*
X98344076Y-95593180D01*
X97439314Y-94593180D02*
X97915504Y-94593180D01*
X97963123Y-95069371D01*
X97915504Y-95021752D01*
X97820266Y-94974133D01*
X97582171Y-94974133D01*
X97486933Y-95021752D01*
X97439314Y-95069371D01*
X97391695Y-95164609D01*
X97391695Y-95402704D01*
X97439314Y-95497942D01*
X97486933Y-95545561D01*
X97582171Y-95593180D01*
X97820266Y-95593180D01*
X97915504Y-95545561D01*
X97963123Y-95497942D01*
G04 #@! TO.C,U4*
X111277304Y-62825380D02*
X111277304Y-63634904D01*
X111229685Y-63730142D01*
X111182066Y-63777761D01*
X111086828Y-63825380D01*
X110896352Y-63825380D01*
X110801114Y-63777761D01*
X110753495Y-63730142D01*
X110705876Y-63634904D01*
X110705876Y-62825380D01*
X109801114Y-63158714D02*
X109801114Y-63825380D01*
X110039209Y-62777761D02*
X110277304Y-63492047D01*
X109658257Y-63492047D01*
G04 #@! TO.C,R12*
X104858957Y-75339180D02*
X105192290Y-74862990D01*
X105430385Y-75339180D02*
X105430385Y-74339180D01*
X105049433Y-74339180D01*
X104954195Y-74386800D01*
X104906576Y-74434419D01*
X104858957Y-74529657D01*
X104858957Y-74672514D01*
X104906576Y-74767752D01*
X104954195Y-74815371D01*
X105049433Y-74862990D01*
X105430385Y-74862990D01*
X103906576Y-75339180D02*
X104478004Y-75339180D01*
X104192290Y-75339180D02*
X104192290Y-74339180D01*
X104287528Y-74482038D01*
X104382766Y-74577276D01*
X104478004Y-74624895D01*
X103525623Y-74434419D02*
X103478004Y-74386800D01*
X103382766Y-74339180D01*
X103144671Y-74339180D01*
X103049433Y-74386800D01*
X103001814Y-74434419D01*
X102954195Y-74529657D01*
X102954195Y-74624895D01*
X103001814Y-74767752D01*
X103573242Y-75339180D01*
X102954195Y-75339180D01*
G04 #@! TO.C,C2*
X101474566Y-78449442D02*
X101522185Y-78497061D01*
X101665042Y-78544680D01*
X101760280Y-78544680D01*
X101903138Y-78497061D01*
X101998376Y-78401823D01*
X102045995Y-78306585D01*
X102093614Y-78116109D01*
X102093614Y-77973252D01*
X102045995Y-77782776D01*
X101998376Y-77687538D01*
X101903138Y-77592300D01*
X101760280Y-77544680D01*
X101665042Y-77544680D01*
X101522185Y-77592300D01*
X101474566Y-77639919D01*
X101093614Y-77639919D02*
X101045995Y-77592300D01*
X100950757Y-77544680D01*
X100712661Y-77544680D01*
X100617423Y-77592300D01*
X100569804Y-77639919D01*
X100522185Y-77735157D01*
X100522185Y-77830395D01*
X100569804Y-77973252D01*
X101141233Y-78544680D01*
X100522185Y-78544680D01*
G04 #@! TD*
M02*
