G04 #@! TF.GenerationSoftware,KiCad,Pcbnew,(5.0.1)-rc2*
G04 #@! TF.CreationDate,2019-05-10T17:03:11-07:00*
G04 #@! TF.ProjectId,weatherStation,7765617468657253746174696F6E2E6B,rev?*
G04 #@! TF.SameCoordinates,Original*
G04 #@! TF.FileFunction,Copper,L1,Top,Signal*
G04 #@! TF.FilePolarity,Positive*
%FSLAX46Y46*%
G04 Gerber Fmt 4.6, Leading zero omitted, Abs format (unit mm)*
G04 Created by KiCad (PCBNEW (5.0.1)-rc2) date 5/10/2019 5:03:11 PM*
%MOMM*%
%LPD*%
G01*
G04 APERTURE LIST*
G04 #@! TA.AperFunction,EtchedComponent*
%ADD10C,0.100000*%
G04 #@! TD*
G04 #@! TA.AperFunction,ComponentPad*
%ADD11O,1.700000X2.000000*%
G04 #@! TD*
G04 #@! TA.AperFunction,Conductor*
%ADD12C,0.100000*%
G04 #@! TD*
G04 #@! TA.AperFunction,ComponentPad*
%ADD13C,1.700000*%
G04 #@! TD*
G04 #@! TA.AperFunction,ComponentPad*
%ADD14O,1.950000X1.700000*%
G04 #@! TD*
G04 #@! TA.AperFunction,SMDPad,CuDef*
%ADD15C,0.975000*%
G04 #@! TD*
G04 #@! TA.AperFunction,ComponentPad*
%ADD16C,1.200000*%
G04 #@! TD*
G04 #@! TA.AperFunction,ComponentPad*
%ADD17O,1.750000X1.200000*%
G04 #@! TD*
G04 #@! TA.AperFunction,ComponentPad*
%ADD18O,2.000000X1.700000*%
G04 #@! TD*
G04 #@! TA.AperFunction,SMDPad,CuDef*
%ADD19R,0.635000X1.270000*%
G04 #@! TD*
G04 #@! TA.AperFunction,SMDPad,CuDef*
%ADD20C,0.875000*%
G04 #@! TD*
G04 #@! TA.AperFunction,ComponentPad*
%ADD21R,1.700000X1.700000*%
G04 #@! TD*
G04 #@! TA.AperFunction,ComponentPad*
%ADD22O,1.700000X1.700000*%
G04 #@! TD*
G04 #@! TA.AperFunction,SMDPad,CuDef*
%ADD23R,1.500000X1.500000*%
G04 #@! TD*
G04 #@! TA.AperFunction,SMDPad,CuDef*
%ADD24C,0.600000*%
G04 #@! TD*
G04 #@! TA.AperFunction,SMDPad,CuDef*
%ADD25R,1.060000X0.650000*%
G04 #@! TD*
G04 #@! TA.AperFunction,SMDPad,CuDef*
%ADD26R,0.700000X0.300000*%
G04 #@! TD*
G04 #@! TA.AperFunction,SMDPad,CuDef*
%ADD27R,0.800000X1.200000*%
G04 #@! TD*
G04 #@! TA.AperFunction,SMDPad,CuDef*
%ADD28R,0.840000X2.400000*%
G04 #@! TD*
G04 #@! TA.AperFunction,SMDPad,CuDef*
%ADD29R,0.500000X0.250000*%
G04 #@! TD*
G04 #@! TA.AperFunction,SMDPad,CuDef*
%ADD30R,1.270000X0.635000*%
G04 #@! TD*
G04 #@! TA.AperFunction,Conductor*
%ADD31C,0.500000*%
G04 #@! TD*
G04 #@! TA.AperFunction,ComponentPad*
%ADD32C,1.524000*%
G04 #@! TD*
G04 #@! TA.AperFunction,ViaPad*
%ADD33C,0.500000*%
G04 #@! TD*
G04 #@! TA.AperFunction,ViaPad*
%ADD34C,0.800000*%
G04 #@! TD*
G04 #@! TA.AperFunction,Conductor*
%ADD35C,0.160000*%
G04 #@! TD*
G04 #@! TA.AperFunction,Conductor*
%ADD36C,0.700000*%
G04 #@! TD*
G04 #@! TA.AperFunction,Conductor*
%ADD37C,0.250000*%
G04 #@! TD*
G04 #@! TA.AperFunction,Conductor*
%ADD38C,0.254000*%
G04 #@! TD*
G04 APERTURE END LIST*
D10*
G04 #@! TO.C,NT1*
G36*
X97328800Y-83218400D02*
X97328800Y-84218400D01*
X96828800Y-84218400D01*
X96828800Y-83218400D01*
X97328800Y-83218400D01*
G37*
G04 #@! TO.C,NT2*
G36*
X100693600Y-76915200D02*
X101693600Y-76915200D01*
X101693600Y-77415200D01*
X100693600Y-77415200D01*
X100693600Y-76915200D01*
G37*
G04 #@! TO.C,NT3*
G36*
X107399200Y-80877600D02*
X108399200Y-80877600D01*
X108399200Y-81377600D01*
X107399200Y-81377600D01*
X107399200Y-80877600D01*
G37*
G04 #@! TO.C,NT4*
G36*
X107742800Y-82397600D02*
X107742800Y-83397600D01*
X107242800Y-83397600D01*
X107242800Y-82397600D01*
X107742800Y-82397600D01*
G37*
G04 #@! TD*
D11*
G04 #@! TO.P,J1,2*
G04 #@! TO.N,/ANE_Pulse*
X96560000Y-59690000D03*
D12*
G04 #@! TD*
G04 #@! TO.N,GND*
G04 #@! TO.C,J1*
G36*
X99684504Y-58691204D02*
X99708773Y-58694804D01*
X99732571Y-58700765D01*
X99755671Y-58709030D01*
X99777849Y-58719520D01*
X99798893Y-58732133D01*
X99818598Y-58746747D01*
X99836777Y-58763223D01*
X99853253Y-58781402D01*
X99867867Y-58801107D01*
X99880480Y-58822151D01*
X99890970Y-58844329D01*
X99899235Y-58867429D01*
X99905196Y-58891227D01*
X99908796Y-58915496D01*
X99910000Y-58940000D01*
X99910000Y-60440000D01*
X99908796Y-60464504D01*
X99905196Y-60488773D01*
X99899235Y-60512571D01*
X99890970Y-60535671D01*
X99880480Y-60557849D01*
X99867867Y-60578893D01*
X99853253Y-60598598D01*
X99836777Y-60616777D01*
X99818598Y-60633253D01*
X99798893Y-60647867D01*
X99777849Y-60660480D01*
X99755671Y-60670970D01*
X99732571Y-60679235D01*
X99708773Y-60685196D01*
X99684504Y-60688796D01*
X99660000Y-60690000D01*
X98460000Y-60690000D01*
X98435496Y-60688796D01*
X98411227Y-60685196D01*
X98387429Y-60679235D01*
X98364329Y-60670970D01*
X98342151Y-60660480D01*
X98321107Y-60647867D01*
X98301402Y-60633253D01*
X98283223Y-60616777D01*
X98266747Y-60598598D01*
X98252133Y-60578893D01*
X98239520Y-60557849D01*
X98229030Y-60535671D01*
X98220765Y-60512571D01*
X98214804Y-60488773D01*
X98211204Y-60464504D01*
X98210000Y-60440000D01*
X98210000Y-58940000D01*
X98211204Y-58915496D01*
X98214804Y-58891227D01*
X98220765Y-58867429D01*
X98229030Y-58844329D01*
X98239520Y-58822151D01*
X98252133Y-58801107D01*
X98266747Y-58781402D01*
X98283223Y-58763223D01*
X98301402Y-58746747D01*
X98321107Y-58732133D01*
X98342151Y-58719520D01*
X98364329Y-58709030D01*
X98387429Y-58700765D01*
X98411227Y-58694804D01*
X98435496Y-58691204D01*
X98460000Y-58690000D01*
X99660000Y-58690000D01*
X99684504Y-58691204D01*
X99684504Y-58691204D01*
G37*
D13*
G04 #@! TO.P,J1,1*
G04 #@! TO.N,GND*
X99060000Y-59690000D03*
G04 #@! TD*
D12*
G04 #@! TO.N,3V3*
G04 #@! TO.C,U3*
G36*
X112509504Y-84996204D02*
X112533773Y-84999804D01*
X112557571Y-85005765D01*
X112580671Y-85014030D01*
X112602849Y-85024520D01*
X112623893Y-85037133D01*
X112643598Y-85051747D01*
X112661777Y-85068223D01*
X112678253Y-85086402D01*
X112692867Y-85106107D01*
X112705480Y-85127151D01*
X112715970Y-85149329D01*
X112724235Y-85172429D01*
X112730196Y-85196227D01*
X112733796Y-85220496D01*
X112735000Y-85245000D01*
X112735000Y-86445000D01*
X112733796Y-86469504D01*
X112730196Y-86493773D01*
X112724235Y-86517571D01*
X112715970Y-86540671D01*
X112705480Y-86562849D01*
X112692867Y-86583893D01*
X112678253Y-86603598D01*
X112661777Y-86621777D01*
X112643598Y-86638253D01*
X112623893Y-86652867D01*
X112602849Y-86665480D01*
X112580671Y-86675970D01*
X112557571Y-86684235D01*
X112533773Y-86690196D01*
X112509504Y-86693796D01*
X112485000Y-86695000D01*
X111035000Y-86695000D01*
X111010496Y-86693796D01*
X110986227Y-86690196D01*
X110962429Y-86684235D01*
X110939329Y-86675970D01*
X110917151Y-86665480D01*
X110896107Y-86652867D01*
X110876402Y-86638253D01*
X110858223Y-86621777D01*
X110841747Y-86603598D01*
X110827133Y-86583893D01*
X110814520Y-86562849D01*
X110804030Y-86540671D01*
X110795765Y-86517571D01*
X110789804Y-86493773D01*
X110786204Y-86469504D01*
X110785000Y-86445000D01*
X110785000Y-85245000D01*
X110786204Y-85220496D01*
X110789804Y-85196227D01*
X110795765Y-85172429D01*
X110804030Y-85149329D01*
X110814520Y-85127151D01*
X110827133Y-85106107D01*
X110841747Y-85086402D01*
X110858223Y-85068223D01*
X110876402Y-85051747D01*
X110896107Y-85037133D01*
X110917151Y-85024520D01*
X110939329Y-85014030D01*
X110962429Y-85005765D01*
X110986227Y-84999804D01*
X111010496Y-84996204D01*
X111035000Y-84995000D01*
X112485000Y-84995000D01*
X112509504Y-84996204D01*
X112509504Y-84996204D01*
G37*
D13*
G04 #@! TD*
G04 #@! TO.P,U3,1*
G04 #@! TO.N,3V3*
X111760000Y-85845000D03*
D14*
G04 #@! TO.P,U3,2*
G04 #@! TO.N,GND*
X111760000Y-88345000D03*
G04 #@! TO.P,U3,3*
G04 #@! TO.N,I2C_SCL*
X111760000Y-90845000D03*
G04 #@! TO.P,U3,4*
G04 #@! TO.N,I2C_SDA*
X111760000Y-93345000D03*
G04 #@! TD*
D12*
G04 #@! TO.N,/Sheet5C1E5C91/BattMon+*
G04 #@! TO.C,C9*
G36*
X103266942Y-88251974D02*
X103290603Y-88255484D01*
X103313807Y-88261296D01*
X103336329Y-88269354D01*
X103357953Y-88279582D01*
X103378470Y-88291879D01*
X103397683Y-88306129D01*
X103415407Y-88322193D01*
X103431471Y-88339917D01*
X103445721Y-88359130D01*
X103458018Y-88379647D01*
X103468246Y-88401271D01*
X103476304Y-88423793D01*
X103482116Y-88446997D01*
X103485626Y-88470658D01*
X103486800Y-88494550D01*
X103486800Y-89407050D01*
X103485626Y-89430942D01*
X103482116Y-89454603D01*
X103476304Y-89477807D01*
X103468246Y-89500329D01*
X103458018Y-89521953D01*
X103445721Y-89542470D01*
X103431471Y-89561683D01*
X103415407Y-89579407D01*
X103397683Y-89595471D01*
X103378470Y-89609721D01*
X103357953Y-89622018D01*
X103336329Y-89632246D01*
X103313807Y-89640304D01*
X103290603Y-89646116D01*
X103266942Y-89649626D01*
X103243050Y-89650800D01*
X102755550Y-89650800D01*
X102731658Y-89649626D01*
X102707997Y-89646116D01*
X102684793Y-89640304D01*
X102662271Y-89632246D01*
X102640647Y-89622018D01*
X102620130Y-89609721D01*
X102600917Y-89595471D01*
X102583193Y-89579407D01*
X102567129Y-89561683D01*
X102552879Y-89542470D01*
X102540582Y-89521953D01*
X102530354Y-89500329D01*
X102522296Y-89477807D01*
X102516484Y-89454603D01*
X102512974Y-89430942D01*
X102511800Y-89407050D01*
X102511800Y-88494550D01*
X102512974Y-88470658D01*
X102516484Y-88446997D01*
X102522296Y-88423793D01*
X102530354Y-88401271D01*
X102540582Y-88379647D01*
X102552879Y-88359130D01*
X102567129Y-88339917D01*
X102583193Y-88322193D01*
X102600917Y-88306129D01*
X102620130Y-88291879D01*
X102640647Y-88279582D01*
X102662271Y-88269354D01*
X102684793Y-88261296D01*
X102707997Y-88255484D01*
X102731658Y-88251974D01*
X102755550Y-88250800D01*
X103243050Y-88250800D01*
X103266942Y-88251974D01*
X103266942Y-88251974D01*
G37*
D15*
G04 #@! TD*
G04 #@! TO.P,C9,2*
G04 #@! TO.N,/Sheet5C1E5C91/BattMon+*
X102999300Y-88950800D03*
D12*
G04 #@! TO.N,GND*
G04 #@! TO.C,C9*
G36*
X105141942Y-88251974D02*
X105165603Y-88255484D01*
X105188807Y-88261296D01*
X105211329Y-88269354D01*
X105232953Y-88279582D01*
X105253470Y-88291879D01*
X105272683Y-88306129D01*
X105290407Y-88322193D01*
X105306471Y-88339917D01*
X105320721Y-88359130D01*
X105333018Y-88379647D01*
X105343246Y-88401271D01*
X105351304Y-88423793D01*
X105357116Y-88446997D01*
X105360626Y-88470658D01*
X105361800Y-88494550D01*
X105361800Y-89407050D01*
X105360626Y-89430942D01*
X105357116Y-89454603D01*
X105351304Y-89477807D01*
X105343246Y-89500329D01*
X105333018Y-89521953D01*
X105320721Y-89542470D01*
X105306471Y-89561683D01*
X105290407Y-89579407D01*
X105272683Y-89595471D01*
X105253470Y-89609721D01*
X105232953Y-89622018D01*
X105211329Y-89632246D01*
X105188807Y-89640304D01*
X105165603Y-89646116D01*
X105141942Y-89649626D01*
X105118050Y-89650800D01*
X104630550Y-89650800D01*
X104606658Y-89649626D01*
X104582997Y-89646116D01*
X104559793Y-89640304D01*
X104537271Y-89632246D01*
X104515647Y-89622018D01*
X104495130Y-89609721D01*
X104475917Y-89595471D01*
X104458193Y-89579407D01*
X104442129Y-89561683D01*
X104427879Y-89542470D01*
X104415582Y-89521953D01*
X104405354Y-89500329D01*
X104397296Y-89477807D01*
X104391484Y-89454603D01*
X104387974Y-89430942D01*
X104386800Y-89407050D01*
X104386800Y-88494550D01*
X104387974Y-88470658D01*
X104391484Y-88446997D01*
X104397296Y-88423793D01*
X104405354Y-88401271D01*
X104415582Y-88379647D01*
X104427879Y-88359130D01*
X104442129Y-88339917D01*
X104458193Y-88322193D01*
X104475917Y-88306129D01*
X104495130Y-88291879D01*
X104515647Y-88279582D01*
X104537271Y-88269354D01*
X104559793Y-88261296D01*
X104582997Y-88255484D01*
X104606658Y-88251974D01*
X104630550Y-88250800D01*
X105118050Y-88250800D01*
X105141942Y-88251974D01*
X105141942Y-88251974D01*
G37*
D15*
G04 #@! TD*
G04 #@! TO.P,C9,1*
G04 #@! TO.N,GND*
X104874300Y-88950800D03*
D12*
G04 #@! TO.N,/Sheet5C1E5C91/Solar+*
G04 #@! TO.C,C16*
G36*
X108493642Y-76861274D02*
X108517303Y-76864784D01*
X108540507Y-76870596D01*
X108563029Y-76878654D01*
X108584653Y-76888882D01*
X108605170Y-76901179D01*
X108624383Y-76915429D01*
X108642107Y-76931493D01*
X108658171Y-76949217D01*
X108672421Y-76968430D01*
X108684718Y-76988947D01*
X108694946Y-77010571D01*
X108703004Y-77033093D01*
X108708816Y-77056297D01*
X108712326Y-77079958D01*
X108713500Y-77103850D01*
X108713500Y-77591350D01*
X108712326Y-77615242D01*
X108708816Y-77638903D01*
X108703004Y-77662107D01*
X108694946Y-77684629D01*
X108684718Y-77706253D01*
X108672421Y-77726770D01*
X108658171Y-77745983D01*
X108642107Y-77763707D01*
X108624383Y-77779771D01*
X108605170Y-77794021D01*
X108584653Y-77806318D01*
X108563029Y-77816546D01*
X108540507Y-77824604D01*
X108517303Y-77830416D01*
X108493642Y-77833926D01*
X108469750Y-77835100D01*
X107557250Y-77835100D01*
X107533358Y-77833926D01*
X107509697Y-77830416D01*
X107486493Y-77824604D01*
X107463971Y-77816546D01*
X107442347Y-77806318D01*
X107421830Y-77794021D01*
X107402617Y-77779771D01*
X107384893Y-77763707D01*
X107368829Y-77745983D01*
X107354579Y-77726770D01*
X107342282Y-77706253D01*
X107332054Y-77684629D01*
X107323996Y-77662107D01*
X107318184Y-77638903D01*
X107314674Y-77615242D01*
X107313500Y-77591350D01*
X107313500Y-77103850D01*
X107314674Y-77079958D01*
X107318184Y-77056297D01*
X107323996Y-77033093D01*
X107332054Y-77010571D01*
X107342282Y-76988947D01*
X107354579Y-76968430D01*
X107368829Y-76949217D01*
X107384893Y-76931493D01*
X107402617Y-76915429D01*
X107421830Y-76901179D01*
X107442347Y-76888882D01*
X107463971Y-76878654D01*
X107486493Y-76870596D01*
X107509697Y-76864784D01*
X107533358Y-76861274D01*
X107557250Y-76860100D01*
X108469750Y-76860100D01*
X108493642Y-76861274D01*
X108493642Y-76861274D01*
G37*
D15*
G04 #@! TD*
G04 #@! TO.P,C16,1*
G04 #@! TO.N,/Sheet5C1E5C91/Solar+*
X108013500Y-77347600D03*
D12*
G04 #@! TO.N,GND*
G04 #@! TO.C,C16*
G36*
X108493642Y-78736274D02*
X108517303Y-78739784D01*
X108540507Y-78745596D01*
X108563029Y-78753654D01*
X108584653Y-78763882D01*
X108605170Y-78776179D01*
X108624383Y-78790429D01*
X108642107Y-78806493D01*
X108658171Y-78824217D01*
X108672421Y-78843430D01*
X108684718Y-78863947D01*
X108694946Y-78885571D01*
X108703004Y-78908093D01*
X108708816Y-78931297D01*
X108712326Y-78954958D01*
X108713500Y-78978850D01*
X108713500Y-79466350D01*
X108712326Y-79490242D01*
X108708816Y-79513903D01*
X108703004Y-79537107D01*
X108694946Y-79559629D01*
X108684718Y-79581253D01*
X108672421Y-79601770D01*
X108658171Y-79620983D01*
X108642107Y-79638707D01*
X108624383Y-79654771D01*
X108605170Y-79669021D01*
X108584653Y-79681318D01*
X108563029Y-79691546D01*
X108540507Y-79699604D01*
X108517303Y-79705416D01*
X108493642Y-79708926D01*
X108469750Y-79710100D01*
X107557250Y-79710100D01*
X107533358Y-79708926D01*
X107509697Y-79705416D01*
X107486493Y-79699604D01*
X107463971Y-79691546D01*
X107442347Y-79681318D01*
X107421830Y-79669021D01*
X107402617Y-79654771D01*
X107384893Y-79638707D01*
X107368829Y-79620983D01*
X107354579Y-79601770D01*
X107342282Y-79581253D01*
X107332054Y-79559629D01*
X107323996Y-79537107D01*
X107318184Y-79513903D01*
X107314674Y-79490242D01*
X107313500Y-79466350D01*
X107313500Y-78978850D01*
X107314674Y-78954958D01*
X107318184Y-78931297D01*
X107323996Y-78908093D01*
X107332054Y-78885571D01*
X107342282Y-78863947D01*
X107354579Y-78843430D01*
X107368829Y-78824217D01*
X107384893Y-78806493D01*
X107402617Y-78790429D01*
X107421830Y-78776179D01*
X107442347Y-78763882D01*
X107463971Y-78753654D01*
X107486493Y-78745596D01*
X107509697Y-78739784D01*
X107533358Y-78736274D01*
X107557250Y-78735100D01*
X108469750Y-78735100D01*
X108493642Y-78736274D01*
X108493642Y-78736274D01*
G37*
D15*
G04 #@! TD*
G04 #@! TO.P,C16,2*
G04 #@! TO.N,GND*
X108013500Y-79222600D03*
D12*
G04 #@! TO.N,Net-(D8-Pad2)*
G04 #@! TO.C,D8*
G36*
X113297642Y-53276174D02*
X113321303Y-53279684D01*
X113344507Y-53285496D01*
X113367029Y-53293554D01*
X113388653Y-53303782D01*
X113409170Y-53316079D01*
X113428383Y-53330329D01*
X113446107Y-53346393D01*
X113462171Y-53364117D01*
X113476421Y-53383330D01*
X113488718Y-53403847D01*
X113498946Y-53425471D01*
X113507004Y-53447993D01*
X113512816Y-53471197D01*
X113516326Y-53494858D01*
X113517500Y-53518750D01*
X113517500Y-54431250D01*
X113516326Y-54455142D01*
X113512816Y-54478803D01*
X113507004Y-54502007D01*
X113498946Y-54524529D01*
X113488718Y-54546153D01*
X113476421Y-54566670D01*
X113462171Y-54585883D01*
X113446107Y-54603607D01*
X113428383Y-54619671D01*
X113409170Y-54633921D01*
X113388653Y-54646218D01*
X113367029Y-54656446D01*
X113344507Y-54664504D01*
X113321303Y-54670316D01*
X113297642Y-54673826D01*
X113273750Y-54675000D01*
X112786250Y-54675000D01*
X112762358Y-54673826D01*
X112738697Y-54670316D01*
X112715493Y-54664504D01*
X112692971Y-54656446D01*
X112671347Y-54646218D01*
X112650830Y-54633921D01*
X112631617Y-54619671D01*
X112613893Y-54603607D01*
X112597829Y-54585883D01*
X112583579Y-54566670D01*
X112571282Y-54546153D01*
X112561054Y-54524529D01*
X112552996Y-54502007D01*
X112547184Y-54478803D01*
X112543674Y-54455142D01*
X112542500Y-54431250D01*
X112542500Y-53518750D01*
X112543674Y-53494858D01*
X112547184Y-53471197D01*
X112552996Y-53447993D01*
X112561054Y-53425471D01*
X112571282Y-53403847D01*
X112583579Y-53383330D01*
X112597829Y-53364117D01*
X112613893Y-53346393D01*
X112631617Y-53330329D01*
X112650830Y-53316079D01*
X112671347Y-53303782D01*
X112692971Y-53293554D01*
X112715493Y-53285496D01*
X112738697Y-53279684D01*
X112762358Y-53276174D01*
X112786250Y-53275000D01*
X113273750Y-53275000D01*
X113297642Y-53276174D01*
X113297642Y-53276174D01*
G37*
D15*
G04 #@! TD*
G04 #@! TO.P,D8,2*
G04 #@! TO.N,Net-(D8-Pad2)*
X113030000Y-53975000D03*
D12*
G04 #@! TO.N,GND*
G04 #@! TO.C,D8*
G36*
X115172642Y-53276174D02*
X115196303Y-53279684D01*
X115219507Y-53285496D01*
X115242029Y-53293554D01*
X115263653Y-53303782D01*
X115284170Y-53316079D01*
X115303383Y-53330329D01*
X115321107Y-53346393D01*
X115337171Y-53364117D01*
X115351421Y-53383330D01*
X115363718Y-53403847D01*
X115373946Y-53425471D01*
X115382004Y-53447993D01*
X115387816Y-53471197D01*
X115391326Y-53494858D01*
X115392500Y-53518750D01*
X115392500Y-54431250D01*
X115391326Y-54455142D01*
X115387816Y-54478803D01*
X115382004Y-54502007D01*
X115373946Y-54524529D01*
X115363718Y-54546153D01*
X115351421Y-54566670D01*
X115337171Y-54585883D01*
X115321107Y-54603607D01*
X115303383Y-54619671D01*
X115284170Y-54633921D01*
X115263653Y-54646218D01*
X115242029Y-54656446D01*
X115219507Y-54664504D01*
X115196303Y-54670316D01*
X115172642Y-54673826D01*
X115148750Y-54675000D01*
X114661250Y-54675000D01*
X114637358Y-54673826D01*
X114613697Y-54670316D01*
X114590493Y-54664504D01*
X114567971Y-54656446D01*
X114546347Y-54646218D01*
X114525830Y-54633921D01*
X114506617Y-54619671D01*
X114488893Y-54603607D01*
X114472829Y-54585883D01*
X114458579Y-54566670D01*
X114446282Y-54546153D01*
X114436054Y-54524529D01*
X114427996Y-54502007D01*
X114422184Y-54478803D01*
X114418674Y-54455142D01*
X114417500Y-54431250D01*
X114417500Y-53518750D01*
X114418674Y-53494858D01*
X114422184Y-53471197D01*
X114427996Y-53447993D01*
X114436054Y-53425471D01*
X114446282Y-53403847D01*
X114458579Y-53383330D01*
X114472829Y-53364117D01*
X114488893Y-53346393D01*
X114506617Y-53330329D01*
X114525830Y-53316079D01*
X114546347Y-53303782D01*
X114567971Y-53293554D01*
X114590493Y-53285496D01*
X114613697Y-53279684D01*
X114637358Y-53276174D01*
X114661250Y-53275000D01*
X115148750Y-53275000D01*
X115172642Y-53276174D01*
X115172642Y-53276174D01*
G37*
D15*
G04 #@! TD*
G04 #@! TO.P,D8,1*
G04 #@! TO.N,GND*
X114905000Y-53975000D03*
D12*
G04 #@! TO.N,Net-(D9-Pad2)*
G04 #@! TO.C,D9*
G36*
X113297642Y-55473274D02*
X113321303Y-55476784D01*
X113344507Y-55482596D01*
X113367029Y-55490654D01*
X113388653Y-55500882D01*
X113409170Y-55513179D01*
X113428383Y-55527429D01*
X113446107Y-55543493D01*
X113462171Y-55561217D01*
X113476421Y-55580430D01*
X113488718Y-55600947D01*
X113498946Y-55622571D01*
X113507004Y-55645093D01*
X113512816Y-55668297D01*
X113516326Y-55691958D01*
X113517500Y-55715850D01*
X113517500Y-56628350D01*
X113516326Y-56652242D01*
X113512816Y-56675903D01*
X113507004Y-56699107D01*
X113498946Y-56721629D01*
X113488718Y-56743253D01*
X113476421Y-56763770D01*
X113462171Y-56782983D01*
X113446107Y-56800707D01*
X113428383Y-56816771D01*
X113409170Y-56831021D01*
X113388653Y-56843318D01*
X113367029Y-56853546D01*
X113344507Y-56861604D01*
X113321303Y-56867416D01*
X113297642Y-56870926D01*
X113273750Y-56872100D01*
X112786250Y-56872100D01*
X112762358Y-56870926D01*
X112738697Y-56867416D01*
X112715493Y-56861604D01*
X112692971Y-56853546D01*
X112671347Y-56843318D01*
X112650830Y-56831021D01*
X112631617Y-56816771D01*
X112613893Y-56800707D01*
X112597829Y-56782983D01*
X112583579Y-56763770D01*
X112571282Y-56743253D01*
X112561054Y-56721629D01*
X112552996Y-56699107D01*
X112547184Y-56675903D01*
X112543674Y-56652242D01*
X112542500Y-56628350D01*
X112542500Y-55715850D01*
X112543674Y-55691958D01*
X112547184Y-55668297D01*
X112552996Y-55645093D01*
X112561054Y-55622571D01*
X112571282Y-55600947D01*
X112583579Y-55580430D01*
X112597829Y-55561217D01*
X112613893Y-55543493D01*
X112631617Y-55527429D01*
X112650830Y-55513179D01*
X112671347Y-55500882D01*
X112692971Y-55490654D01*
X112715493Y-55482596D01*
X112738697Y-55476784D01*
X112762358Y-55473274D01*
X112786250Y-55472100D01*
X113273750Y-55472100D01*
X113297642Y-55473274D01*
X113297642Y-55473274D01*
G37*
D15*
G04 #@! TD*
G04 #@! TO.P,D9,2*
G04 #@! TO.N,Net-(D9-Pad2)*
X113030000Y-56172100D03*
D12*
G04 #@! TO.N,/GPLED1*
G04 #@! TO.C,D9*
G36*
X115172642Y-55473274D02*
X115196303Y-55476784D01*
X115219507Y-55482596D01*
X115242029Y-55490654D01*
X115263653Y-55500882D01*
X115284170Y-55513179D01*
X115303383Y-55527429D01*
X115321107Y-55543493D01*
X115337171Y-55561217D01*
X115351421Y-55580430D01*
X115363718Y-55600947D01*
X115373946Y-55622571D01*
X115382004Y-55645093D01*
X115387816Y-55668297D01*
X115391326Y-55691958D01*
X115392500Y-55715850D01*
X115392500Y-56628350D01*
X115391326Y-56652242D01*
X115387816Y-56675903D01*
X115382004Y-56699107D01*
X115373946Y-56721629D01*
X115363718Y-56743253D01*
X115351421Y-56763770D01*
X115337171Y-56782983D01*
X115321107Y-56800707D01*
X115303383Y-56816771D01*
X115284170Y-56831021D01*
X115263653Y-56843318D01*
X115242029Y-56853546D01*
X115219507Y-56861604D01*
X115196303Y-56867416D01*
X115172642Y-56870926D01*
X115148750Y-56872100D01*
X114661250Y-56872100D01*
X114637358Y-56870926D01*
X114613697Y-56867416D01*
X114590493Y-56861604D01*
X114567971Y-56853546D01*
X114546347Y-56843318D01*
X114525830Y-56831021D01*
X114506617Y-56816771D01*
X114488893Y-56800707D01*
X114472829Y-56782983D01*
X114458579Y-56763770D01*
X114446282Y-56743253D01*
X114436054Y-56721629D01*
X114427996Y-56699107D01*
X114422184Y-56675903D01*
X114418674Y-56652242D01*
X114417500Y-56628350D01*
X114417500Y-55715850D01*
X114418674Y-55691958D01*
X114422184Y-55668297D01*
X114427996Y-55645093D01*
X114436054Y-55622571D01*
X114446282Y-55600947D01*
X114458579Y-55580430D01*
X114472829Y-55561217D01*
X114488893Y-55543493D01*
X114506617Y-55527429D01*
X114525830Y-55513179D01*
X114546347Y-55500882D01*
X114567971Y-55490654D01*
X114590493Y-55482596D01*
X114613697Y-55476784D01*
X114637358Y-55473274D01*
X114661250Y-55472100D01*
X115148750Y-55472100D01*
X115172642Y-55473274D01*
X115172642Y-55473274D01*
G37*
D15*
G04 #@! TD*
G04 #@! TO.P,D9,1*
G04 #@! TO.N,/GPLED1*
X114905000Y-56172100D03*
D12*
G04 #@! TO.N,/GPLED2*
G04 #@! TO.C,D10*
G36*
X114918642Y-58597474D02*
X114942303Y-58600984D01*
X114965507Y-58606796D01*
X114988029Y-58614854D01*
X115009653Y-58625082D01*
X115030170Y-58637379D01*
X115049383Y-58651629D01*
X115067107Y-58667693D01*
X115083171Y-58685417D01*
X115097421Y-58704630D01*
X115109718Y-58725147D01*
X115119946Y-58746771D01*
X115128004Y-58769293D01*
X115133816Y-58792497D01*
X115137326Y-58816158D01*
X115138500Y-58840050D01*
X115138500Y-59752550D01*
X115137326Y-59776442D01*
X115133816Y-59800103D01*
X115128004Y-59823307D01*
X115119946Y-59845829D01*
X115109718Y-59867453D01*
X115097421Y-59887970D01*
X115083171Y-59907183D01*
X115067107Y-59924907D01*
X115049383Y-59940971D01*
X115030170Y-59955221D01*
X115009653Y-59967518D01*
X114988029Y-59977746D01*
X114965507Y-59985804D01*
X114942303Y-59991616D01*
X114918642Y-59995126D01*
X114894750Y-59996300D01*
X114407250Y-59996300D01*
X114383358Y-59995126D01*
X114359697Y-59991616D01*
X114336493Y-59985804D01*
X114313971Y-59977746D01*
X114292347Y-59967518D01*
X114271830Y-59955221D01*
X114252617Y-59940971D01*
X114234893Y-59924907D01*
X114218829Y-59907183D01*
X114204579Y-59887970D01*
X114192282Y-59867453D01*
X114182054Y-59845829D01*
X114173996Y-59823307D01*
X114168184Y-59800103D01*
X114164674Y-59776442D01*
X114163500Y-59752550D01*
X114163500Y-58840050D01*
X114164674Y-58816158D01*
X114168184Y-58792497D01*
X114173996Y-58769293D01*
X114182054Y-58746771D01*
X114192282Y-58725147D01*
X114204579Y-58704630D01*
X114218829Y-58685417D01*
X114234893Y-58667693D01*
X114252617Y-58651629D01*
X114271830Y-58637379D01*
X114292347Y-58625082D01*
X114313971Y-58614854D01*
X114336493Y-58606796D01*
X114359697Y-58600984D01*
X114383358Y-58597474D01*
X114407250Y-58596300D01*
X114894750Y-58596300D01*
X114918642Y-58597474D01*
X114918642Y-58597474D01*
G37*
D15*
G04 #@! TD*
G04 #@! TO.P,D10,1*
G04 #@! TO.N,/GPLED2*
X114651000Y-59296300D03*
D12*
G04 #@! TO.N,Net-(D10-Pad2)*
G04 #@! TO.C,D10*
G36*
X113043642Y-58597474D02*
X113067303Y-58600984D01*
X113090507Y-58606796D01*
X113113029Y-58614854D01*
X113134653Y-58625082D01*
X113155170Y-58637379D01*
X113174383Y-58651629D01*
X113192107Y-58667693D01*
X113208171Y-58685417D01*
X113222421Y-58704630D01*
X113234718Y-58725147D01*
X113244946Y-58746771D01*
X113253004Y-58769293D01*
X113258816Y-58792497D01*
X113262326Y-58816158D01*
X113263500Y-58840050D01*
X113263500Y-59752550D01*
X113262326Y-59776442D01*
X113258816Y-59800103D01*
X113253004Y-59823307D01*
X113244946Y-59845829D01*
X113234718Y-59867453D01*
X113222421Y-59887970D01*
X113208171Y-59907183D01*
X113192107Y-59924907D01*
X113174383Y-59940971D01*
X113155170Y-59955221D01*
X113134653Y-59967518D01*
X113113029Y-59977746D01*
X113090507Y-59985804D01*
X113067303Y-59991616D01*
X113043642Y-59995126D01*
X113019750Y-59996300D01*
X112532250Y-59996300D01*
X112508358Y-59995126D01*
X112484697Y-59991616D01*
X112461493Y-59985804D01*
X112438971Y-59977746D01*
X112417347Y-59967518D01*
X112396830Y-59955221D01*
X112377617Y-59940971D01*
X112359893Y-59924907D01*
X112343829Y-59907183D01*
X112329579Y-59887970D01*
X112317282Y-59867453D01*
X112307054Y-59845829D01*
X112298996Y-59823307D01*
X112293184Y-59800103D01*
X112289674Y-59776442D01*
X112288500Y-59752550D01*
X112288500Y-58840050D01*
X112289674Y-58816158D01*
X112293184Y-58792497D01*
X112298996Y-58769293D01*
X112307054Y-58746771D01*
X112317282Y-58725147D01*
X112329579Y-58704630D01*
X112343829Y-58685417D01*
X112359893Y-58667693D01*
X112377617Y-58651629D01*
X112396830Y-58637379D01*
X112417347Y-58625082D01*
X112438971Y-58614854D01*
X112461493Y-58606796D01*
X112484697Y-58600984D01*
X112508358Y-58597474D01*
X112532250Y-58596300D01*
X113019750Y-58596300D01*
X113043642Y-58597474D01*
X113043642Y-58597474D01*
G37*
D15*
G04 #@! TD*
G04 #@! TO.P,D10,2*
G04 #@! TO.N,Net-(D10-Pad2)*
X112776000Y-59296300D03*
D12*
G04 #@! TO.N,GND*
G04 #@! TO.C,J2*
G36*
X105805505Y-80528804D02*
X105829773Y-80532404D01*
X105853572Y-80538365D01*
X105876671Y-80546630D01*
X105898850Y-80557120D01*
X105919893Y-80569732D01*
X105939599Y-80584347D01*
X105957777Y-80600823D01*
X105974253Y-80619001D01*
X105988868Y-80638707D01*
X106001480Y-80659750D01*
X106011970Y-80681929D01*
X106020235Y-80705028D01*
X106026196Y-80728827D01*
X106029796Y-80753095D01*
X106031000Y-80777599D01*
X106031000Y-81477601D01*
X106029796Y-81502105D01*
X106026196Y-81526373D01*
X106020235Y-81550172D01*
X106011970Y-81573271D01*
X106001480Y-81595450D01*
X105988868Y-81616493D01*
X105974253Y-81636199D01*
X105957777Y-81654377D01*
X105939599Y-81670853D01*
X105919893Y-81685468D01*
X105898850Y-81698080D01*
X105876671Y-81708570D01*
X105853572Y-81716835D01*
X105829773Y-81722796D01*
X105805505Y-81726396D01*
X105781001Y-81727600D01*
X104530999Y-81727600D01*
X104506495Y-81726396D01*
X104482227Y-81722796D01*
X104458428Y-81716835D01*
X104435329Y-81708570D01*
X104413150Y-81698080D01*
X104392107Y-81685468D01*
X104372401Y-81670853D01*
X104354223Y-81654377D01*
X104337747Y-81636199D01*
X104323132Y-81616493D01*
X104310520Y-81595450D01*
X104300030Y-81573271D01*
X104291765Y-81550172D01*
X104285804Y-81526373D01*
X104282204Y-81502105D01*
X104281000Y-81477601D01*
X104281000Y-80777599D01*
X104282204Y-80753095D01*
X104285804Y-80728827D01*
X104291765Y-80705028D01*
X104300030Y-80681929D01*
X104310520Y-80659750D01*
X104323132Y-80638707D01*
X104337747Y-80619001D01*
X104354223Y-80600823D01*
X104372401Y-80584347D01*
X104392107Y-80569732D01*
X104413150Y-80557120D01*
X104435329Y-80546630D01*
X104458428Y-80538365D01*
X104482227Y-80532404D01*
X104506495Y-80528804D01*
X104530999Y-80527600D01*
X105781001Y-80527600D01*
X105805505Y-80528804D01*
X105805505Y-80528804D01*
G37*
D16*
G04 #@! TD*
G04 #@! TO.P,J2,1*
G04 #@! TO.N,GND*
X105156000Y-81127600D03*
D17*
G04 #@! TO.P,J2,2*
G04 #@! TO.N,/Sheet5C1E5C91/NTC*
X105156000Y-83127600D03*
G04 #@! TO.P,J2,3*
G04 #@! TO.N,/Sheet5C1E5C91/Batt_int*
X105156000Y-85127600D03*
G04 #@! TD*
D12*
G04 #@! TO.N,/Sheet5C1E5C91/Solar+*
G04 #@! TO.C,J5*
G36*
X112534504Y-75986204D02*
X112558773Y-75989804D01*
X112582571Y-75995765D01*
X112605671Y-76004030D01*
X112627849Y-76014520D01*
X112648893Y-76027133D01*
X112668598Y-76041747D01*
X112686777Y-76058223D01*
X112703253Y-76076402D01*
X112717867Y-76096107D01*
X112730480Y-76117151D01*
X112740970Y-76139329D01*
X112749235Y-76162429D01*
X112755196Y-76186227D01*
X112758796Y-76210496D01*
X112760000Y-76235000D01*
X112760000Y-77435000D01*
X112758796Y-77459504D01*
X112755196Y-77483773D01*
X112749235Y-77507571D01*
X112740970Y-77530671D01*
X112730480Y-77552849D01*
X112717867Y-77573893D01*
X112703253Y-77593598D01*
X112686777Y-77611777D01*
X112668598Y-77628253D01*
X112648893Y-77642867D01*
X112627849Y-77655480D01*
X112605671Y-77665970D01*
X112582571Y-77674235D01*
X112558773Y-77680196D01*
X112534504Y-77683796D01*
X112510000Y-77685000D01*
X111010000Y-77685000D01*
X110985496Y-77683796D01*
X110961227Y-77680196D01*
X110937429Y-77674235D01*
X110914329Y-77665970D01*
X110892151Y-77655480D01*
X110871107Y-77642867D01*
X110851402Y-77628253D01*
X110833223Y-77611777D01*
X110816747Y-77593598D01*
X110802133Y-77573893D01*
X110789520Y-77552849D01*
X110779030Y-77530671D01*
X110770765Y-77507571D01*
X110764804Y-77483773D01*
X110761204Y-77459504D01*
X110760000Y-77435000D01*
X110760000Y-76235000D01*
X110761204Y-76210496D01*
X110764804Y-76186227D01*
X110770765Y-76162429D01*
X110779030Y-76139329D01*
X110789520Y-76117151D01*
X110802133Y-76096107D01*
X110816747Y-76076402D01*
X110833223Y-76058223D01*
X110851402Y-76041747D01*
X110871107Y-76027133D01*
X110892151Y-76014520D01*
X110914329Y-76004030D01*
X110937429Y-75995765D01*
X110961227Y-75989804D01*
X110985496Y-75986204D01*
X111010000Y-75985000D01*
X112510000Y-75985000D01*
X112534504Y-75986204D01*
X112534504Y-75986204D01*
G37*
D13*
G04 #@! TD*
G04 #@! TO.P,J5,1*
G04 #@! TO.N,/Sheet5C1E5C91/Solar+*
X111760000Y-76835000D03*
D18*
G04 #@! TO.P,J5,2*
G04 #@! TO.N,GND*
X111760000Y-79335000D03*
G04 #@! TD*
D19*
G04 #@! TO.P,JP1,1*
G04 #@! TO.N,Net-(JP1-Pad1)*
X100685600Y-99009200D03*
G04 #@! TO.P,JP1,2*
G04 #@! TO.N,/RESET*
X101498400Y-99009200D03*
G04 #@! TD*
D12*
G04 #@! TO.N,Net-(R17-Pad2)*
G04 #@! TO.C,R17*
G36*
X103757291Y-101442853D02*
X103778526Y-101446003D01*
X103799350Y-101451219D01*
X103819562Y-101458451D01*
X103838968Y-101467630D01*
X103857381Y-101478666D01*
X103874624Y-101491454D01*
X103890530Y-101505870D01*
X103904946Y-101521776D01*
X103917734Y-101539019D01*
X103928770Y-101557432D01*
X103937949Y-101576838D01*
X103945181Y-101597050D01*
X103950397Y-101617874D01*
X103953547Y-101639109D01*
X103954600Y-101660550D01*
X103954600Y-102098050D01*
X103953547Y-102119491D01*
X103950397Y-102140726D01*
X103945181Y-102161550D01*
X103937949Y-102181762D01*
X103928770Y-102201168D01*
X103917734Y-102219581D01*
X103904946Y-102236824D01*
X103890530Y-102252730D01*
X103874624Y-102267146D01*
X103857381Y-102279934D01*
X103838968Y-102290970D01*
X103819562Y-102300149D01*
X103799350Y-102307381D01*
X103778526Y-102312597D01*
X103757291Y-102315747D01*
X103735850Y-102316800D01*
X103223350Y-102316800D01*
X103201909Y-102315747D01*
X103180674Y-102312597D01*
X103159850Y-102307381D01*
X103139638Y-102300149D01*
X103120232Y-102290970D01*
X103101819Y-102279934D01*
X103084576Y-102267146D01*
X103068670Y-102252730D01*
X103054254Y-102236824D01*
X103041466Y-102219581D01*
X103030430Y-102201168D01*
X103021251Y-102181762D01*
X103014019Y-102161550D01*
X103008803Y-102140726D01*
X103005653Y-102119491D01*
X103004600Y-102098050D01*
X103004600Y-101660550D01*
X103005653Y-101639109D01*
X103008803Y-101617874D01*
X103014019Y-101597050D01*
X103021251Y-101576838D01*
X103030430Y-101557432D01*
X103041466Y-101539019D01*
X103054254Y-101521776D01*
X103068670Y-101505870D01*
X103084576Y-101491454D01*
X103101819Y-101478666D01*
X103120232Y-101467630D01*
X103139638Y-101458451D01*
X103159850Y-101451219D01*
X103180674Y-101446003D01*
X103201909Y-101442853D01*
X103223350Y-101441800D01*
X103735850Y-101441800D01*
X103757291Y-101442853D01*
X103757291Y-101442853D01*
G37*
D20*
G04 #@! TD*
G04 #@! TO.P,R17,2*
G04 #@! TO.N,Net-(R17-Pad2)*
X103479600Y-101879300D03*
D12*
G04 #@! TO.N,GND*
G04 #@! TO.C,R17*
G36*
X103757291Y-103017853D02*
X103778526Y-103021003D01*
X103799350Y-103026219D01*
X103819562Y-103033451D01*
X103838968Y-103042630D01*
X103857381Y-103053666D01*
X103874624Y-103066454D01*
X103890530Y-103080870D01*
X103904946Y-103096776D01*
X103917734Y-103114019D01*
X103928770Y-103132432D01*
X103937949Y-103151838D01*
X103945181Y-103172050D01*
X103950397Y-103192874D01*
X103953547Y-103214109D01*
X103954600Y-103235550D01*
X103954600Y-103673050D01*
X103953547Y-103694491D01*
X103950397Y-103715726D01*
X103945181Y-103736550D01*
X103937949Y-103756762D01*
X103928770Y-103776168D01*
X103917734Y-103794581D01*
X103904946Y-103811824D01*
X103890530Y-103827730D01*
X103874624Y-103842146D01*
X103857381Y-103854934D01*
X103838968Y-103865970D01*
X103819562Y-103875149D01*
X103799350Y-103882381D01*
X103778526Y-103887597D01*
X103757291Y-103890747D01*
X103735850Y-103891800D01*
X103223350Y-103891800D01*
X103201909Y-103890747D01*
X103180674Y-103887597D01*
X103159850Y-103882381D01*
X103139638Y-103875149D01*
X103120232Y-103865970D01*
X103101819Y-103854934D01*
X103084576Y-103842146D01*
X103068670Y-103827730D01*
X103054254Y-103811824D01*
X103041466Y-103794581D01*
X103030430Y-103776168D01*
X103021251Y-103756762D01*
X103014019Y-103736550D01*
X103008803Y-103715726D01*
X103005653Y-103694491D01*
X103004600Y-103673050D01*
X103004600Y-103235550D01*
X103005653Y-103214109D01*
X103008803Y-103192874D01*
X103014019Y-103172050D01*
X103021251Y-103151838D01*
X103030430Y-103132432D01*
X103041466Y-103114019D01*
X103054254Y-103096776D01*
X103068670Y-103080870D01*
X103084576Y-103066454D01*
X103101819Y-103053666D01*
X103120232Y-103042630D01*
X103139638Y-103033451D01*
X103159850Y-103026219D01*
X103180674Y-103021003D01*
X103201909Y-103017853D01*
X103223350Y-103016800D01*
X103735850Y-103016800D01*
X103757291Y-103017853D01*
X103757291Y-103017853D01*
G37*
D20*
G04 #@! TD*
G04 #@! TO.P,R17,1*
G04 #@! TO.N,GND*
X103479600Y-103454300D03*
D12*
G04 #@! TO.N,Net-(D8-Pad2)*
G04 #@! TO.C,R18*
G36*
X111365191Y-53501053D02*
X111386426Y-53504203D01*
X111407250Y-53509419D01*
X111427462Y-53516651D01*
X111446868Y-53525830D01*
X111465281Y-53536866D01*
X111482524Y-53549654D01*
X111498430Y-53564070D01*
X111512846Y-53579976D01*
X111525634Y-53597219D01*
X111536670Y-53615632D01*
X111545849Y-53635038D01*
X111553081Y-53655250D01*
X111558297Y-53676074D01*
X111561447Y-53697309D01*
X111562500Y-53718750D01*
X111562500Y-54231250D01*
X111561447Y-54252691D01*
X111558297Y-54273926D01*
X111553081Y-54294750D01*
X111545849Y-54314962D01*
X111536670Y-54334368D01*
X111525634Y-54352781D01*
X111512846Y-54370024D01*
X111498430Y-54385930D01*
X111482524Y-54400346D01*
X111465281Y-54413134D01*
X111446868Y-54424170D01*
X111427462Y-54433349D01*
X111407250Y-54440581D01*
X111386426Y-54445797D01*
X111365191Y-54448947D01*
X111343750Y-54450000D01*
X110906250Y-54450000D01*
X110884809Y-54448947D01*
X110863574Y-54445797D01*
X110842750Y-54440581D01*
X110822538Y-54433349D01*
X110803132Y-54424170D01*
X110784719Y-54413134D01*
X110767476Y-54400346D01*
X110751570Y-54385930D01*
X110737154Y-54370024D01*
X110724366Y-54352781D01*
X110713330Y-54334368D01*
X110704151Y-54314962D01*
X110696919Y-54294750D01*
X110691703Y-54273926D01*
X110688553Y-54252691D01*
X110687500Y-54231250D01*
X110687500Y-53718750D01*
X110688553Y-53697309D01*
X110691703Y-53676074D01*
X110696919Y-53655250D01*
X110704151Y-53635038D01*
X110713330Y-53615632D01*
X110724366Y-53597219D01*
X110737154Y-53579976D01*
X110751570Y-53564070D01*
X110767476Y-53549654D01*
X110784719Y-53536866D01*
X110803132Y-53525830D01*
X110822538Y-53516651D01*
X110842750Y-53509419D01*
X110863574Y-53504203D01*
X110884809Y-53501053D01*
X110906250Y-53500000D01*
X111343750Y-53500000D01*
X111365191Y-53501053D01*
X111365191Y-53501053D01*
G37*
D20*
G04 #@! TD*
G04 #@! TO.P,R18,1*
G04 #@! TO.N,Net-(D8-Pad2)*
X111125000Y-53975000D03*
D12*
G04 #@! TO.N,Net-(JP2-Pad1)*
G04 #@! TO.C,R18*
G36*
X109790191Y-53501053D02*
X109811426Y-53504203D01*
X109832250Y-53509419D01*
X109852462Y-53516651D01*
X109871868Y-53525830D01*
X109890281Y-53536866D01*
X109907524Y-53549654D01*
X109923430Y-53564070D01*
X109937846Y-53579976D01*
X109950634Y-53597219D01*
X109961670Y-53615632D01*
X109970849Y-53635038D01*
X109978081Y-53655250D01*
X109983297Y-53676074D01*
X109986447Y-53697309D01*
X109987500Y-53718750D01*
X109987500Y-54231250D01*
X109986447Y-54252691D01*
X109983297Y-54273926D01*
X109978081Y-54294750D01*
X109970849Y-54314962D01*
X109961670Y-54334368D01*
X109950634Y-54352781D01*
X109937846Y-54370024D01*
X109923430Y-54385930D01*
X109907524Y-54400346D01*
X109890281Y-54413134D01*
X109871868Y-54424170D01*
X109852462Y-54433349D01*
X109832250Y-54440581D01*
X109811426Y-54445797D01*
X109790191Y-54448947D01*
X109768750Y-54450000D01*
X109331250Y-54450000D01*
X109309809Y-54448947D01*
X109288574Y-54445797D01*
X109267750Y-54440581D01*
X109247538Y-54433349D01*
X109228132Y-54424170D01*
X109209719Y-54413134D01*
X109192476Y-54400346D01*
X109176570Y-54385930D01*
X109162154Y-54370024D01*
X109149366Y-54352781D01*
X109138330Y-54334368D01*
X109129151Y-54314962D01*
X109121919Y-54294750D01*
X109116703Y-54273926D01*
X109113553Y-54252691D01*
X109112500Y-54231250D01*
X109112500Y-53718750D01*
X109113553Y-53697309D01*
X109116703Y-53676074D01*
X109121919Y-53655250D01*
X109129151Y-53635038D01*
X109138330Y-53615632D01*
X109149366Y-53597219D01*
X109162154Y-53579976D01*
X109176570Y-53564070D01*
X109192476Y-53549654D01*
X109209719Y-53536866D01*
X109228132Y-53525830D01*
X109247538Y-53516651D01*
X109267750Y-53509419D01*
X109288574Y-53504203D01*
X109309809Y-53501053D01*
X109331250Y-53500000D01*
X109768750Y-53500000D01*
X109790191Y-53501053D01*
X109790191Y-53501053D01*
G37*
D20*
G04 #@! TD*
G04 #@! TO.P,R18,2*
G04 #@! TO.N,Net-(JP2-Pad1)*
X109550000Y-53975000D03*
D12*
G04 #@! TO.N,Net-(JP3-Pad2)*
G04 #@! TO.C,R19*
G36*
X109790191Y-55698153D02*
X109811426Y-55701303D01*
X109832250Y-55706519D01*
X109852462Y-55713751D01*
X109871868Y-55722930D01*
X109890281Y-55733966D01*
X109907524Y-55746754D01*
X109923430Y-55761170D01*
X109937846Y-55777076D01*
X109950634Y-55794319D01*
X109961670Y-55812732D01*
X109970849Y-55832138D01*
X109978081Y-55852350D01*
X109983297Y-55873174D01*
X109986447Y-55894409D01*
X109987500Y-55915850D01*
X109987500Y-56428350D01*
X109986447Y-56449791D01*
X109983297Y-56471026D01*
X109978081Y-56491850D01*
X109970849Y-56512062D01*
X109961670Y-56531468D01*
X109950634Y-56549881D01*
X109937846Y-56567124D01*
X109923430Y-56583030D01*
X109907524Y-56597446D01*
X109890281Y-56610234D01*
X109871868Y-56621270D01*
X109852462Y-56630449D01*
X109832250Y-56637681D01*
X109811426Y-56642897D01*
X109790191Y-56646047D01*
X109768750Y-56647100D01*
X109331250Y-56647100D01*
X109309809Y-56646047D01*
X109288574Y-56642897D01*
X109267750Y-56637681D01*
X109247538Y-56630449D01*
X109228132Y-56621270D01*
X109209719Y-56610234D01*
X109192476Y-56597446D01*
X109176570Y-56583030D01*
X109162154Y-56567124D01*
X109149366Y-56549881D01*
X109138330Y-56531468D01*
X109129151Y-56512062D01*
X109121919Y-56491850D01*
X109116703Y-56471026D01*
X109113553Y-56449791D01*
X109112500Y-56428350D01*
X109112500Y-55915850D01*
X109113553Y-55894409D01*
X109116703Y-55873174D01*
X109121919Y-55852350D01*
X109129151Y-55832138D01*
X109138330Y-55812732D01*
X109149366Y-55794319D01*
X109162154Y-55777076D01*
X109176570Y-55761170D01*
X109192476Y-55746754D01*
X109209719Y-55733966D01*
X109228132Y-55722930D01*
X109247538Y-55713751D01*
X109267750Y-55706519D01*
X109288574Y-55701303D01*
X109309809Y-55698153D01*
X109331250Y-55697100D01*
X109768750Y-55697100D01*
X109790191Y-55698153D01*
X109790191Y-55698153D01*
G37*
D20*
G04 #@! TD*
G04 #@! TO.P,R19,1*
G04 #@! TO.N,Net-(JP3-Pad2)*
X109550000Y-56172100D03*
D12*
G04 #@! TO.N,Net-(D9-Pad2)*
G04 #@! TO.C,R19*
G36*
X111365191Y-55698153D02*
X111386426Y-55701303D01*
X111407250Y-55706519D01*
X111427462Y-55713751D01*
X111446868Y-55722930D01*
X111465281Y-55733966D01*
X111482524Y-55746754D01*
X111498430Y-55761170D01*
X111512846Y-55777076D01*
X111525634Y-55794319D01*
X111536670Y-55812732D01*
X111545849Y-55832138D01*
X111553081Y-55852350D01*
X111558297Y-55873174D01*
X111561447Y-55894409D01*
X111562500Y-55915850D01*
X111562500Y-56428350D01*
X111561447Y-56449791D01*
X111558297Y-56471026D01*
X111553081Y-56491850D01*
X111545849Y-56512062D01*
X111536670Y-56531468D01*
X111525634Y-56549881D01*
X111512846Y-56567124D01*
X111498430Y-56583030D01*
X111482524Y-56597446D01*
X111465281Y-56610234D01*
X111446868Y-56621270D01*
X111427462Y-56630449D01*
X111407250Y-56637681D01*
X111386426Y-56642897D01*
X111365191Y-56646047D01*
X111343750Y-56647100D01*
X110906250Y-56647100D01*
X110884809Y-56646047D01*
X110863574Y-56642897D01*
X110842750Y-56637681D01*
X110822538Y-56630449D01*
X110803132Y-56621270D01*
X110784719Y-56610234D01*
X110767476Y-56597446D01*
X110751570Y-56583030D01*
X110737154Y-56567124D01*
X110724366Y-56549881D01*
X110713330Y-56531468D01*
X110704151Y-56512062D01*
X110696919Y-56491850D01*
X110691703Y-56471026D01*
X110688553Y-56449791D01*
X110687500Y-56428350D01*
X110687500Y-55915850D01*
X110688553Y-55894409D01*
X110691703Y-55873174D01*
X110696919Y-55852350D01*
X110704151Y-55832138D01*
X110713330Y-55812732D01*
X110724366Y-55794319D01*
X110737154Y-55777076D01*
X110751570Y-55761170D01*
X110767476Y-55746754D01*
X110784719Y-55733966D01*
X110803132Y-55722930D01*
X110822538Y-55713751D01*
X110842750Y-55706519D01*
X110863574Y-55701303D01*
X110884809Y-55698153D01*
X110906250Y-55697100D01*
X111343750Y-55697100D01*
X111365191Y-55698153D01*
X111365191Y-55698153D01*
G37*
D20*
G04 #@! TD*
G04 #@! TO.P,R19,2*
G04 #@! TO.N,Net-(D9-Pad2)*
X111125000Y-56172100D03*
D12*
G04 #@! TO.N,Net-(R20-Pad2)*
G04 #@! TO.C,R20*
G36*
X109688691Y-58822353D02*
X109709926Y-58825503D01*
X109730750Y-58830719D01*
X109750962Y-58837951D01*
X109770368Y-58847130D01*
X109788781Y-58858166D01*
X109806024Y-58870954D01*
X109821930Y-58885370D01*
X109836346Y-58901276D01*
X109849134Y-58918519D01*
X109860170Y-58936932D01*
X109869349Y-58956338D01*
X109876581Y-58976550D01*
X109881797Y-58997374D01*
X109884947Y-59018609D01*
X109886000Y-59040050D01*
X109886000Y-59552550D01*
X109884947Y-59573991D01*
X109881797Y-59595226D01*
X109876581Y-59616050D01*
X109869349Y-59636262D01*
X109860170Y-59655668D01*
X109849134Y-59674081D01*
X109836346Y-59691324D01*
X109821930Y-59707230D01*
X109806024Y-59721646D01*
X109788781Y-59734434D01*
X109770368Y-59745470D01*
X109750962Y-59754649D01*
X109730750Y-59761881D01*
X109709926Y-59767097D01*
X109688691Y-59770247D01*
X109667250Y-59771300D01*
X109229750Y-59771300D01*
X109208309Y-59770247D01*
X109187074Y-59767097D01*
X109166250Y-59761881D01*
X109146038Y-59754649D01*
X109126632Y-59745470D01*
X109108219Y-59734434D01*
X109090976Y-59721646D01*
X109075070Y-59707230D01*
X109060654Y-59691324D01*
X109047866Y-59674081D01*
X109036830Y-59655668D01*
X109027651Y-59636262D01*
X109020419Y-59616050D01*
X109015203Y-59595226D01*
X109012053Y-59573991D01*
X109011000Y-59552550D01*
X109011000Y-59040050D01*
X109012053Y-59018609D01*
X109015203Y-58997374D01*
X109020419Y-58976550D01*
X109027651Y-58956338D01*
X109036830Y-58936932D01*
X109047866Y-58918519D01*
X109060654Y-58901276D01*
X109075070Y-58885370D01*
X109090976Y-58870954D01*
X109108219Y-58858166D01*
X109126632Y-58847130D01*
X109146038Y-58837951D01*
X109166250Y-58830719D01*
X109187074Y-58825503D01*
X109208309Y-58822353D01*
X109229750Y-58821300D01*
X109667250Y-58821300D01*
X109688691Y-58822353D01*
X109688691Y-58822353D01*
G37*
D20*
G04 #@! TD*
G04 #@! TO.P,R20,2*
G04 #@! TO.N,Net-(R20-Pad2)*
X109448500Y-59296300D03*
D12*
G04 #@! TO.N,Net-(D10-Pad2)*
G04 #@! TO.C,R20*
G36*
X111263691Y-58822353D02*
X111284926Y-58825503D01*
X111305750Y-58830719D01*
X111325962Y-58837951D01*
X111345368Y-58847130D01*
X111363781Y-58858166D01*
X111381024Y-58870954D01*
X111396930Y-58885370D01*
X111411346Y-58901276D01*
X111424134Y-58918519D01*
X111435170Y-58936932D01*
X111444349Y-58956338D01*
X111451581Y-58976550D01*
X111456797Y-58997374D01*
X111459947Y-59018609D01*
X111461000Y-59040050D01*
X111461000Y-59552550D01*
X111459947Y-59573991D01*
X111456797Y-59595226D01*
X111451581Y-59616050D01*
X111444349Y-59636262D01*
X111435170Y-59655668D01*
X111424134Y-59674081D01*
X111411346Y-59691324D01*
X111396930Y-59707230D01*
X111381024Y-59721646D01*
X111363781Y-59734434D01*
X111345368Y-59745470D01*
X111325962Y-59754649D01*
X111305750Y-59761881D01*
X111284926Y-59767097D01*
X111263691Y-59770247D01*
X111242250Y-59771300D01*
X110804750Y-59771300D01*
X110783309Y-59770247D01*
X110762074Y-59767097D01*
X110741250Y-59761881D01*
X110721038Y-59754649D01*
X110701632Y-59745470D01*
X110683219Y-59734434D01*
X110665976Y-59721646D01*
X110650070Y-59707230D01*
X110635654Y-59691324D01*
X110622866Y-59674081D01*
X110611830Y-59655668D01*
X110602651Y-59636262D01*
X110595419Y-59616050D01*
X110590203Y-59595226D01*
X110587053Y-59573991D01*
X110586000Y-59552550D01*
X110586000Y-59040050D01*
X110587053Y-59018609D01*
X110590203Y-58997374D01*
X110595419Y-58976550D01*
X110602651Y-58956338D01*
X110611830Y-58936932D01*
X110622866Y-58918519D01*
X110635654Y-58901276D01*
X110650070Y-58885370D01*
X110665976Y-58870954D01*
X110683219Y-58858166D01*
X110701632Y-58847130D01*
X110721038Y-58837951D01*
X110741250Y-58830719D01*
X110762074Y-58825503D01*
X110783309Y-58822353D01*
X110804750Y-58821300D01*
X111242250Y-58821300D01*
X111263691Y-58822353D01*
X111263691Y-58822353D01*
G37*
D20*
G04 #@! TD*
G04 #@! TO.P,R20,1*
G04 #@! TO.N,Net-(D10-Pad2)*
X111023500Y-59296300D03*
D21*
G04 #@! TO.P,SW2,1*
G04 #@! TO.N,Net-(SW2-Pad1)*
X98907600Y-87579200D03*
D22*
G04 #@! TO.P,SW2,2*
G04 #@! TO.N,/Sheet5C1E5C91/Batt_int*
X98907600Y-85039200D03*
G04 #@! TO.P,SW2,3*
G04 #@! TO.N,/Sheet5C1E5C91/Batt+*
X98907600Y-82499200D03*
G04 #@! TD*
D23*
G04 #@! TO.P,SW3,2*
G04 #@! TO.N,Net-(R20-Pad2)*
X108144600Y-67856100D03*
G04 #@! TO.P,SW3,1*
G04 #@! TO.N,3V3*
X115544600Y-67856100D03*
G04 #@! TD*
D12*
G04 #@! TO.N,GND*
G04 #@! TO.C,U6*
G36*
X111213903Y-99903722D02*
X111228464Y-99905882D01*
X111242743Y-99909459D01*
X111256603Y-99914418D01*
X111269910Y-99920712D01*
X111282536Y-99928280D01*
X111294359Y-99937048D01*
X111305266Y-99946934D01*
X111315152Y-99957841D01*
X111323920Y-99969664D01*
X111331488Y-99982290D01*
X111337782Y-99995597D01*
X111342741Y-100009457D01*
X111346318Y-100023736D01*
X111348478Y-100038297D01*
X111349200Y-100053000D01*
X111349200Y-100353000D01*
X111348478Y-100367703D01*
X111346318Y-100382264D01*
X111342741Y-100396543D01*
X111337782Y-100410403D01*
X111331488Y-100423710D01*
X111323920Y-100436336D01*
X111315152Y-100448159D01*
X111305266Y-100459066D01*
X111294359Y-100468952D01*
X111282536Y-100477720D01*
X111269910Y-100485288D01*
X111256603Y-100491582D01*
X111242743Y-100496541D01*
X111228464Y-100500118D01*
X111213903Y-100502278D01*
X111199200Y-100503000D01*
X109949200Y-100503000D01*
X109934497Y-100502278D01*
X109919936Y-100500118D01*
X109905657Y-100496541D01*
X109891797Y-100491582D01*
X109878490Y-100485288D01*
X109865864Y-100477720D01*
X109854041Y-100468952D01*
X109843134Y-100459066D01*
X109833248Y-100448159D01*
X109824480Y-100436336D01*
X109816912Y-100423710D01*
X109810618Y-100410403D01*
X109805659Y-100396543D01*
X109802082Y-100382264D01*
X109799922Y-100367703D01*
X109799200Y-100353000D01*
X109799200Y-100053000D01*
X109799922Y-100038297D01*
X109802082Y-100023736D01*
X109805659Y-100009457D01*
X109810618Y-99995597D01*
X109816912Y-99982290D01*
X109824480Y-99969664D01*
X109833248Y-99957841D01*
X109843134Y-99946934D01*
X109854041Y-99937048D01*
X109865864Y-99928280D01*
X109878490Y-99920712D01*
X109891797Y-99914418D01*
X109905657Y-99909459D01*
X109919936Y-99905882D01*
X109934497Y-99903722D01*
X109949200Y-99903000D01*
X111199200Y-99903000D01*
X111213903Y-99903722D01*
X111213903Y-99903722D01*
G37*
D24*
G04 #@! TD*
G04 #@! TO.P,U6,1*
G04 #@! TO.N,GND*
X110574200Y-100203000D03*
D12*
G04 #@! TO.N,GND*
G04 #@! TO.C,U6*
G36*
X111213903Y-98633722D02*
X111228464Y-98635882D01*
X111242743Y-98639459D01*
X111256603Y-98644418D01*
X111269910Y-98650712D01*
X111282536Y-98658280D01*
X111294359Y-98667048D01*
X111305266Y-98676934D01*
X111315152Y-98687841D01*
X111323920Y-98699664D01*
X111331488Y-98712290D01*
X111337782Y-98725597D01*
X111342741Y-98739457D01*
X111346318Y-98753736D01*
X111348478Y-98768297D01*
X111349200Y-98783000D01*
X111349200Y-99083000D01*
X111348478Y-99097703D01*
X111346318Y-99112264D01*
X111342741Y-99126543D01*
X111337782Y-99140403D01*
X111331488Y-99153710D01*
X111323920Y-99166336D01*
X111315152Y-99178159D01*
X111305266Y-99189066D01*
X111294359Y-99198952D01*
X111282536Y-99207720D01*
X111269910Y-99215288D01*
X111256603Y-99221582D01*
X111242743Y-99226541D01*
X111228464Y-99230118D01*
X111213903Y-99232278D01*
X111199200Y-99233000D01*
X109949200Y-99233000D01*
X109934497Y-99232278D01*
X109919936Y-99230118D01*
X109905657Y-99226541D01*
X109891797Y-99221582D01*
X109878490Y-99215288D01*
X109865864Y-99207720D01*
X109854041Y-99198952D01*
X109843134Y-99189066D01*
X109833248Y-99178159D01*
X109824480Y-99166336D01*
X109816912Y-99153710D01*
X109810618Y-99140403D01*
X109805659Y-99126543D01*
X109802082Y-99112264D01*
X109799922Y-99097703D01*
X109799200Y-99083000D01*
X109799200Y-98783000D01*
X109799922Y-98768297D01*
X109802082Y-98753736D01*
X109805659Y-98739457D01*
X109810618Y-98725597D01*
X109816912Y-98712290D01*
X109824480Y-98699664D01*
X109833248Y-98687841D01*
X109843134Y-98676934D01*
X109854041Y-98667048D01*
X109865864Y-98658280D01*
X109878490Y-98650712D01*
X109891797Y-98644418D01*
X109905657Y-98639459D01*
X109919936Y-98635882D01*
X109934497Y-98633722D01*
X109949200Y-98633000D01*
X111199200Y-98633000D01*
X111213903Y-98633722D01*
X111213903Y-98633722D01*
G37*
D24*
G04 #@! TD*
G04 #@! TO.P,U6,2*
G04 #@! TO.N,GND*
X110574200Y-98933000D03*
D12*
G04 #@! TO.N,GND*
G04 #@! TO.C,U6*
G36*
X111213903Y-97363722D02*
X111228464Y-97365882D01*
X111242743Y-97369459D01*
X111256603Y-97374418D01*
X111269910Y-97380712D01*
X111282536Y-97388280D01*
X111294359Y-97397048D01*
X111305266Y-97406934D01*
X111315152Y-97417841D01*
X111323920Y-97429664D01*
X111331488Y-97442290D01*
X111337782Y-97455597D01*
X111342741Y-97469457D01*
X111346318Y-97483736D01*
X111348478Y-97498297D01*
X111349200Y-97513000D01*
X111349200Y-97813000D01*
X111348478Y-97827703D01*
X111346318Y-97842264D01*
X111342741Y-97856543D01*
X111337782Y-97870403D01*
X111331488Y-97883710D01*
X111323920Y-97896336D01*
X111315152Y-97908159D01*
X111305266Y-97919066D01*
X111294359Y-97928952D01*
X111282536Y-97937720D01*
X111269910Y-97945288D01*
X111256603Y-97951582D01*
X111242743Y-97956541D01*
X111228464Y-97960118D01*
X111213903Y-97962278D01*
X111199200Y-97963000D01*
X109949200Y-97963000D01*
X109934497Y-97962278D01*
X109919936Y-97960118D01*
X109905657Y-97956541D01*
X109891797Y-97951582D01*
X109878490Y-97945288D01*
X109865864Y-97937720D01*
X109854041Y-97928952D01*
X109843134Y-97919066D01*
X109833248Y-97908159D01*
X109824480Y-97896336D01*
X109816912Y-97883710D01*
X109810618Y-97870403D01*
X109805659Y-97856543D01*
X109802082Y-97842264D01*
X109799922Y-97827703D01*
X109799200Y-97813000D01*
X109799200Y-97513000D01*
X109799922Y-97498297D01*
X109802082Y-97483736D01*
X109805659Y-97469457D01*
X109810618Y-97455597D01*
X109816912Y-97442290D01*
X109824480Y-97429664D01*
X109833248Y-97417841D01*
X109843134Y-97406934D01*
X109854041Y-97397048D01*
X109865864Y-97388280D01*
X109878490Y-97380712D01*
X109891797Y-97374418D01*
X109905657Y-97369459D01*
X109919936Y-97365882D01*
X109934497Y-97363722D01*
X109949200Y-97363000D01*
X111199200Y-97363000D01*
X111213903Y-97363722D01*
X111213903Y-97363722D01*
G37*
D24*
G04 #@! TD*
G04 #@! TO.P,U6,3*
G04 #@! TO.N,GND*
X110574200Y-97663000D03*
D12*
G04 #@! TO.N,GND*
G04 #@! TO.C,U6*
G36*
X111213903Y-96093722D02*
X111228464Y-96095882D01*
X111242743Y-96099459D01*
X111256603Y-96104418D01*
X111269910Y-96110712D01*
X111282536Y-96118280D01*
X111294359Y-96127048D01*
X111305266Y-96136934D01*
X111315152Y-96147841D01*
X111323920Y-96159664D01*
X111331488Y-96172290D01*
X111337782Y-96185597D01*
X111342741Y-96199457D01*
X111346318Y-96213736D01*
X111348478Y-96228297D01*
X111349200Y-96243000D01*
X111349200Y-96543000D01*
X111348478Y-96557703D01*
X111346318Y-96572264D01*
X111342741Y-96586543D01*
X111337782Y-96600403D01*
X111331488Y-96613710D01*
X111323920Y-96626336D01*
X111315152Y-96638159D01*
X111305266Y-96649066D01*
X111294359Y-96658952D01*
X111282536Y-96667720D01*
X111269910Y-96675288D01*
X111256603Y-96681582D01*
X111242743Y-96686541D01*
X111228464Y-96690118D01*
X111213903Y-96692278D01*
X111199200Y-96693000D01*
X109949200Y-96693000D01*
X109934497Y-96692278D01*
X109919936Y-96690118D01*
X109905657Y-96686541D01*
X109891797Y-96681582D01*
X109878490Y-96675288D01*
X109865864Y-96667720D01*
X109854041Y-96658952D01*
X109843134Y-96649066D01*
X109833248Y-96638159D01*
X109824480Y-96626336D01*
X109816912Y-96613710D01*
X109810618Y-96600403D01*
X109805659Y-96586543D01*
X109802082Y-96572264D01*
X109799922Y-96557703D01*
X109799200Y-96543000D01*
X109799200Y-96243000D01*
X109799922Y-96228297D01*
X109802082Y-96213736D01*
X109805659Y-96199457D01*
X109810618Y-96185597D01*
X109816912Y-96172290D01*
X109824480Y-96159664D01*
X109833248Y-96147841D01*
X109843134Y-96136934D01*
X109854041Y-96127048D01*
X109865864Y-96118280D01*
X109878490Y-96110712D01*
X109891797Y-96104418D01*
X109905657Y-96099459D01*
X109919936Y-96095882D01*
X109934497Y-96093722D01*
X109949200Y-96093000D01*
X111199200Y-96093000D01*
X111213903Y-96093722D01*
X111213903Y-96093722D01*
G37*
D24*
G04 #@! TD*
G04 #@! TO.P,U6,4*
G04 #@! TO.N,GND*
X110574200Y-96393000D03*
D12*
G04 #@! TO.N,I2C_SDA*
G04 #@! TO.C,U6*
G36*
X105863903Y-96093722D02*
X105878464Y-96095882D01*
X105892743Y-96099459D01*
X105906603Y-96104418D01*
X105919910Y-96110712D01*
X105932536Y-96118280D01*
X105944359Y-96127048D01*
X105955266Y-96136934D01*
X105965152Y-96147841D01*
X105973920Y-96159664D01*
X105981488Y-96172290D01*
X105987782Y-96185597D01*
X105992741Y-96199457D01*
X105996318Y-96213736D01*
X105998478Y-96228297D01*
X105999200Y-96243000D01*
X105999200Y-96543000D01*
X105998478Y-96557703D01*
X105996318Y-96572264D01*
X105992741Y-96586543D01*
X105987782Y-96600403D01*
X105981488Y-96613710D01*
X105973920Y-96626336D01*
X105965152Y-96638159D01*
X105955266Y-96649066D01*
X105944359Y-96658952D01*
X105932536Y-96667720D01*
X105919910Y-96675288D01*
X105906603Y-96681582D01*
X105892743Y-96686541D01*
X105878464Y-96690118D01*
X105863903Y-96692278D01*
X105849200Y-96693000D01*
X104599200Y-96693000D01*
X104584497Y-96692278D01*
X104569936Y-96690118D01*
X104555657Y-96686541D01*
X104541797Y-96681582D01*
X104528490Y-96675288D01*
X104515864Y-96667720D01*
X104504041Y-96658952D01*
X104493134Y-96649066D01*
X104483248Y-96638159D01*
X104474480Y-96626336D01*
X104466912Y-96613710D01*
X104460618Y-96600403D01*
X104455659Y-96586543D01*
X104452082Y-96572264D01*
X104449922Y-96557703D01*
X104449200Y-96543000D01*
X104449200Y-96243000D01*
X104449922Y-96228297D01*
X104452082Y-96213736D01*
X104455659Y-96199457D01*
X104460618Y-96185597D01*
X104466912Y-96172290D01*
X104474480Y-96159664D01*
X104483248Y-96147841D01*
X104493134Y-96136934D01*
X104504041Y-96127048D01*
X104515864Y-96118280D01*
X104528490Y-96110712D01*
X104541797Y-96104418D01*
X104555657Y-96099459D01*
X104569936Y-96095882D01*
X104584497Y-96093722D01*
X104599200Y-96093000D01*
X105849200Y-96093000D01*
X105863903Y-96093722D01*
X105863903Y-96093722D01*
G37*
D24*
G04 #@! TD*
G04 #@! TO.P,U6,5*
G04 #@! TO.N,I2C_SDA*
X105224200Y-96393000D03*
D12*
G04 #@! TO.N,I2C_SCL*
G04 #@! TO.C,U6*
G36*
X105863903Y-97363722D02*
X105878464Y-97365882D01*
X105892743Y-97369459D01*
X105906603Y-97374418D01*
X105919910Y-97380712D01*
X105932536Y-97388280D01*
X105944359Y-97397048D01*
X105955266Y-97406934D01*
X105965152Y-97417841D01*
X105973920Y-97429664D01*
X105981488Y-97442290D01*
X105987782Y-97455597D01*
X105992741Y-97469457D01*
X105996318Y-97483736D01*
X105998478Y-97498297D01*
X105999200Y-97513000D01*
X105999200Y-97813000D01*
X105998478Y-97827703D01*
X105996318Y-97842264D01*
X105992741Y-97856543D01*
X105987782Y-97870403D01*
X105981488Y-97883710D01*
X105973920Y-97896336D01*
X105965152Y-97908159D01*
X105955266Y-97919066D01*
X105944359Y-97928952D01*
X105932536Y-97937720D01*
X105919910Y-97945288D01*
X105906603Y-97951582D01*
X105892743Y-97956541D01*
X105878464Y-97960118D01*
X105863903Y-97962278D01*
X105849200Y-97963000D01*
X104599200Y-97963000D01*
X104584497Y-97962278D01*
X104569936Y-97960118D01*
X104555657Y-97956541D01*
X104541797Y-97951582D01*
X104528490Y-97945288D01*
X104515864Y-97937720D01*
X104504041Y-97928952D01*
X104493134Y-97919066D01*
X104483248Y-97908159D01*
X104474480Y-97896336D01*
X104466912Y-97883710D01*
X104460618Y-97870403D01*
X104455659Y-97856543D01*
X104452082Y-97842264D01*
X104449922Y-97827703D01*
X104449200Y-97813000D01*
X104449200Y-97513000D01*
X104449922Y-97498297D01*
X104452082Y-97483736D01*
X104455659Y-97469457D01*
X104460618Y-97455597D01*
X104466912Y-97442290D01*
X104474480Y-97429664D01*
X104483248Y-97417841D01*
X104493134Y-97406934D01*
X104504041Y-97397048D01*
X104515864Y-97388280D01*
X104528490Y-97380712D01*
X104541797Y-97374418D01*
X104555657Y-97369459D01*
X104569936Y-97365882D01*
X104584497Y-97363722D01*
X104599200Y-97363000D01*
X105849200Y-97363000D01*
X105863903Y-97363722D01*
X105863903Y-97363722D01*
G37*
D24*
G04 #@! TD*
G04 #@! TO.P,U6,6*
G04 #@! TO.N,I2C_SCL*
X105224200Y-97663000D03*
D12*
G04 #@! TO.N,GND*
G04 #@! TO.C,U6*
G36*
X105863903Y-98633722D02*
X105878464Y-98635882D01*
X105892743Y-98639459D01*
X105906603Y-98644418D01*
X105919910Y-98650712D01*
X105932536Y-98658280D01*
X105944359Y-98667048D01*
X105955266Y-98676934D01*
X105965152Y-98687841D01*
X105973920Y-98699664D01*
X105981488Y-98712290D01*
X105987782Y-98725597D01*
X105992741Y-98739457D01*
X105996318Y-98753736D01*
X105998478Y-98768297D01*
X105999200Y-98783000D01*
X105999200Y-99083000D01*
X105998478Y-99097703D01*
X105996318Y-99112264D01*
X105992741Y-99126543D01*
X105987782Y-99140403D01*
X105981488Y-99153710D01*
X105973920Y-99166336D01*
X105965152Y-99178159D01*
X105955266Y-99189066D01*
X105944359Y-99198952D01*
X105932536Y-99207720D01*
X105919910Y-99215288D01*
X105906603Y-99221582D01*
X105892743Y-99226541D01*
X105878464Y-99230118D01*
X105863903Y-99232278D01*
X105849200Y-99233000D01*
X104599200Y-99233000D01*
X104584497Y-99232278D01*
X104569936Y-99230118D01*
X104555657Y-99226541D01*
X104541797Y-99221582D01*
X104528490Y-99215288D01*
X104515864Y-99207720D01*
X104504041Y-99198952D01*
X104493134Y-99189066D01*
X104483248Y-99178159D01*
X104474480Y-99166336D01*
X104466912Y-99153710D01*
X104460618Y-99140403D01*
X104455659Y-99126543D01*
X104452082Y-99112264D01*
X104449922Y-99097703D01*
X104449200Y-99083000D01*
X104449200Y-98783000D01*
X104449922Y-98768297D01*
X104452082Y-98753736D01*
X104455659Y-98739457D01*
X104460618Y-98725597D01*
X104466912Y-98712290D01*
X104474480Y-98699664D01*
X104483248Y-98687841D01*
X104493134Y-98676934D01*
X104504041Y-98667048D01*
X104515864Y-98658280D01*
X104528490Y-98650712D01*
X104541797Y-98644418D01*
X104555657Y-98639459D01*
X104569936Y-98635882D01*
X104584497Y-98633722D01*
X104599200Y-98633000D01*
X105849200Y-98633000D01*
X105863903Y-98633722D01*
X105863903Y-98633722D01*
G37*
D24*
G04 #@! TD*
G04 #@! TO.P,U6,7*
G04 #@! TO.N,GND*
X105224200Y-98933000D03*
D12*
G04 #@! TO.N,3V3*
G04 #@! TO.C,U6*
G36*
X105863903Y-99903722D02*
X105878464Y-99905882D01*
X105892743Y-99909459D01*
X105906603Y-99914418D01*
X105919910Y-99920712D01*
X105932536Y-99928280D01*
X105944359Y-99937048D01*
X105955266Y-99946934D01*
X105965152Y-99957841D01*
X105973920Y-99969664D01*
X105981488Y-99982290D01*
X105987782Y-99995597D01*
X105992741Y-100009457D01*
X105996318Y-100023736D01*
X105998478Y-100038297D01*
X105999200Y-100053000D01*
X105999200Y-100353000D01*
X105998478Y-100367703D01*
X105996318Y-100382264D01*
X105992741Y-100396543D01*
X105987782Y-100410403D01*
X105981488Y-100423710D01*
X105973920Y-100436336D01*
X105965152Y-100448159D01*
X105955266Y-100459066D01*
X105944359Y-100468952D01*
X105932536Y-100477720D01*
X105919910Y-100485288D01*
X105906603Y-100491582D01*
X105892743Y-100496541D01*
X105878464Y-100500118D01*
X105863903Y-100502278D01*
X105849200Y-100503000D01*
X104599200Y-100503000D01*
X104584497Y-100502278D01*
X104569936Y-100500118D01*
X104555657Y-100496541D01*
X104541797Y-100491582D01*
X104528490Y-100485288D01*
X104515864Y-100477720D01*
X104504041Y-100468952D01*
X104493134Y-100459066D01*
X104483248Y-100448159D01*
X104474480Y-100436336D01*
X104466912Y-100423710D01*
X104460618Y-100410403D01*
X104455659Y-100396543D01*
X104452082Y-100382264D01*
X104449922Y-100367703D01*
X104449200Y-100353000D01*
X104449200Y-100053000D01*
X104449922Y-100038297D01*
X104452082Y-100023736D01*
X104455659Y-100009457D01*
X104460618Y-99995597D01*
X104466912Y-99982290D01*
X104474480Y-99969664D01*
X104483248Y-99957841D01*
X104493134Y-99946934D01*
X104504041Y-99937048D01*
X104515864Y-99928280D01*
X104528490Y-99920712D01*
X104541797Y-99914418D01*
X104555657Y-99909459D01*
X104569936Y-99905882D01*
X104584497Y-99903722D01*
X104599200Y-99903000D01*
X105849200Y-99903000D01*
X105863903Y-99903722D01*
X105863903Y-99903722D01*
G37*
D24*
G04 #@! TD*
G04 #@! TO.P,U6,8*
G04 #@! TO.N,3V3*
X105224200Y-100203000D03*
D25*
G04 #@! TO.P,U7,1*
G04 #@! TO.N,3V3*
X100566400Y-103972400D03*
G04 #@! TO.P,U7,2*
G04 #@! TO.N,GND*
X100566400Y-103022400D03*
G04 #@! TO.P,U7,3*
G04 #@! TO.N,Net-(R17-Pad2)*
X100566400Y-102072400D03*
G04 #@! TO.P,U7,4*
G04 #@! TO.N,/DONE*
X98366400Y-102072400D03*
G04 #@! TO.P,U7,6*
G04 #@! TO.N,Net-(JP1-Pad1)*
X98366400Y-103972400D03*
G04 #@! TO.P,U7,5*
G04 #@! TO.N,/WAKE*
X98366400Y-103022400D03*
G04 #@! TD*
D26*
G04 #@! TO.P,U11,4*
G04 #@! TO.N,GND*
X105121200Y-92190000D03*
G04 #@! TO.P,U11,3*
G04 #@! TO.N,/Sheet5C1E5C91/BattMon+*
X105121200Y-91690000D03*
G04 #@! TO.P,U11,2*
X105121200Y-91190000D03*
G04 #@! TO.P,U11,1*
G04 #@! TO.N,GND*
X105121200Y-90690000D03*
G04 #@! TO.P,U11,8*
G04 #@! TO.N,I2C_SDA*
X107121200Y-90690000D03*
G04 #@! TO.P,U11,7*
G04 #@! TO.N,I2C_SCL*
X107121200Y-91190000D03*
G04 #@! TO.P,U11,6*
G04 #@! TO.N,GND*
X107121200Y-91690000D03*
G04 #@! TO.P,U11,5*
G04 #@! TO.N,BATT_ALRT*
X107121200Y-92190000D03*
D27*
G04 #@! TO.P,U11,9*
G04 #@! TO.N,GND*
X106121200Y-91440000D03*
G04 #@! TD*
D28*
G04 #@! TO.P,U13,11*
G04 #@! TO.N,N/C*
X104140000Y-76200000D03*
D29*
G04 #@! TO.P,U13,10*
G04 #@! TO.N,/Sheet5C1E5C91/Batt_Chrg+*
X103190000Y-77200000D03*
G04 #@! TO.P,U13,9*
G04 #@! TO.N,Net-(R12-Pad1)*
X103190000Y-76700000D03*
G04 #@! TO.P,U13,8*
G04 #@! TO.N,Net-(JP4-Pad2)*
X103190000Y-76200000D03*
G04 #@! TO.P,U13,7*
G04 #@! TO.N,Net-(JP5-Pad2)*
X103190000Y-75700000D03*
G04 #@! TO.P,U13,6*
G04 #@! TO.N,Net-(R1-Pad1)*
X103190000Y-75200000D03*
G04 #@! TO.P,U13,5*
G04 #@! TO.N,/Sheet5C1E5C91/NTC*
X105090000Y-75200000D03*
G04 #@! TO.P,U13,4*
G04 #@! TO.N,Net-(R10-Pad1)*
X105090000Y-75700000D03*
G04 #@! TO.P,U13,3*
G04 #@! TO.N,GND*
X105090000Y-76200000D03*
G04 #@! TO.P,U13,2*
G04 #@! TO.N,Net-(R11-Pad1)*
X105090000Y-76700000D03*
G04 #@! TO.P,U13,1*
G04 #@! TO.N,/Sheet5C1E5C91/Solar+*
X105090000Y-77200000D03*
G04 #@! TD*
D21*
G04 #@! TO.P,J3,1*
G04 #@! TO.N,GND*
X98552000Y-74422000D03*
D22*
G04 #@! TO.P,J3,2*
G04 #@! TO.N,/Sheet5C1E5C91/Batt+*
X98552000Y-76962000D03*
G04 #@! TD*
D12*
G04 #@! TO.N,Net-(R1-Pad1)*
G04 #@! TO.C,R9*
G36*
X104126191Y-70290453D02*
X104147426Y-70293603D01*
X104168250Y-70298819D01*
X104188462Y-70306051D01*
X104207868Y-70315230D01*
X104226281Y-70326266D01*
X104243524Y-70339054D01*
X104259430Y-70353470D01*
X104273846Y-70369376D01*
X104286634Y-70386619D01*
X104297670Y-70405032D01*
X104306849Y-70424438D01*
X104314081Y-70444650D01*
X104319297Y-70465474D01*
X104322447Y-70486709D01*
X104323500Y-70508150D01*
X104323500Y-71020650D01*
X104322447Y-71042091D01*
X104319297Y-71063326D01*
X104314081Y-71084150D01*
X104306849Y-71104362D01*
X104297670Y-71123768D01*
X104286634Y-71142181D01*
X104273846Y-71159424D01*
X104259430Y-71175330D01*
X104243524Y-71189746D01*
X104226281Y-71202534D01*
X104207868Y-71213570D01*
X104188462Y-71222749D01*
X104168250Y-71229981D01*
X104147426Y-71235197D01*
X104126191Y-71238347D01*
X104104750Y-71239400D01*
X103667250Y-71239400D01*
X103645809Y-71238347D01*
X103624574Y-71235197D01*
X103603750Y-71229981D01*
X103583538Y-71222749D01*
X103564132Y-71213570D01*
X103545719Y-71202534D01*
X103528476Y-71189746D01*
X103512570Y-71175330D01*
X103498154Y-71159424D01*
X103485366Y-71142181D01*
X103474330Y-71123768D01*
X103465151Y-71104362D01*
X103457919Y-71084150D01*
X103452703Y-71063326D01*
X103449553Y-71042091D01*
X103448500Y-71020650D01*
X103448500Y-70508150D01*
X103449553Y-70486709D01*
X103452703Y-70465474D01*
X103457919Y-70444650D01*
X103465151Y-70424438D01*
X103474330Y-70405032D01*
X103485366Y-70386619D01*
X103498154Y-70369376D01*
X103512570Y-70353470D01*
X103528476Y-70339054D01*
X103545719Y-70326266D01*
X103564132Y-70315230D01*
X103583538Y-70306051D01*
X103603750Y-70298819D01*
X103624574Y-70293603D01*
X103645809Y-70290453D01*
X103667250Y-70289400D01*
X104104750Y-70289400D01*
X104126191Y-70290453D01*
X104126191Y-70290453D01*
G37*
D20*
G04 #@! TD*
G04 #@! TO.P,R9,2*
G04 #@! TO.N,Net-(R1-Pad1)*
X103886000Y-70764400D03*
D12*
G04 #@! TO.N,/Sheet5C1E5C91/Batt_Chrg+*
G04 #@! TO.C,R9*
G36*
X102551191Y-70290453D02*
X102572426Y-70293603D01*
X102593250Y-70298819D01*
X102613462Y-70306051D01*
X102632868Y-70315230D01*
X102651281Y-70326266D01*
X102668524Y-70339054D01*
X102684430Y-70353470D01*
X102698846Y-70369376D01*
X102711634Y-70386619D01*
X102722670Y-70405032D01*
X102731849Y-70424438D01*
X102739081Y-70444650D01*
X102744297Y-70465474D01*
X102747447Y-70486709D01*
X102748500Y-70508150D01*
X102748500Y-71020650D01*
X102747447Y-71042091D01*
X102744297Y-71063326D01*
X102739081Y-71084150D01*
X102731849Y-71104362D01*
X102722670Y-71123768D01*
X102711634Y-71142181D01*
X102698846Y-71159424D01*
X102684430Y-71175330D01*
X102668524Y-71189746D01*
X102651281Y-71202534D01*
X102632868Y-71213570D01*
X102613462Y-71222749D01*
X102593250Y-71229981D01*
X102572426Y-71235197D01*
X102551191Y-71238347D01*
X102529750Y-71239400D01*
X102092250Y-71239400D01*
X102070809Y-71238347D01*
X102049574Y-71235197D01*
X102028750Y-71229981D01*
X102008538Y-71222749D01*
X101989132Y-71213570D01*
X101970719Y-71202534D01*
X101953476Y-71189746D01*
X101937570Y-71175330D01*
X101923154Y-71159424D01*
X101910366Y-71142181D01*
X101899330Y-71123768D01*
X101890151Y-71104362D01*
X101882919Y-71084150D01*
X101877703Y-71063326D01*
X101874553Y-71042091D01*
X101873500Y-71020650D01*
X101873500Y-70508150D01*
X101874553Y-70486709D01*
X101877703Y-70465474D01*
X101882919Y-70444650D01*
X101890151Y-70424438D01*
X101899330Y-70405032D01*
X101910366Y-70386619D01*
X101923154Y-70369376D01*
X101937570Y-70353470D01*
X101953476Y-70339054D01*
X101970719Y-70326266D01*
X101989132Y-70315230D01*
X102008538Y-70306051D01*
X102028750Y-70298819D01*
X102049574Y-70293603D01*
X102070809Y-70290453D01*
X102092250Y-70289400D01*
X102529750Y-70289400D01*
X102551191Y-70290453D01*
X102551191Y-70290453D01*
G37*
D20*
G04 #@! TD*
G04 #@! TO.P,R9,1*
G04 #@! TO.N,/Sheet5C1E5C91/Batt_Chrg+*
X102311000Y-70764400D03*
D12*
G04 #@! TO.N,Net-(R10-Pad1)*
G04 #@! TO.C,R10*
G36*
X107313291Y-72156753D02*
X107334526Y-72159903D01*
X107355350Y-72165119D01*
X107375562Y-72172351D01*
X107394968Y-72181530D01*
X107413381Y-72192566D01*
X107430624Y-72205354D01*
X107446530Y-72219770D01*
X107460946Y-72235676D01*
X107473734Y-72252919D01*
X107484770Y-72271332D01*
X107493949Y-72290738D01*
X107501181Y-72310950D01*
X107506397Y-72331774D01*
X107509547Y-72353009D01*
X107510600Y-72374450D01*
X107510600Y-72811950D01*
X107509547Y-72833391D01*
X107506397Y-72854626D01*
X107501181Y-72875450D01*
X107493949Y-72895662D01*
X107484770Y-72915068D01*
X107473734Y-72933481D01*
X107460946Y-72950724D01*
X107446530Y-72966630D01*
X107430624Y-72981046D01*
X107413381Y-72993834D01*
X107394968Y-73004870D01*
X107375562Y-73014049D01*
X107355350Y-73021281D01*
X107334526Y-73026497D01*
X107313291Y-73029647D01*
X107291850Y-73030700D01*
X106779350Y-73030700D01*
X106757909Y-73029647D01*
X106736674Y-73026497D01*
X106715850Y-73021281D01*
X106695638Y-73014049D01*
X106676232Y-73004870D01*
X106657819Y-72993834D01*
X106640576Y-72981046D01*
X106624670Y-72966630D01*
X106610254Y-72950724D01*
X106597466Y-72933481D01*
X106586430Y-72915068D01*
X106577251Y-72895662D01*
X106570019Y-72875450D01*
X106564803Y-72854626D01*
X106561653Y-72833391D01*
X106560600Y-72811950D01*
X106560600Y-72374450D01*
X106561653Y-72353009D01*
X106564803Y-72331774D01*
X106570019Y-72310950D01*
X106577251Y-72290738D01*
X106586430Y-72271332D01*
X106597466Y-72252919D01*
X106610254Y-72235676D01*
X106624670Y-72219770D01*
X106640576Y-72205354D01*
X106657819Y-72192566D01*
X106676232Y-72181530D01*
X106695638Y-72172351D01*
X106715850Y-72165119D01*
X106736674Y-72159903D01*
X106757909Y-72156753D01*
X106779350Y-72155700D01*
X107291850Y-72155700D01*
X107313291Y-72156753D01*
X107313291Y-72156753D01*
G37*
D20*
G04 #@! TD*
G04 #@! TO.P,R10,1*
G04 #@! TO.N,Net-(R10-Pad1)*
X107035600Y-72593200D03*
D12*
G04 #@! TO.N,/Sheet5C1E5C91/NTC*
G04 #@! TO.C,R10*
G36*
X107313291Y-70581753D02*
X107334526Y-70584903D01*
X107355350Y-70590119D01*
X107375562Y-70597351D01*
X107394968Y-70606530D01*
X107413381Y-70617566D01*
X107430624Y-70630354D01*
X107446530Y-70644770D01*
X107460946Y-70660676D01*
X107473734Y-70677919D01*
X107484770Y-70696332D01*
X107493949Y-70715738D01*
X107501181Y-70735950D01*
X107506397Y-70756774D01*
X107509547Y-70778009D01*
X107510600Y-70799450D01*
X107510600Y-71236950D01*
X107509547Y-71258391D01*
X107506397Y-71279626D01*
X107501181Y-71300450D01*
X107493949Y-71320662D01*
X107484770Y-71340068D01*
X107473734Y-71358481D01*
X107460946Y-71375724D01*
X107446530Y-71391630D01*
X107430624Y-71406046D01*
X107413381Y-71418834D01*
X107394968Y-71429870D01*
X107375562Y-71439049D01*
X107355350Y-71446281D01*
X107334526Y-71451497D01*
X107313291Y-71454647D01*
X107291850Y-71455700D01*
X106779350Y-71455700D01*
X106757909Y-71454647D01*
X106736674Y-71451497D01*
X106715850Y-71446281D01*
X106695638Y-71439049D01*
X106676232Y-71429870D01*
X106657819Y-71418834D01*
X106640576Y-71406046D01*
X106624670Y-71391630D01*
X106610254Y-71375724D01*
X106597466Y-71358481D01*
X106586430Y-71340068D01*
X106577251Y-71320662D01*
X106570019Y-71300450D01*
X106564803Y-71279626D01*
X106561653Y-71258391D01*
X106560600Y-71236950D01*
X106560600Y-70799450D01*
X106561653Y-70778009D01*
X106564803Y-70756774D01*
X106570019Y-70735950D01*
X106577251Y-70715738D01*
X106586430Y-70696332D01*
X106597466Y-70677919D01*
X106610254Y-70660676D01*
X106624670Y-70644770D01*
X106640576Y-70630354D01*
X106657819Y-70617566D01*
X106676232Y-70606530D01*
X106695638Y-70597351D01*
X106715850Y-70590119D01*
X106736674Y-70584903D01*
X106757909Y-70581753D01*
X106779350Y-70580700D01*
X107291850Y-70580700D01*
X107313291Y-70581753D01*
X107313291Y-70581753D01*
G37*
D20*
G04 #@! TD*
G04 #@! TO.P,R10,2*
G04 #@! TO.N,/Sheet5C1E5C91/NTC*
X107035600Y-71018200D03*
D12*
G04 #@! TO.N,GND*
G04 #@! TO.C,R11*
G36*
X107262491Y-73883753D02*
X107283726Y-73886903D01*
X107304550Y-73892119D01*
X107324762Y-73899351D01*
X107344168Y-73908530D01*
X107362581Y-73919566D01*
X107379824Y-73932354D01*
X107395730Y-73946770D01*
X107410146Y-73962676D01*
X107422934Y-73979919D01*
X107433970Y-73998332D01*
X107443149Y-74017738D01*
X107450381Y-74037950D01*
X107455597Y-74058774D01*
X107458747Y-74080009D01*
X107459800Y-74101450D01*
X107459800Y-74538950D01*
X107458747Y-74560391D01*
X107455597Y-74581626D01*
X107450381Y-74602450D01*
X107443149Y-74622662D01*
X107433970Y-74642068D01*
X107422934Y-74660481D01*
X107410146Y-74677724D01*
X107395730Y-74693630D01*
X107379824Y-74708046D01*
X107362581Y-74720834D01*
X107344168Y-74731870D01*
X107324762Y-74741049D01*
X107304550Y-74748281D01*
X107283726Y-74753497D01*
X107262491Y-74756647D01*
X107241050Y-74757700D01*
X106728550Y-74757700D01*
X106707109Y-74756647D01*
X106685874Y-74753497D01*
X106665050Y-74748281D01*
X106644838Y-74741049D01*
X106625432Y-74731870D01*
X106607019Y-74720834D01*
X106589776Y-74708046D01*
X106573870Y-74693630D01*
X106559454Y-74677724D01*
X106546666Y-74660481D01*
X106535630Y-74642068D01*
X106526451Y-74622662D01*
X106519219Y-74602450D01*
X106514003Y-74581626D01*
X106510853Y-74560391D01*
X106509800Y-74538950D01*
X106509800Y-74101450D01*
X106510853Y-74080009D01*
X106514003Y-74058774D01*
X106519219Y-74037950D01*
X106526451Y-74017738D01*
X106535630Y-73998332D01*
X106546666Y-73979919D01*
X106559454Y-73962676D01*
X106573870Y-73946770D01*
X106589776Y-73932354D01*
X106607019Y-73919566D01*
X106625432Y-73908530D01*
X106644838Y-73899351D01*
X106665050Y-73892119D01*
X106685874Y-73886903D01*
X106707109Y-73883753D01*
X106728550Y-73882700D01*
X107241050Y-73882700D01*
X107262491Y-73883753D01*
X107262491Y-73883753D01*
G37*
D20*
G04 #@! TD*
G04 #@! TO.P,R11,2*
G04 #@! TO.N,GND*
X106984800Y-74320200D03*
D12*
G04 #@! TO.N,Net-(R11-Pad1)*
G04 #@! TO.C,R11*
G36*
X107262491Y-75458753D02*
X107283726Y-75461903D01*
X107304550Y-75467119D01*
X107324762Y-75474351D01*
X107344168Y-75483530D01*
X107362581Y-75494566D01*
X107379824Y-75507354D01*
X107395730Y-75521770D01*
X107410146Y-75537676D01*
X107422934Y-75554919D01*
X107433970Y-75573332D01*
X107443149Y-75592738D01*
X107450381Y-75612950D01*
X107455597Y-75633774D01*
X107458747Y-75655009D01*
X107459800Y-75676450D01*
X107459800Y-76113950D01*
X107458747Y-76135391D01*
X107455597Y-76156626D01*
X107450381Y-76177450D01*
X107443149Y-76197662D01*
X107433970Y-76217068D01*
X107422934Y-76235481D01*
X107410146Y-76252724D01*
X107395730Y-76268630D01*
X107379824Y-76283046D01*
X107362581Y-76295834D01*
X107344168Y-76306870D01*
X107324762Y-76316049D01*
X107304550Y-76323281D01*
X107283726Y-76328497D01*
X107262491Y-76331647D01*
X107241050Y-76332700D01*
X106728550Y-76332700D01*
X106707109Y-76331647D01*
X106685874Y-76328497D01*
X106665050Y-76323281D01*
X106644838Y-76316049D01*
X106625432Y-76306870D01*
X106607019Y-76295834D01*
X106589776Y-76283046D01*
X106573870Y-76268630D01*
X106559454Y-76252724D01*
X106546666Y-76235481D01*
X106535630Y-76217068D01*
X106526451Y-76197662D01*
X106519219Y-76177450D01*
X106514003Y-76156626D01*
X106510853Y-76135391D01*
X106509800Y-76113950D01*
X106509800Y-75676450D01*
X106510853Y-75655009D01*
X106514003Y-75633774D01*
X106519219Y-75612950D01*
X106526451Y-75592738D01*
X106535630Y-75573332D01*
X106546666Y-75554919D01*
X106559454Y-75537676D01*
X106573870Y-75521770D01*
X106589776Y-75507354D01*
X106607019Y-75494566D01*
X106625432Y-75483530D01*
X106644838Y-75474351D01*
X106665050Y-75467119D01*
X106685874Y-75461903D01*
X106707109Y-75458753D01*
X106728550Y-75457700D01*
X107241050Y-75457700D01*
X107262491Y-75458753D01*
X107262491Y-75458753D01*
G37*
D20*
G04 #@! TD*
G04 #@! TO.P,R11,1*
G04 #@! TO.N,Net-(R11-Pad1)*
X106984800Y-75895200D03*
D19*
G04 #@! TO.P,JP2,2*
G04 #@! TO.N,3V3*
X106070400Y-54254400D03*
G04 #@! TO.P,JP2,1*
G04 #@! TO.N,Net-(JP2-Pad1)*
X106883200Y-54254400D03*
G04 #@! TD*
G04 #@! TO.P,JP3,1*
G04 #@! TO.N,3V3*
X105918000Y-56845200D03*
G04 #@! TO.P,JP3,2*
G04 #@! TO.N,Net-(JP3-Pad2)*
X106730800Y-56845200D03*
G04 #@! TD*
D30*
G04 #@! TO.P,JP4,1*
G04 #@! TO.N,/Sheet5C1E5C91/Batt_Chrg+*
X100990400Y-76047600D03*
G04 #@! TO.P,JP4,2*
G04 #@! TO.N,Net-(JP4-Pad2)*
X100990400Y-75234800D03*
G04 #@! TD*
D31*
G04 #@! TO.N,/Sheet5C1E5C91/Batt+*
G04 #@! TO.C,NT1*
X97078800Y-83218400D03*
G04 #@! TO.N,/Sheet5C1E5C91/BattMon+*
X97078800Y-84218400D03*
G04 #@! TD*
D32*
G04 #@! TO.P,U1,1*
G04 #@! TO.N,Net-(U1-Pad1)*
X95250000Y-73660000D03*
G04 #@! TO.P,U1,2*
G04 #@! TO.N,Net-(U1-Pad2)*
X95250000Y-76200000D03*
G04 #@! TO.P,U1,3*
G04 #@! TO.N,/ANE_Pulse*
X95250000Y-78740000D03*
G04 #@! TO.P,U1,4*
G04 #@! TO.N,CHRG_EN*
X95250000Y-81280000D03*
G04 #@! TO.P,U1,5*
G04 #@! TO.N,Net-(U1-Pad5)*
X95250000Y-83820000D03*
G04 #@! TO.P,U1,6*
G04 #@! TO.N,Net-(U1-Pad6)*
X95250000Y-86360000D03*
G04 #@! TO.P,U1,7*
G04 #@! TO.N,/GPLED2*
X95250000Y-88900000D03*
G04 #@! TO.P,U1,8*
G04 #@! TO.N,/GPLED1*
X95250000Y-91440000D03*
G04 #@! TO.P,U1,9*
G04 #@! TO.N,/ANE_Vcc_EN*
X95250000Y-93980000D03*
G04 #@! TO.P,U1,10*
G04 #@! TO.N,/ANE_Tx*
X95250000Y-96520000D03*
G04 #@! TO.P,U1,11*
G04 #@! TO.N,Net-(U1-Pad11)*
X95250000Y-99060000D03*
G04 #@! TO.P,U1,12*
G04 #@! TO.N,/DONE*
X95250000Y-101600000D03*
G04 #@! TO.P,U1,13*
G04 #@! TO.N,/WAKE*
X95250000Y-104140000D03*
G04 #@! TO.P,U1,14*
G04 #@! TO.N,BATT_ALRT*
X95250000Y-106680000D03*
G04 #@! TO.P,U1,15*
G04 #@! TO.N,Net-(U1-Pad15)*
X115570000Y-106680000D03*
G04 #@! TO.P,U1,16*
G04 #@! TO.N,Net-(U1-Pad16)*
X115570000Y-104140000D03*
G04 #@! TO.P,U1,17*
G04 #@! TO.N,Net-(U1-Pad17)*
X115570000Y-101600000D03*
G04 #@! TO.P,U1,18*
G04 #@! TO.N,Net-(U1-Pad18)*
X115570000Y-99060000D03*
G04 #@! TO.P,U1,19*
G04 #@! TO.N,Net-(U1-Pad19)*
X115570000Y-96520000D03*
G04 #@! TO.P,U1,20*
G04 #@! TO.N,I2C_SDA*
X115570000Y-93980000D03*
G04 #@! TO.P,U1,21*
G04 #@! TO.N,I2C_SCL*
X115570000Y-91440000D03*
G04 #@! TO.P,U1,22*
G04 #@! TO.N,Net-(J6-Pad2)*
X115570000Y-88900000D03*
G04 #@! TO.P,U1,23*
G04 #@! TO.N,Net-(J6-Pad1)*
X115570000Y-86360000D03*
G04 #@! TO.P,U1,24*
G04 #@! TO.N,/RESET*
X115570000Y-83820000D03*
G04 #@! TO.P,U1,25*
G04 #@! TO.N,GND*
X115570000Y-81280000D03*
G04 #@! TO.P,U1,26*
G04 #@! TO.N,3V3*
X115570000Y-78740000D03*
G04 #@! TO.P,U1,27*
G04 #@! TO.N,Net-(U1-Pad27)*
X115570000Y-76200000D03*
G04 #@! TO.P,U1,28*
G04 #@! TO.N,Net-(U1-Pad28)*
X115570000Y-73660000D03*
G04 #@! TD*
D12*
G04 #@! TO.N,/ANE_Tx*
G04 #@! TO.C,J4*
G36*
X97144504Y-63771204D02*
X97168773Y-63774804D01*
X97192571Y-63780765D01*
X97215671Y-63789030D01*
X97237849Y-63799520D01*
X97258893Y-63812133D01*
X97278598Y-63826747D01*
X97296777Y-63843223D01*
X97313253Y-63861402D01*
X97327867Y-63881107D01*
X97340480Y-63902151D01*
X97350970Y-63924329D01*
X97359235Y-63947429D01*
X97365196Y-63971227D01*
X97368796Y-63995496D01*
X97370000Y-64020000D01*
X97370000Y-65520000D01*
X97368796Y-65544504D01*
X97365196Y-65568773D01*
X97359235Y-65592571D01*
X97350970Y-65615671D01*
X97340480Y-65637849D01*
X97327867Y-65658893D01*
X97313253Y-65678598D01*
X97296777Y-65696777D01*
X97278598Y-65713253D01*
X97258893Y-65727867D01*
X97237849Y-65740480D01*
X97215671Y-65750970D01*
X97192571Y-65759235D01*
X97168773Y-65765196D01*
X97144504Y-65768796D01*
X97120000Y-65770000D01*
X95920000Y-65770000D01*
X95895496Y-65768796D01*
X95871227Y-65765196D01*
X95847429Y-65759235D01*
X95824329Y-65750970D01*
X95802151Y-65740480D01*
X95781107Y-65727867D01*
X95761402Y-65713253D01*
X95743223Y-65696777D01*
X95726747Y-65678598D01*
X95712133Y-65658893D01*
X95699520Y-65637849D01*
X95689030Y-65615671D01*
X95680765Y-65592571D01*
X95674804Y-65568773D01*
X95671204Y-65544504D01*
X95670000Y-65520000D01*
X95670000Y-64020000D01*
X95671204Y-63995496D01*
X95674804Y-63971227D01*
X95680765Y-63947429D01*
X95689030Y-63924329D01*
X95699520Y-63902151D01*
X95712133Y-63881107D01*
X95726747Y-63861402D01*
X95743223Y-63843223D01*
X95761402Y-63826747D01*
X95781107Y-63812133D01*
X95802151Y-63799520D01*
X95824329Y-63789030D01*
X95847429Y-63780765D01*
X95871227Y-63774804D01*
X95895496Y-63771204D01*
X95920000Y-63770000D01*
X97120000Y-63770000D01*
X97144504Y-63771204D01*
X97144504Y-63771204D01*
G37*
D13*
G04 #@! TD*
G04 #@! TO.P,J4,1*
G04 #@! TO.N,/ANE_Tx*
X96520000Y-64770000D03*
D11*
G04 #@! TO.P,J4,2*
G04 #@! TO.N,/ANE_Vcc*
X99020000Y-64770000D03*
G04 #@! TD*
D21*
G04 #@! TO.P,J6,1*
G04 #@! TO.N,Net-(J6-Pad1)*
X107188000Y-105054400D03*
D22*
G04 #@! TO.P,J6,2*
G04 #@! TO.N,Net-(J6-Pad2)*
X109728000Y-105054400D03*
G04 #@! TO.P,J6,3*
G04 #@! TO.N,GND*
X112268000Y-105054400D03*
G04 #@! TD*
D12*
G04 #@! TO.N,Net-(R1-Pad1)*
G04 #@! TO.C,R1*
G36*
X104151691Y-72271653D02*
X104172926Y-72274803D01*
X104193750Y-72280019D01*
X104213962Y-72287251D01*
X104233368Y-72296430D01*
X104251781Y-72307466D01*
X104269024Y-72320254D01*
X104284930Y-72334670D01*
X104299346Y-72350576D01*
X104312134Y-72367819D01*
X104323170Y-72386232D01*
X104332349Y-72405638D01*
X104339581Y-72425850D01*
X104344797Y-72446674D01*
X104347947Y-72467909D01*
X104349000Y-72489350D01*
X104349000Y-73001850D01*
X104347947Y-73023291D01*
X104344797Y-73044526D01*
X104339581Y-73065350D01*
X104332349Y-73085562D01*
X104323170Y-73104968D01*
X104312134Y-73123381D01*
X104299346Y-73140624D01*
X104284930Y-73156530D01*
X104269024Y-73170946D01*
X104251781Y-73183734D01*
X104233368Y-73194770D01*
X104213962Y-73203949D01*
X104193750Y-73211181D01*
X104172926Y-73216397D01*
X104151691Y-73219547D01*
X104130250Y-73220600D01*
X103692750Y-73220600D01*
X103671309Y-73219547D01*
X103650074Y-73216397D01*
X103629250Y-73211181D01*
X103609038Y-73203949D01*
X103589632Y-73194770D01*
X103571219Y-73183734D01*
X103553976Y-73170946D01*
X103538070Y-73156530D01*
X103523654Y-73140624D01*
X103510866Y-73123381D01*
X103499830Y-73104968D01*
X103490651Y-73085562D01*
X103483419Y-73065350D01*
X103478203Y-73044526D01*
X103475053Y-73023291D01*
X103474000Y-73001850D01*
X103474000Y-72489350D01*
X103475053Y-72467909D01*
X103478203Y-72446674D01*
X103483419Y-72425850D01*
X103490651Y-72405638D01*
X103499830Y-72386232D01*
X103510866Y-72367819D01*
X103523654Y-72350576D01*
X103538070Y-72334670D01*
X103553976Y-72320254D01*
X103571219Y-72307466D01*
X103589632Y-72296430D01*
X103609038Y-72287251D01*
X103629250Y-72280019D01*
X103650074Y-72274803D01*
X103671309Y-72271653D01*
X103692750Y-72270600D01*
X104130250Y-72270600D01*
X104151691Y-72271653D01*
X104151691Y-72271653D01*
G37*
D20*
G04 #@! TD*
G04 #@! TO.P,R1,1*
G04 #@! TO.N,Net-(R1-Pad1)*
X103911500Y-72745600D03*
D12*
G04 #@! TO.N,Net-(JP5-Pad2)*
G04 #@! TO.C,R1*
G36*
X102576691Y-72271653D02*
X102597926Y-72274803D01*
X102618750Y-72280019D01*
X102638962Y-72287251D01*
X102658368Y-72296430D01*
X102676781Y-72307466D01*
X102694024Y-72320254D01*
X102709930Y-72334670D01*
X102724346Y-72350576D01*
X102737134Y-72367819D01*
X102748170Y-72386232D01*
X102757349Y-72405638D01*
X102764581Y-72425850D01*
X102769797Y-72446674D01*
X102772947Y-72467909D01*
X102774000Y-72489350D01*
X102774000Y-73001850D01*
X102772947Y-73023291D01*
X102769797Y-73044526D01*
X102764581Y-73065350D01*
X102757349Y-73085562D01*
X102748170Y-73104968D01*
X102737134Y-73123381D01*
X102724346Y-73140624D01*
X102709930Y-73156530D01*
X102694024Y-73170946D01*
X102676781Y-73183734D01*
X102658368Y-73194770D01*
X102638962Y-73203949D01*
X102618750Y-73211181D01*
X102597926Y-73216397D01*
X102576691Y-73219547D01*
X102555250Y-73220600D01*
X102117750Y-73220600D01*
X102096309Y-73219547D01*
X102075074Y-73216397D01*
X102054250Y-73211181D01*
X102034038Y-73203949D01*
X102014632Y-73194770D01*
X101996219Y-73183734D01*
X101978976Y-73170946D01*
X101963070Y-73156530D01*
X101948654Y-73140624D01*
X101935866Y-73123381D01*
X101924830Y-73104968D01*
X101915651Y-73085562D01*
X101908419Y-73065350D01*
X101903203Y-73044526D01*
X101900053Y-73023291D01*
X101899000Y-73001850D01*
X101899000Y-72489350D01*
X101900053Y-72467909D01*
X101903203Y-72446674D01*
X101908419Y-72425850D01*
X101915651Y-72405638D01*
X101924830Y-72386232D01*
X101935866Y-72367819D01*
X101948654Y-72350576D01*
X101963070Y-72334670D01*
X101978976Y-72320254D01*
X101996219Y-72307466D01*
X102014632Y-72296430D01*
X102034038Y-72287251D01*
X102054250Y-72280019D01*
X102075074Y-72274803D01*
X102096309Y-72271653D01*
X102117750Y-72270600D01*
X102555250Y-72270600D01*
X102576691Y-72271653D01*
X102576691Y-72271653D01*
G37*
D20*
G04 #@! TD*
G04 #@! TO.P,R1,2*
G04 #@! TO.N,Net-(JP5-Pad2)*
X102336500Y-72745600D03*
D31*
G04 #@! TO.N,/Sheet5C1E5C91/Batt+*
G04 #@! TO.C,NT2*
X100693600Y-77165200D03*
G04 #@! TO.N,/Sheet5C1E5C91/Batt_Chrg+*
X101693600Y-77165200D03*
G04 #@! TD*
G04 #@! TO.N,GND*
G04 #@! TO.C,NT3*
X107399200Y-81127600D03*
X108399200Y-81127600D03*
G04 #@! TD*
G04 #@! TO.N,GND*
G04 #@! TO.C,NT4*
X107492800Y-82397600D03*
X107492800Y-83397600D03*
G04 #@! TD*
D30*
G04 #@! TO.P,JP5,1*
G04 #@! TO.N,CHRG_EN*
X100584000Y-70967600D03*
G04 #@! TO.P,JP5,2*
G04 #@! TO.N,Net-(JP5-Pad2)*
X100584000Y-71780400D03*
G04 #@! TD*
D33*
G04 #@! TO.N,GND*
X108458000Y-99161600D03*
D34*
X108051600Y-74320400D03*
D33*
X103225600Y-106476800D03*
X102006400Y-103174800D03*
X98958400Y-93472000D03*
X102311200Y-86969600D03*
X108712000Y-86766400D03*
X110337600Y-81737200D03*
X102108000Y-80568800D03*
X104648000Y-77927200D03*
X101092000Y-69291200D03*
X105003600Y-68173600D03*
X109474000Y-71221600D03*
X114554000Y-70612000D03*
X113652300Y-68148200D03*
X114655600Y-63195200D03*
X116484400Y-55575200D03*
X108204000Y-55575200D03*
X100126800Y-54914800D03*
X95148400Y-54965600D03*
X94589600Y-62433200D03*
X95605600Y-67919600D03*
X101904800Y-62636400D03*
X102209600Y-57505600D03*
X98094800Y-106527600D03*
X112166400Y-107238800D03*
X112623600Y-102209600D03*
X112268000Y-96418400D03*
X105968800Y-92760800D03*
X110147100Y-61074300D03*
G04 #@! TO.N,/Sheet5C1E5C91/NTC*
X108407200Y-75742800D03*
G04 #@! TO.N,/RESET*
X106222800Y-101447600D03*
X102666800Y-99161600D03*
G04 #@! TO.N,Net-(R12-Pad1)*
X102311200Y-76625000D03*
G04 #@! TO.N,I2C_SCL*
X108762800Y-91287600D03*
G04 #@! TO.N,/ANE_Vcc_EN*
X94589600Y-71018400D03*
X104241600Y-64516000D03*
G04 #@! TO.N,3V3*
X107137200Y-99974400D03*
X113284000Y-69545200D03*
X105714800Y-58674000D03*
G04 #@! TO.N,CHRG_EN*
X99314000Y-71120000D03*
G04 #@! TD*
D35*
G04 #@! TO.N,GND*
X110574200Y-96393000D02*
X109448600Y-96393000D01*
X109448600Y-96393000D02*
X108813600Y-97028000D01*
X109042200Y-100203000D02*
X110574200Y-100203000D01*
X108813600Y-99974400D02*
X109042200Y-100203000D01*
X108925490Y-99303710D02*
X108813600Y-99415600D01*
X110203490Y-99303710D02*
X108925490Y-99303710D01*
X110574200Y-98933000D02*
X110203490Y-99303710D01*
X108813600Y-99415600D02*
X108813600Y-99974400D01*
X108955710Y-98033710D02*
X108813600Y-97891600D01*
X110203490Y-98033710D02*
X108955710Y-98033710D01*
X110574200Y-97663000D02*
X110203490Y-98033710D01*
X108813600Y-97028000D02*
X108813600Y-97891600D01*
X108813600Y-97891600D02*
X108813600Y-99415600D01*
X105594910Y-99303710D02*
X108925490Y-99303710D01*
X105224200Y-98933000D02*
X105594910Y-99303710D01*
X101256400Y-103022400D02*
X100566400Y-103022400D01*
X102472700Y-103022400D02*
X101256400Y-103022400D01*
X102904600Y-103454300D02*
X102472700Y-103022400D01*
X103479600Y-103454300D02*
X102904600Y-103454300D01*
X104234610Y-100596538D02*
X103530400Y-99892328D01*
X104234610Y-103274290D02*
X104234610Y-100596538D01*
X103479600Y-103454300D02*
X104054600Y-103454300D01*
X104054600Y-103454300D02*
X104234610Y-103274290D01*
X103530400Y-99892328D02*
X103530400Y-99517200D01*
X104114600Y-98933000D02*
X105224200Y-98933000D01*
X103530400Y-99517200D02*
X104114600Y-98933000D01*
D36*
X98552000Y-74523600D02*
X98552000Y-74422000D01*
X107399200Y-81127600D02*
X105156000Y-81127600D01*
X107492800Y-81221200D02*
X107399200Y-81127600D01*
X107492800Y-82397600D02*
X107492800Y-81221200D01*
D37*
X111492900Y-79067900D02*
X111760000Y-79335000D01*
X108813600Y-79067900D02*
X111492900Y-79067900D01*
X106523188Y-74781812D02*
X106984800Y-74320200D01*
X106184790Y-75120210D02*
X106523188Y-74781812D01*
X106184790Y-75565212D02*
X106184790Y-75120210D01*
X105550002Y-76200000D02*
X106184790Y-75565212D01*
X105090000Y-76200000D02*
X105550002Y-76200000D01*
X106985000Y-74320400D02*
X106984800Y-74320200D01*
X108051600Y-74320400D02*
X106985000Y-74320400D01*
X108399200Y-79482300D02*
X108813600Y-79067900D01*
X108399200Y-81127600D02*
X108399200Y-79482300D01*
D35*
X105321200Y-90690000D02*
X105121200Y-90690000D01*
X107492800Y-87731600D02*
X106578400Y-88646000D01*
X106578400Y-88646000D02*
X106578400Y-89432800D01*
X105121200Y-92500000D02*
X105105200Y-92516000D01*
X105121200Y-92190000D02*
X105121200Y-92500000D01*
X105105200Y-92516000D02*
X105470000Y-92516000D01*
X105470000Y-92516000D02*
X105613200Y-92659200D01*
X105613200Y-92659200D02*
X105968800Y-92659200D01*
X106121200Y-92506800D02*
X106121200Y-91440000D01*
X105968800Y-92659200D02*
X106121200Y-92506800D01*
X106371200Y-91690000D02*
X106121200Y-91440000D01*
X107121200Y-91690000D02*
X106371200Y-91690000D01*
X106121200Y-89890000D02*
X106146000Y-89865200D01*
X106121200Y-91440000D02*
X106121200Y-89890000D01*
X106578400Y-89432800D02*
X106146000Y-89865200D01*
X106146000Y-89865200D02*
X105321200Y-90690000D01*
X105766600Y-88646000D02*
X106578400Y-88646000D01*
X105461800Y-88950800D02*
X105766600Y-88646000D01*
X104874300Y-88950800D02*
X105461800Y-88950800D01*
X107492800Y-82397600D02*
X107492800Y-83397600D01*
X113625000Y-79335000D02*
X115570000Y-81280000D01*
X111760000Y-79335000D02*
X113625000Y-79335000D01*
X109910000Y-87630000D02*
X107492800Y-87630000D01*
X110625000Y-88345000D02*
X109910000Y-87630000D01*
X111760000Y-88345000D02*
X110625000Y-88345000D01*
X107492800Y-83397600D02*
X107492800Y-87630000D01*
X107492800Y-87630000D02*
X107492800Y-87731600D01*
X114808001Y-82041999D02*
X115570000Y-81280000D01*
X114527999Y-82322001D02*
X114808001Y-82041999D01*
X114527999Y-85151551D02*
X114527999Y-82322001D01*
X111760000Y-87919550D02*
X114527999Y-85151551D01*
X111760000Y-88345000D02*
X111760000Y-87919550D01*
G04 #@! TO.N,/Sheet5C1E5C91/NTC*
X106573988Y-71479812D02*
X107035600Y-71018200D01*
X105419770Y-72634030D02*
X106573988Y-71479812D01*
X105419770Y-74585230D02*
X105419770Y-72634030D01*
X105090000Y-74915000D02*
X105419770Y-74585230D01*
X105090000Y-75200000D02*
X105090000Y-74915000D01*
X108731601Y-72139201D02*
X108731601Y-75418399D01*
X107035600Y-71018200D02*
X107610600Y-71018200D01*
X107610600Y-71018200D02*
X108731601Y-72139201D01*
X108731601Y-75418399D02*
X108407200Y-75742800D01*
G04 #@! TO.N,/RESET*
X115570000Y-83820000D02*
X117297200Y-85547200D01*
X111602329Y-100557999D02*
X110712728Y-101447600D01*
X115614163Y-100557999D02*
X111602329Y-100557999D01*
X117297200Y-85547200D02*
X117297200Y-98874962D01*
X117297200Y-98874962D02*
X115614163Y-100557999D01*
X110712728Y-101447600D02*
X106222800Y-101447600D01*
X101650800Y-99161600D02*
X101498400Y-99009200D01*
X102666800Y-99161600D02*
X101650800Y-99161600D01*
D36*
G04 #@! TO.N,/Sheet5C1E5C91/Batt+*
X98907600Y-77317600D02*
X98552000Y-76962000D01*
X98907600Y-82499200D02*
X98907600Y-77317600D01*
X98755200Y-77165200D02*
X98552000Y-76962000D01*
X100693600Y-77165200D02*
X98755200Y-77165200D01*
X98188400Y-83218400D02*
X98907600Y-82499200D01*
X97078800Y-83218400D02*
X98188400Y-83218400D01*
D35*
G04 #@! TO.N,Net-(R11-Pad1)*
X106180000Y-76700000D02*
X106984800Y-75895200D01*
X105090000Y-76700000D02*
X106180000Y-76700000D01*
G04 #@! TO.N,Net-(R12-Pad1)*
X103190000Y-76700000D02*
X102810998Y-76700000D01*
X102810998Y-76700000D02*
X102386200Y-76700000D01*
X102386200Y-76700000D02*
X102311200Y-76625000D01*
G04 #@! TO.N,BATT_ALRT*
X94207999Y-105637999D02*
X94207999Y-100762401D01*
X95250000Y-106680000D02*
X94207999Y-105637999D01*
X107121200Y-92500000D02*
X107121200Y-92190000D01*
X105895200Y-93726000D02*
X107121200Y-92500000D01*
X104512298Y-93726000D02*
X105895200Y-93726000D01*
X98136297Y-100102001D02*
X104512298Y-93726000D01*
X94868399Y-100102001D02*
X98136297Y-100102001D01*
X94207999Y-100762401D02*
X94868399Y-100102001D01*
G04 #@! TO.N,I2C_SDA*
X114935000Y-93345000D02*
X115570000Y-93980000D01*
X111760000Y-93345000D02*
X114935000Y-93345000D01*
X111635000Y-93345000D02*
X111760000Y-93345000D01*
X110625000Y-92335000D02*
X111635000Y-93345000D01*
X110625000Y-92210000D02*
X110625000Y-92335000D01*
X109105000Y-90690000D02*
X110625000Y-92210000D01*
X107121200Y-90690000D02*
X109105000Y-90690000D01*
X108272200Y-93345000D02*
X111760000Y-93345000D01*
X105224200Y-96393000D02*
X108272200Y-93345000D01*
G04 #@! TO.N,I2C_SCL*
X114975000Y-90845000D02*
X115570000Y-91440000D01*
X111760000Y-90845000D02*
X114975000Y-90845000D01*
X107121200Y-91190000D02*
X108665200Y-91190000D01*
X108665200Y-91190000D02*
X108762800Y-91287600D01*
X104853490Y-97292290D02*
X104048690Y-97292290D01*
X105224200Y-97663000D02*
X104853490Y-97292290D01*
X104048690Y-97292290D02*
X103886000Y-97129600D01*
X108512801Y-91537599D02*
X108762800Y-91287600D01*
X108512801Y-91721271D02*
X108512801Y-91537599D01*
X103886000Y-96348072D02*
X108512801Y-91721271D01*
X103886000Y-97129600D02*
X103886000Y-96348072D01*
G04 #@! TO.N,/ANE_Vcc_EN*
X97131862Y-71018400D02*
X103634262Y-64516000D01*
X94589600Y-71018400D02*
X97131862Y-71018400D01*
X103634262Y-64516000D02*
X104241600Y-64516000D01*
G04 #@! TO.N,3V3*
X100771400Y-103972400D02*
X101650200Y-104851200D01*
X100566400Y-103972400D02*
X100771400Y-103972400D01*
X101650200Y-104851200D02*
X104394000Y-104851200D01*
X104394000Y-104851200D02*
X105257600Y-103987600D01*
X105224200Y-103954200D02*
X105224200Y-100203000D01*
X105257600Y-103987600D02*
X105224200Y-103954200D01*
X106070400Y-56692800D02*
X105918000Y-56845200D01*
X106070400Y-54254400D02*
X106070400Y-56692800D01*
X114492370Y-78740000D02*
X113690400Y-77938030D01*
X115570000Y-78740000D02*
X114492370Y-78740000D01*
X105224200Y-100203000D02*
X106908600Y-100203000D01*
X106908600Y-100203000D02*
X107137200Y-99974400D01*
X105918000Y-56845200D02*
X105918000Y-58470800D01*
X105918000Y-58470800D02*
X105714800Y-58674000D01*
X113690400Y-70620300D02*
X113690400Y-75717400D01*
X115544600Y-68766100D02*
X113690400Y-70620300D01*
X115544600Y-67856100D02*
X115544600Y-68766100D01*
X113690400Y-77938030D02*
X113690400Y-75717400D01*
X113690400Y-75717400D02*
X113690400Y-75449200D01*
X114973100Y-67856100D02*
X115544600Y-67856100D01*
X113284000Y-69545200D02*
X114973100Y-67856100D01*
D37*
G04 #@! TO.N,/Sheet5C1E5C91/Solar+*
X111395000Y-77200000D02*
X111760000Y-76835000D01*
X105090000Y-77200000D02*
X111395000Y-77200000D01*
X111402100Y-77192900D02*
X111760000Y-76835000D01*
X108813600Y-77192900D02*
X111402100Y-77192900D01*
X108813500Y-77347600D02*
X108013500Y-77347600D01*
X108813600Y-77347500D02*
X108813500Y-77347600D01*
X108813600Y-77192900D02*
X108813600Y-77347500D01*
D35*
G04 #@! TO.N,Net-(D8-Pad2)*
X112442500Y-53975000D02*
X111125000Y-53975000D01*
X113030000Y-53975000D02*
X112442500Y-53975000D01*
G04 #@! TO.N,Net-(D9-Pad2)*
X111662500Y-56172100D02*
X113030000Y-56172100D01*
X111125000Y-56172100D02*
X111662500Y-56172100D01*
G04 #@! TO.N,/GPLED1*
X113797510Y-56172100D02*
X114905000Y-56172100D01*
X112811990Y-57152110D02*
X113490700Y-57152110D01*
X112649000Y-57315100D02*
X112811990Y-57152110D01*
X108102400Y-57315100D02*
X112649000Y-57315100D01*
X113797510Y-56845300D02*
X113797510Y-56172100D01*
X107645200Y-57772300D02*
X108102400Y-57315100D01*
X107645200Y-59486800D02*
X107645200Y-57772300D01*
X97383600Y-69748400D02*
X107645200Y-59486800D01*
X93624400Y-69748400D02*
X97383600Y-69748400D01*
X93090010Y-70282790D02*
X93624400Y-69748400D01*
X113490700Y-57152110D02*
X113797510Y-56845300D01*
X93090010Y-89280010D02*
X93090010Y-70282790D01*
X95250000Y-91440000D02*
X93090010Y-89280010D01*
G04 #@! TO.N,/GPLED2*
X97532721Y-70108410D02*
X93773520Y-70108410D01*
X93773520Y-70108410D02*
X93450020Y-70431910D01*
X93450020Y-70431910D02*
X93450020Y-87455620D01*
X93450020Y-87455620D02*
X93929200Y-87934800D01*
X94284800Y-87934800D02*
X95250000Y-88900000D01*
X93929200Y-87934800D02*
X94284800Y-87934800D01*
X114820700Y-59126600D02*
X114651000Y-59296300D01*
X114820700Y-58496200D02*
X114820700Y-59126600D01*
X114769900Y-58394600D02*
X114769900Y-58445400D01*
X108730990Y-58833454D02*
X109248154Y-58316290D01*
X108054879Y-59635921D02*
X108730990Y-58959810D01*
X114691590Y-58316290D02*
X114769900Y-58394600D01*
X108005209Y-59635921D02*
X108054879Y-59635921D01*
X106947830Y-60693300D02*
X108005209Y-59635921D01*
X108730990Y-58959810D02*
X108730990Y-58833454D01*
X107026140Y-60614990D02*
X106947830Y-60693300D01*
X114769900Y-58445400D02*
X114820700Y-58496200D01*
X109248154Y-58316290D02*
X114691590Y-58316290D01*
X106947830Y-60693300D02*
X97532721Y-70108410D01*
G04 #@! TO.N,Net-(D10-Pad2)*
X111561000Y-59296300D02*
X112776000Y-59296300D01*
X111023500Y-59296300D02*
X111561000Y-59296300D01*
G04 #@! TO.N,Net-(JP1-Pad1)*
X99056400Y-103972400D02*
X98366400Y-103972400D01*
X99176401Y-103852399D02*
X99056400Y-103972400D01*
X99176401Y-100040899D02*
X99176401Y-103852399D01*
X100208100Y-99009200D02*
X99176401Y-100040899D01*
X100685600Y-99009200D02*
X100208100Y-99009200D01*
G04 #@! TO.N,Net-(JP2-Pad1)*
X107162600Y-53975000D02*
X106883200Y-54254400D01*
X109550000Y-53975000D02*
X107162600Y-53975000D01*
G04 #@! TO.N,Net-(R17-Pad2)*
X103286500Y-102072400D02*
X103479600Y-101879300D01*
X100566400Y-102072400D02*
X103286500Y-102072400D01*
G04 #@! TO.N,/DONE*
X95722400Y-102072400D02*
X95250000Y-101600000D01*
X98366400Y-102072400D02*
X95722400Y-102072400D01*
G04 #@! TO.N,/WAKE*
X96367600Y-103022400D02*
X95250000Y-104140000D01*
X98366400Y-103022400D02*
X96367600Y-103022400D01*
D36*
G04 #@! TO.N,/Sheet5C1E5C91/Batt_int*
X105067600Y-85039200D02*
X105156000Y-85127600D01*
X98907600Y-85039200D02*
X105067600Y-85039200D01*
D35*
G04 #@! TO.N,/Sheet5C1E5C91/BattMon+*
X104611200Y-91190000D02*
X104607200Y-91186000D01*
X105121200Y-91190000D02*
X104611200Y-91190000D01*
X104607200Y-91186000D02*
X104343200Y-91186000D01*
X104343200Y-91186000D02*
X104140000Y-91389200D01*
X104611200Y-91690000D02*
X105121200Y-91690000D01*
X104547199Y-91754001D02*
X104611200Y-91690000D01*
X104547199Y-91759999D02*
X104547199Y-91754001D01*
X104511598Y-91795600D02*
X104547199Y-91759999D01*
X104140000Y-91795600D02*
X104511598Y-91795600D01*
X97078800Y-87954402D02*
X100615198Y-91490800D01*
X97078800Y-84218400D02*
X97078800Y-87954402D01*
X104140000Y-91389200D02*
X104140000Y-91490800D01*
X104140000Y-91490800D02*
X104140000Y-91795600D01*
X102443063Y-91470263D02*
X102463600Y-91490800D01*
X102443063Y-89507037D02*
X102443063Y-91470263D01*
X102999300Y-88950800D02*
X102443063Y-89507037D01*
X100615198Y-91490800D02*
X102463600Y-91490800D01*
X102463600Y-91490800D02*
X104140000Y-91490800D01*
G04 #@! TO.N,Net-(R10-Pad1)*
X106573988Y-73054812D02*
X107035600Y-72593200D01*
X105779780Y-73849020D02*
X106573988Y-73054812D01*
X105779780Y-75389222D02*
X105779780Y-73849020D01*
X105469002Y-75700000D02*
X105779780Y-75389222D01*
X105090000Y-75700000D02*
X105469002Y-75700000D01*
G04 #@! TO.N,Net-(JP3-Pad2)*
X107035600Y-57150000D02*
X106730800Y-56845200D01*
X106730800Y-56527700D02*
X106730800Y-56845200D01*
X107208300Y-56050200D02*
X106730800Y-56527700D01*
X107282000Y-56050200D02*
X107208300Y-56050200D01*
X107403900Y-56172100D02*
X107282000Y-56050200D01*
X109550000Y-56172100D02*
X107403900Y-56172100D01*
G04 #@! TO.N,Net-(JP4-Pad2)*
X102780000Y-76200000D02*
X103190000Y-76200000D01*
X102770869Y-76200000D02*
X102780000Y-76200000D01*
X101805669Y-75234800D02*
X102770869Y-76200000D01*
X100990400Y-75234800D02*
X101805669Y-75234800D01*
G04 #@! TO.N,Net-(R20-Pad2)*
X108144600Y-60600200D02*
X109448500Y-59296300D01*
X108144600Y-67856100D02*
X108144600Y-60600200D01*
G04 #@! TO.N,CHRG_EN*
X100584000Y-70967600D02*
X99466400Y-70967600D01*
X99466400Y-70967600D02*
X99314000Y-71120000D01*
D37*
G04 #@! TO.N,/Sheet5C1E5C91/Batt_Chrg+*
X101728400Y-77200000D02*
X101693600Y-77165200D01*
X103190000Y-77200000D02*
X101728400Y-77200000D01*
X100990400Y-76462000D02*
X101693600Y-77165200D01*
X100990400Y-76047600D02*
X100990400Y-76462000D01*
X100105400Y-76047600D02*
X100990400Y-76047600D01*
X100030399Y-75972599D02*
X100105400Y-76047600D01*
X100030399Y-75972599D02*
X100030399Y-73106399D01*
X100030399Y-73106399D02*
X99314000Y-72390000D01*
X101904600Y-70358000D02*
X102311000Y-70764400D01*
X98738999Y-71396001D02*
X98738999Y-70425001D01*
X99037999Y-71695001D02*
X98738999Y-71396001D01*
X99060000Y-71695001D02*
X99037999Y-71695001D01*
X99060000Y-71717002D02*
X99060000Y-71695001D01*
X99314000Y-72390000D02*
X99314000Y-71971002D01*
X99314000Y-71971002D02*
X99060000Y-71717002D01*
X101849388Y-70302788D02*
X102311000Y-70764400D01*
X98861212Y-70302788D02*
X101849388Y-70302788D01*
X98738999Y-70425001D02*
X98861212Y-70302788D01*
D35*
G04 #@! TO.N,Net-(R1-Pad1)*
X103190000Y-73467100D02*
X103911500Y-72745600D01*
X103190000Y-75200000D02*
X103190000Y-73467100D01*
X103886000Y-72720100D02*
X103911500Y-72745600D01*
X103886000Y-70764400D02*
X103886000Y-72720100D01*
G04 #@! TO.N,Net-(JP5-Pad2)*
X102780000Y-75700000D02*
X103190000Y-75700000D01*
X102336500Y-75256500D02*
X102780000Y-75700000D01*
X102336500Y-72745600D02*
X102336500Y-75256500D01*
D37*
X101371300Y-71780400D02*
X102336500Y-72745600D01*
X100584000Y-71780400D02*
X101371300Y-71780400D01*
G04 #@! TD*
D38*
G04 #@! TO.N,GND*
G36*
X114181000Y-101323711D02*
X114181000Y-101876289D01*
X114392463Y-102386805D01*
X114783195Y-102777537D01*
X115006420Y-102870000D01*
X114783195Y-102962463D01*
X114392463Y-103353195D01*
X114181000Y-103863711D01*
X114181000Y-104416289D01*
X114392463Y-104926805D01*
X114783195Y-105317537D01*
X115006420Y-105410000D01*
X114783195Y-105502463D01*
X114392463Y-105893195D01*
X114181000Y-106403711D01*
X114181000Y-106956289D01*
X114392463Y-107466805D01*
X114783195Y-107857537D01*
X114784313Y-107858000D01*
X96035687Y-107858000D01*
X96036805Y-107857537D01*
X96427537Y-107466805D01*
X96639000Y-106956289D01*
X96639000Y-106403711D01*
X96427537Y-105893195D01*
X96036805Y-105502463D01*
X95813580Y-105410000D01*
X96036805Y-105317537D01*
X96427537Y-104926805D01*
X96639000Y-104416289D01*
X96639000Y-103863711D01*
X96605943Y-103783905D01*
X96660449Y-103729400D01*
X97197117Y-103729400D01*
X97197117Y-104297400D01*
X97245780Y-104542043D01*
X97384359Y-104749441D01*
X97591757Y-104888020D01*
X97836400Y-104936683D01*
X98896400Y-104936683D01*
X99141043Y-104888020D01*
X99348441Y-104749441D01*
X99466400Y-104572903D01*
X99584359Y-104749441D01*
X99791757Y-104888020D01*
X100036400Y-104936683D01*
X100735834Y-104936683D01*
X101101040Y-105301889D01*
X101140482Y-105360918D01*
X101374343Y-105517179D01*
X101580571Y-105558200D01*
X101580572Y-105558200D01*
X101650200Y-105572050D01*
X101719828Y-105558200D01*
X104324372Y-105558200D01*
X104394000Y-105572050D01*
X104463628Y-105558200D01*
X104463629Y-105558200D01*
X104669857Y-105517179D01*
X104903718Y-105360918D01*
X104943162Y-105301886D01*
X105698717Y-104546332D01*
X105698717Y-105904400D01*
X105747380Y-106149043D01*
X105885959Y-106356441D01*
X106093357Y-106495020D01*
X106338000Y-106543683D01*
X108038000Y-106543683D01*
X108282643Y-106495020D01*
X108490041Y-106356441D01*
X108628620Y-106149043D01*
X108641105Y-106086277D01*
X108663142Y-106119258D01*
X109151703Y-106445703D01*
X109582529Y-106531400D01*
X109873471Y-106531400D01*
X110304297Y-106445703D01*
X110792858Y-106119258D01*
X111007872Y-105797466D01*
X111072817Y-105935758D01*
X111501076Y-106326045D01*
X111911110Y-106495876D01*
X112141000Y-106374555D01*
X112141000Y-105181400D01*
X112395000Y-105181400D01*
X112395000Y-106374555D01*
X112624890Y-106495876D01*
X113034924Y-106326045D01*
X113463183Y-105935758D01*
X113709486Y-105411292D01*
X113588819Y-105181400D01*
X112395000Y-105181400D01*
X112141000Y-105181400D01*
X112121000Y-105181400D01*
X112121000Y-104927400D01*
X112141000Y-104927400D01*
X112141000Y-103734245D01*
X112395000Y-103734245D01*
X112395000Y-104927400D01*
X113588819Y-104927400D01*
X113709486Y-104697508D01*
X113463183Y-104173042D01*
X113034924Y-103782755D01*
X112624890Y-103612924D01*
X112395000Y-103734245D01*
X112141000Y-103734245D01*
X111911110Y-103612924D01*
X111501076Y-103782755D01*
X111072817Y-104173042D01*
X111007872Y-104311334D01*
X110792858Y-103989542D01*
X110304297Y-103663097D01*
X109873471Y-103577400D01*
X109582529Y-103577400D01*
X109151703Y-103663097D01*
X108663142Y-103989542D01*
X108641105Y-104022523D01*
X108628620Y-103959757D01*
X108490041Y-103752359D01*
X108282643Y-103613780D01*
X108038000Y-103565117D01*
X106338000Y-103565117D01*
X106093357Y-103613780D01*
X105931200Y-103722130D01*
X105931200Y-102276073D01*
X106048354Y-102324600D01*
X106397246Y-102324600D01*
X106719580Y-102191084D01*
X106756064Y-102154600D01*
X110643100Y-102154600D01*
X110712728Y-102168450D01*
X110782356Y-102154600D01*
X110782357Y-102154600D01*
X110988585Y-102113579D01*
X111222446Y-101957318D01*
X111261890Y-101898286D01*
X111895178Y-101264999D01*
X114205319Y-101264999D01*
X114181000Y-101323711D01*
X114181000Y-101323711D01*
G37*
X114181000Y-101323711D02*
X114181000Y-101876289D01*
X114392463Y-102386805D01*
X114783195Y-102777537D01*
X115006420Y-102870000D01*
X114783195Y-102962463D01*
X114392463Y-103353195D01*
X114181000Y-103863711D01*
X114181000Y-104416289D01*
X114392463Y-104926805D01*
X114783195Y-105317537D01*
X115006420Y-105410000D01*
X114783195Y-105502463D01*
X114392463Y-105893195D01*
X114181000Y-106403711D01*
X114181000Y-106956289D01*
X114392463Y-107466805D01*
X114783195Y-107857537D01*
X114784313Y-107858000D01*
X96035687Y-107858000D01*
X96036805Y-107857537D01*
X96427537Y-107466805D01*
X96639000Y-106956289D01*
X96639000Y-106403711D01*
X96427537Y-105893195D01*
X96036805Y-105502463D01*
X95813580Y-105410000D01*
X96036805Y-105317537D01*
X96427537Y-104926805D01*
X96639000Y-104416289D01*
X96639000Y-103863711D01*
X96605943Y-103783905D01*
X96660449Y-103729400D01*
X97197117Y-103729400D01*
X97197117Y-104297400D01*
X97245780Y-104542043D01*
X97384359Y-104749441D01*
X97591757Y-104888020D01*
X97836400Y-104936683D01*
X98896400Y-104936683D01*
X99141043Y-104888020D01*
X99348441Y-104749441D01*
X99466400Y-104572903D01*
X99584359Y-104749441D01*
X99791757Y-104888020D01*
X100036400Y-104936683D01*
X100735834Y-104936683D01*
X101101040Y-105301889D01*
X101140482Y-105360918D01*
X101374343Y-105517179D01*
X101580571Y-105558200D01*
X101580572Y-105558200D01*
X101650200Y-105572050D01*
X101719828Y-105558200D01*
X104324372Y-105558200D01*
X104394000Y-105572050D01*
X104463628Y-105558200D01*
X104463629Y-105558200D01*
X104669857Y-105517179D01*
X104903718Y-105360918D01*
X104943162Y-105301886D01*
X105698717Y-104546332D01*
X105698717Y-105904400D01*
X105747380Y-106149043D01*
X105885959Y-106356441D01*
X106093357Y-106495020D01*
X106338000Y-106543683D01*
X108038000Y-106543683D01*
X108282643Y-106495020D01*
X108490041Y-106356441D01*
X108628620Y-106149043D01*
X108641105Y-106086277D01*
X108663142Y-106119258D01*
X109151703Y-106445703D01*
X109582529Y-106531400D01*
X109873471Y-106531400D01*
X110304297Y-106445703D01*
X110792858Y-106119258D01*
X111007872Y-105797466D01*
X111072817Y-105935758D01*
X111501076Y-106326045D01*
X111911110Y-106495876D01*
X112141000Y-106374555D01*
X112141000Y-105181400D01*
X112395000Y-105181400D01*
X112395000Y-106374555D01*
X112624890Y-106495876D01*
X113034924Y-106326045D01*
X113463183Y-105935758D01*
X113709486Y-105411292D01*
X113588819Y-105181400D01*
X112395000Y-105181400D01*
X112141000Y-105181400D01*
X112121000Y-105181400D01*
X112121000Y-104927400D01*
X112141000Y-104927400D01*
X112141000Y-103734245D01*
X112395000Y-103734245D01*
X112395000Y-104927400D01*
X113588819Y-104927400D01*
X113709486Y-104697508D01*
X113463183Y-104173042D01*
X113034924Y-103782755D01*
X112624890Y-103612924D01*
X112395000Y-103734245D01*
X112141000Y-103734245D01*
X111911110Y-103612924D01*
X111501076Y-103782755D01*
X111072817Y-104173042D01*
X111007872Y-104311334D01*
X110792858Y-103989542D01*
X110304297Y-103663097D01*
X109873471Y-103577400D01*
X109582529Y-103577400D01*
X109151703Y-103663097D01*
X108663142Y-103989542D01*
X108641105Y-104022523D01*
X108628620Y-103959757D01*
X108490041Y-103752359D01*
X108282643Y-103613780D01*
X108038000Y-103565117D01*
X106338000Y-103565117D01*
X106093357Y-103613780D01*
X105931200Y-103722130D01*
X105931200Y-102276073D01*
X106048354Y-102324600D01*
X106397246Y-102324600D01*
X106719580Y-102191084D01*
X106756064Y-102154600D01*
X110643100Y-102154600D01*
X110712728Y-102168450D01*
X110782356Y-102154600D01*
X110782357Y-102154600D01*
X110988585Y-102113579D01*
X111222446Y-101957318D01*
X111261890Y-101898286D01*
X111895178Y-101264999D01*
X114205319Y-101264999D01*
X114181000Y-101323711D01*
G36*
X102369600Y-102890491D02*
X102369600Y-103168550D01*
X102528350Y-103327300D01*
X103352600Y-103327300D01*
X103352600Y-103307300D01*
X103606600Y-103307300D01*
X103606600Y-103327300D01*
X103626600Y-103327300D01*
X103626600Y-103581300D01*
X103606600Y-103581300D01*
X103606600Y-103601300D01*
X103352600Y-103601300D01*
X103352600Y-103581300D01*
X102528350Y-103581300D01*
X102369600Y-103740050D01*
X102369600Y-104018109D01*
X102421829Y-104144200D01*
X101943049Y-104144200D01*
X101735683Y-103936834D01*
X101735683Y-103647400D01*
X101710953Y-103523074D01*
X101731400Y-103473710D01*
X101731400Y-103308150D01*
X101572650Y-103149400D01*
X101479659Y-103149400D01*
X101341043Y-103056780D01*
X101168205Y-103022400D01*
X101341043Y-102988020D01*
X101479659Y-102895400D01*
X101572650Y-102895400D01*
X101688650Y-102779400D01*
X102415615Y-102779400D01*
X102369600Y-102890491D01*
X102369600Y-102890491D01*
G37*
X102369600Y-102890491D02*
X102369600Y-103168550D01*
X102528350Y-103327300D01*
X103352600Y-103327300D01*
X103352600Y-103307300D01*
X103606600Y-103307300D01*
X103606600Y-103327300D01*
X103626600Y-103327300D01*
X103626600Y-103581300D01*
X103606600Y-103581300D01*
X103606600Y-103601300D01*
X103352600Y-103601300D01*
X103352600Y-103581300D01*
X102528350Y-103581300D01*
X102369600Y-103740050D01*
X102369600Y-104018109D01*
X102421829Y-104144200D01*
X101943049Y-104144200D01*
X101735683Y-103936834D01*
X101735683Y-103647400D01*
X101710953Y-103523074D01*
X101731400Y-103473710D01*
X101731400Y-103308150D01*
X101572650Y-103149400D01*
X101479659Y-103149400D01*
X101341043Y-103056780D01*
X101168205Y-103022400D01*
X101341043Y-102988020D01*
X101479659Y-102895400D01*
X101572650Y-102895400D01*
X101688650Y-102779400D01*
X102415615Y-102779400D01*
X102369600Y-102890491D01*
G36*
X104517200Y-103327298D02*
X104430852Y-103327298D01*
X104517200Y-103240950D01*
X104517200Y-103327298D01*
X104517200Y-103327298D01*
G37*
X104517200Y-103327298D02*
X104430852Y-103327298D01*
X104517200Y-103240950D01*
X104517200Y-103327298D01*
G36*
X110570142Y-94409858D02*
X111058703Y-94736303D01*
X111489529Y-94822000D01*
X112030471Y-94822000D01*
X112461297Y-94736303D01*
X112949858Y-94409858D01*
X113188970Y-94052000D01*
X114181000Y-94052000D01*
X114181000Y-94256289D01*
X114392463Y-94766805D01*
X114783195Y-95157537D01*
X115006420Y-95250000D01*
X114783195Y-95342463D01*
X114392463Y-95733195D01*
X114181000Y-96243711D01*
X114181000Y-96796289D01*
X114392463Y-97306805D01*
X114783195Y-97697537D01*
X115006420Y-97790000D01*
X114783195Y-97882463D01*
X114392463Y-98273195D01*
X114181000Y-98783711D01*
X114181000Y-99336289D01*
X114392463Y-99846805D01*
X114396657Y-99850999D01*
X111984200Y-99850999D01*
X111984200Y-99776690D01*
X111897758Y-99568000D01*
X111984200Y-99359310D01*
X111984200Y-99218750D01*
X111825450Y-99060000D01*
X110701200Y-99060000D01*
X110701200Y-100076000D01*
X110721200Y-100076000D01*
X110721200Y-100330000D01*
X110701200Y-100330000D01*
X110701200Y-100350000D01*
X110447200Y-100350000D01*
X110447200Y-100330000D01*
X109322950Y-100330000D01*
X109164200Y-100488750D01*
X109164200Y-100629310D01*
X109210298Y-100740600D01*
X107579139Y-100740600D01*
X107633980Y-100717884D01*
X107880684Y-100471180D01*
X108014200Y-100148846D01*
X108014200Y-99799954D01*
X107880684Y-99477620D01*
X107633980Y-99230916D01*
X107604609Y-99218750D01*
X109164200Y-99218750D01*
X109164200Y-99359310D01*
X109250642Y-99568000D01*
X109164200Y-99776690D01*
X109164200Y-99917250D01*
X109322950Y-100076000D01*
X110447200Y-100076000D01*
X110447200Y-99060000D01*
X109322950Y-99060000D01*
X109164200Y-99218750D01*
X107604609Y-99218750D01*
X107311646Y-99097400D01*
X106962754Y-99097400D01*
X106640420Y-99230916D01*
X106634200Y-99237136D01*
X106634200Y-99218750D01*
X106475450Y-99060000D01*
X105351200Y-99060000D01*
X105351200Y-99080000D01*
X105097200Y-99080000D01*
X105097200Y-99060000D01*
X103972950Y-99060000D01*
X103814200Y-99218750D01*
X103814200Y-99359310D01*
X103910873Y-99592699D01*
X103949759Y-99631584D01*
X103869998Y-99750954D01*
X103809917Y-100053000D01*
X103809917Y-100353000D01*
X103869998Y-100655046D01*
X104004202Y-100855896D01*
X103735850Y-100802517D01*
X103223350Y-100802517D01*
X102894995Y-100867831D01*
X102616629Y-101053829D01*
X102430631Y-101332195D01*
X102424026Y-101365400D01*
X101595241Y-101365400D01*
X101548441Y-101295359D01*
X101341043Y-101156780D01*
X101096400Y-101108117D01*
X100036400Y-101108117D01*
X99883401Y-101138551D01*
X99883401Y-100333747D01*
X100038857Y-100178292D01*
X100123457Y-100234820D01*
X100368100Y-100283483D01*
X101003100Y-100283483D01*
X101092000Y-100265800D01*
X101180900Y-100283483D01*
X101815900Y-100283483D01*
X102060543Y-100234820D01*
X102267941Y-100096241D01*
X102346753Y-99978290D01*
X102492354Y-100038600D01*
X102841246Y-100038600D01*
X103163580Y-99905084D01*
X103410284Y-99658380D01*
X103543800Y-99336046D01*
X103543800Y-98987154D01*
X103410284Y-98664820D01*
X103163580Y-98418116D01*
X102841246Y-98284600D01*
X102492354Y-98284600D01*
X102441546Y-98305645D01*
X102406520Y-98129557D01*
X102267941Y-97922159D01*
X102060543Y-97783580D01*
X101815900Y-97734917D01*
X101503229Y-97734917D01*
X103328942Y-95909205D01*
X103220022Y-96072215D01*
X103165150Y-96348072D01*
X103179000Y-96417700D01*
X103179000Y-97059972D01*
X103165150Y-97129600D01*
X103179000Y-97199228D01*
X103220021Y-97405456D01*
X103376282Y-97639317D01*
X103435312Y-97678760D01*
X103499528Y-97742976D01*
X103538972Y-97802008D01*
X103772833Y-97958269D01*
X103841531Y-97971934D01*
X103869998Y-98115046D01*
X103949759Y-98234416D01*
X103910873Y-98273301D01*
X103814200Y-98506690D01*
X103814200Y-98647250D01*
X103972950Y-98806000D01*
X105097200Y-98806000D01*
X105097200Y-98786000D01*
X105351200Y-98786000D01*
X105351200Y-98806000D01*
X106475450Y-98806000D01*
X106634200Y-98647250D01*
X106634200Y-98506690D01*
X106537527Y-98273301D01*
X106498641Y-98234416D01*
X106578402Y-98115046D01*
X106611480Y-97948750D01*
X109164200Y-97948750D01*
X109164200Y-98089310D01*
X109250642Y-98298000D01*
X109164200Y-98506690D01*
X109164200Y-98647250D01*
X109322950Y-98806000D01*
X110447200Y-98806000D01*
X110447200Y-97790000D01*
X110701200Y-97790000D01*
X110701200Y-98806000D01*
X111825450Y-98806000D01*
X111984200Y-98647250D01*
X111984200Y-98506690D01*
X111897758Y-98298000D01*
X111984200Y-98089310D01*
X111984200Y-97948750D01*
X111825450Y-97790000D01*
X110701200Y-97790000D01*
X110447200Y-97790000D01*
X109322950Y-97790000D01*
X109164200Y-97948750D01*
X106611480Y-97948750D01*
X106638483Y-97813000D01*
X106638483Y-97513000D01*
X106578402Y-97210954D01*
X106456156Y-97028000D01*
X106578402Y-96845046D01*
X106611480Y-96678750D01*
X109164200Y-96678750D01*
X109164200Y-96819310D01*
X109250642Y-97028000D01*
X109164200Y-97236690D01*
X109164200Y-97377250D01*
X109322950Y-97536000D01*
X110447200Y-97536000D01*
X110447200Y-96520000D01*
X110701200Y-96520000D01*
X110701200Y-97536000D01*
X111825450Y-97536000D01*
X111984200Y-97377250D01*
X111984200Y-97236690D01*
X111897758Y-97028000D01*
X111984200Y-96819310D01*
X111984200Y-96678750D01*
X111825450Y-96520000D01*
X110701200Y-96520000D01*
X110447200Y-96520000D01*
X109322950Y-96520000D01*
X109164200Y-96678750D01*
X106611480Y-96678750D01*
X106638483Y-96543000D01*
X106638483Y-96243000D01*
X106594610Y-96022438D01*
X106650358Y-95966690D01*
X109164200Y-95966690D01*
X109164200Y-96107250D01*
X109322950Y-96266000D01*
X110447200Y-96266000D01*
X110447200Y-95616750D01*
X110701200Y-95616750D01*
X110701200Y-96266000D01*
X111825450Y-96266000D01*
X111984200Y-96107250D01*
X111984200Y-95966690D01*
X111887527Y-95733301D01*
X111708898Y-95554673D01*
X111475509Y-95458000D01*
X110859950Y-95458000D01*
X110701200Y-95616750D01*
X110447200Y-95616750D01*
X110288450Y-95458000D01*
X109672891Y-95458000D01*
X109439502Y-95554673D01*
X109260873Y-95733301D01*
X109164200Y-95966690D01*
X106650358Y-95966690D01*
X108565049Y-94052000D01*
X110331030Y-94052000D01*
X110570142Y-94409858D01*
X110570142Y-94409858D01*
G37*
X110570142Y-94409858D02*
X111058703Y-94736303D01*
X111489529Y-94822000D01*
X112030471Y-94822000D01*
X112461297Y-94736303D01*
X112949858Y-94409858D01*
X113188970Y-94052000D01*
X114181000Y-94052000D01*
X114181000Y-94256289D01*
X114392463Y-94766805D01*
X114783195Y-95157537D01*
X115006420Y-95250000D01*
X114783195Y-95342463D01*
X114392463Y-95733195D01*
X114181000Y-96243711D01*
X114181000Y-96796289D01*
X114392463Y-97306805D01*
X114783195Y-97697537D01*
X115006420Y-97790000D01*
X114783195Y-97882463D01*
X114392463Y-98273195D01*
X114181000Y-98783711D01*
X114181000Y-99336289D01*
X114392463Y-99846805D01*
X114396657Y-99850999D01*
X111984200Y-99850999D01*
X111984200Y-99776690D01*
X111897758Y-99568000D01*
X111984200Y-99359310D01*
X111984200Y-99218750D01*
X111825450Y-99060000D01*
X110701200Y-99060000D01*
X110701200Y-100076000D01*
X110721200Y-100076000D01*
X110721200Y-100330000D01*
X110701200Y-100330000D01*
X110701200Y-100350000D01*
X110447200Y-100350000D01*
X110447200Y-100330000D01*
X109322950Y-100330000D01*
X109164200Y-100488750D01*
X109164200Y-100629310D01*
X109210298Y-100740600D01*
X107579139Y-100740600D01*
X107633980Y-100717884D01*
X107880684Y-100471180D01*
X108014200Y-100148846D01*
X108014200Y-99799954D01*
X107880684Y-99477620D01*
X107633980Y-99230916D01*
X107604609Y-99218750D01*
X109164200Y-99218750D01*
X109164200Y-99359310D01*
X109250642Y-99568000D01*
X109164200Y-99776690D01*
X109164200Y-99917250D01*
X109322950Y-100076000D01*
X110447200Y-100076000D01*
X110447200Y-99060000D01*
X109322950Y-99060000D01*
X109164200Y-99218750D01*
X107604609Y-99218750D01*
X107311646Y-99097400D01*
X106962754Y-99097400D01*
X106640420Y-99230916D01*
X106634200Y-99237136D01*
X106634200Y-99218750D01*
X106475450Y-99060000D01*
X105351200Y-99060000D01*
X105351200Y-99080000D01*
X105097200Y-99080000D01*
X105097200Y-99060000D01*
X103972950Y-99060000D01*
X103814200Y-99218750D01*
X103814200Y-99359310D01*
X103910873Y-99592699D01*
X103949759Y-99631584D01*
X103869998Y-99750954D01*
X103809917Y-100053000D01*
X103809917Y-100353000D01*
X103869998Y-100655046D01*
X104004202Y-100855896D01*
X103735850Y-100802517D01*
X103223350Y-100802517D01*
X102894995Y-100867831D01*
X102616629Y-101053829D01*
X102430631Y-101332195D01*
X102424026Y-101365400D01*
X101595241Y-101365400D01*
X101548441Y-101295359D01*
X101341043Y-101156780D01*
X101096400Y-101108117D01*
X100036400Y-101108117D01*
X99883401Y-101138551D01*
X99883401Y-100333747D01*
X100038857Y-100178292D01*
X100123457Y-100234820D01*
X100368100Y-100283483D01*
X101003100Y-100283483D01*
X101092000Y-100265800D01*
X101180900Y-100283483D01*
X101815900Y-100283483D01*
X102060543Y-100234820D01*
X102267941Y-100096241D01*
X102346753Y-99978290D01*
X102492354Y-100038600D01*
X102841246Y-100038600D01*
X103163580Y-99905084D01*
X103410284Y-99658380D01*
X103543800Y-99336046D01*
X103543800Y-98987154D01*
X103410284Y-98664820D01*
X103163580Y-98418116D01*
X102841246Y-98284600D01*
X102492354Y-98284600D01*
X102441546Y-98305645D01*
X102406520Y-98129557D01*
X102267941Y-97922159D01*
X102060543Y-97783580D01*
X101815900Y-97734917D01*
X101503229Y-97734917D01*
X103328942Y-95909205D01*
X103220022Y-96072215D01*
X103165150Y-96348072D01*
X103179000Y-96417700D01*
X103179000Y-97059972D01*
X103165150Y-97129600D01*
X103179000Y-97199228D01*
X103220021Y-97405456D01*
X103376282Y-97639317D01*
X103435312Y-97678760D01*
X103499528Y-97742976D01*
X103538972Y-97802008D01*
X103772833Y-97958269D01*
X103841531Y-97971934D01*
X103869998Y-98115046D01*
X103949759Y-98234416D01*
X103910873Y-98273301D01*
X103814200Y-98506690D01*
X103814200Y-98647250D01*
X103972950Y-98806000D01*
X105097200Y-98806000D01*
X105097200Y-98786000D01*
X105351200Y-98786000D01*
X105351200Y-98806000D01*
X106475450Y-98806000D01*
X106634200Y-98647250D01*
X106634200Y-98506690D01*
X106537527Y-98273301D01*
X106498641Y-98234416D01*
X106578402Y-98115046D01*
X106611480Y-97948750D01*
X109164200Y-97948750D01*
X109164200Y-98089310D01*
X109250642Y-98298000D01*
X109164200Y-98506690D01*
X109164200Y-98647250D01*
X109322950Y-98806000D01*
X110447200Y-98806000D01*
X110447200Y-97790000D01*
X110701200Y-97790000D01*
X110701200Y-98806000D01*
X111825450Y-98806000D01*
X111984200Y-98647250D01*
X111984200Y-98506690D01*
X111897758Y-98298000D01*
X111984200Y-98089310D01*
X111984200Y-97948750D01*
X111825450Y-97790000D01*
X110701200Y-97790000D01*
X110447200Y-97790000D01*
X109322950Y-97790000D01*
X109164200Y-97948750D01*
X106611480Y-97948750D01*
X106638483Y-97813000D01*
X106638483Y-97513000D01*
X106578402Y-97210954D01*
X106456156Y-97028000D01*
X106578402Y-96845046D01*
X106611480Y-96678750D01*
X109164200Y-96678750D01*
X109164200Y-96819310D01*
X109250642Y-97028000D01*
X109164200Y-97236690D01*
X109164200Y-97377250D01*
X109322950Y-97536000D01*
X110447200Y-97536000D01*
X110447200Y-96520000D01*
X110701200Y-96520000D01*
X110701200Y-97536000D01*
X111825450Y-97536000D01*
X111984200Y-97377250D01*
X111984200Y-97236690D01*
X111897758Y-97028000D01*
X111984200Y-96819310D01*
X111984200Y-96678750D01*
X111825450Y-96520000D01*
X110701200Y-96520000D01*
X110447200Y-96520000D01*
X109322950Y-96520000D01*
X109164200Y-96678750D01*
X106611480Y-96678750D01*
X106638483Y-96543000D01*
X106638483Y-96243000D01*
X106594610Y-96022438D01*
X106650358Y-95966690D01*
X109164200Y-95966690D01*
X109164200Y-96107250D01*
X109322950Y-96266000D01*
X110447200Y-96266000D01*
X110447200Y-95616750D01*
X110701200Y-95616750D01*
X110701200Y-96266000D01*
X111825450Y-96266000D01*
X111984200Y-96107250D01*
X111984200Y-95966690D01*
X111887527Y-95733301D01*
X111708898Y-95554673D01*
X111475509Y-95458000D01*
X110859950Y-95458000D01*
X110701200Y-95616750D01*
X110447200Y-95616750D01*
X110288450Y-95458000D01*
X109672891Y-95458000D01*
X109439502Y-95554673D01*
X109260873Y-95733301D01*
X109164200Y-95966690D01*
X106650358Y-95966690D01*
X108565049Y-94052000D01*
X110331030Y-94052000D01*
X110570142Y-94409858D01*
G36*
X96628112Y-88503562D02*
X100066038Y-91941489D01*
X100105480Y-92000518D01*
X100339341Y-92156779D01*
X100545569Y-92197800D01*
X100615197Y-92211650D01*
X100684825Y-92197800D01*
X102393972Y-92197800D01*
X102463600Y-92211650D01*
X102533228Y-92197800D01*
X103558441Y-92197800D01*
X103630282Y-92305318D01*
X103864143Y-92461579D01*
X104070371Y-92502600D01*
X104140000Y-92516450D01*
X104155677Y-92513332D01*
X104232873Y-92699698D01*
X104411501Y-92878327D01*
X104644890Y-92975000D01*
X104835450Y-92975000D01*
X104994200Y-92816250D01*
X104994200Y-92479283D01*
X105248200Y-92479283D01*
X105248200Y-92816250D01*
X105406950Y-92975000D01*
X105597510Y-92975000D01*
X105680888Y-92940464D01*
X105602352Y-93019000D01*
X104581925Y-93019000D01*
X104512297Y-93005150D01*
X104442669Y-93019000D01*
X104236441Y-93060021D01*
X104002580Y-93216282D01*
X103963138Y-93275311D01*
X97843449Y-99395001D01*
X96614681Y-99395001D01*
X96639000Y-99336289D01*
X96639000Y-98783711D01*
X96427537Y-98273195D01*
X96036805Y-97882463D01*
X95813580Y-97790000D01*
X96036805Y-97697537D01*
X96427537Y-97306805D01*
X96639000Y-96796289D01*
X96639000Y-96243711D01*
X96427537Y-95733195D01*
X96036805Y-95342463D01*
X95813580Y-95250000D01*
X96036805Y-95157537D01*
X96427537Y-94766805D01*
X96639000Y-94256289D01*
X96639000Y-93703711D01*
X96427537Y-93193195D01*
X96036805Y-92802463D01*
X95813580Y-92710000D01*
X96036805Y-92617537D01*
X96427537Y-92226805D01*
X96639000Y-91716289D01*
X96639000Y-91163711D01*
X96427537Y-90653195D01*
X96036805Y-90262463D01*
X95813580Y-90170000D01*
X96036805Y-90077537D01*
X96427537Y-89686805D01*
X96639000Y-89176289D01*
X96639000Y-88623711D01*
X96574354Y-88467642D01*
X96628112Y-88503562D01*
X96628112Y-88503562D01*
G37*
X96628112Y-88503562D02*
X100066038Y-91941489D01*
X100105480Y-92000518D01*
X100339341Y-92156779D01*
X100545569Y-92197800D01*
X100615197Y-92211650D01*
X100684825Y-92197800D01*
X102393972Y-92197800D01*
X102463600Y-92211650D01*
X102533228Y-92197800D01*
X103558441Y-92197800D01*
X103630282Y-92305318D01*
X103864143Y-92461579D01*
X104070371Y-92502600D01*
X104140000Y-92516450D01*
X104155677Y-92513332D01*
X104232873Y-92699698D01*
X104411501Y-92878327D01*
X104644890Y-92975000D01*
X104835450Y-92975000D01*
X104994200Y-92816250D01*
X104994200Y-92479283D01*
X105248200Y-92479283D01*
X105248200Y-92816250D01*
X105406950Y-92975000D01*
X105597510Y-92975000D01*
X105680888Y-92940464D01*
X105602352Y-93019000D01*
X104581925Y-93019000D01*
X104512297Y-93005150D01*
X104442669Y-93019000D01*
X104236441Y-93060021D01*
X104002580Y-93216282D01*
X103963138Y-93275311D01*
X97843449Y-99395001D01*
X96614681Y-99395001D01*
X96639000Y-99336289D01*
X96639000Y-98783711D01*
X96427537Y-98273195D01*
X96036805Y-97882463D01*
X95813580Y-97790000D01*
X96036805Y-97697537D01*
X96427537Y-97306805D01*
X96639000Y-96796289D01*
X96639000Y-96243711D01*
X96427537Y-95733195D01*
X96036805Y-95342463D01*
X95813580Y-95250000D01*
X96036805Y-95157537D01*
X96427537Y-94766805D01*
X96639000Y-94256289D01*
X96639000Y-93703711D01*
X96427537Y-93193195D01*
X96036805Y-92802463D01*
X95813580Y-92710000D01*
X96036805Y-92617537D01*
X96427537Y-92226805D01*
X96639000Y-91716289D01*
X96639000Y-91163711D01*
X96427537Y-90653195D01*
X96036805Y-90262463D01*
X95813580Y-90170000D01*
X96036805Y-90077537D01*
X96427537Y-89686805D01*
X96639000Y-89176289D01*
X96639000Y-88623711D01*
X96574354Y-88467642D01*
X96628112Y-88503562D01*
G36*
X117383001Y-84633152D02*
X116925943Y-84176095D01*
X116959000Y-84096289D01*
X116959000Y-83543711D01*
X116747537Y-83033195D01*
X116356805Y-82642463D01*
X116159900Y-82560902D01*
X116301143Y-82502397D01*
X116370608Y-82260213D01*
X115570000Y-81459605D01*
X114769392Y-82260213D01*
X114838857Y-82502397D01*
X114990625Y-82556543D01*
X114783195Y-82642463D01*
X114392463Y-83033195D01*
X114181000Y-83543711D01*
X114181000Y-84096289D01*
X114392463Y-84606805D01*
X114783195Y-84997537D01*
X115006420Y-85090000D01*
X114783195Y-85182463D01*
X114392463Y-85573195D01*
X114181000Y-86083711D01*
X114181000Y-86636289D01*
X114392463Y-87146805D01*
X114783195Y-87537537D01*
X115006420Y-87630000D01*
X114783195Y-87722463D01*
X114392463Y-88113195D01*
X114181000Y-88623711D01*
X114181000Y-89176289D01*
X114392463Y-89686805D01*
X114783195Y-90077537D01*
X114921446Y-90134803D01*
X114905372Y-90138000D01*
X113188970Y-90138000D01*
X112949858Y-89780142D01*
X112676282Y-89597345D01*
X113087497Y-89216193D01*
X113326476Y-88701890D01*
X113205155Y-88472000D01*
X111887000Y-88472000D01*
X111887000Y-88492000D01*
X111633000Y-88492000D01*
X111633000Y-88472000D01*
X110314845Y-88472000D01*
X110193524Y-88701890D01*
X110432503Y-89216193D01*
X110843718Y-89597345D01*
X110570142Y-89780142D01*
X110243697Y-90268703D01*
X110150763Y-90735914D01*
X109654162Y-90239314D01*
X109614718Y-90180282D01*
X109380857Y-90024021D01*
X109174629Y-89983000D01*
X109174628Y-89983000D01*
X109105000Y-89969150D01*
X109035372Y-89983000D01*
X107766159Y-89983000D01*
X107715843Y-89949380D01*
X107471200Y-89900717D01*
X106771200Y-89900717D01*
X106526557Y-89949380D01*
X106319159Y-90087959D01*
X106180580Y-90295357D01*
X106131917Y-90540000D01*
X106131917Y-90840000D01*
X106151808Y-90940000D01*
X106131917Y-91040000D01*
X106131917Y-91340000D01*
X106143209Y-91396769D01*
X106136200Y-91413691D01*
X106136200Y-91456250D01*
X106159719Y-91479769D01*
X106180580Y-91584643D01*
X106182155Y-91587000D01*
X106110483Y-91587000D01*
X106110483Y-91540000D01*
X106090592Y-91440000D01*
X106110483Y-91340000D01*
X106110483Y-91040000D01*
X106099191Y-90983231D01*
X106106200Y-90966309D01*
X106106200Y-90923750D01*
X106082681Y-90900231D01*
X106061820Y-90795357D01*
X105994200Y-90694157D01*
X105994200Y-90568250D01*
X106106200Y-90456250D01*
X106106200Y-90413691D01*
X106009527Y-90180302D01*
X105869926Y-90040700D01*
X105900127Y-90010499D01*
X105996800Y-89777110D01*
X105996800Y-89236550D01*
X105838050Y-89077800D01*
X105001300Y-89077800D01*
X105001300Y-89097800D01*
X104747300Y-89097800D01*
X104747300Y-89077800D01*
X104727300Y-89077800D01*
X104727300Y-88823800D01*
X104747300Y-88823800D01*
X104747300Y-87774550D01*
X105001300Y-87774550D01*
X105001300Y-88823800D01*
X105838050Y-88823800D01*
X105996800Y-88665050D01*
X105996800Y-88124490D01*
X105900127Y-87891101D01*
X105721498Y-87712473D01*
X105488109Y-87615800D01*
X105160050Y-87615800D01*
X105001300Y-87774550D01*
X104747300Y-87774550D01*
X104588550Y-87615800D01*
X104260491Y-87615800D01*
X104027102Y-87712473D01*
X103868240Y-87871334D01*
X103867449Y-87870151D01*
X103580972Y-87678734D01*
X103243050Y-87611517D01*
X102755550Y-87611517D01*
X102417628Y-87678734D01*
X102131151Y-87870151D01*
X101939734Y-88156628D01*
X101872517Y-88494550D01*
X101872517Y-89088355D01*
X101777084Y-89231181D01*
X101749869Y-89368000D01*
X101722213Y-89507037D01*
X101736063Y-89576665D01*
X101736064Y-90783800D01*
X100908047Y-90783800D01*
X99192729Y-89068483D01*
X99757600Y-89068483D01*
X100002243Y-89019820D01*
X100209641Y-88881241D01*
X100348220Y-88673843D01*
X100396883Y-88429200D01*
X100396883Y-86729200D01*
X100348220Y-86484557D01*
X100209641Y-86277159D01*
X100002243Y-86138580D01*
X99939477Y-86126095D01*
X99972458Y-86104058D01*
X100031163Y-86016200D01*
X104002344Y-86016200D01*
X104402248Y-86283408D01*
X104760153Y-86354600D01*
X105551847Y-86354600D01*
X105909752Y-86283408D01*
X106315617Y-86012217D01*
X106586808Y-85606352D01*
X106658685Y-85245000D01*
X110145717Y-85245000D01*
X110145717Y-86445000D01*
X110213410Y-86785314D01*
X110406182Y-87073818D01*
X110672243Y-87251594D01*
X110432503Y-87473807D01*
X110193524Y-87988110D01*
X110314845Y-88218000D01*
X111633000Y-88218000D01*
X111633000Y-88198000D01*
X111887000Y-88198000D01*
X111887000Y-88218000D01*
X113205155Y-88218000D01*
X113326476Y-87988110D01*
X113087497Y-87473807D01*
X112847757Y-87251594D01*
X113113818Y-87073818D01*
X113306590Y-86785314D01*
X113374283Y-86445000D01*
X113374283Y-85245000D01*
X113306590Y-84904686D01*
X113113818Y-84616182D01*
X112825314Y-84423410D01*
X112485000Y-84355717D01*
X111035000Y-84355717D01*
X110694686Y-84423410D01*
X110406182Y-84616182D01*
X110213410Y-84904686D01*
X110145717Y-85245000D01*
X106658685Y-85245000D01*
X106682038Y-85127600D01*
X106586808Y-84648848D01*
X106315617Y-84242983D01*
X106142935Y-84127600D01*
X106315617Y-84012217D01*
X106586808Y-83606352D01*
X106611731Y-83481057D01*
X106629717Y-83660857D01*
X106696358Y-83821740D01*
X106788481Y-83824549D01*
X106799444Y-83840956D01*
X107002857Y-83976872D01*
X107075796Y-83991381D01*
X107062875Y-84004302D01*
X107068660Y-84194042D01*
X107405730Y-84295728D01*
X107756057Y-84260683D01*
X107916940Y-84194042D01*
X107922725Y-84004302D01*
X107909804Y-83991381D01*
X107982743Y-83976872D01*
X108186156Y-83840956D01*
X108197119Y-83824549D01*
X108289242Y-83821740D01*
X108390928Y-83484670D01*
X108369800Y-83273464D01*
X108369800Y-82554705D01*
X108390928Y-82484670D01*
X108355883Y-82134343D01*
X108310716Y-82025301D01*
X108312130Y-82025728D01*
X108662457Y-81990683D01*
X108823340Y-81924042D01*
X108826149Y-81831919D01*
X108842556Y-81820956D01*
X108978472Y-81617543D01*
X108992981Y-81544604D01*
X109005902Y-81557525D01*
X109195642Y-81551740D01*
X109297328Y-81214670D01*
X109283087Y-81072302D01*
X114160856Y-81072302D01*
X114188638Y-81627368D01*
X114347603Y-82011143D01*
X114589787Y-82080608D01*
X115390395Y-81280000D01*
X115749605Y-81280000D01*
X116550213Y-82080608D01*
X116792397Y-82011143D01*
X116979144Y-81487698D01*
X116951362Y-80932632D01*
X116792397Y-80548857D01*
X116550213Y-80479392D01*
X115749605Y-81280000D01*
X115390395Y-81280000D01*
X114589787Y-80479392D01*
X114347603Y-80548857D01*
X114160856Y-81072302D01*
X109283087Y-81072302D01*
X109262283Y-80864343D01*
X109195642Y-80703460D01*
X109005902Y-80697675D01*
X108992981Y-80710596D01*
X108978472Y-80637657D01*
X108842556Y-80434244D01*
X108826149Y-80423281D01*
X108823765Y-80345100D01*
X108839810Y-80345100D01*
X109073199Y-80248427D01*
X109251827Y-80069798D01*
X109348500Y-79836409D01*
X109348500Y-79691890D01*
X110168524Y-79691890D01*
X110170447Y-79704260D01*
X110421336Y-80227045D01*
X110853188Y-80614024D01*
X111400258Y-80806284D01*
X111633000Y-80662231D01*
X111633000Y-79462000D01*
X111887000Y-79462000D01*
X111887000Y-80662231D01*
X112119742Y-80806284D01*
X112666812Y-80614024D01*
X113098664Y-80227045D01*
X113349553Y-79704260D01*
X113351476Y-79691890D01*
X113230155Y-79462000D01*
X111887000Y-79462000D01*
X111633000Y-79462000D01*
X110289845Y-79462000D01*
X110168524Y-79691890D01*
X109348500Y-79691890D01*
X109348500Y-79508350D01*
X109189750Y-79349600D01*
X108140500Y-79349600D01*
X108140500Y-79369600D01*
X107886500Y-79369600D01*
X107886500Y-79349600D01*
X106837250Y-79349600D01*
X106678500Y-79508350D01*
X106678500Y-79836409D01*
X106775173Y-80069798D01*
X106953801Y-80248427D01*
X107064295Y-80294195D01*
X106975060Y-80331158D01*
X106972251Y-80423281D01*
X106955844Y-80434244D01*
X106819928Y-80637657D01*
X106805419Y-80710596D01*
X106792498Y-80697675D01*
X106666000Y-80701532D01*
X106666000Y-80401291D01*
X106569327Y-80167902D01*
X106390699Y-79989273D01*
X106157310Y-79892600D01*
X105441750Y-79892600D01*
X105283000Y-80051350D01*
X105283000Y-81000600D01*
X105303000Y-81000600D01*
X105303000Y-81254600D01*
X105283000Y-81254600D01*
X105283000Y-81274600D01*
X105029000Y-81274600D01*
X105029000Y-81254600D01*
X103804750Y-81254600D01*
X103646000Y-81413350D01*
X103646000Y-81853909D01*
X103742673Y-82087298D01*
X103921301Y-82265927D01*
X103968100Y-82285312D01*
X103725192Y-82648848D01*
X103629962Y-83127600D01*
X103725192Y-83606352D01*
X103996383Y-84012217D01*
X104071188Y-84062200D01*
X100031163Y-84062200D01*
X99972458Y-83974342D01*
X99665440Y-83769200D01*
X99972458Y-83564058D01*
X100298903Y-83075497D01*
X100413536Y-82499200D01*
X100298903Y-81922903D01*
X99972458Y-81434342D01*
X99884600Y-81375637D01*
X99884600Y-80401291D01*
X103646000Y-80401291D01*
X103646000Y-80841850D01*
X103804750Y-81000600D01*
X105029000Y-81000600D01*
X105029000Y-80051350D01*
X104870250Y-79892600D01*
X104154690Y-79892600D01*
X103921301Y-79989273D01*
X103742673Y-80167902D01*
X103646000Y-80401291D01*
X99884600Y-80401291D01*
X99884600Y-78142200D01*
X100789823Y-78142200D01*
X101074806Y-78085513D01*
X101139628Y-78042200D01*
X101868046Y-78042200D01*
X102085807Y-77952000D01*
X102878250Y-77952000D01*
X102940000Y-77964283D01*
X103435941Y-77964283D01*
X103475357Y-77990620D01*
X103720000Y-78039283D01*
X104560000Y-78039283D01*
X104804643Y-77990620D01*
X104844059Y-77964283D01*
X105340000Y-77964283D01*
X105401750Y-77952000D01*
X106756620Y-77952000D01*
X106932851Y-78215749D01*
X106934034Y-78216540D01*
X106775173Y-78375402D01*
X106678500Y-78608791D01*
X106678500Y-78936850D01*
X106837250Y-79095600D01*
X107886500Y-79095600D01*
X107886500Y-79075600D01*
X108140500Y-79075600D01*
X108140500Y-79095600D01*
X109189750Y-79095600D01*
X109348500Y-78936850D01*
X109348500Y-78608791D01*
X109251827Y-78375402D01*
X109092966Y-78216540D01*
X109094149Y-78215749D01*
X109270380Y-77952000D01*
X110306468Y-77952000D01*
X110381182Y-78063818D01*
X110646557Y-78241136D01*
X110421336Y-78442955D01*
X110170447Y-78965740D01*
X110168524Y-78978110D01*
X110289845Y-79208000D01*
X111633000Y-79208000D01*
X111633000Y-79188000D01*
X111887000Y-79188000D01*
X111887000Y-79208000D01*
X113230155Y-79208000D01*
X113351476Y-78978110D01*
X113349553Y-78965740D01*
X113098664Y-78442955D01*
X112873443Y-78241136D01*
X113011493Y-78148894D01*
X113024421Y-78213886D01*
X113180682Y-78447747D01*
X113239711Y-78487189D01*
X113943210Y-79190689D01*
X113982652Y-79249718D01*
X114216513Y-79405979D01*
X114353720Y-79433271D01*
X114392463Y-79526805D01*
X114783195Y-79917537D01*
X114980100Y-79999098D01*
X114838857Y-80057603D01*
X114769392Y-80299787D01*
X115570000Y-81100395D01*
X116370608Y-80299787D01*
X116301143Y-80057603D01*
X116149375Y-80003457D01*
X116356805Y-79917537D01*
X116747537Y-79526805D01*
X116959000Y-79016289D01*
X116959000Y-78463711D01*
X116747537Y-77953195D01*
X116356805Y-77562463D01*
X116133580Y-77470000D01*
X116356805Y-77377537D01*
X116747537Y-76986805D01*
X116959000Y-76476289D01*
X116959000Y-75923711D01*
X116747537Y-75413195D01*
X116356805Y-75022463D01*
X116133580Y-74930000D01*
X116356805Y-74837537D01*
X116747537Y-74446805D01*
X116959000Y-73936289D01*
X116959000Y-73383711D01*
X116747537Y-72873195D01*
X116356805Y-72482463D01*
X115846289Y-72271000D01*
X115293711Y-72271000D01*
X114783195Y-72482463D01*
X114397400Y-72868258D01*
X114397400Y-70913148D01*
X115995289Y-69315260D01*
X116054318Y-69275818D01*
X116074654Y-69245383D01*
X116294600Y-69245383D01*
X116539243Y-69196720D01*
X116746641Y-69058141D01*
X116885220Y-68850743D01*
X116933883Y-68606100D01*
X116933883Y-67106100D01*
X116885220Y-66861457D01*
X116746641Y-66654059D01*
X116539243Y-66515480D01*
X116294600Y-66466817D01*
X114794600Y-66466817D01*
X114549957Y-66515480D01*
X114342559Y-66654059D01*
X114203980Y-66861457D01*
X114155317Y-67106100D01*
X114155317Y-67674034D01*
X113161152Y-68668200D01*
X113109554Y-68668200D01*
X112787220Y-68801716D01*
X112540516Y-69048420D01*
X112407000Y-69370754D01*
X112407000Y-69719646D01*
X112540516Y-70041980D01*
X112787220Y-70288684D01*
X113016612Y-70383702D01*
X112999596Y-70469250D01*
X112969550Y-70620300D01*
X112983400Y-70689928D01*
X112983401Y-75379566D01*
X112983400Y-75379571D01*
X112983400Y-75502335D01*
X112850314Y-75413410D01*
X112510000Y-75345717D01*
X111010000Y-75345717D01*
X110669686Y-75413410D01*
X110381182Y-75606182D01*
X110188410Y-75894686D01*
X110120717Y-76235000D01*
X110120717Y-76440900D01*
X109036453Y-76440900D01*
X108984247Y-76406017D01*
X109150684Y-76239580D01*
X109284200Y-75917246D01*
X109284200Y-75863941D01*
X109387249Y-75709718D01*
X109397579Y-75694258D01*
X109397579Y-75694257D01*
X109397580Y-75694256D01*
X109438601Y-75488028D01*
X109438601Y-75488024D01*
X109452450Y-75418400D01*
X109438601Y-75348776D01*
X109438601Y-72208829D01*
X109452451Y-72139201D01*
X109433931Y-72046095D01*
X109397580Y-71863344D01*
X109325634Y-71755670D01*
X109280760Y-71688511D01*
X109280759Y-71688510D01*
X109241318Y-71629483D01*
X109182292Y-71590043D01*
X108159762Y-70567514D01*
X108120318Y-70508482D01*
X108087666Y-70486665D01*
X108084569Y-70471095D01*
X107898571Y-70192729D01*
X107620205Y-70006731D01*
X107291850Y-69941417D01*
X106779350Y-69941417D01*
X106450995Y-70006731D01*
X106172629Y-70192729D01*
X105986631Y-70471095D01*
X105921317Y-70799450D01*
X105921317Y-71132634D01*
X104969082Y-72084870D01*
X104910053Y-72124312D01*
X104904256Y-72132988D01*
X104736971Y-71882629D01*
X104593000Y-71786431D01*
X104593000Y-71706531D01*
X104711471Y-71627371D01*
X104897469Y-71349005D01*
X104962783Y-71020650D01*
X104962783Y-70508150D01*
X104897469Y-70179795D01*
X104711471Y-69901429D01*
X104433105Y-69715431D01*
X104104750Y-69650117D01*
X103667250Y-69650117D01*
X103338895Y-69715431D01*
X103098500Y-69876058D01*
X102858105Y-69715431D01*
X102529750Y-69650117D01*
X102226160Y-69650117D01*
X102142804Y-69594420D01*
X101923451Y-69550788D01*
X101923447Y-69550788D01*
X101849388Y-69536057D01*
X101775329Y-69550788D01*
X99599322Y-69550788D01*
X103847921Y-65302190D01*
X104067154Y-65393000D01*
X104416046Y-65393000D01*
X104738380Y-65259484D01*
X104985084Y-65012780D01*
X105118600Y-64690446D01*
X105118600Y-64341554D01*
X104985084Y-64019220D01*
X104803422Y-63837558D01*
X107437601Y-61203378D01*
X107437600Y-66466817D01*
X107394600Y-66466817D01*
X107149957Y-66515480D01*
X106942559Y-66654059D01*
X106803980Y-66861457D01*
X106755317Y-67106100D01*
X106755317Y-68606100D01*
X106803980Y-68850743D01*
X106942559Y-69058141D01*
X107149957Y-69196720D01*
X107394600Y-69245383D01*
X108894600Y-69245383D01*
X109139243Y-69196720D01*
X109346641Y-69058141D01*
X109485220Y-68850743D01*
X109533883Y-68606100D01*
X109533883Y-67106100D01*
X109485220Y-66861457D01*
X109346641Y-66654059D01*
X109139243Y-66515480D01*
X108894600Y-66466817D01*
X108851600Y-66466817D01*
X108851600Y-60893048D01*
X109334066Y-60410583D01*
X109667250Y-60410583D01*
X109995605Y-60345269D01*
X110236000Y-60184642D01*
X110476395Y-60345269D01*
X110804750Y-60410583D01*
X111242250Y-60410583D01*
X111570605Y-60345269D01*
X111789123Y-60199260D01*
X111907851Y-60376949D01*
X112194328Y-60568366D01*
X112532250Y-60635583D01*
X113019750Y-60635583D01*
X113357672Y-60568366D01*
X113644149Y-60376949D01*
X113713500Y-60273157D01*
X113782851Y-60376949D01*
X114069328Y-60568366D01*
X114407250Y-60635583D01*
X114894750Y-60635583D01*
X115232672Y-60568366D01*
X115519149Y-60376949D01*
X115710566Y-60090472D01*
X115777783Y-59752550D01*
X115777783Y-58840050D01*
X115710566Y-58502128D01*
X115519149Y-58215651D01*
X115454826Y-58172672D01*
X115443122Y-58155156D01*
X115435879Y-58118743D01*
X115279617Y-57884882D01*
X115232675Y-57853517D01*
X115201308Y-57806572D01*
X114967447Y-57650311D01*
X114761219Y-57609290D01*
X114761218Y-57609290D01*
X114691590Y-57595440D01*
X114621962Y-57609290D01*
X114035523Y-57609290D01*
X114039862Y-57602796D01*
X114248198Y-57394460D01*
X114248568Y-57394213D01*
X114323328Y-57444166D01*
X114661250Y-57511383D01*
X115148750Y-57511383D01*
X115486672Y-57444166D01*
X115773149Y-57252749D01*
X115964566Y-56966272D01*
X116031783Y-56628350D01*
X116031783Y-55715850D01*
X115964566Y-55377928D01*
X115813574Y-55151951D01*
X115930827Y-55034699D01*
X116027500Y-54801310D01*
X116027500Y-54260750D01*
X115868750Y-54102000D01*
X115032000Y-54102000D01*
X115032000Y-54122000D01*
X114778000Y-54122000D01*
X114778000Y-54102000D01*
X114758000Y-54102000D01*
X114758000Y-53848000D01*
X114778000Y-53848000D01*
X114778000Y-53828000D01*
X115032000Y-53828000D01*
X115032000Y-53848000D01*
X115868750Y-53848000D01*
X116027500Y-53689250D01*
X116027500Y-53148690D01*
X115930827Y-52915301D01*
X115812525Y-52797000D01*
X117383000Y-52797000D01*
X117383001Y-84633152D01*
X117383001Y-84633152D01*
G37*
X117383001Y-84633152D02*
X116925943Y-84176095D01*
X116959000Y-84096289D01*
X116959000Y-83543711D01*
X116747537Y-83033195D01*
X116356805Y-82642463D01*
X116159900Y-82560902D01*
X116301143Y-82502397D01*
X116370608Y-82260213D01*
X115570000Y-81459605D01*
X114769392Y-82260213D01*
X114838857Y-82502397D01*
X114990625Y-82556543D01*
X114783195Y-82642463D01*
X114392463Y-83033195D01*
X114181000Y-83543711D01*
X114181000Y-84096289D01*
X114392463Y-84606805D01*
X114783195Y-84997537D01*
X115006420Y-85090000D01*
X114783195Y-85182463D01*
X114392463Y-85573195D01*
X114181000Y-86083711D01*
X114181000Y-86636289D01*
X114392463Y-87146805D01*
X114783195Y-87537537D01*
X115006420Y-87630000D01*
X114783195Y-87722463D01*
X114392463Y-88113195D01*
X114181000Y-88623711D01*
X114181000Y-89176289D01*
X114392463Y-89686805D01*
X114783195Y-90077537D01*
X114921446Y-90134803D01*
X114905372Y-90138000D01*
X113188970Y-90138000D01*
X112949858Y-89780142D01*
X112676282Y-89597345D01*
X113087497Y-89216193D01*
X113326476Y-88701890D01*
X113205155Y-88472000D01*
X111887000Y-88472000D01*
X111887000Y-88492000D01*
X111633000Y-88492000D01*
X111633000Y-88472000D01*
X110314845Y-88472000D01*
X110193524Y-88701890D01*
X110432503Y-89216193D01*
X110843718Y-89597345D01*
X110570142Y-89780142D01*
X110243697Y-90268703D01*
X110150763Y-90735914D01*
X109654162Y-90239314D01*
X109614718Y-90180282D01*
X109380857Y-90024021D01*
X109174629Y-89983000D01*
X109174628Y-89983000D01*
X109105000Y-89969150D01*
X109035372Y-89983000D01*
X107766159Y-89983000D01*
X107715843Y-89949380D01*
X107471200Y-89900717D01*
X106771200Y-89900717D01*
X106526557Y-89949380D01*
X106319159Y-90087959D01*
X106180580Y-90295357D01*
X106131917Y-90540000D01*
X106131917Y-90840000D01*
X106151808Y-90940000D01*
X106131917Y-91040000D01*
X106131917Y-91340000D01*
X106143209Y-91396769D01*
X106136200Y-91413691D01*
X106136200Y-91456250D01*
X106159719Y-91479769D01*
X106180580Y-91584643D01*
X106182155Y-91587000D01*
X106110483Y-91587000D01*
X106110483Y-91540000D01*
X106090592Y-91440000D01*
X106110483Y-91340000D01*
X106110483Y-91040000D01*
X106099191Y-90983231D01*
X106106200Y-90966309D01*
X106106200Y-90923750D01*
X106082681Y-90900231D01*
X106061820Y-90795357D01*
X105994200Y-90694157D01*
X105994200Y-90568250D01*
X106106200Y-90456250D01*
X106106200Y-90413691D01*
X106009527Y-90180302D01*
X105869926Y-90040700D01*
X105900127Y-90010499D01*
X105996800Y-89777110D01*
X105996800Y-89236550D01*
X105838050Y-89077800D01*
X105001300Y-89077800D01*
X105001300Y-89097800D01*
X104747300Y-89097800D01*
X104747300Y-89077800D01*
X104727300Y-89077800D01*
X104727300Y-88823800D01*
X104747300Y-88823800D01*
X104747300Y-87774550D01*
X105001300Y-87774550D01*
X105001300Y-88823800D01*
X105838050Y-88823800D01*
X105996800Y-88665050D01*
X105996800Y-88124490D01*
X105900127Y-87891101D01*
X105721498Y-87712473D01*
X105488109Y-87615800D01*
X105160050Y-87615800D01*
X105001300Y-87774550D01*
X104747300Y-87774550D01*
X104588550Y-87615800D01*
X104260491Y-87615800D01*
X104027102Y-87712473D01*
X103868240Y-87871334D01*
X103867449Y-87870151D01*
X103580972Y-87678734D01*
X103243050Y-87611517D01*
X102755550Y-87611517D01*
X102417628Y-87678734D01*
X102131151Y-87870151D01*
X101939734Y-88156628D01*
X101872517Y-88494550D01*
X101872517Y-89088355D01*
X101777084Y-89231181D01*
X101749869Y-89368000D01*
X101722213Y-89507037D01*
X101736063Y-89576665D01*
X101736064Y-90783800D01*
X100908047Y-90783800D01*
X99192729Y-89068483D01*
X99757600Y-89068483D01*
X100002243Y-89019820D01*
X100209641Y-88881241D01*
X100348220Y-88673843D01*
X100396883Y-88429200D01*
X100396883Y-86729200D01*
X100348220Y-86484557D01*
X100209641Y-86277159D01*
X100002243Y-86138580D01*
X99939477Y-86126095D01*
X99972458Y-86104058D01*
X100031163Y-86016200D01*
X104002344Y-86016200D01*
X104402248Y-86283408D01*
X104760153Y-86354600D01*
X105551847Y-86354600D01*
X105909752Y-86283408D01*
X106315617Y-86012217D01*
X106586808Y-85606352D01*
X106658685Y-85245000D01*
X110145717Y-85245000D01*
X110145717Y-86445000D01*
X110213410Y-86785314D01*
X110406182Y-87073818D01*
X110672243Y-87251594D01*
X110432503Y-87473807D01*
X110193524Y-87988110D01*
X110314845Y-88218000D01*
X111633000Y-88218000D01*
X111633000Y-88198000D01*
X111887000Y-88198000D01*
X111887000Y-88218000D01*
X113205155Y-88218000D01*
X113326476Y-87988110D01*
X113087497Y-87473807D01*
X112847757Y-87251594D01*
X113113818Y-87073818D01*
X113306590Y-86785314D01*
X113374283Y-86445000D01*
X113374283Y-85245000D01*
X113306590Y-84904686D01*
X113113818Y-84616182D01*
X112825314Y-84423410D01*
X112485000Y-84355717D01*
X111035000Y-84355717D01*
X110694686Y-84423410D01*
X110406182Y-84616182D01*
X110213410Y-84904686D01*
X110145717Y-85245000D01*
X106658685Y-85245000D01*
X106682038Y-85127600D01*
X106586808Y-84648848D01*
X106315617Y-84242983D01*
X106142935Y-84127600D01*
X106315617Y-84012217D01*
X106586808Y-83606352D01*
X106611731Y-83481057D01*
X106629717Y-83660857D01*
X106696358Y-83821740D01*
X106788481Y-83824549D01*
X106799444Y-83840956D01*
X107002857Y-83976872D01*
X107075796Y-83991381D01*
X107062875Y-84004302D01*
X107068660Y-84194042D01*
X107405730Y-84295728D01*
X107756057Y-84260683D01*
X107916940Y-84194042D01*
X107922725Y-84004302D01*
X107909804Y-83991381D01*
X107982743Y-83976872D01*
X108186156Y-83840956D01*
X108197119Y-83824549D01*
X108289242Y-83821740D01*
X108390928Y-83484670D01*
X108369800Y-83273464D01*
X108369800Y-82554705D01*
X108390928Y-82484670D01*
X108355883Y-82134343D01*
X108310716Y-82025301D01*
X108312130Y-82025728D01*
X108662457Y-81990683D01*
X108823340Y-81924042D01*
X108826149Y-81831919D01*
X108842556Y-81820956D01*
X108978472Y-81617543D01*
X108992981Y-81544604D01*
X109005902Y-81557525D01*
X109195642Y-81551740D01*
X109297328Y-81214670D01*
X109283087Y-81072302D01*
X114160856Y-81072302D01*
X114188638Y-81627368D01*
X114347603Y-82011143D01*
X114589787Y-82080608D01*
X115390395Y-81280000D01*
X115749605Y-81280000D01*
X116550213Y-82080608D01*
X116792397Y-82011143D01*
X116979144Y-81487698D01*
X116951362Y-80932632D01*
X116792397Y-80548857D01*
X116550213Y-80479392D01*
X115749605Y-81280000D01*
X115390395Y-81280000D01*
X114589787Y-80479392D01*
X114347603Y-80548857D01*
X114160856Y-81072302D01*
X109283087Y-81072302D01*
X109262283Y-80864343D01*
X109195642Y-80703460D01*
X109005902Y-80697675D01*
X108992981Y-80710596D01*
X108978472Y-80637657D01*
X108842556Y-80434244D01*
X108826149Y-80423281D01*
X108823765Y-80345100D01*
X108839810Y-80345100D01*
X109073199Y-80248427D01*
X109251827Y-80069798D01*
X109348500Y-79836409D01*
X109348500Y-79691890D01*
X110168524Y-79691890D01*
X110170447Y-79704260D01*
X110421336Y-80227045D01*
X110853188Y-80614024D01*
X111400258Y-80806284D01*
X111633000Y-80662231D01*
X111633000Y-79462000D01*
X111887000Y-79462000D01*
X111887000Y-80662231D01*
X112119742Y-80806284D01*
X112666812Y-80614024D01*
X113098664Y-80227045D01*
X113349553Y-79704260D01*
X113351476Y-79691890D01*
X113230155Y-79462000D01*
X111887000Y-79462000D01*
X111633000Y-79462000D01*
X110289845Y-79462000D01*
X110168524Y-79691890D01*
X109348500Y-79691890D01*
X109348500Y-79508350D01*
X109189750Y-79349600D01*
X108140500Y-79349600D01*
X108140500Y-79369600D01*
X107886500Y-79369600D01*
X107886500Y-79349600D01*
X106837250Y-79349600D01*
X106678500Y-79508350D01*
X106678500Y-79836409D01*
X106775173Y-80069798D01*
X106953801Y-80248427D01*
X107064295Y-80294195D01*
X106975060Y-80331158D01*
X106972251Y-80423281D01*
X106955844Y-80434244D01*
X106819928Y-80637657D01*
X106805419Y-80710596D01*
X106792498Y-80697675D01*
X106666000Y-80701532D01*
X106666000Y-80401291D01*
X106569327Y-80167902D01*
X106390699Y-79989273D01*
X106157310Y-79892600D01*
X105441750Y-79892600D01*
X105283000Y-80051350D01*
X105283000Y-81000600D01*
X105303000Y-81000600D01*
X105303000Y-81254600D01*
X105283000Y-81254600D01*
X105283000Y-81274600D01*
X105029000Y-81274600D01*
X105029000Y-81254600D01*
X103804750Y-81254600D01*
X103646000Y-81413350D01*
X103646000Y-81853909D01*
X103742673Y-82087298D01*
X103921301Y-82265927D01*
X103968100Y-82285312D01*
X103725192Y-82648848D01*
X103629962Y-83127600D01*
X103725192Y-83606352D01*
X103996383Y-84012217D01*
X104071188Y-84062200D01*
X100031163Y-84062200D01*
X99972458Y-83974342D01*
X99665440Y-83769200D01*
X99972458Y-83564058D01*
X100298903Y-83075497D01*
X100413536Y-82499200D01*
X100298903Y-81922903D01*
X99972458Y-81434342D01*
X99884600Y-81375637D01*
X99884600Y-80401291D01*
X103646000Y-80401291D01*
X103646000Y-80841850D01*
X103804750Y-81000600D01*
X105029000Y-81000600D01*
X105029000Y-80051350D01*
X104870250Y-79892600D01*
X104154690Y-79892600D01*
X103921301Y-79989273D01*
X103742673Y-80167902D01*
X103646000Y-80401291D01*
X99884600Y-80401291D01*
X99884600Y-78142200D01*
X100789823Y-78142200D01*
X101074806Y-78085513D01*
X101139628Y-78042200D01*
X101868046Y-78042200D01*
X102085807Y-77952000D01*
X102878250Y-77952000D01*
X102940000Y-77964283D01*
X103435941Y-77964283D01*
X103475357Y-77990620D01*
X103720000Y-78039283D01*
X104560000Y-78039283D01*
X104804643Y-77990620D01*
X104844059Y-77964283D01*
X105340000Y-77964283D01*
X105401750Y-77952000D01*
X106756620Y-77952000D01*
X106932851Y-78215749D01*
X106934034Y-78216540D01*
X106775173Y-78375402D01*
X106678500Y-78608791D01*
X106678500Y-78936850D01*
X106837250Y-79095600D01*
X107886500Y-79095600D01*
X107886500Y-79075600D01*
X108140500Y-79075600D01*
X108140500Y-79095600D01*
X109189750Y-79095600D01*
X109348500Y-78936850D01*
X109348500Y-78608791D01*
X109251827Y-78375402D01*
X109092966Y-78216540D01*
X109094149Y-78215749D01*
X109270380Y-77952000D01*
X110306468Y-77952000D01*
X110381182Y-78063818D01*
X110646557Y-78241136D01*
X110421336Y-78442955D01*
X110170447Y-78965740D01*
X110168524Y-78978110D01*
X110289845Y-79208000D01*
X111633000Y-79208000D01*
X111633000Y-79188000D01*
X111887000Y-79188000D01*
X111887000Y-79208000D01*
X113230155Y-79208000D01*
X113351476Y-78978110D01*
X113349553Y-78965740D01*
X113098664Y-78442955D01*
X112873443Y-78241136D01*
X113011493Y-78148894D01*
X113024421Y-78213886D01*
X113180682Y-78447747D01*
X113239711Y-78487189D01*
X113943210Y-79190689D01*
X113982652Y-79249718D01*
X114216513Y-79405979D01*
X114353720Y-79433271D01*
X114392463Y-79526805D01*
X114783195Y-79917537D01*
X114980100Y-79999098D01*
X114838857Y-80057603D01*
X114769392Y-80299787D01*
X115570000Y-81100395D01*
X116370608Y-80299787D01*
X116301143Y-80057603D01*
X116149375Y-80003457D01*
X116356805Y-79917537D01*
X116747537Y-79526805D01*
X116959000Y-79016289D01*
X116959000Y-78463711D01*
X116747537Y-77953195D01*
X116356805Y-77562463D01*
X116133580Y-77470000D01*
X116356805Y-77377537D01*
X116747537Y-76986805D01*
X116959000Y-76476289D01*
X116959000Y-75923711D01*
X116747537Y-75413195D01*
X116356805Y-75022463D01*
X116133580Y-74930000D01*
X116356805Y-74837537D01*
X116747537Y-74446805D01*
X116959000Y-73936289D01*
X116959000Y-73383711D01*
X116747537Y-72873195D01*
X116356805Y-72482463D01*
X115846289Y-72271000D01*
X115293711Y-72271000D01*
X114783195Y-72482463D01*
X114397400Y-72868258D01*
X114397400Y-70913148D01*
X115995289Y-69315260D01*
X116054318Y-69275818D01*
X116074654Y-69245383D01*
X116294600Y-69245383D01*
X116539243Y-69196720D01*
X116746641Y-69058141D01*
X116885220Y-68850743D01*
X116933883Y-68606100D01*
X116933883Y-67106100D01*
X116885220Y-66861457D01*
X116746641Y-66654059D01*
X116539243Y-66515480D01*
X116294600Y-66466817D01*
X114794600Y-66466817D01*
X114549957Y-66515480D01*
X114342559Y-66654059D01*
X114203980Y-66861457D01*
X114155317Y-67106100D01*
X114155317Y-67674034D01*
X113161152Y-68668200D01*
X113109554Y-68668200D01*
X112787220Y-68801716D01*
X112540516Y-69048420D01*
X112407000Y-69370754D01*
X112407000Y-69719646D01*
X112540516Y-70041980D01*
X112787220Y-70288684D01*
X113016612Y-70383702D01*
X112999596Y-70469250D01*
X112969550Y-70620300D01*
X112983400Y-70689928D01*
X112983401Y-75379566D01*
X112983400Y-75379571D01*
X112983400Y-75502335D01*
X112850314Y-75413410D01*
X112510000Y-75345717D01*
X111010000Y-75345717D01*
X110669686Y-75413410D01*
X110381182Y-75606182D01*
X110188410Y-75894686D01*
X110120717Y-76235000D01*
X110120717Y-76440900D01*
X109036453Y-76440900D01*
X108984247Y-76406017D01*
X109150684Y-76239580D01*
X109284200Y-75917246D01*
X109284200Y-75863941D01*
X109387249Y-75709718D01*
X109397579Y-75694258D01*
X109397579Y-75694257D01*
X109397580Y-75694256D01*
X109438601Y-75488028D01*
X109438601Y-75488024D01*
X109452450Y-75418400D01*
X109438601Y-75348776D01*
X109438601Y-72208829D01*
X109452451Y-72139201D01*
X109433931Y-72046095D01*
X109397580Y-71863344D01*
X109325634Y-71755670D01*
X109280760Y-71688511D01*
X109280759Y-71688510D01*
X109241318Y-71629483D01*
X109182292Y-71590043D01*
X108159762Y-70567514D01*
X108120318Y-70508482D01*
X108087666Y-70486665D01*
X108084569Y-70471095D01*
X107898571Y-70192729D01*
X107620205Y-70006731D01*
X107291850Y-69941417D01*
X106779350Y-69941417D01*
X106450995Y-70006731D01*
X106172629Y-70192729D01*
X105986631Y-70471095D01*
X105921317Y-70799450D01*
X105921317Y-71132634D01*
X104969082Y-72084870D01*
X104910053Y-72124312D01*
X104904256Y-72132988D01*
X104736971Y-71882629D01*
X104593000Y-71786431D01*
X104593000Y-71706531D01*
X104711471Y-71627371D01*
X104897469Y-71349005D01*
X104962783Y-71020650D01*
X104962783Y-70508150D01*
X104897469Y-70179795D01*
X104711471Y-69901429D01*
X104433105Y-69715431D01*
X104104750Y-69650117D01*
X103667250Y-69650117D01*
X103338895Y-69715431D01*
X103098500Y-69876058D01*
X102858105Y-69715431D01*
X102529750Y-69650117D01*
X102226160Y-69650117D01*
X102142804Y-69594420D01*
X101923451Y-69550788D01*
X101923447Y-69550788D01*
X101849388Y-69536057D01*
X101775329Y-69550788D01*
X99599322Y-69550788D01*
X103847921Y-65302190D01*
X104067154Y-65393000D01*
X104416046Y-65393000D01*
X104738380Y-65259484D01*
X104985084Y-65012780D01*
X105118600Y-64690446D01*
X105118600Y-64341554D01*
X104985084Y-64019220D01*
X104803422Y-63837558D01*
X107437601Y-61203378D01*
X107437600Y-66466817D01*
X107394600Y-66466817D01*
X107149957Y-66515480D01*
X106942559Y-66654059D01*
X106803980Y-66861457D01*
X106755317Y-67106100D01*
X106755317Y-68606100D01*
X106803980Y-68850743D01*
X106942559Y-69058141D01*
X107149957Y-69196720D01*
X107394600Y-69245383D01*
X108894600Y-69245383D01*
X109139243Y-69196720D01*
X109346641Y-69058141D01*
X109485220Y-68850743D01*
X109533883Y-68606100D01*
X109533883Y-67106100D01*
X109485220Y-66861457D01*
X109346641Y-66654059D01*
X109139243Y-66515480D01*
X108894600Y-66466817D01*
X108851600Y-66466817D01*
X108851600Y-60893048D01*
X109334066Y-60410583D01*
X109667250Y-60410583D01*
X109995605Y-60345269D01*
X110236000Y-60184642D01*
X110476395Y-60345269D01*
X110804750Y-60410583D01*
X111242250Y-60410583D01*
X111570605Y-60345269D01*
X111789123Y-60199260D01*
X111907851Y-60376949D01*
X112194328Y-60568366D01*
X112532250Y-60635583D01*
X113019750Y-60635583D01*
X113357672Y-60568366D01*
X113644149Y-60376949D01*
X113713500Y-60273157D01*
X113782851Y-60376949D01*
X114069328Y-60568366D01*
X114407250Y-60635583D01*
X114894750Y-60635583D01*
X115232672Y-60568366D01*
X115519149Y-60376949D01*
X115710566Y-60090472D01*
X115777783Y-59752550D01*
X115777783Y-58840050D01*
X115710566Y-58502128D01*
X115519149Y-58215651D01*
X115454826Y-58172672D01*
X115443122Y-58155156D01*
X115435879Y-58118743D01*
X115279617Y-57884882D01*
X115232675Y-57853517D01*
X115201308Y-57806572D01*
X114967447Y-57650311D01*
X114761219Y-57609290D01*
X114761218Y-57609290D01*
X114691590Y-57595440D01*
X114621962Y-57609290D01*
X114035523Y-57609290D01*
X114039862Y-57602796D01*
X114248198Y-57394460D01*
X114248568Y-57394213D01*
X114323328Y-57444166D01*
X114661250Y-57511383D01*
X115148750Y-57511383D01*
X115486672Y-57444166D01*
X115773149Y-57252749D01*
X115964566Y-56966272D01*
X116031783Y-56628350D01*
X116031783Y-55715850D01*
X115964566Y-55377928D01*
X115813574Y-55151951D01*
X115930827Y-55034699D01*
X116027500Y-54801310D01*
X116027500Y-54260750D01*
X115868750Y-54102000D01*
X115032000Y-54102000D01*
X115032000Y-54122000D01*
X114778000Y-54122000D01*
X114778000Y-54102000D01*
X114758000Y-54102000D01*
X114758000Y-53848000D01*
X114778000Y-53848000D01*
X114778000Y-53828000D01*
X115032000Y-53828000D01*
X115032000Y-53848000D01*
X115868750Y-53848000D01*
X116027500Y-53689250D01*
X116027500Y-53148690D01*
X115930827Y-52915301D01*
X115812525Y-52797000D01*
X117383000Y-52797000D01*
X117383001Y-84633152D01*
G36*
X97986999Y-71321941D02*
X97972268Y-71396001D01*
X97986999Y-71470060D01*
X97986999Y-71470063D01*
X98030631Y-71689416D01*
X98196838Y-71938162D01*
X98259628Y-71980117D01*
X98453883Y-72174372D01*
X98495838Y-72237162D01*
X98509027Y-72245974D01*
X98517839Y-72259163D01*
X98562000Y-72288671D01*
X98562000Y-72315941D01*
X98547269Y-72390000D01*
X98562000Y-72464059D01*
X98562000Y-72464062D01*
X98605632Y-72683415D01*
X98771839Y-72932161D01*
X98814250Y-72960500D01*
X98679000Y-73095750D01*
X98679000Y-74295000D01*
X98699000Y-74295000D01*
X98699000Y-74549000D01*
X98679000Y-74549000D01*
X98679000Y-74569000D01*
X98425000Y-74569000D01*
X98425000Y-74549000D01*
X97225750Y-74549000D01*
X97067000Y-74707750D01*
X97067000Y-75398310D01*
X97163673Y-75631699D01*
X97342302Y-75810327D01*
X97511921Y-75880585D01*
X97487142Y-75897142D01*
X97160697Y-76385703D01*
X97046064Y-76962000D01*
X97160697Y-77538297D01*
X97487142Y-78026858D01*
X97930601Y-78323167D01*
X97930600Y-81375637D01*
X97842742Y-81434342D01*
X97516297Y-81922903D01*
X97452944Y-82241400D01*
X96982577Y-82241400D01*
X96697594Y-82298087D01*
X96374423Y-82514023D01*
X96187746Y-82793404D01*
X96036805Y-82642463D01*
X95813580Y-82550000D01*
X96036805Y-82457537D01*
X96427537Y-82066805D01*
X96639000Y-81556289D01*
X96639000Y-81003711D01*
X96427537Y-80493195D01*
X96036805Y-80102463D01*
X95813580Y-80010000D01*
X96036805Y-79917537D01*
X96427537Y-79526805D01*
X96639000Y-79016289D01*
X96639000Y-78463711D01*
X96427537Y-77953195D01*
X96036805Y-77562463D01*
X95813580Y-77470000D01*
X96036805Y-77377537D01*
X96427537Y-76986805D01*
X96639000Y-76476289D01*
X96639000Y-75923711D01*
X96427537Y-75413195D01*
X96036805Y-75022463D01*
X95813580Y-74930000D01*
X96036805Y-74837537D01*
X96427537Y-74446805D01*
X96639000Y-73936289D01*
X96639000Y-73445690D01*
X97067000Y-73445690D01*
X97067000Y-74136250D01*
X97225750Y-74295000D01*
X98425000Y-74295000D01*
X98425000Y-73095750D01*
X98266250Y-72937000D01*
X97575691Y-72937000D01*
X97342302Y-73033673D01*
X97163673Y-73212301D01*
X97067000Y-73445690D01*
X96639000Y-73445690D01*
X96639000Y-73383711D01*
X96427537Y-72873195D01*
X96036805Y-72482463D01*
X95526289Y-72271000D01*
X94973711Y-72271000D01*
X94463195Y-72482463D01*
X94157020Y-72788638D01*
X94157020Y-71788477D01*
X94415154Y-71895400D01*
X94764046Y-71895400D01*
X95086380Y-71761884D01*
X95122864Y-71725400D01*
X97062234Y-71725400D01*
X97131862Y-71739250D01*
X97201490Y-71725400D01*
X97201491Y-71725400D01*
X97407719Y-71684379D01*
X97641580Y-71528118D01*
X97681024Y-71469086D01*
X97986999Y-71163111D01*
X97986999Y-71321941D01*
X97986999Y-71321941D01*
G37*
X97986999Y-71321941D02*
X97972268Y-71396001D01*
X97986999Y-71470060D01*
X97986999Y-71470063D01*
X98030631Y-71689416D01*
X98196838Y-71938162D01*
X98259628Y-71980117D01*
X98453883Y-72174372D01*
X98495838Y-72237162D01*
X98509027Y-72245974D01*
X98517839Y-72259163D01*
X98562000Y-72288671D01*
X98562000Y-72315941D01*
X98547269Y-72390000D01*
X98562000Y-72464059D01*
X98562000Y-72464062D01*
X98605632Y-72683415D01*
X98771839Y-72932161D01*
X98814250Y-72960500D01*
X98679000Y-73095750D01*
X98679000Y-74295000D01*
X98699000Y-74295000D01*
X98699000Y-74549000D01*
X98679000Y-74549000D01*
X98679000Y-74569000D01*
X98425000Y-74569000D01*
X98425000Y-74549000D01*
X97225750Y-74549000D01*
X97067000Y-74707750D01*
X97067000Y-75398310D01*
X97163673Y-75631699D01*
X97342302Y-75810327D01*
X97511921Y-75880585D01*
X97487142Y-75897142D01*
X97160697Y-76385703D01*
X97046064Y-76962000D01*
X97160697Y-77538297D01*
X97487142Y-78026858D01*
X97930601Y-78323167D01*
X97930600Y-81375637D01*
X97842742Y-81434342D01*
X97516297Y-81922903D01*
X97452944Y-82241400D01*
X96982577Y-82241400D01*
X96697594Y-82298087D01*
X96374423Y-82514023D01*
X96187746Y-82793404D01*
X96036805Y-82642463D01*
X95813580Y-82550000D01*
X96036805Y-82457537D01*
X96427537Y-82066805D01*
X96639000Y-81556289D01*
X96639000Y-81003711D01*
X96427537Y-80493195D01*
X96036805Y-80102463D01*
X95813580Y-80010000D01*
X96036805Y-79917537D01*
X96427537Y-79526805D01*
X96639000Y-79016289D01*
X96639000Y-78463711D01*
X96427537Y-77953195D01*
X96036805Y-77562463D01*
X95813580Y-77470000D01*
X96036805Y-77377537D01*
X96427537Y-76986805D01*
X96639000Y-76476289D01*
X96639000Y-75923711D01*
X96427537Y-75413195D01*
X96036805Y-75022463D01*
X95813580Y-74930000D01*
X96036805Y-74837537D01*
X96427537Y-74446805D01*
X96639000Y-73936289D01*
X96639000Y-73445690D01*
X97067000Y-73445690D01*
X97067000Y-74136250D01*
X97225750Y-74295000D01*
X98425000Y-74295000D01*
X98425000Y-73095750D01*
X98266250Y-72937000D01*
X97575691Y-72937000D01*
X97342302Y-73033673D01*
X97163673Y-73212301D01*
X97067000Y-73445690D01*
X96639000Y-73445690D01*
X96639000Y-73383711D01*
X96427537Y-72873195D01*
X96036805Y-72482463D01*
X95526289Y-72271000D01*
X94973711Y-72271000D01*
X94463195Y-72482463D01*
X94157020Y-72788638D01*
X94157020Y-71788477D01*
X94415154Y-71895400D01*
X94764046Y-71895400D01*
X95086380Y-71761884D01*
X95122864Y-71725400D01*
X97062234Y-71725400D01*
X97131862Y-71739250D01*
X97201490Y-71725400D01*
X97201491Y-71725400D01*
X97407719Y-71684379D01*
X97641580Y-71528118D01*
X97681024Y-71469086D01*
X97986999Y-71163111D01*
X97986999Y-71321941D01*
G36*
X108024602Y-74535752D02*
X107936052Y-74447202D01*
X108024602Y-74447202D01*
X108024602Y-74535752D01*
X108024602Y-74535752D01*
G37*
X108024602Y-74535752D02*
X107936052Y-74447202D01*
X108024602Y-74447202D01*
X108024602Y-74535752D01*
G36*
X107111800Y-74193200D02*
X107131800Y-74193200D01*
X107131800Y-74447200D01*
X107111800Y-74447200D01*
X107111800Y-74467200D01*
X106857800Y-74467200D01*
X106857800Y-74447200D01*
X106837800Y-74447200D01*
X106837800Y-74193200D01*
X106857800Y-74193200D01*
X106857800Y-74173200D01*
X107111800Y-74173200D01*
X107111800Y-74193200D01*
X107111800Y-74193200D01*
G37*
X107111800Y-74193200D02*
X107131800Y-74193200D01*
X107131800Y-74447200D01*
X107111800Y-74447200D01*
X107111800Y-74467200D01*
X106857800Y-74467200D01*
X106857800Y-74447200D01*
X106837800Y-74447200D01*
X106837800Y-74193200D01*
X106857800Y-74193200D01*
X106857800Y-74173200D01*
X107111800Y-74173200D01*
X107111800Y-74193200D01*
G36*
X108024602Y-74193198D02*
X107936052Y-74193198D01*
X108024602Y-74104648D01*
X108024602Y-74193198D01*
X108024602Y-74193198D01*
G37*
X108024602Y-74193198D02*
X107936052Y-74193198D01*
X108024602Y-74104648D01*
X108024602Y-74193198D01*
G36*
X112161851Y-52894351D02*
X111983437Y-53161367D01*
X111950471Y-53112029D01*
X111672105Y-52926031D01*
X111343750Y-52860717D01*
X110906250Y-52860717D01*
X110577895Y-52926031D01*
X110337500Y-53086658D01*
X110097105Y-52926031D01*
X109768750Y-52860717D01*
X109331250Y-52860717D01*
X109002895Y-52926031D01*
X108724529Y-53112029D01*
X108620313Y-53268000D01*
X107719987Y-53268000D01*
X107652741Y-53167359D01*
X107445343Y-53028780D01*
X107200700Y-52980117D01*
X106565700Y-52980117D01*
X106476800Y-52997800D01*
X106387900Y-52980117D01*
X105752900Y-52980117D01*
X105508257Y-53028780D01*
X105300859Y-53167359D01*
X105162280Y-53374757D01*
X105113617Y-53619400D01*
X105113617Y-54889400D01*
X105162280Y-55134043D01*
X105300859Y-55341441D01*
X105363400Y-55383230D01*
X105363401Y-55618079D01*
X105355857Y-55619580D01*
X105148459Y-55758159D01*
X105009880Y-55965557D01*
X104961217Y-56210200D01*
X104961217Y-57480200D01*
X105009880Y-57724843D01*
X105148459Y-57932241D01*
X105189124Y-57959412D01*
X104971316Y-58177220D01*
X104837800Y-58499554D01*
X104837800Y-58848446D01*
X104971316Y-59170780D01*
X105218020Y-59417484D01*
X105540354Y-59551000D01*
X105889246Y-59551000D01*
X106211580Y-59417484D01*
X106458284Y-59170780D01*
X106591800Y-58848446D01*
X106591800Y-58707338D01*
X106625000Y-58540429D01*
X106625000Y-58540425D01*
X106638849Y-58470801D01*
X106625000Y-58401177D01*
X106625000Y-58119483D01*
X106938201Y-58119483D01*
X106938200Y-59193951D01*
X97090752Y-69041400D01*
X93694028Y-69041400D01*
X93624400Y-69027550D01*
X93554772Y-69041400D01*
X93554771Y-69041400D01*
X93437000Y-69064826D01*
X93437000Y-64020000D01*
X95030717Y-64020000D01*
X95030717Y-65520000D01*
X95098410Y-65860314D01*
X95291182Y-66148818D01*
X95579686Y-66341590D01*
X95920000Y-66409283D01*
X97120000Y-66409283D01*
X97460314Y-66341590D01*
X97748818Y-66148818D01*
X97906757Y-65912445D01*
X97955142Y-65984858D01*
X98443704Y-66311303D01*
X99020000Y-66425936D01*
X99596297Y-66311303D01*
X100084858Y-65984858D01*
X100411303Y-65496296D01*
X100497000Y-65065470D01*
X100497000Y-64474529D01*
X100411303Y-64043703D01*
X100084858Y-63555142D01*
X99596296Y-63228697D01*
X99020000Y-63114064D01*
X98443703Y-63228697D01*
X97955142Y-63555142D01*
X97906757Y-63627555D01*
X97748818Y-63391182D01*
X97460314Y-63198410D01*
X97120000Y-63130717D01*
X95920000Y-63130717D01*
X95579686Y-63198410D01*
X95291182Y-63391182D01*
X95098410Y-63679686D01*
X95030717Y-64020000D01*
X93437000Y-64020000D01*
X93437000Y-59394529D01*
X95083000Y-59394529D01*
X95083000Y-59985470D01*
X95168697Y-60416296D01*
X95495142Y-60904858D01*
X95983703Y-61231303D01*
X96560000Y-61345936D01*
X97136296Y-61231303D01*
X97614535Y-60911756D01*
X97671673Y-61049699D01*
X97850302Y-61228327D01*
X98083691Y-61325000D01*
X98774250Y-61325000D01*
X98933000Y-61166250D01*
X98933000Y-59817000D01*
X99187000Y-59817000D01*
X99187000Y-61166250D01*
X99345750Y-61325000D01*
X100036309Y-61325000D01*
X100269698Y-61228327D01*
X100448327Y-61049699D01*
X100545000Y-60816310D01*
X100545000Y-59975750D01*
X100386250Y-59817000D01*
X99187000Y-59817000D01*
X98933000Y-59817000D01*
X98913000Y-59817000D01*
X98913000Y-59563000D01*
X98933000Y-59563000D01*
X98933000Y-58213750D01*
X99187000Y-58213750D01*
X99187000Y-59563000D01*
X100386250Y-59563000D01*
X100545000Y-59404250D01*
X100545000Y-58563690D01*
X100448327Y-58330301D01*
X100269698Y-58151673D01*
X100036309Y-58055000D01*
X99345750Y-58055000D01*
X99187000Y-58213750D01*
X98933000Y-58213750D01*
X98774250Y-58055000D01*
X98083691Y-58055000D01*
X97850302Y-58151673D01*
X97671673Y-58330301D01*
X97614535Y-58468244D01*
X97136297Y-58148697D01*
X96560000Y-58034064D01*
X95983704Y-58148697D01*
X95495142Y-58475142D01*
X95168697Y-58963703D01*
X95083000Y-59394529D01*
X93437000Y-59394529D01*
X93437000Y-52797000D01*
X112307548Y-52797000D01*
X112161851Y-52894351D01*
X112161851Y-52894351D01*
G37*
X112161851Y-52894351D02*
X111983437Y-53161367D01*
X111950471Y-53112029D01*
X111672105Y-52926031D01*
X111343750Y-52860717D01*
X110906250Y-52860717D01*
X110577895Y-52926031D01*
X110337500Y-53086658D01*
X110097105Y-52926031D01*
X109768750Y-52860717D01*
X109331250Y-52860717D01*
X109002895Y-52926031D01*
X108724529Y-53112029D01*
X108620313Y-53268000D01*
X107719987Y-53268000D01*
X107652741Y-53167359D01*
X107445343Y-53028780D01*
X107200700Y-52980117D01*
X106565700Y-52980117D01*
X106476800Y-52997800D01*
X106387900Y-52980117D01*
X105752900Y-52980117D01*
X105508257Y-53028780D01*
X105300859Y-53167359D01*
X105162280Y-53374757D01*
X105113617Y-53619400D01*
X105113617Y-54889400D01*
X105162280Y-55134043D01*
X105300859Y-55341441D01*
X105363400Y-55383230D01*
X105363401Y-55618079D01*
X105355857Y-55619580D01*
X105148459Y-55758159D01*
X105009880Y-55965557D01*
X104961217Y-56210200D01*
X104961217Y-57480200D01*
X105009880Y-57724843D01*
X105148459Y-57932241D01*
X105189124Y-57959412D01*
X104971316Y-58177220D01*
X104837800Y-58499554D01*
X104837800Y-58848446D01*
X104971316Y-59170780D01*
X105218020Y-59417484D01*
X105540354Y-59551000D01*
X105889246Y-59551000D01*
X106211580Y-59417484D01*
X106458284Y-59170780D01*
X106591800Y-58848446D01*
X106591800Y-58707338D01*
X106625000Y-58540429D01*
X106625000Y-58540425D01*
X106638849Y-58470801D01*
X106625000Y-58401177D01*
X106625000Y-58119483D01*
X106938201Y-58119483D01*
X106938200Y-59193951D01*
X97090752Y-69041400D01*
X93694028Y-69041400D01*
X93624400Y-69027550D01*
X93554772Y-69041400D01*
X93554771Y-69041400D01*
X93437000Y-69064826D01*
X93437000Y-64020000D01*
X95030717Y-64020000D01*
X95030717Y-65520000D01*
X95098410Y-65860314D01*
X95291182Y-66148818D01*
X95579686Y-66341590D01*
X95920000Y-66409283D01*
X97120000Y-66409283D01*
X97460314Y-66341590D01*
X97748818Y-66148818D01*
X97906757Y-65912445D01*
X97955142Y-65984858D01*
X98443704Y-66311303D01*
X99020000Y-66425936D01*
X99596297Y-66311303D01*
X100084858Y-65984858D01*
X100411303Y-65496296D01*
X100497000Y-65065470D01*
X100497000Y-64474529D01*
X100411303Y-64043703D01*
X100084858Y-63555142D01*
X99596296Y-63228697D01*
X99020000Y-63114064D01*
X98443703Y-63228697D01*
X97955142Y-63555142D01*
X97906757Y-63627555D01*
X97748818Y-63391182D01*
X97460314Y-63198410D01*
X97120000Y-63130717D01*
X95920000Y-63130717D01*
X95579686Y-63198410D01*
X95291182Y-63391182D01*
X95098410Y-63679686D01*
X95030717Y-64020000D01*
X93437000Y-64020000D01*
X93437000Y-59394529D01*
X95083000Y-59394529D01*
X95083000Y-59985470D01*
X95168697Y-60416296D01*
X95495142Y-60904858D01*
X95983703Y-61231303D01*
X96560000Y-61345936D01*
X97136296Y-61231303D01*
X97614535Y-60911756D01*
X97671673Y-61049699D01*
X97850302Y-61228327D01*
X98083691Y-61325000D01*
X98774250Y-61325000D01*
X98933000Y-61166250D01*
X98933000Y-59817000D01*
X99187000Y-59817000D01*
X99187000Y-61166250D01*
X99345750Y-61325000D01*
X100036309Y-61325000D01*
X100269698Y-61228327D01*
X100448327Y-61049699D01*
X100545000Y-60816310D01*
X100545000Y-59975750D01*
X100386250Y-59817000D01*
X99187000Y-59817000D01*
X98933000Y-59817000D01*
X98913000Y-59817000D01*
X98913000Y-59563000D01*
X98933000Y-59563000D01*
X98933000Y-58213750D01*
X99187000Y-58213750D01*
X99187000Y-59563000D01*
X100386250Y-59563000D01*
X100545000Y-59404250D01*
X100545000Y-58563690D01*
X100448327Y-58330301D01*
X100269698Y-58151673D01*
X100036309Y-58055000D01*
X99345750Y-58055000D01*
X99187000Y-58213750D01*
X98933000Y-58213750D01*
X98774250Y-58055000D01*
X98083691Y-58055000D01*
X97850302Y-58151673D01*
X97671673Y-58330301D01*
X97614535Y-58468244D01*
X97136297Y-58148697D01*
X96560000Y-58034064D01*
X95983704Y-58148697D01*
X95495142Y-58475142D01*
X95168697Y-58963703D01*
X95083000Y-59394529D01*
X93437000Y-59394529D01*
X93437000Y-52797000D01*
X112307548Y-52797000D01*
X112161851Y-52894351D01*
G04 #@! TD*
M02*
