G04 #@! TF.GenerationSoftware,KiCad,Pcbnew,(5.0.1)-rc2*
G04 #@! TF.CreationDate,2019-05-10T17:03:12-07:00*
G04 #@! TF.ProjectId,weatherStation,7765617468657253746174696F6E2E6B,rev?*
G04 #@! TF.SameCoordinates,Original*
G04 #@! TF.FileFunction,Soldermask,Top*
G04 #@! TF.FilePolarity,Negative*
%FSLAX46Y46*%
G04 Gerber Fmt 4.6, Leading zero omitted, Abs format (unit mm)*
G04 Created by KiCad (PCBNEW (5.0.1)-rc2) date 5/10/2019 5:03:12 PM*
%MOMM*%
%LPD*%
G01*
G04 APERTURE LIST*
%ADD10C,0.100000*%
G04 APERTURE END LIST*
D10*
G36*
X115807142Y-105898242D02*
X115913658Y-105942363D01*
X115945132Y-105955400D01*
X115955102Y-105959530D01*
X116088258Y-106048502D01*
X116201498Y-106161742D01*
X116290470Y-106294898D01*
X116351758Y-106442858D01*
X116383000Y-106599925D01*
X116383000Y-106760075D01*
X116351758Y-106917142D01*
X116290470Y-107065102D01*
X116201498Y-107198258D01*
X116088258Y-107311498D01*
X115955102Y-107400470D01*
X115807142Y-107461758D01*
X115650075Y-107493000D01*
X115489925Y-107493000D01*
X115332858Y-107461758D01*
X115184898Y-107400470D01*
X115051742Y-107311498D01*
X114938502Y-107198258D01*
X114849530Y-107065102D01*
X114788242Y-106917142D01*
X114757000Y-106760075D01*
X114757000Y-106599925D01*
X114788242Y-106442858D01*
X114849530Y-106294898D01*
X114938502Y-106161742D01*
X115051742Y-106048502D01*
X115184898Y-105959530D01*
X115194869Y-105955400D01*
X115226342Y-105942363D01*
X115332858Y-105898242D01*
X115489925Y-105867000D01*
X115650075Y-105867000D01*
X115807142Y-105898242D01*
X115807142Y-105898242D01*
G37*
G36*
X95487142Y-105898242D02*
X95593658Y-105942363D01*
X95625132Y-105955400D01*
X95635102Y-105959530D01*
X95768258Y-106048502D01*
X95881498Y-106161742D01*
X95970470Y-106294898D01*
X96031758Y-106442858D01*
X96063000Y-106599925D01*
X96063000Y-106760075D01*
X96031758Y-106917142D01*
X95970470Y-107065102D01*
X95881498Y-107198258D01*
X95768258Y-107311498D01*
X95635102Y-107400470D01*
X95487142Y-107461758D01*
X95330075Y-107493000D01*
X95169925Y-107493000D01*
X95012858Y-107461758D01*
X94864898Y-107400470D01*
X94731742Y-107311498D01*
X94618502Y-107198258D01*
X94529530Y-107065102D01*
X94468242Y-106917142D01*
X94437000Y-106760075D01*
X94437000Y-106599925D01*
X94468242Y-106442858D01*
X94529530Y-106294898D01*
X94618502Y-106161742D01*
X94731742Y-106048502D01*
X94864898Y-105959530D01*
X94874869Y-105955400D01*
X94906342Y-105942363D01*
X95012858Y-105898242D01*
X95169925Y-105867000D01*
X95330075Y-105867000D01*
X95487142Y-105898242D01*
X95487142Y-105898242D01*
G37*
G36*
X109838443Y-104159919D02*
X109904627Y-104166437D01*
X110017853Y-104200784D01*
X110074467Y-104217957D01*
X110213087Y-104292052D01*
X110230991Y-104301622D01*
X110266729Y-104330952D01*
X110368186Y-104414214D01*
X110451448Y-104515671D01*
X110480778Y-104551409D01*
X110480779Y-104551411D01*
X110564443Y-104707933D01*
X110564443Y-104707934D01*
X110615963Y-104877773D01*
X110633359Y-105054400D01*
X110615963Y-105231027D01*
X110581616Y-105344253D01*
X110564443Y-105400867D01*
X110490348Y-105539487D01*
X110480778Y-105557391D01*
X110451448Y-105593129D01*
X110368186Y-105694586D01*
X110266729Y-105777848D01*
X110230991Y-105807178D01*
X110230989Y-105807179D01*
X110074467Y-105890843D01*
X110017853Y-105908016D01*
X109904627Y-105942363D01*
X109838443Y-105948881D01*
X109772260Y-105955400D01*
X109683740Y-105955400D01*
X109617557Y-105948881D01*
X109551373Y-105942363D01*
X109438147Y-105908016D01*
X109381533Y-105890843D01*
X109225011Y-105807179D01*
X109225009Y-105807178D01*
X109189271Y-105777848D01*
X109087814Y-105694586D01*
X109004552Y-105593129D01*
X108975222Y-105557391D01*
X108965652Y-105539487D01*
X108891557Y-105400867D01*
X108874384Y-105344253D01*
X108840037Y-105231027D01*
X108822641Y-105054400D01*
X108840037Y-104877773D01*
X108891557Y-104707934D01*
X108891557Y-104707933D01*
X108975221Y-104551411D01*
X108975222Y-104551409D01*
X109004552Y-104515671D01*
X109087814Y-104414214D01*
X109189271Y-104330952D01*
X109225009Y-104301622D01*
X109242913Y-104292052D01*
X109381533Y-104217957D01*
X109438147Y-104200784D01*
X109551373Y-104166437D01*
X109617557Y-104159919D01*
X109683740Y-104153400D01*
X109772260Y-104153400D01*
X109838443Y-104159919D01*
X109838443Y-104159919D01*
G37*
G36*
X112378443Y-104159919D02*
X112444627Y-104166437D01*
X112557853Y-104200784D01*
X112614467Y-104217957D01*
X112753087Y-104292052D01*
X112770991Y-104301622D01*
X112806729Y-104330952D01*
X112908186Y-104414214D01*
X112991448Y-104515671D01*
X113020778Y-104551409D01*
X113020779Y-104551411D01*
X113104443Y-104707933D01*
X113104443Y-104707934D01*
X113155963Y-104877773D01*
X113173359Y-105054400D01*
X113155963Y-105231027D01*
X113121616Y-105344253D01*
X113104443Y-105400867D01*
X113030348Y-105539487D01*
X113020778Y-105557391D01*
X112991448Y-105593129D01*
X112908186Y-105694586D01*
X112806729Y-105777848D01*
X112770991Y-105807178D01*
X112770989Y-105807179D01*
X112614467Y-105890843D01*
X112557853Y-105908016D01*
X112444627Y-105942363D01*
X112378443Y-105948881D01*
X112312260Y-105955400D01*
X112223740Y-105955400D01*
X112157557Y-105948881D01*
X112091373Y-105942363D01*
X111978147Y-105908016D01*
X111921533Y-105890843D01*
X111765011Y-105807179D01*
X111765009Y-105807178D01*
X111729271Y-105777848D01*
X111627814Y-105694586D01*
X111544552Y-105593129D01*
X111515222Y-105557391D01*
X111505652Y-105539487D01*
X111431557Y-105400867D01*
X111414384Y-105344253D01*
X111380037Y-105231027D01*
X111362641Y-105054400D01*
X111380037Y-104877773D01*
X111431557Y-104707934D01*
X111431557Y-104707933D01*
X111515221Y-104551411D01*
X111515222Y-104551409D01*
X111544552Y-104515671D01*
X111627814Y-104414214D01*
X111729271Y-104330952D01*
X111765009Y-104301622D01*
X111782913Y-104292052D01*
X111921533Y-104217957D01*
X111978147Y-104200784D01*
X112091373Y-104166437D01*
X112157557Y-104159919D01*
X112223740Y-104153400D01*
X112312260Y-104153400D01*
X112378443Y-104159919D01*
X112378443Y-104159919D01*
G37*
G36*
X108089000Y-105955400D02*
X106287000Y-105955400D01*
X106287000Y-104153400D01*
X108089000Y-104153400D01*
X108089000Y-105955400D01*
X108089000Y-105955400D01*
G37*
G36*
X115807142Y-103358242D02*
X115955102Y-103419530D01*
X116088258Y-103508502D01*
X116201498Y-103621742D01*
X116290470Y-103754898D01*
X116351758Y-103902858D01*
X116383000Y-104059925D01*
X116383000Y-104220075D01*
X116351758Y-104377142D01*
X116290470Y-104525102D01*
X116201498Y-104658258D01*
X116088258Y-104771498D01*
X115955102Y-104860470D01*
X115807142Y-104921758D01*
X115650075Y-104953000D01*
X115489925Y-104953000D01*
X115332858Y-104921758D01*
X115184898Y-104860470D01*
X115051742Y-104771498D01*
X114938502Y-104658258D01*
X114849530Y-104525102D01*
X114788242Y-104377142D01*
X114757000Y-104220075D01*
X114757000Y-104059925D01*
X114788242Y-103902858D01*
X114849530Y-103754898D01*
X114938502Y-103621742D01*
X115051742Y-103508502D01*
X115184898Y-103419530D01*
X115332858Y-103358242D01*
X115489925Y-103327000D01*
X115650075Y-103327000D01*
X115807142Y-103358242D01*
X115807142Y-103358242D01*
G37*
G36*
X95487142Y-103358242D02*
X95635102Y-103419530D01*
X95768258Y-103508502D01*
X95881498Y-103621742D01*
X95970470Y-103754898D01*
X96031758Y-103902858D01*
X96063000Y-104059925D01*
X96063000Y-104220075D01*
X96031758Y-104377142D01*
X95970470Y-104525102D01*
X95881498Y-104658258D01*
X95768258Y-104771498D01*
X95635102Y-104860470D01*
X95487142Y-104921758D01*
X95330075Y-104953000D01*
X95169925Y-104953000D01*
X95012858Y-104921758D01*
X94864898Y-104860470D01*
X94731742Y-104771498D01*
X94618502Y-104658258D01*
X94529530Y-104525102D01*
X94468242Y-104377142D01*
X94437000Y-104220075D01*
X94437000Y-104059925D01*
X94468242Y-103902858D01*
X94529530Y-103754898D01*
X94618502Y-103621742D01*
X94731742Y-103508502D01*
X94864898Y-103419530D01*
X95012858Y-103358242D01*
X95169925Y-103327000D01*
X95330075Y-103327000D01*
X95487142Y-103358242D01*
X95487142Y-103358242D01*
G37*
G36*
X98947400Y-104348400D02*
X97785400Y-104348400D01*
X97785400Y-101696400D01*
X98947400Y-101696400D01*
X98947400Y-104348400D01*
X98947400Y-104348400D01*
G37*
G36*
X101147400Y-104348400D02*
X99985400Y-104348400D01*
X99985400Y-101696400D01*
X101147400Y-101696400D01*
X101147400Y-104348400D01*
X101147400Y-104348400D01*
G37*
G36*
X103859191Y-102969885D02*
X103893169Y-102980193D01*
X103924487Y-102996933D01*
X103951939Y-103019461D01*
X103974467Y-103046913D01*
X103991207Y-103078231D01*
X104001515Y-103112209D01*
X104005600Y-103153690D01*
X104005600Y-103754910D01*
X104001515Y-103796391D01*
X103991207Y-103830369D01*
X103974467Y-103861687D01*
X103951939Y-103889139D01*
X103924487Y-103911667D01*
X103893169Y-103928407D01*
X103859191Y-103938715D01*
X103817710Y-103942800D01*
X103141490Y-103942800D01*
X103100009Y-103938715D01*
X103066031Y-103928407D01*
X103034713Y-103911667D01*
X103007261Y-103889139D01*
X102984733Y-103861687D01*
X102967993Y-103830369D01*
X102957685Y-103796391D01*
X102953600Y-103754910D01*
X102953600Y-103153690D01*
X102957685Y-103112209D01*
X102967993Y-103078231D01*
X102984733Y-103046913D01*
X103007261Y-103019461D01*
X103034713Y-102996933D01*
X103066031Y-102980193D01*
X103100009Y-102969885D01*
X103141490Y-102965800D01*
X103817710Y-102965800D01*
X103859191Y-102969885D01*
X103859191Y-102969885D01*
G37*
G36*
X95487142Y-100818242D02*
X95635102Y-100879530D01*
X95768258Y-100968502D01*
X95881498Y-101081742D01*
X95970470Y-101214898D01*
X96031758Y-101362858D01*
X96063000Y-101519925D01*
X96063000Y-101680075D01*
X96031758Y-101837142D01*
X95970470Y-101985102D01*
X95881498Y-102118258D01*
X95768258Y-102231498D01*
X95635102Y-102320470D01*
X95487142Y-102381758D01*
X95330075Y-102413000D01*
X95169925Y-102413000D01*
X95012858Y-102381758D01*
X94864898Y-102320470D01*
X94731742Y-102231498D01*
X94618502Y-102118258D01*
X94529530Y-101985102D01*
X94468242Y-101837142D01*
X94437000Y-101680075D01*
X94437000Y-101519925D01*
X94468242Y-101362858D01*
X94529530Y-101214898D01*
X94618502Y-101081742D01*
X94731742Y-100968502D01*
X94864898Y-100879530D01*
X95012858Y-100818242D01*
X95169925Y-100787000D01*
X95330075Y-100787000D01*
X95487142Y-100818242D01*
X95487142Y-100818242D01*
G37*
G36*
X115807142Y-100818242D02*
X115955102Y-100879530D01*
X116088258Y-100968502D01*
X116201498Y-101081742D01*
X116290470Y-101214898D01*
X116351758Y-101362858D01*
X116383000Y-101519925D01*
X116383000Y-101680075D01*
X116351758Y-101837142D01*
X116290470Y-101985102D01*
X116201498Y-102118258D01*
X116088258Y-102231498D01*
X115955102Y-102320470D01*
X115807142Y-102381758D01*
X115650075Y-102413000D01*
X115489925Y-102413000D01*
X115332858Y-102381758D01*
X115184898Y-102320470D01*
X115051742Y-102231498D01*
X114938502Y-102118258D01*
X114849530Y-101985102D01*
X114788242Y-101837142D01*
X114757000Y-101680075D01*
X114757000Y-101519925D01*
X114788242Y-101362858D01*
X114849530Y-101214898D01*
X114938502Y-101081742D01*
X115051742Y-100968502D01*
X115184898Y-100879530D01*
X115332858Y-100818242D01*
X115489925Y-100787000D01*
X115650075Y-100787000D01*
X115807142Y-100818242D01*
X115807142Y-100818242D01*
G37*
G36*
X103859191Y-101394885D02*
X103893169Y-101405193D01*
X103924487Y-101421933D01*
X103951939Y-101444461D01*
X103974467Y-101471913D01*
X103991207Y-101503231D01*
X104001515Y-101537209D01*
X104005600Y-101578690D01*
X104005600Y-102179910D01*
X104001515Y-102221391D01*
X103991207Y-102255369D01*
X103974467Y-102286687D01*
X103951939Y-102314139D01*
X103924487Y-102336667D01*
X103893169Y-102353407D01*
X103859191Y-102363715D01*
X103817710Y-102367800D01*
X103141490Y-102367800D01*
X103100009Y-102363715D01*
X103066031Y-102353407D01*
X103034713Y-102336667D01*
X103007261Y-102314139D01*
X102984733Y-102286687D01*
X102967993Y-102255369D01*
X102957685Y-102221391D01*
X102953600Y-102179910D01*
X102953600Y-101578690D01*
X102957685Y-101537209D01*
X102967993Y-101503231D01*
X102984733Y-101471913D01*
X103007261Y-101444461D01*
X103034713Y-101421933D01*
X103066031Y-101405193D01*
X103100009Y-101394885D01*
X103141490Y-101390800D01*
X103817710Y-101390800D01*
X103859191Y-101394885D01*
X103859191Y-101394885D01*
G37*
G36*
X105959128Y-99854764D02*
X105980211Y-99861160D01*
X105999642Y-99871546D01*
X106016675Y-99885525D01*
X106030654Y-99902558D01*
X106041040Y-99921989D01*
X106047436Y-99943072D01*
X106050200Y-99971140D01*
X106050200Y-100434860D01*
X106047436Y-100462928D01*
X106041040Y-100484011D01*
X106030654Y-100503442D01*
X106016675Y-100520475D01*
X105999642Y-100534454D01*
X105980211Y-100544840D01*
X105959128Y-100551236D01*
X105931060Y-100554000D01*
X104517340Y-100554000D01*
X104489272Y-100551236D01*
X104468189Y-100544840D01*
X104448758Y-100534454D01*
X104431725Y-100520475D01*
X104417746Y-100503442D01*
X104407360Y-100484011D01*
X104400964Y-100462928D01*
X104398200Y-100434860D01*
X104398200Y-99971140D01*
X104400964Y-99943072D01*
X104407360Y-99921989D01*
X104417746Y-99902558D01*
X104431725Y-99885525D01*
X104448758Y-99871546D01*
X104468189Y-99861160D01*
X104489272Y-99854764D01*
X104517340Y-99852000D01*
X105931060Y-99852000D01*
X105959128Y-99854764D01*
X105959128Y-99854764D01*
G37*
G36*
X111309128Y-99854764D02*
X111330211Y-99861160D01*
X111349642Y-99871546D01*
X111366675Y-99885525D01*
X111380654Y-99902558D01*
X111391040Y-99921989D01*
X111397436Y-99943072D01*
X111400200Y-99971140D01*
X111400200Y-100434860D01*
X111397436Y-100462928D01*
X111391040Y-100484011D01*
X111380654Y-100503442D01*
X111366675Y-100520475D01*
X111349642Y-100534454D01*
X111330211Y-100544840D01*
X111309128Y-100551236D01*
X111281060Y-100554000D01*
X109867340Y-100554000D01*
X109839272Y-100551236D01*
X109818189Y-100544840D01*
X109798758Y-100534454D01*
X109781725Y-100520475D01*
X109767746Y-100503442D01*
X109757360Y-100484011D01*
X109750964Y-100462928D01*
X109748200Y-100434860D01*
X109748200Y-99971140D01*
X109750964Y-99943072D01*
X109757360Y-99921989D01*
X109767746Y-99902558D01*
X109781725Y-99885525D01*
X109798758Y-99871546D01*
X109818189Y-99861160D01*
X109839272Y-99854764D01*
X109867340Y-99852000D01*
X111281060Y-99852000D01*
X111309128Y-99854764D01*
X111309128Y-99854764D01*
G37*
G36*
X115807142Y-98278242D02*
X115955102Y-98339530D01*
X116088258Y-98428502D01*
X116201498Y-98541742D01*
X116290470Y-98674898D01*
X116351758Y-98822858D01*
X116383000Y-98979925D01*
X116383000Y-99140075D01*
X116351758Y-99297142D01*
X116290470Y-99445102D01*
X116201498Y-99578258D01*
X116088258Y-99691498D01*
X115955102Y-99780470D01*
X115807142Y-99841758D01*
X115650075Y-99873000D01*
X115489925Y-99873000D01*
X115332858Y-99841758D01*
X115184898Y-99780470D01*
X115051742Y-99691498D01*
X114938502Y-99578258D01*
X114849530Y-99445102D01*
X114788242Y-99297142D01*
X114757000Y-99140075D01*
X114757000Y-98979925D01*
X114788242Y-98822858D01*
X114849530Y-98674898D01*
X114938502Y-98541742D01*
X115051742Y-98428502D01*
X115184898Y-98339530D01*
X115332858Y-98278242D01*
X115489925Y-98247000D01*
X115650075Y-98247000D01*
X115807142Y-98278242D01*
X115807142Y-98278242D01*
G37*
G36*
X95487142Y-98278242D02*
X95635102Y-98339530D01*
X95768258Y-98428502D01*
X95881498Y-98541742D01*
X95970470Y-98674898D01*
X96031758Y-98822858D01*
X96063000Y-98979925D01*
X96063000Y-99140075D01*
X96031758Y-99297142D01*
X95970470Y-99445102D01*
X95881498Y-99578258D01*
X95768258Y-99691498D01*
X95635102Y-99780470D01*
X95487142Y-99841758D01*
X95330075Y-99873000D01*
X95169925Y-99873000D01*
X95012858Y-99841758D01*
X94864898Y-99780470D01*
X94731742Y-99691498D01*
X94618502Y-99578258D01*
X94529530Y-99445102D01*
X94468242Y-99297142D01*
X94437000Y-99140075D01*
X94437000Y-98979925D01*
X94468242Y-98822858D01*
X94529530Y-98674898D01*
X94618502Y-98541742D01*
X94731742Y-98428502D01*
X94864898Y-98339530D01*
X95012858Y-98278242D01*
X95169925Y-98247000D01*
X95330075Y-98247000D01*
X95487142Y-98278242D01*
X95487142Y-98278242D01*
G37*
G36*
X101917500Y-99745800D02*
X100266500Y-99745800D01*
X100266500Y-98272600D01*
X101917500Y-98272600D01*
X101917500Y-99745800D01*
X101917500Y-99745800D01*
G37*
G36*
X111309128Y-98584764D02*
X111330211Y-98591160D01*
X111349642Y-98601546D01*
X111366675Y-98615525D01*
X111380654Y-98632558D01*
X111391040Y-98651989D01*
X111397436Y-98673072D01*
X111400200Y-98701140D01*
X111400200Y-99164860D01*
X111397436Y-99192928D01*
X111391040Y-99214011D01*
X111380654Y-99233442D01*
X111366675Y-99250475D01*
X111349642Y-99264454D01*
X111330211Y-99274840D01*
X111309128Y-99281236D01*
X111281060Y-99284000D01*
X109867340Y-99284000D01*
X109839272Y-99281236D01*
X109818189Y-99274840D01*
X109798758Y-99264454D01*
X109781725Y-99250475D01*
X109767746Y-99233442D01*
X109757360Y-99214011D01*
X109750964Y-99192928D01*
X109748200Y-99164860D01*
X109748200Y-98701140D01*
X109750964Y-98673072D01*
X109757360Y-98651989D01*
X109767746Y-98632558D01*
X109781725Y-98615525D01*
X109798758Y-98601546D01*
X109818189Y-98591160D01*
X109839272Y-98584764D01*
X109867340Y-98582000D01*
X111281060Y-98582000D01*
X111309128Y-98584764D01*
X111309128Y-98584764D01*
G37*
G36*
X105959128Y-98584764D02*
X105980211Y-98591160D01*
X105999642Y-98601546D01*
X106016675Y-98615525D01*
X106030654Y-98632558D01*
X106041040Y-98651989D01*
X106047436Y-98673072D01*
X106050200Y-98701140D01*
X106050200Y-99164860D01*
X106047436Y-99192928D01*
X106041040Y-99214011D01*
X106030654Y-99233442D01*
X106016675Y-99250475D01*
X105999642Y-99264454D01*
X105980211Y-99274840D01*
X105959128Y-99281236D01*
X105931060Y-99284000D01*
X104517340Y-99284000D01*
X104489272Y-99281236D01*
X104468189Y-99274840D01*
X104448758Y-99264454D01*
X104431725Y-99250475D01*
X104417746Y-99233442D01*
X104407360Y-99214011D01*
X104400964Y-99192928D01*
X104398200Y-99164860D01*
X104398200Y-98701140D01*
X104400964Y-98673072D01*
X104407360Y-98651989D01*
X104417746Y-98632558D01*
X104431725Y-98615525D01*
X104448758Y-98601546D01*
X104468189Y-98591160D01*
X104489272Y-98584764D01*
X104517340Y-98582000D01*
X105931060Y-98582000D01*
X105959128Y-98584764D01*
X105959128Y-98584764D01*
G37*
G36*
X105959128Y-97314764D02*
X105980211Y-97321160D01*
X105999642Y-97331546D01*
X106016675Y-97345525D01*
X106030654Y-97362558D01*
X106041040Y-97381989D01*
X106047436Y-97403072D01*
X106050200Y-97431140D01*
X106050200Y-97894860D01*
X106047436Y-97922928D01*
X106041040Y-97944011D01*
X106030654Y-97963442D01*
X106016675Y-97980475D01*
X105999642Y-97994454D01*
X105980211Y-98004840D01*
X105959128Y-98011236D01*
X105931060Y-98014000D01*
X104517340Y-98014000D01*
X104489272Y-98011236D01*
X104468189Y-98004840D01*
X104448758Y-97994454D01*
X104431725Y-97980475D01*
X104417746Y-97963442D01*
X104407360Y-97944011D01*
X104400964Y-97922928D01*
X104398200Y-97894860D01*
X104398200Y-97431140D01*
X104400964Y-97403072D01*
X104407360Y-97381989D01*
X104417746Y-97362558D01*
X104431725Y-97345525D01*
X104448758Y-97331546D01*
X104468189Y-97321160D01*
X104489272Y-97314764D01*
X104517340Y-97312000D01*
X105931060Y-97312000D01*
X105959128Y-97314764D01*
X105959128Y-97314764D01*
G37*
G36*
X111309128Y-97314764D02*
X111330211Y-97321160D01*
X111349642Y-97331546D01*
X111366675Y-97345525D01*
X111380654Y-97362558D01*
X111391040Y-97381989D01*
X111397436Y-97403072D01*
X111400200Y-97431140D01*
X111400200Y-97894860D01*
X111397436Y-97922928D01*
X111391040Y-97944011D01*
X111380654Y-97963442D01*
X111366675Y-97980475D01*
X111349642Y-97994454D01*
X111330211Y-98004840D01*
X111309128Y-98011236D01*
X111281060Y-98014000D01*
X109867340Y-98014000D01*
X109839272Y-98011236D01*
X109818189Y-98004840D01*
X109798758Y-97994454D01*
X109781725Y-97980475D01*
X109767746Y-97963442D01*
X109757360Y-97944011D01*
X109750964Y-97922928D01*
X109748200Y-97894860D01*
X109748200Y-97431140D01*
X109750964Y-97403072D01*
X109757360Y-97381989D01*
X109767746Y-97362558D01*
X109781725Y-97345525D01*
X109798758Y-97331546D01*
X109818189Y-97321160D01*
X109839272Y-97314764D01*
X109867340Y-97312000D01*
X111281060Y-97312000D01*
X111309128Y-97314764D01*
X111309128Y-97314764D01*
G37*
G36*
X95487142Y-95738242D02*
X95635102Y-95799530D01*
X95768258Y-95888502D01*
X95881498Y-96001742D01*
X95970470Y-96134898D01*
X96031758Y-96282858D01*
X96063000Y-96439925D01*
X96063000Y-96600075D01*
X96031758Y-96757142D01*
X95970470Y-96905102D01*
X95881498Y-97038258D01*
X95768258Y-97151498D01*
X95635102Y-97240470D01*
X95487142Y-97301758D01*
X95330075Y-97333000D01*
X95169925Y-97333000D01*
X95012858Y-97301758D01*
X94864898Y-97240470D01*
X94731742Y-97151498D01*
X94618502Y-97038258D01*
X94529530Y-96905102D01*
X94468242Y-96757142D01*
X94437000Y-96600075D01*
X94437000Y-96439925D01*
X94468242Y-96282858D01*
X94529530Y-96134898D01*
X94618502Y-96001742D01*
X94731742Y-95888502D01*
X94864898Y-95799530D01*
X95012858Y-95738242D01*
X95169925Y-95707000D01*
X95330075Y-95707000D01*
X95487142Y-95738242D01*
X95487142Y-95738242D01*
G37*
G36*
X115807142Y-95738242D02*
X115955102Y-95799530D01*
X116088258Y-95888502D01*
X116201498Y-96001742D01*
X116290470Y-96134898D01*
X116351758Y-96282858D01*
X116383000Y-96439925D01*
X116383000Y-96600075D01*
X116351758Y-96757142D01*
X116290470Y-96905102D01*
X116201498Y-97038258D01*
X116088258Y-97151498D01*
X115955102Y-97240470D01*
X115807142Y-97301758D01*
X115650075Y-97333000D01*
X115489925Y-97333000D01*
X115332858Y-97301758D01*
X115184898Y-97240470D01*
X115051742Y-97151498D01*
X114938502Y-97038258D01*
X114849530Y-96905102D01*
X114788242Y-96757142D01*
X114757000Y-96600075D01*
X114757000Y-96439925D01*
X114788242Y-96282858D01*
X114849530Y-96134898D01*
X114938502Y-96001742D01*
X115051742Y-95888502D01*
X115184898Y-95799530D01*
X115332858Y-95738242D01*
X115489925Y-95707000D01*
X115650075Y-95707000D01*
X115807142Y-95738242D01*
X115807142Y-95738242D01*
G37*
G36*
X111309128Y-96044764D02*
X111330211Y-96051160D01*
X111349642Y-96061546D01*
X111366675Y-96075525D01*
X111380654Y-96092558D01*
X111391040Y-96111989D01*
X111397436Y-96133072D01*
X111400200Y-96161140D01*
X111400200Y-96624860D01*
X111397436Y-96652928D01*
X111391040Y-96674011D01*
X111380654Y-96693442D01*
X111366675Y-96710475D01*
X111349642Y-96724454D01*
X111330211Y-96734840D01*
X111309128Y-96741236D01*
X111281060Y-96744000D01*
X109867340Y-96744000D01*
X109839272Y-96741236D01*
X109818189Y-96734840D01*
X109798758Y-96724454D01*
X109781725Y-96710475D01*
X109767746Y-96693442D01*
X109757360Y-96674011D01*
X109750964Y-96652928D01*
X109748200Y-96624860D01*
X109748200Y-96161140D01*
X109750964Y-96133072D01*
X109757360Y-96111989D01*
X109767746Y-96092558D01*
X109781725Y-96075525D01*
X109798758Y-96061546D01*
X109818189Y-96051160D01*
X109839272Y-96044764D01*
X109867340Y-96042000D01*
X111281060Y-96042000D01*
X111309128Y-96044764D01*
X111309128Y-96044764D01*
G37*
G36*
X105959128Y-96044764D02*
X105980211Y-96051160D01*
X105999642Y-96061546D01*
X106016675Y-96075525D01*
X106030654Y-96092558D01*
X106041040Y-96111989D01*
X106047436Y-96133072D01*
X106050200Y-96161140D01*
X106050200Y-96624860D01*
X106047436Y-96652928D01*
X106041040Y-96674011D01*
X106030654Y-96693442D01*
X106016675Y-96710475D01*
X105999642Y-96724454D01*
X105980211Y-96734840D01*
X105959128Y-96741236D01*
X105931060Y-96744000D01*
X104517340Y-96744000D01*
X104489272Y-96741236D01*
X104468189Y-96734840D01*
X104448758Y-96724454D01*
X104431725Y-96710475D01*
X104417746Y-96693442D01*
X104407360Y-96674011D01*
X104400964Y-96652928D01*
X104398200Y-96624860D01*
X104398200Y-96161140D01*
X104400964Y-96133072D01*
X104407360Y-96111989D01*
X104417746Y-96092558D01*
X104431725Y-96075525D01*
X104448758Y-96061546D01*
X104468189Y-96051160D01*
X104489272Y-96044764D01*
X104517340Y-96042000D01*
X105931060Y-96042000D01*
X105959128Y-96044764D01*
X105959128Y-96044764D01*
G37*
G36*
X115807142Y-93198242D02*
X115955102Y-93259530D01*
X116088258Y-93348502D01*
X116201498Y-93461742D01*
X116290470Y-93594898D01*
X116351758Y-93742858D01*
X116383000Y-93899925D01*
X116383000Y-94060075D01*
X116351758Y-94217142D01*
X116290470Y-94365102D01*
X116201498Y-94498258D01*
X116088258Y-94611498D01*
X115955102Y-94700470D01*
X115807142Y-94761758D01*
X115650075Y-94793000D01*
X115489925Y-94793000D01*
X115332858Y-94761758D01*
X115184898Y-94700470D01*
X115051742Y-94611498D01*
X114938502Y-94498258D01*
X114849530Y-94365102D01*
X114788242Y-94217142D01*
X114757000Y-94060075D01*
X114757000Y-93899925D01*
X114788242Y-93742858D01*
X114849530Y-93594898D01*
X114938502Y-93461742D01*
X115051742Y-93348502D01*
X115184898Y-93259530D01*
X115332858Y-93198242D01*
X115489925Y-93167000D01*
X115650075Y-93167000D01*
X115807142Y-93198242D01*
X115807142Y-93198242D01*
G37*
G36*
X95487142Y-93198242D02*
X95635102Y-93259530D01*
X95768258Y-93348502D01*
X95881498Y-93461742D01*
X95970470Y-93594898D01*
X96031758Y-93742858D01*
X96063000Y-93899925D01*
X96063000Y-94060075D01*
X96031758Y-94217142D01*
X95970470Y-94365102D01*
X95881498Y-94498258D01*
X95768258Y-94611498D01*
X95635102Y-94700470D01*
X95487142Y-94761758D01*
X95330075Y-94793000D01*
X95169925Y-94793000D01*
X95012858Y-94761758D01*
X94864898Y-94700470D01*
X94731742Y-94611498D01*
X94618502Y-94498258D01*
X94529530Y-94365102D01*
X94468242Y-94217142D01*
X94437000Y-94060075D01*
X94437000Y-93899925D01*
X94468242Y-93742858D01*
X94529530Y-93594898D01*
X94618502Y-93461742D01*
X94731742Y-93348502D01*
X94864898Y-93259530D01*
X95012858Y-93198242D01*
X95169925Y-93167000D01*
X95330075Y-93167000D01*
X95487142Y-93198242D01*
X95487142Y-93198242D01*
G37*
G36*
X111995443Y-92450519D02*
X112061627Y-92457037D01*
X112174853Y-92491384D01*
X112231467Y-92508557D01*
X112370087Y-92582652D01*
X112387991Y-92592222D01*
X112423729Y-92621552D01*
X112525186Y-92704814D01*
X112608448Y-92806271D01*
X112637778Y-92842009D01*
X112637779Y-92842011D01*
X112721443Y-92998533D01*
X112721443Y-92998534D01*
X112772963Y-93168373D01*
X112790359Y-93345000D01*
X112772963Y-93521627D01*
X112750736Y-93594900D01*
X112721443Y-93691467D01*
X112647348Y-93830087D01*
X112637778Y-93847991D01*
X112608448Y-93883729D01*
X112525186Y-93985186D01*
X112433933Y-94060074D01*
X112387991Y-94097778D01*
X112387989Y-94097779D01*
X112231467Y-94181443D01*
X112174853Y-94198616D01*
X112061627Y-94232963D01*
X111995443Y-94239481D01*
X111929260Y-94246000D01*
X111590740Y-94246000D01*
X111524557Y-94239481D01*
X111458373Y-94232963D01*
X111345147Y-94198616D01*
X111288533Y-94181443D01*
X111132011Y-94097779D01*
X111132009Y-94097778D01*
X111086067Y-94060074D01*
X110994814Y-93985186D01*
X110911552Y-93883729D01*
X110882222Y-93847991D01*
X110872652Y-93830087D01*
X110798557Y-93691467D01*
X110769264Y-93594900D01*
X110747037Y-93521627D01*
X110729641Y-93345000D01*
X110747037Y-93168373D01*
X110798557Y-92998534D01*
X110798557Y-92998533D01*
X110882221Y-92842011D01*
X110882222Y-92842009D01*
X110911552Y-92806271D01*
X110994814Y-92704814D01*
X111096271Y-92621552D01*
X111132009Y-92592222D01*
X111149913Y-92582652D01*
X111288533Y-92508557D01*
X111345147Y-92491384D01*
X111458373Y-92457037D01*
X111524557Y-92450519D01*
X111590740Y-92444000D01*
X111929260Y-92444000D01*
X111995443Y-92450519D01*
X111995443Y-92450519D01*
G37*
G36*
X105522200Y-90664000D02*
X105524602Y-90688386D01*
X105531715Y-90711835D01*
X105543266Y-90733446D01*
X105558812Y-90752388D01*
X105577754Y-90767934D01*
X105599365Y-90779485D01*
X105622814Y-90786598D01*
X105647200Y-90789000D01*
X106595200Y-90789000D01*
X106619586Y-90786598D01*
X106643035Y-90779485D01*
X106664646Y-90767934D01*
X106683588Y-90752388D01*
X106699134Y-90733446D01*
X106710685Y-90711835D01*
X106717798Y-90688386D01*
X106720200Y-90664000D01*
X106720200Y-90489000D01*
X107522200Y-90489000D01*
X107522200Y-92391000D01*
X106720200Y-92391000D01*
X106720200Y-92216000D01*
X106717798Y-92191614D01*
X106710685Y-92168165D01*
X106699134Y-92146554D01*
X106683588Y-92127612D01*
X106664646Y-92112066D01*
X106643035Y-92100515D01*
X106619586Y-92093402D01*
X106595200Y-92091000D01*
X105647200Y-92091000D01*
X105622814Y-92093402D01*
X105599365Y-92100515D01*
X105577754Y-92112066D01*
X105558812Y-92127612D01*
X105543266Y-92146554D01*
X105531715Y-92168165D01*
X105524602Y-92191614D01*
X105522200Y-92216000D01*
X105522200Y-92391000D01*
X104720200Y-92391000D01*
X104720200Y-90489000D01*
X105522200Y-90489000D01*
X105522200Y-90664000D01*
X105522200Y-90664000D01*
G37*
G36*
X115807142Y-90658242D02*
X115955102Y-90719530D01*
X116004277Y-90752388D01*
X116055477Y-90786598D01*
X116088258Y-90808502D01*
X116201498Y-90921742D01*
X116290470Y-91054898D01*
X116351758Y-91202858D01*
X116383000Y-91359925D01*
X116383000Y-91520075D01*
X116351758Y-91677142D01*
X116304354Y-91791583D01*
X116290471Y-91825100D01*
X116201499Y-91958257D01*
X116088257Y-92071499D01*
X116044831Y-92100515D01*
X115955102Y-92160470D01*
X115807142Y-92221758D01*
X115650075Y-92253000D01*
X115489925Y-92253000D01*
X115332858Y-92221758D01*
X115184898Y-92160470D01*
X115095169Y-92100515D01*
X115051743Y-92071499D01*
X114938501Y-91958257D01*
X114849529Y-91825100D01*
X114835646Y-91791583D01*
X114788242Y-91677142D01*
X114757000Y-91520075D01*
X114757000Y-91359925D01*
X114788242Y-91202858D01*
X114849530Y-91054898D01*
X114938502Y-90921742D01*
X115051742Y-90808502D01*
X115084524Y-90786598D01*
X115135723Y-90752388D01*
X115184898Y-90719530D01*
X115332858Y-90658242D01*
X115489925Y-90627000D01*
X115650075Y-90627000D01*
X115807142Y-90658242D01*
X115807142Y-90658242D01*
G37*
G36*
X95487142Y-90658242D02*
X95635102Y-90719530D01*
X95684277Y-90752388D01*
X95735477Y-90786598D01*
X95768258Y-90808502D01*
X95881498Y-90921742D01*
X95970470Y-91054898D01*
X96031758Y-91202858D01*
X96063000Y-91359925D01*
X96063000Y-91520075D01*
X96031758Y-91677142D01*
X95984354Y-91791583D01*
X95970471Y-91825100D01*
X95881499Y-91958257D01*
X95768257Y-92071499D01*
X95724831Y-92100515D01*
X95635102Y-92160470D01*
X95487142Y-92221758D01*
X95330075Y-92253000D01*
X95169925Y-92253000D01*
X95012858Y-92221758D01*
X94864898Y-92160470D01*
X94775169Y-92100515D01*
X94731743Y-92071499D01*
X94618501Y-91958257D01*
X94529529Y-91825100D01*
X94515646Y-91791583D01*
X94468242Y-91677142D01*
X94437000Y-91520075D01*
X94437000Y-91359925D01*
X94468242Y-91202858D01*
X94529530Y-91054898D01*
X94618502Y-90921742D01*
X94731742Y-90808502D01*
X94764524Y-90786598D01*
X94815723Y-90752388D01*
X94864898Y-90719530D01*
X95012858Y-90658242D01*
X95169925Y-90627000D01*
X95330075Y-90627000D01*
X95487142Y-90658242D01*
X95487142Y-90658242D01*
G37*
G36*
X111995443Y-89950519D02*
X112061627Y-89957037D01*
X112174853Y-89991384D01*
X112231467Y-90008557D01*
X112370087Y-90082652D01*
X112387991Y-90092222D01*
X112423729Y-90121552D01*
X112525186Y-90204814D01*
X112608448Y-90306271D01*
X112637778Y-90342009D01*
X112637779Y-90342011D01*
X112721443Y-90498533D01*
X112721443Y-90498534D01*
X112772963Y-90668373D01*
X112790359Y-90845000D01*
X112772963Y-91021627D01*
X112738616Y-91134853D01*
X112721443Y-91191467D01*
X112715354Y-91202858D01*
X112637778Y-91347991D01*
X112627984Y-91359925D01*
X112525186Y-91485186D01*
X112423729Y-91568448D01*
X112387991Y-91597778D01*
X112387989Y-91597779D01*
X112231467Y-91681443D01*
X112174853Y-91698616D01*
X112061627Y-91732963D01*
X111995443Y-91739481D01*
X111929260Y-91746000D01*
X111590740Y-91746000D01*
X111524557Y-91739481D01*
X111458373Y-91732963D01*
X111345147Y-91698616D01*
X111288533Y-91681443D01*
X111132011Y-91597779D01*
X111132009Y-91597778D01*
X111096271Y-91568448D01*
X110994814Y-91485186D01*
X110892016Y-91359925D01*
X110882222Y-91347991D01*
X110804646Y-91202858D01*
X110798557Y-91191467D01*
X110781384Y-91134853D01*
X110747037Y-91021627D01*
X110729641Y-90845000D01*
X110747037Y-90668373D01*
X110798557Y-90498534D01*
X110798557Y-90498533D01*
X110882221Y-90342011D01*
X110882222Y-90342009D01*
X110911552Y-90306271D01*
X110994814Y-90204814D01*
X111096271Y-90121552D01*
X111132009Y-90092222D01*
X111149913Y-90082652D01*
X111288533Y-90008557D01*
X111345147Y-89991384D01*
X111458373Y-89957037D01*
X111524557Y-89950519D01*
X111590740Y-89944000D01*
X111929260Y-89944000D01*
X111995443Y-89950519D01*
X111995443Y-89950519D01*
G37*
G36*
X95487142Y-88118242D02*
X95635102Y-88179530D01*
X95689827Y-88216096D01*
X95768257Y-88268501D01*
X95881499Y-88381743D01*
X95904737Y-88416522D01*
X95947286Y-88480200D01*
X95970471Y-88514900D01*
X95973257Y-88521627D01*
X96031758Y-88662858D01*
X96063000Y-88819925D01*
X96063000Y-88980075D01*
X96031758Y-89137142D01*
X95970470Y-89285102D01*
X95881498Y-89418258D01*
X95768258Y-89531498D01*
X95635102Y-89620470D01*
X95635101Y-89620471D01*
X95635100Y-89620471D01*
X95601583Y-89634354D01*
X95487142Y-89681758D01*
X95330075Y-89713000D01*
X95169925Y-89713000D01*
X95012858Y-89681758D01*
X94898417Y-89634354D01*
X94864900Y-89620471D01*
X94864899Y-89620471D01*
X94864898Y-89620470D01*
X94731742Y-89531498D01*
X94618502Y-89418258D01*
X94529530Y-89285102D01*
X94468242Y-89137142D01*
X94437000Y-88980075D01*
X94437000Y-88819925D01*
X94468242Y-88662858D01*
X94526743Y-88521627D01*
X94529529Y-88514900D01*
X94552715Y-88480200D01*
X94595263Y-88416522D01*
X94618501Y-88381743D01*
X94731743Y-88268501D01*
X94810173Y-88216096D01*
X94864898Y-88179530D01*
X95012858Y-88118242D01*
X95169925Y-88087000D01*
X95330075Y-88087000D01*
X95487142Y-88118242D01*
X95487142Y-88118242D01*
G37*
G36*
X115807142Y-88118242D02*
X115955102Y-88179530D01*
X116009827Y-88216096D01*
X116088257Y-88268501D01*
X116201499Y-88381743D01*
X116224737Y-88416522D01*
X116267286Y-88480200D01*
X116290471Y-88514900D01*
X116293257Y-88521627D01*
X116351758Y-88662858D01*
X116383000Y-88819925D01*
X116383000Y-88980075D01*
X116351758Y-89137142D01*
X116290470Y-89285102D01*
X116201498Y-89418258D01*
X116088258Y-89531498D01*
X115955102Y-89620470D01*
X115955101Y-89620471D01*
X115955100Y-89620471D01*
X115921583Y-89634354D01*
X115807142Y-89681758D01*
X115650075Y-89713000D01*
X115489925Y-89713000D01*
X115332858Y-89681758D01*
X115218417Y-89634354D01*
X115184900Y-89620471D01*
X115184899Y-89620471D01*
X115184898Y-89620470D01*
X115051742Y-89531498D01*
X114938502Y-89418258D01*
X114849530Y-89285102D01*
X114788242Y-89137142D01*
X114757000Y-88980075D01*
X114757000Y-88819925D01*
X114788242Y-88662858D01*
X114846743Y-88521627D01*
X114849529Y-88514900D01*
X114872715Y-88480200D01*
X114915263Y-88416522D01*
X114938501Y-88381743D01*
X115051743Y-88268501D01*
X115130173Y-88216096D01*
X115184898Y-88179530D01*
X115332858Y-88118242D01*
X115489925Y-88087000D01*
X115650075Y-88087000D01*
X115807142Y-88118242D01*
X115807142Y-88118242D01*
G37*
G36*
X103371266Y-88204365D02*
X103409937Y-88216096D01*
X103445579Y-88235148D01*
X103476817Y-88260783D01*
X103502452Y-88292021D01*
X103521504Y-88327663D01*
X103533235Y-88366334D01*
X103537800Y-88412688D01*
X103537800Y-89488912D01*
X103533235Y-89535266D01*
X103521504Y-89573937D01*
X103502452Y-89609579D01*
X103476817Y-89640817D01*
X103445579Y-89666452D01*
X103409937Y-89685504D01*
X103371266Y-89697235D01*
X103324912Y-89701800D01*
X102673688Y-89701800D01*
X102627334Y-89697235D01*
X102588663Y-89685504D01*
X102553021Y-89666452D01*
X102521783Y-89640817D01*
X102496148Y-89609579D01*
X102477096Y-89573937D01*
X102465365Y-89535266D01*
X102460800Y-89488912D01*
X102460800Y-88412688D01*
X102465365Y-88366334D01*
X102477096Y-88327663D01*
X102496148Y-88292021D01*
X102521783Y-88260783D01*
X102553021Y-88235148D01*
X102588663Y-88216096D01*
X102627334Y-88204365D01*
X102673688Y-88199800D01*
X103324912Y-88199800D01*
X103371266Y-88204365D01*
X103371266Y-88204365D01*
G37*
G36*
X105246266Y-88204365D02*
X105284937Y-88216096D01*
X105320579Y-88235148D01*
X105351817Y-88260783D01*
X105377452Y-88292021D01*
X105396504Y-88327663D01*
X105408235Y-88366334D01*
X105412800Y-88412688D01*
X105412800Y-89488912D01*
X105408235Y-89535266D01*
X105396504Y-89573937D01*
X105377452Y-89609579D01*
X105351817Y-89640817D01*
X105320579Y-89666452D01*
X105284937Y-89685504D01*
X105246266Y-89697235D01*
X105199912Y-89701800D01*
X104548688Y-89701800D01*
X104502334Y-89697235D01*
X104463663Y-89685504D01*
X104428021Y-89666452D01*
X104396783Y-89640817D01*
X104371148Y-89609579D01*
X104352096Y-89573937D01*
X104340365Y-89535266D01*
X104335800Y-89488912D01*
X104335800Y-88412688D01*
X104340365Y-88366334D01*
X104352096Y-88327663D01*
X104371148Y-88292021D01*
X104396783Y-88260783D01*
X104428021Y-88235148D01*
X104463663Y-88216096D01*
X104502334Y-88204365D01*
X104548688Y-88199800D01*
X105199912Y-88199800D01*
X105246266Y-88204365D01*
X105246266Y-88204365D01*
G37*
G36*
X111995443Y-87450519D02*
X112061627Y-87457037D01*
X112174853Y-87491384D01*
X112231467Y-87508557D01*
X112370087Y-87582652D01*
X112387991Y-87592222D01*
X112423729Y-87621552D01*
X112525186Y-87704814D01*
X112608448Y-87806271D01*
X112637778Y-87842009D01*
X112637779Y-87842011D01*
X112721443Y-87998533D01*
X112721443Y-87998534D01*
X112772963Y-88168373D01*
X112790359Y-88345000D01*
X112772963Y-88521627D01*
X112738616Y-88634853D01*
X112721443Y-88691467D01*
X112652780Y-88819925D01*
X112637778Y-88847991D01*
X112608448Y-88883729D01*
X112525186Y-88985186D01*
X112423729Y-89068448D01*
X112387991Y-89097778D01*
X112387989Y-89097779D01*
X112231467Y-89181443D01*
X112174853Y-89198616D01*
X112061627Y-89232963D01*
X111995442Y-89239482D01*
X111929260Y-89246000D01*
X111590740Y-89246000D01*
X111524558Y-89239482D01*
X111458373Y-89232963D01*
X111345147Y-89198616D01*
X111288533Y-89181443D01*
X111132011Y-89097779D01*
X111132009Y-89097778D01*
X111096271Y-89068448D01*
X110994814Y-88985186D01*
X110911552Y-88883729D01*
X110882222Y-88847991D01*
X110867220Y-88819925D01*
X110798557Y-88691467D01*
X110781384Y-88634853D01*
X110747037Y-88521627D01*
X110729641Y-88345000D01*
X110747037Y-88168373D01*
X110798557Y-87998534D01*
X110798557Y-87998533D01*
X110882221Y-87842011D01*
X110882222Y-87842009D01*
X110911552Y-87806271D01*
X110994814Y-87704814D01*
X111096271Y-87621552D01*
X111132009Y-87592222D01*
X111149913Y-87582652D01*
X111288533Y-87508557D01*
X111345147Y-87491384D01*
X111458373Y-87457037D01*
X111524557Y-87450519D01*
X111590740Y-87444000D01*
X111929260Y-87444000D01*
X111995443Y-87450519D01*
X111995443Y-87450519D01*
G37*
G36*
X99808600Y-88480200D02*
X98006600Y-88480200D01*
X98006600Y-86678200D01*
X99808600Y-86678200D01*
X99808600Y-88480200D01*
X99808600Y-88480200D01*
G37*
G36*
X95487142Y-85578242D02*
X95635102Y-85639530D01*
X95768258Y-85728502D01*
X95881498Y-85841742D01*
X95970470Y-85974898D01*
X96031758Y-86122858D01*
X96063000Y-86279925D01*
X96063000Y-86440075D01*
X96031758Y-86597142D01*
X95984354Y-86711583D01*
X95971751Y-86742011D01*
X95970470Y-86745102D01*
X95881498Y-86878258D01*
X95768258Y-86991498D01*
X95635102Y-87080470D01*
X95487142Y-87141758D01*
X95330075Y-87173000D01*
X95169925Y-87173000D01*
X95012858Y-87141758D01*
X94864898Y-87080470D01*
X94731742Y-86991498D01*
X94618502Y-86878258D01*
X94529530Y-86745102D01*
X94528250Y-86742011D01*
X94515646Y-86711583D01*
X94468242Y-86597142D01*
X94437000Y-86440075D01*
X94437000Y-86279925D01*
X94468242Y-86122858D01*
X94529530Y-85974898D01*
X94618502Y-85841742D01*
X94731742Y-85728502D01*
X94864898Y-85639530D01*
X95012858Y-85578242D01*
X95169925Y-85547000D01*
X95330075Y-85547000D01*
X95487142Y-85578242D01*
X95487142Y-85578242D01*
G37*
G36*
X115807142Y-85578242D02*
X115955102Y-85639530D01*
X116088258Y-85728502D01*
X116201498Y-85841742D01*
X116290470Y-85974898D01*
X116351758Y-86122858D01*
X116383000Y-86279925D01*
X116383000Y-86440075D01*
X116351758Y-86597142D01*
X116304354Y-86711583D01*
X116291751Y-86742011D01*
X116290470Y-86745102D01*
X116201498Y-86878258D01*
X116088258Y-86991498D01*
X115955102Y-87080470D01*
X115807142Y-87141758D01*
X115650075Y-87173000D01*
X115489925Y-87173000D01*
X115332858Y-87141758D01*
X115184898Y-87080470D01*
X115051742Y-86991498D01*
X114938502Y-86878258D01*
X114849530Y-86745102D01*
X114848250Y-86742011D01*
X114835646Y-86711583D01*
X114788242Y-86597142D01*
X114757000Y-86440075D01*
X114757000Y-86279925D01*
X114788242Y-86122858D01*
X114849530Y-85974898D01*
X114938502Y-85841742D01*
X115051742Y-85728502D01*
X115184898Y-85639530D01*
X115332858Y-85578242D01*
X115489925Y-85547000D01*
X115650075Y-85547000D01*
X115807142Y-85578242D01*
X115807142Y-85578242D01*
G37*
G36*
X112643600Y-84947989D02*
X112676649Y-84958014D01*
X112707106Y-84974294D01*
X112733799Y-84996201D01*
X112755706Y-85022894D01*
X112771986Y-85053351D01*
X112782011Y-85086400D01*
X112786000Y-85126904D01*
X112786000Y-86563096D01*
X112782011Y-86603600D01*
X112771986Y-86636649D01*
X112755706Y-86667106D01*
X112733799Y-86693799D01*
X112707106Y-86715706D01*
X112676649Y-86731986D01*
X112643600Y-86742011D01*
X112603096Y-86746000D01*
X110916904Y-86746000D01*
X110876400Y-86742011D01*
X110843351Y-86731986D01*
X110812894Y-86715706D01*
X110786201Y-86693799D01*
X110764294Y-86667106D01*
X110748014Y-86636649D01*
X110737989Y-86603600D01*
X110734000Y-86563096D01*
X110734000Y-85126904D01*
X110737989Y-85086400D01*
X110748014Y-85053351D01*
X110764294Y-85022894D01*
X110786201Y-84996201D01*
X110812894Y-84974294D01*
X110843351Y-84958014D01*
X110876400Y-84947989D01*
X110916904Y-84944000D01*
X112603096Y-84944000D01*
X112643600Y-84947989D01*
X112643600Y-84947989D01*
G37*
G36*
X99018042Y-84144718D02*
X99084227Y-84151237D01*
X99197453Y-84185584D01*
X99254067Y-84202757D01*
X99392687Y-84276852D01*
X99410591Y-84286422D01*
X99446329Y-84315752D01*
X99547786Y-84399014D01*
X99611458Y-84476600D01*
X99660378Y-84536209D01*
X99660379Y-84536211D01*
X99744043Y-84692733D01*
X99744043Y-84692734D01*
X99795563Y-84862573D01*
X99812959Y-85039200D01*
X99795563Y-85215827D01*
X99761216Y-85329053D01*
X99744043Y-85385667D01*
X99669948Y-85524287D01*
X99660378Y-85542191D01*
X99656431Y-85547000D01*
X99547786Y-85679386D01*
X99446329Y-85762648D01*
X99410591Y-85791978D01*
X99410589Y-85791979D01*
X99254067Y-85875643D01*
X99197453Y-85892816D01*
X99084227Y-85927163D01*
X99018043Y-85933681D01*
X98951860Y-85940200D01*
X98863340Y-85940200D01*
X98797157Y-85933681D01*
X98730973Y-85927163D01*
X98617747Y-85892816D01*
X98561133Y-85875643D01*
X98404611Y-85791979D01*
X98404609Y-85791978D01*
X98368871Y-85762648D01*
X98267414Y-85679386D01*
X98158769Y-85547000D01*
X98154822Y-85542191D01*
X98145252Y-85524287D01*
X98071157Y-85385667D01*
X98053984Y-85329053D01*
X98019637Y-85215827D01*
X98002241Y-85039200D01*
X98019637Y-84862573D01*
X98071157Y-84692734D01*
X98071157Y-84692733D01*
X98154821Y-84536211D01*
X98154822Y-84536209D01*
X98203742Y-84476600D01*
X98267414Y-84399014D01*
X98368871Y-84315752D01*
X98404609Y-84286422D01*
X98422513Y-84276852D01*
X98561133Y-84202757D01*
X98617747Y-84185584D01*
X98730973Y-84151237D01*
X98797158Y-84144718D01*
X98863340Y-84138200D01*
X98951860Y-84138200D01*
X99018042Y-84144718D01*
X99018042Y-84144718D01*
G37*
G36*
X105494855Y-84479740D02*
X105558618Y-84486020D01*
X105640427Y-84510837D01*
X105681333Y-84523245D01*
X105705590Y-84536211D01*
X105794426Y-84583695D01*
X105893553Y-84665047D01*
X105974905Y-84764174D01*
X105974906Y-84764176D01*
X106035355Y-84877267D01*
X106035355Y-84877268D01*
X106072580Y-84999982D01*
X106085149Y-85127600D01*
X106072580Y-85255218D01*
X106047763Y-85337027D01*
X106035355Y-85377933D01*
X106031221Y-85385667D01*
X105974905Y-85491026D01*
X105893553Y-85590153D01*
X105794426Y-85671505D01*
X105794424Y-85671506D01*
X105681333Y-85731955D01*
X105640427Y-85744363D01*
X105558618Y-85769180D01*
X105494855Y-85775460D01*
X105462974Y-85778600D01*
X104849026Y-85778600D01*
X104817145Y-85775460D01*
X104753382Y-85769180D01*
X104671573Y-85744363D01*
X104630667Y-85731955D01*
X104517576Y-85671506D01*
X104517574Y-85671505D01*
X104418447Y-85590153D01*
X104337095Y-85491026D01*
X104280779Y-85385667D01*
X104276645Y-85377933D01*
X104264237Y-85337027D01*
X104239420Y-85255218D01*
X104226851Y-85127600D01*
X104239420Y-84999982D01*
X104276645Y-84877268D01*
X104276645Y-84877267D01*
X104337094Y-84764176D01*
X104337095Y-84764174D01*
X104418447Y-84665047D01*
X104517574Y-84583695D01*
X104606410Y-84536211D01*
X104630667Y-84523245D01*
X104671573Y-84510837D01*
X104753382Y-84486020D01*
X104817145Y-84479740D01*
X104849026Y-84476600D01*
X105462974Y-84476600D01*
X105494855Y-84479740D01*
X105494855Y-84479740D01*
G37*
G36*
X115807142Y-83038242D02*
X115955102Y-83099530D01*
X116088258Y-83188502D01*
X116201498Y-83301742D01*
X116290470Y-83434898D01*
X116351758Y-83582858D01*
X116383000Y-83739925D01*
X116383000Y-83900075D01*
X116351758Y-84057142D01*
X116318182Y-84138200D01*
X116291442Y-84202757D01*
X116290470Y-84205102D01*
X116201498Y-84338258D01*
X116088258Y-84451498D01*
X115955102Y-84540470D01*
X115807142Y-84601758D01*
X115650075Y-84633000D01*
X115489925Y-84633000D01*
X115332858Y-84601758D01*
X115184898Y-84540470D01*
X115051742Y-84451498D01*
X114938502Y-84338258D01*
X114849530Y-84205102D01*
X114848559Y-84202757D01*
X114821818Y-84138200D01*
X114788242Y-84057142D01*
X114757000Y-83900075D01*
X114757000Y-83739925D01*
X114788242Y-83582858D01*
X114849530Y-83434898D01*
X114938502Y-83301742D01*
X115051742Y-83188502D01*
X115184898Y-83099530D01*
X115332858Y-83038242D01*
X115489925Y-83007000D01*
X115650075Y-83007000D01*
X115807142Y-83038242D01*
X115807142Y-83038242D01*
G37*
G36*
X95487142Y-83038242D02*
X95635102Y-83099530D01*
X95768258Y-83188502D01*
X95881498Y-83301742D01*
X95970470Y-83434898D01*
X96031758Y-83582858D01*
X96063000Y-83739925D01*
X96063000Y-83900075D01*
X96031758Y-84057142D01*
X95998182Y-84138200D01*
X95971442Y-84202757D01*
X95970470Y-84205102D01*
X95881498Y-84338258D01*
X95768258Y-84451498D01*
X95635102Y-84540470D01*
X95487142Y-84601758D01*
X95330075Y-84633000D01*
X95169925Y-84633000D01*
X95012858Y-84601758D01*
X94864898Y-84540470D01*
X94731742Y-84451498D01*
X94618502Y-84338258D01*
X94529530Y-84205102D01*
X94528559Y-84202757D01*
X94501818Y-84138200D01*
X94468242Y-84057142D01*
X94437000Y-83900075D01*
X94437000Y-83739925D01*
X94468242Y-83582858D01*
X94529530Y-83434898D01*
X94618502Y-83301742D01*
X94731742Y-83188502D01*
X94864898Y-83099530D01*
X95012858Y-83038242D01*
X95169925Y-83007000D01*
X95330075Y-83007000D01*
X95487142Y-83038242D01*
X95487142Y-83038242D01*
G37*
G36*
X105494855Y-82479740D02*
X105558618Y-82486020D01*
X105640427Y-82510837D01*
X105681333Y-82523245D01*
X105781491Y-82576781D01*
X105794426Y-82583695D01*
X105893553Y-82665047D01*
X105974905Y-82764174D01*
X105974906Y-82764176D01*
X106035355Y-82877267D01*
X106035355Y-82877268D01*
X106072580Y-82999982D01*
X106085149Y-83127600D01*
X106072580Y-83255218D01*
X106048183Y-83335643D01*
X106035355Y-83377933D01*
X106030421Y-83387163D01*
X105974905Y-83491026D01*
X105893553Y-83590153D01*
X105794426Y-83671505D01*
X105794424Y-83671506D01*
X105681333Y-83731955D01*
X105640427Y-83744363D01*
X105558618Y-83769180D01*
X105494855Y-83775460D01*
X105462974Y-83778600D01*
X104849026Y-83778600D01*
X104817145Y-83775460D01*
X104753382Y-83769180D01*
X104671573Y-83744363D01*
X104630667Y-83731955D01*
X104517576Y-83671506D01*
X104517574Y-83671505D01*
X104418447Y-83590153D01*
X104337095Y-83491026D01*
X104281579Y-83387163D01*
X104276645Y-83377933D01*
X104263817Y-83335643D01*
X104239420Y-83255218D01*
X104226851Y-83127600D01*
X104239420Y-82999982D01*
X104276645Y-82877268D01*
X104276645Y-82877267D01*
X104337094Y-82764176D01*
X104337095Y-82764174D01*
X104418447Y-82665047D01*
X104517574Y-82583695D01*
X104530509Y-82576781D01*
X104630667Y-82523245D01*
X104671573Y-82510837D01*
X104753382Y-82486020D01*
X104817145Y-82479740D01*
X104849026Y-82476600D01*
X105462974Y-82476600D01*
X105494855Y-82479740D01*
X105494855Y-82479740D01*
G37*
G36*
X99018043Y-81604719D02*
X99084227Y-81611237D01*
X99197453Y-81645584D01*
X99254067Y-81662757D01*
X99322158Y-81699153D01*
X99410591Y-81746422D01*
X99443449Y-81773388D01*
X99547786Y-81859014D01*
X99631048Y-81960471D01*
X99660378Y-81996209D01*
X99660379Y-81996211D01*
X99744043Y-82152733D01*
X99744043Y-82152734D01*
X99795563Y-82322573D01*
X99812959Y-82499200D01*
X99795563Y-82675827D01*
X99768763Y-82764174D01*
X99744043Y-82845667D01*
X99669948Y-82984287D01*
X99660378Y-83002191D01*
X99656431Y-83007000D01*
X99547786Y-83139386D01*
X99446329Y-83222648D01*
X99410591Y-83251978D01*
X99410589Y-83251979D01*
X99254067Y-83335643D01*
X99197453Y-83352816D01*
X99084227Y-83387163D01*
X99018043Y-83393681D01*
X98951860Y-83400200D01*
X98863340Y-83400200D01*
X98797157Y-83393681D01*
X98730973Y-83387163D01*
X98617747Y-83352816D01*
X98561133Y-83335643D01*
X98404611Y-83251979D01*
X98404609Y-83251978D01*
X98368871Y-83222648D01*
X98267414Y-83139386D01*
X98158769Y-83007000D01*
X98154822Y-83002191D01*
X98145252Y-82984287D01*
X98071157Y-82845667D01*
X98046437Y-82764174D01*
X98019637Y-82675827D01*
X98002241Y-82499200D01*
X98019637Y-82322573D01*
X98071157Y-82152734D01*
X98071157Y-82152733D01*
X98154821Y-81996211D01*
X98154822Y-81996209D01*
X98184152Y-81960471D01*
X98267414Y-81859014D01*
X98371751Y-81773388D01*
X98404609Y-81746422D01*
X98493042Y-81699153D01*
X98561133Y-81662757D01*
X98617747Y-81645584D01*
X98730973Y-81611237D01*
X98797157Y-81604719D01*
X98863340Y-81598200D01*
X98951860Y-81598200D01*
X99018043Y-81604719D01*
X99018043Y-81604719D01*
G37*
G36*
X95487142Y-80498242D02*
X95576167Y-80535118D01*
X95626694Y-80556047D01*
X95635102Y-80559530D01*
X95643408Y-80565080D01*
X95750084Y-80636358D01*
X95768258Y-80648502D01*
X95881498Y-80761742D01*
X95970470Y-80894898D01*
X96031758Y-81042858D01*
X96063000Y-81199925D01*
X96063000Y-81360075D01*
X96031758Y-81517142D01*
X95998182Y-81598200D01*
X95971442Y-81662757D01*
X95970470Y-81665102D01*
X95881498Y-81798258D01*
X95768258Y-81911498D01*
X95635102Y-82000470D01*
X95487142Y-82061758D01*
X95330075Y-82093000D01*
X95169925Y-82093000D01*
X95012858Y-82061758D01*
X94864898Y-82000470D01*
X94731742Y-81911498D01*
X94618502Y-81798258D01*
X94529530Y-81665102D01*
X94528559Y-81662757D01*
X94501818Y-81598200D01*
X94468242Y-81517142D01*
X94437000Y-81360075D01*
X94437000Y-81199925D01*
X94468242Y-81042858D01*
X94529530Y-80894898D01*
X94618502Y-80761742D01*
X94731742Y-80648502D01*
X94749917Y-80636358D01*
X94856592Y-80565080D01*
X94864898Y-80559530D01*
X94873307Y-80556047D01*
X94923833Y-80535118D01*
X95012858Y-80498242D01*
X95169925Y-80467000D01*
X95330075Y-80467000D01*
X95487142Y-80498242D01*
X95487142Y-80498242D01*
G37*
G36*
X115807142Y-80498242D02*
X115896167Y-80535118D01*
X115946694Y-80556047D01*
X115955102Y-80559530D01*
X115963408Y-80565080D01*
X116070084Y-80636358D01*
X116088258Y-80648502D01*
X116201498Y-80761742D01*
X116290470Y-80894898D01*
X116351758Y-81042858D01*
X116383000Y-81199925D01*
X116383000Y-81360075D01*
X116351758Y-81517142D01*
X116318182Y-81598200D01*
X116291442Y-81662757D01*
X116290470Y-81665102D01*
X116201498Y-81798258D01*
X116088258Y-81911498D01*
X115955102Y-82000470D01*
X115807142Y-82061758D01*
X115650075Y-82093000D01*
X115489925Y-82093000D01*
X115332858Y-82061758D01*
X115184898Y-82000470D01*
X115051742Y-81911498D01*
X114938502Y-81798258D01*
X114849530Y-81665102D01*
X114848559Y-81662757D01*
X114821818Y-81598200D01*
X114788242Y-81517142D01*
X114757000Y-81360075D01*
X114757000Y-81199925D01*
X114788242Y-81042858D01*
X114849530Y-80894898D01*
X114938502Y-80761742D01*
X115051742Y-80648502D01*
X115069917Y-80636358D01*
X115176592Y-80565080D01*
X115184898Y-80559530D01*
X115193307Y-80556047D01*
X115243833Y-80535118D01*
X115332858Y-80498242D01*
X115489925Y-80467000D01*
X115650075Y-80467000D01*
X115807142Y-80498242D01*
X115807142Y-80498242D01*
G37*
G36*
X105922242Y-80481004D02*
X105959339Y-80492257D01*
X105993520Y-80510527D01*
X106023482Y-80535118D01*
X106048073Y-80565080D01*
X106066343Y-80599261D01*
X106077596Y-80636358D01*
X106082000Y-80681073D01*
X106082000Y-81574127D01*
X106077596Y-81618842D01*
X106066343Y-81655939D01*
X106048073Y-81690120D01*
X106023482Y-81720082D01*
X105993520Y-81744673D01*
X105959339Y-81762943D01*
X105922242Y-81774196D01*
X105877527Y-81778600D01*
X104434473Y-81778600D01*
X104389758Y-81774196D01*
X104352661Y-81762943D01*
X104318480Y-81744673D01*
X104288518Y-81720082D01*
X104263927Y-81690120D01*
X104245657Y-81655939D01*
X104234404Y-81618842D01*
X104230000Y-81574127D01*
X104230000Y-80681073D01*
X104234404Y-80636358D01*
X104245657Y-80599261D01*
X104263927Y-80565080D01*
X104288518Y-80535118D01*
X104318480Y-80510527D01*
X104352661Y-80492257D01*
X104389758Y-80481004D01*
X104434473Y-80476600D01*
X105877527Y-80476600D01*
X105922242Y-80481004D01*
X105922242Y-80481004D01*
G37*
G36*
X112020443Y-78440519D02*
X112086627Y-78447037D01*
X112199853Y-78481384D01*
X112256467Y-78498557D01*
X112264513Y-78502858D01*
X112412991Y-78582222D01*
X112448729Y-78611552D01*
X112550186Y-78694814D01*
X112617076Y-78776321D01*
X112662778Y-78832009D01*
X112662779Y-78832011D01*
X112746443Y-78988533D01*
X112746443Y-78988534D01*
X112797963Y-79158373D01*
X112815359Y-79335000D01*
X112797963Y-79511627D01*
X112772804Y-79594566D01*
X112746443Y-79681467D01*
X112672348Y-79820087D01*
X112662778Y-79837991D01*
X112633448Y-79873729D01*
X112550186Y-79975186D01*
X112448729Y-80058448D01*
X112412991Y-80087778D01*
X112412989Y-80087779D01*
X112256467Y-80171443D01*
X112199853Y-80188616D01*
X112086627Y-80222963D01*
X112020442Y-80229482D01*
X111954260Y-80236000D01*
X111565740Y-80236000D01*
X111499558Y-80229482D01*
X111433373Y-80222963D01*
X111320147Y-80188616D01*
X111263533Y-80171443D01*
X111107011Y-80087779D01*
X111107009Y-80087778D01*
X111071271Y-80058448D01*
X110969814Y-79975186D01*
X110886552Y-79873729D01*
X110857222Y-79837991D01*
X110847652Y-79820087D01*
X110773557Y-79681467D01*
X110747196Y-79594566D01*
X110722037Y-79511627D01*
X110704641Y-79335000D01*
X110722037Y-79158373D01*
X110773557Y-78988534D01*
X110773557Y-78988533D01*
X110857221Y-78832011D01*
X110857222Y-78832009D01*
X110902924Y-78776321D01*
X110969814Y-78694814D01*
X111071271Y-78611552D01*
X111107009Y-78582222D01*
X111255487Y-78502858D01*
X111263533Y-78498557D01*
X111320147Y-78481384D01*
X111433373Y-78447037D01*
X111499557Y-78440519D01*
X111565740Y-78434000D01*
X111954260Y-78434000D01*
X112020443Y-78440519D01*
X112020443Y-78440519D01*
G37*
G36*
X108597966Y-78688665D02*
X108636637Y-78700396D01*
X108672279Y-78719448D01*
X108703517Y-78745083D01*
X108729152Y-78776321D01*
X108748204Y-78811963D01*
X108759935Y-78850634D01*
X108764500Y-78896988D01*
X108764500Y-79548212D01*
X108759935Y-79594566D01*
X108748204Y-79633237D01*
X108729152Y-79668879D01*
X108703517Y-79700117D01*
X108672279Y-79725752D01*
X108636637Y-79744804D01*
X108597966Y-79756535D01*
X108551612Y-79761100D01*
X107475388Y-79761100D01*
X107429034Y-79756535D01*
X107390363Y-79744804D01*
X107354721Y-79725752D01*
X107323483Y-79700117D01*
X107297848Y-79668879D01*
X107278796Y-79633237D01*
X107267065Y-79594566D01*
X107262500Y-79548212D01*
X107262500Y-78896988D01*
X107267065Y-78850634D01*
X107278796Y-78811963D01*
X107297848Y-78776321D01*
X107323483Y-78745083D01*
X107354721Y-78719448D01*
X107390363Y-78700396D01*
X107429034Y-78688665D01*
X107475388Y-78684100D01*
X108551612Y-78684100D01*
X108597966Y-78688665D01*
X108597966Y-78688665D01*
G37*
G36*
X95487142Y-77958242D02*
X95635102Y-78019530D01*
X95768258Y-78108502D01*
X95881498Y-78221742D01*
X95970470Y-78354898D01*
X96031758Y-78502858D01*
X96063000Y-78659925D01*
X96063000Y-78820075D01*
X96031758Y-78977142D01*
X95970470Y-79125102D01*
X95881498Y-79258258D01*
X95768258Y-79371498D01*
X95635102Y-79460470D01*
X95487142Y-79521758D01*
X95330075Y-79553000D01*
X95169925Y-79553000D01*
X95012858Y-79521758D01*
X94864898Y-79460470D01*
X94731742Y-79371498D01*
X94618502Y-79258258D01*
X94529530Y-79125102D01*
X94468242Y-78977142D01*
X94437000Y-78820075D01*
X94437000Y-78659925D01*
X94468242Y-78502858D01*
X94529530Y-78354898D01*
X94618502Y-78221742D01*
X94731742Y-78108502D01*
X94864898Y-78019530D01*
X95012858Y-77958242D01*
X95169925Y-77927000D01*
X95330075Y-77927000D01*
X95487142Y-77958242D01*
X95487142Y-77958242D01*
G37*
G36*
X115807142Y-77958242D02*
X115955102Y-78019530D01*
X116088258Y-78108502D01*
X116201498Y-78221742D01*
X116290470Y-78354898D01*
X116351758Y-78502858D01*
X116383000Y-78659925D01*
X116383000Y-78820075D01*
X116351758Y-78977142D01*
X116290470Y-79125102D01*
X116201498Y-79258258D01*
X116088258Y-79371498D01*
X115955102Y-79460470D01*
X115807142Y-79521758D01*
X115650075Y-79553000D01*
X115489925Y-79553000D01*
X115332858Y-79521758D01*
X115184898Y-79460470D01*
X115051742Y-79371498D01*
X114938502Y-79258258D01*
X114849530Y-79125102D01*
X114788242Y-78977142D01*
X114757000Y-78820075D01*
X114757000Y-78659925D01*
X114788242Y-78502858D01*
X114849530Y-78354898D01*
X114938502Y-78221742D01*
X115051742Y-78108502D01*
X115184898Y-78019530D01*
X115332858Y-77958242D01*
X115489925Y-77927000D01*
X115650075Y-77927000D01*
X115807142Y-77958242D01*
X115807142Y-77958242D01*
G37*
G36*
X108597966Y-76813665D02*
X108636637Y-76825396D01*
X108672279Y-76844448D01*
X108703517Y-76870083D01*
X108729152Y-76901321D01*
X108748204Y-76936963D01*
X108759935Y-76975634D01*
X108764500Y-77021988D01*
X108764500Y-77673212D01*
X108759935Y-77719566D01*
X108748204Y-77758237D01*
X108729152Y-77793879D01*
X108703517Y-77825117D01*
X108672279Y-77850752D01*
X108636637Y-77869804D01*
X108597966Y-77881535D01*
X108551612Y-77886100D01*
X107475388Y-77886100D01*
X107429034Y-77881535D01*
X107390363Y-77869804D01*
X107354721Y-77850752D01*
X107323483Y-77825117D01*
X107297848Y-77793879D01*
X107278796Y-77758237D01*
X107267065Y-77719566D01*
X107262500Y-77673212D01*
X107262500Y-77021988D01*
X107267065Y-76975634D01*
X107278796Y-76936963D01*
X107297848Y-76901321D01*
X107323483Y-76870083D01*
X107354721Y-76844448D01*
X107390363Y-76825396D01*
X107429034Y-76813665D01*
X107475388Y-76809100D01*
X108551612Y-76809100D01*
X108597966Y-76813665D01*
X108597966Y-76813665D01*
G37*
G36*
X98662443Y-76067519D02*
X98728627Y-76074037D01*
X98841853Y-76108384D01*
X98898467Y-76125557D01*
X99013606Y-76187101D01*
X99054991Y-76209222D01*
X99083867Y-76232920D01*
X99192186Y-76321814D01*
X99275448Y-76423271D01*
X99304778Y-76459009D01*
X99304779Y-76459011D01*
X99388443Y-76615533D01*
X99388443Y-76615534D01*
X99439963Y-76785373D01*
X99457359Y-76962000D01*
X99439963Y-77138627D01*
X99405616Y-77251853D01*
X99388443Y-77308467D01*
X99322651Y-77431554D01*
X99304778Y-77464991D01*
X99275448Y-77500729D01*
X99192186Y-77602186D01*
X99110311Y-77669378D01*
X99054991Y-77714778D01*
X99046033Y-77719566D01*
X98898467Y-77798443D01*
X98841853Y-77815616D01*
X98728627Y-77849963D01*
X98662443Y-77856481D01*
X98596260Y-77863000D01*
X98507740Y-77863000D01*
X98441557Y-77856481D01*
X98375373Y-77849963D01*
X98262147Y-77815616D01*
X98205533Y-77798443D01*
X98057967Y-77719566D01*
X98049009Y-77714778D01*
X97993689Y-77669378D01*
X97911814Y-77602186D01*
X97828552Y-77500729D01*
X97799222Y-77464991D01*
X97781349Y-77431554D01*
X97715557Y-77308467D01*
X97698384Y-77251853D01*
X97664037Y-77138627D01*
X97646641Y-76962000D01*
X97664037Y-76785373D01*
X97715557Y-76615534D01*
X97715557Y-76615533D01*
X97799221Y-76459011D01*
X97799222Y-76459009D01*
X97828552Y-76423271D01*
X97911814Y-76321814D01*
X98020133Y-76232920D01*
X98049009Y-76209222D01*
X98090394Y-76187101D01*
X98205533Y-76125557D01*
X98262147Y-76108384D01*
X98375373Y-76074037D01*
X98441557Y-76067519D01*
X98507740Y-76061000D01*
X98596260Y-76061000D01*
X98662443Y-76067519D01*
X98662443Y-76067519D01*
G37*
G36*
X112668600Y-75937989D02*
X112701649Y-75948014D01*
X112732106Y-75964294D01*
X112758799Y-75986201D01*
X112780706Y-76012894D01*
X112796986Y-76043351D01*
X112807011Y-76076400D01*
X112811000Y-76116904D01*
X112811000Y-77553096D01*
X112807011Y-77593600D01*
X112796986Y-77626649D01*
X112780706Y-77657106D01*
X112758799Y-77683799D01*
X112732106Y-77705706D01*
X112701649Y-77721986D01*
X112668600Y-77732011D01*
X112628096Y-77736000D01*
X110891904Y-77736000D01*
X110851400Y-77732011D01*
X110818351Y-77721986D01*
X110787894Y-77705706D01*
X110761201Y-77683799D01*
X110739294Y-77657106D01*
X110723014Y-77626649D01*
X110712989Y-77593600D01*
X110709000Y-77553096D01*
X110709000Y-76116904D01*
X110712989Y-76076400D01*
X110723014Y-76043351D01*
X110739294Y-76012894D01*
X110761201Y-75986201D01*
X110787894Y-75964294D01*
X110818351Y-75948014D01*
X110851400Y-75937989D01*
X110891904Y-75934000D01*
X112628096Y-75934000D01*
X112668600Y-75937989D01*
X112668600Y-75937989D01*
G37*
G36*
X104632066Y-74968446D02*
X104647612Y-74987388D01*
X104666554Y-75002934D01*
X104688165Y-75014485D01*
X104711614Y-75021598D01*
X104736000Y-75024000D01*
X105391000Y-75024000D01*
X105391000Y-77376000D01*
X104736000Y-77376000D01*
X104711614Y-77378402D01*
X104688165Y-77385515D01*
X104666554Y-77397066D01*
X104647612Y-77412612D01*
X104632066Y-77431554D01*
X104621672Y-77451000D01*
X103658328Y-77451000D01*
X103647934Y-77431554D01*
X103632388Y-77412612D01*
X103613446Y-77397066D01*
X103591835Y-77385515D01*
X103568386Y-77378402D01*
X103544000Y-77376000D01*
X102889000Y-77376000D01*
X102889000Y-75024000D01*
X103544000Y-75024000D01*
X103568386Y-75021598D01*
X103591835Y-75014485D01*
X103613446Y-75002934D01*
X103632388Y-74987388D01*
X103647934Y-74968446D01*
X103658328Y-74949000D01*
X104621672Y-74949000D01*
X104632066Y-74968446D01*
X104632066Y-74968446D01*
G37*
G36*
X115807142Y-75418242D02*
X115908825Y-75460361D01*
X115951986Y-75478239D01*
X115955102Y-75479530D01*
X115967498Y-75487813D01*
X116071763Y-75557480D01*
X116088258Y-75568502D01*
X116201498Y-75681742D01*
X116290470Y-75814898D01*
X116351758Y-75962858D01*
X116383000Y-76119925D01*
X116383000Y-76280075D01*
X116351758Y-76437142D01*
X116290470Y-76585102D01*
X116270136Y-76615534D01*
X116201499Y-76718257D01*
X116088257Y-76831499D01*
X116022130Y-76875683D01*
X115955102Y-76920470D01*
X115807142Y-76981758D01*
X115650075Y-77013000D01*
X115489925Y-77013000D01*
X115332858Y-76981758D01*
X115184898Y-76920470D01*
X115117870Y-76875683D01*
X115051743Y-76831499D01*
X114938501Y-76718257D01*
X114869864Y-76615534D01*
X114849530Y-76585102D01*
X114788242Y-76437142D01*
X114757000Y-76280075D01*
X114757000Y-76119925D01*
X114788242Y-75962858D01*
X114849530Y-75814898D01*
X114938502Y-75681742D01*
X115051742Y-75568502D01*
X115068238Y-75557480D01*
X115172502Y-75487813D01*
X115184898Y-75479530D01*
X115188015Y-75478239D01*
X115231175Y-75460361D01*
X115332858Y-75418242D01*
X115489925Y-75387000D01*
X115650075Y-75387000D01*
X115807142Y-75418242D01*
X115807142Y-75418242D01*
G37*
G36*
X95487142Y-75418242D02*
X95588825Y-75460361D01*
X95631986Y-75478239D01*
X95635102Y-75479530D01*
X95647498Y-75487813D01*
X95751763Y-75557480D01*
X95768258Y-75568502D01*
X95881498Y-75681742D01*
X95970470Y-75814898D01*
X96031758Y-75962858D01*
X96063000Y-76119925D01*
X96063000Y-76280075D01*
X96031758Y-76437142D01*
X95970470Y-76585102D01*
X95950136Y-76615534D01*
X95881499Y-76718257D01*
X95768257Y-76831499D01*
X95702130Y-76875683D01*
X95635102Y-76920470D01*
X95487142Y-76981758D01*
X95330075Y-77013000D01*
X95169925Y-77013000D01*
X95012858Y-76981758D01*
X94864898Y-76920470D01*
X94797870Y-76875683D01*
X94731743Y-76831499D01*
X94618501Y-76718257D01*
X94549864Y-76615534D01*
X94529530Y-76585102D01*
X94468242Y-76437142D01*
X94437000Y-76280075D01*
X94437000Y-76119925D01*
X94468242Y-75962858D01*
X94529530Y-75814898D01*
X94618502Y-75681742D01*
X94731742Y-75568502D01*
X94748238Y-75557480D01*
X94852502Y-75487813D01*
X94864898Y-75479530D01*
X94868015Y-75478239D01*
X94911175Y-75460361D01*
X95012858Y-75418242D01*
X95169925Y-75387000D01*
X95330075Y-75387000D01*
X95487142Y-75418242D01*
X95487142Y-75418242D01*
G37*
G36*
X101727000Y-76466700D02*
X100253800Y-76466700D01*
X100253800Y-74815700D01*
X101727000Y-74815700D01*
X101727000Y-76466700D01*
X101727000Y-76466700D01*
G37*
G36*
X107364391Y-75410785D02*
X107398369Y-75421093D01*
X107429687Y-75437833D01*
X107457139Y-75460361D01*
X107479667Y-75487813D01*
X107496407Y-75519131D01*
X107506715Y-75553109D01*
X107510800Y-75594590D01*
X107510800Y-76195810D01*
X107506715Y-76237291D01*
X107496407Y-76271269D01*
X107479667Y-76302587D01*
X107457139Y-76330039D01*
X107429687Y-76352567D01*
X107398369Y-76369307D01*
X107364391Y-76379615D01*
X107322910Y-76383700D01*
X106646690Y-76383700D01*
X106605209Y-76379615D01*
X106571231Y-76369307D01*
X106539913Y-76352567D01*
X106512461Y-76330039D01*
X106489933Y-76302587D01*
X106473193Y-76271269D01*
X106462885Y-76237291D01*
X106458800Y-76195810D01*
X106458800Y-75594590D01*
X106462885Y-75553109D01*
X106473193Y-75519131D01*
X106489933Y-75487813D01*
X106512461Y-75460361D01*
X106539913Y-75437833D01*
X106571231Y-75421093D01*
X106605209Y-75410785D01*
X106646690Y-75406700D01*
X107322910Y-75406700D01*
X107364391Y-75410785D01*
X107364391Y-75410785D01*
G37*
G36*
X99453000Y-75323000D02*
X97651000Y-75323000D01*
X97651000Y-73521000D01*
X99453000Y-73521000D01*
X99453000Y-75323000D01*
X99453000Y-75323000D01*
G37*
G36*
X107364391Y-73835785D02*
X107398369Y-73846093D01*
X107429687Y-73862833D01*
X107457139Y-73885361D01*
X107479667Y-73912813D01*
X107496407Y-73944131D01*
X107506715Y-73978109D01*
X107510800Y-74019590D01*
X107510800Y-74620810D01*
X107506715Y-74662291D01*
X107496407Y-74696269D01*
X107479667Y-74727587D01*
X107457139Y-74755039D01*
X107429687Y-74777567D01*
X107398369Y-74794307D01*
X107364391Y-74804615D01*
X107322910Y-74808700D01*
X106646690Y-74808700D01*
X106605209Y-74804615D01*
X106571231Y-74794307D01*
X106539913Y-74777567D01*
X106512461Y-74755039D01*
X106489933Y-74727587D01*
X106473193Y-74696269D01*
X106462885Y-74662291D01*
X106458800Y-74620810D01*
X106458800Y-74019590D01*
X106462885Y-73978109D01*
X106473193Y-73944131D01*
X106489933Y-73912813D01*
X106512461Y-73885361D01*
X106539913Y-73862833D01*
X106571231Y-73846093D01*
X106605209Y-73835785D01*
X106646690Y-73831700D01*
X107322910Y-73831700D01*
X107364391Y-73835785D01*
X107364391Y-73835785D01*
G37*
G36*
X115807142Y-72878242D02*
X115921583Y-72925646D01*
X115944869Y-72935291D01*
X115955102Y-72939530D01*
X116005415Y-72973148D01*
X116088257Y-73028501D01*
X116201499Y-73141743D01*
X116215734Y-73163048D01*
X116290470Y-73274898D01*
X116351758Y-73422858D01*
X116383000Y-73579925D01*
X116383000Y-73740075D01*
X116351758Y-73897142D01*
X116290470Y-74045102D01*
X116201498Y-74178258D01*
X116088258Y-74291498D01*
X115955102Y-74380470D01*
X115807142Y-74441758D01*
X115650075Y-74473000D01*
X115489925Y-74473000D01*
X115332858Y-74441758D01*
X115184898Y-74380470D01*
X115051742Y-74291498D01*
X114938502Y-74178258D01*
X114849530Y-74045102D01*
X114788242Y-73897142D01*
X114757000Y-73740075D01*
X114757000Y-73579925D01*
X114788242Y-73422858D01*
X114849530Y-73274898D01*
X114924266Y-73163048D01*
X114938501Y-73141743D01*
X115051743Y-73028501D01*
X115134585Y-72973148D01*
X115184898Y-72939530D01*
X115195132Y-72935291D01*
X115218417Y-72925646D01*
X115332858Y-72878242D01*
X115489925Y-72847000D01*
X115650075Y-72847000D01*
X115807142Y-72878242D01*
X115807142Y-72878242D01*
G37*
G36*
X95487142Y-72878242D02*
X95601583Y-72925646D01*
X95624869Y-72935291D01*
X95635102Y-72939530D01*
X95685415Y-72973148D01*
X95768257Y-73028501D01*
X95881499Y-73141743D01*
X95895734Y-73163048D01*
X95970470Y-73274898D01*
X96031758Y-73422858D01*
X96063000Y-73579925D01*
X96063000Y-73740075D01*
X96031758Y-73897142D01*
X95970470Y-74045102D01*
X95881498Y-74178258D01*
X95768258Y-74291498D01*
X95635102Y-74380470D01*
X95487142Y-74441758D01*
X95330075Y-74473000D01*
X95169925Y-74473000D01*
X95012858Y-74441758D01*
X94864898Y-74380470D01*
X94731742Y-74291498D01*
X94618502Y-74178258D01*
X94529530Y-74045102D01*
X94468242Y-73897142D01*
X94437000Y-73740075D01*
X94437000Y-73579925D01*
X94468242Y-73422858D01*
X94529530Y-73274898D01*
X94604266Y-73163048D01*
X94618501Y-73141743D01*
X94731743Y-73028501D01*
X94814585Y-72973148D01*
X94864898Y-72939530D01*
X94875132Y-72935291D01*
X94898417Y-72925646D01*
X95012858Y-72878242D01*
X95169925Y-72847000D01*
X95330075Y-72847000D01*
X95487142Y-72878242D01*
X95487142Y-72878242D01*
G37*
G36*
X104253591Y-72223685D02*
X104287569Y-72233993D01*
X104318887Y-72250733D01*
X104346339Y-72273261D01*
X104368867Y-72300713D01*
X104385607Y-72332031D01*
X104395915Y-72366009D01*
X104400000Y-72407490D01*
X104400000Y-73083710D01*
X104395915Y-73125191D01*
X104385607Y-73159169D01*
X104368867Y-73190487D01*
X104346339Y-73217939D01*
X104318887Y-73240467D01*
X104287569Y-73257207D01*
X104253591Y-73267515D01*
X104212110Y-73271600D01*
X103610890Y-73271600D01*
X103569409Y-73267515D01*
X103535431Y-73257207D01*
X103504113Y-73240467D01*
X103476661Y-73217939D01*
X103454133Y-73190487D01*
X103437393Y-73159169D01*
X103427085Y-73125191D01*
X103423000Y-73083710D01*
X103423000Y-72407490D01*
X103427085Y-72366009D01*
X103437393Y-72332031D01*
X103454133Y-72300713D01*
X103476661Y-72273261D01*
X103504113Y-72250733D01*
X103535431Y-72233993D01*
X103569409Y-72223685D01*
X103610890Y-72219600D01*
X104212110Y-72219600D01*
X104253591Y-72223685D01*
X104253591Y-72223685D01*
G37*
G36*
X102678591Y-72223685D02*
X102712569Y-72233993D01*
X102743887Y-72250733D01*
X102771339Y-72273261D01*
X102793867Y-72300713D01*
X102810607Y-72332031D01*
X102820915Y-72366009D01*
X102825000Y-72407490D01*
X102825000Y-73083710D01*
X102820915Y-73125191D01*
X102810607Y-73159169D01*
X102793867Y-73190487D01*
X102771339Y-73217939D01*
X102743887Y-73240467D01*
X102712569Y-73257207D01*
X102678591Y-73267515D01*
X102637110Y-73271600D01*
X102035890Y-73271600D01*
X101994409Y-73267515D01*
X101960431Y-73257207D01*
X101929113Y-73240467D01*
X101901661Y-73217939D01*
X101879133Y-73190487D01*
X101862393Y-73159169D01*
X101852085Y-73125191D01*
X101848000Y-73083710D01*
X101848000Y-72407490D01*
X101852085Y-72366009D01*
X101862393Y-72332031D01*
X101879133Y-72300713D01*
X101901661Y-72273261D01*
X101929113Y-72250733D01*
X101960431Y-72233993D01*
X101994409Y-72223685D01*
X102035890Y-72219600D01*
X102637110Y-72219600D01*
X102678591Y-72223685D01*
X102678591Y-72223685D01*
G37*
G36*
X107415191Y-72108785D02*
X107449169Y-72119093D01*
X107480487Y-72135833D01*
X107507939Y-72158361D01*
X107530467Y-72185813D01*
X107547207Y-72217131D01*
X107557515Y-72251109D01*
X107561600Y-72292590D01*
X107561600Y-72893810D01*
X107557515Y-72935291D01*
X107547207Y-72969269D01*
X107530467Y-73000587D01*
X107507939Y-73028039D01*
X107480487Y-73050567D01*
X107449169Y-73067307D01*
X107415191Y-73077615D01*
X107373710Y-73081700D01*
X106697490Y-73081700D01*
X106656009Y-73077615D01*
X106622031Y-73067307D01*
X106590713Y-73050567D01*
X106563261Y-73028039D01*
X106540733Y-73000587D01*
X106523993Y-72969269D01*
X106513685Y-72935291D01*
X106509600Y-72893810D01*
X106509600Y-72292590D01*
X106513685Y-72251109D01*
X106523993Y-72217131D01*
X106540733Y-72185813D01*
X106563261Y-72158361D01*
X106590713Y-72135833D01*
X106622031Y-72119093D01*
X106656009Y-72108785D01*
X106697490Y-72104700D01*
X107373710Y-72104700D01*
X107415191Y-72108785D01*
X107415191Y-72108785D01*
G37*
G36*
X101320600Y-72199500D02*
X99847400Y-72199500D01*
X99847400Y-70548500D01*
X101320600Y-70548500D01*
X101320600Y-72199500D01*
X101320600Y-72199500D01*
G37*
G36*
X107415191Y-70533785D02*
X107449169Y-70544093D01*
X107480487Y-70560833D01*
X107507939Y-70583361D01*
X107530467Y-70610813D01*
X107547207Y-70642131D01*
X107557515Y-70676109D01*
X107561600Y-70717590D01*
X107561600Y-71318810D01*
X107557515Y-71360291D01*
X107547207Y-71394269D01*
X107530467Y-71425587D01*
X107507939Y-71453039D01*
X107480487Y-71475567D01*
X107449169Y-71492307D01*
X107415191Y-71502615D01*
X107373710Y-71506700D01*
X106697490Y-71506700D01*
X106656009Y-71502615D01*
X106622031Y-71492307D01*
X106590713Y-71475567D01*
X106563261Y-71453039D01*
X106540733Y-71425587D01*
X106523993Y-71394269D01*
X106513685Y-71360291D01*
X106509600Y-71318810D01*
X106509600Y-70717590D01*
X106513685Y-70676109D01*
X106523993Y-70642131D01*
X106540733Y-70610813D01*
X106563261Y-70583361D01*
X106590713Y-70560833D01*
X106622031Y-70544093D01*
X106656009Y-70533785D01*
X106697490Y-70529700D01*
X107373710Y-70529700D01*
X107415191Y-70533785D01*
X107415191Y-70533785D01*
G37*
G36*
X104228091Y-70242485D02*
X104262069Y-70252793D01*
X104293387Y-70269533D01*
X104320839Y-70292061D01*
X104343367Y-70319513D01*
X104360107Y-70350831D01*
X104370415Y-70384809D01*
X104374500Y-70426290D01*
X104374500Y-71102510D01*
X104370415Y-71143991D01*
X104360107Y-71177969D01*
X104343367Y-71209287D01*
X104320839Y-71236739D01*
X104293387Y-71259267D01*
X104262069Y-71276007D01*
X104228091Y-71286315D01*
X104186610Y-71290400D01*
X103585390Y-71290400D01*
X103543909Y-71286315D01*
X103509931Y-71276007D01*
X103478613Y-71259267D01*
X103451161Y-71236739D01*
X103428633Y-71209287D01*
X103411893Y-71177969D01*
X103401585Y-71143991D01*
X103397500Y-71102510D01*
X103397500Y-70426290D01*
X103401585Y-70384809D01*
X103411893Y-70350831D01*
X103428633Y-70319513D01*
X103451161Y-70292061D01*
X103478613Y-70269533D01*
X103509931Y-70252793D01*
X103543909Y-70242485D01*
X103585390Y-70238400D01*
X104186610Y-70238400D01*
X104228091Y-70242485D01*
X104228091Y-70242485D01*
G37*
G36*
X102653091Y-70242485D02*
X102687069Y-70252793D01*
X102718387Y-70269533D01*
X102745839Y-70292061D01*
X102768367Y-70319513D01*
X102785107Y-70350831D01*
X102795415Y-70384809D01*
X102799500Y-70426290D01*
X102799500Y-71102510D01*
X102795415Y-71143991D01*
X102785107Y-71177969D01*
X102768367Y-71209287D01*
X102745839Y-71236739D01*
X102718387Y-71259267D01*
X102687069Y-71276007D01*
X102653091Y-71286315D01*
X102611610Y-71290400D01*
X102010390Y-71290400D01*
X101968909Y-71286315D01*
X101934931Y-71276007D01*
X101903613Y-71259267D01*
X101876161Y-71236739D01*
X101853633Y-71209287D01*
X101836893Y-71177969D01*
X101826585Y-71143991D01*
X101822500Y-71102510D01*
X101822500Y-70426290D01*
X101826585Y-70384809D01*
X101836893Y-70350831D01*
X101853633Y-70319513D01*
X101876161Y-70292061D01*
X101903613Y-70269533D01*
X101934931Y-70252793D01*
X101968909Y-70242485D01*
X102010390Y-70238400D01*
X102611610Y-70238400D01*
X102653091Y-70242485D01*
X102653091Y-70242485D01*
G37*
G36*
X116345600Y-68657100D02*
X114743600Y-68657100D01*
X114743600Y-67055100D01*
X116345600Y-67055100D01*
X116345600Y-68657100D01*
X116345600Y-68657100D01*
G37*
G36*
X108945600Y-68657100D02*
X107343600Y-68657100D01*
X107343600Y-67055100D01*
X108945600Y-67055100D01*
X108945600Y-68657100D01*
X108945600Y-68657100D01*
G37*
G36*
X99196626Y-63732037D02*
X99309852Y-63766384D01*
X99366466Y-63783557D01*
X99522989Y-63867221D01*
X99660186Y-63979814D01*
X99743448Y-64081271D01*
X99772778Y-64117009D01*
X99772779Y-64117011D01*
X99856443Y-64273533D01*
X99873616Y-64330147D01*
X99907963Y-64443373D01*
X99921000Y-64575742D01*
X99921000Y-64964257D01*
X99907963Y-65096626D01*
X99856443Y-65266466D01*
X99772778Y-65422991D01*
X99772777Y-65422992D01*
X99660186Y-65560186D01*
X99565251Y-65638096D01*
X99522991Y-65672778D01*
X99522989Y-65672779D01*
X99366467Y-65756443D01*
X99325734Y-65768799D01*
X99196627Y-65807963D01*
X99020000Y-65825359D01*
X98843374Y-65807963D01*
X98714267Y-65768799D01*
X98673534Y-65756443D01*
X98517012Y-65672779D01*
X98517010Y-65672778D01*
X98379816Y-65560186D01*
X98379812Y-65560183D01*
X98267222Y-65422992D01*
X98183557Y-65266467D01*
X98166384Y-65209853D01*
X98132037Y-65096627D01*
X98119000Y-64964258D01*
X98119000Y-64575743D01*
X98132037Y-64443374D01*
X98183557Y-64273535D01*
X98183557Y-64273534D01*
X98267221Y-64117011D01*
X98379814Y-63979814D01*
X98481271Y-63896552D01*
X98517009Y-63867222D01*
X98534913Y-63857652D01*
X98673533Y-63783557D01*
X98730147Y-63766384D01*
X98843373Y-63732037D01*
X99020000Y-63714641D01*
X99196626Y-63732037D01*
X99196626Y-63732037D01*
G37*
G36*
X97278600Y-63722989D02*
X97311649Y-63733014D01*
X97342106Y-63749294D01*
X97368799Y-63771201D01*
X97390706Y-63797894D01*
X97406986Y-63828351D01*
X97417011Y-63861400D01*
X97421000Y-63901904D01*
X97421000Y-65638096D01*
X97417011Y-65678600D01*
X97406986Y-65711649D01*
X97390706Y-65742106D01*
X97368799Y-65768799D01*
X97342106Y-65790706D01*
X97311649Y-65806986D01*
X97278600Y-65817011D01*
X97238096Y-65821000D01*
X95801904Y-65821000D01*
X95761400Y-65817011D01*
X95728351Y-65806986D01*
X95697894Y-65790706D01*
X95671201Y-65768799D01*
X95649294Y-65742106D01*
X95633014Y-65711649D01*
X95622989Y-65678600D01*
X95619000Y-65638096D01*
X95619000Y-63901904D01*
X95622989Y-63861400D01*
X95633014Y-63828351D01*
X95649294Y-63797894D01*
X95671201Y-63771201D01*
X95697894Y-63749294D01*
X95728351Y-63733014D01*
X95761400Y-63722989D01*
X95801904Y-63719000D01*
X97238096Y-63719000D01*
X97278600Y-63722989D01*
X97278600Y-63722989D01*
G37*
G36*
X96736627Y-58652037D02*
X96849853Y-58686384D01*
X96906467Y-58703557D01*
X97038975Y-58774385D01*
X97062991Y-58787222D01*
X97092530Y-58811464D01*
X97200186Y-58899814D01*
X97255240Y-58966899D01*
X97312778Y-59037009D01*
X97396443Y-59193534D01*
X97447963Y-59363374D01*
X97461000Y-59495743D01*
X97461000Y-59884258D01*
X97447963Y-60016627D01*
X97440228Y-60042126D01*
X97396443Y-60186467D01*
X97322348Y-60325087D01*
X97312778Y-60342991D01*
X97283448Y-60378729D01*
X97200186Y-60480186D01*
X97062989Y-60592779D01*
X96906466Y-60676443D01*
X96865733Y-60688799D01*
X96736626Y-60727963D01*
X96560000Y-60745359D01*
X96383373Y-60727963D01*
X96254266Y-60688799D01*
X96213533Y-60676443D01*
X96057011Y-60592779D01*
X96057009Y-60592778D01*
X96014749Y-60558096D01*
X95919814Y-60480186D01*
X95807221Y-60342989D01*
X95723557Y-60186466D01*
X95681342Y-60047300D01*
X95672037Y-60016626D01*
X95659000Y-59884257D01*
X95659000Y-59495742D01*
X95672037Y-59363373D01*
X95723557Y-59193534D01*
X95723557Y-59193533D01*
X95807222Y-59037008D01*
X95919812Y-58899817D01*
X95990459Y-58841839D01*
X96057010Y-58787222D01*
X96081026Y-58774385D01*
X96213534Y-58703557D01*
X96270148Y-58686384D01*
X96383374Y-58652037D01*
X96560000Y-58634641D01*
X96736627Y-58652037D01*
X96736627Y-58652037D01*
G37*
G36*
X99818600Y-58642989D02*
X99851649Y-58653014D01*
X99882106Y-58669294D01*
X99908799Y-58691201D01*
X99930706Y-58717894D01*
X99946986Y-58748351D01*
X99957011Y-58781400D01*
X99961000Y-58821904D01*
X99961000Y-60558096D01*
X99957011Y-60598600D01*
X99946986Y-60631649D01*
X99930706Y-60662106D01*
X99908799Y-60688799D01*
X99882106Y-60710706D01*
X99851649Y-60726986D01*
X99818600Y-60737011D01*
X99778096Y-60741000D01*
X98341904Y-60741000D01*
X98301400Y-60737011D01*
X98268351Y-60726986D01*
X98237894Y-60710706D01*
X98211201Y-60688799D01*
X98189294Y-60662106D01*
X98173014Y-60631649D01*
X98162989Y-60598600D01*
X98159000Y-60558096D01*
X98159000Y-58821904D01*
X98162989Y-58781400D01*
X98173014Y-58748351D01*
X98189294Y-58717894D01*
X98211201Y-58691201D01*
X98237894Y-58669294D01*
X98268351Y-58653014D01*
X98301400Y-58642989D01*
X98341904Y-58639000D01*
X99778096Y-58639000D01*
X99818600Y-58642989D01*
X99818600Y-58642989D01*
G37*
G36*
X115022966Y-58549865D02*
X115061637Y-58561596D01*
X115097279Y-58580648D01*
X115128517Y-58606283D01*
X115154152Y-58637521D01*
X115173204Y-58673163D01*
X115184935Y-58711834D01*
X115189500Y-58758188D01*
X115189500Y-59834412D01*
X115184935Y-59880766D01*
X115173204Y-59919437D01*
X115154152Y-59955079D01*
X115128517Y-59986317D01*
X115097279Y-60011952D01*
X115061637Y-60031004D01*
X115022966Y-60042735D01*
X114976612Y-60047300D01*
X114325388Y-60047300D01*
X114279034Y-60042735D01*
X114240363Y-60031004D01*
X114204721Y-60011952D01*
X114173483Y-59986317D01*
X114147848Y-59955079D01*
X114128796Y-59919437D01*
X114117065Y-59880766D01*
X114112500Y-59834412D01*
X114112500Y-58758188D01*
X114117065Y-58711834D01*
X114128796Y-58673163D01*
X114147848Y-58637521D01*
X114173483Y-58606283D01*
X114204721Y-58580648D01*
X114240363Y-58561596D01*
X114279034Y-58549865D01*
X114325388Y-58545300D01*
X114976612Y-58545300D01*
X115022966Y-58549865D01*
X115022966Y-58549865D01*
G37*
G36*
X113147966Y-58549865D02*
X113186637Y-58561596D01*
X113222279Y-58580648D01*
X113253517Y-58606283D01*
X113279152Y-58637521D01*
X113298204Y-58673163D01*
X113309935Y-58711834D01*
X113314500Y-58758188D01*
X113314500Y-59834412D01*
X113309935Y-59880766D01*
X113298204Y-59919437D01*
X113279152Y-59955079D01*
X113253517Y-59986317D01*
X113222279Y-60011952D01*
X113186637Y-60031004D01*
X113147966Y-60042735D01*
X113101612Y-60047300D01*
X112450388Y-60047300D01*
X112404034Y-60042735D01*
X112365363Y-60031004D01*
X112329721Y-60011952D01*
X112298483Y-59986317D01*
X112272848Y-59955079D01*
X112253796Y-59919437D01*
X112242065Y-59880766D01*
X112237500Y-59834412D01*
X112237500Y-58758188D01*
X112242065Y-58711834D01*
X112253796Y-58673163D01*
X112272848Y-58637521D01*
X112298483Y-58606283D01*
X112329721Y-58580648D01*
X112365363Y-58561596D01*
X112404034Y-58549865D01*
X112450388Y-58545300D01*
X113101612Y-58545300D01*
X113147966Y-58549865D01*
X113147966Y-58549865D01*
G37*
G36*
X109790591Y-58774385D02*
X109824569Y-58784693D01*
X109855887Y-58801433D01*
X109883339Y-58823961D01*
X109905867Y-58851413D01*
X109922607Y-58882731D01*
X109932915Y-58916709D01*
X109937000Y-58958190D01*
X109937000Y-59634410D01*
X109932915Y-59675891D01*
X109922607Y-59709869D01*
X109905867Y-59741187D01*
X109883339Y-59768639D01*
X109855887Y-59791167D01*
X109824569Y-59807907D01*
X109790591Y-59818215D01*
X109749110Y-59822300D01*
X109147890Y-59822300D01*
X109106409Y-59818215D01*
X109072431Y-59807907D01*
X109041113Y-59791167D01*
X109013661Y-59768639D01*
X108991133Y-59741187D01*
X108974393Y-59709869D01*
X108964085Y-59675891D01*
X108960000Y-59634410D01*
X108960000Y-58958190D01*
X108964085Y-58916709D01*
X108974393Y-58882731D01*
X108991133Y-58851413D01*
X109013661Y-58823961D01*
X109041113Y-58801433D01*
X109072431Y-58784693D01*
X109106409Y-58774385D01*
X109147890Y-58770300D01*
X109749110Y-58770300D01*
X109790591Y-58774385D01*
X109790591Y-58774385D01*
G37*
G36*
X111365591Y-58774385D02*
X111399569Y-58784693D01*
X111430887Y-58801433D01*
X111458339Y-58823961D01*
X111480867Y-58851413D01*
X111497607Y-58882731D01*
X111507915Y-58916709D01*
X111512000Y-58958190D01*
X111512000Y-59634410D01*
X111507915Y-59675891D01*
X111497607Y-59709869D01*
X111480867Y-59741187D01*
X111458339Y-59768639D01*
X111430887Y-59791167D01*
X111399569Y-59807907D01*
X111365591Y-59818215D01*
X111324110Y-59822300D01*
X110722890Y-59822300D01*
X110681409Y-59818215D01*
X110647431Y-59807907D01*
X110616113Y-59791167D01*
X110588661Y-59768639D01*
X110566133Y-59741187D01*
X110549393Y-59709869D01*
X110539085Y-59675891D01*
X110535000Y-59634410D01*
X110535000Y-58958190D01*
X110539085Y-58916709D01*
X110549393Y-58882731D01*
X110566133Y-58851413D01*
X110588661Y-58823961D01*
X110616113Y-58801433D01*
X110647431Y-58784693D01*
X110681409Y-58774385D01*
X110722890Y-58770300D01*
X111324110Y-58770300D01*
X111365591Y-58774385D01*
X111365591Y-58774385D01*
G37*
G36*
X107149900Y-57581800D02*
X105498900Y-57581800D01*
X105498900Y-56108600D01*
X107149900Y-56108600D01*
X107149900Y-57581800D01*
X107149900Y-57581800D01*
G37*
G36*
X113401966Y-55425665D02*
X113440637Y-55437396D01*
X113476279Y-55456448D01*
X113507517Y-55482083D01*
X113533152Y-55513321D01*
X113552204Y-55548963D01*
X113563935Y-55587634D01*
X113568500Y-55633988D01*
X113568500Y-56710212D01*
X113563935Y-56756566D01*
X113552204Y-56795237D01*
X113533152Y-56830879D01*
X113507517Y-56862117D01*
X113476279Y-56887752D01*
X113440637Y-56906804D01*
X113401966Y-56918535D01*
X113355612Y-56923100D01*
X112704388Y-56923100D01*
X112658034Y-56918535D01*
X112619363Y-56906804D01*
X112583721Y-56887752D01*
X112552483Y-56862117D01*
X112526848Y-56830879D01*
X112507796Y-56795237D01*
X112496065Y-56756566D01*
X112491500Y-56710212D01*
X112491500Y-55633988D01*
X112496065Y-55587634D01*
X112507796Y-55548963D01*
X112526848Y-55513321D01*
X112552483Y-55482083D01*
X112583721Y-55456448D01*
X112619363Y-55437396D01*
X112658034Y-55425665D01*
X112704388Y-55421100D01*
X113355612Y-55421100D01*
X113401966Y-55425665D01*
X113401966Y-55425665D01*
G37*
G36*
X115276966Y-55425665D02*
X115315637Y-55437396D01*
X115351279Y-55456448D01*
X115382517Y-55482083D01*
X115408152Y-55513321D01*
X115427204Y-55548963D01*
X115438935Y-55587634D01*
X115443500Y-55633988D01*
X115443500Y-56710212D01*
X115438935Y-56756566D01*
X115427204Y-56795237D01*
X115408152Y-56830879D01*
X115382517Y-56862117D01*
X115351279Y-56887752D01*
X115315637Y-56906804D01*
X115276966Y-56918535D01*
X115230612Y-56923100D01*
X114579388Y-56923100D01*
X114533034Y-56918535D01*
X114494363Y-56906804D01*
X114458721Y-56887752D01*
X114427483Y-56862117D01*
X114401848Y-56830879D01*
X114382796Y-56795237D01*
X114371065Y-56756566D01*
X114366500Y-56710212D01*
X114366500Y-55633988D01*
X114371065Y-55587634D01*
X114382796Y-55548963D01*
X114401848Y-55513321D01*
X114427483Y-55482083D01*
X114458721Y-55456448D01*
X114494363Y-55437396D01*
X114533034Y-55425665D01*
X114579388Y-55421100D01*
X115230612Y-55421100D01*
X115276966Y-55425665D01*
X115276966Y-55425665D01*
G37*
G36*
X109892091Y-55650185D02*
X109926069Y-55660493D01*
X109957387Y-55677233D01*
X109984839Y-55699761D01*
X110007367Y-55727213D01*
X110024107Y-55758531D01*
X110034415Y-55792509D01*
X110038500Y-55833990D01*
X110038500Y-56510210D01*
X110034415Y-56551691D01*
X110024107Y-56585669D01*
X110007367Y-56616987D01*
X109984839Y-56644439D01*
X109957387Y-56666967D01*
X109926069Y-56683707D01*
X109892091Y-56694015D01*
X109850610Y-56698100D01*
X109249390Y-56698100D01*
X109207909Y-56694015D01*
X109173931Y-56683707D01*
X109142613Y-56666967D01*
X109115161Y-56644439D01*
X109092633Y-56616987D01*
X109075893Y-56585669D01*
X109065585Y-56551691D01*
X109061500Y-56510210D01*
X109061500Y-55833990D01*
X109065585Y-55792509D01*
X109075893Y-55758531D01*
X109092633Y-55727213D01*
X109115161Y-55699761D01*
X109142613Y-55677233D01*
X109173931Y-55660493D01*
X109207909Y-55650185D01*
X109249390Y-55646100D01*
X109850610Y-55646100D01*
X109892091Y-55650185D01*
X109892091Y-55650185D01*
G37*
G36*
X111467091Y-55650185D02*
X111501069Y-55660493D01*
X111532387Y-55677233D01*
X111559839Y-55699761D01*
X111582367Y-55727213D01*
X111599107Y-55758531D01*
X111609415Y-55792509D01*
X111613500Y-55833990D01*
X111613500Y-56510210D01*
X111609415Y-56551691D01*
X111599107Y-56585669D01*
X111582367Y-56616987D01*
X111559839Y-56644439D01*
X111532387Y-56666967D01*
X111501069Y-56683707D01*
X111467091Y-56694015D01*
X111425610Y-56698100D01*
X110824390Y-56698100D01*
X110782909Y-56694015D01*
X110748931Y-56683707D01*
X110717613Y-56666967D01*
X110690161Y-56644439D01*
X110667633Y-56616987D01*
X110650893Y-56585669D01*
X110640585Y-56551691D01*
X110636500Y-56510210D01*
X110636500Y-55833990D01*
X110640585Y-55792509D01*
X110650893Y-55758531D01*
X110667633Y-55727213D01*
X110690161Y-55699761D01*
X110717613Y-55677233D01*
X110748931Y-55660493D01*
X110782909Y-55650185D01*
X110824390Y-55646100D01*
X111425610Y-55646100D01*
X111467091Y-55650185D01*
X111467091Y-55650185D01*
G37*
G36*
X107302300Y-54991000D02*
X105651300Y-54991000D01*
X105651300Y-53517800D01*
X107302300Y-53517800D01*
X107302300Y-54991000D01*
X107302300Y-54991000D01*
G37*
G36*
X115276966Y-53228565D02*
X115315637Y-53240296D01*
X115351279Y-53259348D01*
X115382517Y-53284983D01*
X115408152Y-53316221D01*
X115427204Y-53351863D01*
X115438935Y-53390534D01*
X115443500Y-53436888D01*
X115443500Y-54513112D01*
X115438935Y-54559466D01*
X115427204Y-54598137D01*
X115408152Y-54633779D01*
X115382517Y-54665017D01*
X115351279Y-54690652D01*
X115315637Y-54709704D01*
X115276966Y-54721435D01*
X115230612Y-54726000D01*
X114579388Y-54726000D01*
X114533034Y-54721435D01*
X114494363Y-54709704D01*
X114458721Y-54690652D01*
X114427483Y-54665017D01*
X114401848Y-54633779D01*
X114382796Y-54598137D01*
X114371065Y-54559466D01*
X114366500Y-54513112D01*
X114366500Y-53436888D01*
X114371065Y-53390534D01*
X114382796Y-53351863D01*
X114401848Y-53316221D01*
X114427483Y-53284983D01*
X114458721Y-53259348D01*
X114494363Y-53240296D01*
X114533034Y-53228565D01*
X114579388Y-53224000D01*
X115230612Y-53224000D01*
X115276966Y-53228565D01*
X115276966Y-53228565D01*
G37*
G36*
X113401966Y-53228565D02*
X113440637Y-53240296D01*
X113476279Y-53259348D01*
X113507517Y-53284983D01*
X113533152Y-53316221D01*
X113552204Y-53351863D01*
X113563935Y-53390534D01*
X113568500Y-53436888D01*
X113568500Y-54513112D01*
X113563935Y-54559466D01*
X113552204Y-54598137D01*
X113533152Y-54633779D01*
X113507517Y-54665017D01*
X113476279Y-54690652D01*
X113440637Y-54709704D01*
X113401966Y-54721435D01*
X113355612Y-54726000D01*
X112704388Y-54726000D01*
X112658034Y-54721435D01*
X112619363Y-54709704D01*
X112583721Y-54690652D01*
X112552483Y-54665017D01*
X112526848Y-54633779D01*
X112507796Y-54598137D01*
X112496065Y-54559466D01*
X112491500Y-54513112D01*
X112491500Y-53436888D01*
X112496065Y-53390534D01*
X112507796Y-53351863D01*
X112526848Y-53316221D01*
X112552483Y-53284983D01*
X112583721Y-53259348D01*
X112619363Y-53240296D01*
X112658034Y-53228565D01*
X112704388Y-53224000D01*
X113355612Y-53224000D01*
X113401966Y-53228565D01*
X113401966Y-53228565D01*
G37*
G36*
X111467091Y-53453085D02*
X111501069Y-53463393D01*
X111532387Y-53480133D01*
X111559839Y-53502661D01*
X111582367Y-53530113D01*
X111599107Y-53561431D01*
X111609415Y-53595409D01*
X111613500Y-53636890D01*
X111613500Y-54313110D01*
X111609415Y-54354591D01*
X111599107Y-54388569D01*
X111582367Y-54419887D01*
X111559839Y-54447339D01*
X111532387Y-54469867D01*
X111501069Y-54486607D01*
X111467091Y-54496915D01*
X111425610Y-54501000D01*
X110824390Y-54501000D01*
X110782909Y-54496915D01*
X110748931Y-54486607D01*
X110717613Y-54469867D01*
X110690161Y-54447339D01*
X110667633Y-54419887D01*
X110650893Y-54388569D01*
X110640585Y-54354591D01*
X110636500Y-54313110D01*
X110636500Y-53636890D01*
X110640585Y-53595409D01*
X110650893Y-53561431D01*
X110667633Y-53530113D01*
X110690161Y-53502661D01*
X110717613Y-53480133D01*
X110748931Y-53463393D01*
X110782909Y-53453085D01*
X110824390Y-53449000D01*
X111425610Y-53449000D01*
X111467091Y-53453085D01*
X111467091Y-53453085D01*
G37*
G36*
X109892091Y-53453085D02*
X109926069Y-53463393D01*
X109957387Y-53480133D01*
X109984839Y-53502661D01*
X110007367Y-53530113D01*
X110024107Y-53561431D01*
X110034415Y-53595409D01*
X110038500Y-53636890D01*
X110038500Y-54313110D01*
X110034415Y-54354591D01*
X110024107Y-54388569D01*
X110007367Y-54419887D01*
X109984839Y-54447339D01*
X109957387Y-54469867D01*
X109926069Y-54486607D01*
X109892091Y-54496915D01*
X109850610Y-54501000D01*
X109249390Y-54501000D01*
X109207909Y-54496915D01*
X109173931Y-54486607D01*
X109142613Y-54469867D01*
X109115161Y-54447339D01*
X109092633Y-54419887D01*
X109075893Y-54388569D01*
X109065585Y-54354591D01*
X109061500Y-54313110D01*
X109061500Y-53636890D01*
X109065585Y-53595409D01*
X109075893Y-53561431D01*
X109092633Y-53530113D01*
X109115161Y-53502661D01*
X109142613Y-53480133D01*
X109173931Y-53463393D01*
X109207909Y-53453085D01*
X109249390Y-53449000D01*
X109850610Y-53449000D01*
X109892091Y-53453085D01*
X109892091Y-53453085D01*
G37*
M02*
