G04 #@! TF.GenerationSoftware,KiCad,Pcbnew,(5.0.1)-rc2*
G04 #@! TF.CreationDate,2019-05-10T17:03:11-07:00*
G04 #@! TF.ProjectId,weatherStation,7765617468657253746174696F6E2E6B,rev?*
G04 #@! TF.SameCoordinates,Original*
G04 #@! TF.FileFunction,Paste,Bot*
G04 #@! TF.FilePolarity,Positive*
%FSLAX46Y46*%
G04 Gerber Fmt 4.6, Leading zero omitted, Abs format (unit mm)*
G04 Created by KiCad (PCBNEW (5.0.1)-rc2) date 5/10/2019 5:03:11 PM*
%MOMM*%
%LPD*%
G01*
G04 APERTURE LIST*
%ADD10C,0.100000*%
%ADD11C,0.975000*%
%ADD12C,0.875000*%
%ADD13R,1.450000X0.450000*%
G04 APERTURE END LIST*
D10*
G04 #@! TO.C,C1*
G36*
X111630542Y-68809474D02*
X111654203Y-68812984D01*
X111677407Y-68818796D01*
X111699929Y-68826854D01*
X111721553Y-68837082D01*
X111742070Y-68849379D01*
X111761283Y-68863629D01*
X111779007Y-68879693D01*
X111795071Y-68897417D01*
X111809321Y-68916630D01*
X111821618Y-68937147D01*
X111831846Y-68958771D01*
X111839904Y-68981293D01*
X111845716Y-69004497D01*
X111849226Y-69028158D01*
X111850400Y-69052050D01*
X111850400Y-69539550D01*
X111849226Y-69563442D01*
X111845716Y-69587103D01*
X111839904Y-69610307D01*
X111831846Y-69632829D01*
X111821618Y-69654453D01*
X111809321Y-69674970D01*
X111795071Y-69694183D01*
X111779007Y-69711907D01*
X111761283Y-69727971D01*
X111742070Y-69742221D01*
X111721553Y-69754518D01*
X111699929Y-69764746D01*
X111677407Y-69772804D01*
X111654203Y-69778616D01*
X111630542Y-69782126D01*
X111606650Y-69783300D01*
X110694150Y-69783300D01*
X110670258Y-69782126D01*
X110646597Y-69778616D01*
X110623393Y-69772804D01*
X110600871Y-69764746D01*
X110579247Y-69754518D01*
X110558730Y-69742221D01*
X110539517Y-69727971D01*
X110521793Y-69711907D01*
X110505729Y-69694183D01*
X110491479Y-69674970D01*
X110479182Y-69654453D01*
X110468954Y-69632829D01*
X110460896Y-69610307D01*
X110455084Y-69587103D01*
X110451574Y-69563442D01*
X110450400Y-69539550D01*
X110450400Y-69052050D01*
X110451574Y-69028158D01*
X110455084Y-69004497D01*
X110460896Y-68981293D01*
X110468954Y-68958771D01*
X110479182Y-68937147D01*
X110491479Y-68916630D01*
X110505729Y-68897417D01*
X110521793Y-68879693D01*
X110539517Y-68863629D01*
X110558730Y-68849379D01*
X110579247Y-68837082D01*
X110600871Y-68826854D01*
X110623393Y-68818796D01*
X110646597Y-68812984D01*
X110670258Y-68809474D01*
X110694150Y-68808300D01*
X111606650Y-68808300D01*
X111630542Y-68809474D01*
X111630542Y-68809474D01*
G37*
D11*
X111150400Y-69295800D03*
D10*
G36*
X111630542Y-70684474D02*
X111654203Y-70687984D01*
X111677407Y-70693796D01*
X111699929Y-70701854D01*
X111721553Y-70712082D01*
X111742070Y-70724379D01*
X111761283Y-70738629D01*
X111779007Y-70754693D01*
X111795071Y-70772417D01*
X111809321Y-70791630D01*
X111821618Y-70812147D01*
X111831846Y-70833771D01*
X111839904Y-70856293D01*
X111845716Y-70879497D01*
X111849226Y-70903158D01*
X111850400Y-70927050D01*
X111850400Y-71414550D01*
X111849226Y-71438442D01*
X111845716Y-71462103D01*
X111839904Y-71485307D01*
X111831846Y-71507829D01*
X111821618Y-71529453D01*
X111809321Y-71549970D01*
X111795071Y-71569183D01*
X111779007Y-71586907D01*
X111761283Y-71602971D01*
X111742070Y-71617221D01*
X111721553Y-71629518D01*
X111699929Y-71639746D01*
X111677407Y-71647804D01*
X111654203Y-71653616D01*
X111630542Y-71657126D01*
X111606650Y-71658300D01*
X110694150Y-71658300D01*
X110670258Y-71657126D01*
X110646597Y-71653616D01*
X110623393Y-71647804D01*
X110600871Y-71639746D01*
X110579247Y-71629518D01*
X110558730Y-71617221D01*
X110539517Y-71602971D01*
X110521793Y-71586907D01*
X110505729Y-71569183D01*
X110491479Y-71549970D01*
X110479182Y-71529453D01*
X110468954Y-71507829D01*
X110460896Y-71485307D01*
X110455084Y-71462103D01*
X110451574Y-71438442D01*
X110450400Y-71414550D01*
X110450400Y-70927050D01*
X110451574Y-70903158D01*
X110455084Y-70879497D01*
X110460896Y-70856293D01*
X110468954Y-70833771D01*
X110479182Y-70812147D01*
X110491479Y-70791630D01*
X110505729Y-70772417D01*
X110521793Y-70754693D01*
X110539517Y-70738629D01*
X110558730Y-70724379D01*
X110579247Y-70712082D01*
X110600871Y-70701854D01*
X110623393Y-70693796D01*
X110646597Y-70687984D01*
X110670258Y-70684474D01*
X110694150Y-70683300D01*
X111606650Y-70683300D01*
X111630542Y-70684474D01*
X111630542Y-70684474D01*
G37*
D11*
X111150400Y-71170800D03*
G04 #@! TD*
D10*
G04 #@! TO.C,C18*
G36*
X108023742Y-70629074D02*
X108047403Y-70632584D01*
X108070607Y-70638396D01*
X108093129Y-70646454D01*
X108114753Y-70656682D01*
X108135270Y-70668979D01*
X108154483Y-70683229D01*
X108172207Y-70699293D01*
X108188271Y-70717017D01*
X108202521Y-70736230D01*
X108214818Y-70756747D01*
X108225046Y-70778371D01*
X108233104Y-70800893D01*
X108238916Y-70824097D01*
X108242426Y-70847758D01*
X108243600Y-70871650D01*
X108243600Y-71359150D01*
X108242426Y-71383042D01*
X108238916Y-71406703D01*
X108233104Y-71429907D01*
X108225046Y-71452429D01*
X108214818Y-71474053D01*
X108202521Y-71494570D01*
X108188271Y-71513783D01*
X108172207Y-71531507D01*
X108154483Y-71547571D01*
X108135270Y-71561821D01*
X108114753Y-71574118D01*
X108093129Y-71584346D01*
X108070607Y-71592404D01*
X108047403Y-71598216D01*
X108023742Y-71601726D01*
X107999850Y-71602900D01*
X107087350Y-71602900D01*
X107063458Y-71601726D01*
X107039797Y-71598216D01*
X107016593Y-71592404D01*
X106994071Y-71584346D01*
X106972447Y-71574118D01*
X106951930Y-71561821D01*
X106932717Y-71547571D01*
X106914993Y-71531507D01*
X106898929Y-71513783D01*
X106884679Y-71494570D01*
X106872382Y-71474053D01*
X106862154Y-71452429D01*
X106854096Y-71429907D01*
X106848284Y-71406703D01*
X106844774Y-71383042D01*
X106843600Y-71359150D01*
X106843600Y-70871650D01*
X106844774Y-70847758D01*
X106848284Y-70824097D01*
X106854096Y-70800893D01*
X106862154Y-70778371D01*
X106872382Y-70756747D01*
X106884679Y-70736230D01*
X106898929Y-70717017D01*
X106914993Y-70699293D01*
X106932717Y-70683229D01*
X106951930Y-70668979D01*
X106972447Y-70656682D01*
X106994071Y-70646454D01*
X107016593Y-70638396D01*
X107039797Y-70632584D01*
X107063458Y-70629074D01*
X107087350Y-70627900D01*
X107999850Y-70627900D01*
X108023742Y-70629074D01*
X108023742Y-70629074D01*
G37*
D11*
X107543600Y-71115400D03*
D10*
G36*
X108023742Y-68754074D02*
X108047403Y-68757584D01*
X108070607Y-68763396D01*
X108093129Y-68771454D01*
X108114753Y-68781682D01*
X108135270Y-68793979D01*
X108154483Y-68808229D01*
X108172207Y-68824293D01*
X108188271Y-68842017D01*
X108202521Y-68861230D01*
X108214818Y-68881747D01*
X108225046Y-68903371D01*
X108233104Y-68925893D01*
X108238916Y-68949097D01*
X108242426Y-68972758D01*
X108243600Y-68996650D01*
X108243600Y-69484150D01*
X108242426Y-69508042D01*
X108238916Y-69531703D01*
X108233104Y-69554907D01*
X108225046Y-69577429D01*
X108214818Y-69599053D01*
X108202521Y-69619570D01*
X108188271Y-69638783D01*
X108172207Y-69656507D01*
X108154483Y-69672571D01*
X108135270Y-69686821D01*
X108114753Y-69699118D01*
X108093129Y-69709346D01*
X108070607Y-69717404D01*
X108047403Y-69723216D01*
X108023742Y-69726726D01*
X107999850Y-69727900D01*
X107087350Y-69727900D01*
X107063458Y-69726726D01*
X107039797Y-69723216D01*
X107016593Y-69717404D01*
X106994071Y-69709346D01*
X106972447Y-69699118D01*
X106951930Y-69686821D01*
X106932717Y-69672571D01*
X106914993Y-69656507D01*
X106898929Y-69638783D01*
X106884679Y-69619570D01*
X106872382Y-69599053D01*
X106862154Y-69577429D01*
X106854096Y-69554907D01*
X106848284Y-69531703D01*
X106844774Y-69508042D01*
X106843600Y-69484150D01*
X106843600Y-68996650D01*
X106844774Y-68972758D01*
X106848284Y-68949097D01*
X106854096Y-68925893D01*
X106862154Y-68903371D01*
X106872382Y-68881747D01*
X106884679Y-68861230D01*
X106898929Y-68842017D01*
X106914993Y-68824293D01*
X106932717Y-68808229D01*
X106951930Y-68793979D01*
X106972447Y-68781682D01*
X106994071Y-68771454D01*
X107016593Y-68763396D01*
X107039797Y-68757584D01*
X107063458Y-68754074D01*
X107087350Y-68752900D01*
X107999850Y-68752900D01*
X108023742Y-68754074D01*
X108023742Y-68754074D01*
G37*
D11*
X107543600Y-69240400D03*
G04 #@! TD*
D10*
G04 #@! TO.C,R13*
G36*
X104380191Y-59851053D02*
X104401426Y-59854203D01*
X104422250Y-59859419D01*
X104442462Y-59866651D01*
X104461868Y-59875830D01*
X104480281Y-59886866D01*
X104497524Y-59899654D01*
X104513430Y-59914070D01*
X104527846Y-59929976D01*
X104540634Y-59947219D01*
X104551670Y-59965632D01*
X104560849Y-59985038D01*
X104568081Y-60005250D01*
X104573297Y-60026074D01*
X104576447Y-60047309D01*
X104577500Y-60068750D01*
X104577500Y-60581250D01*
X104576447Y-60602691D01*
X104573297Y-60623926D01*
X104568081Y-60644750D01*
X104560849Y-60664962D01*
X104551670Y-60684368D01*
X104540634Y-60702781D01*
X104527846Y-60720024D01*
X104513430Y-60735930D01*
X104497524Y-60750346D01*
X104480281Y-60763134D01*
X104461868Y-60774170D01*
X104442462Y-60783349D01*
X104422250Y-60790581D01*
X104401426Y-60795797D01*
X104380191Y-60798947D01*
X104358750Y-60800000D01*
X103921250Y-60800000D01*
X103899809Y-60798947D01*
X103878574Y-60795797D01*
X103857750Y-60790581D01*
X103837538Y-60783349D01*
X103818132Y-60774170D01*
X103799719Y-60763134D01*
X103782476Y-60750346D01*
X103766570Y-60735930D01*
X103752154Y-60720024D01*
X103739366Y-60702781D01*
X103728330Y-60684368D01*
X103719151Y-60664962D01*
X103711919Y-60644750D01*
X103706703Y-60623926D01*
X103703553Y-60602691D01*
X103702500Y-60581250D01*
X103702500Y-60068750D01*
X103703553Y-60047309D01*
X103706703Y-60026074D01*
X103711919Y-60005250D01*
X103719151Y-59985038D01*
X103728330Y-59965632D01*
X103739366Y-59947219D01*
X103752154Y-59929976D01*
X103766570Y-59914070D01*
X103782476Y-59899654D01*
X103799719Y-59886866D01*
X103818132Y-59875830D01*
X103837538Y-59866651D01*
X103857750Y-59859419D01*
X103878574Y-59854203D01*
X103899809Y-59851053D01*
X103921250Y-59850000D01*
X104358750Y-59850000D01*
X104380191Y-59851053D01*
X104380191Y-59851053D01*
G37*
D12*
X104140000Y-60325000D03*
D10*
G36*
X105955191Y-59851053D02*
X105976426Y-59854203D01*
X105997250Y-59859419D01*
X106017462Y-59866651D01*
X106036868Y-59875830D01*
X106055281Y-59886866D01*
X106072524Y-59899654D01*
X106088430Y-59914070D01*
X106102846Y-59929976D01*
X106115634Y-59947219D01*
X106126670Y-59965632D01*
X106135849Y-59985038D01*
X106143081Y-60005250D01*
X106148297Y-60026074D01*
X106151447Y-60047309D01*
X106152500Y-60068750D01*
X106152500Y-60581250D01*
X106151447Y-60602691D01*
X106148297Y-60623926D01*
X106143081Y-60644750D01*
X106135849Y-60664962D01*
X106126670Y-60684368D01*
X106115634Y-60702781D01*
X106102846Y-60720024D01*
X106088430Y-60735930D01*
X106072524Y-60750346D01*
X106055281Y-60763134D01*
X106036868Y-60774170D01*
X106017462Y-60783349D01*
X105997250Y-60790581D01*
X105976426Y-60795797D01*
X105955191Y-60798947D01*
X105933750Y-60800000D01*
X105496250Y-60800000D01*
X105474809Y-60798947D01*
X105453574Y-60795797D01*
X105432750Y-60790581D01*
X105412538Y-60783349D01*
X105393132Y-60774170D01*
X105374719Y-60763134D01*
X105357476Y-60750346D01*
X105341570Y-60735930D01*
X105327154Y-60720024D01*
X105314366Y-60702781D01*
X105303330Y-60684368D01*
X105294151Y-60664962D01*
X105286919Y-60644750D01*
X105281703Y-60623926D01*
X105278553Y-60602691D01*
X105277500Y-60581250D01*
X105277500Y-60068750D01*
X105278553Y-60047309D01*
X105281703Y-60026074D01*
X105286919Y-60005250D01*
X105294151Y-59985038D01*
X105303330Y-59965632D01*
X105314366Y-59947219D01*
X105327154Y-59929976D01*
X105341570Y-59914070D01*
X105357476Y-59899654D01*
X105374719Y-59886866D01*
X105393132Y-59875830D01*
X105412538Y-59866651D01*
X105432750Y-59859419D01*
X105453574Y-59854203D01*
X105474809Y-59851053D01*
X105496250Y-59850000D01*
X105933750Y-59850000D01*
X105955191Y-59851053D01*
X105955191Y-59851053D01*
G37*
D12*
X105715000Y-60325000D03*
G04 #@! TD*
D10*
G04 #@! TO.C,R14*
G36*
X107529591Y-91982053D02*
X107550826Y-91985203D01*
X107571650Y-91990419D01*
X107591862Y-91997651D01*
X107611268Y-92006830D01*
X107629681Y-92017866D01*
X107646924Y-92030654D01*
X107662830Y-92045070D01*
X107677246Y-92060976D01*
X107690034Y-92078219D01*
X107701070Y-92096632D01*
X107710249Y-92116038D01*
X107717481Y-92136250D01*
X107722697Y-92157074D01*
X107725847Y-92178309D01*
X107726900Y-92199750D01*
X107726900Y-92712250D01*
X107725847Y-92733691D01*
X107722697Y-92754926D01*
X107717481Y-92775750D01*
X107710249Y-92795962D01*
X107701070Y-92815368D01*
X107690034Y-92833781D01*
X107677246Y-92851024D01*
X107662830Y-92866930D01*
X107646924Y-92881346D01*
X107629681Y-92894134D01*
X107611268Y-92905170D01*
X107591862Y-92914349D01*
X107571650Y-92921581D01*
X107550826Y-92926797D01*
X107529591Y-92929947D01*
X107508150Y-92931000D01*
X107070650Y-92931000D01*
X107049209Y-92929947D01*
X107027974Y-92926797D01*
X107007150Y-92921581D01*
X106986938Y-92914349D01*
X106967532Y-92905170D01*
X106949119Y-92894134D01*
X106931876Y-92881346D01*
X106915970Y-92866930D01*
X106901554Y-92851024D01*
X106888766Y-92833781D01*
X106877730Y-92815368D01*
X106868551Y-92795962D01*
X106861319Y-92775750D01*
X106856103Y-92754926D01*
X106852953Y-92733691D01*
X106851900Y-92712250D01*
X106851900Y-92199750D01*
X106852953Y-92178309D01*
X106856103Y-92157074D01*
X106861319Y-92136250D01*
X106868551Y-92116038D01*
X106877730Y-92096632D01*
X106888766Y-92078219D01*
X106901554Y-92060976D01*
X106915970Y-92045070D01*
X106931876Y-92030654D01*
X106949119Y-92017866D01*
X106967532Y-92006830D01*
X106986938Y-91997651D01*
X107007150Y-91990419D01*
X107027974Y-91985203D01*
X107049209Y-91982053D01*
X107070650Y-91981000D01*
X107508150Y-91981000D01*
X107529591Y-91982053D01*
X107529591Y-91982053D01*
G37*
D12*
X107289400Y-92456000D03*
D10*
G36*
X109104591Y-91982053D02*
X109125826Y-91985203D01*
X109146650Y-91990419D01*
X109166862Y-91997651D01*
X109186268Y-92006830D01*
X109204681Y-92017866D01*
X109221924Y-92030654D01*
X109237830Y-92045070D01*
X109252246Y-92060976D01*
X109265034Y-92078219D01*
X109276070Y-92096632D01*
X109285249Y-92116038D01*
X109292481Y-92136250D01*
X109297697Y-92157074D01*
X109300847Y-92178309D01*
X109301900Y-92199750D01*
X109301900Y-92712250D01*
X109300847Y-92733691D01*
X109297697Y-92754926D01*
X109292481Y-92775750D01*
X109285249Y-92795962D01*
X109276070Y-92815368D01*
X109265034Y-92833781D01*
X109252246Y-92851024D01*
X109237830Y-92866930D01*
X109221924Y-92881346D01*
X109204681Y-92894134D01*
X109186268Y-92905170D01*
X109166862Y-92914349D01*
X109146650Y-92921581D01*
X109125826Y-92926797D01*
X109104591Y-92929947D01*
X109083150Y-92931000D01*
X108645650Y-92931000D01*
X108624209Y-92929947D01*
X108602974Y-92926797D01*
X108582150Y-92921581D01*
X108561938Y-92914349D01*
X108542532Y-92905170D01*
X108524119Y-92894134D01*
X108506876Y-92881346D01*
X108490970Y-92866930D01*
X108476554Y-92851024D01*
X108463766Y-92833781D01*
X108452730Y-92815368D01*
X108443551Y-92795962D01*
X108436319Y-92775750D01*
X108431103Y-92754926D01*
X108427953Y-92733691D01*
X108426900Y-92712250D01*
X108426900Y-92199750D01*
X108427953Y-92178309D01*
X108431103Y-92157074D01*
X108436319Y-92136250D01*
X108443551Y-92116038D01*
X108452730Y-92096632D01*
X108463766Y-92078219D01*
X108476554Y-92060976D01*
X108490970Y-92045070D01*
X108506876Y-92030654D01*
X108524119Y-92017866D01*
X108542532Y-92006830D01*
X108561938Y-91997651D01*
X108582150Y-91990419D01*
X108602974Y-91985203D01*
X108624209Y-91982053D01*
X108645650Y-91981000D01*
X109083150Y-91981000D01*
X109104591Y-91982053D01*
X109104591Y-91982053D01*
G37*
D12*
X108864400Y-92456000D03*
G04 #@! TD*
D10*
G04 #@! TO.C,R15*
G36*
X109002991Y-94623653D02*
X109024226Y-94626803D01*
X109045050Y-94632019D01*
X109065262Y-94639251D01*
X109084668Y-94648430D01*
X109103081Y-94659466D01*
X109120324Y-94672254D01*
X109136230Y-94686670D01*
X109150646Y-94702576D01*
X109163434Y-94719819D01*
X109174470Y-94738232D01*
X109183649Y-94757638D01*
X109190881Y-94777850D01*
X109196097Y-94798674D01*
X109199247Y-94819909D01*
X109200300Y-94841350D01*
X109200300Y-95353850D01*
X109199247Y-95375291D01*
X109196097Y-95396526D01*
X109190881Y-95417350D01*
X109183649Y-95437562D01*
X109174470Y-95456968D01*
X109163434Y-95475381D01*
X109150646Y-95492624D01*
X109136230Y-95508530D01*
X109120324Y-95522946D01*
X109103081Y-95535734D01*
X109084668Y-95546770D01*
X109065262Y-95555949D01*
X109045050Y-95563181D01*
X109024226Y-95568397D01*
X109002991Y-95571547D01*
X108981550Y-95572600D01*
X108544050Y-95572600D01*
X108522609Y-95571547D01*
X108501374Y-95568397D01*
X108480550Y-95563181D01*
X108460338Y-95555949D01*
X108440932Y-95546770D01*
X108422519Y-95535734D01*
X108405276Y-95522946D01*
X108389370Y-95508530D01*
X108374954Y-95492624D01*
X108362166Y-95475381D01*
X108351130Y-95456968D01*
X108341951Y-95437562D01*
X108334719Y-95417350D01*
X108329503Y-95396526D01*
X108326353Y-95375291D01*
X108325300Y-95353850D01*
X108325300Y-94841350D01*
X108326353Y-94819909D01*
X108329503Y-94798674D01*
X108334719Y-94777850D01*
X108341951Y-94757638D01*
X108351130Y-94738232D01*
X108362166Y-94719819D01*
X108374954Y-94702576D01*
X108389370Y-94686670D01*
X108405276Y-94672254D01*
X108422519Y-94659466D01*
X108440932Y-94648430D01*
X108460338Y-94639251D01*
X108480550Y-94632019D01*
X108501374Y-94626803D01*
X108522609Y-94623653D01*
X108544050Y-94622600D01*
X108981550Y-94622600D01*
X109002991Y-94623653D01*
X109002991Y-94623653D01*
G37*
D12*
X108762800Y-95097600D03*
D10*
G36*
X107427991Y-94623653D02*
X107449226Y-94626803D01*
X107470050Y-94632019D01*
X107490262Y-94639251D01*
X107509668Y-94648430D01*
X107528081Y-94659466D01*
X107545324Y-94672254D01*
X107561230Y-94686670D01*
X107575646Y-94702576D01*
X107588434Y-94719819D01*
X107599470Y-94738232D01*
X107608649Y-94757638D01*
X107615881Y-94777850D01*
X107621097Y-94798674D01*
X107624247Y-94819909D01*
X107625300Y-94841350D01*
X107625300Y-95353850D01*
X107624247Y-95375291D01*
X107621097Y-95396526D01*
X107615881Y-95417350D01*
X107608649Y-95437562D01*
X107599470Y-95456968D01*
X107588434Y-95475381D01*
X107575646Y-95492624D01*
X107561230Y-95508530D01*
X107545324Y-95522946D01*
X107528081Y-95535734D01*
X107509668Y-95546770D01*
X107490262Y-95555949D01*
X107470050Y-95563181D01*
X107449226Y-95568397D01*
X107427991Y-95571547D01*
X107406550Y-95572600D01*
X106969050Y-95572600D01*
X106947609Y-95571547D01*
X106926374Y-95568397D01*
X106905550Y-95563181D01*
X106885338Y-95555949D01*
X106865932Y-95546770D01*
X106847519Y-95535734D01*
X106830276Y-95522946D01*
X106814370Y-95508530D01*
X106799954Y-95492624D01*
X106787166Y-95475381D01*
X106776130Y-95456968D01*
X106766951Y-95437562D01*
X106759719Y-95417350D01*
X106754503Y-95396526D01*
X106751353Y-95375291D01*
X106750300Y-95353850D01*
X106750300Y-94841350D01*
X106751353Y-94819909D01*
X106754503Y-94798674D01*
X106759719Y-94777850D01*
X106766951Y-94757638D01*
X106776130Y-94738232D01*
X106787166Y-94719819D01*
X106799954Y-94702576D01*
X106814370Y-94686670D01*
X106830276Y-94672254D01*
X106847519Y-94659466D01*
X106865932Y-94648430D01*
X106885338Y-94639251D01*
X106905550Y-94632019D01*
X106926374Y-94626803D01*
X106947609Y-94623653D01*
X106969050Y-94622600D01*
X107406550Y-94622600D01*
X107427991Y-94623653D01*
X107427991Y-94623653D01*
G37*
D12*
X107187800Y-95097600D03*
G04 #@! TD*
D10*
G04 #@! TO.C,R25*
G36*
X99681291Y-96096853D02*
X99702526Y-96100003D01*
X99723350Y-96105219D01*
X99743562Y-96112451D01*
X99762968Y-96121630D01*
X99781381Y-96132666D01*
X99798624Y-96145454D01*
X99814530Y-96159870D01*
X99828946Y-96175776D01*
X99841734Y-96193019D01*
X99852770Y-96211432D01*
X99861949Y-96230838D01*
X99869181Y-96251050D01*
X99874397Y-96271874D01*
X99877547Y-96293109D01*
X99878600Y-96314550D01*
X99878600Y-96827050D01*
X99877547Y-96848491D01*
X99874397Y-96869726D01*
X99869181Y-96890550D01*
X99861949Y-96910762D01*
X99852770Y-96930168D01*
X99841734Y-96948581D01*
X99828946Y-96965824D01*
X99814530Y-96981730D01*
X99798624Y-96996146D01*
X99781381Y-97008934D01*
X99762968Y-97019970D01*
X99743562Y-97029149D01*
X99723350Y-97036381D01*
X99702526Y-97041597D01*
X99681291Y-97044747D01*
X99659850Y-97045800D01*
X99222350Y-97045800D01*
X99200909Y-97044747D01*
X99179674Y-97041597D01*
X99158850Y-97036381D01*
X99138638Y-97029149D01*
X99119232Y-97019970D01*
X99100819Y-97008934D01*
X99083576Y-96996146D01*
X99067670Y-96981730D01*
X99053254Y-96965824D01*
X99040466Y-96948581D01*
X99029430Y-96930168D01*
X99020251Y-96910762D01*
X99013019Y-96890550D01*
X99007803Y-96869726D01*
X99004653Y-96848491D01*
X99003600Y-96827050D01*
X99003600Y-96314550D01*
X99004653Y-96293109D01*
X99007803Y-96271874D01*
X99013019Y-96251050D01*
X99020251Y-96230838D01*
X99029430Y-96211432D01*
X99040466Y-96193019D01*
X99053254Y-96175776D01*
X99067670Y-96159870D01*
X99083576Y-96145454D01*
X99100819Y-96132666D01*
X99119232Y-96121630D01*
X99138638Y-96112451D01*
X99158850Y-96105219D01*
X99179674Y-96100003D01*
X99200909Y-96096853D01*
X99222350Y-96095800D01*
X99659850Y-96095800D01*
X99681291Y-96096853D01*
X99681291Y-96096853D01*
G37*
D12*
X99441100Y-96570800D03*
D10*
G36*
X98106291Y-96096853D02*
X98127526Y-96100003D01*
X98148350Y-96105219D01*
X98168562Y-96112451D01*
X98187968Y-96121630D01*
X98206381Y-96132666D01*
X98223624Y-96145454D01*
X98239530Y-96159870D01*
X98253946Y-96175776D01*
X98266734Y-96193019D01*
X98277770Y-96211432D01*
X98286949Y-96230838D01*
X98294181Y-96251050D01*
X98299397Y-96271874D01*
X98302547Y-96293109D01*
X98303600Y-96314550D01*
X98303600Y-96827050D01*
X98302547Y-96848491D01*
X98299397Y-96869726D01*
X98294181Y-96890550D01*
X98286949Y-96910762D01*
X98277770Y-96930168D01*
X98266734Y-96948581D01*
X98253946Y-96965824D01*
X98239530Y-96981730D01*
X98223624Y-96996146D01*
X98206381Y-97008934D01*
X98187968Y-97019970D01*
X98168562Y-97029149D01*
X98148350Y-97036381D01*
X98127526Y-97041597D01*
X98106291Y-97044747D01*
X98084850Y-97045800D01*
X97647350Y-97045800D01*
X97625909Y-97044747D01*
X97604674Y-97041597D01*
X97583850Y-97036381D01*
X97563638Y-97029149D01*
X97544232Y-97019970D01*
X97525819Y-97008934D01*
X97508576Y-96996146D01*
X97492670Y-96981730D01*
X97478254Y-96965824D01*
X97465466Y-96948581D01*
X97454430Y-96930168D01*
X97445251Y-96910762D01*
X97438019Y-96890550D01*
X97432803Y-96869726D01*
X97429653Y-96848491D01*
X97428600Y-96827050D01*
X97428600Y-96314550D01*
X97429653Y-96293109D01*
X97432803Y-96271874D01*
X97438019Y-96251050D01*
X97445251Y-96230838D01*
X97454430Y-96211432D01*
X97465466Y-96193019D01*
X97478254Y-96175776D01*
X97492670Y-96159870D01*
X97508576Y-96145454D01*
X97525819Y-96132666D01*
X97544232Y-96121630D01*
X97563638Y-96112451D01*
X97583850Y-96105219D01*
X97604674Y-96100003D01*
X97625909Y-96096853D01*
X97647350Y-96095800D01*
X98084850Y-96095800D01*
X98106291Y-96096853D01*
X98106291Y-96096853D01*
G37*
D12*
X97866100Y-96570800D03*
G04 #@! TD*
D13*
G04 #@! TO.C,U4*
X107032000Y-66761000D03*
X107032000Y-66111000D03*
X107032000Y-65461000D03*
X107032000Y-64811000D03*
X112932000Y-64811000D03*
X112932000Y-65461000D03*
X112932000Y-66111000D03*
X112932000Y-66761000D03*
G04 #@! TD*
D10*
G04 #@! TO.C,R12*
G36*
X103668791Y-72982853D02*
X103690026Y-72986003D01*
X103710850Y-72991219D01*
X103731062Y-72998451D01*
X103750468Y-73007630D01*
X103768881Y-73018666D01*
X103786124Y-73031454D01*
X103802030Y-73045870D01*
X103816446Y-73061776D01*
X103829234Y-73079019D01*
X103840270Y-73097432D01*
X103849449Y-73116838D01*
X103856681Y-73137050D01*
X103861897Y-73157874D01*
X103865047Y-73179109D01*
X103866100Y-73200550D01*
X103866100Y-73713050D01*
X103865047Y-73734491D01*
X103861897Y-73755726D01*
X103856681Y-73776550D01*
X103849449Y-73796762D01*
X103840270Y-73816168D01*
X103829234Y-73834581D01*
X103816446Y-73851824D01*
X103802030Y-73867730D01*
X103786124Y-73882146D01*
X103768881Y-73894934D01*
X103750468Y-73905970D01*
X103731062Y-73915149D01*
X103710850Y-73922381D01*
X103690026Y-73927597D01*
X103668791Y-73930747D01*
X103647350Y-73931800D01*
X103209850Y-73931800D01*
X103188409Y-73930747D01*
X103167174Y-73927597D01*
X103146350Y-73922381D01*
X103126138Y-73915149D01*
X103106732Y-73905970D01*
X103088319Y-73894934D01*
X103071076Y-73882146D01*
X103055170Y-73867730D01*
X103040754Y-73851824D01*
X103027966Y-73834581D01*
X103016930Y-73816168D01*
X103007751Y-73796762D01*
X103000519Y-73776550D01*
X102995303Y-73755726D01*
X102992153Y-73734491D01*
X102991100Y-73713050D01*
X102991100Y-73200550D01*
X102992153Y-73179109D01*
X102995303Y-73157874D01*
X103000519Y-73137050D01*
X103007751Y-73116838D01*
X103016930Y-73097432D01*
X103027966Y-73079019D01*
X103040754Y-73061776D01*
X103055170Y-73045870D01*
X103071076Y-73031454D01*
X103088319Y-73018666D01*
X103106732Y-73007630D01*
X103126138Y-72998451D01*
X103146350Y-72991219D01*
X103167174Y-72986003D01*
X103188409Y-72982853D01*
X103209850Y-72981800D01*
X103647350Y-72981800D01*
X103668791Y-72982853D01*
X103668791Y-72982853D01*
G37*
D12*
X103428600Y-73456800D03*
D10*
G36*
X105243791Y-72982853D02*
X105265026Y-72986003D01*
X105285850Y-72991219D01*
X105306062Y-72998451D01*
X105325468Y-73007630D01*
X105343881Y-73018666D01*
X105361124Y-73031454D01*
X105377030Y-73045870D01*
X105391446Y-73061776D01*
X105404234Y-73079019D01*
X105415270Y-73097432D01*
X105424449Y-73116838D01*
X105431681Y-73137050D01*
X105436897Y-73157874D01*
X105440047Y-73179109D01*
X105441100Y-73200550D01*
X105441100Y-73713050D01*
X105440047Y-73734491D01*
X105436897Y-73755726D01*
X105431681Y-73776550D01*
X105424449Y-73796762D01*
X105415270Y-73816168D01*
X105404234Y-73834581D01*
X105391446Y-73851824D01*
X105377030Y-73867730D01*
X105361124Y-73882146D01*
X105343881Y-73894934D01*
X105325468Y-73905970D01*
X105306062Y-73915149D01*
X105285850Y-73922381D01*
X105265026Y-73927597D01*
X105243791Y-73930747D01*
X105222350Y-73931800D01*
X104784850Y-73931800D01*
X104763409Y-73930747D01*
X104742174Y-73927597D01*
X104721350Y-73922381D01*
X104701138Y-73915149D01*
X104681732Y-73905970D01*
X104663319Y-73894934D01*
X104646076Y-73882146D01*
X104630170Y-73867730D01*
X104615754Y-73851824D01*
X104602966Y-73834581D01*
X104591930Y-73816168D01*
X104582751Y-73796762D01*
X104575519Y-73776550D01*
X104570303Y-73755726D01*
X104567153Y-73734491D01*
X104566100Y-73713050D01*
X104566100Y-73200550D01*
X104567153Y-73179109D01*
X104570303Y-73157874D01*
X104575519Y-73137050D01*
X104582751Y-73116838D01*
X104591930Y-73097432D01*
X104602966Y-73079019D01*
X104615754Y-73061776D01*
X104630170Y-73045870D01*
X104646076Y-73031454D01*
X104663319Y-73018666D01*
X104681732Y-73007630D01*
X104701138Y-72998451D01*
X104721350Y-72991219D01*
X104742174Y-72986003D01*
X104763409Y-72982853D01*
X104784850Y-72981800D01*
X105222350Y-72981800D01*
X105243791Y-72982853D01*
X105243791Y-72982853D01*
G37*
D12*
X105003600Y-73456800D03*
G04 #@! TD*
D10*
G04 #@! TO.C,C2*
G36*
X101572142Y-75963074D02*
X101595803Y-75966584D01*
X101619007Y-75972396D01*
X101641529Y-75980454D01*
X101663153Y-75990682D01*
X101683670Y-76002979D01*
X101702883Y-76017229D01*
X101720607Y-76033293D01*
X101736671Y-76051017D01*
X101750921Y-76070230D01*
X101763218Y-76090747D01*
X101773446Y-76112371D01*
X101781504Y-76134893D01*
X101787316Y-76158097D01*
X101790826Y-76181758D01*
X101792000Y-76205650D01*
X101792000Y-76693150D01*
X101790826Y-76717042D01*
X101787316Y-76740703D01*
X101781504Y-76763907D01*
X101773446Y-76786429D01*
X101763218Y-76808053D01*
X101750921Y-76828570D01*
X101736671Y-76847783D01*
X101720607Y-76865507D01*
X101702883Y-76881571D01*
X101683670Y-76895821D01*
X101663153Y-76908118D01*
X101641529Y-76918346D01*
X101619007Y-76926404D01*
X101595803Y-76932216D01*
X101572142Y-76935726D01*
X101548250Y-76936900D01*
X100635750Y-76936900D01*
X100611858Y-76935726D01*
X100588197Y-76932216D01*
X100564993Y-76926404D01*
X100542471Y-76918346D01*
X100520847Y-76908118D01*
X100500330Y-76895821D01*
X100481117Y-76881571D01*
X100463393Y-76865507D01*
X100447329Y-76847783D01*
X100433079Y-76828570D01*
X100420782Y-76808053D01*
X100410554Y-76786429D01*
X100402496Y-76763907D01*
X100396684Y-76740703D01*
X100393174Y-76717042D01*
X100392000Y-76693150D01*
X100392000Y-76205650D01*
X100393174Y-76181758D01*
X100396684Y-76158097D01*
X100402496Y-76134893D01*
X100410554Y-76112371D01*
X100420782Y-76090747D01*
X100433079Y-76070230D01*
X100447329Y-76051017D01*
X100463393Y-76033293D01*
X100481117Y-76017229D01*
X100500330Y-76002979D01*
X100520847Y-75990682D01*
X100542471Y-75980454D01*
X100564993Y-75972396D01*
X100588197Y-75966584D01*
X100611858Y-75963074D01*
X100635750Y-75961900D01*
X101548250Y-75961900D01*
X101572142Y-75963074D01*
X101572142Y-75963074D01*
G37*
D11*
X101092000Y-76449400D03*
D10*
G36*
X101572142Y-74088074D02*
X101595803Y-74091584D01*
X101619007Y-74097396D01*
X101641529Y-74105454D01*
X101663153Y-74115682D01*
X101683670Y-74127979D01*
X101702883Y-74142229D01*
X101720607Y-74158293D01*
X101736671Y-74176017D01*
X101750921Y-74195230D01*
X101763218Y-74215747D01*
X101773446Y-74237371D01*
X101781504Y-74259893D01*
X101787316Y-74283097D01*
X101790826Y-74306758D01*
X101792000Y-74330650D01*
X101792000Y-74818150D01*
X101790826Y-74842042D01*
X101787316Y-74865703D01*
X101781504Y-74888907D01*
X101773446Y-74911429D01*
X101763218Y-74933053D01*
X101750921Y-74953570D01*
X101736671Y-74972783D01*
X101720607Y-74990507D01*
X101702883Y-75006571D01*
X101683670Y-75020821D01*
X101663153Y-75033118D01*
X101641529Y-75043346D01*
X101619007Y-75051404D01*
X101595803Y-75057216D01*
X101572142Y-75060726D01*
X101548250Y-75061900D01*
X100635750Y-75061900D01*
X100611858Y-75060726D01*
X100588197Y-75057216D01*
X100564993Y-75051404D01*
X100542471Y-75043346D01*
X100520847Y-75033118D01*
X100500330Y-75020821D01*
X100481117Y-75006571D01*
X100463393Y-74990507D01*
X100447329Y-74972783D01*
X100433079Y-74953570D01*
X100420782Y-74933053D01*
X100410554Y-74911429D01*
X100402496Y-74888907D01*
X100396684Y-74865703D01*
X100393174Y-74842042D01*
X100392000Y-74818150D01*
X100392000Y-74330650D01*
X100393174Y-74306758D01*
X100396684Y-74283097D01*
X100402496Y-74259893D01*
X100410554Y-74237371D01*
X100420782Y-74215747D01*
X100433079Y-74195230D01*
X100447329Y-74176017D01*
X100463393Y-74158293D01*
X100481117Y-74142229D01*
X100500330Y-74127979D01*
X100520847Y-74115682D01*
X100542471Y-74105454D01*
X100564993Y-74097396D01*
X100588197Y-74091584D01*
X100611858Y-74088074D01*
X100635750Y-74086900D01*
X101548250Y-74086900D01*
X101572142Y-74088074D01*
X101572142Y-74088074D01*
G37*
D11*
X101092000Y-74574400D03*
G04 #@! TD*
M02*
