M48
;DRILL file {KiCad (5.0.1)-rc2} date 5/10/2019 5:03:27 PM
;FORMAT={-:-/ absolute / inch / decimal}
FMAT,2
INCH,TZ
T1C0.0118
T2C0.0157
T3C0.0295
T4C0.0315
T5C0.0374
T6C0.0394
%
G90
G05
M72
T1
X3.724Y-2.458
X3.724Y-2.796
X3.746Y-2.164
X3.764Y-2.674
X3.862Y-4.194
X3.896Y-3.68
X3.91Y-2.8
X3.942Y-2.162
X3.98Y-2.728
X4.012Y-2.466
X4.016Y-4.062
X4.02Y-3.172
X4.024Y-2.264
X4.028Y-3.0167
X4.028Y-3.424
X4.042Y-3.904
X4.064Y-4.192
X4.104Y-2.54
X4.12Y-3.068
X4.134Y-2.684
X4.162Y-2.31
X4.172Y-3.652
X4.182Y-3.994
X4.218Y-3.936
X4.26Y-2.188
X4.268Y-2.982
X4.27Y-3.904
X4.28Y-3.416
X4.282Y-3.594
X4.31Y-2.804
X4.3365Y-2.4045
X4.344Y-3.218
X4.416Y-4.222
X4.42Y-3.796
X4.434Y-4.024
X4.46Y-2.738
X4.4745Y-2.683
X4.51Y-2.78
X4.514Y-2.488
X4.586Y-2.188
T2
X4.254Y-2.926
T3
X4.14Y-3.194
X4.14Y-3.2727
X4.14Y-3.3515
T4
X3.75Y-2.9
X3.75Y-3.
X3.75Y-3.1
X3.75Y-3.2
X3.75Y-3.3
X3.75Y-3.4
X3.75Y-3.5
X3.75Y-3.6
X3.75Y-3.7
X3.75Y-3.8
X3.75Y-3.9
X3.75Y-4.
X3.75Y-4.1
X3.75Y-4.2
X4.55Y-2.9
X4.55Y-3.
X4.55Y-3.1
X4.55Y-3.2
X4.55Y-3.3
X4.55Y-3.4
X4.55Y-3.5
X4.55Y-3.6
X4.55Y-3.7
X4.55Y-3.8
X4.55Y-3.9
X4.55Y-4.
X4.55Y-4.1
X4.55Y-4.2
T5
X4.4Y-3.3797
X4.4Y-3.4781
X4.4Y-3.5766
X4.4Y-3.675
T6
X3.8Y-2.55
X3.8984Y-2.55
X3.8016Y-2.35
X3.9Y-2.35
X4.4Y-3.025
X4.4Y-3.1234
X3.88Y-2.93
X3.88Y-3.03
X3.894Y-3.248
X3.894Y-3.348
X3.894Y-3.448
X4.22Y-4.136
X4.32Y-4.136
X4.42Y-4.136
T0
M30
