G04 #@! TF.GenerationSoftware,KiCad,Pcbnew,(5.0.1)-rc2*
G04 #@! TF.CreationDate,2019-05-10T17:03:11-07:00*
G04 #@! TF.ProjectId,weatherStation,7765617468657253746174696F6E2E6B,rev?*
G04 #@! TF.SameCoordinates,Original*
G04 #@! TF.FileFunction,Paste,Top*
G04 #@! TF.FilePolarity,Positive*
%FSLAX46Y46*%
G04 Gerber Fmt 4.6, Leading zero omitted, Abs format (unit mm)*
G04 Created by KiCad (PCBNEW (5.0.1)-rc2) date 5/10/2019 5:03:11 PM*
%MOMM*%
%LPD*%
G01*
G04 APERTURE LIST*
%ADD10C,0.100000*%
%ADD11C,0.975000*%
%ADD12C,0.875000*%
%ADD13R,1.500000X1.500000*%
%ADD14C,0.600000*%
%ADD15R,1.060000X0.650000*%
%ADD16R,0.700000X0.300000*%
%ADD17R,0.800000X1.200000*%
%ADD18R,0.650000X0.610000*%
%ADD19R,0.500000X0.250000*%
G04 APERTURE END LIST*
D10*
G04 #@! TO.C,C9*
G36*
X103266942Y-88251974D02*
X103290603Y-88255484D01*
X103313807Y-88261296D01*
X103336329Y-88269354D01*
X103357953Y-88279582D01*
X103378470Y-88291879D01*
X103397683Y-88306129D01*
X103415407Y-88322193D01*
X103431471Y-88339917D01*
X103445721Y-88359130D01*
X103458018Y-88379647D01*
X103468246Y-88401271D01*
X103476304Y-88423793D01*
X103482116Y-88446997D01*
X103485626Y-88470658D01*
X103486800Y-88494550D01*
X103486800Y-89407050D01*
X103485626Y-89430942D01*
X103482116Y-89454603D01*
X103476304Y-89477807D01*
X103468246Y-89500329D01*
X103458018Y-89521953D01*
X103445721Y-89542470D01*
X103431471Y-89561683D01*
X103415407Y-89579407D01*
X103397683Y-89595471D01*
X103378470Y-89609721D01*
X103357953Y-89622018D01*
X103336329Y-89632246D01*
X103313807Y-89640304D01*
X103290603Y-89646116D01*
X103266942Y-89649626D01*
X103243050Y-89650800D01*
X102755550Y-89650800D01*
X102731658Y-89649626D01*
X102707997Y-89646116D01*
X102684793Y-89640304D01*
X102662271Y-89632246D01*
X102640647Y-89622018D01*
X102620130Y-89609721D01*
X102600917Y-89595471D01*
X102583193Y-89579407D01*
X102567129Y-89561683D01*
X102552879Y-89542470D01*
X102540582Y-89521953D01*
X102530354Y-89500329D01*
X102522296Y-89477807D01*
X102516484Y-89454603D01*
X102512974Y-89430942D01*
X102511800Y-89407050D01*
X102511800Y-88494550D01*
X102512974Y-88470658D01*
X102516484Y-88446997D01*
X102522296Y-88423793D01*
X102530354Y-88401271D01*
X102540582Y-88379647D01*
X102552879Y-88359130D01*
X102567129Y-88339917D01*
X102583193Y-88322193D01*
X102600917Y-88306129D01*
X102620130Y-88291879D01*
X102640647Y-88279582D01*
X102662271Y-88269354D01*
X102684793Y-88261296D01*
X102707997Y-88255484D01*
X102731658Y-88251974D01*
X102755550Y-88250800D01*
X103243050Y-88250800D01*
X103266942Y-88251974D01*
X103266942Y-88251974D01*
G37*
D11*
X102999300Y-88950800D03*
D10*
G36*
X105141942Y-88251974D02*
X105165603Y-88255484D01*
X105188807Y-88261296D01*
X105211329Y-88269354D01*
X105232953Y-88279582D01*
X105253470Y-88291879D01*
X105272683Y-88306129D01*
X105290407Y-88322193D01*
X105306471Y-88339917D01*
X105320721Y-88359130D01*
X105333018Y-88379647D01*
X105343246Y-88401271D01*
X105351304Y-88423793D01*
X105357116Y-88446997D01*
X105360626Y-88470658D01*
X105361800Y-88494550D01*
X105361800Y-89407050D01*
X105360626Y-89430942D01*
X105357116Y-89454603D01*
X105351304Y-89477807D01*
X105343246Y-89500329D01*
X105333018Y-89521953D01*
X105320721Y-89542470D01*
X105306471Y-89561683D01*
X105290407Y-89579407D01*
X105272683Y-89595471D01*
X105253470Y-89609721D01*
X105232953Y-89622018D01*
X105211329Y-89632246D01*
X105188807Y-89640304D01*
X105165603Y-89646116D01*
X105141942Y-89649626D01*
X105118050Y-89650800D01*
X104630550Y-89650800D01*
X104606658Y-89649626D01*
X104582997Y-89646116D01*
X104559793Y-89640304D01*
X104537271Y-89632246D01*
X104515647Y-89622018D01*
X104495130Y-89609721D01*
X104475917Y-89595471D01*
X104458193Y-89579407D01*
X104442129Y-89561683D01*
X104427879Y-89542470D01*
X104415582Y-89521953D01*
X104405354Y-89500329D01*
X104397296Y-89477807D01*
X104391484Y-89454603D01*
X104387974Y-89430942D01*
X104386800Y-89407050D01*
X104386800Y-88494550D01*
X104387974Y-88470658D01*
X104391484Y-88446997D01*
X104397296Y-88423793D01*
X104405354Y-88401271D01*
X104415582Y-88379647D01*
X104427879Y-88359130D01*
X104442129Y-88339917D01*
X104458193Y-88322193D01*
X104475917Y-88306129D01*
X104495130Y-88291879D01*
X104515647Y-88279582D01*
X104537271Y-88269354D01*
X104559793Y-88261296D01*
X104582997Y-88255484D01*
X104606658Y-88251974D01*
X104630550Y-88250800D01*
X105118050Y-88250800D01*
X105141942Y-88251974D01*
X105141942Y-88251974D01*
G37*
D11*
X104874300Y-88950800D03*
G04 #@! TD*
D10*
G04 #@! TO.C,C16*
G36*
X108493642Y-76861274D02*
X108517303Y-76864784D01*
X108540507Y-76870596D01*
X108563029Y-76878654D01*
X108584653Y-76888882D01*
X108605170Y-76901179D01*
X108624383Y-76915429D01*
X108642107Y-76931493D01*
X108658171Y-76949217D01*
X108672421Y-76968430D01*
X108684718Y-76988947D01*
X108694946Y-77010571D01*
X108703004Y-77033093D01*
X108708816Y-77056297D01*
X108712326Y-77079958D01*
X108713500Y-77103850D01*
X108713500Y-77591350D01*
X108712326Y-77615242D01*
X108708816Y-77638903D01*
X108703004Y-77662107D01*
X108694946Y-77684629D01*
X108684718Y-77706253D01*
X108672421Y-77726770D01*
X108658171Y-77745983D01*
X108642107Y-77763707D01*
X108624383Y-77779771D01*
X108605170Y-77794021D01*
X108584653Y-77806318D01*
X108563029Y-77816546D01*
X108540507Y-77824604D01*
X108517303Y-77830416D01*
X108493642Y-77833926D01*
X108469750Y-77835100D01*
X107557250Y-77835100D01*
X107533358Y-77833926D01*
X107509697Y-77830416D01*
X107486493Y-77824604D01*
X107463971Y-77816546D01*
X107442347Y-77806318D01*
X107421830Y-77794021D01*
X107402617Y-77779771D01*
X107384893Y-77763707D01*
X107368829Y-77745983D01*
X107354579Y-77726770D01*
X107342282Y-77706253D01*
X107332054Y-77684629D01*
X107323996Y-77662107D01*
X107318184Y-77638903D01*
X107314674Y-77615242D01*
X107313500Y-77591350D01*
X107313500Y-77103850D01*
X107314674Y-77079958D01*
X107318184Y-77056297D01*
X107323996Y-77033093D01*
X107332054Y-77010571D01*
X107342282Y-76988947D01*
X107354579Y-76968430D01*
X107368829Y-76949217D01*
X107384893Y-76931493D01*
X107402617Y-76915429D01*
X107421830Y-76901179D01*
X107442347Y-76888882D01*
X107463971Y-76878654D01*
X107486493Y-76870596D01*
X107509697Y-76864784D01*
X107533358Y-76861274D01*
X107557250Y-76860100D01*
X108469750Y-76860100D01*
X108493642Y-76861274D01*
X108493642Y-76861274D01*
G37*
D11*
X108013500Y-77347600D03*
D10*
G36*
X108493642Y-78736274D02*
X108517303Y-78739784D01*
X108540507Y-78745596D01*
X108563029Y-78753654D01*
X108584653Y-78763882D01*
X108605170Y-78776179D01*
X108624383Y-78790429D01*
X108642107Y-78806493D01*
X108658171Y-78824217D01*
X108672421Y-78843430D01*
X108684718Y-78863947D01*
X108694946Y-78885571D01*
X108703004Y-78908093D01*
X108708816Y-78931297D01*
X108712326Y-78954958D01*
X108713500Y-78978850D01*
X108713500Y-79466350D01*
X108712326Y-79490242D01*
X108708816Y-79513903D01*
X108703004Y-79537107D01*
X108694946Y-79559629D01*
X108684718Y-79581253D01*
X108672421Y-79601770D01*
X108658171Y-79620983D01*
X108642107Y-79638707D01*
X108624383Y-79654771D01*
X108605170Y-79669021D01*
X108584653Y-79681318D01*
X108563029Y-79691546D01*
X108540507Y-79699604D01*
X108517303Y-79705416D01*
X108493642Y-79708926D01*
X108469750Y-79710100D01*
X107557250Y-79710100D01*
X107533358Y-79708926D01*
X107509697Y-79705416D01*
X107486493Y-79699604D01*
X107463971Y-79691546D01*
X107442347Y-79681318D01*
X107421830Y-79669021D01*
X107402617Y-79654771D01*
X107384893Y-79638707D01*
X107368829Y-79620983D01*
X107354579Y-79601770D01*
X107342282Y-79581253D01*
X107332054Y-79559629D01*
X107323996Y-79537107D01*
X107318184Y-79513903D01*
X107314674Y-79490242D01*
X107313500Y-79466350D01*
X107313500Y-78978850D01*
X107314674Y-78954958D01*
X107318184Y-78931297D01*
X107323996Y-78908093D01*
X107332054Y-78885571D01*
X107342282Y-78863947D01*
X107354579Y-78843430D01*
X107368829Y-78824217D01*
X107384893Y-78806493D01*
X107402617Y-78790429D01*
X107421830Y-78776179D01*
X107442347Y-78763882D01*
X107463971Y-78753654D01*
X107486493Y-78745596D01*
X107509697Y-78739784D01*
X107533358Y-78736274D01*
X107557250Y-78735100D01*
X108469750Y-78735100D01*
X108493642Y-78736274D01*
X108493642Y-78736274D01*
G37*
D11*
X108013500Y-79222600D03*
G04 #@! TD*
D10*
G04 #@! TO.C,D8*
G36*
X113297642Y-53276174D02*
X113321303Y-53279684D01*
X113344507Y-53285496D01*
X113367029Y-53293554D01*
X113388653Y-53303782D01*
X113409170Y-53316079D01*
X113428383Y-53330329D01*
X113446107Y-53346393D01*
X113462171Y-53364117D01*
X113476421Y-53383330D01*
X113488718Y-53403847D01*
X113498946Y-53425471D01*
X113507004Y-53447993D01*
X113512816Y-53471197D01*
X113516326Y-53494858D01*
X113517500Y-53518750D01*
X113517500Y-54431250D01*
X113516326Y-54455142D01*
X113512816Y-54478803D01*
X113507004Y-54502007D01*
X113498946Y-54524529D01*
X113488718Y-54546153D01*
X113476421Y-54566670D01*
X113462171Y-54585883D01*
X113446107Y-54603607D01*
X113428383Y-54619671D01*
X113409170Y-54633921D01*
X113388653Y-54646218D01*
X113367029Y-54656446D01*
X113344507Y-54664504D01*
X113321303Y-54670316D01*
X113297642Y-54673826D01*
X113273750Y-54675000D01*
X112786250Y-54675000D01*
X112762358Y-54673826D01*
X112738697Y-54670316D01*
X112715493Y-54664504D01*
X112692971Y-54656446D01*
X112671347Y-54646218D01*
X112650830Y-54633921D01*
X112631617Y-54619671D01*
X112613893Y-54603607D01*
X112597829Y-54585883D01*
X112583579Y-54566670D01*
X112571282Y-54546153D01*
X112561054Y-54524529D01*
X112552996Y-54502007D01*
X112547184Y-54478803D01*
X112543674Y-54455142D01*
X112542500Y-54431250D01*
X112542500Y-53518750D01*
X112543674Y-53494858D01*
X112547184Y-53471197D01*
X112552996Y-53447993D01*
X112561054Y-53425471D01*
X112571282Y-53403847D01*
X112583579Y-53383330D01*
X112597829Y-53364117D01*
X112613893Y-53346393D01*
X112631617Y-53330329D01*
X112650830Y-53316079D01*
X112671347Y-53303782D01*
X112692971Y-53293554D01*
X112715493Y-53285496D01*
X112738697Y-53279684D01*
X112762358Y-53276174D01*
X112786250Y-53275000D01*
X113273750Y-53275000D01*
X113297642Y-53276174D01*
X113297642Y-53276174D01*
G37*
D11*
X113030000Y-53975000D03*
D10*
G36*
X115172642Y-53276174D02*
X115196303Y-53279684D01*
X115219507Y-53285496D01*
X115242029Y-53293554D01*
X115263653Y-53303782D01*
X115284170Y-53316079D01*
X115303383Y-53330329D01*
X115321107Y-53346393D01*
X115337171Y-53364117D01*
X115351421Y-53383330D01*
X115363718Y-53403847D01*
X115373946Y-53425471D01*
X115382004Y-53447993D01*
X115387816Y-53471197D01*
X115391326Y-53494858D01*
X115392500Y-53518750D01*
X115392500Y-54431250D01*
X115391326Y-54455142D01*
X115387816Y-54478803D01*
X115382004Y-54502007D01*
X115373946Y-54524529D01*
X115363718Y-54546153D01*
X115351421Y-54566670D01*
X115337171Y-54585883D01*
X115321107Y-54603607D01*
X115303383Y-54619671D01*
X115284170Y-54633921D01*
X115263653Y-54646218D01*
X115242029Y-54656446D01*
X115219507Y-54664504D01*
X115196303Y-54670316D01*
X115172642Y-54673826D01*
X115148750Y-54675000D01*
X114661250Y-54675000D01*
X114637358Y-54673826D01*
X114613697Y-54670316D01*
X114590493Y-54664504D01*
X114567971Y-54656446D01*
X114546347Y-54646218D01*
X114525830Y-54633921D01*
X114506617Y-54619671D01*
X114488893Y-54603607D01*
X114472829Y-54585883D01*
X114458579Y-54566670D01*
X114446282Y-54546153D01*
X114436054Y-54524529D01*
X114427996Y-54502007D01*
X114422184Y-54478803D01*
X114418674Y-54455142D01*
X114417500Y-54431250D01*
X114417500Y-53518750D01*
X114418674Y-53494858D01*
X114422184Y-53471197D01*
X114427996Y-53447993D01*
X114436054Y-53425471D01*
X114446282Y-53403847D01*
X114458579Y-53383330D01*
X114472829Y-53364117D01*
X114488893Y-53346393D01*
X114506617Y-53330329D01*
X114525830Y-53316079D01*
X114546347Y-53303782D01*
X114567971Y-53293554D01*
X114590493Y-53285496D01*
X114613697Y-53279684D01*
X114637358Y-53276174D01*
X114661250Y-53275000D01*
X115148750Y-53275000D01*
X115172642Y-53276174D01*
X115172642Y-53276174D01*
G37*
D11*
X114905000Y-53975000D03*
G04 #@! TD*
D10*
G04 #@! TO.C,D9*
G36*
X113297642Y-55473274D02*
X113321303Y-55476784D01*
X113344507Y-55482596D01*
X113367029Y-55490654D01*
X113388653Y-55500882D01*
X113409170Y-55513179D01*
X113428383Y-55527429D01*
X113446107Y-55543493D01*
X113462171Y-55561217D01*
X113476421Y-55580430D01*
X113488718Y-55600947D01*
X113498946Y-55622571D01*
X113507004Y-55645093D01*
X113512816Y-55668297D01*
X113516326Y-55691958D01*
X113517500Y-55715850D01*
X113517500Y-56628350D01*
X113516326Y-56652242D01*
X113512816Y-56675903D01*
X113507004Y-56699107D01*
X113498946Y-56721629D01*
X113488718Y-56743253D01*
X113476421Y-56763770D01*
X113462171Y-56782983D01*
X113446107Y-56800707D01*
X113428383Y-56816771D01*
X113409170Y-56831021D01*
X113388653Y-56843318D01*
X113367029Y-56853546D01*
X113344507Y-56861604D01*
X113321303Y-56867416D01*
X113297642Y-56870926D01*
X113273750Y-56872100D01*
X112786250Y-56872100D01*
X112762358Y-56870926D01*
X112738697Y-56867416D01*
X112715493Y-56861604D01*
X112692971Y-56853546D01*
X112671347Y-56843318D01*
X112650830Y-56831021D01*
X112631617Y-56816771D01*
X112613893Y-56800707D01*
X112597829Y-56782983D01*
X112583579Y-56763770D01*
X112571282Y-56743253D01*
X112561054Y-56721629D01*
X112552996Y-56699107D01*
X112547184Y-56675903D01*
X112543674Y-56652242D01*
X112542500Y-56628350D01*
X112542500Y-55715850D01*
X112543674Y-55691958D01*
X112547184Y-55668297D01*
X112552996Y-55645093D01*
X112561054Y-55622571D01*
X112571282Y-55600947D01*
X112583579Y-55580430D01*
X112597829Y-55561217D01*
X112613893Y-55543493D01*
X112631617Y-55527429D01*
X112650830Y-55513179D01*
X112671347Y-55500882D01*
X112692971Y-55490654D01*
X112715493Y-55482596D01*
X112738697Y-55476784D01*
X112762358Y-55473274D01*
X112786250Y-55472100D01*
X113273750Y-55472100D01*
X113297642Y-55473274D01*
X113297642Y-55473274D01*
G37*
D11*
X113030000Y-56172100D03*
D10*
G36*
X115172642Y-55473274D02*
X115196303Y-55476784D01*
X115219507Y-55482596D01*
X115242029Y-55490654D01*
X115263653Y-55500882D01*
X115284170Y-55513179D01*
X115303383Y-55527429D01*
X115321107Y-55543493D01*
X115337171Y-55561217D01*
X115351421Y-55580430D01*
X115363718Y-55600947D01*
X115373946Y-55622571D01*
X115382004Y-55645093D01*
X115387816Y-55668297D01*
X115391326Y-55691958D01*
X115392500Y-55715850D01*
X115392500Y-56628350D01*
X115391326Y-56652242D01*
X115387816Y-56675903D01*
X115382004Y-56699107D01*
X115373946Y-56721629D01*
X115363718Y-56743253D01*
X115351421Y-56763770D01*
X115337171Y-56782983D01*
X115321107Y-56800707D01*
X115303383Y-56816771D01*
X115284170Y-56831021D01*
X115263653Y-56843318D01*
X115242029Y-56853546D01*
X115219507Y-56861604D01*
X115196303Y-56867416D01*
X115172642Y-56870926D01*
X115148750Y-56872100D01*
X114661250Y-56872100D01*
X114637358Y-56870926D01*
X114613697Y-56867416D01*
X114590493Y-56861604D01*
X114567971Y-56853546D01*
X114546347Y-56843318D01*
X114525830Y-56831021D01*
X114506617Y-56816771D01*
X114488893Y-56800707D01*
X114472829Y-56782983D01*
X114458579Y-56763770D01*
X114446282Y-56743253D01*
X114436054Y-56721629D01*
X114427996Y-56699107D01*
X114422184Y-56675903D01*
X114418674Y-56652242D01*
X114417500Y-56628350D01*
X114417500Y-55715850D01*
X114418674Y-55691958D01*
X114422184Y-55668297D01*
X114427996Y-55645093D01*
X114436054Y-55622571D01*
X114446282Y-55600947D01*
X114458579Y-55580430D01*
X114472829Y-55561217D01*
X114488893Y-55543493D01*
X114506617Y-55527429D01*
X114525830Y-55513179D01*
X114546347Y-55500882D01*
X114567971Y-55490654D01*
X114590493Y-55482596D01*
X114613697Y-55476784D01*
X114637358Y-55473274D01*
X114661250Y-55472100D01*
X115148750Y-55472100D01*
X115172642Y-55473274D01*
X115172642Y-55473274D01*
G37*
D11*
X114905000Y-56172100D03*
G04 #@! TD*
D10*
G04 #@! TO.C,D10*
G36*
X114918642Y-58597474D02*
X114942303Y-58600984D01*
X114965507Y-58606796D01*
X114988029Y-58614854D01*
X115009653Y-58625082D01*
X115030170Y-58637379D01*
X115049383Y-58651629D01*
X115067107Y-58667693D01*
X115083171Y-58685417D01*
X115097421Y-58704630D01*
X115109718Y-58725147D01*
X115119946Y-58746771D01*
X115128004Y-58769293D01*
X115133816Y-58792497D01*
X115137326Y-58816158D01*
X115138500Y-58840050D01*
X115138500Y-59752550D01*
X115137326Y-59776442D01*
X115133816Y-59800103D01*
X115128004Y-59823307D01*
X115119946Y-59845829D01*
X115109718Y-59867453D01*
X115097421Y-59887970D01*
X115083171Y-59907183D01*
X115067107Y-59924907D01*
X115049383Y-59940971D01*
X115030170Y-59955221D01*
X115009653Y-59967518D01*
X114988029Y-59977746D01*
X114965507Y-59985804D01*
X114942303Y-59991616D01*
X114918642Y-59995126D01*
X114894750Y-59996300D01*
X114407250Y-59996300D01*
X114383358Y-59995126D01*
X114359697Y-59991616D01*
X114336493Y-59985804D01*
X114313971Y-59977746D01*
X114292347Y-59967518D01*
X114271830Y-59955221D01*
X114252617Y-59940971D01*
X114234893Y-59924907D01*
X114218829Y-59907183D01*
X114204579Y-59887970D01*
X114192282Y-59867453D01*
X114182054Y-59845829D01*
X114173996Y-59823307D01*
X114168184Y-59800103D01*
X114164674Y-59776442D01*
X114163500Y-59752550D01*
X114163500Y-58840050D01*
X114164674Y-58816158D01*
X114168184Y-58792497D01*
X114173996Y-58769293D01*
X114182054Y-58746771D01*
X114192282Y-58725147D01*
X114204579Y-58704630D01*
X114218829Y-58685417D01*
X114234893Y-58667693D01*
X114252617Y-58651629D01*
X114271830Y-58637379D01*
X114292347Y-58625082D01*
X114313971Y-58614854D01*
X114336493Y-58606796D01*
X114359697Y-58600984D01*
X114383358Y-58597474D01*
X114407250Y-58596300D01*
X114894750Y-58596300D01*
X114918642Y-58597474D01*
X114918642Y-58597474D01*
G37*
D11*
X114651000Y-59296300D03*
D10*
G36*
X113043642Y-58597474D02*
X113067303Y-58600984D01*
X113090507Y-58606796D01*
X113113029Y-58614854D01*
X113134653Y-58625082D01*
X113155170Y-58637379D01*
X113174383Y-58651629D01*
X113192107Y-58667693D01*
X113208171Y-58685417D01*
X113222421Y-58704630D01*
X113234718Y-58725147D01*
X113244946Y-58746771D01*
X113253004Y-58769293D01*
X113258816Y-58792497D01*
X113262326Y-58816158D01*
X113263500Y-58840050D01*
X113263500Y-59752550D01*
X113262326Y-59776442D01*
X113258816Y-59800103D01*
X113253004Y-59823307D01*
X113244946Y-59845829D01*
X113234718Y-59867453D01*
X113222421Y-59887970D01*
X113208171Y-59907183D01*
X113192107Y-59924907D01*
X113174383Y-59940971D01*
X113155170Y-59955221D01*
X113134653Y-59967518D01*
X113113029Y-59977746D01*
X113090507Y-59985804D01*
X113067303Y-59991616D01*
X113043642Y-59995126D01*
X113019750Y-59996300D01*
X112532250Y-59996300D01*
X112508358Y-59995126D01*
X112484697Y-59991616D01*
X112461493Y-59985804D01*
X112438971Y-59977746D01*
X112417347Y-59967518D01*
X112396830Y-59955221D01*
X112377617Y-59940971D01*
X112359893Y-59924907D01*
X112343829Y-59907183D01*
X112329579Y-59887970D01*
X112317282Y-59867453D01*
X112307054Y-59845829D01*
X112298996Y-59823307D01*
X112293184Y-59800103D01*
X112289674Y-59776442D01*
X112288500Y-59752550D01*
X112288500Y-58840050D01*
X112289674Y-58816158D01*
X112293184Y-58792497D01*
X112298996Y-58769293D01*
X112307054Y-58746771D01*
X112317282Y-58725147D01*
X112329579Y-58704630D01*
X112343829Y-58685417D01*
X112359893Y-58667693D01*
X112377617Y-58651629D01*
X112396830Y-58637379D01*
X112417347Y-58625082D01*
X112438971Y-58614854D01*
X112461493Y-58606796D01*
X112484697Y-58600984D01*
X112508358Y-58597474D01*
X112532250Y-58596300D01*
X113019750Y-58596300D01*
X113043642Y-58597474D01*
X113043642Y-58597474D01*
G37*
D11*
X112776000Y-59296300D03*
G04 #@! TD*
D10*
G04 #@! TO.C,R17*
G36*
X103757291Y-101442853D02*
X103778526Y-101446003D01*
X103799350Y-101451219D01*
X103819562Y-101458451D01*
X103838968Y-101467630D01*
X103857381Y-101478666D01*
X103874624Y-101491454D01*
X103890530Y-101505870D01*
X103904946Y-101521776D01*
X103917734Y-101539019D01*
X103928770Y-101557432D01*
X103937949Y-101576838D01*
X103945181Y-101597050D01*
X103950397Y-101617874D01*
X103953547Y-101639109D01*
X103954600Y-101660550D01*
X103954600Y-102098050D01*
X103953547Y-102119491D01*
X103950397Y-102140726D01*
X103945181Y-102161550D01*
X103937949Y-102181762D01*
X103928770Y-102201168D01*
X103917734Y-102219581D01*
X103904946Y-102236824D01*
X103890530Y-102252730D01*
X103874624Y-102267146D01*
X103857381Y-102279934D01*
X103838968Y-102290970D01*
X103819562Y-102300149D01*
X103799350Y-102307381D01*
X103778526Y-102312597D01*
X103757291Y-102315747D01*
X103735850Y-102316800D01*
X103223350Y-102316800D01*
X103201909Y-102315747D01*
X103180674Y-102312597D01*
X103159850Y-102307381D01*
X103139638Y-102300149D01*
X103120232Y-102290970D01*
X103101819Y-102279934D01*
X103084576Y-102267146D01*
X103068670Y-102252730D01*
X103054254Y-102236824D01*
X103041466Y-102219581D01*
X103030430Y-102201168D01*
X103021251Y-102181762D01*
X103014019Y-102161550D01*
X103008803Y-102140726D01*
X103005653Y-102119491D01*
X103004600Y-102098050D01*
X103004600Y-101660550D01*
X103005653Y-101639109D01*
X103008803Y-101617874D01*
X103014019Y-101597050D01*
X103021251Y-101576838D01*
X103030430Y-101557432D01*
X103041466Y-101539019D01*
X103054254Y-101521776D01*
X103068670Y-101505870D01*
X103084576Y-101491454D01*
X103101819Y-101478666D01*
X103120232Y-101467630D01*
X103139638Y-101458451D01*
X103159850Y-101451219D01*
X103180674Y-101446003D01*
X103201909Y-101442853D01*
X103223350Y-101441800D01*
X103735850Y-101441800D01*
X103757291Y-101442853D01*
X103757291Y-101442853D01*
G37*
D12*
X103479600Y-101879300D03*
D10*
G36*
X103757291Y-103017853D02*
X103778526Y-103021003D01*
X103799350Y-103026219D01*
X103819562Y-103033451D01*
X103838968Y-103042630D01*
X103857381Y-103053666D01*
X103874624Y-103066454D01*
X103890530Y-103080870D01*
X103904946Y-103096776D01*
X103917734Y-103114019D01*
X103928770Y-103132432D01*
X103937949Y-103151838D01*
X103945181Y-103172050D01*
X103950397Y-103192874D01*
X103953547Y-103214109D01*
X103954600Y-103235550D01*
X103954600Y-103673050D01*
X103953547Y-103694491D01*
X103950397Y-103715726D01*
X103945181Y-103736550D01*
X103937949Y-103756762D01*
X103928770Y-103776168D01*
X103917734Y-103794581D01*
X103904946Y-103811824D01*
X103890530Y-103827730D01*
X103874624Y-103842146D01*
X103857381Y-103854934D01*
X103838968Y-103865970D01*
X103819562Y-103875149D01*
X103799350Y-103882381D01*
X103778526Y-103887597D01*
X103757291Y-103890747D01*
X103735850Y-103891800D01*
X103223350Y-103891800D01*
X103201909Y-103890747D01*
X103180674Y-103887597D01*
X103159850Y-103882381D01*
X103139638Y-103875149D01*
X103120232Y-103865970D01*
X103101819Y-103854934D01*
X103084576Y-103842146D01*
X103068670Y-103827730D01*
X103054254Y-103811824D01*
X103041466Y-103794581D01*
X103030430Y-103776168D01*
X103021251Y-103756762D01*
X103014019Y-103736550D01*
X103008803Y-103715726D01*
X103005653Y-103694491D01*
X103004600Y-103673050D01*
X103004600Y-103235550D01*
X103005653Y-103214109D01*
X103008803Y-103192874D01*
X103014019Y-103172050D01*
X103021251Y-103151838D01*
X103030430Y-103132432D01*
X103041466Y-103114019D01*
X103054254Y-103096776D01*
X103068670Y-103080870D01*
X103084576Y-103066454D01*
X103101819Y-103053666D01*
X103120232Y-103042630D01*
X103139638Y-103033451D01*
X103159850Y-103026219D01*
X103180674Y-103021003D01*
X103201909Y-103017853D01*
X103223350Y-103016800D01*
X103735850Y-103016800D01*
X103757291Y-103017853D01*
X103757291Y-103017853D01*
G37*
D12*
X103479600Y-103454300D03*
G04 #@! TD*
D10*
G04 #@! TO.C,R18*
G36*
X111365191Y-53501053D02*
X111386426Y-53504203D01*
X111407250Y-53509419D01*
X111427462Y-53516651D01*
X111446868Y-53525830D01*
X111465281Y-53536866D01*
X111482524Y-53549654D01*
X111498430Y-53564070D01*
X111512846Y-53579976D01*
X111525634Y-53597219D01*
X111536670Y-53615632D01*
X111545849Y-53635038D01*
X111553081Y-53655250D01*
X111558297Y-53676074D01*
X111561447Y-53697309D01*
X111562500Y-53718750D01*
X111562500Y-54231250D01*
X111561447Y-54252691D01*
X111558297Y-54273926D01*
X111553081Y-54294750D01*
X111545849Y-54314962D01*
X111536670Y-54334368D01*
X111525634Y-54352781D01*
X111512846Y-54370024D01*
X111498430Y-54385930D01*
X111482524Y-54400346D01*
X111465281Y-54413134D01*
X111446868Y-54424170D01*
X111427462Y-54433349D01*
X111407250Y-54440581D01*
X111386426Y-54445797D01*
X111365191Y-54448947D01*
X111343750Y-54450000D01*
X110906250Y-54450000D01*
X110884809Y-54448947D01*
X110863574Y-54445797D01*
X110842750Y-54440581D01*
X110822538Y-54433349D01*
X110803132Y-54424170D01*
X110784719Y-54413134D01*
X110767476Y-54400346D01*
X110751570Y-54385930D01*
X110737154Y-54370024D01*
X110724366Y-54352781D01*
X110713330Y-54334368D01*
X110704151Y-54314962D01*
X110696919Y-54294750D01*
X110691703Y-54273926D01*
X110688553Y-54252691D01*
X110687500Y-54231250D01*
X110687500Y-53718750D01*
X110688553Y-53697309D01*
X110691703Y-53676074D01*
X110696919Y-53655250D01*
X110704151Y-53635038D01*
X110713330Y-53615632D01*
X110724366Y-53597219D01*
X110737154Y-53579976D01*
X110751570Y-53564070D01*
X110767476Y-53549654D01*
X110784719Y-53536866D01*
X110803132Y-53525830D01*
X110822538Y-53516651D01*
X110842750Y-53509419D01*
X110863574Y-53504203D01*
X110884809Y-53501053D01*
X110906250Y-53500000D01*
X111343750Y-53500000D01*
X111365191Y-53501053D01*
X111365191Y-53501053D01*
G37*
D12*
X111125000Y-53975000D03*
D10*
G36*
X109790191Y-53501053D02*
X109811426Y-53504203D01*
X109832250Y-53509419D01*
X109852462Y-53516651D01*
X109871868Y-53525830D01*
X109890281Y-53536866D01*
X109907524Y-53549654D01*
X109923430Y-53564070D01*
X109937846Y-53579976D01*
X109950634Y-53597219D01*
X109961670Y-53615632D01*
X109970849Y-53635038D01*
X109978081Y-53655250D01*
X109983297Y-53676074D01*
X109986447Y-53697309D01*
X109987500Y-53718750D01*
X109987500Y-54231250D01*
X109986447Y-54252691D01*
X109983297Y-54273926D01*
X109978081Y-54294750D01*
X109970849Y-54314962D01*
X109961670Y-54334368D01*
X109950634Y-54352781D01*
X109937846Y-54370024D01*
X109923430Y-54385930D01*
X109907524Y-54400346D01*
X109890281Y-54413134D01*
X109871868Y-54424170D01*
X109852462Y-54433349D01*
X109832250Y-54440581D01*
X109811426Y-54445797D01*
X109790191Y-54448947D01*
X109768750Y-54450000D01*
X109331250Y-54450000D01*
X109309809Y-54448947D01*
X109288574Y-54445797D01*
X109267750Y-54440581D01*
X109247538Y-54433349D01*
X109228132Y-54424170D01*
X109209719Y-54413134D01*
X109192476Y-54400346D01*
X109176570Y-54385930D01*
X109162154Y-54370024D01*
X109149366Y-54352781D01*
X109138330Y-54334368D01*
X109129151Y-54314962D01*
X109121919Y-54294750D01*
X109116703Y-54273926D01*
X109113553Y-54252691D01*
X109112500Y-54231250D01*
X109112500Y-53718750D01*
X109113553Y-53697309D01*
X109116703Y-53676074D01*
X109121919Y-53655250D01*
X109129151Y-53635038D01*
X109138330Y-53615632D01*
X109149366Y-53597219D01*
X109162154Y-53579976D01*
X109176570Y-53564070D01*
X109192476Y-53549654D01*
X109209719Y-53536866D01*
X109228132Y-53525830D01*
X109247538Y-53516651D01*
X109267750Y-53509419D01*
X109288574Y-53504203D01*
X109309809Y-53501053D01*
X109331250Y-53500000D01*
X109768750Y-53500000D01*
X109790191Y-53501053D01*
X109790191Y-53501053D01*
G37*
D12*
X109550000Y-53975000D03*
G04 #@! TD*
D10*
G04 #@! TO.C,R19*
G36*
X109790191Y-55698153D02*
X109811426Y-55701303D01*
X109832250Y-55706519D01*
X109852462Y-55713751D01*
X109871868Y-55722930D01*
X109890281Y-55733966D01*
X109907524Y-55746754D01*
X109923430Y-55761170D01*
X109937846Y-55777076D01*
X109950634Y-55794319D01*
X109961670Y-55812732D01*
X109970849Y-55832138D01*
X109978081Y-55852350D01*
X109983297Y-55873174D01*
X109986447Y-55894409D01*
X109987500Y-55915850D01*
X109987500Y-56428350D01*
X109986447Y-56449791D01*
X109983297Y-56471026D01*
X109978081Y-56491850D01*
X109970849Y-56512062D01*
X109961670Y-56531468D01*
X109950634Y-56549881D01*
X109937846Y-56567124D01*
X109923430Y-56583030D01*
X109907524Y-56597446D01*
X109890281Y-56610234D01*
X109871868Y-56621270D01*
X109852462Y-56630449D01*
X109832250Y-56637681D01*
X109811426Y-56642897D01*
X109790191Y-56646047D01*
X109768750Y-56647100D01*
X109331250Y-56647100D01*
X109309809Y-56646047D01*
X109288574Y-56642897D01*
X109267750Y-56637681D01*
X109247538Y-56630449D01*
X109228132Y-56621270D01*
X109209719Y-56610234D01*
X109192476Y-56597446D01*
X109176570Y-56583030D01*
X109162154Y-56567124D01*
X109149366Y-56549881D01*
X109138330Y-56531468D01*
X109129151Y-56512062D01*
X109121919Y-56491850D01*
X109116703Y-56471026D01*
X109113553Y-56449791D01*
X109112500Y-56428350D01*
X109112500Y-55915850D01*
X109113553Y-55894409D01*
X109116703Y-55873174D01*
X109121919Y-55852350D01*
X109129151Y-55832138D01*
X109138330Y-55812732D01*
X109149366Y-55794319D01*
X109162154Y-55777076D01*
X109176570Y-55761170D01*
X109192476Y-55746754D01*
X109209719Y-55733966D01*
X109228132Y-55722930D01*
X109247538Y-55713751D01*
X109267750Y-55706519D01*
X109288574Y-55701303D01*
X109309809Y-55698153D01*
X109331250Y-55697100D01*
X109768750Y-55697100D01*
X109790191Y-55698153D01*
X109790191Y-55698153D01*
G37*
D12*
X109550000Y-56172100D03*
D10*
G36*
X111365191Y-55698153D02*
X111386426Y-55701303D01*
X111407250Y-55706519D01*
X111427462Y-55713751D01*
X111446868Y-55722930D01*
X111465281Y-55733966D01*
X111482524Y-55746754D01*
X111498430Y-55761170D01*
X111512846Y-55777076D01*
X111525634Y-55794319D01*
X111536670Y-55812732D01*
X111545849Y-55832138D01*
X111553081Y-55852350D01*
X111558297Y-55873174D01*
X111561447Y-55894409D01*
X111562500Y-55915850D01*
X111562500Y-56428350D01*
X111561447Y-56449791D01*
X111558297Y-56471026D01*
X111553081Y-56491850D01*
X111545849Y-56512062D01*
X111536670Y-56531468D01*
X111525634Y-56549881D01*
X111512846Y-56567124D01*
X111498430Y-56583030D01*
X111482524Y-56597446D01*
X111465281Y-56610234D01*
X111446868Y-56621270D01*
X111427462Y-56630449D01*
X111407250Y-56637681D01*
X111386426Y-56642897D01*
X111365191Y-56646047D01*
X111343750Y-56647100D01*
X110906250Y-56647100D01*
X110884809Y-56646047D01*
X110863574Y-56642897D01*
X110842750Y-56637681D01*
X110822538Y-56630449D01*
X110803132Y-56621270D01*
X110784719Y-56610234D01*
X110767476Y-56597446D01*
X110751570Y-56583030D01*
X110737154Y-56567124D01*
X110724366Y-56549881D01*
X110713330Y-56531468D01*
X110704151Y-56512062D01*
X110696919Y-56491850D01*
X110691703Y-56471026D01*
X110688553Y-56449791D01*
X110687500Y-56428350D01*
X110687500Y-55915850D01*
X110688553Y-55894409D01*
X110691703Y-55873174D01*
X110696919Y-55852350D01*
X110704151Y-55832138D01*
X110713330Y-55812732D01*
X110724366Y-55794319D01*
X110737154Y-55777076D01*
X110751570Y-55761170D01*
X110767476Y-55746754D01*
X110784719Y-55733966D01*
X110803132Y-55722930D01*
X110822538Y-55713751D01*
X110842750Y-55706519D01*
X110863574Y-55701303D01*
X110884809Y-55698153D01*
X110906250Y-55697100D01*
X111343750Y-55697100D01*
X111365191Y-55698153D01*
X111365191Y-55698153D01*
G37*
D12*
X111125000Y-56172100D03*
G04 #@! TD*
D10*
G04 #@! TO.C,R20*
G36*
X109688691Y-58822353D02*
X109709926Y-58825503D01*
X109730750Y-58830719D01*
X109750962Y-58837951D01*
X109770368Y-58847130D01*
X109788781Y-58858166D01*
X109806024Y-58870954D01*
X109821930Y-58885370D01*
X109836346Y-58901276D01*
X109849134Y-58918519D01*
X109860170Y-58936932D01*
X109869349Y-58956338D01*
X109876581Y-58976550D01*
X109881797Y-58997374D01*
X109884947Y-59018609D01*
X109886000Y-59040050D01*
X109886000Y-59552550D01*
X109884947Y-59573991D01*
X109881797Y-59595226D01*
X109876581Y-59616050D01*
X109869349Y-59636262D01*
X109860170Y-59655668D01*
X109849134Y-59674081D01*
X109836346Y-59691324D01*
X109821930Y-59707230D01*
X109806024Y-59721646D01*
X109788781Y-59734434D01*
X109770368Y-59745470D01*
X109750962Y-59754649D01*
X109730750Y-59761881D01*
X109709926Y-59767097D01*
X109688691Y-59770247D01*
X109667250Y-59771300D01*
X109229750Y-59771300D01*
X109208309Y-59770247D01*
X109187074Y-59767097D01*
X109166250Y-59761881D01*
X109146038Y-59754649D01*
X109126632Y-59745470D01*
X109108219Y-59734434D01*
X109090976Y-59721646D01*
X109075070Y-59707230D01*
X109060654Y-59691324D01*
X109047866Y-59674081D01*
X109036830Y-59655668D01*
X109027651Y-59636262D01*
X109020419Y-59616050D01*
X109015203Y-59595226D01*
X109012053Y-59573991D01*
X109011000Y-59552550D01*
X109011000Y-59040050D01*
X109012053Y-59018609D01*
X109015203Y-58997374D01*
X109020419Y-58976550D01*
X109027651Y-58956338D01*
X109036830Y-58936932D01*
X109047866Y-58918519D01*
X109060654Y-58901276D01*
X109075070Y-58885370D01*
X109090976Y-58870954D01*
X109108219Y-58858166D01*
X109126632Y-58847130D01*
X109146038Y-58837951D01*
X109166250Y-58830719D01*
X109187074Y-58825503D01*
X109208309Y-58822353D01*
X109229750Y-58821300D01*
X109667250Y-58821300D01*
X109688691Y-58822353D01*
X109688691Y-58822353D01*
G37*
D12*
X109448500Y-59296300D03*
D10*
G36*
X111263691Y-58822353D02*
X111284926Y-58825503D01*
X111305750Y-58830719D01*
X111325962Y-58837951D01*
X111345368Y-58847130D01*
X111363781Y-58858166D01*
X111381024Y-58870954D01*
X111396930Y-58885370D01*
X111411346Y-58901276D01*
X111424134Y-58918519D01*
X111435170Y-58936932D01*
X111444349Y-58956338D01*
X111451581Y-58976550D01*
X111456797Y-58997374D01*
X111459947Y-59018609D01*
X111461000Y-59040050D01*
X111461000Y-59552550D01*
X111459947Y-59573991D01*
X111456797Y-59595226D01*
X111451581Y-59616050D01*
X111444349Y-59636262D01*
X111435170Y-59655668D01*
X111424134Y-59674081D01*
X111411346Y-59691324D01*
X111396930Y-59707230D01*
X111381024Y-59721646D01*
X111363781Y-59734434D01*
X111345368Y-59745470D01*
X111325962Y-59754649D01*
X111305750Y-59761881D01*
X111284926Y-59767097D01*
X111263691Y-59770247D01*
X111242250Y-59771300D01*
X110804750Y-59771300D01*
X110783309Y-59770247D01*
X110762074Y-59767097D01*
X110741250Y-59761881D01*
X110721038Y-59754649D01*
X110701632Y-59745470D01*
X110683219Y-59734434D01*
X110665976Y-59721646D01*
X110650070Y-59707230D01*
X110635654Y-59691324D01*
X110622866Y-59674081D01*
X110611830Y-59655668D01*
X110602651Y-59636262D01*
X110595419Y-59616050D01*
X110590203Y-59595226D01*
X110587053Y-59573991D01*
X110586000Y-59552550D01*
X110586000Y-59040050D01*
X110587053Y-59018609D01*
X110590203Y-58997374D01*
X110595419Y-58976550D01*
X110602651Y-58956338D01*
X110611830Y-58936932D01*
X110622866Y-58918519D01*
X110635654Y-58901276D01*
X110650070Y-58885370D01*
X110665976Y-58870954D01*
X110683219Y-58858166D01*
X110701632Y-58847130D01*
X110721038Y-58837951D01*
X110741250Y-58830719D01*
X110762074Y-58825503D01*
X110783309Y-58822353D01*
X110804750Y-58821300D01*
X111242250Y-58821300D01*
X111263691Y-58822353D01*
X111263691Y-58822353D01*
G37*
D12*
X111023500Y-59296300D03*
G04 #@! TD*
D13*
G04 #@! TO.C,SW3*
X108144600Y-67856100D03*
X115544600Y-67856100D03*
G04 #@! TD*
D10*
G04 #@! TO.C,U6*
G36*
X111213903Y-99903722D02*
X111228464Y-99905882D01*
X111242743Y-99909459D01*
X111256603Y-99914418D01*
X111269910Y-99920712D01*
X111282536Y-99928280D01*
X111294359Y-99937048D01*
X111305266Y-99946934D01*
X111315152Y-99957841D01*
X111323920Y-99969664D01*
X111331488Y-99982290D01*
X111337782Y-99995597D01*
X111342741Y-100009457D01*
X111346318Y-100023736D01*
X111348478Y-100038297D01*
X111349200Y-100053000D01*
X111349200Y-100353000D01*
X111348478Y-100367703D01*
X111346318Y-100382264D01*
X111342741Y-100396543D01*
X111337782Y-100410403D01*
X111331488Y-100423710D01*
X111323920Y-100436336D01*
X111315152Y-100448159D01*
X111305266Y-100459066D01*
X111294359Y-100468952D01*
X111282536Y-100477720D01*
X111269910Y-100485288D01*
X111256603Y-100491582D01*
X111242743Y-100496541D01*
X111228464Y-100500118D01*
X111213903Y-100502278D01*
X111199200Y-100503000D01*
X109949200Y-100503000D01*
X109934497Y-100502278D01*
X109919936Y-100500118D01*
X109905657Y-100496541D01*
X109891797Y-100491582D01*
X109878490Y-100485288D01*
X109865864Y-100477720D01*
X109854041Y-100468952D01*
X109843134Y-100459066D01*
X109833248Y-100448159D01*
X109824480Y-100436336D01*
X109816912Y-100423710D01*
X109810618Y-100410403D01*
X109805659Y-100396543D01*
X109802082Y-100382264D01*
X109799922Y-100367703D01*
X109799200Y-100353000D01*
X109799200Y-100053000D01*
X109799922Y-100038297D01*
X109802082Y-100023736D01*
X109805659Y-100009457D01*
X109810618Y-99995597D01*
X109816912Y-99982290D01*
X109824480Y-99969664D01*
X109833248Y-99957841D01*
X109843134Y-99946934D01*
X109854041Y-99937048D01*
X109865864Y-99928280D01*
X109878490Y-99920712D01*
X109891797Y-99914418D01*
X109905657Y-99909459D01*
X109919936Y-99905882D01*
X109934497Y-99903722D01*
X109949200Y-99903000D01*
X111199200Y-99903000D01*
X111213903Y-99903722D01*
X111213903Y-99903722D01*
G37*
D14*
X110574200Y-100203000D03*
D10*
G36*
X111213903Y-98633722D02*
X111228464Y-98635882D01*
X111242743Y-98639459D01*
X111256603Y-98644418D01*
X111269910Y-98650712D01*
X111282536Y-98658280D01*
X111294359Y-98667048D01*
X111305266Y-98676934D01*
X111315152Y-98687841D01*
X111323920Y-98699664D01*
X111331488Y-98712290D01*
X111337782Y-98725597D01*
X111342741Y-98739457D01*
X111346318Y-98753736D01*
X111348478Y-98768297D01*
X111349200Y-98783000D01*
X111349200Y-99083000D01*
X111348478Y-99097703D01*
X111346318Y-99112264D01*
X111342741Y-99126543D01*
X111337782Y-99140403D01*
X111331488Y-99153710D01*
X111323920Y-99166336D01*
X111315152Y-99178159D01*
X111305266Y-99189066D01*
X111294359Y-99198952D01*
X111282536Y-99207720D01*
X111269910Y-99215288D01*
X111256603Y-99221582D01*
X111242743Y-99226541D01*
X111228464Y-99230118D01*
X111213903Y-99232278D01*
X111199200Y-99233000D01*
X109949200Y-99233000D01*
X109934497Y-99232278D01*
X109919936Y-99230118D01*
X109905657Y-99226541D01*
X109891797Y-99221582D01*
X109878490Y-99215288D01*
X109865864Y-99207720D01*
X109854041Y-99198952D01*
X109843134Y-99189066D01*
X109833248Y-99178159D01*
X109824480Y-99166336D01*
X109816912Y-99153710D01*
X109810618Y-99140403D01*
X109805659Y-99126543D01*
X109802082Y-99112264D01*
X109799922Y-99097703D01*
X109799200Y-99083000D01*
X109799200Y-98783000D01*
X109799922Y-98768297D01*
X109802082Y-98753736D01*
X109805659Y-98739457D01*
X109810618Y-98725597D01*
X109816912Y-98712290D01*
X109824480Y-98699664D01*
X109833248Y-98687841D01*
X109843134Y-98676934D01*
X109854041Y-98667048D01*
X109865864Y-98658280D01*
X109878490Y-98650712D01*
X109891797Y-98644418D01*
X109905657Y-98639459D01*
X109919936Y-98635882D01*
X109934497Y-98633722D01*
X109949200Y-98633000D01*
X111199200Y-98633000D01*
X111213903Y-98633722D01*
X111213903Y-98633722D01*
G37*
D14*
X110574200Y-98933000D03*
D10*
G36*
X111213903Y-97363722D02*
X111228464Y-97365882D01*
X111242743Y-97369459D01*
X111256603Y-97374418D01*
X111269910Y-97380712D01*
X111282536Y-97388280D01*
X111294359Y-97397048D01*
X111305266Y-97406934D01*
X111315152Y-97417841D01*
X111323920Y-97429664D01*
X111331488Y-97442290D01*
X111337782Y-97455597D01*
X111342741Y-97469457D01*
X111346318Y-97483736D01*
X111348478Y-97498297D01*
X111349200Y-97513000D01*
X111349200Y-97813000D01*
X111348478Y-97827703D01*
X111346318Y-97842264D01*
X111342741Y-97856543D01*
X111337782Y-97870403D01*
X111331488Y-97883710D01*
X111323920Y-97896336D01*
X111315152Y-97908159D01*
X111305266Y-97919066D01*
X111294359Y-97928952D01*
X111282536Y-97937720D01*
X111269910Y-97945288D01*
X111256603Y-97951582D01*
X111242743Y-97956541D01*
X111228464Y-97960118D01*
X111213903Y-97962278D01*
X111199200Y-97963000D01*
X109949200Y-97963000D01*
X109934497Y-97962278D01*
X109919936Y-97960118D01*
X109905657Y-97956541D01*
X109891797Y-97951582D01*
X109878490Y-97945288D01*
X109865864Y-97937720D01*
X109854041Y-97928952D01*
X109843134Y-97919066D01*
X109833248Y-97908159D01*
X109824480Y-97896336D01*
X109816912Y-97883710D01*
X109810618Y-97870403D01*
X109805659Y-97856543D01*
X109802082Y-97842264D01*
X109799922Y-97827703D01*
X109799200Y-97813000D01*
X109799200Y-97513000D01*
X109799922Y-97498297D01*
X109802082Y-97483736D01*
X109805659Y-97469457D01*
X109810618Y-97455597D01*
X109816912Y-97442290D01*
X109824480Y-97429664D01*
X109833248Y-97417841D01*
X109843134Y-97406934D01*
X109854041Y-97397048D01*
X109865864Y-97388280D01*
X109878490Y-97380712D01*
X109891797Y-97374418D01*
X109905657Y-97369459D01*
X109919936Y-97365882D01*
X109934497Y-97363722D01*
X109949200Y-97363000D01*
X111199200Y-97363000D01*
X111213903Y-97363722D01*
X111213903Y-97363722D01*
G37*
D14*
X110574200Y-97663000D03*
D10*
G36*
X111213903Y-96093722D02*
X111228464Y-96095882D01*
X111242743Y-96099459D01*
X111256603Y-96104418D01*
X111269910Y-96110712D01*
X111282536Y-96118280D01*
X111294359Y-96127048D01*
X111305266Y-96136934D01*
X111315152Y-96147841D01*
X111323920Y-96159664D01*
X111331488Y-96172290D01*
X111337782Y-96185597D01*
X111342741Y-96199457D01*
X111346318Y-96213736D01*
X111348478Y-96228297D01*
X111349200Y-96243000D01*
X111349200Y-96543000D01*
X111348478Y-96557703D01*
X111346318Y-96572264D01*
X111342741Y-96586543D01*
X111337782Y-96600403D01*
X111331488Y-96613710D01*
X111323920Y-96626336D01*
X111315152Y-96638159D01*
X111305266Y-96649066D01*
X111294359Y-96658952D01*
X111282536Y-96667720D01*
X111269910Y-96675288D01*
X111256603Y-96681582D01*
X111242743Y-96686541D01*
X111228464Y-96690118D01*
X111213903Y-96692278D01*
X111199200Y-96693000D01*
X109949200Y-96693000D01*
X109934497Y-96692278D01*
X109919936Y-96690118D01*
X109905657Y-96686541D01*
X109891797Y-96681582D01*
X109878490Y-96675288D01*
X109865864Y-96667720D01*
X109854041Y-96658952D01*
X109843134Y-96649066D01*
X109833248Y-96638159D01*
X109824480Y-96626336D01*
X109816912Y-96613710D01*
X109810618Y-96600403D01*
X109805659Y-96586543D01*
X109802082Y-96572264D01*
X109799922Y-96557703D01*
X109799200Y-96543000D01*
X109799200Y-96243000D01*
X109799922Y-96228297D01*
X109802082Y-96213736D01*
X109805659Y-96199457D01*
X109810618Y-96185597D01*
X109816912Y-96172290D01*
X109824480Y-96159664D01*
X109833248Y-96147841D01*
X109843134Y-96136934D01*
X109854041Y-96127048D01*
X109865864Y-96118280D01*
X109878490Y-96110712D01*
X109891797Y-96104418D01*
X109905657Y-96099459D01*
X109919936Y-96095882D01*
X109934497Y-96093722D01*
X109949200Y-96093000D01*
X111199200Y-96093000D01*
X111213903Y-96093722D01*
X111213903Y-96093722D01*
G37*
D14*
X110574200Y-96393000D03*
D10*
G36*
X105863903Y-96093722D02*
X105878464Y-96095882D01*
X105892743Y-96099459D01*
X105906603Y-96104418D01*
X105919910Y-96110712D01*
X105932536Y-96118280D01*
X105944359Y-96127048D01*
X105955266Y-96136934D01*
X105965152Y-96147841D01*
X105973920Y-96159664D01*
X105981488Y-96172290D01*
X105987782Y-96185597D01*
X105992741Y-96199457D01*
X105996318Y-96213736D01*
X105998478Y-96228297D01*
X105999200Y-96243000D01*
X105999200Y-96543000D01*
X105998478Y-96557703D01*
X105996318Y-96572264D01*
X105992741Y-96586543D01*
X105987782Y-96600403D01*
X105981488Y-96613710D01*
X105973920Y-96626336D01*
X105965152Y-96638159D01*
X105955266Y-96649066D01*
X105944359Y-96658952D01*
X105932536Y-96667720D01*
X105919910Y-96675288D01*
X105906603Y-96681582D01*
X105892743Y-96686541D01*
X105878464Y-96690118D01*
X105863903Y-96692278D01*
X105849200Y-96693000D01*
X104599200Y-96693000D01*
X104584497Y-96692278D01*
X104569936Y-96690118D01*
X104555657Y-96686541D01*
X104541797Y-96681582D01*
X104528490Y-96675288D01*
X104515864Y-96667720D01*
X104504041Y-96658952D01*
X104493134Y-96649066D01*
X104483248Y-96638159D01*
X104474480Y-96626336D01*
X104466912Y-96613710D01*
X104460618Y-96600403D01*
X104455659Y-96586543D01*
X104452082Y-96572264D01*
X104449922Y-96557703D01*
X104449200Y-96543000D01*
X104449200Y-96243000D01*
X104449922Y-96228297D01*
X104452082Y-96213736D01*
X104455659Y-96199457D01*
X104460618Y-96185597D01*
X104466912Y-96172290D01*
X104474480Y-96159664D01*
X104483248Y-96147841D01*
X104493134Y-96136934D01*
X104504041Y-96127048D01*
X104515864Y-96118280D01*
X104528490Y-96110712D01*
X104541797Y-96104418D01*
X104555657Y-96099459D01*
X104569936Y-96095882D01*
X104584497Y-96093722D01*
X104599200Y-96093000D01*
X105849200Y-96093000D01*
X105863903Y-96093722D01*
X105863903Y-96093722D01*
G37*
D14*
X105224200Y-96393000D03*
D10*
G36*
X105863903Y-97363722D02*
X105878464Y-97365882D01*
X105892743Y-97369459D01*
X105906603Y-97374418D01*
X105919910Y-97380712D01*
X105932536Y-97388280D01*
X105944359Y-97397048D01*
X105955266Y-97406934D01*
X105965152Y-97417841D01*
X105973920Y-97429664D01*
X105981488Y-97442290D01*
X105987782Y-97455597D01*
X105992741Y-97469457D01*
X105996318Y-97483736D01*
X105998478Y-97498297D01*
X105999200Y-97513000D01*
X105999200Y-97813000D01*
X105998478Y-97827703D01*
X105996318Y-97842264D01*
X105992741Y-97856543D01*
X105987782Y-97870403D01*
X105981488Y-97883710D01*
X105973920Y-97896336D01*
X105965152Y-97908159D01*
X105955266Y-97919066D01*
X105944359Y-97928952D01*
X105932536Y-97937720D01*
X105919910Y-97945288D01*
X105906603Y-97951582D01*
X105892743Y-97956541D01*
X105878464Y-97960118D01*
X105863903Y-97962278D01*
X105849200Y-97963000D01*
X104599200Y-97963000D01*
X104584497Y-97962278D01*
X104569936Y-97960118D01*
X104555657Y-97956541D01*
X104541797Y-97951582D01*
X104528490Y-97945288D01*
X104515864Y-97937720D01*
X104504041Y-97928952D01*
X104493134Y-97919066D01*
X104483248Y-97908159D01*
X104474480Y-97896336D01*
X104466912Y-97883710D01*
X104460618Y-97870403D01*
X104455659Y-97856543D01*
X104452082Y-97842264D01*
X104449922Y-97827703D01*
X104449200Y-97813000D01*
X104449200Y-97513000D01*
X104449922Y-97498297D01*
X104452082Y-97483736D01*
X104455659Y-97469457D01*
X104460618Y-97455597D01*
X104466912Y-97442290D01*
X104474480Y-97429664D01*
X104483248Y-97417841D01*
X104493134Y-97406934D01*
X104504041Y-97397048D01*
X104515864Y-97388280D01*
X104528490Y-97380712D01*
X104541797Y-97374418D01*
X104555657Y-97369459D01*
X104569936Y-97365882D01*
X104584497Y-97363722D01*
X104599200Y-97363000D01*
X105849200Y-97363000D01*
X105863903Y-97363722D01*
X105863903Y-97363722D01*
G37*
D14*
X105224200Y-97663000D03*
D10*
G36*
X105863903Y-98633722D02*
X105878464Y-98635882D01*
X105892743Y-98639459D01*
X105906603Y-98644418D01*
X105919910Y-98650712D01*
X105932536Y-98658280D01*
X105944359Y-98667048D01*
X105955266Y-98676934D01*
X105965152Y-98687841D01*
X105973920Y-98699664D01*
X105981488Y-98712290D01*
X105987782Y-98725597D01*
X105992741Y-98739457D01*
X105996318Y-98753736D01*
X105998478Y-98768297D01*
X105999200Y-98783000D01*
X105999200Y-99083000D01*
X105998478Y-99097703D01*
X105996318Y-99112264D01*
X105992741Y-99126543D01*
X105987782Y-99140403D01*
X105981488Y-99153710D01*
X105973920Y-99166336D01*
X105965152Y-99178159D01*
X105955266Y-99189066D01*
X105944359Y-99198952D01*
X105932536Y-99207720D01*
X105919910Y-99215288D01*
X105906603Y-99221582D01*
X105892743Y-99226541D01*
X105878464Y-99230118D01*
X105863903Y-99232278D01*
X105849200Y-99233000D01*
X104599200Y-99233000D01*
X104584497Y-99232278D01*
X104569936Y-99230118D01*
X104555657Y-99226541D01*
X104541797Y-99221582D01*
X104528490Y-99215288D01*
X104515864Y-99207720D01*
X104504041Y-99198952D01*
X104493134Y-99189066D01*
X104483248Y-99178159D01*
X104474480Y-99166336D01*
X104466912Y-99153710D01*
X104460618Y-99140403D01*
X104455659Y-99126543D01*
X104452082Y-99112264D01*
X104449922Y-99097703D01*
X104449200Y-99083000D01*
X104449200Y-98783000D01*
X104449922Y-98768297D01*
X104452082Y-98753736D01*
X104455659Y-98739457D01*
X104460618Y-98725597D01*
X104466912Y-98712290D01*
X104474480Y-98699664D01*
X104483248Y-98687841D01*
X104493134Y-98676934D01*
X104504041Y-98667048D01*
X104515864Y-98658280D01*
X104528490Y-98650712D01*
X104541797Y-98644418D01*
X104555657Y-98639459D01*
X104569936Y-98635882D01*
X104584497Y-98633722D01*
X104599200Y-98633000D01*
X105849200Y-98633000D01*
X105863903Y-98633722D01*
X105863903Y-98633722D01*
G37*
D14*
X105224200Y-98933000D03*
D10*
G36*
X105863903Y-99903722D02*
X105878464Y-99905882D01*
X105892743Y-99909459D01*
X105906603Y-99914418D01*
X105919910Y-99920712D01*
X105932536Y-99928280D01*
X105944359Y-99937048D01*
X105955266Y-99946934D01*
X105965152Y-99957841D01*
X105973920Y-99969664D01*
X105981488Y-99982290D01*
X105987782Y-99995597D01*
X105992741Y-100009457D01*
X105996318Y-100023736D01*
X105998478Y-100038297D01*
X105999200Y-100053000D01*
X105999200Y-100353000D01*
X105998478Y-100367703D01*
X105996318Y-100382264D01*
X105992741Y-100396543D01*
X105987782Y-100410403D01*
X105981488Y-100423710D01*
X105973920Y-100436336D01*
X105965152Y-100448159D01*
X105955266Y-100459066D01*
X105944359Y-100468952D01*
X105932536Y-100477720D01*
X105919910Y-100485288D01*
X105906603Y-100491582D01*
X105892743Y-100496541D01*
X105878464Y-100500118D01*
X105863903Y-100502278D01*
X105849200Y-100503000D01*
X104599200Y-100503000D01*
X104584497Y-100502278D01*
X104569936Y-100500118D01*
X104555657Y-100496541D01*
X104541797Y-100491582D01*
X104528490Y-100485288D01*
X104515864Y-100477720D01*
X104504041Y-100468952D01*
X104493134Y-100459066D01*
X104483248Y-100448159D01*
X104474480Y-100436336D01*
X104466912Y-100423710D01*
X104460618Y-100410403D01*
X104455659Y-100396543D01*
X104452082Y-100382264D01*
X104449922Y-100367703D01*
X104449200Y-100353000D01*
X104449200Y-100053000D01*
X104449922Y-100038297D01*
X104452082Y-100023736D01*
X104455659Y-100009457D01*
X104460618Y-99995597D01*
X104466912Y-99982290D01*
X104474480Y-99969664D01*
X104483248Y-99957841D01*
X104493134Y-99946934D01*
X104504041Y-99937048D01*
X104515864Y-99928280D01*
X104528490Y-99920712D01*
X104541797Y-99914418D01*
X104555657Y-99909459D01*
X104569936Y-99905882D01*
X104584497Y-99903722D01*
X104599200Y-99903000D01*
X105849200Y-99903000D01*
X105863903Y-99903722D01*
X105863903Y-99903722D01*
G37*
D14*
X105224200Y-100203000D03*
G04 #@! TD*
D15*
G04 #@! TO.C,U7*
X100566400Y-103972400D03*
X100566400Y-103022400D03*
X100566400Y-102072400D03*
X98366400Y-102072400D03*
X98366400Y-103972400D03*
X98366400Y-103022400D03*
G04 #@! TD*
D16*
G04 #@! TO.C,U11*
X105121200Y-92190000D03*
X105121200Y-91690000D03*
X105121200Y-91190000D03*
X105121200Y-90690000D03*
X107121200Y-90690000D03*
X107121200Y-91190000D03*
X107121200Y-91690000D03*
X107121200Y-92190000D03*
D17*
X106121200Y-91440000D03*
G04 #@! TD*
D18*
G04 #@! TO.C,U13*
X104140000Y-77000000D03*
X104140000Y-76200000D03*
X104140000Y-75400000D03*
D19*
X103190000Y-77200000D03*
X103190000Y-76700000D03*
X103190000Y-76200000D03*
X103190000Y-75700000D03*
X103190000Y-75200000D03*
X105090000Y-75200000D03*
X105090000Y-75700000D03*
X105090000Y-76200000D03*
X105090000Y-76700000D03*
X105090000Y-77200000D03*
G04 #@! TD*
D10*
G04 #@! TO.C,R9*
G36*
X104126191Y-70290453D02*
X104147426Y-70293603D01*
X104168250Y-70298819D01*
X104188462Y-70306051D01*
X104207868Y-70315230D01*
X104226281Y-70326266D01*
X104243524Y-70339054D01*
X104259430Y-70353470D01*
X104273846Y-70369376D01*
X104286634Y-70386619D01*
X104297670Y-70405032D01*
X104306849Y-70424438D01*
X104314081Y-70444650D01*
X104319297Y-70465474D01*
X104322447Y-70486709D01*
X104323500Y-70508150D01*
X104323500Y-71020650D01*
X104322447Y-71042091D01*
X104319297Y-71063326D01*
X104314081Y-71084150D01*
X104306849Y-71104362D01*
X104297670Y-71123768D01*
X104286634Y-71142181D01*
X104273846Y-71159424D01*
X104259430Y-71175330D01*
X104243524Y-71189746D01*
X104226281Y-71202534D01*
X104207868Y-71213570D01*
X104188462Y-71222749D01*
X104168250Y-71229981D01*
X104147426Y-71235197D01*
X104126191Y-71238347D01*
X104104750Y-71239400D01*
X103667250Y-71239400D01*
X103645809Y-71238347D01*
X103624574Y-71235197D01*
X103603750Y-71229981D01*
X103583538Y-71222749D01*
X103564132Y-71213570D01*
X103545719Y-71202534D01*
X103528476Y-71189746D01*
X103512570Y-71175330D01*
X103498154Y-71159424D01*
X103485366Y-71142181D01*
X103474330Y-71123768D01*
X103465151Y-71104362D01*
X103457919Y-71084150D01*
X103452703Y-71063326D01*
X103449553Y-71042091D01*
X103448500Y-71020650D01*
X103448500Y-70508150D01*
X103449553Y-70486709D01*
X103452703Y-70465474D01*
X103457919Y-70444650D01*
X103465151Y-70424438D01*
X103474330Y-70405032D01*
X103485366Y-70386619D01*
X103498154Y-70369376D01*
X103512570Y-70353470D01*
X103528476Y-70339054D01*
X103545719Y-70326266D01*
X103564132Y-70315230D01*
X103583538Y-70306051D01*
X103603750Y-70298819D01*
X103624574Y-70293603D01*
X103645809Y-70290453D01*
X103667250Y-70289400D01*
X104104750Y-70289400D01*
X104126191Y-70290453D01*
X104126191Y-70290453D01*
G37*
D12*
X103886000Y-70764400D03*
D10*
G36*
X102551191Y-70290453D02*
X102572426Y-70293603D01*
X102593250Y-70298819D01*
X102613462Y-70306051D01*
X102632868Y-70315230D01*
X102651281Y-70326266D01*
X102668524Y-70339054D01*
X102684430Y-70353470D01*
X102698846Y-70369376D01*
X102711634Y-70386619D01*
X102722670Y-70405032D01*
X102731849Y-70424438D01*
X102739081Y-70444650D01*
X102744297Y-70465474D01*
X102747447Y-70486709D01*
X102748500Y-70508150D01*
X102748500Y-71020650D01*
X102747447Y-71042091D01*
X102744297Y-71063326D01*
X102739081Y-71084150D01*
X102731849Y-71104362D01*
X102722670Y-71123768D01*
X102711634Y-71142181D01*
X102698846Y-71159424D01*
X102684430Y-71175330D01*
X102668524Y-71189746D01*
X102651281Y-71202534D01*
X102632868Y-71213570D01*
X102613462Y-71222749D01*
X102593250Y-71229981D01*
X102572426Y-71235197D01*
X102551191Y-71238347D01*
X102529750Y-71239400D01*
X102092250Y-71239400D01*
X102070809Y-71238347D01*
X102049574Y-71235197D01*
X102028750Y-71229981D01*
X102008538Y-71222749D01*
X101989132Y-71213570D01*
X101970719Y-71202534D01*
X101953476Y-71189746D01*
X101937570Y-71175330D01*
X101923154Y-71159424D01*
X101910366Y-71142181D01*
X101899330Y-71123768D01*
X101890151Y-71104362D01*
X101882919Y-71084150D01*
X101877703Y-71063326D01*
X101874553Y-71042091D01*
X101873500Y-71020650D01*
X101873500Y-70508150D01*
X101874553Y-70486709D01*
X101877703Y-70465474D01*
X101882919Y-70444650D01*
X101890151Y-70424438D01*
X101899330Y-70405032D01*
X101910366Y-70386619D01*
X101923154Y-70369376D01*
X101937570Y-70353470D01*
X101953476Y-70339054D01*
X101970719Y-70326266D01*
X101989132Y-70315230D01*
X102008538Y-70306051D01*
X102028750Y-70298819D01*
X102049574Y-70293603D01*
X102070809Y-70290453D01*
X102092250Y-70289400D01*
X102529750Y-70289400D01*
X102551191Y-70290453D01*
X102551191Y-70290453D01*
G37*
D12*
X102311000Y-70764400D03*
G04 #@! TD*
D10*
G04 #@! TO.C,R10*
G36*
X107313291Y-72156753D02*
X107334526Y-72159903D01*
X107355350Y-72165119D01*
X107375562Y-72172351D01*
X107394968Y-72181530D01*
X107413381Y-72192566D01*
X107430624Y-72205354D01*
X107446530Y-72219770D01*
X107460946Y-72235676D01*
X107473734Y-72252919D01*
X107484770Y-72271332D01*
X107493949Y-72290738D01*
X107501181Y-72310950D01*
X107506397Y-72331774D01*
X107509547Y-72353009D01*
X107510600Y-72374450D01*
X107510600Y-72811950D01*
X107509547Y-72833391D01*
X107506397Y-72854626D01*
X107501181Y-72875450D01*
X107493949Y-72895662D01*
X107484770Y-72915068D01*
X107473734Y-72933481D01*
X107460946Y-72950724D01*
X107446530Y-72966630D01*
X107430624Y-72981046D01*
X107413381Y-72993834D01*
X107394968Y-73004870D01*
X107375562Y-73014049D01*
X107355350Y-73021281D01*
X107334526Y-73026497D01*
X107313291Y-73029647D01*
X107291850Y-73030700D01*
X106779350Y-73030700D01*
X106757909Y-73029647D01*
X106736674Y-73026497D01*
X106715850Y-73021281D01*
X106695638Y-73014049D01*
X106676232Y-73004870D01*
X106657819Y-72993834D01*
X106640576Y-72981046D01*
X106624670Y-72966630D01*
X106610254Y-72950724D01*
X106597466Y-72933481D01*
X106586430Y-72915068D01*
X106577251Y-72895662D01*
X106570019Y-72875450D01*
X106564803Y-72854626D01*
X106561653Y-72833391D01*
X106560600Y-72811950D01*
X106560600Y-72374450D01*
X106561653Y-72353009D01*
X106564803Y-72331774D01*
X106570019Y-72310950D01*
X106577251Y-72290738D01*
X106586430Y-72271332D01*
X106597466Y-72252919D01*
X106610254Y-72235676D01*
X106624670Y-72219770D01*
X106640576Y-72205354D01*
X106657819Y-72192566D01*
X106676232Y-72181530D01*
X106695638Y-72172351D01*
X106715850Y-72165119D01*
X106736674Y-72159903D01*
X106757909Y-72156753D01*
X106779350Y-72155700D01*
X107291850Y-72155700D01*
X107313291Y-72156753D01*
X107313291Y-72156753D01*
G37*
D12*
X107035600Y-72593200D03*
D10*
G36*
X107313291Y-70581753D02*
X107334526Y-70584903D01*
X107355350Y-70590119D01*
X107375562Y-70597351D01*
X107394968Y-70606530D01*
X107413381Y-70617566D01*
X107430624Y-70630354D01*
X107446530Y-70644770D01*
X107460946Y-70660676D01*
X107473734Y-70677919D01*
X107484770Y-70696332D01*
X107493949Y-70715738D01*
X107501181Y-70735950D01*
X107506397Y-70756774D01*
X107509547Y-70778009D01*
X107510600Y-70799450D01*
X107510600Y-71236950D01*
X107509547Y-71258391D01*
X107506397Y-71279626D01*
X107501181Y-71300450D01*
X107493949Y-71320662D01*
X107484770Y-71340068D01*
X107473734Y-71358481D01*
X107460946Y-71375724D01*
X107446530Y-71391630D01*
X107430624Y-71406046D01*
X107413381Y-71418834D01*
X107394968Y-71429870D01*
X107375562Y-71439049D01*
X107355350Y-71446281D01*
X107334526Y-71451497D01*
X107313291Y-71454647D01*
X107291850Y-71455700D01*
X106779350Y-71455700D01*
X106757909Y-71454647D01*
X106736674Y-71451497D01*
X106715850Y-71446281D01*
X106695638Y-71439049D01*
X106676232Y-71429870D01*
X106657819Y-71418834D01*
X106640576Y-71406046D01*
X106624670Y-71391630D01*
X106610254Y-71375724D01*
X106597466Y-71358481D01*
X106586430Y-71340068D01*
X106577251Y-71320662D01*
X106570019Y-71300450D01*
X106564803Y-71279626D01*
X106561653Y-71258391D01*
X106560600Y-71236950D01*
X106560600Y-70799450D01*
X106561653Y-70778009D01*
X106564803Y-70756774D01*
X106570019Y-70735950D01*
X106577251Y-70715738D01*
X106586430Y-70696332D01*
X106597466Y-70677919D01*
X106610254Y-70660676D01*
X106624670Y-70644770D01*
X106640576Y-70630354D01*
X106657819Y-70617566D01*
X106676232Y-70606530D01*
X106695638Y-70597351D01*
X106715850Y-70590119D01*
X106736674Y-70584903D01*
X106757909Y-70581753D01*
X106779350Y-70580700D01*
X107291850Y-70580700D01*
X107313291Y-70581753D01*
X107313291Y-70581753D01*
G37*
D12*
X107035600Y-71018200D03*
G04 #@! TD*
D10*
G04 #@! TO.C,R11*
G36*
X107262491Y-73883753D02*
X107283726Y-73886903D01*
X107304550Y-73892119D01*
X107324762Y-73899351D01*
X107344168Y-73908530D01*
X107362581Y-73919566D01*
X107379824Y-73932354D01*
X107395730Y-73946770D01*
X107410146Y-73962676D01*
X107422934Y-73979919D01*
X107433970Y-73998332D01*
X107443149Y-74017738D01*
X107450381Y-74037950D01*
X107455597Y-74058774D01*
X107458747Y-74080009D01*
X107459800Y-74101450D01*
X107459800Y-74538950D01*
X107458747Y-74560391D01*
X107455597Y-74581626D01*
X107450381Y-74602450D01*
X107443149Y-74622662D01*
X107433970Y-74642068D01*
X107422934Y-74660481D01*
X107410146Y-74677724D01*
X107395730Y-74693630D01*
X107379824Y-74708046D01*
X107362581Y-74720834D01*
X107344168Y-74731870D01*
X107324762Y-74741049D01*
X107304550Y-74748281D01*
X107283726Y-74753497D01*
X107262491Y-74756647D01*
X107241050Y-74757700D01*
X106728550Y-74757700D01*
X106707109Y-74756647D01*
X106685874Y-74753497D01*
X106665050Y-74748281D01*
X106644838Y-74741049D01*
X106625432Y-74731870D01*
X106607019Y-74720834D01*
X106589776Y-74708046D01*
X106573870Y-74693630D01*
X106559454Y-74677724D01*
X106546666Y-74660481D01*
X106535630Y-74642068D01*
X106526451Y-74622662D01*
X106519219Y-74602450D01*
X106514003Y-74581626D01*
X106510853Y-74560391D01*
X106509800Y-74538950D01*
X106509800Y-74101450D01*
X106510853Y-74080009D01*
X106514003Y-74058774D01*
X106519219Y-74037950D01*
X106526451Y-74017738D01*
X106535630Y-73998332D01*
X106546666Y-73979919D01*
X106559454Y-73962676D01*
X106573870Y-73946770D01*
X106589776Y-73932354D01*
X106607019Y-73919566D01*
X106625432Y-73908530D01*
X106644838Y-73899351D01*
X106665050Y-73892119D01*
X106685874Y-73886903D01*
X106707109Y-73883753D01*
X106728550Y-73882700D01*
X107241050Y-73882700D01*
X107262491Y-73883753D01*
X107262491Y-73883753D01*
G37*
D12*
X106984800Y-74320200D03*
D10*
G36*
X107262491Y-75458753D02*
X107283726Y-75461903D01*
X107304550Y-75467119D01*
X107324762Y-75474351D01*
X107344168Y-75483530D01*
X107362581Y-75494566D01*
X107379824Y-75507354D01*
X107395730Y-75521770D01*
X107410146Y-75537676D01*
X107422934Y-75554919D01*
X107433970Y-75573332D01*
X107443149Y-75592738D01*
X107450381Y-75612950D01*
X107455597Y-75633774D01*
X107458747Y-75655009D01*
X107459800Y-75676450D01*
X107459800Y-76113950D01*
X107458747Y-76135391D01*
X107455597Y-76156626D01*
X107450381Y-76177450D01*
X107443149Y-76197662D01*
X107433970Y-76217068D01*
X107422934Y-76235481D01*
X107410146Y-76252724D01*
X107395730Y-76268630D01*
X107379824Y-76283046D01*
X107362581Y-76295834D01*
X107344168Y-76306870D01*
X107324762Y-76316049D01*
X107304550Y-76323281D01*
X107283726Y-76328497D01*
X107262491Y-76331647D01*
X107241050Y-76332700D01*
X106728550Y-76332700D01*
X106707109Y-76331647D01*
X106685874Y-76328497D01*
X106665050Y-76323281D01*
X106644838Y-76316049D01*
X106625432Y-76306870D01*
X106607019Y-76295834D01*
X106589776Y-76283046D01*
X106573870Y-76268630D01*
X106559454Y-76252724D01*
X106546666Y-76235481D01*
X106535630Y-76217068D01*
X106526451Y-76197662D01*
X106519219Y-76177450D01*
X106514003Y-76156626D01*
X106510853Y-76135391D01*
X106509800Y-76113950D01*
X106509800Y-75676450D01*
X106510853Y-75655009D01*
X106514003Y-75633774D01*
X106519219Y-75612950D01*
X106526451Y-75592738D01*
X106535630Y-75573332D01*
X106546666Y-75554919D01*
X106559454Y-75537676D01*
X106573870Y-75521770D01*
X106589776Y-75507354D01*
X106607019Y-75494566D01*
X106625432Y-75483530D01*
X106644838Y-75474351D01*
X106665050Y-75467119D01*
X106685874Y-75461903D01*
X106707109Y-75458753D01*
X106728550Y-75457700D01*
X107241050Y-75457700D01*
X107262491Y-75458753D01*
X107262491Y-75458753D01*
G37*
D12*
X106984800Y-75895200D03*
G04 #@! TD*
D10*
G04 #@! TO.C,R1*
G36*
X104151691Y-72271653D02*
X104172926Y-72274803D01*
X104193750Y-72280019D01*
X104213962Y-72287251D01*
X104233368Y-72296430D01*
X104251781Y-72307466D01*
X104269024Y-72320254D01*
X104284930Y-72334670D01*
X104299346Y-72350576D01*
X104312134Y-72367819D01*
X104323170Y-72386232D01*
X104332349Y-72405638D01*
X104339581Y-72425850D01*
X104344797Y-72446674D01*
X104347947Y-72467909D01*
X104349000Y-72489350D01*
X104349000Y-73001850D01*
X104347947Y-73023291D01*
X104344797Y-73044526D01*
X104339581Y-73065350D01*
X104332349Y-73085562D01*
X104323170Y-73104968D01*
X104312134Y-73123381D01*
X104299346Y-73140624D01*
X104284930Y-73156530D01*
X104269024Y-73170946D01*
X104251781Y-73183734D01*
X104233368Y-73194770D01*
X104213962Y-73203949D01*
X104193750Y-73211181D01*
X104172926Y-73216397D01*
X104151691Y-73219547D01*
X104130250Y-73220600D01*
X103692750Y-73220600D01*
X103671309Y-73219547D01*
X103650074Y-73216397D01*
X103629250Y-73211181D01*
X103609038Y-73203949D01*
X103589632Y-73194770D01*
X103571219Y-73183734D01*
X103553976Y-73170946D01*
X103538070Y-73156530D01*
X103523654Y-73140624D01*
X103510866Y-73123381D01*
X103499830Y-73104968D01*
X103490651Y-73085562D01*
X103483419Y-73065350D01*
X103478203Y-73044526D01*
X103475053Y-73023291D01*
X103474000Y-73001850D01*
X103474000Y-72489350D01*
X103475053Y-72467909D01*
X103478203Y-72446674D01*
X103483419Y-72425850D01*
X103490651Y-72405638D01*
X103499830Y-72386232D01*
X103510866Y-72367819D01*
X103523654Y-72350576D01*
X103538070Y-72334670D01*
X103553976Y-72320254D01*
X103571219Y-72307466D01*
X103589632Y-72296430D01*
X103609038Y-72287251D01*
X103629250Y-72280019D01*
X103650074Y-72274803D01*
X103671309Y-72271653D01*
X103692750Y-72270600D01*
X104130250Y-72270600D01*
X104151691Y-72271653D01*
X104151691Y-72271653D01*
G37*
D12*
X103911500Y-72745600D03*
D10*
G36*
X102576691Y-72271653D02*
X102597926Y-72274803D01*
X102618750Y-72280019D01*
X102638962Y-72287251D01*
X102658368Y-72296430D01*
X102676781Y-72307466D01*
X102694024Y-72320254D01*
X102709930Y-72334670D01*
X102724346Y-72350576D01*
X102737134Y-72367819D01*
X102748170Y-72386232D01*
X102757349Y-72405638D01*
X102764581Y-72425850D01*
X102769797Y-72446674D01*
X102772947Y-72467909D01*
X102774000Y-72489350D01*
X102774000Y-73001850D01*
X102772947Y-73023291D01*
X102769797Y-73044526D01*
X102764581Y-73065350D01*
X102757349Y-73085562D01*
X102748170Y-73104968D01*
X102737134Y-73123381D01*
X102724346Y-73140624D01*
X102709930Y-73156530D01*
X102694024Y-73170946D01*
X102676781Y-73183734D01*
X102658368Y-73194770D01*
X102638962Y-73203949D01*
X102618750Y-73211181D01*
X102597926Y-73216397D01*
X102576691Y-73219547D01*
X102555250Y-73220600D01*
X102117750Y-73220600D01*
X102096309Y-73219547D01*
X102075074Y-73216397D01*
X102054250Y-73211181D01*
X102034038Y-73203949D01*
X102014632Y-73194770D01*
X101996219Y-73183734D01*
X101978976Y-73170946D01*
X101963070Y-73156530D01*
X101948654Y-73140624D01*
X101935866Y-73123381D01*
X101924830Y-73104968D01*
X101915651Y-73085562D01*
X101908419Y-73065350D01*
X101903203Y-73044526D01*
X101900053Y-73023291D01*
X101899000Y-73001850D01*
X101899000Y-72489350D01*
X101900053Y-72467909D01*
X101903203Y-72446674D01*
X101908419Y-72425850D01*
X101915651Y-72405638D01*
X101924830Y-72386232D01*
X101935866Y-72367819D01*
X101948654Y-72350576D01*
X101963070Y-72334670D01*
X101978976Y-72320254D01*
X101996219Y-72307466D01*
X102014632Y-72296430D01*
X102034038Y-72287251D01*
X102054250Y-72280019D01*
X102075074Y-72274803D01*
X102096309Y-72271653D01*
X102117750Y-72270600D01*
X102555250Y-72270600D01*
X102576691Y-72271653D01*
X102576691Y-72271653D01*
G37*
D12*
X102336500Y-72745600D03*
G04 #@! TD*
M02*
