G04 #@! TF.GenerationSoftware,KiCad,Pcbnew,(5.0.1)-rc2*
G04 #@! TF.CreationDate,2019-03-09T00:38:12-07:00*
G04 #@! TF.ProjectId,weatherStation,7765617468657253746174696F6E2E6B,rev?*
G04 #@! TF.SameCoordinates,Original*
G04 #@! TF.FileFunction,Paste,Top*
G04 #@! TF.FilePolarity,Positive*
%FSLAX46Y46*%
G04 Gerber Fmt 4.6, Leading zero omitted, Abs format (unit mm)*
G04 Created by KiCad (PCBNEW (5.0.1)-rc2) date 3/9/2019 12:38:12 AM*
%MOMM*%
%LPD*%
G01*
G04 APERTURE LIST*
%ADD10C,0.100000*%
%ADD11C,0.975000*%
%ADD12C,0.875000*%
%ADD13R,1.500000X1.500000*%
%ADD14R,1.060000X0.650000*%
%ADD15R,0.280000X0.750000*%
%ADD16R,0.280000X0.850000*%
%ADD17R,0.400000X0.600000*%
%ADD18R,0.650000X0.610000*%
%ADD19R,0.500000X0.250000*%
G04 APERTURE END LIST*
D10*
G04 #@! TO.C,C2*
G36*
X97889142Y-82444674D02*
X97912803Y-82448184D01*
X97936007Y-82453996D01*
X97958529Y-82462054D01*
X97980153Y-82472282D01*
X98000670Y-82484579D01*
X98019883Y-82498829D01*
X98037607Y-82514893D01*
X98053671Y-82532617D01*
X98067921Y-82551830D01*
X98080218Y-82572347D01*
X98090446Y-82593971D01*
X98098504Y-82616493D01*
X98104316Y-82639697D01*
X98107826Y-82663358D01*
X98109000Y-82687250D01*
X98109000Y-83174750D01*
X98107826Y-83198642D01*
X98104316Y-83222303D01*
X98098504Y-83245507D01*
X98090446Y-83268029D01*
X98080218Y-83289653D01*
X98067921Y-83310170D01*
X98053671Y-83329383D01*
X98037607Y-83347107D01*
X98019883Y-83363171D01*
X98000670Y-83377421D01*
X97980153Y-83389718D01*
X97958529Y-83399946D01*
X97936007Y-83408004D01*
X97912803Y-83413816D01*
X97889142Y-83417326D01*
X97865250Y-83418500D01*
X96952750Y-83418500D01*
X96928858Y-83417326D01*
X96905197Y-83413816D01*
X96881993Y-83408004D01*
X96859471Y-83399946D01*
X96837847Y-83389718D01*
X96817330Y-83377421D01*
X96798117Y-83363171D01*
X96780393Y-83347107D01*
X96764329Y-83329383D01*
X96750079Y-83310170D01*
X96737782Y-83289653D01*
X96727554Y-83268029D01*
X96719496Y-83245507D01*
X96713684Y-83222303D01*
X96710174Y-83198642D01*
X96709000Y-83174750D01*
X96709000Y-82687250D01*
X96710174Y-82663358D01*
X96713684Y-82639697D01*
X96719496Y-82616493D01*
X96727554Y-82593971D01*
X96737782Y-82572347D01*
X96750079Y-82551830D01*
X96764329Y-82532617D01*
X96780393Y-82514893D01*
X96798117Y-82498829D01*
X96817330Y-82484579D01*
X96837847Y-82472282D01*
X96859471Y-82462054D01*
X96881993Y-82453996D01*
X96905197Y-82448184D01*
X96928858Y-82444674D01*
X96952750Y-82443500D01*
X97865250Y-82443500D01*
X97889142Y-82444674D01*
X97889142Y-82444674D01*
G37*
D11*
X97409000Y-82931000D03*
D10*
G36*
X97889142Y-84319674D02*
X97912803Y-84323184D01*
X97936007Y-84328996D01*
X97958529Y-84337054D01*
X97980153Y-84347282D01*
X98000670Y-84359579D01*
X98019883Y-84373829D01*
X98037607Y-84389893D01*
X98053671Y-84407617D01*
X98067921Y-84426830D01*
X98080218Y-84447347D01*
X98090446Y-84468971D01*
X98098504Y-84491493D01*
X98104316Y-84514697D01*
X98107826Y-84538358D01*
X98109000Y-84562250D01*
X98109000Y-85049750D01*
X98107826Y-85073642D01*
X98104316Y-85097303D01*
X98098504Y-85120507D01*
X98090446Y-85143029D01*
X98080218Y-85164653D01*
X98067921Y-85185170D01*
X98053671Y-85204383D01*
X98037607Y-85222107D01*
X98019883Y-85238171D01*
X98000670Y-85252421D01*
X97980153Y-85264718D01*
X97958529Y-85274946D01*
X97936007Y-85283004D01*
X97912803Y-85288816D01*
X97889142Y-85292326D01*
X97865250Y-85293500D01*
X96952750Y-85293500D01*
X96928858Y-85292326D01*
X96905197Y-85288816D01*
X96881993Y-85283004D01*
X96859471Y-85274946D01*
X96837847Y-85264718D01*
X96817330Y-85252421D01*
X96798117Y-85238171D01*
X96780393Y-85222107D01*
X96764329Y-85204383D01*
X96750079Y-85185170D01*
X96737782Y-85164653D01*
X96727554Y-85143029D01*
X96719496Y-85120507D01*
X96713684Y-85097303D01*
X96710174Y-85073642D01*
X96709000Y-85049750D01*
X96709000Y-84562250D01*
X96710174Y-84538358D01*
X96713684Y-84514697D01*
X96719496Y-84491493D01*
X96727554Y-84468971D01*
X96737782Y-84447347D01*
X96750079Y-84426830D01*
X96764329Y-84407617D01*
X96780393Y-84389893D01*
X96798117Y-84373829D01*
X96817330Y-84359579D01*
X96837847Y-84347282D01*
X96859471Y-84337054D01*
X96881993Y-84328996D01*
X96905197Y-84323184D01*
X96928858Y-84319674D01*
X96952750Y-84318500D01*
X97865250Y-84318500D01*
X97889142Y-84319674D01*
X97889142Y-84319674D01*
G37*
D11*
X97409000Y-84806000D03*
G04 #@! TD*
D10*
G04 #@! TO.C,D4*
G36*
X107348141Y-80491174D02*
X107371802Y-80494684D01*
X107395006Y-80500496D01*
X107417528Y-80508554D01*
X107439152Y-80518782D01*
X107459669Y-80531079D01*
X107478882Y-80545329D01*
X107496606Y-80561393D01*
X107512670Y-80579117D01*
X107526920Y-80598330D01*
X107539217Y-80618847D01*
X107549445Y-80640471D01*
X107557503Y-80662993D01*
X107563315Y-80686197D01*
X107566825Y-80709858D01*
X107567999Y-80733750D01*
X107567999Y-81221250D01*
X107566825Y-81245142D01*
X107563315Y-81268803D01*
X107557503Y-81292007D01*
X107549445Y-81314529D01*
X107539217Y-81336153D01*
X107526920Y-81356670D01*
X107512670Y-81375883D01*
X107496606Y-81393607D01*
X107478882Y-81409671D01*
X107459669Y-81423921D01*
X107439152Y-81436218D01*
X107417528Y-81446446D01*
X107395006Y-81454504D01*
X107371802Y-81460316D01*
X107348141Y-81463826D01*
X107324249Y-81465000D01*
X106411749Y-81465000D01*
X106387857Y-81463826D01*
X106364196Y-81460316D01*
X106340992Y-81454504D01*
X106318470Y-81446446D01*
X106296846Y-81436218D01*
X106276329Y-81423921D01*
X106257116Y-81409671D01*
X106239392Y-81393607D01*
X106223328Y-81375883D01*
X106209078Y-81356670D01*
X106196781Y-81336153D01*
X106186553Y-81314529D01*
X106178495Y-81292007D01*
X106172683Y-81268803D01*
X106169173Y-81245142D01*
X106167999Y-81221250D01*
X106167999Y-80733750D01*
X106169173Y-80709858D01*
X106172683Y-80686197D01*
X106178495Y-80662993D01*
X106186553Y-80640471D01*
X106196781Y-80618847D01*
X106209078Y-80598330D01*
X106223328Y-80579117D01*
X106239392Y-80561393D01*
X106257116Y-80545329D01*
X106276329Y-80531079D01*
X106296846Y-80518782D01*
X106318470Y-80508554D01*
X106340992Y-80500496D01*
X106364196Y-80494684D01*
X106387857Y-80491174D01*
X106411749Y-80490000D01*
X107324249Y-80490000D01*
X107348141Y-80491174D01*
X107348141Y-80491174D01*
G37*
D11*
X106867999Y-80977500D03*
D10*
G36*
X107348141Y-82366174D02*
X107371802Y-82369684D01*
X107395006Y-82375496D01*
X107417528Y-82383554D01*
X107439152Y-82393782D01*
X107459669Y-82406079D01*
X107478882Y-82420329D01*
X107496606Y-82436393D01*
X107512670Y-82454117D01*
X107526920Y-82473330D01*
X107539217Y-82493847D01*
X107549445Y-82515471D01*
X107557503Y-82537993D01*
X107563315Y-82561197D01*
X107566825Y-82584858D01*
X107567999Y-82608750D01*
X107567999Y-83096250D01*
X107566825Y-83120142D01*
X107563315Y-83143803D01*
X107557503Y-83167007D01*
X107549445Y-83189529D01*
X107539217Y-83211153D01*
X107526920Y-83231670D01*
X107512670Y-83250883D01*
X107496606Y-83268607D01*
X107478882Y-83284671D01*
X107459669Y-83298921D01*
X107439152Y-83311218D01*
X107417528Y-83321446D01*
X107395006Y-83329504D01*
X107371802Y-83335316D01*
X107348141Y-83338826D01*
X107324249Y-83340000D01*
X106411749Y-83340000D01*
X106387857Y-83338826D01*
X106364196Y-83335316D01*
X106340992Y-83329504D01*
X106318470Y-83321446D01*
X106296846Y-83311218D01*
X106276329Y-83298921D01*
X106257116Y-83284671D01*
X106239392Y-83268607D01*
X106223328Y-83250883D01*
X106209078Y-83231670D01*
X106196781Y-83211153D01*
X106186553Y-83189529D01*
X106178495Y-83167007D01*
X106172683Y-83143803D01*
X106169173Y-83120142D01*
X106167999Y-83096250D01*
X106167999Y-82608750D01*
X106169173Y-82584858D01*
X106172683Y-82561197D01*
X106178495Y-82537993D01*
X106186553Y-82515471D01*
X106196781Y-82493847D01*
X106209078Y-82473330D01*
X106223328Y-82454117D01*
X106239392Y-82436393D01*
X106257116Y-82420329D01*
X106276329Y-82406079D01*
X106296846Y-82393782D01*
X106318470Y-82383554D01*
X106340992Y-82375496D01*
X106364196Y-82369684D01*
X106387857Y-82366174D01*
X106411749Y-82365000D01*
X107324249Y-82365000D01*
X107348141Y-82366174D01*
X107348141Y-82366174D01*
G37*
D11*
X106867999Y-82852500D03*
G04 #@! TD*
D10*
G04 #@! TO.C,D5*
G36*
X107348141Y-84428174D02*
X107371802Y-84431684D01*
X107395006Y-84437496D01*
X107417528Y-84445554D01*
X107439152Y-84455782D01*
X107459669Y-84468079D01*
X107478882Y-84482329D01*
X107496606Y-84498393D01*
X107512670Y-84516117D01*
X107526920Y-84535330D01*
X107539217Y-84555847D01*
X107549445Y-84577471D01*
X107557503Y-84599993D01*
X107563315Y-84623197D01*
X107566825Y-84646858D01*
X107567999Y-84670750D01*
X107567999Y-85158250D01*
X107566825Y-85182142D01*
X107563315Y-85205803D01*
X107557503Y-85229007D01*
X107549445Y-85251529D01*
X107539217Y-85273153D01*
X107526920Y-85293670D01*
X107512670Y-85312883D01*
X107496606Y-85330607D01*
X107478882Y-85346671D01*
X107459669Y-85360921D01*
X107439152Y-85373218D01*
X107417528Y-85383446D01*
X107395006Y-85391504D01*
X107371802Y-85397316D01*
X107348141Y-85400826D01*
X107324249Y-85402000D01*
X106411749Y-85402000D01*
X106387857Y-85400826D01*
X106364196Y-85397316D01*
X106340992Y-85391504D01*
X106318470Y-85383446D01*
X106296846Y-85373218D01*
X106276329Y-85360921D01*
X106257116Y-85346671D01*
X106239392Y-85330607D01*
X106223328Y-85312883D01*
X106209078Y-85293670D01*
X106196781Y-85273153D01*
X106186553Y-85251529D01*
X106178495Y-85229007D01*
X106172683Y-85205803D01*
X106169173Y-85182142D01*
X106167999Y-85158250D01*
X106167999Y-84670750D01*
X106169173Y-84646858D01*
X106172683Y-84623197D01*
X106178495Y-84599993D01*
X106186553Y-84577471D01*
X106196781Y-84555847D01*
X106209078Y-84535330D01*
X106223328Y-84516117D01*
X106239392Y-84498393D01*
X106257116Y-84482329D01*
X106276329Y-84468079D01*
X106296846Y-84455782D01*
X106318470Y-84445554D01*
X106340992Y-84437496D01*
X106364196Y-84431684D01*
X106387857Y-84428174D01*
X106411749Y-84427000D01*
X107324249Y-84427000D01*
X107348141Y-84428174D01*
X107348141Y-84428174D01*
G37*
D11*
X106867999Y-84914500D03*
D10*
G36*
X107348141Y-86303174D02*
X107371802Y-86306684D01*
X107395006Y-86312496D01*
X107417528Y-86320554D01*
X107439152Y-86330782D01*
X107459669Y-86343079D01*
X107478882Y-86357329D01*
X107496606Y-86373393D01*
X107512670Y-86391117D01*
X107526920Y-86410330D01*
X107539217Y-86430847D01*
X107549445Y-86452471D01*
X107557503Y-86474993D01*
X107563315Y-86498197D01*
X107566825Y-86521858D01*
X107567999Y-86545750D01*
X107567999Y-87033250D01*
X107566825Y-87057142D01*
X107563315Y-87080803D01*
X107557503Y-87104007D01*
X107549445Y-87126529D01*
X107539217Y-87148153D01*
X107526920Y-87168670D01*
X107512670Y-87187883D01*
X107496606Y-87205607D01*
X107478882Y-87221671D01*
X107459669Y-87235921D01*
X107439152Y-87248218D01*
X107417528Y-87258446D01*
X107395006Y-87266504D01*
X107371802Y-87272316D01*
X107348141Y-87275826D01*
X107324249Y-87277000D01*
X106411749Y-87277000D01*
X106387857Y-87275826D01*
X106364196Y-87272316D01*
X106340992Y-87266504D01*
X106318470Y-87258446D01*
X106296846Y-87248218D01*
X106276329Y-87235921D01*
X106257116Y-87221671D01*
X106239392Y-87205607D01*
X106223328Y-87187883D01*
X106209078Y-87168670D01*
X106196781Y-87148153D01*
X106186553Y-87126529D01*
X106178495Y-87104007D01*
X106172683Y-87080803D01*
X106169173Y-87057142D01*
X106167999Y-87033250D01*
X106167999Y-86545750D01*
X106169173Y-86521858D01*
X106172683Y-86498197D01*
X106178495Y-86474993D01*
X106186553Y-86452471D01*
X106196781Y-86430847D01*
X106209078Y-86410330D01*
X106223328Y-86391117D01*
X106239392Y-86373393D01*
X106257116Y-86357329D01*
X106276329Y-86343079D01*
X106296846Y-86330782D01*
X106318470Y-86320554D01*
X106340992Y-86312496D01*
X106364196Y-86306684D01*
X106387857Y-86303174D01*
X106411749Y-86302000D01*
X107324249Y-86302000D01*
X107348141Y-86303174D01*
X107348141Y-86303174D01*
G37*
D11*
X106867999Y-86789500D03*
G04 #@! TD*
D10*
G04 #@! TO.C,D8*
G36*
X113297642Y-53276174D02*
X113321303Y-53279684D01*
X113344507Y-53285496D01*
X113367029Y-53293554D01*
X113388653Y-53303782D01*
X113409170Y-53316079D01*
X113428383Y-53330329D01*
X113446107Y-53346393D01*
X113462171Y-53364117D01*
X113476421Y-53383330D01*
X113488718Y-53403847D01*
X113498946Y-53425471D01*
X113507004Y-53447993D01*
X113512816Y-53471197D01*
X113516326Y-53494858D01*
X113517500Y-53518750D01*
X113517500Y-54431250D01*
X113516326Y-54455142D01*
X113512816Y-54478803D01*
X113507004Y-54502007D01*
X113498946Y-54524529D01*
X113488718Y-54546153D01*
X113476421Y-54566670D01*
X113462171Y-54585883D01*
X113446107Y-54603607D01*
X113428383Y-54619671D01*
X113409170Y-54633921D01*
X113388653Y-54646218D01*
X113367029Y-54656446D01*
X113344507Y-54664504D01*
X113321303Y-54670316D01*
X113297642Y-54673826D01*
X113273750Y-54675000D01*
X112786250Y-54675000D01*
X112762358Y-54673826D01*
X112738697Y-54670316D01*
X112715493Y-54664504D01*
X112692971Y-54656446D01*
X112671347Y-54646218D01*
X112650830Y-54633921D01*
X112631617Y-54619671D01*
X112613893Y-54603607D01*
X112597829Y-54585883D01*
X112583579Y-54566670D01*
X112571282Y-54546153D01*
X112561054Y-54524529D01*
X112552996Y-54502007D01*
X112547184Y-54478803D01*
X112543674Y-54455142D01*
X112542500Y-54431250D01*
X112542500Y-53518750D01*
X112543674Y-53494858D01*
X112547184Y-53471197D01*
X112552996Y-53447993D01*
X112561054Y-53425471D01*
X112571282Y-53403847D01*
X112583579Y-53383330D01*
X112597829Y-53364117D01*
X112613893Y-53346393D01*
X112631617Y-53330329D01*
X112650830Y-53316079D01*
X112671347Y-53303782D01*
X112692971Y-53293554D01*
X112715493Y-53285496D01*
X112738697Y-53279684D01*
X112762358Y-53276174D01*
X112786250Y-53275000D01*
X113273750Y-53275000D01*
X113297642Y-53276174D01*
X113297642Y-53276174D01*
G37*
D11*
X113030000Y-53975000D03*
D10*
G36*
X115172642Y-53276174D02*
X115196303Y-53279684D01*
X115219507Y-53285496D01*
X115242029Y-53293554D01*
X115263653Y-53303782D01*
X115284170Y-53316079D01*
X115303383Y-53330329D01*
X115321107Y-53346393D01*
X115337171Y-53364117D01*
X115351421Y-53383330D01*
X115363718Y-53403847D01*
X115373946Y-53425471D01*
X115382004Y-53447993D01*
X115387816Y-53471197D01*
X115391326Y-53494858D01*
X115392500Y-53518750D01*
X115392500Y-54431250D01*
X115391326Y-54455142D01*
X115387816Y-54478803D01*
X115382004Y-54502007D01*
X115373946Y-54524529D01*
X115363718Y-54546153D01*
X115351421Y-54566670D01*
X115337171Y-54585883D01*
X115321107Y-54603607D01*
X115303383Y-54619671D01*
X115284170Y-54633921D01*
X115263653Y-54646218D01*
X115242029Y-54656446D01*
X115219507Y-54664504D01*
X115196303Y-54670316D01*
X115172642Y-54673826D01*
X115148750Y-54675000D01*
X114661250Y-54675000D01*
X114637358Y-54673826D01*
X114613697Y-54670316D01*
X114590493Y-54664504D01*
X114567971Y-54656446D01*
X114546347Y-54646218D01*
X114525830Y-54633921D01*
X114506617Y-54619671D01*
X114488893Y-54603607D01*
X114472829Y-54585883D01*
X114458579Y-54566670D01*
X114446282Y-54546153D01*
X114436054Y-54524529D01*
X114427996Y-54502007D01*
X114422184Y-54478803D01*
X114418674Y-54455142D01*
X114417500Y-54431250D01*
X114417500Y-53518750D01*
X114418674Y-53494858D01*
X114422184Y-53471197D01*
X114427996Y-53447993D01*
X114436054Y-53425471D01*
X114446282Y-53403847D01*
X114458579Y-53383330D01*
X114472829Y-53364117D01*
X114488893Y-53346393D01*
X114506617Y-53330329D01*
X114525830Y-53316079D01*
X114546347Y-53303782D01*
X114567971Y-53293554D01*
X114590493Y-53285496D01*
X114613697Y-53279684D01*
X114637358Y-53276174D01*
X114661250Y-53275000D01*
X115148750Y-53275000D01*
X115172642Y-53276174D01*
X115172642Y-53276174D01*
G37*
D11*
X114905000Y-53975000D03*
G04 #@! TD*
D10*
G04 #@! TO.C,D9*
G36*
X113297642Y-56451174D02*
X113321303Y-56454684D01*
X113344507Y-56460496D01*
X113367029Y-56468554D01*
X113388653Y-56478782D01*
X113409170Y-56491079D01*
X113428383Y-56505329D01*
X113446107Y-56521393D01*
X113462171Y-56539117D01*
X113476421Y-56558330D01*
X113488718Y-56578847D01*
X113498946Y-56600471D01*
X113507004Y-56622993D01*
X113512816Y-56646197D01*
X113516326Y-56669858D01*
X113517500Y-56693750D01*
X113517500Y-57606250D01*
X113516326Y-57630142D01*
X113512816Y-57653803D01*
X113507004Y-57677007D01*
X113498946Y-57699529D01*
X113488718Y-57721153D01*
X113476421Y-57741670D01*
X113462171Y-57760883D01*
X113446107Y-57778607D01*
X113428383Y-57794671D01*
X113409170Y-57808921D01*
X113388653Y-57821218D01*
X113367029Y-57831446D01*
X113344507Y-57839504D01*
X113321303Y-57845316D01*
X113297642Y-57848826D01*
X113273750Y-57850000D01*
X112786250Y-57850000D01*
X112762358Y-57848826D01*
X112738697Y-57845316D01*
X112715493Y-57839504D01*
X112692971Y-57831446D01*
X112671347Y-57821218D01*
X112650830Y-57808921D01*
X112631617Y-57794671D01*
X112613893Y-57778607D01*
X112597829Y-57760883D01*
X112583579Y-57741670D01*
X112571282Y-57721153D01*
X112561054Y-57699529D01*
X112552996Y-57677007D01*
X112547184Y-57653803D01*
X112543674Y-57630142D01*
X112542500Y-57606250D01*
X112542500Y-56693750D01*
X112543674Y-56669858D01*
X112547184Y-56646197D01*
X112552996Y-56622993D01*
X112561054Y-56600471D01*
X112571282Y-56578847D01*
X112583579Y-56558330D01*
X112597829Y-56539117D01*
X112613893Y-56521393D01*
X112631617Y-56505329D01*
X112650830Y-56491079D01*
X112671347Y-56478782D01*
X112692971Y-56468554D01*
X112715493Y-56460496D01*
X112738697Y-56454684D01*
X112762358Y-56451174D01*
X112786250Y-56450000D01*
X113273750Y-56450000D01*
X113297642Y-56451174D01*
X113297642Y-56451174D01*
G37*
D11*
X113030000Y-57150000D03*
D10*
G36*
X115172642Y-56451174D02*
X115196303Y-56454684D01*
X115219507Y-56460496D01*
X115242029Y-56468554D01*
X115263653Y-56478782D01*
X115284170Y-56491079D01*
X115303383Y-56505329D01*
X115321107Y-56521393D01*
X115337171Y-56539117D01*
X115351421Y-56558330D01*
X115363718Y-56578847D01*
X115373946Y-56600471D01*
X115382004Y-56622993D01*
X115387816Y-56646197D01*
X115391326Y-56669858D01*
X115392500Y-56693750D01*
X115392500Y-57606250D01*
X115391326Y-57630142D01*
X115387816Y-57653803D01*
X115382004Y-57677007D01*
X115373946Y-57699529D01*
X115363718Y-57721153D01*
X115351421Y-57741670D01*
X115337171Y-57760883D01*
X115321107Y-57778607D01*
X115303383Y-57794671D01*
X115284170Y-57808921D01*
X115263653Y-57821218D01*
X115242029Y-57831446D01*
X115219507Y-57839504D01*
X115196303Y-57845316D01*
X115172642Y-57848826D01*
X115148750Y-57850000D01*
X114661250Y-57850000D01*
X114637358Y-57848826D01*
X114613697Y-57845316D01*
X114590493Y-57839504D01*
X114567971Y-57831446D01*
X114546347Y-57821218D01*
X114525830Y-57808921D01*
X114506617Y-57794671D01*
X114488893Y-57778607D01*
X114472829Y-57760883D01*
X114458579Y-57741670D01*
X114446282Y-57721153D01*
X114436054Y-57699529D01*
X114427996Y-57677007D01*
X114422184Y-57653803D01*
X114418674Y-57630142D01*
X114417500Y-57606250D01*
X114417500Y-56693750D01*
X114418674Y-56669858D01*
X114422184Y-56646197D01*
X114427996Y-56622993D01*
X114436054Y-56600471D01*
X114446282Y-56578847D01*
X114458579Y-56558330D01*
X114472829Y-56539117D01*
X114488893Y-56521393D01*
X114506617Y-56505329D01*
X114525830Y-56491079D01*
X114546347Y-56478782D01*
X114567971Y-56468554D01*
X114590493Y-56460496D01*
X114613697Y-56454684D01*
X114637358Y-56451174D01*
X114661250Y-56450000D01*
X115148750Y-56450000D01*
X115172642Y-56451174D01*
X115172642Y-56451174D01*
G37*
D11*
X114905000Y-57150000D03*
G04 #@! TD*
D10*
G04 #@! TO.C,D10*
G36*
X115172642Y-60896174D02*
X115196303Y-60899684D01*
X115219507Y-60905496D01*
X115242029Y-60913554D01*
X115263653Y-60923782D01*
X115284170Y-60936079D01*
X115303383Y-60950329D01*
X115321107Y-60966393D01*
X115337171Y-60984117D01*
X115351421Y-61003330D01*
X115363718Y-61023847D01*
X115373946Y-61045471D01*
X115382004Y-61067993D01*
X115387816Y-61091197D01*
X115391326Y-61114858D01*
X115392500Y-61138750D01*
X115392500Y-62051250D01*
X115391326Y-62075142D01*
X115387816Y-62098803D01*
X115382004Y-62122007D01*
X115373946Y-62144529D01*
X115363718Y-62166153D01*
X115351421Y-62186670D01*
X115337171Y-62205883D01*
X115321107Y-62223607D01*
X115303383Y-62239671D01*
X115284170Y-62253921D01*
X115263653Y-62266218D01*
X115242029Y-62276446D01*
X115219507Y-62284504D01*
X115196303Y-62290316D01*
X115172642Y-62293826D01*
X115148750Y-62295000D01*
X114661250Y-62295000D01*
X114637358Y-62293826D01*
X114613697Y-62290316D01*
X114590493Y-62284504D01*
X114567971Y-62276446D01*
X114546347Y-62266218D01*
X114525830Y-62253921D01*
X114506617Y-62239671D01*
X114488893Y-62223607D01*
X114472829Y-62205883D01*
X114458579Y-62186670D01*
X114446282Y-62166153D01*
X114436054Y-62144529D01*
X114427996Y-62122007D01*
X114422184Y-62098803D01*
X114418674Y-62075142D01*
X114417500Y-62051250D01*
X114417500Y-61138750D01*
X114418674Y-61114858D01*
X114422184Y-61091197D01*
X114427996Y-61067993D01*
X114436054Y-61045471D01*
X114446282Y-61023847D01*
X114458579Y-61003330D01*
X114472829Y-60984117D01*
X114488893Y-60966393D01*
X114506617Y-60950329D01*
X114525830Y-60936079D01*
X114546347Y-60923782D01*
X114567971Y-60913554D01*
X114590493Y-60905496D01*
X114613697Y-60899684D01*
X114637358Y-60896174D01*
X114661250Y-60895000D01*
X115148750Y-60895000D01*
X115172642Y-60896174D01*
X115172642Y-60896174D01*
G37*
D11*
X114905000Y-61595000D03*
D10*
G36*
X113297642Y-60896174D02*
X113321303Y-60899684D01*
X113344507Y-60905496D01*
X113367029Y-60913554D01*
X113388653Y-60923782D01*
X113409170Y-60936079D01*
X113428383Y-60950329D01*
X113446107Y-60966393D01*
X113462171Y-60984117D01*
X113476421Y-61003330D01*
X113488718Y-61023847D01*
X113498946Y-61045471D01*
X113507004Y-61067993D01*
X113512816Y-61091197D01*
X113516326Y-61114858D01*
X113517500Y-61138750D01*
X113517500Y-62051250D01*
X113516326Y-62075142D01*
X113512816Y-62098803D01*
X113507004Y-62122007D01*
X113498946Y-62144529D01*
X113488718Y-62166153D01*
X113476421Y-62186670D01*
X113462171Y-62205883D01*
X113446107Y-62223607D01*
X113428383Y-62239671D01*
X113409170Y-62253921D01*
X113388653Y-62266218D01*
X113367029Y-62276446D01*
X113344507Y-62284504D01*
X113321303Y-62290316D01*
X113297642Y-62293826D01*
X113273750Y-62295000D01*
X112786250Y-62295000D01*
X112762358Y-62293826D01*
X112738697Y-62290316D01*
X112715493Y-62284504D01*
X112692971Y-62276446D01*
X112671347Y-62266218D01*
X112650830Y-62253921D01*
X112631617Y-62239671D01*
X112613893Y-62223607D01*
X112597829Y-62205883D01*
X112583579Y-62186670D01*
X112571282Y-62166153D01*
X112561054Y-62144529D01*
X112552996Y-62122007D01*
X112547184Y-62098803D01*
X112543674Y-62075142D01*
X112542500Y-62051250D01*
X112542500Y-61138750D01*
X112543674Y-61114858D01*
X112547184Y-61091197D01*
X112552996Y-61067993D01*
X112561054Y-61045471D01*
X112571282Y-61023847D01*
X112583579Y-61003330D01*
X112597829Y-60984117D01*
X112613893Y-60966393D01*
X112631617Y-60950329D01*
X112650830Y-60936079D01*
X112671347Y-60923782D01*
X112692971Y-60913554D01*
X112715493Y-60905496D01*
X112738697Y-60899684D01*
X112762358Y-60896174D01*
X112786250Y-60895000D01*
X113273750Y-60895000D01*
X113297642Y-60896174D01*
X113297642Y-60896174D01*
G37*
D11*
X113030000Y-61595000D03*
G04 #@! TD*
D10*
G04 #@! TO.C,R6*
G36*
X98258691Y-80298053D02*
X98279926Y-80301203D01*
X98300750Y-80306419D01*
X98320962Y-80313651D01*
X98340368Y-80322830D01*
X98358781Y-80333866D01*
X98376024Y-80346654D01*
X98391930Y-80361070D01*
X98406346Y-80376976D01*
X98419134Y-80394219D01*
X98430170Y-80412632D01*
X98439349Y-80432038D01*
X98446581Y-80452250D01*
X98451797Y-80473074D01*
X98454947Y-80494309D01*
X98456000Y-80515750D01*
X98456000Y-81028250D01*
X98454947Y-81049691D01*
X98451797Y-81070926D01*
X98446581Y-81091750D01*
X98439349Y-81111962D01*
X98430170Y-81131368D01*
X98419134Y-81149781D01*
X98406346Y-81167024D01*
X98391930Y-81182930D01*
X98376024Y-81197346D01*
X98358781Y-81210134D01*
X98340368Y-81221170D01*
X98320962Y-81230349D01*
X98300750Y-81237581D01*
X98279926Y-81242797D01*
X98258691Y-81245947D01*
X98237250Y-81247000D01*
X97799750Y-81247000D01*
X97778309Y-81245947D01*
X97757074Y-81242797D01*
X97736250Y-81237581D01*
X97716038Y-81230349D01*
X97696632Y-81221170D01*
X97678219Y-81210134D01*
X97660976Y-81197346D01*
X97645070Y-81182930D01*
X97630654Y-81167024D01*
X97617866Y-81149781D01*
X97606830Y-81131368D01*
X97597651Y-81111962D01*
X97590419Y-81091750D01*
X97585203Y-81070926D01*
X97582053Y-81049691D01*
X97581000Y-81028250D01*
X97581000Y-80515750D01*
X97582053Y-80494309D01*
X97585203Y-80473074D01*
X97590419Y-80452250D01*
X97597651Y-80432038D01*
X97606830Y-80412632D01*
X97617866Y-80394219D01*
X97630654Y-80376976D01*
X97645070Y-80361070D01*
X97660976Y-80346654D01*
X97678219Y-80333866D01*
X97696632Y-80322830D01*
X97716038Y-80313651D01*
X97736250Y-80306419D01*
X97757074Y-80301203D01*
X97778309Y-80298053D01*
X97799750Y-80297000D01*
X98237250Y-80297000D01*
X98258691Y-80298053D01*
X98258691Y-80298053D01*
G37*
D12*
X98018500Y-80772000D03*
D10*
G36*
X99833691Y-80298053D02*
X99854926Y-80301203D01*
X99875750Y-80306419D01*
X99895962Y-80313651D01*
X99915368Y-80322830D01*
X99933781Y-80333866D01*
X99951024Y-80346654D01*
X99966930Y-80361070D01*
X99981346Y-80376976D01*
X99994134Y-80394219D01*
X100005170Y-80412632D01*
X100014349Y-80432038D01*
X100021581Y-80452250D01*
X100026797Y-80473074D01*
X100029947Y-80494309D01*
X100031000Y-80515750D01*
X100031000Y-81028250D01*
X100029947Y-81049691D01*
X100026797Y-81070926D01*
X100021581Y-81091750D01*
X100014349Y-81111962D01*
X100005170Y-81131368D01*
X99994134Y-81149781D01*
X99981346Y-81167024D01*
X99966930Y-81182930D01*
X99951024Y-81197346D01*
X99933781Y-81210134D01*
X99915368Y-81221170D01*
X99895962Y-81230349D01*
X99875750Y-81237581D01*
X99854926Y-81242797D01*
X99833691Y-81245947D01*
X99812250Y-81247000D01*
X99374750Y-81247000D01*
X99353309Y-81245947D01*
X99332074Y-81242797D01*
X99311250Y-81237581D01*
X99291038Y-81230349D01*
X99271632Y-81221170D01*
X99253219Y-81210134D01*
X99235976Y-81197346D01*
X99220070Y-81182930D01*
X99205654Y-81167024D01*
X99192866Y-81149781D01*
X99181830Y-81131368D01*
X99172651Y-81111962D01*
X99165419Y-81091750D01*
X99160203Y-81070926D01*
X99157053Y-81049691D01*
X99156000Y-81028250D01*
X99156000Y-80515750D01*
X99157053Y-80494309D01*
X99160203Y-80473074D01*
X99165419Y-80452250D01*
X99172651Y-80432038D01*
X99181830Y-80412632D01*
X99192866Y-80394219D01*
X99205654Y-80376976D01*
X99220070Y-80361070D01*
X99235976Y-80346654D01*
X99253219Y-80333866D01*
X99271632Y-80322830D01*
X99291038Y-80313651D01*
X99311250Y-80306419D01*
X99332074Y-80301203D01*
X99353309Y-80298053D01*
X99374750Y-80297000D01*
X99812250Y-80297000D01*
X99833691Y-80298053D01*
X99833691Y-80298053D01*
G37*
D12*
X99593500Y-80772000D03*
G04 #@! TD*
D10*
G04 #@! TO.C,R17*
G36*
X98067691Y-99131553D02*
X98088926Y-99134703D01*
X98109750Y-99139919D01*
X98129962Y-99147151D01*
X98149368Y-99156330D01*
X98167781Y-99167366D01*
X98185024Y-99180154D01*
X98200930Y-99194570D01*
X98215346Y-99210476D01*
X98228134Y-99227719D01*
X98239170Y-99246132D01*
X98248349Y-99265538D01*
X98255581Y-99285750D01*
X98260797Y-99306574D01*
X98263947Y-99327809D01*
X98265000Y-99349250D01*
X98265000Y-99786750D01*
X98263947Y-99808191D01*
X98260797Y-99829426D01*
X98255581Y-99850250D01*
X98248349Y-99870462D01*
X98239170Y-99889868D01*
X98228134Y-99908281D01*
X98215346Y-99925524D01*
X98200930Y-99941430D01*
X98185024Y-99955846D01*
X98167781Y-99968634D01*
X98149368Y-99979670D01*
X98129962Y-99988849D01*
X98109750Y-99996081D01*
X98088926Y-100001297D01*
X98067691Y-100004447D01*
X98046250Y-100005500D01*
X97533750Y-100005500D01*
X97512309Y-100004447D01*
X97491074Y-100001297D01*
X97470250Y-99996081D01*
X97450038Y-99988849D01*
X97430632Y-99979670D01*
X97412219Y-99968634D01*
X97394976Y-99955846D01*
X97379070Y-99941430D01*
X97364654Y-99925524D01*
X97351866Y-99908281D01*
X97340830Y-99889868D01*
X97331651Y-99870462D01*
X97324419Y-99850250D01*
X97319203Y-99829426D01*
X97316053Y-99808191D01*
X97315000Y-99786750D01*
X97315000Y-99349250D01*
X97316053Y-99327809D01*
X97319203Y-99306574D01*
X97324419Y-99285750D01*
X97331651Y-99265538D01*
X97340830Y-99246132D01*
X97351866Y-99227719D01*
X97364654Y-99210476D01*
X97379070Y-99194570D01*
X97394976Y-99180154D01*
X97412219Y-99167366D01*
X97430632Y-99156330D01*
X97450038Y-99147151D01*
X97470250Y-99139919D01*
X97491074Y-99134703D01*
X97512309Y-99131553D01*
X97533750Y-99130500D01*
X98046250Y-99130500D01*
X98067691Y-99131553D01*
X98067691Y-99131553D01*
G37*
D12*
X97790000Y-99568000D03*
D10*
G36*
X98067691Y-97556553D02*
X98088926Y-97559703D01*
X98109750Y-97564919D01*
X98129962Y-97572151D01*
X98149368Y-97581330D01*
X98167781Y-97592366D01*
X98185024Y-97605154D01*
X98200930Y-97619570D01*
X98215346Y-97635476D01*
X98228134Y-97652719D01*
X98239170Y-97671132D01*
X98248349Y-97690538D01*
X98255581Y-97710750D01*
X98260797Y-97731574D01*
X98263947Y-97752809D01*
X98265000Y-97774250D01*
X98265000Y-98211750D01*
X98263947Y-98233191D01*
X98260797Y-98254426D01*
X98255581Y-98275250D01*
X98248349Y-98295462D01*
X98239170Y-98314868D01*
X98228134Y-98333281D01*
X98215346Y-98350524D01*
X98200930Y-98366430D01*
X98185024Y-98380846D01*
X98167781Y-98393634D01*
X98149368Y-98404670D01*
X98129962Y-98413849D01*
X98109750Y-98421081D01*
X98088926Y-98426297D01*
X98067691Y-98429447D01*
X98046250Y-98430500D01*
X97533750Y-98430500D01*
X97512309Y-98429447D01*
X97491074Y-98426297D01*
X97470250Y-98421081D01*
X97450038Y-98413849D01*
X97430632Y-98404670D01*
X97412219Y-98393634D01*
X97394976Y-98380846D01*
X97379070Y-98366430D01*
X97364654Y-98350524D01*
X97351866Y-98333281D01*
X97340830Y-98314868D01*
X97331651Y-98295462D01*
X97324419Y-98275250D01*
X97319203Y-98254426D01*
X97316053Y-98233191D01*
X97315000Y-98211750D01*
X97315000Y-97774250D01*
X97316053Y-97752809D01*
X97319203Y-97731574D01*
X97324419Y-97710750D01*
X97331651Y-97690538D01*
X97340830Y-97671132D01*
X97351866Y-97652719D01*
X97364654Y-97635476D01*
X97379070Y-97619570D01*
X97394976Y-97605154D01*
X97412219Y-97592366D01*
X97430632Y-97581330D01*
X97450038Y-97572151D01*
X97470250Y-97564919D01*
X97491074Y-97559703D01*
X97512309Y-97556553D01*
X97533750Y-97555500D01*
X98046250Y-97555500D01*
X98067691Y-97556553D01*
X98067691Y-97556553D01*
G37*
D12*
X97790000Y-97993000D03*
G04 #@! TD*
D10*
G04 #@! TO.C,R18*
G36*
X111365191Y-53501053D02*
X111386426Y-53504203D01*
X111407250Y-53509419D01*
X111427462Y-53516651D01*
X111446868Y-53525830D01*
X111465281Y-53536866D01*
X111482524Y-53549654D01*
X111498430Y-53564070D01*
X111512846Y-53579976D01*
X111525634Y-53597219D01*
X111536670Y-53615632D01*
X111545849Y-53635038D01*
X111553081Y-53655250D01*
X111558297Y-53676074D01*
X111561447Y-53697309D01*
X111562500Y-53718750D01*
X111562500Y-54231250D01*
X111561447Y-54252691D01*
X111558297Y-54273926D01*
X111553081Y-54294750D01*
X111545849Y-54314962D01*
X111536670Y-54334368D01*
X111525634Y-54352781D01*
X111512846Y-54370024D01*
X111498430Y-54385930D01*
X111482524Y-54400346D01*
X111465281Y-54413134D01*
X111446868Y-54424170D01*
X111427462Y-54433349D01*
X111407250Y-54440581D01*
X111386426Y-54445797D01*
X111365191Y-54448947D01*
X111343750Y-54450000D01*
X110906250Y-54450000D01*
X110884809Y-54448947D01*
X110863574Y-54445797D01*
X110842750Y-54440581D01*
X110822538Y-54433349D01*
X110803132Y-54424170D01*
X110784719Y-54413134D01*
X110767476Y-54400346D01*
X110751570Y-54385930D01*
X110737154Y-54370024D01*
X110724366Y-54352781D01*
X110713330Y-54334368D01*
X110704151Y-54314962D01*
X110696919Y-54294750D01*
X110691703Y-54273926D01*
X110688553Y-54252691D01*
X110687500Y-54231250D01*
X110687500Y-53718750D01*
X110688553Y-53697309D01*
X110691703Y-53676074D01*
X110696919Y-53655250D01*
X110704151Y-53635038D01*
X110713330Y-53615632D01*
X110724366Y-53597219D01*
X110737154Y-53579976D01*
X110751570Y-53564070D01*
X110767476Y-53549654D01*
X110784719Y-53536866D01*
X110803132Y-53525830D01*
X110822538Y-53516651D01*
X110842750Y-53509419D01*
X110863574Y-53504203D01*
X110884809Y-53501053D01*
X110906250Y-53500000D01*
X111343750Y-53500000D01*
X111365191Y-53501053D01*
X111365191Y-53501053D01*
G37*
D12*
X111125000Y-53975000D03*
D10*
G36*
X109790191Y-53501053D02*
X109811426Y-53504203D01*
X109832250Y-53509419D01*
X109852462Y-53516651D01*
X109871868Y-53525830D01*
X109890281Y-53536866D01*
X109907524Y-53549654D01*
X109923430Y-53564070D01*
X109937846Y-53579976D01*
X109950634Y-53597219D01*
X109961670Y-53615632D01*
X109970849Y-53635038D01*
X109978081Y-53655250D01*
X109983297Y-53676074D01*
X109986447Y-53697309D01*
X109987500Y-53718750D01*
X109987500Y-54231250D01*
X109986447Y-54252691D01*
X109983297Y-54273926D01*
X109978081Y-54294750D01*
X109970849Y-54314962D01*
X109961670Y-54334368D01*
X109950634Y-54352781D01*
X109937846Y-54370024D01*
X109923430Y-54385930D01*
X109907524Y-54400346D01*
X109890281Y-54413134D01*
X109871868Y-54424170D01*
X109852462Y-54433349D01*
X109832250Y-54440581D01*
X109811426Y-54445797D01*
X109790191Y-54448947D01*
X109768750Y-54450000D01*
X109331250Y-54450000D01*
X109309809Y-54448947D01*
X109288574Y-54445797D01*
X109267750Y-54440581D01*
X109247538Y-54433349D01*
X109228132Y-54424170D01*
X109209719Y-54413134D01*
X109192476Y-54400346D01*
X109176570Y-54385930D01*
X109162154Y-54370024D01*
X109149366Y-54352781D01*
X109138330Y-54334368D01*
X109129151Y-54314962D01*
X109121919Y-54294750D01*
X109116703Y-54273926D01*
X109113553Y-54252691D01*
X109112500Y-54231250D01*
X109112500Y-53718750D01*
X109113553Y-53697309D01*
X109116703Y-53676074D01*
X109121919Y-53655250D01*
X109129151Y-53635038D01*
X109138330Y-53615632D01*
X109149366Y-53597219D01*
X109162154Y-53579976D01*
X109176570Y-53564070D01*
X109192476Y-53549654D01*
X109209719Y-53536866D01*
X109228132Y-53525830D01*
X109247538Y-53516651D01*
X109267750Y-53509419D01*
X109288574Y-53504203D01*
X109309809Y-53501053D01*
X109331250Y-53500000D01*
X109768750Y-53500000D01*
X109790191Y-53501053D01*
X109790191Y-53501053D01*
G37*
D12*
X109550000Y-53975000D03*
G04 #@! TD*
D10*
G04 #@! TO.C,R19*
G36*
X109790191Y-56676053D02*
X109811426Y-56679203D01*
X109832250Y-56684419D01*
X109852462Y-56691651D01*
X109871868Y-56700830D01*
X109890281Y-56711866D01*
X109907524Y-56724654D01*
X109923430Y-56739070D01*
X109937846Y-56754976D01*
X109950634Y-56772219D01*
X109961670Y-56790632D01*
X109970849Y-56810038D01*
X109978081Y-56830250D01*
X109983297Y-56851074D01*
X109986447Y-56872309D01*
X109987500Y-56893750D01*
X109987500Y-57406250D01*
X109986447Y-57427691D01*
X109983297Y-57448926D01*
X109978081Y-57469750D01*
X109970849Y-57489962D01*
X109961670Y-57509368D01*
X109950634Y-57527781D01*
X109937846Y-57545024D01*
X109923430Y-57560930D01*
X109907524Y-57575346D01*
X109890281Y-57588134D01*
X109871868Y-57599170D01*
X109852462Y-57608349D01*
X109832250Y-57615581D01*
X109811426Y-57620797D01*
X109790191Y-57623947D01*
X109768750Y-57625000D01*
X109331250Y-57625000D01*
X109309809Y-57623947D01*
X109288574Y-57620797D01*
X109267750Y-57615581D01*
X109247538Y-57608349D01*
X109228132Y-57599170D01*
X109209719Y-57588134D01*
X109192476Y-57575346D01*
X109176570Y-57560930D01*
X109162154Y-57545024D01*
X109149366Y-57527781D01*
X109138330Y-57509368D01*
X109129151Y-57489962D01*
X109121919Y-57469750D01*
X109116703Y-57448926D01*
X109113553Y-57427691D01*
X109112500Y-57406250D01*
X109112500Y-56893750D01*
X109113553Y-56872309D01*
X109116703Y-56851074D01*
X109121919Y-56830250D01*
X109129151Y-56810038D01*
X109138330Y-56790632D01*
X109149366Y-56772219D01*
X109162154Y-56754976D01*
X109176570Y-56739070D01*
X109192476Y-56724654D01*
X109209719Y-56711866D01*
X109228132Y-56700830D01*
X109247538Y-56691651D01*
X109267750Y-56684419D01*
X109288574Y-56679203D01*
X109309809Y-56676053D01*
X109331250Y-56675000D01*
X109768750Y-56675000D01*
X109790191Y-56676053D01*
X109790191Y-56676053D01*
G37*
D12*
X109550000Y-57150000D03*
D10*
G36*
X111365191Y-56676053D02*
X111386426Y-56679203D01*
X111407250Y-56684419D01*
X111427462Y-56691651D01*
X111446868Y-56700830D01*
X111465281Y-56711866D01*
X111482524Y-56724654D01*
X111498430Y-56739070D01*
X111512846Y-56754976D01*
X111525634Y-56772219D01*
X111536670Y-56790632D01*
X111545849Y-56810038D01*
X111553081Y-56830250D01*
X111558297Y-56851074D01*
X111561447Y-56872309D01*
X111562500Y-56893750D01*
X111562500Y-57406250D01*
X111561447Y-57427691D01*
X111558297Y-57448926D01*
X111553081Y-57469750D01*
X111545849Y-57489962D01*
X111536670Y-57509368D01*
X111525634Y-57527781D01*
X111512846Y-57545024D01*
X111498430Y-57560930D01*
X111482524Y-57575346D01*
X111465281Y-57588134D01*
X111446868Y-57599170D01*
X111427462Y-57608349D01*
X111407250Y-57615581D01*
X111386426Y-57620797D01*
X111365191Y-57623947D01*
X111343750Y-57625000D01*
X110906250Y-57625000D01*
X110884809Y-57623947D01*
X110863574Y-57620797D01*
X110842750Y-57615581D01*
X110822538Y-57608349D01*
X110803132Y-57599170D01*
X110784719Y-57588134D01*
X110767476Y-57575346D01*
X110751570Y-57560930D01*
X110737154Y-57545024D01*
X110724366Y-57527781D01*
X110713330Y-57509368D01*
X110704151Y-57489962D01*
X110696919Y-57469750D01*
X110691703Y-57448926D01*
X110688553Y-57427691D01*
X110687500Y-57406250D01*
X110687500Y-56893750D01*
X110688553Y-56872309D01*
X110691703Y-56851074D01*
X110696919Y-56830250D01*
X110704151Y-56810038D01*
X110713330Y-56790632D01*
X110724366Y-56772219D01*
X110737154Y-56754976D01*
X110751570Y-56739070D01*
X110767476Y-56724654D01*
X110784719Y-56711866D01*
X110803132Y-56700830D01*
X110822538Y-56691651D01*
X110842750Y-56684419D01*
X110863574Y-56679203D01*
X110884809Y-56676053D01*
X110906250Y-56675000D01*
X111343750Y-56675000D01*
X111365191Y-56676053D01*
X111365191Y-56676053D01*
G37*
D12*
X111125000Y-57150000D03*
G04 #@! TD*
D10*
G04 #@! TO.C,R20*
G36*
X109942691Y-61121053D02*
X109963926Y-61124203D01*
X109984750Y-61129419D01*
X110004962Y-61136651D01*
X110024368Y-61145830D01*
X110042781Y-61156866D01*
X110060024Y-61169654D01*
X110075930Y-61184070D01*
X110090346Y-61199976D01*
X110103134Y-61217219D01*
X110114170Y-61235632D01*
X110123349Y-61255038D01*
X110130581Y-61275250D01*
X110135797Y-61296074D01*
X110138947Y-61317309D01*
X110140000Y-61338750D01*
X110140000Y-61851250D01*
X110138947Y-61872691D01*
X110135797Y-61893926D01*
X110130581Y-61914750D01*
X110123349Y-61934962D01*
X110114170Y-61954368D01*
X110103134Y-61972781D01*
X110090346Y-61990024D01*
X110075930Y-62005930D01*
X110060024Y-62020346D01*
X110042781Y-62033134D01*
X110024368Y-62044170D01*
X110004962Y-62053349D01*
X109984750Y-62060581D01*
X109963926Y-62065797D01*
X109942691Y-62068947D01*
X109921250Y-62070000D01*
X109483750Y-62070000D01*
X109462309Y-62068947D01*
X109441074Y-62065797D01*
X109420250Y-62060581D01*
X109400038Y-62053349D01*
X109380632Y-62044170D01*
X109362219Y-62033134D01*
X109344976Y-62020346D01*
X109329070Y-62005930D01*
X109314654Y-61990024D01*
X109301866Y-61972781D01*
X109290830Y-61954368D01*
X109281651Y-61934962D01*
X109274419Y-61914750D01*
X109269203Y-61893926D01*
X109266053Y-61872691D01*
X109265000Y-61851250D01*
X109265000Y-61338750D01*
X109266053Y-61317309D01*
X109269203Y-61296074D01*
X109274419Y-61275250D01*
X109281651Y-61255038D01*
X109290830Y-61235632D01*
X109301866Y-61217219D01*
X109314654Y-61199976D01*
X109329070Y-61184070D01*
X109344976Y-61169654D01*
X109362219Y-61156866D01*
X109380632Y-61145830D01*
X109400038Y-61136651D01*
X109420250Y-61129419D01*
X109441074Y-61124203D01*
X109462309Y-61121053D01*
X109483750Y-61120000D01*
X109921250Y-61120000D01*
X109942691Y-61121053D01*
X109942691Y-61121053D01*
G37*
D12*
X109702500Y-61595000D03*
D10*
G36*
X111517691Y-61121053D02*
X111538926Y-61124203D01*
X111559750Y-61129419D01*
X111579962Y-61136651D01*
X111599368Y-61145830D01*
X111617781Y-61156866D01*
X111635024Y-61169654D01*
X111650930Y-61184070D01*
X111665346Y-61199976D01*
X111678134Y-61217219D01*
X111689170Y-61235632D01*
X111698349Y-61255038D01*
X111705581Y-61275250D01*
X111710797Y-61296074D01*
X111713947Y-61317309D01*
X111715000Y-61338750D01*
X111715000Y-61851250D01*
X111713947Y-61872691D01*
X111710797Y-61893926D01*
X111705581Y-61914750D01*
X111698349Y-61934962D01*
X111689170Y-61954368D01*
X111678134Y-61972781D01*
X111665346Y-61990024D01*
X111650930Y-62005930D01*
X111635024Y-62020346D01*
X111617781Y-62033134D01*
X111599368Y-62044170D01*
X111579962Y-62053349D01*
X111559750Y-62060581D01*
X111538926Y-62065797D01*
X111517691Y-62068947D01*
X111496250Y-62070000D01*
X111058750Y-62070000D01*
X111037309Y-62068947D01*
X111016074Y-62065797D01*
X110995250Y-62060581D01*
X110975038Y-62053349D01*
X110955632Y-62044170D01*
X110937219Y-62033134D01*
X110919976Y-62020346D01*
X110904070Y-62005930D01*
X110889654Y-61990024D01*
X110876866Y-61972781D01*
X110865830Y-61954368D01*
X110856651Y-61934962D01*
X110849419Y-61914750D01*
X110844203Y-61893926D01*
X110841053Y-61872691D01*
X110840000Y-61851250D01*
X110840000Y-61338750D01*
X110841053Y-61317309D01*
X110844203Y-61296074D01*
X110849419Y-61275250D01*
X110856651Y-61255038D01*
X110865830Y-61235632D01*
X110876866Y-61217219D01*
X110889654Y-61199976D01*
X110904070Y-61184070D01*
X110919976Y-61169654D01*
X110937219Y-61156866D01*
X110955632Y-61145830D01*
X110975038Y-61136651D01*
X110995250Y-61129419D01*
X111016074Y-61124203D01*
X111037309Y-61121053D01*
X111058750Y-61120000D01*
X111496250Y-61120000D01*
X111517691Y-61121053D01*
X111517691Y-61121053D01*
G37*
D12*
X111277500Y-61595000D03*
G04 #@! TD*
D13*
G04 #@! TO.C,SW3*
X111990000Y-72105000D03*
X111990000Y-64705000D03*
G04 #@! TD*
D14*
G04 #@! TO.C,U7*
X101051000Y-97221000D03*
X101051000Y-98171000D03*
X101051000Y-99121000D03*
X103251000Y-99121000D03*
X103251000Y-97221000D03*
X103251000Y-98171000D03*
G04 #@! TD*
D15*
G04 #@! TO.C,U8*
X99576000Y-83753000D03*
X100076000Y-83753000D03*
X100576000Y-83753000D03*
X100576000Y-84903000D03*
X100076000Y-84903000D03*
D16*
X99576000Y-84853000D03*
G04 #@! TD*
D17*
G04 #@! TO.C,U9*
X100670000Y-88262000D03*
X100020000Y-88262000D03*
X99370000Y-88262000D03*
X98720000Y-88262000D03*
X98720000Y-91062000D03*
X99370000Y-91062000D03*
X100020000Y-91062000D03*
X100670000Y-91062000D03*
G04 #@! TD*
D18*
G04 #@! TO.C,U13*
X104140000Y-77000000D03*
X104140000Y-76200000D03*
X104140000Y-75400000D03*
D19*
X103190000Y-77200000D03*
X103190000Y-76700000D03*
X103190000Y-76200000D03*
X103190000Y-75700000D03*
X103190000Y-75200000D03*
X105090000Y-75200000D03*
X105090000Y-75700000D03*
X105090000Y-76200000D03*
X105090000Y-76700000D03*
X105090000Y-77200000D03*
G04 #@! TD*
D10*
G04 #@! TO.C,R8*
G36*
X104925691Y-80792553D02*
X104946926Y-80795703D01*
X104967750Y-80800919D01*
X104987962Y-80808151D01*
X105007368Y-80817330D01*
X105025781Y-80828366D01*
X105043024Y-80841154D01*
X105058930Y-80855570D01*
X105073346Y-80871476D01*
X105086134Y-80888719D01*
X105097170Y-80907132D01*
X105106349Y-80926538D01*
X105113581Y-80946750D01*
X105118797Y-80967574D01*
X105121947Y-80988809D01*
X105123000Y-81010250D01*
X105123000Y-81447750D01*
X105121947Y-81469191D01*
X105118797Y-81490426D01*
X105113581Y-81511250D01*
X105106349Y-81531462D01*
X105097170Y-81550868D01*
X105086134Y-81569281D01*
X105073346Y-81586524D01*
X105058930Y-81602430D01*
X105043024Y-81616846D01*
X105025781Y-81629634D01*
X105007368Y-81640670D01*
X104987962Y-81649849D01*
X104967750Y-81657081D01*
X104946926Y-81662297D01*
X104925691Y-81665447D01*
X104904250Y-81666500D01*
X104391750Y-81666500D01*
X104370309Y-81665447D01*
X104349074Y-81662297D01*
X104328250Y-81657081D01*
X104308038Y-81649849D01*
X104288632Y-81640670D01*
X104270219Y-81629634D01*
X104252976Y-81616846D01*
X104237070Y-81602430D01*
X104222654Y-81586524D01*
X104209866Y-81569281D01*
X104198830Y-81550868D01*
X104189651Y-81531462D01*
X104182419Y-81511250D01*
X104177203Y-81490426D01*
X104174053Y-81469191D01*
X104173000Y-81447750D01*
X104173000Y-81010250D01*
X104174053Y-80988809D01*
X104177203Y-80967574D01*
X104182419Y-80946750D01*
X104189651Y-80926538D01*
X104198830Y-80907132D01*
X104209866Y-80888719D01*
X104222654Y-80871476D01*
X104237070Y-80855570D01*
X104252976Y-80841154D01*
X104270219Y-80828366D01*
X104288632Y-80817330D01*
X104308038Y-80808151D01*
X104328250Y-80800919D01*
X104349074Y-80795703D01*
X104370309Y-80792553D01*
X104391750Y-80791500D01*
X104904250Y-80791500D01*
X104925691Y-80792553D01*
X104925691Y-80792553D01*
G37*
D12*
X104648000Y-81229000D03*
D10*
G36*
X104925691Y-82367553D02*
X104946926Y-82370703D01*
X104967750Y-82375919D01*
X104987962Y-82383151D01*
X105007368Y-82392330D01*
X105025781Y-82403366D01*
X105043024Y-82416154D01*
X105058930Y-82430570D01*
X105073346Y-82446476D01*
X105086134Y-82463719D01*
X105097170Y-82482132D01*
X105106349Y-82501538D01*
X105113581Y-82521750D01*
X105118797Y-82542574D01*
X105121947Y-82563809D01*
X105123000Y-82585250D01*
X105123000Y-83022750D01*
X105121947Y-83044191D01*
X105118797Y-83065426D01*
X105113581Y-83086250D01*
X105106349Y-83106462D01*
X105097170Y-83125868D01*
X105086134Y-83144281D01*
X105073346Y-83161524D01*
X105058930Y-83177430D01*
X105043024Y-83191846D01*
X105025781Y-83204634D01*
X105007368Y-83215670D01*
X104987962Y-83224849D01*
X104967750Y-83232081D01*
X104946926Y-83237297D01*
X104925691Y-83240447D01*
X104904250Y-83241500D01*
X104391750Y-83241500D01*
X104370309Y-83240447D01*
X104349074Y-83237297D01*
X104328250Y-83232081D01*
X104308038Y-83224849D01*
X104288632Y-83215670D01*
X104270219Y-83204634D01*
X104252976Y-83191846D01*
X104237070Y-83177430D01*
X104222654Y-83161524D01*
X104209866Y-83144281D01*
X104198830Y-83125868D01*
X104189651Y-83106462D01*
X104182419Y-83086250D01*
X104177203Y-83065426D01*
X104174053Y-83044191D01*
X104173000Y-83022750D01*
X104173000Y-82585250D01*
X104174053Y-82563809D01*
X104177203Y-82542574D01*
X104182419Y-82521750D01*
X104189651Y-82501538D01*
X104198830Y-82482132D01*
X104209866Y-82463719D01*
X104222654Y-82446476D01*
X104237070Y-82430570D01*
X104252976Y-82416154D01*
X104270219Y-82403366D01*
X104288632Y-82392330D01*
X104308038Y-82383151D01*
X104328250Y-82375919D01*
X104349074Y-82370703D01*
X104370309Y-82367553D01*
X104391750Y-82366500D01*
X104904250Y-82366500D01*
X104925691Y-82367553D01*
X104925691Y-82367553D01*
G37*
D12*
X104648000Y-82804000D03*
G04 #@! TD*
D10*
G04 #@! TO.C,R9*
G36*
X104925691Y-86203053D02*
X104946926Y-86206203D01*
X104967750Y-86211419D01*
X104987962Y-86218651D01*
X105007368Y-86227830D01*
X105025781Y-86238866D01*
X105043024Y-86251654D01*
X105058930Y-86266070D01*
X105073346Y-86281976D01*
X105086134Y-86299219D01*
X105097170Y-86317632D01*
X105106349Y-86337038D01*
X105113581Y-86357250D01*
X105118797Y-86378074D01*
X105121947Y-86399309D01*
X105123000Y-86420750D01*
X105123000Y-86858250D01*
X105121947Y-86879691D01*
X105118797Y-86900926D01*
X105113581Y-86921750D01*
X105106349Y-86941962D01*
X105097170Y-86961368D01*
X105086134Y-86979781D01*
X105073346Y-86997024D01*
X105058930Y-87012930D01*
X105043024Y-87027346D01*
X105025781Y-87040134D01*
X105007368Y-87051170D01*
X104987962Y-87060349D01*
X104967750Y-87067581D01*
X104946926Y-87072797D01*
X104925691Y-87075947D01*
X104904250Y-87077000D01*
X104391750Y-87077000D01*
X104370309Y-87075947D01*
X104349074Y-87072797D01*
X104328250Y-87067581D01*
X104308038Y-87060349D01*
X104288632Y-87051170D01*
X104270219Y-87040134D01*
X104252976Y-87027346D01*
X104237070Y-87012930D01*
X104222654Y-86997024D01*
X104209866Y-86979781D01*
X104198830Y-86961368D01*
X104189651Y-86941962D01*
X104182419Y-86921750D01*
X104177203Y-86900926D01*
X104174053Y-86879691D01*
X104173000Y-86858250D01*
X104173000Y-86420750D01*
X104174053Y-86399309D01*
X104177203Y-86378074D01*
X104182419Y-86357250D01*
X104189651Y-86337038D01*
X104198830Y-86317632D01*
X104209866Y-86299219D01*
X104222654Y-86281976D01*
X104237070Y-86266070D01*
X104252976Y-86251654D01*
X104270219Y-86238866D01*
X104288632Y-86227830D01*
X104308038Y-86218651D01*
X104328250Y-86211419D01*
X104349074Y-86206203D01*
X104370309Y-86203053D01*
X104391750Y-86202000D01*
X104904250Y-86202000D01*
X104925691Y-86203053D01*
X104925691Y-86203053D01*
G37*
D12*
X104648000Y-86639500D03*
D10*
G36*
X104925691Y-84628053D02*
X104946926Y-84631203D01*
X104967750Y-84636419D01*
X104987962Y-84643651D01*
X105007368Y-84652830D01*
X105025781Y-84663866D01*
X105043024Y-84676654D01*
X105058930Y-84691070D01*
X105073346Y-84706976D01*
X105086134Y-84724219D01*
X105097170Y-84742632D01*
X105106349Y-84762038D01*
X105113581Y-84782250D01*
X105118797Y-84803074D01*
X105121947Y-84824309D01*
X105123000Y-84845750D01*
X105123000Y-85283250D01*
X105121947Y-85304691D01*
X105118797Y-85325926D01*
X105113581Y-85346750D01*
X105106349Y-85366962D01*
X105097170Y-85386368D01*
X105086134Y-85404781D01*
X105073346Y-85422024D01*
X105058930Y-85437930D01*
X105043024Y-85452346D01*
X105025781Y-85465134D01*
X105007368Y-85476170D01*
X104987962Y-85485349D01*
X104967750Y-85492581D01*
X104946926Y-85497797D01*
X104925691Y-85500947D01*
X104904250Y-85502000D01*
X104391750Y-85502000D01*
X104370309Y-85500947D01*
X104349074Y-85497797D01*
X104328250Y-85492581D01*
X104308038Y-85485349D01*
X104288632Y-85476170D01*
X104270219Y-85465134D01*
X104252976Y-85452346D01*
X104237070Y-85437930D01*
X104222654Y-85422024D01*
X104209866Y-85404781D01*
X104198830Y-85386368D01*
X104189651Y-85366962D01*
X104182419Y-85346750D01*
X104177203Y-85325926D01*
X104174053Y-85304691D01*
X104173000Y-85283250D01*
X104173000Y-84845750D01*
X104174053Y-84824309D01*
X104177203Y-84803074D01*
X104182419Y-84782250D01*
X104189651Y-84762038D01*
X104198830Y-84742632D01*
X104209866Y-84724219D01*
X104222654Y-84706976D01*
X104237070Y-84691070D01*
X104252976Y-84676654D01*
X104270219Y-84663866D01*
X104288632Y-84652830D01*
X104308038Y-84643651D01*
X104328250Y-84636419D01*
X104349074Y-84631203D01*
X104370309Y-84628053D01*
X104391750Y-84627000D01*
X104904250Y-84627000D01*
X104925691Y-84628053D01*
X104925691Y-84628053D01*
G37*
D12*
X104648000Y-85064500D03*
G04 #@! TD*
D10*
G04 #@! TO.C,R11*
G36*
X107262491Y-73883753D02*
X107283726Y-73886903D01*
X107304550Y-73892119D01*
X107324762Y-73899351D01*
X107344168Y-73908530D01*
X107362581Y-73919566D01*
X107379824Y-73932354D01*
X107395730Y-73946770D01*
X107410146Y-73962676D01*
X107422934Y-73979919D01*
X107433970Y-73998332D01*
X107443149Y-74017738D01*
X107450381Y-74037950D01*
X107455597Y-74058774D01*
X107458747Y-74080009D01*
X107459800Y-74101450D01*
X107459800Y-74538950D01*
X107458747Y-74560391D01*
X107455597Y-74581626D01*
X107450381Y-74602450D01*
X107443149Y-74622662D01*
X107433970Y-74642068D01*
X107422934Y-74660481D01*
X107410146Y-74677724D01*
X107395730Y-74693630D01*
X107379824Y-74708046D01*
X107362581Y-74720834D01*
X107344168Y-74731870D01*
X107324762Y-74741049D01*
X107304550Y-74748281D01*
X107283726Y-74753497D01*
X107262491Y-74756647D01*
X107241050Y-74757700D01*
X106728550Y-74757700D01*
X106707109Y-74756647D01*
X106685874Y-74753497D01*
X106665050Y-74748281D01*
X106644838Y-74741049D01*
X106625432Y-74731870D01*
X106607019Y-74720834D01*
X106589776Y-74708046D01*
X106573870Y-74693630D01*
X106559454Y-74677724D01*
X106546666Y-74660481D01*
X106535630Y-74642068D01*
X106526451Y-74622662D01*
X106519219Y-74602450D01*
X106514003Y-74581626D01*
X106510853Y-74560391D01*
X106509800Y-74538950D01*
X106509800Y-74101450D01*
X106510853Y-74080009D01*
X106514003Y-74058774D01*
X106519219Y-74037950D01*
X106526451Y-74017738D01*
X106535630Y-73998332D01*
X106546666Y-73979919D01*
X106559454Y-73962676D01*
X106573870Y-73946770D01*
X106589776Y-73932354D01*
X106607019Y-73919566D01*
X106625432Y-73908530D01*
X106644838Y-73899351D01*
X106665050Y-73892119D01*
X106685874Y-73886903D01*
X106707109Y-73883753D01*
X106728550Y-73882700D01*
X107241050Y-73882700D01*
X107262491Y-73883753D01*
X107262491Y-73883753D01*
G37*
D12*
X106984800Y-74320200D03*
D10*
G36*
X107262491Y-75458753D02*
X107283726Y-75461903D01*
X107304550Y-75467119D01*
X107324762Y-75474351D01*
X107344168Y-75483530D01*
X107362581Y-75494566D01*
X107379824Y-75507354D01*
X107395730Y-75521770D01*
X107410146Y-75537676D01*
X107422934Y-75554919D01*
X107433970Y-75573332D01*
X107443149Y-75592738D01*
X107450381Y-75612950D01*
X107455597Y-75633774D01*
X107458747Y-75655009D01*
X107459800Y-75676450D01*
X107459800Y-76113950D01*
X107458747Y-76135391D01*
X107455597Y-76156626D01*
X107450381Y-76177450D01*
X107443149Y-76197662D01*
X107433970Y-76217068D01*
X107422934Y-76235481D01*
X107410146Y-76252724D01*
X107395730Y-76268630D01*
X107379824Y-76283046D01*
X107362581Y-76295834D01*
X107344168Y-76306870D01*
X107324762Y-76316049D01*
X107304550Y-76323281D01*
X107283726Y-76328497D01*
X107262491Y-76331647D01*
X107241050Y-76332700D01*
X106728550Y-76332700D01*
X106707109Y-76331647D01*
X106685874Y-76328497D01*
X106665050Y-76323281D01*
X106644838Y-76316049D01*
X106625432Y-76306870D01*
X106607019Y-76295834D01*
X106589776Y-76283046D01*
X106573870Y-76268630D01*
X106559454Y-76252724D01*
X106546666Y-76235481D01*
X106535630Y-76217068D01*
X106526451Y-76197662D01*
X106519219Y-76177450D01*
X106514003Y-76156626D01*
X106510853Y-76135391D01*
X106509800Y-76113950D01*
X106509800Y-75676450D01*
X106510853Y-75655009D01*
X106514003Y-75633774D01*
X106519219Y-75612950D01*
X106526451Y-75592738D01*
X106535630Y-75573332D01*
X106546666Y-75554919D01*
X106559454Y-75537676D01*
X106573870Y-75521770D01*
X106589776Y-75507354D01*
X106607019Y-75494566D01*
X106625432Y-75483530D01*
X106644838Y-75474351D01*
X106665050Y-75467119D01*
X106685874Y-75461903D01*
X106707109Y-75458753D01*
X106728550Y-75457700D01*
X107241050Y-75457700D01*
X107262491Y-75458753D01*
X107262491Y-75458753D01*
G37*
D12*
X106984800Y-75895200D03*
G04 #@! TD*
D10*
G04 #@! TO.C,R12*
G36*
X101826891Y-75153953D02*
X101848126Y-75157103D01*
X101868950Y-75162319D01*
X101889162Y-75169551D01*
X101908568Y-75178730D01*
X101926981Y-75189766D01*
X101944224Y-75202554D01*
X101960130Y-75216970D01*
X101974546Y-75232876D01*
X101987334Y-75250119D01*
X101998370Y-75268532D01*
X102007549Y-75287938D01*
X102014781Y-75308150D01*
X102019997Y-75328974D01*
X102023147Y-75350209D01*
X102024200Y-75371650D01*
X102024200Y-75809150D01*
X102023147Y-75830591D01*
X102019997Y-75851826D01*
X102014781Y-75872650D01*
X102007549Y-75892862D01*
X101998370Y-75912268D01*
X101987334Y-75930681D01*
X101974546Y-75947924D01*
X101960130Y-75963830D01*
X101944224Y-75978246D01*
X101926981Y-75991034D01*
X101908568Y-76002070D01*
X101889162Y-76011249D01*
X101868950Y-76018481D01*
X101848126Y-76023697D01*
X101826891Y-76026847D01*
X101805450Y-76027900D01*
X101292950Y-76027900D01*
X101271509Y-76026847D01*
X101250274Y-76023697D01*
X101229450Y-76018481D01*
X101209238Y-76011249D01*
X101189832Y-76002070D01*
X101171419Y-75991034D01*
X101154176Y-75978246D01*
X101138270Y-75963830D01*
X101123854Y-75947924D01*
X101111066Y-75930681D01*
X101100030Y-75912268D01*
X101090851Y-75892862D01*
X101083619Y-75872650D01*
X101078403Y-75851826D01*
X101075253Y-75830591D01*
X101074200Y-75809150D01*
X101074200Y-75371650D01*
X101075253Y-75350209D01*
X101078403Y-75328974D01*
X101083619Y-75308150D01*
X101090851Y-75287938D01*
X101100030Y-75268532D01*
X101111066Y-75250119D01*
X101123854Y-75232876D01*
X101138270Y-75216970D01*
X101154176Y-75202554D01*
X101171419Y-75189766D01*
X101189832Y-75178730D01*
X101209238Y-75169551D01*
X101229450Y-75162319D01*
X101250274Y-75157103D01*
X101271509Y-75153953D01*
X101292950Y-75152900D01*
X101805450Y-75152900D01*
X101826891Y-75153953D01*
X101826891Y-75153953D01*
G37*
D12*
X101549200Y-75590400D03*
D10*
G36*
X101826891Y-73578953D02*
X101848126Y-73582103D01*
X101868950Y-73587319D01*
X101889162Y-73594551D01*
X101908568Y-73603730D01*
X101926981Y-73614766D01*
X101944224Y-73627554D01*
X101960130Y-73641970D01*
X101974546Y-73657876D01*
X101987334Y-73675119D01*
X101998370Y-73693532D01*
X102007549Y-73712938D01*
X102014781Y-73733150D01*
X102019997Y-73753974D01*
X102023147Y-73775209D01*
X102024200Y-73796650D01*
X102024200Y-74234150D01*
X102023147Y-74255591D01*
X102019997Y-74276826D01*
X102014781Y-74297650D01*
X102007549Y-74317862D01*
X101998370Y-74337268D01*
X101987334Y-74355681D01*
X101974546Y-74372924D01*
X101960130Y-74388830D01*
X101944224Y-74403246D01*
X101926981Y-74416034D01*
X101908568Y-74427070D01*
X101889162Y-74436249D01*
X101868950Y-74443481D01*
X101848126Y-74448697D01*
X101826891Y-74451847D01*
X101805450Y-74452900D01*
X101292950Y-74452900D01*
X101271509Y-74451847D01*
X101250274Y-74448697D01*
X101229450Y-74443481D01*
X101209238Y-74436249D01*
X101189832Y-74427070D01*
X101171419Y-74416034D01*
X101154176Y-74403246D01*
X101138270Y-74388830D01*
X101123854Y-74372924D01*
X101111066Y-74355681D01*
X101100030Y-74337268D01*
X101090851Y-74317862D01*
X101083619Y-74297650D01*
X101078403Y-74276826D01*
X101075253Y-74255591D01*
X101074200Y-74234150D01*
X101074200Y-73796650D01*
X101075253Y-73775209D01*
X101078403Y-73753974D01*
X101083619Y-73733150D01*
X101090851Y-73712938D01*
X101100030Y-73693532D01*
X101111066Y-73675119D01*
X101123854Y-73657876D01*
X101138270Y-73641970D01*
X101154176Y-73627554D01*
X101171419Y-73614766D01*
X101189832Y-73603730D01*
X101209238Y-73594551D01*
X101229450Y-73587319D01*
X101250274Y-73582103D01*
X101271509Y-73578953D01*
X101292950Y-73577900D01*
X101805450Y-73577900D01*
X101826891Y-73578953D01*
X101826891Y-73578953D01*
G37*
D12*
X101549200Y-74015400D03*
G04 #@! TD*
M02*
